<svg width="1469" height="1080" viewBox="0 0 1469 1080" fill="none" xmlns="http://www.w3.org/2000/svg">
<g clip-path="url(#clip0)">
<rect width="1469" height="1080" fill="#242930"/>
<path opacity="0.6" fill-rule="evenodd" clip-rule="evenodd" d="M0 -1.15398e-05C33.8255 0.0500513 67.6444 6.03628 99.8733 17.9587C131.349 29.6659 160.022 47.8534 184.042 71.3467C209.128 96.2224 228.914 125.936 242.201 158.691C256.734 193.339 264 233.609 264 279.5C264 324.774 256.734 364.89 242.201 399.847C228.99 432.777 209.198 462.656 184.042 487.653C159.98 511.163 131.256 529.351 99.7291 541.041C67.546 552.946 33.7774 558.932 -2.44346e-05 558.999L-1.74603e-05 399.445C65.963 399.223 119.368 345.608 119.368 279.502C119.368 213.397 65.9631 159.783 -6.97462e-06 159.561L0 -1.15398e-05Z" fill="url(#paint0_linear)"/>
<path opacity="0.6" fill-rule="evenodd" clip-rule="evenodd" d="M343.309 718.799C308.699 704.266 268.429 697 222.5 697C177.206 697 137.11 704.266 102.211 718.799C69.2602 732.003 39.3601 751.795 14.3471 776.958C-9.14629 800.978 -27.3338 829.651 -39.041 861.127C-62.9864 925.856 -62.9864 996.999 -39.041 1061.73C-27.3518 1093.26 -9.16332 1121.98 14.3471 1146.04C39.3432 1171.2 69.223 1190.99 102.153 1204.2C137.11 1218.73 177.226 1226 222.5 1226C268.391 1226 308.66 1218.73 343.309 1204.2C376.063 1190.91 405.777 1171.13 430.653 1146.04C454.146 1122.02 472.334 1093.35 484.041 1061.87C507.986 997.144 507.986 926.001 484.041 861.271C472.352 829.744 454.163 801.02 430.653 776.958C405.777 751.872 376.063 732.086 343.309 718.799ZM102.554 961.589C102.554 895.437 156.255 841.81 222.497 841.81C288.74 841.81 342.44 895.437 342.44 961.589C342.44 1027.74 288.74 1081.37 222.497 1081.37C156.255 1081.37 102.554 1027.74 102.554 961.589Z" fill="url(#paint1_linear)"/>
<g opacity="0.3">
<path d="M1248.38 3C1190.22 3.7468 1138.97 13.4209 1094.62 32.0223C1050.94 49.7408 1011.31 76.1251 978.142 109.579C946.813 141.609 922.56 179.845 906.948 221.818C891.049 264.795 883.067 309.893 883 355H1095.78C1096.06 269.492 1163.63 199.808 1248.38 195.987V3Z" fill="url(#paint2_linear)"/>
<path d="M1248.38 3C1190.22 3.7468 1138.97 13.4209 1094.62 32.0223C1050.94 49.7408 1011.31 76.1251 978.142 109.579C946.813 141.609 922.56 179.845 906.948 221.818C891.049 264.795 883.067 309.893 883 355H1095.78C1096.06 269.492 1163.63 199.808 1248.38 195.987V3Z" fill="url(#paint3_linear)"/>
</g>
<path fill-rule="evenodd" clip-rule="evenodd" d="M2810.8 710.375C2810.94 710.535 2811.09 710.695 2811.24 710.855L2810.9 711.001C2747.62 738.904 2685.85 664.473 2646.16 611.807C2640.2 603.889 2666.51 587.392 2672.81 585.718C2680.9 583.625 2712.71 570.546 2694.63 537.097C2694.63 537.097 2692.85 535.423 2692.43 518.646C2692.01 501.87 2672.01 454.296 2620.31 457.121C2620.31 457.121 2607.83 456.388 2588.6 468.456C2575.92 476.411 2567.51 477.349 2561.74 477.994C2558.75 478.327 2556.47 478.582 2554.66 479.687C2550.12 482.356 2546.5 486.343 2544.27 491.121C2542.04 495.898 2541.32 501.24 2542.19 506.439L2542.41 507.587C2545.15 521.579 2548.09 536.638 2539.58 532.633C2537.46 531.637 2530.53 527.169 2520.8 520.895L2520.79 520.892L2520.79 520.89L2520.79 520.889C2490.27 501.219 2432.23 463.806 2408.67 459.946C2382.71 455.656 2329.75 455.935 2290.21 500.44C2281.8 509.968 2274.61 520.514 2268.81 531.831C2268.81 531.831 2267.63 534.028 2265.89 537.551C2265.19 538.981 2264.39 540.655 2263.55 542.468C2263.44 542.709 2263.33 542.953 2263.22 543.199C2228.86 539.265 2196.68 545.579 2178.23 554.872C2151.08 568.777 2085.29 589.322 2079.96 589.322C2079.96 589.322 2087.27 571.211 2082.19 562.138C2077.11 553.065 2063.81 547.155 2055.35 547.503C2052.34 547.627 2047.83 545.383 2042.2 542.578C2032.03 537.514 2018.18 530.619 2002.79 532.52C1978.87 535.475 1949.49 539.82 1933.17 574.861C1933.17 574.861 1916.01 585.846 1921.16 601.524L1921.44 602.323C1923.07 607.458 1923.86 611.415 1924.48 614.574C1925.69 620.674 1926.31 623.794 1931.36 626.657C1939.02 631.002 1956.8 640.944 1956.8 640.944C1956.8 640.944 1859.75 710.47 1791.98 702.752C1789.26 702.439 1786.68 702.092 1784.25 701.675C1775.24 700.312 1766.52 697.495 1758.42 693.332L1757.86 693.019V693.297C1745.6 686.409 1740.33 677.414 1738.69 669.235C1739.39 672.182 1740.49 675.031 1741.97 677.7C1744.51 682.267 1748.09 686.183 1752.44 689.133C1754.22 690.409 1756.07 691.572 1758 692.616C1761.68 687.005 1765.21 680.808 1768.45 675.127L1768.46 675.11L1768.47 675.103L1768.47 675.09L1768.48 675.081C1769.41 673.443 1770.32 671.849 1771.2 670.323C1782.82 650.19 1791.73 628.42 1790.71 606.684C1790.12 593.784 1785.94 581.296 1778.63 570.598C1772.84 562.114 1766.18 554.236 1758.77 547.086C1754.09 542.453 1723.57 513.507 1716.52 522.076C1716 522.946 1715.69 523.923 1715.61 524.932C1715.53 525.94 1715.69 526.953 1716.07 527.893C1718.21 536.845 1726.91 567.463 1734.2 580.734C1734.69 581.64 1735.18 582.476 1735.68 583.207C1733.82 582.99 1731.94 582.99 1730.08 583.207C1729.06 583.834 1728.07 584.531 1727.05 585.262C1726.92 585.561 1726.78 585.906 1726.65 586.293C1723.92 588.259 1721.31 590.385 1718.84 592.659C1718.84 592.659 1708.4 589.531 1700.42 606.564C1698.67 610.313 1696.9 613.758 1695.28 616.893C1689.56 628.006 1685.84 635.223 1692.14 638.233C1692.14 638.233 1692.14 667.523 1709.89 695.429C1706.54 697.853 1703.07 700.099 1699.48 702.159C1639.45 736.51 1570.11 668.994 1525.07 620.833C1518.31 613.579 1542.76 594.363 1548.86 592.062C1556.68 589.132 1586.99 572.811 1565.47 541.425C1565.47 541.425 1563.51 539.96 1561.35 523.325C1559.19 506.69 1534.25 461.459 1483.18 469.689C1483.18 469.689 1470.69 470.282 1452.84 484.301C1441.08 493.53 1432.8 495.338 1427.11 496.581C1424.16 497.226 1421.9 497.719 1420.22 499.018C1415.98 502.143 1412.78 506.485 1411.06 511.468C1409.34 516.451 1409.18 521.839 1410.59 526.917L1411.01 528.276C1415.16 541.852 1419.57 556.283 1410.59 553.212C1408.31 552.43 1400.67 548.584 1390 543.207C1357.38 526.772 1296.35 496.025 1272.67 494.659C1246.34 493.159 1193.7 499.018 1159.14 547.423L1159.58 547.543C1152.15 557.988 1146.05 569.321 1141.41 581.281C1141.41 581.281 1140.46 583.615 1139.08 587.362L1139.22 587.378C1135.13 598.39 1127.44 621.628 1130.78 632.89C1130.78 632.89 1123 636.359 1126.73 643.297C1130.46 650.235 1131.77 653.427 1131.77 653.427C1131.77 653.427 1127.55 664.567 1150.52 685.844C1150.42 686.075 1150.33 686.296 1150.26 686.506L1150.05 687.028C1148.74 690.785 1148.8 694.889 1150.23 698.602C1151.66 702.316 1154.36 705.397 1157.85 707.292C1160.63 708.754 1169.23 705.621 1178.66 701.234C1178.94 701.103 1179.22 700.972 1179.5 700.839C1189.3 708.849 1207.42 721.954 1213.1 716.313C1217.73 711.792 1215.99 709.518 1213.09 705.73C1211.04 703.054 1208.41 699.622 1207.05 694.11C1206.53 692.131 1205.88 689.951 1205.09 687.603L1210.7 684.486C1211.18 684.252 1211.93 684.167 1212.88 684.059C1217.42 683.543 1226.52 682.508 1232.03 661.959C1232.31 661.959 1242.12 648.136 1235.22 638.248C1235.22 638.248 1232.04 587.686 1193.51 562.375C1193.75 562.146 1193.99 561.92 1194.23 561.696C1194.04 561.575 1193.86 561.456 1193.68 561.337C1200.61 554.597 1208.42 548.825 1216.9 544.18C1267.38 515.755 1314.5 556.069 1338.48 576.591C1342.28 579.838 1345.49 582.589 1348.05 584.494C1366.78 598.444 1374.18 610.929 1376.72 619.647C1379.27 628.366 1380.7 644.756 1372.16 678.131C1367.07 697.988 1368.25 710.549 1369.34 722.256C1370.09 730.225 1370.8 737.798 1369.47 747.007C1368.13 756.309 1364.97 765.997 1361.93 775.28C1357.56 788.686 1353.46 801.248 1355.52 810.582C1359.01 826.38 1364.13 836.319 1366.4 838.97C1368.67 841.62 1367.97 842.945 1366.09 844.584C1364.2 846.223 1339.75 870.182 1344.88 881.202C1350.01 892.222 1363.3 892.92 1380.39 889.99C1384.48 889.522 1392.18 883.434 1396.99 879.64L1396.99 879.638C1398.62 878.351 1399.91 877.328 1400.62 876.878C1409.88 872.298 1420.11 870.014 1430.44 870.217C1446.49 870.217 1447.22 842.318 1416.49 806.607C1416.49 806.607 1411.99 796.144 1430.16 794.017C1442.08 792.622 1448.25 788.919 1453.68 785.659C1456.54 783.947 1459.19 782.357 1462.36 781.288C1471.57 778.184 1476.73 781.846 1476.31 788.856C1476.3 789.089 1476.28 789.349 1476.26 789.634C1475.75 797.904 1473.95 827.112 1484.51 834.192C1490.91 838.484 1497.9 840.572 1505.25 842.765C1510.45 844.315 1515.81 845.917 1521.27 848.386C1526.12 850.578 1530.49 853.304 1534.64 855.894C1541.78 860.35 1548.28 864.407 1555.49 864.672C1566.9 865.09 1570.73 858.952 1570.73 858.952C1570.73 858.952 1595.64 858.673 1586.85 839.597C1581.64 828.304 1565.46 818.991 1551.97 811.224C1542.67 805.871 1534.64 801.252 1532.36 797.225C1529.86 792.803 1532.94 783.892 1536.79 772.76C1541.53 759.051 1547.44 741.974 1545.51 725.769C1545.51 725.769 1544.71 722.281 1538.54 718.794C1536.32 717.543 1531.48 716.328 1526.02 714.958C1516.26 712.511 1504.54 709.571 1502.37 705.054C1498.98 698.009 1503.94 687.617 1509.1 688.454C1511.56 688.852 1528.65 698.703 1547.19 709.391L1547.2 709.395C1567.55 721.131 1589.67 733.877 1596.09 736.231C1597.34 736.689 1599.09 737.532 1601.31 738.601C1619.7 747.467 1670.31 771.852 1732.27 720.287C1738.19 724.943 1744.61 728.926 1751.42 732.161C1754.9 733.76 1758.38 735.22 1761.86 736.576C1810.57 754.646 1886.04 721.276 1932.42 700.768C1952.07 692.081 1966.5 685.701 1971.46 686.518C1988.13 689.264 1975.15 695.73 1963.63 697.781C1962.22 698.032 1960.6 698.283 1958.84 698.555C1946.21 700.513 1926.46 703.574 1927.28 715.475C1927.93 724.752 1931.24 736.193 1933.2 742.928L1933.2 742.935L1933.2 742.939C1934.1 746.041 1934.71 748.142 1934.63 748.569C1934.39 749.925 1902.64 764.456 1891.36 769.427C1881.19 773.981 1874.2 780.029 1875.49 792.474C1875.63 793.924 1875.86 795.364 1876.18 796.785C1876.96 800.219 1877.17 803.538 1877.37 806.634C1878.06 817.422 1878.57 825.511 1902.19 826.403C1932.58 827.55 1985.04 805.058 1987.33 795.394C1987.8 793.404 1988.04 790.52 1988.32 787.227C1988.69 782.7 1989.14 777.4 1990.33 772.59C1992.38 764.282 1997.11 756.843 2008.29 758.685C2019.91 760.6 2031.37 763.365 2042.58 766.959C2036.49 774.121 2032.69 782.935 2031.66 792.27C2030.63 801.604 2032.42 811.033 2036.8 819.346C2038.05 821.249 2039.88 822.699 2042.02 823.483C2060.44 831.892 2080.11 837.246 2100.26 839.334C2104.55 840.078 2108.96 839.571 2112.96 837.874C2115.12 836.745 2117 835.148 2118.46 833.198C2119.92 831.249 2120.92 828.998 2121.39 826.611C2122.75 819.97 2122.75 813.124 2121.39 806.484C2121.39 806.484 2121.63 794.073 2112.2 789.485C2112.2 789.485 2129.22 763.065 2109.9 729.276C2109.9 729.276 2112.89 697.99 2111.95 685.162C2111.7 681.691 2110.89 677.726 2110.06 673.616C2107.8 662.537 2105.33 650.403 2112.89 644.038C2122.97 635.564 2192.48 585.016 2248.14 585.684C2247.54 586.564 2247.16 587.577 2247.03 588.64C2246.88 589.922 2247.1 591.221 2247.67 592.379C2250.59 599.739 2251.53 602.843 2251.53 602.843C2251.53 602.843 2246.65 612.644 2264.08 634.234C2264.68 635.444 2265.57 636.495 2266.65 637.303C2275.32 643.656 2284.31 649.547 2293.59 654.951L2296.35 657.72C2290.47 666.844 2281.85 680.628 2279.68 686.403V686.927C2278.36 690.703 2278.42 694.829 2279.86 698.562C2281.29 702.296 2284.01 705.391 2287.51 707.29C2290.26 708.76 2298.93 705.611 2308.4 701.202C2317.87 696.794 2328.32 691.161 2334.69 687.662L2340.61 684.373C2341.08 684.138 2341.83 684.053 2342.78 683.944C2347.33 683.425 2356.49 682.38 2362.02 661.736C2362 661.746 2362.07 661.628 2362.22 661.398C2363.55 659.219 2371.05 647 2364.91 638.015C2364.91 638.015 2361.71 587.073 2322.96 561.672C2318.49 559.428 2308.49 554.447 2301.3 551.996L2301.37 551.69L2301.43 551.432C2301.41 551.328 2301.41 551.222 2301.43 551.118C2304.63 538.028 2312.25 526.446 2322.99 518.333C2330.67 512.247 2339.15 507.247 2348.19 503.474C2401.46 480.349 2444.06 525.435 2465.74 548.381C2469.17 552.014 2472.08 555.092 2474.42 557.257C2491.56 573.092 2497.63 586.276 2499.23 595.205C2500.83 604.134 2500.55 620.631 2488.57 652.928C2481.44 672.143 2481.29 684.753 2481.14 696.509C2481.05 704.514 2480.96 712.122 2478.67 721.151C2476.35 730.333 2472.16 739.705 2468.16 748.674C2462.45 761.473 2457.1 773.452 2458.04 782.886C2459.65 798.93 2463.9 809.393 2465.88 812.288C2467.87 815.183 2467 816.404 2464.98 817.834C2462.96 819.264 2436.16 840.505 2440.07 852.015C2443.97 863.525 2457.17 865.582 2474.42 864.466C2478.47 864.466 2486.44 859.418 2491.64 856.129C2493.56 854.917 2495.09 853.944 2495.92 853.549C2505.6 849.987 2515.99 848.791 2526.23 850.061C2542.19 851.561 2545.81 824.147 2519.26 785.362C2519.26 785.362 2515.78 774.55 2534.21 774.271C2546.3 774.087 2552.79 771.051 2558.48 768.384C2561.47 766.986 2564.24 765.69 2567.48 764.958C2576.93 762.83 2581.7 767.016 2580.66 773.992L2580.6 774.339L2580.54 774.763L2580.4 775.624C2578.95 784.819 2574.66 812.072 2584.14 820.066C2590.09 825.077 2596.81 827.893 2603.84 830.835C2608.79 832.91 2613.9 835.048 2618.98 838.063C2623.43 840.697 2627.39 843.801 2631.18 846.766C2637.87 852.006 2644.01 856.815 2651.28 857.839C2662.68 859.444 2667.07 853.654 2667.07 853.654C2667.07 853.654 2691.84 855.991 2685.11 836.215C2681.13 824.513 2666.01 813.544 2653.36 804.377C2644.64 798.052 2637.1 792.584 2635.22 788.327C2633.15 783.639 2637.17 775.063 2642.18 764.348C2648.32 751.224 2655.97 734.891 2655.78 718.57C2655.78 718.57 2655.36 715.082 2649.71 711.106C2647.72 709.7 2643.15 708.024 2637.97 706.121C2628.49 702.641 2616.94 698.401 2615.25 693.667C2612.64 686.342 2618.74 676.437 2623.69 677.867C2626.01 678.539 2641.55 689.822 2658.58 702.191L2658.58 702.193L2658.59 702.199C2677.78 716.141 2698.88 731.46 2705.08 734.509C2706.26 735.093 2707.91 736.108 2709.99 737.395C2727.31 748.106 2774.99 777.598 2841.87 733.009C2839.41 731.826 2836.99 730.544 2834.64 729.167C2836.63 730.294 2838.66 731.354 2840.73 732.345C2844.2 733.951 2847.66 735.418 2851.13 736.78C2857.31 738.98 2863.72 740.423 2870.24 741.076L2870.28 701.259C2862.45 699.811 2854.87 697.197 2847.8 693.505C2845.72 692.358 2843.72 691.075 2841.8 689.663C2820.23 673.492 2827.93 649.322 2832.54 647.995C2832.54 647.995 2844.37 649.986 2847.73 642.511C2849.16 638.657 2850.07 634.628 2850.44 630.531C2841.42 618.027 2848.74 597.525 2850.85 596.337C2853.39 595.684 2856.05 595.684 2858.59 596.337C2855.1 588.072 2852.49 579.454 2850.82 570.631L2848.12 571.224C2833.25 574.622 2819.5 581.842 2808.23 592.181C2808.23 592.181 2797.82 589.037 2789.88 606.152C2788.14 609.898 2786.39 613.342 2784.79 616.479L2784.78 616.485L2784.78 616.487C2779.08 627.676 2775.37 634.943 2781.63 637.971C2781.63 637.971 2781.84 679.045 2810.8 710.375ZM1741.49 649.652C1740.72 653.725 1739.57 657.719 1738.06 661.582C1738.02 657.358 1739.21 653.211 1741.49 649.652ZM1739.33 619.713L1739.39 619.867C1737.46 620.713 1735.27 620.792 1733.29 620.087C1732.74 619.626 1732.23 619.142 1731.76 618.638C1732.13 619.008 1732.52 619.366 1732.93 619.712C1734.99 620.435 1737.25 620.335 1739.23 619.433L1739.33 619.713ZM2313.18 601.575C2313.85 608.995 2314.98 617.456 2316.58 625.723C2315.81 625.637 2314.86 625.578 2313.85 625.626C2315.79 625.698 2317.25 626.084 2317.25 626.084C2317.25 626.084 2317.53 625.279 2317.91 624.02C2318.99 620.556 2321.25 613.209 2321.63 611.529C2321.92 610.271 2319.82 606.182 2313.18 601.575ZM590.709 710.722C593.346 713.55 596.151 716.218 599.108 718.709C605.777 724.407 613.157 729.213 621.063 733.009C554.173 777.598 506.475 748.106 489.153 737.395C487.072 736.109 485.429 735.093 484.244 734.509C478.039 731.46 456.944 716.141 437.743 702.198L437.742 702.197L437.735 702.192C420.702 689.823 405.162 678.539 402.836 677.867C397.887 676.437 391.788 686.342 394.402 693.667C396.092 698.402 407.641 702.641 417.121 706.121C422.306 708.024 426.872 709.7 428.868 711.106C434.514 715.082 434.932 718.57 434.932 718.57C435.124 734.892 427.478 751.224 421.334 764.348C416.318 775.063 412.303 783.639 414.371 788.327C416.249 792.585 423.791 798.052 432.517 804.377C445.163 813.544 460.295 824.513 464.275 836.215C471.001 855.991 446.223 853.654 446.223 853.654C446.223 853.654 441.832 859.444 430.436 857.839C423.159 856.815 417.018 852.006 410.326 846.766C406.54 843.801 402.576 840.698 398.131 838.063C393.04 835.047 387.937 832.908 382.982 830.831C375.965 827.891 369.246 825.075 363.281 820.066C353.864 812.158 358.027 785.401 359.501 775.926C359.62 775.163 359.721 774.512 359.796 773.992C360.807 767.016 356.033 762.831 346.589 764.958C343.341 765.69 340.571 766.986 337.586 768.384C331.888 771.052 325.403 774.088 313.307 774.271C294.872 774.55 298.357 785.362 298.357 785.362C325.086 824.147 321.427 851.561 305.501 850.062C295.25 848.79 284.843 849.985 275.147 853.549C274.322 853.944 272.784 854.917 270.87 856.128L270.869 856.129C265.671 859.419 257.694 864.466 253.645 864.466C236.395 865.582 223.187 863.525 219.283 852.015C215.38 840.505 242.179 819.264 244.201 817.834C246.222 816.404 247.093 815.183 245.107 812.288C243.12 809.393 238.904 798.93 237.301 782.886C236.358 773.447 241.699 761.461 247.406 748.653C251.4 739.691 255.572 730.326 257.897 721.151C260.184 712.123 260.275 704.514 260.37 696.509C260.511 684.753 260.662 672.143 267.794 652.929C279.782 620.631 280.061 604.134 278.458 595.205C276.855 586.276 270.861 573.092 253.68 557.257C251.323 555.085 248.398 551.993 244.945 548.343L244.943 548.341C223.225 525.382 180.636 480.363 127.385 503.474C118.35 507.256 109.873 512.255 102.189 518.333C91.4375 526.446 83.817 538.028 80.6174 551.118V551.432C78.8226 559.155 79.0145 567.207 81.175 574.836C83.0803 574.424 85.0695 574.685 86.804 575.575C88.5385 576.466 89.9113 577.93 90.689 579.719C90.689 579.719 91.0723 588.578 92.292 600.646C92.9495 608.231 94.088 616.985 95.7419 625.543C95.8855 625.556 96.0247 625.57 96.1586 625.585C96.8134 625.657 97.4626 625.775 98.1019 625.935C98.1019 625.935 98.3795 625.129 98.7612 623.867C99.837 620.395 101.954 613.557 102.474 611.348C102.752 609.98 100.358 605.387 92.5494 600.372C91.3348 588.344 90.9531 579.332 90.9531 579.332C90.1788 577.534 88.8116 576.062 87.0845 575.167C85.3573 574.272 83.3766 574.009 81.4792 574.423C79.3279 566.754 79.1368 558.658 80.9241 550.894V550.578C84.7413 551.946 88.5239 553.453 92.3065 555.102C96.2645 556.884 100.082 558.971 103.724 561.343C142.556 586.837 145.749 637.858 145.749 637.858C152.62 647.852 142.625 661.703 142.556 661.598C137.083 682.272 127.99 683.34 123.443 683.875C122.483 683.987 121.726 684.076 121.249 684.321L115.349 687.582C108.999 691.124 98.5876 696.699 89.1486 701.153C79.7095 705.606 71.0685 708.762 68.327 707.289C64.8645 705.397 62.1771 702.327 60.7415 698.623C59.3058 694.919 59.2147 690.821 60.4843 687.056C60.5264 686.876 60.5844 686.7 60.6577 686.53C65.3462 676.805 70.7157 667.43 76.7251 658.477C80.2648 652.937 82.9714 648.904 82.9714 648.904C83.1434 642.879 83.9814 636.892 85.4701 631.055C86.2756 628.291 88.0715 626.839 90.0646 626.116C87.9034 626.782 85.9069 628.23 85.0433 631.164C83.5485 636.97 82.7068 642.925 82.5342 648.918C82.5342 648.918 79.7462 652.929 76.2612 658.439L72.7762 654.951C63.4929 649.547 54.501 643.656 45.8378 637.303C44.7506 636.495 43.8674 635.444 43.2588 634.234C25.8341 612.644 30.713 602.843 30.713 602.843C30.713 602.843 29.7721 599.739 26.8447 592.38C26.2839 591.219 26.0679 589.922 26.2224 588.642C26.3147 587.877 26.5367 587.138 26.8756 586.455C23.2806 586.036 19.4673 585.669 15.4357 585.392C-41.0963 581.491 -114.693 634.92 -125.057 643.662C-132.593 650.019 -130.129 662.122 -127.874 673.195C-127.028 677.349 -126.212 681.359 -125.964 684.865C-125.057 697.717 -128.058 729.064 -128.058 729.064C-108.69 762.918 -125.755 789.389 -125.755 789.389C-116.298 793.986 -116.507 806.421 -116.507 806.421C-115.164 813.076 -115.164 819.932 -116.507 826.587C-116.978 828.974 -117.978 831.226 -119.433 833.179C-120.888 835.131 -122.762 836.735 -124.917 837.872C-128.946 839.571 -133.379 840.078 -137.689 839.334C-157.871 837.319 -177.59 832.037 -196.071 823.696C-198.209 822.916 -200.035 821.46 -201.27 819.551C-205.671 811.229 -207.475 801.781 -206.448 792.427C-205.422 783.072 -201.613 774.238 -195.512 767.063C-206.751 763.463 -218.239 760.692 -229.885 758.774C-241.087 756.928 -245.833 764.381 -247.892 772.706C-249.072 777.477 -249.507 782.729 -249.88 787.235C-250.158 790.59 -250.401 793.532 -250.893 795.554C-253.196 805.236 -305.819 827.771 -336.249 826.622C-359.901 825.728 -360.425 817.617 -361.124 806.803C-361.325 803.704 -361.539 800.383 -362.317 796.947C-362.38 796.64 -362.445 796.336 -362.51 796.037L-362.511 796.036L-362.511 796.033C-362.77 794.842 -363.014 793.713 -363.014 792.628C-364.271 780.159 -357.291 774.099 -347.067 769.536C-335.795 764.555 -303.97 749.997 -303.726 748.638C-303.648 748.209 -304.26 746.1 -305.163 742.986C-307.12 736.238 -310.444 724.775 -311.089 715.481C-311.916 703.556 -292.116 700.489 -279.453 698.528C-277.691 698.255 -276.068 698.003 -274.657 697.752C-263.106 695.697 -249.95 689.219 -266.805 686.468C-271.844 685.645 -286.427 692.083 -306.263 700.841C-352.784 721.38 -428.196 754.673 -477.125 736.97C-480.615 735.612 -484.104 734.149 -487.594 732.547C-494.555 729.261 -501.109 725.182 -507.126 720.395C-568.859 771.723 -619.258 747.388 -637.596 738.534L-637.597 738.534C-639.81 737.465 -641.556 736.622 -642.799 736.165C-649.197 733.816 -671.168 721.118 -691.437 709.404C-709.975 698.69 -727.089 688.799 -729.566 688.399C-734.752 687.562 -739.625 697.952 -736.283 704.995C-734.14 709.513 -722.445 712.452 -712.708 714.9L-712.707 714.9C-707.265 716.268 -702.435 717.482 -700.226 718.732C-694.066 722.219 -693.265 725.705 -693.265 725.705C-691.347 741.881 -697.238 758.924 -701.972 772.619C-705.829 783.778 -708.918 792.714 -706.386 797.144C-704.09 801.163 -696.065 805.772 -686.766 811.113C-673.237 818.883 -657.011 828.202 -651.813 839.506C-643.042 858.577 -667.893 858.856 -667.893 858.856C-667.893 858.856 -671.756 865.097 -683.137 864.678C-690.325 864.414 -696.82 860.353 -703.935 855.903C-708.085 853.307 -712.447 850.58 -717.28 848.396C-722.703 845.947 -728.079 844.349 -733.289 842.8C-740.685 840.601 -747.747 838.502 -754.138 834.206C-764.694 827.112 -762.897 797.791 -762.396 789.602C-762.38 789.339 -762.365 789.099 -762.352 788.881C-761.934 781.873 -767.12 778.212 -776.274 781.315C-779.418 782.381 -782.045 783.966 -784.875 785.672C-790.284 788.935 -796.436 792.645 -808.363 794.041C-826.531 796.168 -822.042 806.628 -822.042 806.628C-791.379 842.33 -792.145 870.222 -808.12 870.222C-818.43 870.008 -828.639 872.293 -837.878 876.881C-838.605 877.34 -839.938 878.392 -841.61 879.711L-841.614 879.715L-841.617 879.717L-841.618 879.717L-841.618 879.718C-846.431 883.516 -854.046 889.525 -858.099 889.991C-875.119 892.919 -888.449 892.222 -893.53 881.205C-898.612 870.187 -874.248 846.235 -872.369 844.596C-870.49 842.957 -869.828 841.807 -872.056 838.983C-874.283 836.159 -879.295 826.222 -882.776 810.428C-884.836 801.078 -880.737 788.49 -876.363 775.058C-873.348 765.801 -870.203 756.143 -868.854 746.868C-867.512 737.643 -868.222 730.06 -868.97 722.076C-870.065 710.386 -871.24 697.835 -866.174 678.009C-857.647 644.643 -859.108 628.256 -861.614 619.54C-864.12 610.824 -871.464 598.412 -890.189 584.466C-892.752 582.557 -895.973 579.798 -899.774 576.543C-923.742 556.02 -970.765 515.754 -1021.26 544.161C-1029.85 548.857 -1037.74 554.724 -1044.72 561.594C-1048.36 559.216 -1052.19 557.14 -1056.17 555.388L-1060 553.784V526.345C-1027.21 497.302 -987.224 493.432 -965.401 494.687C-941.709 496.056 -880.648 526.874 -848.153 543.275L-848.153 543.275L-848.152 543.275C-837.591 548.606 -830.047 552.413 -827.784 553.191C-818.827 556.273 -823.263 541.728 -827.416 528.113L-827.428 528.074C-827.547 527.682 -827.666 527.292 -827.784 526.903C-829.201 521.83 -829.044 516.445 -827.334 511.464C-825.625 506.482 -822.444 502.139 -818.213 499.011C-816.536 497.712 -814.289 497.219 -811.345 496.574C-805.676 495.331 -797.423 493.522 -785.671 484.297C-767.816 470.282 -755.391 469.689 -755.391 469.689C-704.403 461.461 -679.552 506.681 -677.394 523.312C-675.236 539.943 -673.287 541.407 -673.287 541.407C-651.813 572.786 -682.058 589.103 -689.854 592.031C-695.945 594.332 -720.343 613.543 -713.591 620.795C-668.658 668.944 -599.467 736.444 -539.568 702.101C-536.05 700.077 -532.638 697.872 -529.346 695.496C-546.908 667.611 -547.057 638.438 -547.057 638.438C-553.352 635.418 -549.624 628.172 -543.882 617.014L-543.882 617.013L-543.881 617.012L-543.88 617.009C-542.27 613.881 -540.502 610.444 -538.752 606.708C-530.761 589.641 -520.292 592.776 -520.292 592.776C-517.554 590.278 -514.664 587.951 -511.638 585.81C-513.941 591.069 -517.151 610.609 -505.81 620.257C-503.771 620.979 -501.53 620.879 -499.563 619.978C-496.26 629.363 -495.431 639.438 -497.156 649.235C-499.899 653.191 -501.249 657.944 -500.994 662.749V663.515C-500.959 673.023 -496.597 684.97 -481.208 693.608C-481.205 693.559 -481.203 693.51 -481.203 693.461C-481.203 693.417 -481.205 693.373 -481.208 693.329L-480.65 693.642C-472.528 697.808 -463.784 700.631 -454.757 702.001C-452.279 702.419 -449.697 702.768 -447.01 703.081C-379.067 710.813 -281.776 641.154 -281.776 641.154C-281.776 641.154 -299.643 631.193 -307.285 626.839C-312.324 623.969 -312.948 620.84 -314.169 614.719C-314.8 611.556 -315.59 607.595 -317.23 602.459L-317.51 601.658C-322.674 585.949 -305.47 574.943 -305.47 574.943C-289.034 539.94 -259.721 535.481 -235.678 532.521C-220.198 530.615 -206.295 537.53 -196.092 542.605C-190.447 545.412 -185.935 547.656 -182.915 547.532C-174.435 547.184 -161.139 553.105 -156.01 562.196C-150.88 571.286 -158.208 589.432 -158.208 589.432C-152.904 589.432 -86.9501 568.848 -59.731 554.916C-38.2659 544.188 1.26257 537.423 41.4557 545.289C41.8909 544.313 42.3195 543.371 42.7361 542.469C43.5725 540.655 44.374 538.981 45.071 537.551C46.8135 534.028 47.9984 531.831 47.9984 531.831C53.7933 520.514 60.9818 509.968 69.3959 500.44C108.915 455.935 161.886 455.656 187.884 459.946C211.418 463.806 269.446 501.205 299.969 520.878L299.972 520.88C309.719 527.162 316.661 531.637 318.779 532.633C327.255 536.621 324.376 521.712 321.684 507.773L321.427 506.439C320.541 501.243 321.256 495.9 323.479 491.121C325.701 486.342 329.325 482.354 333.868 479.687C335.674 478.582 337.965 478.327 340.961 477.994C346.756 477.35 355.189 476.412 367.847 468.456C387.049 456.389 399.525 457.121 399.525 457.121C451.137 454.296 471.141 501.87 471.559 518.647C471.977 535.423 473.754 537.097 473.754 537.097C491.841 570.546 460.023 583.625 451.973 585.718C445.631 587.392 419.319 603.889 425.313 611.807C464.972 664.473 526.795 738.904 590.047 711.001L590.709 710.722ZM1048.5 554.891C1021.36 568.807 955.573 589.368 950.285 589.368C950.285 589.368 957.591 571.242 952.511 562.162C949.526 557.764 945.536 554.141 940.871 551.594C936.206 549.047 931.001 547.649 925.687 547.515C922.677 547.639 918.181 545.399 912.555 542.596C902.379 537.527 888.507 530.616 873.048 532.52C849.042 535.478 819.887 539.931 803.465 574.895C803.465 574.895 786.313 585.889 791.497 601.579C791.497 601.858 791.497 602.101 791.741 602.379C793.398 607.543 794.189 611.517 794.82 614.685L794.82 614.687C796.029 620.761 796.649 623.875 801.656 626.733C809.276 631.082 827.123 641.032 827.123 641.032C827.123 641.032 730.125 710.612 662.387 702.889C659.673 702.576 657.099 702.228 654.628 701.81C645.629 700.441 636.91 697.621 628.813 693.461C626.725 692.318 624.715 691.04 622.794 689.634C601.154 673.526 608.878 649.451 613.505 648.129C613.505 648.129 625.369 650.112 628.744 642.667C630.176 638.828 631.088 634.814 631.457 630.734C628.852 627.146 627.606 622.897 627.202 618.638C627.673 622.646 628.917 626.612 631.365 629.99C631.85 630.651 632.405 631.311 632.994 631.971C634.937 632.897 637.165 633.021 639.199 632.318C641.46 642.361 641.135 652.816 638.255 662.699C635.374 672.581 630.033 681.567 622.733 688.811C624.647 690.215 626.65 691.492 628.73 692.633C636.798 696.788 645.484 699.604 654.451 700.971C657.273 697.235 659.959 693.48 662.525 689.893L662.534 689.88L662.539 689.873L662.558 689.846C663.416 688.646 664.261 687.465 665.093 686.31C678.959 667.27 689.843 646.563 691.126 624.918C691.878 612.097 689.083 599.316 683.049 587.986C678.272 578.968 672.58 570.469 666.064 562.623C661.938 557.55 635.143 525.656 627.136 533.404C626.535 534.215 626.126 535.153 625.94 536.146C625.754 537.139 625.795 538.162 626.061 539.136C626.755 544.522 628.904 557.724 631.746 570.405L631.81 570.738C631.836 570.873 631.862 571.007 631.889 571.142L629.196 571.729C614.277 575.106 600.49 582.299 589.186 592.603C589.186 592.603 578.749 589.472 570.781 606.52C569.036 610.254 567.273 613.688 565.667 616.814C559.943 627.96 556.225 635.198 562.501 638.214C562.501 638.214 562.71 679.127 591.761 710.334C594.394 713.155 597.193 715.815 600.145 718.301C606.737 723.842 614.009 728.518 621.785 732.217C625.091 733.817 628.57 735.279 632.223 736.635C680.981 754.785 756.375 721.447 802.782 700.927C822.469 692.221 836.939 685.823 841.945 686.642C858.749 689.39 845.632 695.861 834.151 697.914C832.742 698.166 831.118 698.418 829.354 698.692L829.352 698.693C816.742 700.652 797.001 703.72 797.795 715.622C798.421 725.014 801.814 736.623 803.775 743.33L803.776 743.334L803.78 743.348L803.782 743.354L803.786 743.369L803.788 743.378L803.79 743.382L803.794 743.397L803.797 743.404L803.797 743.407C804.656 746.347 805.234 748.328 805.17 748.743C804.962 750.099 773.197 764.642 761.925 769.617C751.766 774.174 744.773 780.228 746.025 792.683C746.025 793.768 746.27 794.897 746.528 796.088C746.593 796.387 746.658 796.69 746.721 796.997C747.496 800.429 747.71 803.746 747.91 806.842C748.606 817.644 749.129 825.746 772.71 826.638C803.048 827.786 855.513 805.277 857.809 795.605C858.296 793.601 858.539 790.693 858.815 787.374L858.816 787.369C859.193 782.852 859.633 777.575 860.836 772.783C862.924 764.468 867.586 757.023 878.754 758.867C890.364 760.783 901.818 763.55 913.023 767.147C906.941 774.314 903.143 783.137 902.12 792.482C901.097 801.826 902.895 811.262 907.283 819.576C908.523 821.489 910.356 822.943 912.501 823.716C930.927 832.048 950.586 837.323 970.707 839.337C974.993 840.077 979.401 839.57 983.406 837.875C985.555 836.74 987.423 835.138 988.874 833.188C990.324 831.238 991.321 828.988 991.791 826.603C993.13 819.956 993.13 813.107 991.791 806.46C991.791 806.46 991.999 794.04 982.571 789.447C982.571 789.447 999.619 763.007 980.275 729.19C980.275 729.19 983.267 697.879 982.362 685.041C982.115 681.539 981.301 677.534 980.458 673.384C978.21 662.324 975.753 650.234 983.267 643.884C993.6 635.152 1067.01 581.784 1123.34 585.68C1128.9 586.063 1134.05 586.619 1138.78 587.246C1140.14 583.558 1141.08 581.262 1141.08 581.262C1145.7 569.491 1151.76 558.341 1159.14 548.072C1115.72 536.347 1071.57 543.305 1048.5 554.891ZM632.526 574.189C634.126 581.626 636.4 588.903 639.321 595.929L639.388 595.946L639.511 595.977C636.522 588.941 634.185 581.648 632.526 574.189ZM1192.01 611.995C1192.39 610.352 1188.7 603.859 1176.04 597.716C1175.16 605.365 1176.22 613.114 1179.14 620.262C1181.01 619.649 1183.04 619.694 1184.87 620.391C1186.4 620.968 1187.72 621.965 1188.67 623.252C1189.85 619.537 1191.67 613.495 1192.01 611.995ZM1179.42 626.72C1182.43 625.203 1186.24 625.671 1187.83 625.965L1187.68 626.48C1187.68 626.48 1183.14 625.281 1179.42 626.72ZM-460.251 570.597C-453.103 581.286 -449.026 593.78 -448.473 606.684C-447.512 628.42 -456.199 650.19 -467.771 670.323C-468.746 672.038 -469.752 673.84 -470.787 675.693C-473.874 681.218 -477.211 687.19 -480.682 692.616C-482.55 691.572 -484.351 690.409 -486.073 689.133C-490.317 686.193 -493.819 682.279 -496.295 677.71C-498.771 673.141 -500.151 668.045 -500.323 662.834V662.172C-498.621 657.819 -497.355 653.303 -496.546 648.692C-494.849 638.894 -495.665 628.818 -498.915 619.433C-500.85 620.334 -503.055 620.434 -505.062 619.711C-516.221 610.063 -513.062 590.522 -510.796 585.262C-509.8 584.53 -508.804 583.834 -507.843 583.207C-506.029 582.99 -504.197 582.99 -502.383 583.207C-502.83 582.475 -503.31 581.639 -503.791 580.734C-510.899 567.463 -519.38 536.845 -521.475 527.893C-521.836 526.951 -521.984 525.939 -521.906 524.932C-521.829 523.925 -521.529 522.949 -521.029 522.076C-513.989 513.507 -484.219 542.453 -479.652 547.085C-472.416 554.235 -465.916 562.113 -460.251 570.597ZM-1044.61 562.275C-1005.49 587.455 -1002.3 637.953 -1002.3 637.953C-995.324 647.803 -1005.42 661.572 -1005.42 661.572C-1010.99 682.041 -1020.19 683.072 -1024.78 683.586C-1025.74 683.694 -1026.5 683.778 -1026.98 684.011L-1032.94 687.272C-1036.02 688.939 -1040.04 691.095 -1044.44 693.371C-1040.03 691.218 -1036.02 689.184 -1032.92 687.603C-1032.1 689.951 -1031.42 692.131 -1030.88 694.11C-1029.44 699.612 -1026.7 703.041 -1024.56 705.715C-1021.53 709.512 -1019.71 711.787 -1024.56 716.313C-1030.49 721.956 -1049.48 708.841 -1059.68 700.832L-1060 700.971V700.583V627.446V627.132V619.091L-1059.76 619.843C-1057.96 619.138 -1056 619.174 -1054.22 619.945C-1052.44 620.717 -1050.94 622.177 -1049.97 624.08C-1050.26 625.078 -1050.46 625.823 -1050.56 626.181C-1050.49 626.197 -1050.43 626.213 -1050.36 626.23C-1050.36 626.23 -1050.11 625.432 -1049.69 624.184C-1048.61 620.75 -1046.47 613.987 -1045.98 611.802C-1045.59 610.276 -1048.92 604.449 -1060 598.623V585.547C-1056.69 576.749 -1051.44 568.796 -1044.61 562.275Z" fill="url(#paint4_linear)"/>
<path d="M98.2646 95.054H117.099C119.777 95.054 122.058 95.5562 123.942 96.5607C125.825 97.5652 127.227 98.9254 128.148 100.641C129.069 102.316 129.529 104.178 129.529 106.229C129.529 108.698 128.901 110.728 127.646 112.318C126.39 113.867 124.925 114.872 123.251 115.332V115.771C124.507 115.939 125.804 116.42 127.143 117.215C128.525 118.011 129.696 119.182 130.659 120.731C131.622 122.238 132.103 124.079 132.103 126.256C132.103 128.348 131.622 130.378 130.659 132.345C129.738 134.312 128.252 135.924 126.202 137.179C124.151 138.435 121.598 139.063 118.543 139.063H98.2646V95.054ZM114.148 112.946C115.864 112.946 117.329 112.549 118.543 111.753C119.756 110.958 120.363 109.64 120.363 107.798C120.363 105.999 119.735 104.722 118.48 103.969C117.266 103.174 115.822 102.776 114.148 102.776H107.87V112.946H114.148ZM116.345 131.278C118.061 131.278 119.568 130.86 120.865 130.022C122.163 129.185 122.812 127.721 122.812 125.628C122.812 123.577 122.142 122.112 120.803 121.233C119.505 120.354 118.019 119.915 116.345 119.915H107.87V131.278H116.345ZM149.055 139.565C144.953 139.565 141.773 138.016 139.512 134.919C137.294 131.78 136.185 127.595 136.185 122.363C136.185 117.09 137.336 112.904 139.638 109.807C141.94 106.668 145.121 105.099 149.181 105.099C151.985 105.099 154.14 105.727 155.647 106.982C157.154 108.196 158.2 109.431 158.786 110.686H159.288V105.789H169.145V139H159.288V133.664H158.786C158.158 135.003 157.07 136.321 155.521 137.619C154.015 138.916 151.859 139.565 149.055 139.565ZM152.759 131.718C154.977 131.718 156.631 130.797 157.719 128.955C158.807 127.072 159.351 124.854 159.351 122.301C159.351 119.789 158.807 117.613 157.719 115.771C156.631 113.888 154.977 112.946 152.759 112.946C150.457 112.946 148.762 113.867 147.674 115.709C146.628 117.508 146.104 119.685 146.104 122.238C146.104 124.833 146.628 127.072 147.674 128.955C148.762 130.797 150.457 131.718 152.759 131.718ZM149.997 91.6639H157.028L166.257 101.897H157.468L153.575 97.5652H153.324L149.557 101.897H140.831L149.997 91.6639ZM190.115 113.386V126.695C190.115 128.16 190.177 129.248 190.303 129.96C190.47 130.629 190.889 131.173 191.559 131.592C192.27 132.01 193.4 132.22 194.949 132.22C195.744 132.22 196.56 132.136 197.397 131.969V138.749C196.979 138.833 196.142 138.916 194.886 139C193.63 139.126 192.375 139.188 191.119 139.188C187.855 139.188 185.427 138.707 183.837 137.744C182.288 136.782 181.325 135.61 180.949 134.229C180.572 132.848 180.384 131.048 180.384 128.83V113.386H175.047V105.789H180.384V95.054H190.115V105.789H197.397V113.386H190.115ZM204.723 105.789H214.454V139H204.723V105.789ZM209.557 100.265C208.05 100.265 206.794 99.7625 205.79 98.758C204.786 97.7117 204.283 96.4561 204.283 94.9912C204.283 93.4845 204.786 92.2289 205.79 91.2244C206.794 90.1781 208.05 89.6549 209.557 89.6549C211.064 89.6549 212.319 90.1781 213.324 91.2244C214.37 92.2289 214.893 93.4845 214.893 94.9912C214.893 96.4561 214.37 97.7117 213.324 98.758C212.319 99.7625 211.064 100.265 209.557 100.265ZM222.422 105.789H232.153V111.063H232.655C233.157 109.598 234.141 108.363 235.606 107.359C237.112 106.313 239.059 105.789 241.444 105.789C242.156 105.789 242.825 105.852 243.453 105.978L243.014 114.955C242.051 114.62 240.942 114.453 239.686 114.453C237.05 114.453 235.124 115.123 233.911 116.462C232.739 117.801 232.153 120.02 232.153 123.117V139H222.422V105.789ZM116.596 231.565C112.495 231.565 109 230.498 106.112 228.363C103.266 226.229 101.132 223.445 99.7085 220.013C98.2855 216.582 97.574 212.919 97.574 209.027C97.574 205.009 98.3064 201.263 99.7713 197.789C101.278 194.316 103.538 191.511 106.552 189.377C109.565 187.242 113.248 186.175 117.601 186.175C122.581 186.175 126.662 187.577 129.843 190.381C133.066 193.144 135.326 196.764 136.623 201.242H126.327C125.783 199.275 124.779 197.706 123.314 196.534C121.849 195.362 119.966 194.776 117.664 194.776C114.357 194.776 111.825 196.094 110.067 198.731C108.309 201.368 107.43 204.884 107.43 209.278C107.43 213.882 108.372 217.46 110.256 220.013C112.139 222.525 114.776 223.78 118.166 223.78C121.096 223.78 123.314 222.88 124.821 221.081C126.369 219.281 127.164 217.167 127.206 214.74V213.924H118.982V206.955H136.811V231H129.592V224.785H129.09C126.62 229.305 122.456 231.565 116.596 231.565ZM158.269 231.565C154.754 231.565 151.782 230.77 149.355 229.179C146.969 227.547 145.19 225.434 144.018 222.839C142.888 220.202 142.323 217.377 142.323 214.363C142.323 211.35 142.888 208.546 144.018 205.951C145.19 203.314 146.969 201.179 149.355 199.547C151.782 197.915 154.796 197.099 158.395 197.099C163.083 197.099 166.808 198.585 169.57 201.556C172.332 204.486 173.713 208.755 173.713 214.363V217.063H151.74V217.565C151.74 219.281 152.326 220.767 153.498 222.022C154.712 223.236 156.24 223.843 158.081 223.843C159.504 223.843 160.718 223.529 161.722 222.901C162.727 222.232 163.438 221.353 163.857 220.265H173.462C172.625 223.571 170.888 226.291 168.252 228.426C165.657 230.519 162.329 231.565 158.269 231.565ZM164.359 210.785C164.317 208.525 163.731 206.851 162.601 205.762C161.513 204.674 160.048 204.13 158.207 204.13C156.323 204.13 154.817 204.716 153.687 205.888C152.598 207.06 152.033 208.692 151.991 210.785H164.359ZM154.628 192.955L160.969 180.399H170.574L162.35 193.018L154.628 192.955ZM179.628 197.789H189.359V203.063H189.862C190.364 201.598 191.347 200.363 192.812 199.359C194.319 198.313 196.265 197.789 198.651 197.789C199.362 197.789 200.032 197.852 200.66 197.978L200.22 206.955C199.258 206.62 198.149 206.453 196.893 206.453C194.256 206.453 192.331 207.123 191.117 208.462C189.945 209.801 189.359 212.02 189.359 215.117V231H179.628V197.789ZM219.272 231.565C215.756 231.565 212.784 230.77 210.357 229.179C207.971 227.547 206.192 225.434 205.02 222.839C203.89 220.202 203.325 217.377 203.325 214.363C203.325 211.35 203.89 208.546 205.02 205.951C206.192 203.314 207.971 201.179 210.357 199.547C212.784 197.915 215.798 197.099 219.397 197.099C224.085 197.099 227.81 198.585 230.572 201.556C233.334 204.486 234.715 208.755 234.715 214.363V217.063H212.742V217.565C212.742 219.281 213.328 220.767 214.5 222.022C215.714 223.236 217.242 223.843 219.083 223.843C220.506 223.843 221.72 223.529 222.724 222.901C223.729 222.232 224.44 221.353 224.859 220.265H234.464C233.627 223.571 231.89 226.291 229.254 228.426C226.659 230.519 223.331 231.565 219.272 231.565ZM225.361 210.785C225.319 208.525 224.733 206.851 223.603 205.762C222.515 204.674 221.05 204.13 219.209 204.13C217.325 204.13 215.819 204.716 214.689 205.888C213.6 207.06 213.035 208.692 212.994 210.785H225.361ZM240.63 197.789H250.361V203.063H250.864C251.366 201.598 252.349 200.363 253.814 199.359C255.321 198.313 257.267 197.789 259.653 197.789C260.364 197.789 261.034 197.852 261.662 197.978L261.222 206.955C260.26 206.62 259.151 206.453 257.895 206.453C255.258 206.453 253.333 207.123 252.119 208.462C250.947 209.801 250.361 212.02 250.361 215.117V231H240.63V197.789ZM98.2646 279.054H112.83L121.43 303.978H121.619L130.22 279.054H144.785V323H135.179V292.866H134.928L124.632 323H118.417L108.121 292.866H107.87V323H98.2646V279.054ZM162.911 323.565C158.809 323.565 155.628 322.016 153.368 318.919C151.15 315.78 150.041 311.595 150.041 306.363C150.041 301.09 151.192 296.904 153.494 293.807C155.796 290.668 158.977 289.099 163.036 289.099C165.841 289.099 167.996 289.727 169.503 290.982C171.009 292.196 172.056 293.431 172.642 294.686H173.144V289.789H183V323H173.144V317.664H172.642C172.014 319.003 170.926 320.321 169.377 321.619C167.87 322.916 165.715 323.565 162.911 323.565ZM166.615 315.718C168.833 315.718 170.486 314.797 171.574 312.955C172.663 311.072 173.207 308.854 173.207 306.301C173.207 303.789 172.663 301.613 171.574 299.771C170.486 297.888 168.833 296.946 166.615 296.946C164.313 296.946 162.618 297.867 161.53 299.709C160.483 301.508 159.96 303.685 159.96 306.238C159.96 308.833 160.483 311.072 161.53 312.955C162.618 314.797 164.313 315.718 166.615 315.718ZM191.112 289.789H200.843V323H191.112V289.789ZM192.556 275.664H199.588L208.816 285.897H200.027L196.135 281.565H195.884L192.117 285.897H183.39L192.556 275.664ZM221.995 297.386V310.695C221.995 312.16 222.058 313.248 222.183 313.96C222.351 314.629 222.769 315.173 223.439 315.592C224.151 316.01 225.281 316.22 226.829 316.22C227.624 316.22 228.441 316.136 229.278 315.969V322.749C228.859 322.833 228.022 322.916 226.766 323C225.511 323.126 224.255 323.188 223 323.188C219.735 323.188 217.308 322.707 215.717 321.744C214.169 320.782 213.206 319.61 212.829 318.229C212.453 316.848 212.264 315.048 212.264 312.83V297.386H206.928V289.789H212.264V279.054H221.995V289.789H229.278V297.386H221.995ZM235.787 289.789H245.518V295.063H246.02C246.522 293.598 247.506 292.363 248.971 291.359C250.478 290.313 252.424 289.789 254.809 289.789C255.521 289.789 256.191 289.852 256.818 289.978L256.379 298.955C255.416 298.62 254.307 298.453 253.052 298.453C250.415 298.453 248.49 299.123 247.276 300.462C246.104 301.801 245.518 304.02 245.518 307.117V323H235.787V289.789ZM262.414 289.789H272.145V323H262.414V289.789ZM267.248 284.265C265.741 284.265 264.486 283.762 263.481 282.758C262.477 281.712 261.975 280.456 261.975 278.991C261.975 277.484 262.477 276.229 263.481 275.224C264.486 274.178 265.741 273.655 267.248 273.655C268.755 273.655 270.011 274.178 271.015 275.224C272.061 276.229 272.585 277.484 272.585 278.991C272.585 280.456 272.061 281.712 271.015 282.758C270.011 283.762 268.755 284.265 267.248 284.265ZM292.355 323.565C289.551 323.565 287.124 323.042 285.073 321.996C283.022 320.949 281.453 319.589 280.364 317.915C279.318 316.199 278.795 314.399 278.795 312.516V312.076H288.275V312.453C288.275 313.416 288.651 314.274 289.405 315.027C290.158 315.738 291.225 316.094 292.606 316.094C293.778 316.094 294.72 315.822 295.432 315.278C296.143 314.692 296.499 313.939 296.499 313.018C296.499 312.181 296.164 311.511 295.494 311.009C294.825 310.507 293.988 310.172 292.983 310.005L289.405 309.251C286.977 308.833 284.738 307.87 282.687 306.363C280.636 304.815 279.611 302.45 279.611 299.269C279.611 296.046 280.762 293.556 283.064 291.798C285.408 289.999 288.4 289.099 292.041 289.099C294.762 289.099 297.106 289.58 299.073 290.543C301.04 291.505 302.526 292.782 303.53 294.372C304.535 295.921 305.037 297.574 305.037 299.332V299.646H295.557V299.457C295.557 298.62 295.243 297.846 294.615 297.135C293.988 296.423 293.025 296.067 291.728 296.067C290.639 296.067 289.76 296.339 289.091 296.884C288.463 297.386 288.149 298.097 288.149 299.018C288.149 300.65 289.509 301.718 292.23 302.22L296.122 303.099C298.759 303.685 300.977 304.752 302.777 306.301C304.618 307.849 305.539 310.046 305.539 312.892C305.539 315.069 304.953 316.973 303.781 318.605C302.651 320.196 301.082 321.43 299.073 322.309C297.064 323.146 294.825 323.565 292.355 323.565ZM325.765 323.565C322.249 323.565 319.277 322.77 316.85 321.179C314.464 319.547 312.685 317.434 311.513 314.839C310.383 312.202 309.818 309.377 309.818 306.363C309.818 303.35 310.383 300.546 311.513 297.951C312.685 295.314 314.464 293.179 316.85 291.547C319.277 289.915 322.291 289.099 325.89 289.099C330.578 289.099 334.303 290.585 337.065 293.556C339.827 296.486 341.208 300.755 341.208 306.363V309.063H319.235V309.565C319.235 311.281 319.821 312.767 320.993 314.022C322.207 315.236 323.735 315.843 325.576 315.843C326.999 315.843 328.213 315.529 329.217 314.901C330.222 314.232 330.933 313.353 331.352 312.265H340.957C340.12 315.571 338.383 318.291 335.747 320.426C333.152 322.519 329.824 323.565 325.765 323.565ZM331.854 302.785C331.812 300.525 331.226 298.851 330.096 297.762C329.008 296.674 327.543 296.13 325.702 296.13C323.818 296.13 322.312 296.716 321.182 297.888C320.093 299.06 319.528 300.692 319.487 302.785H331.854ZM347.124 289.789H356.854V295.063H357.357C357.859 293.598 358.842 292.363 360.307 291.359C361.814 290.313 363.76 289.789 366.146 289.789C366.857 289.789 367.527 289.852 368.155 289.978L367.715 298.955C366.753 298.62 365.644 298.453 364.388 298.453C361.751 298.453 359.826 299.123 358.612 300.462C357.44 301.801 356.854 304.02 356.854 307.117V323H347.124V289.789Z" fill="white"/>
<path d="M254.466 139.565C252.917 139.565 251.641 139.042 250.636 137.996C249.632 136.949 249.129 135.673 249.129 134.166C249.129 132.659 249.632 131.404 250.636 130.399C251.641 129.353 252.917 128.83 254.466 128.83C256.014 128.83 257.291 129.353 258.295 130.399C259.342 131.404 259.865 132.659 259.865 134.166C259.865 135.673 259.342 136.949 258.295 137.996C257.249 139.042 255.972 139.565 254.466 139.565ZM272.674 231.565C271.126 231.565 269.849 231.042 268.845 229.996C267.84 228.949 267.338 227.673 267.338 226.166C267.338 224.659 267.84 223.404 268.845 222.399C269.849 221.353 271.126 220.83 272.674 220.83C274.223 220.83 275.499 221.353 276.504 222.399C277.55 223.404 278.073 224.659 278.073 226.166C278.073 227.673 277.55 228.949 276.504 229.996C275.458 231.042 274.181 231.565 272.674 231.565ZM379.167 323.565C377.619 323.565 376.342 323.042 375.338 321.996C374.333 320.949 373.831 319.673 373.831 318.166C373.831 316.659 374.333 315.404 375.338 314.399C376.342 313.353 377.619 312.83 379.167 312.83C380.716 312.83 381.992 313.353 382.997 314.399C384.043 315.404 384.566 316.659 384.566 318.166C384.566 319.673 384.043 320.949 382.997 321.996C381.951 323.042 380.674 323.565 379.167 323.565Z" fill="#EC0B43"/>
</g>
<defs>
<linearGradient id="paint0_linear" x1="249.5" y1="25.5" x2="-66" y2="607.5" gradientUnits="userSpaceOnUse">
<stop stop-color="#494F58"/>
<stop offset="1" stop-color="#494F58" stop-opacity="0"/>
</linearGradient>
<linearGradient id="paint1_linear" x1="-57.0001" y1="1226" x2="439.5" y2="831" gradientUnits="userSpaceOnUse">
<stop stop-color="#494F58"/>
<stop offset="1" stop-color="#494F58" stop-opacity="0"/>
</linearGradient>
<linearGradient id="paint2_linear" x1="1248" y1="2.99997" x2="988" y2="347" gradientUnits="userSpaceOnUse">
<stop stop-color="#494F58"/>
<stop offset="1" stop-color="#494F58" stop-opacity="0"/>
</linearGradient>
<linearGradient id="paint3_linear" x1="1238.5" y1="73.5" x2="1066" y2="78" gradientUnits="userSpaceOnUse">
<stop stop-color="#242930"/>
<stop offset="1" stop-color="#242930" stop-opacity="0"/>
</linearGradient>
<linearGradient id="paint4_linear" x1="1265.5" y1="474.5" x2="-440" y2="914.5" gradientUnits="userSpaceOnUse">
<stop stop-color="#494F58"/>
<stop offset="1" stop-color="#494F58" stop-opacity="0"/>
</linearGradient>
<clipPath id="clip0">
<rect width="1469" height="1080" fill="white"/>
</clipPath>
</defs>
</svg>
