<?xml version="1.0" standalone="no"?>
<!DOCTYPE svg PUBLIC "-//W3C//DTD SVG 1.1//EN" "http://www.w3.org/Graphics/SVG/1.1/DTD/svg11.dtd" >
<svg xmlns="http://www.w3.org/2000/svg" xmlns:xlink="http://www.w3.org/1999/xlink" version="1.1">
<metadata>
Created by FontForge 20170812 at Mon Aug  5 09:31:23 2019
 By www-data
Copyright 2019 The Bevietnam Project Authors (https://github.com/bettergui/beVietnam)
</metadata>
<defs>
<font id="BeVietnam-BoldItalic" horiz-adv-x="567" >
  <font-face 
    font-family="Be Vietnam"
    font-weight="700"
    font-style="italic"
    font-stretch="normal"
    units-per-em="1000"
    panose-1="0 0 8 0 0 0 0 0 0 0"
    ascent="800"
    descent="-200"
    x-height="528"
    cap-height="700"
    bbox="-518 -265 1132 1196"
    underline-thickness="50"
    underline-position="-100"
    slope="-9.66701"
    unicode-range="U+000D-2265"
  />
<missing-glyph horiz-adv-x="731" 
d="M599 -265h-463v1461h463v-1461zM245 1098v-48h95v-54h-96v-48h243v48h-97v54h97v48h-242zM244 910v-152h243v49h-97v103h-146zM340 807h-48v53h48v-53zM244 718v-48h96v-54h-96v-48h146v102h97v48h-243zM438 631v-97h-194v-50h243v147h-49zM340 452v-81h50v33h48v-69
h-146v117h-48v-165h243v165h-147zM244 200v-165h243v165h-243zM438 83h-146v68h146v-68zM244 1v-48h102l-102 -69v-48h243v48h-150l103 69h47v48h-243z" />
    <glyph glyph-name="f_f.liga" unicode="ff" horiz-adv-x="771" 
d="M750 629.5q-17 -12.5 -23 -30.5t-11 -46l-4 -25h117l-17 -108h-118l-69 -420h-138l69 420h-244l-69 -420h-138l69 420h-66l17 108h66l11 65q8 51 49.5 98.5t141.5 47.5q25 0 52 -3t36 -7l-15 -91q-24 4 -50 4q-31 0 -48 -12.5t-23 -30.5t-11 -46l-4 -25h243l11 65
q8 51 49 98.5t142 47.5q25 0 52 -3t36 -7l-15 -91q-24 4 -50 4q-31 0 -48 -12.5z" />
    <glyph glyph-name="f_i.liga" unicode="fi" horiz-adv-x="669" 
d="M713 755q18 -18 18 -45q0 -36 -28 -63.5t-64 -27.5q-29 0 -47 18t-18 45q0 37 27.5 64t64.5 27q29 0 47 -18zM599 0h-138l69 420h-218l-69 -420h-138l69 420h-66l17 108h66l11 65q8 51 49.5 98.5t141.5 47.5q25 0 52 -3t36 -7l-15 -91q-24 4 -50 4q-31 0 -48 -12.5
t-23 -30.5t-11 -46l-4 -25h356z" />
    <glyph glyph-name="t_t.liga" unicode="tt" horiz-adv-x="841" 
d="M705 188q-5 -30 -5 -46q0 -24 14 -35t51 -11q20 0 44 4l-16 -96q-11 -2 -40 -5t-56 -3q-80 0 -111 27t-31 75q0 16 3 36t4 26l43 260h-281l-39 -232q-5 -30 -5 -46q0 -24 14 -35t51 -11q22 0 44 4l-15 -96q-11 -2 -40 -5t-56 -3q-81 0 -112 27t-31 75q0 16 3 36t4 26
l43 260h-87l17 108h88l29 172h138l-29 -172h282l28 172h138l-28 -172h118l-17 -108h-119z" />
    <glyph glyph-name="hyphen_greater.liga" unicode="&#x2d;&#x3e;" horiz-adv-x="741" 
d="M593 528l162 -217l-233 -218h-131l169 160h-481l18 114h481l-116 161h131z" />
    <glyph glyph-name="colon_b_e_colon.liga" unicode="&#x3a;be&#x3a;" horiz-adv-x="878" 
d="M249 626h160q59 0 88.5 33t31.5 82q42 -12 64.5 -44t22.5 -77q0 -80 -53.5 -125.5t-148.5 -45.5h-217zM142 258h229q61 0 102.5 21.5t61.5 56.5t20 77q0 12 -1 18q64 -13 103 -63t39 -118q0 -72 -39 -131.5t-106 -93.5t-149 -34h-340z" />
    <glyph glyph-name="colon_d_d_colon.liga" unicode="&#x3a;dd&#x3a;" horiz-adv-x="600" 
d="M690 679h-53l-84 -508h-139l10 60h-8q-59 -69 -160 -69q-79 0 -121.5 47.5t-42.5 130.5q0 85 31.5 154.5t87.5 109.5t124 40q44 0 73.5 -13.5t44.5 -30.5t19 -30h7l18 109h-99l14 89h100l10 59h139l-10 -59h53zM390.5 294.5q30.5 22.5 47.5 59.5t17 79t-22 69.5t-68 27.5
q-39 0 -69 -21.5t-47 -58.5t-17 -81q0 -42 22 -69.5t68 -27.5q38 0 68.5 22.5zM106 88h441l-15 -88h-440z" />
    <glyph glyph-name="colon_d_o_w_n_colon.liga" unicode="&#x3a;down&#x3a;" horiz-adv-x="595" 
d="M548 198l-251 -198l-184 198l23 132l136 -143l87 514h114l-87 -514l185 143z" />
    <glyph glyph-name="colon_l_e_f_t_colon.liga" unicode="&#x3a;left&#x3a;" horiz-adv-x="709" 
d="M130 105h298q43 0 83.5 23.5t66 63t25.5 84.5q0 55 -36.5 91.5t-88.5 36.5h-219l131 -153h-138l-136 169l12 71l187 143h138l-174 -128h215q60 0 109 -28t77 -76.5t28 -107.5q0 -74 -42 -142.5t-111 -110t-143 -41.5h-298z" />
    <glyph glyph-name="colon_r_i_g_h_t_colon.liga" unicode="&#x3a;right&#x3a;" horiz-adv-x="709" 
d="M299 0q-60 0 -109 28.5t-76.5 77.5t-27.5 108q0 74 42 141.5t110.5 109t143.5 41.5h215l-132 128h138l140 -143l-12 -71l-190 -169h-138l181 153h-219q-40 0 -78 -21t-64 -57.5t-32 -79.5q-1 -6 -1 -18q0 -52 35.5 -87.5t90.5 -35.5h298l-17 -105h-298z" />
    <glyph glyph-name="colon_s_t_a_r_colon.liga" unicode="&#x3a;star&#x3a;" horiz-adv-x="831" 
d="M316 284l-152 150l233 25l132 213l60 -212l225 -25l-201 -148l13 -235l-179 123l-223 -124z" />
    <glyph glyph-name="colon_u_p_colon.liga" unicode="&#x3a;up&#x3a;" horiz-adv-x="595" 
d="M548 513l-86 -513h-115l87 513l-184 -142l23 131l251 198l184 -198l-23 -131z" />
    <glyph glyph-name="less_hyphen.liga" unicode="&#x3c;&#x2d;" horiz-adv-x="698" 
d="M120 367h481l18 -114h-481l169 -160h-131l-233 218l162 217h131z" />
    <glyph glyph-name=".notdef" horiz-adv-x="731" 
d="M599 -265h-463v1461h463v-1461zM245 1098v-48h95v-54h-96v-48h243v48h-97v54h97v48h-242zM244 910v-152h243v49h-97v103h-146zM340 807h-48v53h48v-53zM244 718v-48h96v-54h-96v-48h146v102h97v48h-243zM438 631v-97h-194v-50h243v147h-49zM340 452v-81h50v33h48v-69
h-146v117h-48v-165h243v165h-147zM244 200v-165h243v165h-243zM438 83h-146v68h146v-68zM244 1v-48h102l-102 -69v-48h243v48h-150l103 69h47v48h-243z" />
    <glyph glyph-name="nonmarkingreturn" unicode="&#xd;" horiz-adv-x="600" 
 />
    <glyph glyph-name="space" unicode=" " horiz-adv-x="230" 
 />
    <glyph glyph-name="A" unicode="A" horiz-adv-x="675" 
d="M487 172h-240l-84 -172h-140l367 700h130l136 -700h-140zM470 279l-42 249h-6l-122 -249h170z" />
    <glyph glyph-name="Aacute" unicode="&#xc1;" horiz-adv-x="675" 
d="M487 172h-240l-84 -172h-140l367 700h130l136 -700h-140zM470 279l-42 249h-6l-122 -249h170zM412 776l132 195h138l-160 -196z" />
    <glyph glyph-name="Abreve" unicode="&#x102;" horiz-adv-x="675" 
d="M487 172h-240l-84 -172h-140l367 700h130l136 -700h-140zM470 279l-42 249h-6l-122 -249h170zM360.5 805.5q-40.5 31.5 -60.5 91.5h112q5 -22 21.5 -34.5t43.5 -12.5q52 0 81 47h112q-82 -123 -204 -123q-65 0 -105.5 31.5z" />
    <glyph glyph-name="uni1EAE" unicode="&#x1eae;" horiz-adv-x="675" 
d="M487 172h-240l-84 -172h-140l367 700h130l136 -700h-140zM470 279l-42 249h-6l-122 -249h170zM359.5 805.5q-40.5 31.5 -60.5 91.5h112q5 -22 21.5 -34.5t43.5 -12.5q52 0 81 47h112q-82 -123 -204 -123q-65 0 -105.5 31.5zM439 942l132 195h138l-160 -196z" />
    <glyph glyph-name="uni1EB6" unicode="&#x1eb6;" horiz-adv-x="675" 
d="M487 172h-240l-84 -172h-140l367 700h130l136 -700h-140zM470 279l-42 249h-6l-122 -249h170zM254 -226.5q-17 17.5 -17 42.5q0 34 26 60t61 26q28 0 45 -17t17 -43q0 -34 -26.5 -60t-61.5 -26q-27 0 -44 17.5zM360.5 805.5q-40.5 31.5 -60.5 91.5h112q5 -22 21.5 -34.5
t43.5 -12.5q52 0 81 47h112q-82 -123 -204 -123q-65 0 -105.5 31.5z" />
    <glyph glyph-name="uni1EB0" unicode="&#x1eb0;" horiz-adv-x="675" 
d="M487 172h-240l-84 -172h-140l367 700h130l136 -700h-140zM470 279l-42 249h-6l-122 -249h170zM364.5 805.5q-40.5 31.5 -60.5 91.5h112q5 -22 21.5 -34.5t43.5 -12.5q52 0 81 47h112q-82 -123 -204 -123q-65 0 -105.5 31.5zM344 1137h137l69 -195l-110 -1z" />
    <glyph glyph-name="uni1EB2" unicode="&#x1eb2;" horiz-adv-x="675" 
d="M487 172h-240l-84 -172h-140l367 700h130l136 -700h-140zM470 279l-42 249h-6l-122 -249h170zM359.5 805.5q-40.5 31.5 -60.5 91.5h112q5 -22 21.5 -34.5t43.5 -12.5q52 0 81 47h112q-82 -123 -204 -123q-65 0 -105.5 31.5zM450.5 957.5q9.5 7.5 19.5 14t13 8.5
q30 17 45.5 32t15.5 37q0 11 -7.5 17.5t-21.5 6.5q-15 0 -25.5 -9t-13.5 -22h-98q9 43 46 74t102 31q54 0 82.5 -23t28.5 -59q0 -38 -17.5 -59t-47.5 -40q-3 -2 -14.5 -9.5t-14.5 -15.5h-106q4 9 13.5 16.5z" />
    <glyph glyph-name="uni1EB4" unicode="&#x1eb4;" horiz-adv-x="675" 
d="M487 172h-240l-84 -172h-140l367 700h130l136 -700h-140zM470 279l-42 249h-6l-122 -249h170zM360.5 805.5q-40.5 31.5 -60.5 91.5h112q5 -22 21.5 -34.5t43.5 -12.5q52 0 81 47h112q-82 -123 -204 -123q-65 0 -105.5 31.5zM365 1047.5q31 36.5 87 36.5q19 0 36 -5.5
t38 -15.5q12 -6 24.5 -10.5t22.5 -4.5q17 0 26.5 11t11.5 26h73q-7 -53 -37 -89t-87 -36q-20 0 -36.5 5.5t-39.5 15.5q-12 6 -24.5 10.5t-22.5 4.5q-16 0 -25.5 -11t-12.5 -26h-73q8 52 39 88.5z" />
    <glyph glyph-name="Acircumflex" unicode="&#xc2;" horiz-adv-x="675" 
d="M487 172h-240l-84 -172h-140l367 700h130l136 -700h-140zM470 279l-42 249h-6l-122 -249h170zM438 922h103l118 -158h-127l-55 73h-4l-77 -73h-126z" />
    <glyph glyph-name="uni1EA4" unicode="&#x1ea4;" horiz-adv-x="675" 
d="M487 172h-240l-84 -172h-140l367 700h130l136 -700h-140zM470 279l-42 249h-6l-122 -249h170zM438 922h103l118 -158h-127l-55 73h-4l-77 -73h-126zM604 893l132 195h138l-160 -196z" />
    <glyph glyph-name="uni1EAC" unicode="&#x1eac;" horiz-adv-x="675" 
d="M487 172h-240l-84 -172h-140l367 700h130l136 -700h-140zM470 279l-42 249h-6l-122 -249h170zM254 -226.5q-17 17.5 -17 42.5q0 34 26 60t61 26q28 0 45 -17t17 -43q0 -34 -26.5 -60t-61.5 -26q-27 0 -44 17.5zM438 922h103l118 -158h-127l-55 73h-4l-77 -73h-126z" />
    <glyph glyph-name="uni1EA6" unicode="&#x1ea6;" horiz-adv-x="675" 
d="M487 172h-240l-84 -172h-140l367 700h130l136 -700h-140zM470 279l-42 249h-6l-122 -249h170zM438 922h103l118 -158h-127l-55 73h-4l-77 -73h-126zM521 1088h137l69 -195l-110 -1z" />
    <glyph glyph-name="uni1EA8" unicode="&#x1ea8;" horiz-adv-x="675" 
d="M487 172h-240l-84 -172h-140l367 700h130l136 -700h-140zM470 279l-42 249h-6l-122 -249h170zM438 922h103l118 -158h-127l-55 73h-4l-77 -73h-126zM617.5 919.5q9.5 7.5 19.5 14t13 8.5q30 17 45.5 32t15.5 37q0 11 -7.5 17.5t-21.5 6.5q-15 0 -25.5 -9t-13.5 -22h-98
q9 43 46 74t102 31q54 0 82.5 -23t28.5 -59q0 -38 -17.5 -59t-47.5 -40q-3 -2 -14.5 -9.5t-14.5 -15.5h-106q4 9 13.5 16.5z" />
    <glyph glyph-name="uni1EAA" unicode="&#x1eaa;" horiz-adv-x="675" 
d="M487 172h-240l-84 -172h-140l367 700h130l136 -700h-140zM470 279l-42 249h-6l-122 -249h170zM436 922h103l118 -158h-127l-55 73h-4l-77 -73h-126zM358 1057.5q31 36.5 87 36.5q19 0 36 -5.5t38 -15.5q12 -6 24.5 -10.5t22.5 -4.5q17 0 26.5 11t11.5 26h73
q-7 -53 -37 -89t-87 -36q-20 0 -36.5 5.5t-39.5 15.5q-12 6 -24.5 10.5t-22.5 4.5q-16 0 -25.5 -11t-12.5 -26h-73q8 52 39 88.5z" />
    <glyph glyph-name="Adieresis" unicode="&#xc4;" horiz-adv-x="675" 
d="M487 172h-240l-84 -172h-140l367 700h130l136 -700h-140zM470 279l-42 249h-6l-122 -249h170zM553.5 809q-17.5 18 -17.5 45q0 37 27.5 64t63.5 27q30 0 47.5 -17.5t17.5 -45.5q0 -36 -27.5 -63.5t-64.5 -27.5q-29 0 -46.5 18zM299.5 809q-17.5 18 -17.5 45q0 37 27.5 64
t63.5 27q30 0 47.5 -17.5t17.5 -45.5q0 -36 -27.5 -63.5t-64.5 -27.5q-29 0 -46.5 18z" />
    <glyph glyph-name="uni1EA0" unicode="&#x1ea0;" horiz-adv-x="675" 
d="M487 172h-240l-84 -172h-140l367 700h130l136 -700h-140zM470 279l-42 249h-6l-122 -249h170zM254 -226.5q-17 17.5 -17 42.5q0 34 26 60t61 26q28 0 45 -17t17 -43q0 -34 -26.5 -60t-61.5 -26q-27 0 -44 17.5z" />
    <glyph glyph-name="Agrave" unicode="&#xc0;" horiz-adv-x="675" 
d="M487 172h-240l-84 -172h-140l367 700h130l136 -700h-140zM470 279l-42 249h-6l-122 -249h170zM312 971h137l69 -195l-110 -1z" />
    <glyph glyph-name="uni1EA2" unicode="&#x1ea2;" horiz-adv-x="675" 
d="M487 172h-240l-84 -172h-140l367 700h130l136 -700h-140zM470 279l-42 249h-6l-122 -249h170zM423.5 791.5q9.5 7.5 19.5 14t13 8.5q30 17 45.5 32t15.5 37q0 11 -7.5 17.5t-21.5 6.5q-15 0 -25.5 -9t-13.5 -22h-98q9 43 46 74t102 31q54 0 82.5 -23t28.5 -59
q0 -38 -17.5 -59t-47.5 -40q-3 -2 -14.5 -9.5t-14.5 -15.5h-106q4 9 13.5 16.5z" />
    <glyph glyph-name="Amacron" unicode="&#x100;" horiz-adv-x="675" 
d="M487 172h-240l-84 -172h-140l367 700h130l136 -700h-140zM470 279l-42 249h-6l-122 -249h170zM317 853h320l-10 -64h-320z" />
    <glyph glyph-name="Aogonek" unicode="&#x104;" horiz-adv-x="675" 
d="M570 -93q11 -9 35 -9q13 0 23.5 2.5t13.5 3.5l-12 -73q-4 -1 -17 -3t-38 -2q-54 0 -82.5 22.5t-28.5 59.5q0 27 13.5 52t37.5 44l-28 168h-240l-84 -172h-140l367 700h130l136 -700h-35q-29 -16 -45.5 -31t-16.5 -38q0 -15 11 -24zM470 279l-42 249h-6l-122 -249h170z
" />
    <glyph glyph-name="Aring" unicode="&#xc5;" horiz-adv-x="675" 
d="M487 172h-240l-84 -172h-140l367 700h130l136 -700h-140zM470 279l-42 249h-6l-122 -249h170zM404 797q-24 24 -24 59q0 29 16.5 55.5t43.5 43t57 16.5q36 0 60 -24t24 -59q0 -29 -16.5 -56t-43.5 -43t-56 -16q-37 0 -61 24zM508 845q15 15 15 34q0 14 -10 24t-26 10
q-19 0 -33.5 -14.5t-14.5 -33.5q0 -15 10 -25t25 -10q19 0 34 15z" />
    <glyph glyph-name="Atilde" unicode="&#xc3;" horiz-adv-x="675" 
d="M487 172h-240l-84 -172h-140l367 700h130l136 -700h-140zM470 279l-42 249h-6l-122 -249h170zM338 881.5q31 36.5 87 36.5q19 0 36 -5.5t38 -15.5q12 -6 24.5 -10.5t22.5 -4.5q17 0 26.5 11t11.5 26h73q-7 -53 -37 -89t-87 -36q-20 0 -36.5 5.5t-39.5 15.5
q-12 6 -24.5 10.5t-22.5 4.5q-16 0 -25.5 -11t-12.5 -26h-73q8 52 39 88.5z" />
    <glyph glyph-name="AE" unicode="&#xc6;" horiz-adv-x="966" 
d="M691 579l-28 -169h276l-18 -109h-276l-29 -180h323l-19 -121h-464l29 172h-210l-113 -172h-157l464 700h566l-20 -121h-324zM502 279l50 300h-8l-198 -300h156z" />
    <glyph glyph-name="B" unicode="B" horiz-adv-x="624" 
d="M172 700h296q85 0 128 -40.5t43 -104.5q0 -46 -19.5 -84.5t-50 -63t-61.5 -32.5l-1 -6q25 -4 52.5 -19t46.5 -44t19 -72q0 -60 -31.5 -114t-89 -87.5t-130.5 -33.5h-317zM379 409q55 0 90 30.5t35 79.5q0 38 -27.5 54.5t-67.5 16.5h-118l-30 -181h118zM360 110
q60 0 97 33t37 87q0 42 -30 61t-71 19h-148l-34 -200h149z" />
    <glyph glyph-name="C" unicode="C" horiz-adv-x="699" 
d="M213.5 29q-59.5 37 -89.5 101.5t-30 144.5q0 120 51.5 221t140 159.5t193.5 58.5q122 0 188 -70.5t71 -183.5h-134q-4 58 -42 95.5t-101 37.5t-114 -40.5t-80 -111.5t-29 -159q0 -78 36 -123.5t107 -45.5q61 0 109.5 35.5t73.5 88.5h133q-41 -108 -129.5 -176.5
t-207.5 -68.5q-87 0 -146.5 37z" />
    <glyph glyph-name="Cacute" unicode="&#x106;" horiz-adv-x="699" 
d="M213.5 29q-59.5 37 -89.5 101.5t-30 144.5q0 120 51.5 221t140 159.5t193.5 58.5q122 0 188 -70.5t71 -183.5h-134q-4 58 -42 95.5t-101 37.5t-114 -40.5t-80 -111.5t-29 -159q0 -78 36 -123.5t107 -45.5q61 0 109.5 35.5t73.5 88.5h133q-41 -108 -129.5 -176.5
t-207.5 -68.5q-87 0 -146.5 37zM431 776l132 195h138l-160 -196z" />
    <glyph glyph-name="Ccaron" unicode="&#x10c;" horiz-adv-x="699" 
d="M213.5 29q-59.5 37 -89.5 101.5t-30 144.5q0 120 51.5 221t140 159.5t193.5 58.5q122 0 188 -70.5t71 -183.5h-134q-4 58 -42 95.5t-101 37.5t-114 -40.5t-80 -111.5t-29 -159q0 -78 36 -123.5t107 -45.5q61 0 109.5 35.5t73.5 88.5h133q-41 -108 -129.5 -176.5
t-207.5 -68.5q-87 0 -146.5 37zM439 922l53 -74h4l79 74h127l-169 -158h-103l-117 158h126z" />
    <glyph glyph-name="Ccedilla" unicode="&#xc7;" horiz-adv-x="699" 
d="M490.5 148.5q48.5 35.5 73.5 88.5h133q-40 -103 -121.5 -170.5t-192.5 -73.5l-18 -38h15q43 0 65 -21.5t22 -55.5q0 -35 -18.5 -64.5t-51 -46.5t-72.5 -17q-21 0 -39 4.5t-28 9.5l11 68q33 -9 67 -9q29 0 47 13t18 33q0 14 -12 20.5t-27 6.5h-90l1 4l41 95
q-107 14 -163.5 91t-56.5 189q0 120 51.5 221t140 159.5t193.5 58.5q122 0 188 -70.5t71 -183.5h-134q-4 58 -42 95.5t-101 37.5t-114 -40.5t-80 -111.5t-29 -159q0 -78 36 -123.5t107 -45.5q61 0 109.5 35.5z" />
    <glyph glyph-name="Cdotaccent" unicode="&#x10a;" horiz-adv-x="699" 
d="M213.5 29q-59.5 37 -89.5 101.5t-30 144.5q0 120 51.5 221t140 159.5t193.5 58.5q122 0 188 -70.5t71 -183.5h-134q-4 58 -42 95.5t-101 37.5t-114 -40.5t-80 -111.5t-29 -159q0 -78 36 -123.5t107 -45.5q61 0 109.5 35.5t73.5 88.5h133q-41 -108 -129.5 -176.5
t-207.5 -68.5q-87 0 -146.5 37zM437.5 809q-17.5 18 -17.5 45q0 37 27.5 64t63.5 27q30 0 47.5 -17.5t17.5 -45.5q0 -36 -27.5 -63.5t-64.5 -27.5q-29 0 -46.5 18z" />
    <glyph glyph-name="D" unicode="D" horiz-adv-x="679" 
d="M172 701h272q122 0 192.5 -71t70.5 -197q0 -122 -49.5 -221t-136 -155t-194.5 -56h-270zM322 125q70 0 123 35t83 101.5t30 157.5q0 85 -44 122t-117 37h-110l-75 -453h110z" />
    <glyph glyph-name="Eth" unicode="&#xd0;" horiz-adv-x="709" 
d="M662 631q74 -70 74 -199q0 -125 -50.5 -223t-140.5 -153.5t-205 -55.5h-254l51 311h-50l15 93h51l49 297h255q131 0 205 -70zM444.5 149.5q57.5 24.5 100.5 90.5t43 180q0 99 -53 128.5t-125 29.5h-94l-29 -174h104l-15 -93h-104l-31 -186h94q52 0 109.5 24.5z" />
    <glyph glyph-name="Dcaron" unicode="&#x10e;" horiz-adv-x="679" 
d="M172 701h272q122 0 192.5 -71t70.5 -197q0 -122 -49.5 -221t-136 -155t-194.5 -56h-270zM322 125q70 0 123 35t83 101.5t30 157.5q0 85 -44 122t-117 37h-110l-75 -453h110zM413 922l53 -74h4l79 74h127l-169 -158h-103l-117 158h126z" />
    <glyph glyph-name="Dcroat" unicode="&#x110;" horiz-adv-x="709" 
d="M662 631q74 -70 74 -199q0 -125 -50.5 -223t-140.5 -153.5t-205 -55.5h-254l51 311h-50l15 93h51l49 297h255q131 0 205 -70zM444.5 149.5q57.5 24.5 100.5 90.5t43 180q0 99 -53 128.5t-125 29.5h-94l-29 -174h104l-15 -93h-104l-31 -186h94q52 0 109.5 24.5z" />
    <glyph glyph-name="E" unicode="E" 
d="M292 579l-28 -169h276l-18 -109h-276l-29 -180h323l-19 -121h-463l115 700h463l-20 -121h-324z" />
    <glyph glyph-name="Eacute" unicode="&#xc9;" 
d="M292 579l-28 -169h276l-18 -109h-276l-29 -180h323l-19 -121h-463l115 700h463l-20 -121h-324zM362 776l132 195h138l-160 -196z" />
    <glyph glyph-name="Ecaron" unicode="&#x11a;" 
d="M292 579l-28 -169h276l-18 -109h-276l-29 -180h323l-19 -121h-463l115 700h463l-20 -121h-324zM371 922l53 -74h4l79 74h127l-169 -158h-103l-117 158h126z" />
    <glyph glyph-name="Ecircumflex" unicode="&#xca;" 
d="M292 579l-28 -169h276l-18 -109h-276l-29 -180h323l-19 -121h-463l115 700h463l-20 -121h-324zM388 922h103l118 -158h-127l-55 73h-4l-77 -73h-126z" />
    <glyph glyph-name="uni1EBE" unicode="&#x1ebe;" 
d="M292 579l-28 -169h276l-18 -109h-276l-29 -180h323l-19 -121h-463l115 700h463l-20 -121h-324zM387 922h103l118 -158h-127l-55 73h-4l-77 -73h-126zM553 893l132 195h138l-160 -196z" />
    <glyph glyph-name="uni1EC6" unicode="&#x1ec6;" 
d="M292 579l-28 -169h276l-18 -109h-276l-29 -180h323l-19 -121h-463l115 700h463l-20 -121h-324zM203 -226.5q-17 17.5 -17 42.5q0 34 26 60t61 26q28 0 45 -17t17 -43q0 -34 -26.5 -60t-61.5 -26q-27 0 -44 17.5zM388 922h103l118 -158h-127l-55 73h-4l-77 -73h-126z" />
    <glyph glyph-name="uni1EC0" unicode="&#x1ec0;" 
d="M292 579l-28 -169h276l-18 -109h-276l-29 -180h323l-19 -121h-463l115 700h463l-20 -121h-324zM388 922h103l118 -158h-127l-55 73h-4l-77 -73h-126zM471 1088h137l69 -195l-110 -1z" />
    <glyph glyph-name="uni1EC2" unicode="&#x1ec2;" 
d="M292 579l-28 -169h276l-18 -109h-276l-29 -180h323l-19 -121h-463l115 700h463l-20 -121h-324zM387 922h103l118 -158h-127l-55 73h-4l-77 -73h-126zM566.5 919.5q9.5 7.5 19.5 14t13 8.5q30 17 45.5 32t15.5 37q0 11 -7.5 17.5t-21.5 6.5q-15 0 -25.5 -9t-13.5 -22h-98
q9 43 46 74t102 31q54 0 82.5 -23t28.5 -59q0 -38 -17.5 -59t-47.5 -40q-3 -2 -14.5 -9.5t-14.5 -15.5h-106q4 9 13.5 16.5z" />
    <glyph glyph-name="uni1EC4" unicode="&#x1ec4;" 
d="M292 579l-28 -169h276l-18 -109h-276l-29 -180h323l-19 -121h-463l115 700h463l-20 -121h-324zM385 922h103l118 -158h-127l-55 73h-4l-77 -73h-126zM307 1057.5q31 36.5 87 36.5q19 0 36 -5.5t38 -15.5q12 -6 24.5 -10.5t22.5 -4.5q17 0 26.5 11t11.5 26h73
q-7 -53 -37 -89t-87 -36q-20 0 -36.5 5.5t-39.5 15.5q-12 6 -24.5 10.5t-22.5 4.5q-16 0 -25.5 -11t-12.5 -26h-73q8 52 39 88.5z" />
    <glyph glyph-name="Edieresis" unicode="&#xcb;" 
d="M292 579l-28 -169h276l-18 -109h-276l-29 -180h323l-19 -121h-463l115 700h463l-20 -121h-324zM503.5 809q-17.5 18 -17.5 45q0 37 27.5 64t63.5 27q30 0 47.5 -17.5t17.5 -45.5q0 -36 -27.5 -63.5t-64.5 -27.5q-29 0 -46.5 18zM249.5 809q-17.5 18 -17.5 45
q0 37 27.5 64t63.5 27q30 0 47.5 -17.5t17.5 -45.5q0 -36 -27.5 -63.5t-64.5 -27.5q-29 0 -46.5 18z" />
    <glyph glyph-name="Edotaccent" unicode="&#x116;" 
d="M292 579l-28 -169h276l-18 -109h-276l-29 -180h323l-19 -121h-463l115 700h463l-20 -121h-324zM369.5 809q-17.5 18 -17.5 45q0 37 27.5 64t63.5 27q30 0 47.5 -17.5t17.5 -45.5q0 -36 -27.5 -63.5t-64.5 -27.5q-29 0 -46.5 18z" />
    <glyph glyph-name="uni1EB8" unicode="&#x1eb8;" 
d="M292 579l-28 -169h276l-18 -109h-276l-29 -180h323l-19 -121h-463l115 700h463l-20 -121h-324zM203 -226.5q-17 17.5 -17 42.5q0 34 26 60t61 26q28 0 45 -17t17 -43q0 -34 -26.5 -60t-61.5 -26q-27 0 -44 17.5z" />
    <glyph glyph-name="Egrave" unicode="&#xc8;" 
d="M292 579l-28 -169h276l-18 -109h-276l-29 -180h323l-19 -121h-463l115 700h463l-20 -121h-324zM262 971h137l69 -195l-110 -1z" />
    <glyph glyph-name="uni1EBA" unicode="&#x1eba;" 
d="M292 579l-28 -169h276l-18 -109h-276l-29 -180h323l-19 -121h-463l115 700h463l-20 -121h-324zM373.5 791.5q9.5 7.5 19.5 14t13 8.5q30 17 45.5 32t15.5 37q0 11 -7.5 17.5t-21.5 6.5q-15 0 -25.5 -9t-13.5 -22h-98q9 43 46 74t102 31q54 0 82.5 -23t28.5 -59
q0 -38 -17.5 -59t-47.5 -40q-3 -2 -14.5 -9.5t-14.5 -15.5h-106q4 9 13.5 16.5z" />
    <glyph glyph-name="Emacron" unicode="&#x112;" 
d="M292 579l-28 -169h276l-18 -109h-276l-29 -180h323l-19 -121h-463l115 700h463l-20 -121h-324zM267 853h320l-10 -64h-320z" />
    <glyph glyph-name="Eogonek" unicode="&#x118;" 
d="M292 579l-28 -169h276l-18 -109h-276l-29 -180h323l-19 -121h-1q-29 -16 -45.5 -31t-16.5 -38q0 -15 11 -24t35 -9q13 0 23.5 2.5t13.5 3.5l-12 -73q-4 -1 -17 -3t-38 -2q-54 0 -82.5 22.5t-28.5 59.5q0 26 12.5 50t34.5 42h-352l115 700h463l-20 -121h-324z" />
    <glyph glyph-name="uni1EBC" unicode="&#x1ebc;" 
d="M292 579l-28 -169h276l-18 -109h-276l-29 -180h323l-19 -121h-463l115 700h463l-20 -121h-324zM288 881.5q31 36.5 87 36.5q19 0 36 -5.5t38 -15.5q12 -6 24.5 -10.5t22.5 -4.5q17 0 26.5 11t11.5 26h73q-7 -53 -37 -89t-87 -36q-20 0 -36.5 5.5t-39.5 15.5
q-12 6 -24.5 10.5t-22.5 4.5q-16 0 -25.5 -11t-12.5 -26h-73q8 52 39 88.5z" />
    <glyph glyph-name="F" unicode="F" horiz-adv-x="511" 
d="M293 579l-28 -169h270l-18 -108h-269l-50 -302h-139l115 700h444l-19 -121h-306z" />
    <glyph glyph-name="G" unicode="G" horiz-adv-x="716" 
d="M204.5 30q-56.5 38 -83 101t-26.5 141q0 121 51 222.5t139 160.5t193 59q119 0 184 -66t78 -170h-146q-6 53 -39.5 83.5t-94.5 30.5q-63 0 -114.5 -41.5t-81 -113.5t-29.5 -161q0 -83 39 -128t111 -45q51 0 91 22.5t64 58.5t29 78l2 16h-144l15 100h283l-62 -378h-103
l17 104h-8q-78 -112 -224 -112q-84 0 -140.5 38z" />
    <glyph glyph-name="Gbreve" unicode="&#x11e;" horiz-adv-x="716" 
d="M204.5 30q-56.5 38 -83 101t-26.5 141q0 121 51 222.5t139 160.5t193 59q119 0 184 -66t78 -170h-146q-6 53 -39.5 83.5t-94.5 30.5q-63 0 -114.5 -41.5t-81 -113.5t-29.5 -161q0 -83 39 -128t111 -45q51 0 91 22.5t64 58.5t29 78l2 16h-144l15 100h283l-62 -378h-103
l17 104h-8q-78 -112 -224 -112q-84 0 -140.5 38zM384.5 805.5q-40.5 31.5 -60.5 91.5h112q5 -22 21.5 -34.5t43.5 -12.5q52 0 81 47h112q-82 -123 -204 -123q-65 0 -105.5 31.5z" />
    <glyph glyph-name="Gdotaccent" unicode="&#x120;" horiz-adv-x="716" 
d="M204.5 30q-56.5 38 -83 101t-26.5 141q0 121 51 222.5t139 160.5t193 59q119 0 184 -66t78 -170h-146q-6 53 -39.5 83.5t-94.5 30.5q-63 0 -114.5 -41.5t-81 -113.5t-29.5 -161q0 -83 39 -128t111 -45q51 0 91 22.5t64 58.5t29 78l2 16h-144l15 100h283l-62 -378h-103
l17 104h-8q-78 -112 -224 -112q-84 0 -140.5 38zM443.5 809q-17.5 18 -17.5 45q0 37 27.5 64t63.5 27q30 0 47.5 -17.5t17.5 -45.5q0 -36 -27.5 -63.5t-64.5 -27.5q-29 0 -46.5 18z" />
    <glyph glyph-name="H" unicode="H" horiz-adv-x="679" 
d="M737 700l-115 -700h-139l49 297h-287l-49 -297h-139l115 700h139l-48 -294h287l48 294h139z" />
    <glyph glyph-name="Hbar" unicode="&#x126;" horiz-adv-x="697" 
d="M765 502h-53l-82 -502h-139l49 297h-287l-49 -297h-138l82 502h-50l17 109h51l15 89h138l-15 -89h287l15 89h139l-15 -89h52zM573 502h-287l-15 -96h287z" />
    <glyph glyph-name="I" unicode="I" horiz-adv-x="268" 
d="M179 700h140l-115 -700h-140z" />
    <glyph glyph-name="Iacute" unicode="&#xcd;" horiz-adv-x="268" 
d="M179 700h140l-115 -700h-140zM209 776l132 195h138l-160 -196z" />
    <glyph glyph-name="Icircumflex" unicode="&#xce;" horiz-adv-x="268" 
d="M179 700h140l-115 -700h-140zM235 922h103l118 -158h-127l-55 73h-4l-77 -73h-126z" />
    <glyph glyph-name="Idieresis" unicode="&#xcf;" horiz-adv-x="268" 
d="M179 700h140l-115 -700h-140zM350.5 809q-17.5 18 -17.5 45q0 37 27.5 64t63.5 27q30 0 47.5 -17.5t17.5 -45.5q0 -36 -27.5 -63.5t-64.5 -27.5q-29 0 -46.5 18zM96.5 809q-17.5 18 -17.5 45q0 37 27.5 64t63.5 27q30 0 47.5 -17.5t17.5 -45.5q0 -36 -27.5 -63.5
t-64.5 -27.5q-29 0 -46.5 18z" />
    <glyph glyph-name="Idotaccent" unicode="&#x130;" horiz-adv-x="268" 
d="M179 700h140l-115 -700h-140zM215.5 809q-17.5 18 -17.5 45q0 37 27.5 64t63.5 27q30 0 47.5 -17.5t17.5 -45.5q0 -36 -27.5 -63.5t-64.5 -27.5q-29 0 -46.5 18z" />
    <glyph glyph-name="uni1ECA" unicode="&#x1eca;" horiz-adv-x="268" 
d="M179 700h140l-115 -700h-140zM50 -226.5q-17 17.5 -17 42.5q0 34 26 60t61 26q28 0 45 -17t17 -43q0 -34 -26.5 -60t-61.5 -26q-27 0 -44 17.5z" />
    <glyph glyph-name="Igrave" unicode="&#xcc;" horiz-adv-x="268" 
d="M179 700h140l-115 -700h-140zM109 971h137l69 -195l-110 -1z" />
    <glyph glyph-name="uni1EC8" unicode="&#x1ec8;" horiz-adv-x="268" 
d="M179 700h140l-115 -700h-140zM220.5 791.5q9.5 7.5 19.5 14t13 8.5q30 17 45.5 32t15.5 37q0 11 -7.5 17.5t-21.5 6.5q-15 0 -25.5 -9t-13.5 -22h-98q9 43 46 74t102 31q54 0 82.5 -23t28.5 -59q0 -38 -17.5 -59t-47.5 -40q-3 -2 -14.5 -9.5t-14.5 -15.5h-106
q4 9 13.5 16.5z" />
    <glyph glyph-name="Imacron" unicode="&#x12a;" horiz-adv-x="268" 
d="M179 700h140l-115 -700h-140zM113 853h320l-10 -64h-320z" />
    <glyph glyph-name="Iogonek" unicode="&#x12e;" horiz-adv-x="268" 
d="M152 -93q11 -9 35 -9q13 0 23.5 2.5t13.5 3.5l-12 -73q-4 -1 -17 -3t-38 -2q-54 0 -82.5 22.5t-28.5 59.5q0 26 12.5 50t34.5 42h-29l115 700h140l-115 -700h-1q-29 -16 -45.5 -31t-16.5 -38q0 -15 11 -24z" />
    <glyph glyph-name="Itilde" unicode="&#x128;" horiz-adv-x="268" 
d="M179 700h140l-115 -700h-140zM134 881.5q31 36.5 87 36.5q19 0 36 -5.5t38 -15.5q12 -6 24.5 -10.5t22.5 -4.5q17 0 26.5 11t11.5 26h73q-7 -53 -37 -89t-87 -36q-20 0 -36.5 5.5t-39.5 15.5q-12 6 -24.5 10.5t-22.5 4.5q-16 0 -25.5 -11t-12.5 -26h-73q8 52 39 88.5z
" />
    <glyph glyph-name="J" unicode="J" horiz-adv-x="366" 
d="M43 5l16 99q15 -4 44 -4q34 0 52.5 12.5t25 30.5t11.5 47l84 510h137l-90 -550q-25 -153 -198 -153q-50 0 -82 8z" />
    <glyph glyph-name="K" unicode="K" horiz-adv-x="653" 
d="M172 700h137l-47 -284h5l291 284h160l-307 -298l197 -402h-156l-142 307l-77 -72l-39 -235h-137z" />
    <glyph glyph-name="L" unicode="L" horiz-adv-x="533" 
d="M519 121l-19 -121h-442l114 700h140l-96 -579h303z" />
    <glyph glyph-name="Lacute" unicode="&#x139;" horiz-adv-x="533" 
d="M519 121l-19 -121h-442l114 700h140l-96 -579h303zM201 776l132 195h138l-160 -196z" />
    <glyph glyph-name="Lcaron" unicode="&#x13d;" horiz-adv-x="533" 
d="M519 121l-19 -121h-442l114 700h140l-96 -579h303zM209 922l53 -74h4l79 74h127l-169 -158h-103l-117 158h126z" />
    <glyph glyph-name="M" unicode="M" horiz-adv-x="839" 
d="M172 700h206l83 -431h3l227 431h206l-115 -700h-136l83 502h-5l-259 -502h-90l-94 502h-5l-83 -502h-136z" />
    <glyph glyph-name="N" unicode="N" horiz-adv-x="701" 
d="M172 700h161l205 -486h3l80 486h138l-115 -701h-162l-206 472h-3l-78 -472h-138z" />
    <glyph glyph-name="Nacute" unicode="&#x143;" horiz-adv-x="701" 
d="M172 700h161l205 -486h3l80 486h138l-115 -701h-162l-206 472h-3l-78 -472h-138zM426 776l132 195h138l-160 -196z" />
    <glyph glyph-name="Ncaron" unicode="&#x147;" horiz-adv-x="701" 
d="M172 700h161l205 -486h3l80 486h138l-115 -701h-162l-206 472h-3l-78 -472h-138zM434 922l53 -74h4l79 74h127l-169 -158h-103l-117 158h126z" />
    <glyph glyph-name="Ntilde" unicode="&#xd1;" horiz-adv-x="701" 
d="M172 700h161l205 -486h3l80 486h138l-115 -701h-162l-206 472h-3l-78 -472h-138zM351 881.5q31 36.5 87 36.5q19 0 36 -5.5t38 -15.5q12 -6 24.5 -10.5t22.5 -4.5q17 0 26.5 11t11.5 26h73q-7 -53 -37 -89t-87 -36q-20 0 -36.5 5.5t-39.5 15.5q-12 6 -24.5 10.5
t-22.5 4.5q-16 0 -25.5 -11t-12.5 -26h-73q8 52 39 88.5z" />
    <glyph glyph-name="O" unicode="O" horiz-adv-x="726" 
d="M211.5 28q-60.5 36 -90.5 98.5t-30 143.5q0 123 51.5 224.5t141 160.5t196.5 59q87 0 147 -36.5t89.5 -100t29.5 -145.5q0 -123 -50.5 -223.5t-139 -158.5t-195.5 -58q-89 0 -149.5 36zM490 156.5q50 40.5 79 109.5t29 152q0 77 -35.5 124.5t-103.5 47.5
q-59 0 -109.5 -41t-80 -110.5t-29.5 -151.5q0 -76 35.5 -123.5t104.5 -47.5q60 0 110 40.5z" />
    <glyph glyph-name="Oacute" unicode="&#xd3;" horiz-adv-x="726" 
d="M211.5 28q-60.5 36 -90.5 98.5t-30 143.5q0 123 51.5 224.5t141 160.5t196.5 59q87 0 147 -36.5t89.5 -100t29.5 -145.5q0 -123 -50.5 -223.5t-139 -158.5t-195.5 -58q-89 0 -149.5 36zM490 156.5q50 40.5 79 109.5t29 152q0 77 -35.5 124.5t-103.5 47.5
q-59 0 -109.5 -41t-80 -110.5t-29.5 -151.5q0 -76 35.5 -123.5t104.5 -47.5q60 0 110 40.5zM437 776l132 195h138l-160 -196z" />
    <glyph glyph-name="Ocircumflex" unicode="&#xd4;" horiz-adv-x="726" 
d="M211.5 28q-60.5 36 -90.5 98.5t-30 143.5q0 123 51.5 224.5t141 160.5t196.5 59q87 0 147 -36.5t89.5 -100t29.5 -145.5q0 -123 -50.5 -223.5t-139 -158.5t-195.5 -58q-89 0 -149.5 36zM490 156.5q50 40.5 79 109.5t29 152q0 77 -35.5 124.5t-103.5 47.5
q-59 0 -109.5 -41t-80 -110.5t-29.5 -151.5q0 -76 35.5 -123.5t104.5 -47.5q60 0 110 40.5zM463 922h103l118 -158h-127l-55 73h-4l-77 -73h-126z" />
    <glyph glyph-name="uni1ED0" unicode="&#x1ed0;" horiz-adv-x="726" 
d="M211.5 28q-60.5 36 -90.5 98.5t-30 143.5q0 123 51.5 224.5t141 160.5t196.5 59q87 0 147 -36.5t89.5 -100t29.5 -145.5q0 -123 -50.5 -223.5t-139 -158.5t-195.5 -58q-89 0 -149.5 36zM490 156.5q50 40.5 79 109.5t29 152q0 77 -35.5 124.5t-103.5 47.5
q-59 0 -109.5 -41t-80 -110.5t-29.5 -151.5q0 -76 35.5 -123.5t104.5 -47.5q60 0 110 40.5zM462 922h103l118 -158h-127l-55 73h-4l-77 -73h-126zM628 893l132 195h138l-160 -196z" />
    <glyph glyph-name="uni1ED8" unicode="&#x1ed8;" horiz-adv-x="726" 
d="M211.5 28q-60.5 36 -90.5 98.5t-30 143.5q0 123 51.5 224.5t141 160.5t196.5 59q87 0 147 -36.5t89.5 -100t29.5 -145.5q0 -123 -50.5 -223.5t-139 -158.5t-195.5 -58q-89 0 -149.5 36zM490 156.5q50 40.5 79 109.5t29 152q0 77 -35.5 124.5t-103.5 47.5
q-59 0 -109.5 -41t-80 -110.5t-29.5 -151.5q0 -76 35.5 -123.5t104.5 -47.5q60 0 110 40.5zM278 -226.5q-17 17.5 -17 42.5q0 34 26 60t61 26q28 0 45 -17t17 -43q0 -34 -26.5 -60t-61.5 -26q-27 0 -44 17.5zM463 922h103l118 -158h-127l-55 73h-4l-77 -73h-126z" />
    <glyph glyph-name="uni1ED2" unicode="&#x1ed2;" horiz-adv-x="726" 
d="M211.5 28q-60.5 36 -90.5 98.5t-30 143.5q0 123 51.5 224.5t141 160.5t196.5 59q87 0 147 -36.5t89.5 -100t29.5 -145.5q0 -123 -50.5 -223.5t-139 -158.5t-195.5 -58q-89 0 -149.5 36zM490 156.5q50 40.5 79 109.5t29 152q0 77 -35.5 124.5t-103.5 47.5
q-59 0 -109.5 -41t-80 -110.5t-29.5 -151.5q0 -76 35.5 -123.5t104.5 -47.5q60 0 110 40.5zM463 922h103l118 -158h-127l-55 73h-4l-77 -73h-126zM546 1088h137l69 -195l-110 -1z" />
    <glyph glyph-name="uni1ED4" unicode="&#x1ed4;" horiz-adv-x="726" 
d="M211.5 28q-60.5 36 -90.5 98.5t-30 143.5q0 123 51.5 224.5t141 160.5t196.5 59q87 0 147 -36.5t89.5 -100t29.5 -145.5q0 -123 -50.5 -223.5t-139 -158.5t-195.5 -58q-89 0 -149.5 36zM490 156.5q50 40.5 79 109.5t29 152q0 77 -35.5 124.5t-103.5 47.5
q-59 0 -109.5 -41t-80 -110.5t-29.5 -151.5q0 -76 35.5 -123.5t104.5 -47.5q60 0 110 40.5zM462 922h103l118 -158h-127l-55 73h-4l-77 -73h-126zM641.5 919.5q9.5 7.5 19.5 14t13 8.5q30 17 45.5 32t15.5 37q0 11 -7.5 17.5t-21.5 6.5q-15 0 -25.5 -9t-13.5 -22h-98
q9 43 46 74t102 31q54 0 82.5 -23t28.5 -59q0 -38 -17.5 -59t-47.5 -40q-3 -2 -14.5 -9.5t-14.5 -15.5h-106q4 9 13.5 16.5z" />
    <glyph glyph-name="uni1ED6" unicode="&#x1ed6;" horiz-adv-x="726" 
d="M211.5 28q-60.5 36 -90.5 98.5t-30 143.5q0 123 51.5 224.5t141 160.5t196.5 59q87 0 147 -36.5t89.5 -100t29.5 -145.5q0 -123 -50.5 -223.5t-139 -158.5t-195.5 -58q-89 0 -149.5 36zM490 156.5q50 40.5 79 109.5t29 152q0 77 -35.5 124.5t-103.5 47.5
q-59 0 -109.5 -41t-80 -110.5t-29.5 -151.5q0 -76 35.5 -123.5t104.5 -47.5q60 0 110 40.5zM460 922h103l118 -158h-127l-55 73h-4l-77 -73h-126zM382 1057.5q31 36.5 87 36.5q19 0 36 -5.5t38 -15.5q12 -6 24.5 -10.5t22.5 -4.5q17 0 26.5 11t11.5 26h73q-7 -53 -37 -89
t-87 -36q-20 0 -36.5 5.5t-39.5 15.5q-12 6 -24.5 10.5t-22.5 4.5q-16 0 -25.5 -11t-12.5 -26h-73q8 52 39 88.5z" />
    <glyph glyph-name="Odieresis" unicode="&#xd6;" horiz-adv-x="726" 
d="M211.5 28q-60.5 36 -90.5 98.5t-30 143.5q0 123 51.5 224.5t141 160.5t196.5 59q87 0 147 -36.5t89.5 -100t29.5 -145.5q0 -123 -50.5 -223.5t-139 -158.5t-195.5 -58q-89 0 -149.5 36zM490 156.5q50 40.5 79 109.5t29 152q0 77 -35.5 124.5t-103.5 47.5
q-59 0 -109.5 -41t-80 -110.5t-29.5 -151.5q0 -76 35.5 -123.5t104.5 -47.5q60 0 110 40.5zM578.5 809q-17.5 18 -17.5 45q0 37 27.5 64t63.5 27q30 0 47.5 -17.5t17.5 -45.5q0 -36 -27.5 -63.5t-64.5 -27.5q-29 0 -46.5 18zM324.5 809q-17.5 18 -17.5 45q0 37 27.5 64
t63.5 27q30 0 47.5 -17.5t17.5 -45.5q0 -36 -27.5 -63.5t-64.5 -27.5q-29 0 -46.5 18z" />
    <glyph glyph-name="uni1ECC" unicode="&#x1ecc;" horiz-adv-x="726" 
d="M211.5 28q-60.5 36 -90.5 98.5t-30 143.5q0 123 51.5 224.5t141 160.5t196.5 59q87 0 147 -36.5t89.5 -100t29.5 -145.5q0 -123 -50.5 -223.5t-139 -158.5t-195.5 -58q-89 0 -149.5 36zM490 156.5q50 40.5 79 109.5t29 152q0 77 -35.5 124.5t-103.5 47.5
q-59 0 -109.5 -41t-80 -110.5t-29.5 -151.5q0 -76 35.5 -123.5t104.5 -47.5q60 0 110 40.5zM278 -226.5q-17 17.5 -17 42.5q0 34 26 60t61 26q28 0 45 -17t17 -43q0 -34 -26.5 -60t-61.5 -26q-27 0 -44 17.5z" />
    <glyph glyph-name="Ograve" unicode="&#xd2;" horiz-adv-x="726" 
d="M211.5 28q-60.5 36 -90.5 98.5t-30 143.5q0 123 51.5 224.5t141 160.5t196.5 59q87 0 147 -36.5t89.5 -100t29.5 -145.5q0 -123 -50.5 -223.5t-139 -158.5t-195.5 -58q-89 0 -149.5 36zM490 156.5q50 40.5 79 109.5t29 152q0 77 -35.5 124.5t-103.5 47.5
q-59 0 -109.5 -41t-80 -110.5t-29.5 -151.5q0 -76 35.5 -123.5t104.5 -47.5q60 0 110 40.5zM337 971h137l69 -195l-110 -1z" />
    <glyph glyph-name="uni1ECE" unicode="&#x1ece;" horiz-adv-x="726" 
d="M211.5 28q-60.5 36 -90.5 98.5t-30 143.5q0 123 51.5 224.5t141 160.5t196.5 59q87 0 147 -36.5t89.5 -100t29.5 -145.5q0 -123 -50.5 -223.5t-139 -158.5t-195.5 -58q-89 0 -149.5 36zM490 156.5q50 40.5 79 109.5t29 152q0 77 -35.5 124.5t-103.5 47.5
q-59 0 -109.5 -41t-80 -110.5t-29.5 -151.5q0 -76 35.5 -123.5t104.5 -47.5q60 0 110 40.5zM448.5 791.5q9.5 7.5 19.5 14t13 8.5q30 17 45.5 32t15.5 37q0 11 -7.5 17.5t-21.5 6.5q-15 0 -25.5 -9t-13.5 -22h-98q9 43 46 74t102 31q54 0 82.5 -23t28.5 -59q0 -38 -17.5 -59
t-47.5 -40q-3 -2 -14.5 -9.5t-14.5 -15.5h-106q4 9 13.5 16.5z" />
    <glyph glyph-name="Ohorn" unicode="&#x1a0;" horiz-adv-x="726" 
d="M791 805l-9 -54q-9 -50 -39 -76t-70 -33q36 -38 54.5 -91.5t18.5 -118.5q0 -123 -50.5 -223.5t-139 -158.5t-195.5 -58q-89 0 -149.5 36t-90.5 98.5t-30 143.5q0 123 51.5 224.5t141 160.5t196.5 59q52 0 97 -14h36q32 0 49.5 12t24.5 55l6 38h98zM490 156.5
q50 40.5 79 109.5t29 152q0 77 -35.5 124.5t-103.5 47.5q-59 0 -109.5 -41t-80 -110.5t-29.5 -151.5q0 -76 35.5 -123.5t104.5 -47.5q60 0 110 40.5z" />
    <glyph glyph-name="uni1EDA" unicode="&#x1eda;" horiz-adv-x="726" 
d="M791 805l-9 -54q-9 -50 -39 -76t-70 -33q36 -38 54.5 -91.5t18.5 -118.5q0 -123 -50.5 -223.5t-139 -158.5t-195.5 -58q-89 0 -149.5 36t-90.5 98.5t-30 143.5q0 123 51.5 224.5t141 160.5t196.5 59q52 0 97 -14h36q32 0 49.5 12t24.5 55l6 38h98zM490 156.5
q50 40.5 79 109.5t29 152q0 77 -35.5 124.5t-103.5 47.5q-59 0 -109.5 -41t-80 -110.5t-29.5 -151.5q0 -76 35.5 -123.5t104.5 -47.5q60 0 110 40.5zM437 776l132 195h138l-160 -196z" />
    <glyph glyph-name="uni1EE2" unicode="&#x1ee2;" horiz-adv-x="726" 
d="M791 805l-9 -54q-9 -50 -39 -76t-70 -33q36 -38 54.5 -91.5t18.5 -118.5q0 -123 -50.5 -223.5t-139 -158.5t-195.5 -58q-89 0 -149.5 36t-90.5 98.5t-30 143.5q0 123 51.5 224.5t141 160.5t196.5 59q52 0 97 -14h36q32 0 49.5 12t24.5 55l6 38h98zM490 156.5
q50 40.5 79 109.5t29 152q0 77 -35.5 124.5t-103.5 47.5q-59 0 -109.5 -41t-80 -110.5t-29.5 -151.5q0 -76 35.5 -123.5t104.5 -47.5q60 0 110 40.5zM278 -226.5q-17 17.5 -17 42.5q0 34 26 60t61 26q28 0 45 -17t17 -43q0 -34 -26.5 -60t-61.5 -26q-27 0 -44 17.5z" />
    <glyph glyph-name="uni1EDC" unicode="&#x1edc;" horiz-adv-x="726" 
d="M791 805l-9 -54q-9 -50 -39 -76t-70 -33q36 -38 54.5 -91.5t18.5 -118.5q0 -123 -50.5 -223.5t-139 -158.5t-195.5 -58q-89 0 -149.5 36t-90.5 98.5t-30 143.5q0 123 51.5 224.5t141 160.5t196.5 59q52 0 97 -14h36q32 0 49.5 12t24.5 55l6 38h98zM490 156.5
q50 40.5 79 109.5t29 152q0 77 -35.5 124.5t-103.5 47.5q-59 0 -109.5 -41t-80 -110.5t-29.5 -151.5q0 -76 35.5 -123.5t104.5 -47.5q60 0 110 40.5zM337 971h137l69 -195l-110 -1z" />
    <glyph glyph-name="uni1EDE" unicode="&#x1ede;" horiz-adv-x="726" 
d="M791 805l-9 -54q-9 -50 -39 -76t-70 -33q36 -38 54.5 -91.5t18.5 -118.5q0 -123 -50.5 -223.5t-139 -158.5t-195.5 -58q-89 0 -149.5 36t-90.5 98.5t-30 143.5q0 123 51.5 224.5t141 160.5t196.5 59q52 0 97 -14h36q32 0 49.5 12t24.5 55l6 38h98zM490 156.5
q50 40.5 79 109.5t29 152q0 77 -35.5 124.5t-103.5 47.5q-59 0 -109.5 -41t-80 -110.5t-29.5 -151.5q0 -76 35.5 -123.5t104.5 -47.5q60 0 110 40.5zM448.5 791.5q9.5 7.5 19.5 14t13 8.5q30 17 45.5 32t15.5 37q0 11 -7.5 17.5t-21.5 6.5q-15 0 -25.5 -9t-13.5 -22h-98
q9 43 46 74t102 31q54 0 82.5 -23t28.5 -59q0 -38 -17.5 -59t-47.5 -40q-3 -2 -14.5 -9.5t-14.5 -15.5h-106q4 9 13.5 16.5z" />
    <glyph glyph-name="uni1EE0" unicode="&#x1ee0;" horiz-adv-x="726" 
d="M791 805l-9 -54q-9 -50 -39 -76t-70 -33q36 -38 54.5 -91.5t18.5 -118.5q0 -123 -50.5 -223.5t-139 -158.5t-195.5 -58q-89 0 -149.5 36t-90.5 98.5t-30 143.5q0 123 51.5 224.5t141 160.5t196.5 59q52 0 97 -14h36q32 0 49.5 12t24.5 55l6 38h98zM490 156.5
q50 40.5 79 109.5t29 152q0 77 -35.5 124.5t-103.5 47.5q-59 0 -109.5 -41t-80 -110.5t-29.5 -151.5q0 -76 35.5 -123.5t104.5 -47.5q60 0 110 40.5zM363 881.5q31 36.5 87 36.5q19 0 36 -5.5t38 -15.5q12 -6 24.5 -10.5t22.5 -4.5q17 0 26.5 11t11.5 26h73q-7 -53 -37 -89
t-87 -36q-20 0 -36.5 5.5t-39.5 15.5q-12 6 -24.5 10.5t-22.5 4.5q-16 0 -25.5 -11t-12.5 -26h-73q8 52 39 88.5z" />
    <glyph glyph-name="Omacron" unicode="&#x14c;" horiz-adv-x="726" 
d="M211.5 28q-60.5 36 -90.5 98.5t-30 143.5q0 123 51.5 224.5t141 160.5t196.5 59q87 0 147 -36.5t89.5 -100t29.5 -145.5q0 -123 -50.5 -223.5t-139 -158.5t-195.5 -58q-89 0 -149.5 36zM490 156.5q50 40.5 79 109.5t29 152q0 77 -35.5 124.5t-103.5 47.5
q-59 0 -109.5 -41t-80 -110.5t-29.5 -151.5q0 -76 35.5 -123.5t104.5 -47.5q60 0 110 40.5zM342 853h320l-10 -64h-320z" />
    <glyph glyph-name="Oslash" unicode="&#xd8;" horiz-adv-x="742" 
d="M703 614q51 -72 51 -182q0 -123 -50.5 -223.5t-139 -158.5t-195.5 -58q-83 0 -141 32l-54 -67h-127l106 131q-53 71 -53 182q0 123 51.5 224.5t140.5 160.5t196 59q82 0 142 -33l50 62h127zM258 218l283 352q-31 20 -74 20q-59 0 -109 -41t-79.5 -110.5t-29.5 -151.5
q0 -37 9 -69zM598 484l-281 -350q31 -18 71 -18q60 0 110 40.5t79 109.5t29 152q0 34 -8 66z" />
    <glyph glyph-name="Otilde" unicode="&#xd5;" horiz-adv-x="726" 
d="M211.5 28q-60.5 36 -90.5 98.5t-30 143.5q0 123 51.5 224.5t141 160.5t196.5 59q87 0 147 -36.5t89.5 -100t29.5 -145.5q0 -123 -50.5 -223.5t-139 -158.5t-195.5 -58q-89 0 -149.5 36zM490 156.5q50 40.5 79 109.5t29 152q0 77 -35.5 124.5t-103.5 47.5
q-59 0 -109.5 -41t-80 -110.5t-29.5 -151.5q0 -76 35.5 -123.5t104.5 -47.5q60 0 110 40.5zM363 881.5q31 36.5 87 36.5q19 0 36 -5.5t38 -15.5q12 -6 24.5 -10.5t22.5 -4.5q17 0 26.5 11t11.5 26h73q-7 -53 -37 -89t-87 -36q-20 0 -36.5 5.5t-39.5 15.5q-12 6 -24.5 10.5
t-22.5 4.5q-16 0 -25.5 -11t-12.5 -26h-73q8 52 39 88.5z" />
    <glyph glyph-name="OE" unicode="&#x152;" horiz-adv-x="969" 
d="M156 74.5q-69 74.5 -69 196.5q0 120 51 218t139.5 154.5t196.5 56.5h564l-20 -121h-323l-28 -169h275l-18 -109h-275l-30 -180h323l-19 -121h-565q-133 0 -202 74.5zM480 124l76 454h-102q-60 0 -110 -38.5t-79 -105t-29 -145.5q0 -74 36.5 -119.5t105.5 -45.5h102z" />
    <glyph glyph-name="P" unicode="P" horiz-adv-x="585" 
d="M593.5 644.5q54.5 -55.5 54.5 -140.5q0 -77 -37 -141.5t-104 -102t-154 -37.5h-123l-37 -223h-136l115 700h259q108 0 162.5 -55.5zM467.5 377.5q43.5 40.5 43.5 108.5q0 50 -34 71t-86 21h-103l-40 -241h102q74 0 117.5 40.5z" />
    <glyph glyph-name="Thorn" unicode="&#xde;" horiz-adv-x="602" 
d="M575 533.5q54 -55.5 54 -140.5q0 -78 -36.5 -142t-103.5 -101.5t-154 -37.5h-124l-18 -112h-136l115 700h136l-18 -111h123q108 0 162 -55.5zM449.5 266.5q43.5 40.5 43.5 108.5q0 50 -34.5 71t-86.5 21h-102l-40 -241h102q74 0 117.5 40.5z" />
    <glyph glyph-name="Q" unicode="Q" horiz-adv-x="722" 
d="M703.5 226q-42.5 -94 -116.5 -154l68 -116h-122l-37 62q-64 -26 -135 -26q-89 0 -149.5 36t-90.5 98.5t-30 143.5q0 123 51.5 224.5t141 160.5t196.5 59q87 0 147 -36.5t89.5 -100t29.5 -145.5q0 -112 -42.5 -206zM433 125l-89 151h122l54 -91q37 43 57.5 103.5
t20.5 129.5q0 77 -35.5 124.5t-103.5 47.5q-59 0 -109.5 -41t-80 -110.5t-29.5 -151.5q0 -76 35.5 -123.5t104.5 -47.5q28 0 53 9z" />
    <glyph glyph-name="R" unicode="R" horiz-adv-x="608" 
d="M600.5 364.5q-48.5 -65.5 -133.5 -93.5l114 -271h-145l-107 254h-92l-42 -254h-138l115 700h259q110 0 164 -52.5t54 -132.5q0 -85 -48.5 -150.5zM255 367h100q73 0 116 34.5t43 93.5q0 45 -35 64.5t-88 19.5h-101z" />
    <glyph glyph-name="Racute" unicode="&#x154;" horiz-adv-x="608" 
d="M600.5 364.5q-48.5 -65.5 -133.5 -93.5l114 -271h-145l-107 254h-92l-42 -254h-138l115 700h259q110 0 164 -52.5t54 -132.5q0 -85 -48.5 -150.5zM255 367h100q73 0 116 34.5t43 93.5q0 45 -35 64.5t-88 19.5h-101zM366 776l132 195h138l-160 -196z" />
    <glyph glyph-name="Rcaron" unicode="&#x158;" horiz-adv-x="608" 
d="M600.5 364.5q-48.5 -65.5 -133.5 -93.5l114 -271h-145l-107 254h-92l-42 -254h-138l115 700h259q110 0 164 -52.5t54 -132.5q0 -85 -48.5 -150.5zM255 367h100q73 0 116 34.5t43 93.5q0 45 -35 64.5t-88 19.5h-101zM375 922l53 -74h4l79 74h127l-169 -158h-103l-117 158
h126z" />
    <glyph glyph-name="S" unicode="S" horiz-adv-x="604" 
d="M176.5 21q-52.5 30 -77 78.5t-24.5 105.5l1 18l1 6h151v-6q0 -44 23 -77t79 -33q53 0 89.5 30.5t36.5 75.5q0 30 -21.5 48t-52.5 24l-82 18q-58 13 -108.5 48.5t-50.5 114.5q0 69 36.5 124t100 86.5t142.5 31.5t130 -30.5t74.5 -79.5t23.5 -105v-4h-158v3q0 39 -19 69
t-75 30q-48 0 -80.5 -29t-32.5 -72q0 -30 22.5 -47.5t55.5 -24.5l81 -18q67 -15 114.5 -53.5t47.5 -109.5q0 -70 -39 -127.5t-107 -91t-150 -33.5q-79 0 -131.5 30z" />
    <glyph glyph-name="Sacute" unicode="&#x15a;" horiz-adv-x="604" 
d="M176.5 21q-52.5 30 -77 78.5t-24.5 105.5l1 18l1 6h151v-6q0 -44 23 -77t79 -33q53 0 89.5 30.5t36.5 75.5q0 30 -21.5 48t-52.5 24l-82 18q-58 13 -108.5 48.5t-50.5 114.5q0 69 36.5 124t100 86.5t142.5 31.5t130 -30.5t74.5 -79.5t23.5 -105v-4h-158v3q0 39 -19 69
t-75 30q-48 0 -80.5 -29t-32.5 -72q0 -30 22.5 -47.5t55.5 -24.5l81 -18q67 -15 114.5 -53.5t47.5 -109.5q0 -70 -39 -127.5t-107 -91t-150 -33.5q-79 0 -131.5 30zM410 775l132 195h138l-160 -196z" />
    <glyph glyph-name="Scaron" unicode="&#x160;" horiz-adv-x="604" 
d="M176.5 21q-52.5 30 -77 78.5t-24.5 105.5l1 18l1 6h151v-6q0 -44 23 -77t79 -33q53 0 89.5 30.5t36.5 75.5q0 30 -21.5 48t-52.5 24l-82 18q-58 13 -108.5 48.5t-50.5 114.5q0 69 36.5 124t100 86.5t142.5 31.5t130 -30.5t74.5 -79.5t23.5 -105v-4h-158v3q0 39 -19 69
t-75 30q-48 0 -80.5 -29t-32.5 -72q0 -30 22.5 -47.5t55.5 -24.5l81 -18q67 -15 114.5 -53.5t47.5 -109.5q0 -70 -39 -127.5t-107 -91t-150 -33.5q-79 0 -131.5 30zM419 921l53 -74h4l79 74h127l-169 -158h-103l-117 158h126z" />
    <glyph glyph-name="Scedilla" unicode="&#x15e;" horiz-adv-x="604" 
d="M490 495v3q0 39 -19 69t-75 30q-48 0 -80.5 -29t-32.5 -72q0 -30 22.5 -47.5t55.5 -24.5l81 -18q67 -15 114.5 -53.5t47.5 -109.5q0 -66 -34.5 -121t-95.5 -89.5t-137 -40.5l-17 -36h15q43 0 65 -21.5t22 -55.5q0 -35 -18.5 -64.5t-51 -46.5t-72.5 -17q-21 0 -39 4.5
t-28 9.5l11 68q33 -9 67 -9q29 0 47 13t18 33q0 14 -12 20.5t-27 6.5h-90l1 4l40 92q-69 8 -113.5 42t-63.5 83.5t-15 104.5l1 6h151v-6q0 -44 23 -77t79 -33q53 0 89.5 30.5t36.5 75.5q0 30 -21.5 48t-52.5 24l-82 18q-58 13 -108.5 48.5t-50.5 114.5q0 69 36.5 124
t100 86.5t142.5 31.5t130 -30.5t74.5 -79.5t23.5 -105v-4h-158z" />
    <glyph glyph-name="T" unicode="T" horiz-adv-x="592" 
d="M650 579h-190l-95 -579h-138l95 579h-189l19 121h518z" />
    <glyph glyph-name="Tbar" unicode="&#x166;" horiz-adv-x="592" 
d="M460 579l-28 -169h150l-14 -92h-151l-52 -318h-138l52 318h-149l15 92h149l28 169h-189l19 121h518l-20 -121h-190z" />
    <glyph glyph-name="Tcaron" unicode="&#x164;" horiz-adv-x="592" 
d="M650 579h-190l-95 -579h-138l95 579h-189l19 121h518zM380 922l53 -74h4l79 74h127l-169 -158h-103l-117 158h126z" />
    <glyph glyph-name="uni0162" unicode="&#x162;" horiz-adv-x="592" 
d="M650 579h-190l-95 -579h-138l95 579h-189l19 121h518zM311 -163q18 13 18 33q0 14 -12 20.5t-27 6.5h-90l1 4l43 99h70l-21 -44h15q43 0 65 -21.5t22 -55.5q0 -35 -18.5 -64.5t-51 -46.5t-72.5 -17q-21 0 -39 4.5t-28 9.5l11 68q33 -9 67 -9q29 0 47 13z" />
    <glyph glyph-name="U" unicode="U" horiz-adv-x="684" 
d="M164 48q-66 58 -66 178q0 40 7 81l65 393h138l-64 -385q-5 -32 -5 -59q0 -134 124 -134q83 0 125 55.5t55 137.5l64 385h137l-65 -393q-26 -162 -117.5 -239.5t-220.5 -77.5q-111 0 -177 58z" />
    <glyph glyph-name="Uacute" unicode="&#xda;" horiz-adv-x="684" 
d="M164 48q-66 58 -66 178q0 40 7 81l65 393h138l-64 -385q-5 -32 -5 -59q0 -134 124 -134q83 0 125 55.5t55 137.5l64 385h137l-65 -393q-26 -162 -117.5 -239.5t-220.5 -77.5q-111 0 -177 58zM417 776l132 195h138l-160 -196z" />
    <glyph glyph-name="Ucircumflex" unicode="&#xdb;" horiz-adv-x="684" 
d="M164 48q-66 58 -66 178q0 40 7 81l65 393h138l-64 -385q-5 -32 -5 -59q0 -134 124 -134q83 0 125 55.5t55 137.5l64 385h137l-65 -393q-26 -162 -117.5 -239.5t-220.5 -77.5q-111 0 -177 58zM443 922h103l118 -158h-127l-55 73h-4l-77 -73h-126z" />
    <glyph glyph-name="Udieresis" unicode="&#xdc;" horiz-adv-x="684" 
d="M164 48q-66 58 -66 178q0 40 7 81l65 393h138l-64 -385q-5 -32 -5 -59q0 -134 124 -134q83 0 125 55.5t55 137.5l64 385h137l-65 -393q-26 -162 -117.5 -239.5t-220.5 -77.5q-111 0 -177 58zM558.5 809q-17.5 18 -17.5 45q0 37 27.5 64t63.5 27q30 0 47.5 -17.5
t17.5 -45.5q0 -36 -27.5 -63.5t-64.5 -27.5q-29 0 -46.5 18zM304.5 809q-17.5 18 -17.5 45q0 37 27.5 64t63.5 27q30 0 47.5 -17.5t17.5 -45.5q0 -36 -27.5 -63.5t-64.5 -27.5q-29 0 -46.5 18z" />
    <glyph glyph-name="uni1EE4" unicode="&#x1ee4;" horiz-adv-x="684" 
d="M164 48q-66 58 -66 178q0 40 7 81l65 393h138l-64 -385q-5 -32 -5 -59q0 -134 124 -134q83 0 125 55.5t55 137.5l64 385h137l-65 -393q-26 -162 -117.5 -239.5t-220.5 -77.5q-111 0 -177 58zM259 -226.5q-17 17.5 -17 42.5q0 34 26 60t61 26q28 0 45 -17t17 -43
q0 -34 -26.5 -60t-61.5 -26q-27 0 -44 17.5z" />
    <glyph glyph-name="Ugrave" unicode="&#xd9;" horiz-adv-x="684" 
d="M164 48q-66 58 -66 178q0 40 7 81l65 393h138l-64 -385q-5 -32 -5 -59q0 -134 124 -134q83 0 125 55.5t55 137.5l64 385h137l-65 -393q-26 -162 -117.5 -239.5t-220.5 -77.5q-111 0 -177 58zM317 971h137l69 -195l-110 -1z" />
    <glyph glyph-name="uni1EE6" unicode="&#x1ee6;" horiz-adv-x="684" 
d="M164 48q-66 58 -66 178q0 40 7 81l65 393h138l-64 -385q-5 -32 -5 -59q0 -134 124 -134q83 0 125 55.5t55 137.5l64 385h137l-65 -393q-26 -162 -117.5 -239.5t-220.5 -77.5q-111 0 -177 58zM428.5 791.5q9.5 7.5 19.5 14t13 8.5q30 17 45.5 32t15.5 37q0 11 -7.5 17.5
t-21.5 6.5q-15 0 -25.5 -9t-13.5 -22h-98q9 43 46 74t102 31q54 0 82.5 -23t28.5 -59q0 -38 -17.5 -59t-47.5 -40q-3 -2 -14.5 -9.5t-14.5 -15.5h-106q4 9 13.5 16.5z" />
    <glyph glyph-name="Uhorn" unicode="&#x1af;" horiz-adv-x="684" 
d="M875 805l-9 -54q-10 -58 -47.5 -83.5t-84.5 -28.5l-55 -332q-26 -162 -117.5 -239.5t-220.5 -77.5q-111 0 -177 58t-66 178q0 40 7 81l65 393h138l-64 -385q-5 -32 -5 -59q0 -134 124 -134q83 0 125 55.5t55 137.5l64 385h90q32 0 49.5 12t24.5 55l6 38h98z" />
    <glyph glyph-name="uni1EE8" unicode="&#x1ee8;" horiz-adv-x="684" 
d="M875 805l-9 -54q-10 -58 -47.5 -83.5t-84.5 -28.5l-55 -332q-26 -162 -117.5 -239.5t-220.5 -77.5q-111 0 -177 58t-66 178q0 40 7 81l65 393h138l-64 -385q-5 -32 -5 -59q0 -134 124 -134q83 0 125 55.5t55 137.5l64 385h90q32 0 49.5 12t24.5 55l6 38h98zM417 776
l132 195h138l-160 -196z" />
    <glyph glyph-name="uni1EF0" unicode="&#x1ef0;" horiz-adv-x="684" 
d="M875 805l-9 -54q-10 -58 -47.5 -83.5t-84.5 -28.5l-55 -332q-26 -162 -117.5 -239.5t-220.5 -77.5q-111 0 -177 58t-66 178q0 40 7 81l65 393h138l-64 -385q-5 -32 -5 -59q0 -134 124 -134q83 0 125 55.5t55 137.5l64 385h90q32 0 49.5 12t24.5 55l6 38h98zM259 -226.5
q-17 17.5 -17 42.5q0 34 26 60t61 26q28 0 45 -17t17 -43q0 -34 -26.5 -60t-61.5 -26q-27 0 -44 17.5z" />
    <glyph glyph-name="uni1EEA" unicode="&#x1eea;" horiz-adv-x="684" 
d="M875 805l-9 -54q-10 -58 -47.5 -83.5t-84.5 -28.5l-55 -332q-26 -162 -117.5 -239.5t-220.5 -77.5q-111 0 -177 58t-66 178q0 40 7 81l65 393h138l-64 -385q-5 -32 -5 -59q0 -134 124 -134q83 0 125 55.5t55 137.5l64 385h90q32 0 49.5 12t24.5 55l6 38h98zM317 971h137
l69 -195l-110 -1z" />
    <glyph glyph-name="uni1EEC" unicode="&#x1eec;" horiz-adv-x="684" 
d="M875 805l-9 -54q-10 -58 -47.5 -83.5t-84.5 -28.5l-55 -332q-26 -162 -117.5 -239.5t-220.5 -77.5q-111 0 -177 58t-66 178q0 40 7 81l65 393h138l-64 -385q-5 -32 -5 -59q0 -134 124 -134q83 0 125 55.5t55 137.5l64 385h90q32 0 49.5 12t24.5 55l6 38h98zM428.5 791.5
q9.5 7.5 19.5 14t13 8.5q30 17 45.5 32t15.5 37q0 11 -7.5 17.5t-21.5 6.5q-15 0 -25.5 -9t-13.5 -22h-98q9 43 46 74t102 31q54 0 82.5 -23t28.5 -59q0 -38 -17.5 -59t-47.5 -40q-3 -2 -14.5 -9.5t-14.5 -15.5h-106q4 9 13.5 16.5z" />
    <glyph glyph-name="uni1EEE" unicode="&#x1eee;" horiz-adv-x="684" 
d="M875 805l-9 -54q-10 -58 -47.5 -83.5t-84.5 -28.5l-55 -332q-26 -162 -117.5 -239.5t-220.5 -77.5q-111 0 -177 58t-66 178q0 40 7 81l65 393h138l-64 -385q-5 -32 -5 -59q0 -134 124 -134q83 0 125 55.5t55 137.5l64 385h90q32 0 49.5 12t24.5 55l6 38h98zM343 881.5
q31 36.5 87 36.5q19 0 36 -5.5t38 -15.5q12 -6 24.5 -10.5t22.5 -4.5q17 0 26.5 11t11.5 26h73q-7 -53 -37 -89t-87 -36q-20 0 -36.5 5.5t-39.5 15.5q-12 6 -24.5 10.5t-22.5 4.5q-16 0 -25.5 -11t-12.5 -26h-73q8 52 39 88.5z" />
    <glyph glyph-name="Umacron" unicode="&#x16a;" horiz-adv-x="684" 
d="M164 48q-66 58 -66 178q0 40 7 81l65 393h138l-64 -385q-5 -32 -5 -59q0 -134 124 -134q83 0 125 55.5t55 137.5l64 385h137l-65 -393q-26 -162 -117.5 -239.5t-220.5 -77.5q-111 0 -177 58zM322 853h320l-10 -64h-320z" />
    <glyph glyph-name="Uogonek" unicode="&#x172;" horiz-adv-x="684" 
d="M744 700l-65 -393q-23 -142 -97.5 -219.5t-182.5 -93.5q-28 -16 -43.5 -30.5t-15.5 -36.5q0 -15 11 -24t35 -9q13 0 23.5 2.5t13.5 3.5l-12 -73q-4 -1 -17 -3t-38 -2q-54 0 -82.5 22.5t-28.5 59.5q0 50 44 89q-89 13 -140 70.5t-51 162.5q0 40 7 81l65 393h138l-64 -385
q-5 -32 -5 -59q0 -134 124 -134q83 0 125 55.5t55 137.5l64 385h137z" />
    <glyph glyph-name="Uring" unicode="&#x16e;" horiz-adv-x="684" 
d="M164 48q-66 58 -66 178q0 40 7 81l65 393h138l-64 -385q-5 -32 -5 -59q0 -134 124 -134q83 0 125 55.5t55 137.5l64 385h137l-65 -393q-26 -162 -117.5 -239.5t-220.5 -77.5q-111 0 -177 58zM409 797q-24 24 -24 59q0 29 16.5 55.5t43.5 43t57 16.5q36 0 60 -24t24 -59
q0 -29 -16.5 -56t-43.5 -43t-56 -16q-37 0 -61 24zM513 845q15 15 15 34q0 14 -10 24t-26 10q-19 0 -33.5 -14.5t-14.5 -33.5q0 -15 10 -25t25 -10q19 0 34 15z" />
    <glyph glyph-name="Utilde" unicode="&#x168;" horiz-adv-x="684" 
d="M164 48q-66 58 -66 178q0 40 7 81l65 393h138l-64 -385q-5 -32 -5 -59q0 -134 124 -134q83 0 125 55.5t55 137.5l64 385h137l-65 -393q-26 -162 -117.5 -239.5t-220.5 -77.5q-111 0 -177 58zM343 881.5q31 36.5 87 36.5q19 0 36 -5.5t38 -15.5q12 -6 24.5 -10.5
t22.5 -4.5q17 0 26.5 11t11.5 26h73q-7 -53 -37 -89t-87 -36q-20 0 -36.5 5.5t-39.5 15.5q-12 6 -24.5 10.5t-22.5 4.5q-16 0 -25.5 -11t-12.5 -26h-73q8 52 39 88.5z" />
    <glyph glyph-name="V" unicode="V" horiz-adv-x="657" 
d="M126 700h138l85 -553h6l268 553h139l-344 -701h-179z" />
    <glyph glyph-name="W" unicode="W" horiz-adv-x="996" 
d="M126 700h139l35 -519h6l246 519h121l73 -519h6l209 519h139l-295 -701h-167l-62 453h-6l-212 -453h-167z" />
    <glyph glyph-name="Wacute" unicode="&#x1e82;" horiz-adv-x="996" 
d="M126 700h139l35 -519h6l246 519h121l73 -519h6l209 519h139l-295 -701h-167l-62 453h-6l-212 -453h-167zM572 776l132 195h138l-160 -196z" />
    <glyph glyph-name="Wcircumflex" unicode="&#x174;" horiz-adv-x="996" 
d="M126 700h139l35 -519h6l246 519h121l73 -519h6l209 519h139l-295 -701h-167l-62 453h-6l-212 -453h-167zM598 922h103l118 -158h-127l-55 73h-4l-77 -73h-126z" />
    <glyph glyph-name="Wdieresis" unicode="&#x1e84;" horiz-adv-x="996" 
d="M126 700h139l35 -519h6l246 519h121l73 -519h6l209 519h139l-295 -701h-167l-62 453h-6l-212 -453h-167zM713.5 809q-17.5 18 -17.5 45q0 37 27.5 64t63.5 27q30 0 47.5 -17.5t17.5 -45.5q0 -36 -27.5 -63.5t-64.5 -27.5q-29 0 -46.5 18zM459.5 809q-17.5 18 -17.5 45
q0 37 27.5 64t63.5 27q30 0 47.5 -17.5t17.5 -45.5q0 -36 -27.5 -63.5t-64.5 -27.5q-29 0 -46.5 18z" />
    <glyph glyph-name="Wgrave" unicode="&#x1e80;" horiz-adv-x="996" 
d="M126 700h139l35 -519h6l246 519h121l73 -519h6l209 519h139l-295 -701h-167l-62 453h-6l-212 -453h-167zM472 971h137l69 -195l-110 -1z" />
    <glyph glyph-name="X" unicode="X" horiz-adv-x="675" 
d="M312 350l-169 350h151l116 -253h6l198 253h152l-286 -350l172 -350h-153l-115 253h-6l-199 -253h-152z" />
    <glyph glyph-name="Y" unicode="Y" horiz-adv-x="644" 
d="M254 0l41 243l-155 457h145l98 -316h6l202 316h146l-305 -457l-40 -243h-138z" />
    <glyph glyph-name="Yacute" unicode="&#xdd;" horiz-adv-x="644" 
d="M254 0l41 243l-155 457h145l98 -316h6l202 316h146l-305 -457l-40 -243h-138zM397 776l132 195h138l-160 -196z" />
    <glyph glyph-name="Ycircumflex" unicode="&#x176;" horiz-adv-x="644" 
d="M254 0l41 243l-155 457h145l98 -316h6l202 316h146l-305 -457l-40 -243h-138zM423 922h103l118 -158h-127l-55 73h-4l-77 -73h-126z" />
    <glyph glyph-name="Ydieresis" unicode="&#x178;" horiz-adv-x="644" 
d="M254 0l41 243l-155 457h145l98 -316h6l202 316h146l-305 -457l-40 -243h-138zM538.5 809q-17.5 18 -17.5 45q0 37 27.5 64t63.5 27q30 0 47.5 -17.5t17.5 -45.5q0 -36 -27.5 -63.5t-64.5 -27.5q-29 0 -46.5 18zM284.5 809q-17.5 18 -17.5 45q0 37 27.5 64t63.5 27
q30 0 47.5 -17.5t17.5 -45.5q0 -36 -27.5 -63.5t-64.5 -27.5q-29 0 -46.5 18z" />
    <glyph glyph-name="uni1EF4" unicode="&#x1ef4;" horiz-adv-x="644" 
d="M254 0l41 243l-155 457h145l98 -316h6l202 316h146l-305 -457l-40 -243h-138zM238 -226.5q-17 17.5 -17 42.5q0 34 26 60t61 26q28 0 45 -17t17 -43q0 -34 -26.5 -60t-61.5 -26q-27 0 -44 17.5z" />
    <glyph glyph-name="Ygrave" unicode="&#x1ef2;" horiz-adv-x="644" 
d="M254 0l41 243l-155 457h145l98 -316h6l202 316h146l-305 -457l-40 -243h-138zM297 971h137l69 -195l-110 -1z" />
    <glyph glyph-name="uni1EF6" unicode="&#x1ef6;" horiz-adv-x="644" 
d="M254 0l41 243l-155 457h145l98 -316h6l202 316h146l-305 -457l-40 -243h-138zM408.5 791.5q9.5 7.5 19.5 14t13 8.5q30 17 45.5 32t15.5 37q0 11 -7.5 17.5t-21.5 6.5q-15 0 -25.5 -9t-13.5 -22h-98q9 43 46 74t102 31q54 0 82.5 -23t28.5 -59q0 -38 -17.5 -59t-47.5 -40
q-3 -2 -14.5 -9.5t-14.5 -15.5h-106q4 9 13.5 16.5z" />
    <glyph glyph-name="uni1EF8" unicode="&#x1ef8;" horiz-adv-x="644" 
d="M254 0l41 243l-155 457h145l98 -316h6l202 316h146l-305 -457l-40 -243h-138zM322 881.5q31 36.5 87 36.5q19 0 36 -5.5t38 -15.5q12 -6 24.5 -10.5t22.5 -4.5q17 0 26.5 11t11.5 26h73q-7 -53 -37 -89t-87 -36q-20 0 -36.5 5.5t-39.5 15.5q-12 6 -24.5 10.5t-22.5 4.5
q-16 0 -25.5 -11t-12.5 -26h-73q8 52 39 88.5z" />
    <glyph glyph-name="Z" unicode="Z" horiz-adv-x="625" 
d="M66 126l433 447v2h-358l20 125h523l-20 -125l-434 -447l-1 -2h360l-20 -126h-523z" />
    <glyph glyph-name="Zacute" unicode="&#x179;" horiz-adv-x="625" 
d="M66 126l433 447v2h-358l20 125h523l-20 -125l-434 -447l-1 -2h360l-20 -126h-523zM387 776l132 195h138l-160 -196z" />
    <glyph glyph-name="Zcaron" unicode="&#x17d;" horiz-adv-x="625" 
d="M66 126l433 447v2h-358l20 125h523l-20 -125l-434 -447l-1 -2h360l-20 -126h-523zM396 922l53 -74h4l79 74h127l-169 -158h-103l-117 158h126z" />
    <glyph glyph-name="Zdotaccent" unicode="&#x17b;" horiz-adv-x="625" 
d="M66 126l433 447v2h-358l20 125h523l-20 -125l-434 -447l-1 -2h360l-20 -126h-523zM394.5 809q-17.5 18 -17.5 45q0 37 27.5 64t63.5 27q30 0 47.5 -17.5t17.5 -45.5q0 -36 -27.5 -63.5t-64.5 -27.5q-29 0 -46.5 18z" />
    <glyph glyph-name="B.ss01" horiz-adv-x="616" 
d="M172 700h306q80 0 118.5 -33.5t38.5 -88.5q0 -8 -2 -28l-7 -44q-9 -55 -46.5 -88.5t-74.5 -42.5l-2 -7q24 -3 50.5 -16.5t46 -40t19.5 -64.5q0 -17 -2 -26l-7 -44q-8 -46 -36.5 -86.5t-79 -66t-119.5 -25.5h-318zM392 409q45 0 72.5 22t32.5 54l5 29q1 5 1 15
q0 27 -18 44t-58 17h-136l-30 -181h131zM372 110q53 0 81 24t33 60l6 32q1 5 1 15q0 31 -20 50t-66 19h-162l-34 -200h161z" />
    <glyph glyph-name="C.ss01" horiz-adv-x="681" 
d="M204 23.5q-58 31.5 -88 89t-30 132.5q0 33 6 69l13 78q15 93 63.5 166t123.5 114.5t167 41.5q124 0 189.5 -70t67.5 -185h-138q-1 59 -35 98t-100 39q-82 0 -134 -56t-67 -153l-11 -69q-5 -33 -5 -58q0 -70 34 -110t102 -40q66 0 109.5 36t65.5 91h138
q-39 -109 -125.5 -177t-207.5 -68q-80 0 -138 31.5z" />
    <glyph glyph-name="D.ss01" horiz-adv-x="658" 
d="M172 701l259 -1q127 -1 193.5 -69t66.5 -177q0 -32 -6 -65l-13 -76q-15 -89 -62 -160t-122.5 -112t-171.5 -41h-259zM335 122q83 0 134.5 53.5t66.5 142.5l11 66q4 24 4 50q0 68 -35 106.5t-104 38.5h-124l-77 -457h124z" />
    <glyph glyph-name="Eth.ss01" horiz-adv-x="687" 
d="M652.5 630q66.5 -68 66.5 -178q0 -35 -5 -63l-13 -76q-15 -89 -62 -159.5t-122.5 -111.5t-171.5 -41h-258l51 310h-51l15 93h51l49 297l258 -2q126 -1 192.5 -69zM580 434q0 67 -35 105.5t-105 38.5h-124l-29 -174h104l-15 -93h-104l-31 -188h123q83 0 134.5 53t66.5 142
l11 66q4 24 4 50z" />
    <glyph glyph-name="Dcaron.ss01" horiz-adv-x="658" 
d="M172 701l259 -1q127 -1 193.5 -69t66.5 -177q0 -32 -6 -65l-13 -76q-15 -89 -62 -160t-122.5 -112t-171.5 -41h-259zM335 122q83 0 134.5 53.5t66.5 142.5l11 66q4 24 4 50q0 68 -35 106.5t-104 38.5h-124l-77 -457h124zM384 922l53 -74h4l79 74h127l-169 -158h-103
l-117 158h126z" />
    <glyph glyph-name="Dcroat.ss01" horiz-adv-x="687" 
d="M652.5 630q66.5 -68 66.5 -178q0 -35 -5 -63l-13 -76q-15 -89 -62 -159.5t-122.5 -111.5t-171.5 -41h-258l51 310h-51l15 93h51l49 297l258 -2q126 -1 192.5 -69zM580 434q0 67 -35 105.5t-105 38.5h-124l-29 -174h104l-15 -93h-104l-31 -188h123q83 0 134.5 53t66.5 142
l11 66q4 24 4 50z" />
    <glyph glyph-name="G.ss01" horiz-adv-x="700" 
d="M153 60.5q-64 68.5 -64 183.5q0 34 6 70l13 78q15 93 64 166t124.5 114.5t167.5 41.5q121 0 186.5 -68.5t68.5 -179.5h-138q-2 57 -36.5 93.5t-97.5 36.5q-82 0 -134 -56t-68 -153l-11 -69q-6 -34 -6 -65q0 -72 34.5 -111.5t107.5 -39.5q71 0 121 44t62 110l4 22h-154
l16 100h289l-62 -378h-103l17 104h-8q-18 -25 -36.5 -45.5t-65.5 -43.5t-117 -23q-116 0 -180 68.5z" />
    <glyph glyph-name="Gbreve.ss01" horiz-adv-x="700" 
d="M153 60.5q-64 68.5 -64 183.5q0 34 6 70l13 78q15 93 64 166t124.5 114.5t167.5 41.5q121 0 186.5 -68.5t68.5 -179.5h-138q-2 57 -36.5 93.5t-97.5 36.5q-82 0 -134 -56t-68 -153l-11 -69q-6 -34 -6 -65q0 -72 34.5 -111.5t107.5 -39.5q71 0 121 44t62 110l4 22h-154
l16 100h289l-62 -378h-103l17 104h-8q-18 -25 -36.5 -45.5t-65.5 -43.5t-117 -23q-116 0 -180 68.5zM370.5 805.5q-40.5 31.5 -60.5 91.5h112q5 -22 21.5 -34.5t43.5 -12.5q52 0 81 47h112q-82 -123 -204 -123q-65 0 -105.5 31.5z" />
    <glyph glyph-name="Gdotaccent.ss01" horiz-adv-x="700" 
d="M153 60.5q-64 68.5 -64 183.5q0 34 6 70l13 78q15 93 64 166t124.5 114.5t167.5 41.5q121 0 186.5 -68.5t68.5 -179.5h-138q-2 57 -36.5 93.5t-97.5 36.5q-82 0 -134 -56t-68 -153l-11 -69q-6 -34 -6 -65q0 -72 34.5 -111.5t107.5 -39.5q71 0 121 44t62 110l4 22h-154
l16 100h289l-62 -378h-103l17 104h-8q-18 -25 -36.5 -45.5t-65.5 -43.5t-117 -23q-116 0 -180 68.5zM430.5 809q-17.5 18 -17.5 45q0 37 27.5 64t63.5 27q30 0 47.5 -17.5t17.5 -45.5q0 -36 -27.5 -63.5t-64.5 -27.5q-29 0 -46.5 18z" />
    <glyph glyph-name="J.ss01" horiz-adv-x="546" 
d="M208 190q0 -46 20.5 -63t47.5 -17q33 0 62 21t39 80l81 488l138 2l-81 -490q-12 -72 -50 -121t-92.5 -73.5t-115.5 -24.5q-82 0 -135 45.5t-53 136.5q0 23 5 56h138q-4 -20 -4 -40z" />
    <glyph glyph-name="O.ss01" horiz-adv-x="695" 
d="M152.5 62q-66.5 70 -66.5 184q0 34 6 68l13 78q15 90 62.5 163t123.5 116t172 43q126 0 192 -70t66 -184q0 -33 -6 -68l-13 -78q-15 -91 -62 -164t-123 -115.5t-173 -42.5q-125 0 -191.5 70zM497.5 166q51.5 56 67.5 152l12 69q5 26 5 60q0 70 -34.5 109.5t-103.5 39.5
q-83 0 -135 -56t-67 -153l-11 -69q-5 -35 -5 -59q0 -70 34 -109.5t103 -39.5q83 0 134.5 56z" />
    <glyph glyph-name="Oacute.ss01" horiz-adv-x="695" 
d="M152.5 62q-66.5 70 -66.5 184q0 34 6 68l13 78q15 90 62.5 163t123.5 116t172 43q126 0 192 -70t66 -184q0 -33 -6 -68l-13 -78q-15 -91 -62 -164t-123 -115.5t-173 -42.5q-125 0 -191.5 70zM497.5 166q51.5 56 67.5 152l12 69q5 26 5 60q0 70 -34.5 109.5t-103.5 39.5
q-83 0 -135 -56t-67 -153l-11 -69q-5 -35 -5 -59q0 -70 34 -109.5t103 -39.5q83 0 134.5 56zM420 776l132 195h138l-160 -196z" />
    <glyph glyph-name="Ocircumflex.ss01" horiz-adv-x="695" 
d="M152.5 62q-66.5 70 -66.5 184q0 34 6 68l13 78q15 90 62.5 163t123.5 116t172 43q126 0 192 -70t66 -184q0 -33 -6 -68l-13 -78q-15 -91 -62 -164t-123 -115.5t-173 -42.5q-125 0 -191.5 70zM497.5 166q51.5 56 67.5 152l12 69q5 26 5 60q0 70 -34.5 109.5t-103.5 39.5
q-83 0 -135 -56t-67 -153l-11 -69q-5 -35 -5 -59q0 -70 34 -109.5t103 -39.5q83 0 134.5 56zM446 922h103l118 -158h-127l-55 73h-4l-77 -73h-126z" />
    <glyph glyph-name="uni1ED0.ss01" horiz-adv-x="695" 
d="M152.5 62q-66.5 70 -66.5 184q0 34 6 68l13 78q15 90 62.5 163t123.5 116t172 43q126 0 192 -70t66 -184q0 -33 -6 -68l-13 -78q-15 -91 -62 -164t-123 -115.5t-173 -42.5q-125 0 -191.5 70zM497.5 166q51.5 56 67.5 152l12 69q5 26 5 60q0 70 -34.5 109.5t-103.5 39.5
q-83 0 -135 -56t-67 -153l-11 -69q-5 -35 -5 -59q0 -70 34 -109.5t103 -39.5q83 0 134.5 56zM445 922h103l118 -158h-127l-55 73h-4l-77 -73h-126zM611 893l132 195h138l-160 -196z" />
    <glyph glyph-name="uni1ED8.ss01" horiz-adv-x="695" 
d="M152.5 62q-66.5 70 -66.5 184q0 34 6 68l13 78q15 90 62.5 163t123.5 116t172 43q126 0 192 -70t66 -184q0 -33 -6 -68l-13 -78q-15 -91 -62 -164t-123 -115.5t-173 -42.5q-125 0 -191.5 70zM497.5 166q51.5 56 67.5 152l12 69q5 26 5 60q0 70 -34.5 109.5t-103.5 39.5
q-83 0 -135 -56t-67 -153l-11 -69q-5 -35 -5 -59q0 -70 34 -109.5t103 -39.5q83 0 134.5 56zM261 -226.5q-17 17.5 -17 42.5q0 34 26 60t61 26q28 0 45 -17t17 -43q0 -34 -26.5 -60t-61.5 -26q-27 0 -44 17.5zM446 922h103l118 -158h-127l-55 73h-4l-77 -73h-126z" />
    <glyph glyph-name="uni1ED2.ss01" horiz-adv-x="695" 
d="M152.5 62q-66.5 70 -66.5 184q0 34 6 68l13 78q15 90 62.5 163t123.5 116t172 43q126 0 192 -70t66 -184q0 -33 -6 -68l-13 -78q-15 -91 -62 -164t-123 -115.5t-173 -42.5q-125 0 -191.5 70zM497.5 166q51.5 56 67.5 152l12 69q5 26 5 60q0 70 -34.5 109.5t-103.5 39.5
q-83 0 -135 -56t-67 -153l-11 -69q-5 -35 -5 -59q0 -70 34 -109.5t103 -39.5q83 0 134.5 56zM446 922h103l118 -158h-127l-55 73h-4l-77 -73h-126zM529 1088h137l69 -195l-110 -1z" />
    <glyph glyph-name="uni1ED4.ss01" horiz-adv-x="695" 
d="M152.5 62q-66.5 70 -66.5 184q0 34 6 68l13 78q15 90 62.5 163t123.5 116t172 43q126 0 192 -70t66 -184q0 -33 -6 -68l-13 -78q-15 -91 -62 -164t-123 -115.5t-173 -42.5q-125 0 -191.5 70zM497.5 166q51.5 56 67.5 152l12 69q5 26 5 60q0 70 -34.5 109.5t-103.5 39.5
q-83 0 -135 -56t-67 -153l-11 -69q-5 -35 -5 -59q0 -70 34 -109.5t103 -39.5q83 0 134.5 56zM445 922h103l118 -158h-127l-55 73h-4l-77 -73h-126zM624.5 919.5q9.5 7.5 19.5 14t13 8.5q30 17 45.5 32t15.5 37q0 11 -7.5 17.5t-21.5 6.5q-15 0 -25.5 -9t-13.5 -22h-98
q9 43 46 74t102 31q54 0 82.5 -23t28.5 -59q0 -38 -17.5 -59t-47.5 -40q-3 -2 -14.5 -9.5t-14.5 -15.5h-106q4 9 13.5 16.5z" />
    <glyph glyph-name="uni1ED6.ss01" horiz-adv-x="695" 
d="M152.5 62q-66.5 70 -66.5 184q0 34 6 68l13 78q15 90 62.5 163t123.5 116t172 43q126 0 192 -70t66 -184q0 -33 -6 -68l-13 -78q-15 -91 -62 -164t-123 -115.5t-173 -42.5q-125 0 -191.5 70zM497.5 166q51.5 56 67.5 152l12 69q5 26 5 60q0 70 -34.5 109.5t-103.5 39.5
q-83 0 -135 -56t-67 -153l-11 -69q-5 -35 -5 -59q0 -70 34 -109.5t103 -39.5q83 0 134.5 56zM443 922h103l118 -158h-127l-55 73h-4l-77 -73h-126zM365 1057.5q31 36.5 87 36.5q19 0 36 -5.5t38 -15.5q12 -6 24.5 -10.5t22.5 -4.5q17 0 26.5 11t11.5 26h73q-7 -53 -37 -89
t-87 -36q-20 0 -36.5 5.5t-39.5 15.5q-12 6 -24.5 10.5t-22.5 4.5q-16 0 -25.5 -11t-12.5 -26h-73q8 52 39 88.5z" />
    <glyph glyph-name="Odieresis.ss01" horiz-adv-x="695" 
d="M152.5 62q-66.5 70 -66.5 184q0 34 6 68l13 78q15 90 62.5 163t123.5 116t172 43q126 0 192 -70t66 -184q0 -33 -6 -68l-13 -78q-15 -91 -62 -164t-123 -115.5t-173 -42.5q-125 0 -191.5 70zM497.5 166q51.5 56 67.5 152l12 69q5 26 5 60q0 70 -34.5 109.5t-103.5 39.5
q-83 0 -135 -56t-67 -153l-11 -69q-5 -35 -5 -59q0 -70 34 -109.5t103 -39.5q83 0 134.5 56zM561.5 809q-17.5 18 -17.5 45q0 37 27.5 64t63.5 27q30 0 47.5 -17.5t17.5 -45.5q0 -36 -27.5 -63.5t-64.5 -27.5q-29 0 -46.5 18zM307.5 809q-17.5 18 -17.5 45q0 37 27.5 64
t63.5 27q30 0 47.5 -17.5t17.5 -45.5q0 -36 -27.5 -63.5t-64.5 -27.5q-29 0 -46.5 18z" />
    <glyph glyph-name="uni1ECC.ss01" horiz-adv-x="695" 
d="M152.5 62q-66.5 70 -66.5 184q0 34 6 68l13 78q15 90 62.5 163t123.5 116t172 43q126 0 192 -70t66 -184q0 -33 -6 -68l-13 -78q-15 -91 -62 -164t-123 -115.5t-173 -42.5q-125 0 -191.5 70zM497.5 166q51.5 56 67.5 152l12 69q5 26 5 60q0 70 -34.5 109.5t-103.5 39.5
q-83 0 -135 -56t-67 -153l-11 -69q-5 -35 -5 -59q0 -70 34 -109.5t103 -39.5q83 0 134.5 56zM261 -226.5q-17 17.5 -17 42.5q0 34 26 60t61 26q28 0 45 -17t17 -43q0 -34 -26.5 -60t-61.5 -26q-27 0 -44 17.5z" />
    <glyph glyph-name="Ograve.ss01" horiz-adv-x="695" 
d="M152.5 62q-66.5 70 -66.5 184q0 34 6 68l13 78q15 90 62.5 163t123.5 116t172 43q126 0 192 -70t66 -184q0 -33 -6 -68l-13 -78q-15 -91 -62 -164t-123 -115.5t-173 -42.5q-125 0 -191.5 70zM497.5 166q51.5 56 67.5 152l12 69q5 26 5 60q0 70 -34.5 109.5t-103.5 39.5
q-83 0 -135 -56t-67 -153l-11 -69q-5 -35 -5 -59q0 -70 34 -109.5t103 -39.5q83 0 134.5 56zM320 971h137l69 -195l-110 -1z" />
    <glyph glyph-name="uni1ECE.ss01" horiz-adv-x="695" 
d="M152.5 62q-66.5 70 -66.5 184q0 34 6 68l13 78q15 90 62.5 163t123.5 116t172 43q126 0 192 -70t66 -184q0 -33 -6 -68l-13 -78q-15 -91 -62 -164t-123 -115.5t-173 -42.5q-125 0 -191.5 70zM497.5 166q51.5 56 67.5 152l12 69q5 26 5 60q0 70 -34.5 109.5t-103.5 39.5
q-83 0 -135 -56t-67 -153l-11 -69q-5 -35 -5 -59q0 -70 34 -109.5t103 -39.5q83 0 134.5 56zM431.5 791.5q9.5 7.5 19.5 14t13 8.5q30 17 45.5 32t15.5 37q0 11 -7.5 17.5t-21.5 6.5q-15 0 -25.5 -9t-13.5 -22h-98q9 43 46 74t102 31q54 0 82.5 -23t28.5 -59
q0 -38 -17.5 -59t-47.5 -40q-3 -2 -14.5 -9.5t-14.5 -15.5h-106q4 9 13.5 16.5z" />
    <glyph glyph-name="Ohorn.ss01" horiz-adv-x="695" 
d="M780 805l-9 -54q-9 -52 -40.5 -77.5t-73.5 -32.5q32 -33 48 -79.5t16 -101.5q0 -33 -6 -68l-13 -78q-15 -91 -62 -164t-123 -115.5t-173 -42.5q-125 0 -191.5 70t-66.5 184q0 34 6 68l13 78q15 90 62.5 163t123.5 116t172 43q54 0 98 -14h41q32 0 49.5 12t24.5 55l6 38
h98zM582 447q0 70 -34.5 109.5t-103.5 39.5q-83 0 -135 -56t-67 -153l-11 -69q-5 -35 -5 -59q0 -70 34 -109.5t103 -39.5q83 0 134.5 56t67.5 152l12 69q5 26 5 60z" />
    <glyph glyph-name="uni1EDA.ss01" horiz-adv-x="695" 
d="M780 805l-9 -54q-9 -52 -40.5 -77.5t-73.5 -32.5q32 -33 48 -79.5t16 -101.5q0 -33 -6 -68l-13 -78q-15 -91 -62 -164t-123 -115.5t-173 -42.5q-125 0 -191.5 70t-66.5 184q0 34 6 68l13 78q15 90 62.5 163t123.5 116t172 43q54 0 98 -14h41q32 0 49.5 12t24.5 55l6 38
h98zM582 447q0 70 -34.5 109.5t-103.5 39.5q-83 0 -135 -56t-67 -153l-11 -69q-5 -35 -5 -59q0 -70 34 -109.5t103 -39.5q83 0 134.5 56t67.5 152l12 69q5 26 5 60zM420 776l132 195h138l-160 -196z" />
    <glyph glyph-name="uni1EE2.ss01" horiz-adv-x="695" 
d="M780 805l-9 -54q-9 -52 -40.5 -77.5t-73.5 -32.5q32 -33 48 -79.5t16 -101.5q0 -33 -6 -68l-13 -78q-15 -91 -62 -164t-123 -115.5t-173 -42.5q-125 0 -191.5 70t-66.5 184q0 34 6 68l13 78q15 90 62.5 163t123.5 116t172 43q54 0 98 -14h41q32 0 49.5 12t24.5 55l6 38
h98zM582 447q0 70 -34.5 109.5t-103.5 39.5q-83 0 -135 -56t-67 -153l-11 -69q-5 -35 -5 -59q0 -70 34 -109.5t103 -39.5q83 0 134.5 56t67.5 152l12 69q5 26 5 60zM261 -226.5q-17 17.5 -17 42.5q0 34 26 60t61 26q28 0 45 -17t17 -43q0 -34 -26.5 -60t-61.5 -26
q-27 0 -44 17.5z" />
    <glyph glyph-name="uni1EDC.ss01" horiz-adv-x="695" 
d="M780 805l-9 -54q-9 -52 -40.5 -77.5t-73.5 -32.5q32 -33 48 -79.5t16 -101.5q0 -33 -6 -68l-13 -78q-15 -91 -62 -164t-123 -115.5t-173 -42.5q-125 0 -191.5 70t-66.5 184q0 34 6 68l13 78q15 90 62.5 163t123.5 116t172 43q54 0 98 -14h41q32 0 49.5 12t24.5 55l6 38
h98zM582 447q0 70 -34.5 109.5t-103.5 39.5q-83 0 -135 -56t-67 -153l-11 -69q-5 -35 -5 -59q0 -70 34 -109.5t103 -39.5q83 0 134.5 56t67.5 152l12 69q5 26 5 60zM320 971h137l69 -195l-110 -1z" />
    <glyph glyph-name="uni1EDE.ss01" horiz-adv-x="695" 
d="M780 805l-9 -54q-9 -52 -40.5 -77.5t-73.5 -32.5q32 -33 48 -79.5t16 -101.5q0 -33 -6 -68l-13 -78q-15 -91 -62 -164t-123 -115.5t-173 -42.5q-125 0 -191.5 70t-66.5 184q0 34 6 68l13 78q15 90 62.5 163t123.5 116t172 43q54 0 98 -14h41q32 0 49.5 12t24.5 55l6 38
h98zM582 447q0 70 -34.5 109.5t-103.5 39.5q-83 0 -135 -56t-67 -153l-11 -69q-5 -35 -5 -59q0 -70 34 -109.5t103 -39.5q83 0 134.5 56t67.5 152l12 69q5 26 5 60zM431.5 791.5q9.5 7.5 19.5 14t13 8.5q30 17 45.5 32t15.5 37q0 11 -7.5 17.5t-21.5 6.5q-15 0 -25.5 -9
t-13.5 -22h-98q9 43 46 74t102 31q54 0 82.5 -23t28.5 -59q0 -38 -17.5 -59t-47.5 -40q-3 -2 -14.5 -9.5t-14.5 -15.5h-106q4 9 13.5 16.5z" />
    <glyph glyph-name="uni1EE0.ss01" horiz-adv-x="695" 
d="M780 805l-9 -54q-9 -52 -40.5 -77.5t-73.5 -32.5q32 -33 48 -79.5t16 -101.5q0 -33 -6 -68l-13 -78q-15 -91 -62 -164t-123 -115.5t-173 -42.5q-125 0 -191.5 70t-66.5 184q0 34 6 68l13 78q15 90 62.5 163t123.5 116t172 43q54 0 98 -14h41q32 0 49.5 12t24.5 55l6 38
h98zM582 447q0 70 -34.5 109.5t-103.5 39.5q-83 0 -135 -56t-67 -153l-11 -69q-5 -35 -5 -59q0 -70 34 -109.5t103 -39.5q83 0 134.5 56t67.5 152l12 69q5 26 5 60zM346 881.5q31 36.5 87 36.5q19 0 36 -5.5t38 -15.5q12 -6 24.5 -10.5t22.5 -4.5q17 0 26.5 11t11.5 26h73
q-7 -53 -37 -89t-87 -36q-20 0 -36.5 5.5t-39.5 15.5q-12 6 -24.5 10.5t-22.5 4.5q-16 0 -25.5 -11t-12.5 -26h-73q8 52 39 88.5z" />
    <glyph glyph-name="Omacron.ss01" horiz-adv-x="695" 
d="M152.5 62q-66.5 70 -66.5 184q0 34 6 68l13 78q15 90 62.5 163t123.5 116t172 43q126 0 192 -70t66 -184q0 -33 -6 -68l-13 -78q-15 -91 -62 -164t-123 -115.5t-173 -42.5q-125 0 -191.5 70zM497.5 166q51.5 56 67.5 152l12 69q5 26 5 60q0 70 -34.5 109.5t-103.5 39.5
q-83 0 -135 -56t-67 -153l-11 -69q-5 -35 -5 -59q0 -70 34 -109.5t103 -39.5q83 0 134.5 56zM325 853h320l-10 -64h-320z" />
    <glyph glyph-name="Oslash.ss01" horiz-adv-x="728" 
d="M694 602q35 -61 35 -142q0 -33 -6 -68l-13 -78q-15 -91 -62 -164t-123 -115.5t-173 -42.5q-74 0 -129 26l-49 -61h-127l99 122q-52 65 -52 168q0 33 6 67l13 78q15 90 62.5 163t123.5 116t172 43q92 0 154 -40l55 69h127zM234 261q0 -32 8 -62l299 371q-34 26 -89 26
q-82 0 -134 -56t-68 -153l-11 -69q-5 -33 -5 -57zM590 447q0 17 -1 25l-282 -350q27 -12 64 -12q83 0 134.5 56t67.5 152l12 69q5 35 5 60z" />
    <glyph glyph-name="Otilde.ss01" horiz-adv-x="695" 
d="M152.5 62q-66.5 70 -66.5 184q0 34 6 68l13 78q15 90 62.5 163t123.5 116t172 43q126 0 192 -70t66 -184q0 -33 -6 -68l-13 -78q-15 -91 -62 -164t-123 -115.5t-173 -42.5q-125 0 -191.5 70zM497.5 166q51.5 56 67.5 152l12 69q5 26 5 60q0 70 -34.5 109.5t-103.5 39.5
q-83 0 -135 -56t-67 -153l-11 -69q-5 -35 -5 -59q0 -70 34 -109.5t103 -39.5q83 0 134.5 56zM346 881.5q31 36.5 87 36.5q19 0 36 -5.5t38 -15.5q12 -6 24.5 -10.5t22.5 -4.5q17 0 26.5 11t11.5 26h73q-7 -53 -37 -89t-87 -36q-20 0 -36.5 5.5t-39.5 15.5q-12 6 -24.5 10.5
t-22.5 4.5q-16 0 -25.5 -11t-12.5 -26h-73q8 52 39 88.5z" />
    <glyph glyph-name="OE.ss01" horiz-adv-x="953" 
d="M198.5 32.5q-58.5 32.5 -87.5 88.5t-29 127q0 32 6 65l12 76q15 87 61.5 157.5t122 111.5t173.5 41h565l-20 -120h-324l-28 -169h275l-17 -109h-275l-30 -180h323l-19 -121h-565q-85 0 -143.5 32.5zM464 124l75 454h-102q-83 0 -134 -53t-66 -141l-11 -66q-4 -24 -4 -50
q0 -67 35 -105.5t105 -38.5h102z" />
    <glyph glyph-name="P.ss01" horiz-adv-x="586" 
d="M596 650q57 -50 57 -129q0 -18 -3 -38l-10 -57q-9 -61 -46 -110t-99.5 -78t-145.5 -29h-122l-34 -209h-136l115 700h257q110 0 167 -50zM512 497q0 35 -25 58t-77 23h-122l-1 -8l-40 -240h121q58 0 93 29.5t42 68.5l8 53q1 5 1 16z" />
    <glyph glyph-name="Q.ss01" horiz-adv-x="691" 
d="M655 644q66 -70 66 -184q0 -33 -6 -68l-13 -78q-12 -74 -45.5 -136.5t-85.5 -106.5l68 -115h-122l-36 61q-64 -25 -137 -25q-125 0 -191.5 70t-66.5 184q0 34 6 68l13 78q15 90 62.5 163t123.5 116t172 43q126 0 192 -70zM582 447q0 70 -34.5 109.5t-103.5 39.5
q-83 0 -135 -56t-67 -153l-11 -69q-5 -35 -5 -59q0 -70 34 -109.5t103 -39.5q29 0 58 8l-93 158h122l58 -98q42 53 57 140l12 69q5 26 5 60z" />
    <glyph glyph-name="R.ss01" horiz-adv-x="606" 
d="M602.5 655q52.5 -45 52.5 -120q0 -19 -3 -37l-8 -49q-11 -68 -55 -118.5t-119 -72.5l111 -258h-145l-105 245h-98l-40 -245h-136l40 245l75 455h270q108 0 160.5 -45zM515 512q0 30 -21 49t-71 19h-135l-35 -215h134q56 0 85 25t35 60l7 46q1 5 1 16z" />
    <glyph glyph-name="G.ss02" horiz-adv-x="698" 
d="M217.5 28.5q-61.5 36.5 -92 100.5t-30.5 145q0 119 51 220t139.5 160.5t194.5 59.5q80 0 136 -31.5t85 -85t31 -119.5h-139q-6 53 -38 83.5t-93 30.5q-63 0 -115 -41.5t-82 -114t-30 -159.5q0 -83 40 -128.5t113 -45.5q76 0 126 44t62 115l6 34h-160l16 100h281l-22 -140
q-13 -79 -60 -139t-117.5 -92.5t-152.5 -32.5q-88 0 -149.5 36.5z" />
    <glyph glyph-name="a" unicode="a" horiz-adv-x="609" 
d="M115.5 45.5q-43.5 53.5 -43.5 145.5q0 98 34.5 178t94.5 126t133 46q67 0 100.5 -31t43.5 -64h7l14 82h140l-87 -528h-139l15 91h-8q-24 -37 -67.5 -68t-111.5 -31q-82 0 -125.5 53.5zM385.5 131.5q34.5 27.5 54.5 75.5t20 105q0 51 -23.5 83.5t-72.5 32.5
q-41 0 -75.5 -27.5t-54 -75.5t-19.5 -106q0 -51 23 -83t72 -32q41 0 75.5 27.5z" />
    <glyph glyph-name="aacute" unicode="&#xe1;" horiz-adv-x="609" 
d="M115.5 45.5q-43.5 53.5 -43.5 145.5q0 98 34.5 178t94.5 126t133 46q67 0 100.5 -31t43.5 -64h7l14 82h140l-87 -528h-139l15 91h-8q-24 -37 -67.5 -68t-111.5 -31q-82 0 -125.5 53.5zM385.5 131.5q34.5 27.5 54.5 75.5t20 105q0 51 -23.5 83.5t-72.5 32.5
q-41 0 -75.5 -27.5t-54 -75.5t-19.5 -106q0 -51 23 -83t72 -32q41 0 75.5 27.5zM352 604l132 195h138l-160 -196z" />
    <glyph glyph-name="abreve" unicode="&#x103;" horiz-adv-x="609" 
d="M115.5 45.5q-43.5 53.5 -43.5 145.5q0 98 34.5 178t94.5 126t133 46q67 0 100.5 -31t43.5 -64h7l14 82h140l-87 -528h-139l15 91h-8q-24 -37 -67.5 -68t-111.5 -31q-82 0 -125.5 53.5zM385.5 131.5q34.5 27.5 54.5 75.5t20 105q0 51 -23.5 83.5t-72.5 32.5
q-41 0 -75.5 -27.5t-54 -75.5t-19.5 -106q0 -51 23 -83t72 -32q41 0 75.5 27.5zM299.5 633.5q-40.5 31.5 -60.5 91.5h112q5 -22 21.5 -34.5t43.5 -12.5q52 0 81 47h112q-82 -123 -204 -123q-65 0 -105.5 31.5z" />
    <glyph glyph-name="uni1EAF" unicode="&#x1eaf;" horiz-adv-x="609" 
d="M115.5 45.5q-43.5 53.5 -43.5 145.5q0 98 34.5 178t94.5 126t133 46q67 0 100.5 -31t43.5 -64h7l14 82h140l-87 -528h-139l15 91h-8q-24 -37 -67.5 -68t-111.5 -31q-82 0 -125.5 53.5zM385.5 131.5q34.5 27.5 54.5 75.5t20 105q0 51 -23.5 83.5t-72.5 32.5
q-41 0 -75.5 -27.5t-54 -75.5t-19.5 -106q0 -51 23 -83t72 -32q41 0 75.5 27.5zM298.5 633.5q-40.5 31.5 -60.5 91.5h112q5 -22 21.5 -34.5t43.5 -12.5q52 0 81 47h112q-82 -123 -204 -123q-65 0 -105.5 31.5zM378 770l132 195h138l-160 -196z" />
    <glyph glyph-name="uni1EB7" unicode="&#x1eb7;" horiz-adv-x="609" 
d="M115.5 45.5q-43.5 53.5 -43.5 145.5q0 98 34.5 178t94.5 126t133 46q67 0 100.5 -31t43.5 -64h7l14 82h140l-87 -528h-139l15 91h-8q-24 -37 -67.5 -68t-111.5 -31q-82 0 -125.5 53.5zM385.5 131.5q34.5 27.5 54.5 75.5t20 105q0 51 -23.5 83.5t-72.5 32.5
q-41 0 -75.5 -27.5t-54 -75.5t-19.5 -106q0 -51 23 -83t72 -32q41 0 75.5 27.5zM299.5 633.5q-40.5 31.5 -60.5 91.5h112q5 -22 21.5 -34.5t43.5 -12.5q52 0 81 47h112q-82 -123 -204 -123q-65 0 -105.5 31.5zM219 -226.5q-17 17.5 -17 42.5q0 34 26 60t61 26q28 0 45 -17
t17 -43q0 -34 -26.5 -60t-61.5 -26q-27 0 -44 17.5z" />
    <glyph glyph-name="uni1EB1" unicode="&#x1eb1;" horiz-adv-x="609" 
d="M115.5 45.5q-43.5 53.5 -43.5 145.5q0 98 34.5 178t94.5 126t133 46q67 0 100.5 -31t43.5 -64h7l14 82h140l-87 -528h-139l15 91h-8q-24 -37 -67.5 -68t-111.5 -31q-82 0 -125.5 53.5zM385.5 131.5q34.5 27.5 54.5 75.5t20 105q0 51 -23.5 83.5t-72.5 32.5
q-41 0 -75.5 -27.5t-54 -75.5t-19.5 -106q0 -51 23 -83t72 -32q41 0 75.5 27.5zM304.5 633.5q-40.5 31.5 -60.5 91.5h112q5 -22 21.5 -34.5t43.5 -12.5q52 0 81 47h112q-82 -123 -204 -123q-65 0 -105.5 31.5zM284 965h137l69 -195l-110 -1z" />
    <glyph glyph-name="uni1EB3" unicode="&#x1eb3;" horiz-adv-x="609" 
d="M115.5 45.5q-43.5 53.5 -43.5 145.5q0 98 34.5 178t94.5 126t133 46q67 0 100.5 -31t43.5 -64h7l14 82h140l-87 -528h-139l15 91h-8q-24 -37 -67.5 -68t-111.5 -31q-82 0 -125.5 53.5zM385.5 131.5q34.5 27.5 54.5 75.5t20 105q0 51 -23.5 83.5t-72.5 32.5
q-41 0 -75.5 -27.5t-54 -75.5t-19.5 -106q0 -51 23 -83t72 -32q41 0 75.5 27.5zM298.5 633.5q-40.5 31.5 -60.5 91.5h112q5 -22 21.5 -34.5t43.5 -12.5q52 0 81 47h112q-82 -123 -204 -123q-65 0 -105.5 31.5zM389.5 785.5q9.5 7.5 19.5 14t13 8.5q30 17 45.5 32t15.5 37
q0 11 -7.5 17.5t-21.5 6.5q-15 0 -25.5 -9t-13.5 -22h-98q9 43 46 74t102 31q54 0 82.5 -23t28.5 -59q0 -38 -17.5 -59t-47.5 -40q-3 -2 -14.5 -9.5t-14.5 -15.5h-106q4 9 13.5 16.5z" />
    <glyph glyph-name="uni1EB5" unicode="&#x1eb5;" horiz-adv-x="609" 
d="M115.5 45.5q-43.5 53.5 -43.5 145.5q0 98 34.5 178t94.5 126t133 46q67 0 100.5 -31t43.5 -64h7l14 82h140l-87 -528h-139l15 91h-8q-24 -37 -67.5 -68t-111.5 -31q-82 0 -125.5 53.5zM385.5 131.5q34.5 27.5 54.5 75.5t20 105q0 51 -23.5 83.5t-72.5 32.5
q-41 0 -75.5 -27.5t-54 -75.5t-19.5 -106q0 -51 23 -83t72 -32q41 0 75.5 27.5zM300.5 633.5q-40.5 31.5 -60.5 91.5h112q5 -22 21.5 -34.5t43.5 -12.5q52 0 81 47h112q-82 -123 -204 -123q-65 0 -105.5 31.5zM305 875.5q31 36.5 87 36.5q19 0 36 -5.5t38 -15.5
q12 -6 24.5 -10.5t22.5 -4.5q17 0 26.5 11t11.5 26h73q-7 -53 -37 -89t-87 -36q-20 0 -36.5 5.5t-39.5 15.5q-12 6 -24.5 10.5t-22.5 4.5q-16 0 -25.5 -11t-12.5 -26h-73q8 52 39 88.5z" />
    <glyph glyph-name="acircumflex" unicode="&#xe2;" horiz-adv-x="609" 
d="M115.5 45.5q-43.5 53.5 -43.5 145.5q0 98 34.5 178t94.5 126t133 46q67 0 100.5 -31t43.5 -64h7l14 82h140l-87 -528h-139l15 91h-8q-24 -37 -67.5 -68t-111.5 -31q-82 0 -125.5 53.5zM385.5 131.5q34.5 27.5 54.5 75.5t20 105q0 51 -23.5 83.5t-72.5 32.5
q-41 0 -75.5 -27.5t-54 -75.5t-19.5 -106q0 -51 23 -83t72 -32q41 0 75.5 27.5zM378 750h103l118 -158h-127l-55 73h-4l-77 -73h-126z" />
    <glyph glyph-name="uni1EA5" unicode="&#x1ea5;" horiz-adv-x="609" 
d="M115.5 45.5q-43.5 53.5 -43.5 145.5q0 98 34.5 178t94.5 126t133 46q67 0 100.5 -31t43.5 -64h7l14 82h140l-87 -528h-139l15 91h-8q-24 -37 -67.5 -68t-111.5 -31q-82 0 -125.5 53.5zM385.5 131.5q34.5 27.5 54.5 75.5t20 105q0 51 -23.5 83.5t-72.5 32.5
q-41 0 -75.5 -27.5t-54 -75.5t-19.5 -106q0 -51 23 -83t72 -32q41 0 75.5 27.5zM377 750h103l118 -158h-127l-55 73h-4l-77 -73h-126zM543 721l132 195h138l-160 -196z" />
    <glyph glyph-name="uni1EAD" unicode="&#x1ead;" horiz-adv-x="609" 
d="M115.5 45.5q-43.5 53.5 -43.5 145.5q0 98 34.5 178t94.5 126t133 46q67 0 100.5 -31t43.5 -64h7l14 82h140l-87 -528h-139l15 91h-8q-24 -37 -67.5 -68t-111.5 -31q-82 0 -125.5 53.5zM385.5 131.5q34.5 27.5 54.5 75.5t20 105q0 51 -23.5 83.5t-72.5 32.5
q-41 0 -75.5 -27.5t-54 -75.5t-19.5 -106q0 -51 23 -83t72 -32q41 0 75.5 27.5zM378 750h103l118 -158h-127l-55 73h-4l-77 -73h-126zM219 -226.5q-17 17.5 -17 42.5q0 34 26 60t61 26q28 0 45 -17t17 -43q0 -34 -26.5 -60t-61.5 -26q-27 0 -44 17.5z" />
    <glyph glyph-name="uni1EA7" unicode="&#x1ea7;" horiz-adv-x="609" 
d="M115.5 45.5q-43.5 53.5 -43.5 145.5q0 98 34.5 178t94.5 126t133 46q67 0 100.5 -31t43.5 -64h7l14 82h140l-87 -528h-139l15 91h-8q-24 -37 -67.5 -68t-111.5 -31q-82 0 -125.5 53.5zM385.5 131.5q34.5 27.5 54.5 75.5t20 105q0 51 -23.5 83.5t-72.5 32.5
q-41 0 -75.5 -27.5t-54 -75.5t-19.5 -106q0 -51 23 -83t72 -32q41 0 75.5 27.5zM378 750h103l118 -158h-127l-55 73h-4l-77 -73h-126zM461 916h137l69 -195l-110 -1z" />
    <glyph glyph-name="uni1EA9" unicode="&#x1ea9;" horiz-adv-x="609" 
d="M115.5 45.5q-43.5 53.5 -43.5 145.5q0 98 34.5 178t94.5 126t133 46q67 0 100.5 -31t43.5 -64h7l14 82h140l-87 -528h-139l15 91h-8q-24 -37 -67.5 -68t-111.5 -31q-82 0 -125.5 53.5zM385.5 131.5q34.5 27.5 54.5 75.5t20 105q0 51 -23.5 83.5t-72.5 32.5
q-41 0 -75.5 -27.5t-54 -75.5t-19.5 -106q0 -51 23 -83t72 -32q41 0 75.5 27.5zM377 750h103l118 -158h-127l-55 73h-4l-77 -73h-126zM556.5 747.5q9.5 7.5 19.5 14t13 8.5q30 17 45.5 32t15.5 37q0 11 -7.5 17.5t-21.5 6.5q-15 0 -25.5 -9t-13.5 -22h-98q9 43 46 74t102 31
q54 0 82.5 -23t28.5 -59q0 -38 -17.5 -59t-47.5 -40q-3 -2 -14.5 -9.5t-14.5 -15.5h-106q4 9 13.5 16.5z" />
    <glyph glyph-name="uni1EAB" unicode="&#x1eab;" horiz-adv-x="609" 
d="M115.5 45.5q-43.5 53.5 -43.5 145.5q0 98 34.5 178t94.5 126t133 46q67 0 100.5 -31t43.5 -64h7l14 82h140l-87 -528h-139l15 91h-8q-24 -37 -67.5 -68t-111.5 -31q-82 0 -125.5 53.5zM385.5 131.5q34.5 27.5 54.5 75.5t20 105q0 51 -23.5 83.5t-72.5 32.5
q-41 0 -75.5 -27.5t-54 -75.5t-19.5 -106q0 -51 23 -83t72 -32q41 0 75.5 27.5zM375 750h103l118 -158h-127l-55 73h-4l-77 -73h-126zM297 885.5q31 36.5 87 36.5q19 0 36 -5.5t38 -15.5q12 -6 24.5 -10.5t22.5 -4.5q17 0 26.5 11t11.5 26h73q-7 -53 -37 -89t-87 -36
q-20 0 -36.5 5.5t-39.5 15.5q-12 6 -24.5 10.5t-22.5 4.5q-16 0 -25.5 -11t-12.5 -26h-73q8 52 39 88.5z" />
    <glyph glyph-name="adieresis" unicode="&#xe4;" horiz-adv-x="609" 
d="M115.5 45.5q-43.5 53.5 -43.5 145.5q0 98 34.5 178t94.5 126t133 46q67 0 100.5 -31t43.5 -64h7l14 82h140l-87 -528h-139l15 91h-8q-24 -37 -67.5 -68t-111.5 -31q-82 0 -125.5 53.5zM385.5 131.5q34.5 27.5 54.5 75.5t20 105q0 51 -23.5 83.5t-72.5 32.5
q-41 0 -75.5 -27.5t-54 -75.5t-19.5 -106q0 -51 23 -83t72 -32q41 0 75.5 27.5zM493.5 637q-17.5 18 -17.5 45q0 37 27.5 64t63.5 27q30 0 47.5 -17.5t17.5 -45.5q0 -36 -27.5 -63.5t-64.5 -27.5q-29 0 -46.5 18zM239.5 637q-17.5 18 -17.5 45q0 37 27.5 64t63.5 27
q30 0 47.5 -17.5t17.5 -45.5q0 -36 -27.5 -63.5t-64.5 -27.5q-29 0 -46.5 18z" />
    <glyph glyph-name="uni1EA1" unicode="&#x1ea1;" horiz-adv-x="609" 
d="M115.5 45.5q-43.5 53.5 -43.5 145.5q0 98 34.5 178t94.5 126t133 46q67 0 100.5 -31t43.5 -64h7l14 82h140l-87 -528h-139l15 91h-8q-24 -37 -67.5 -68t-111.5 -31q-82 0 -125.5 53.5zM385.5 131.5q34.5 27.5 54.5 75.5t20 105q0 51 -23.5 83.5t-72.5 32.5
q-41 0 -75.5 -27.5t-54 -75.5t-19.5 -106q0 -51 23 -83t72 -32q41 0 75.5 27.5zM219 -226.5q-17 17.5 -17 42.5q0 34 26 60t61 26q28 0 45 -17t17 -43q0 -34 -26.5 -60t-61.5 -26q-27 0 -44 17.5z" />
    <glyph glyph-name="agrave" unicode="&#xe0;" horiz-adv-x="609" 
d="M115.5 45.5q-43.5 53.5 -43.5 145.5q0 98 34.5 178t94.5 126t133 46q67 0 100.5 -31t43.5 -64h7l14 82h140l-87 -528h-139l15 91h-8q-24 -37 -67.5 -68t-111.5 -31q-82 0 -125.5 53.5zM385.5 131.5q34.5 27.5 54.5 75.5t20 105q0 51 -23.5 83.5t-72.5 32.5
q-41 0 -75.5 -27.5t-54 -75.5t-19.5 -106q0 -51 23 -83t72 -32q41 0 75.5 27.5zM252 799h137l69 -195l-110 -1z" />
    <glyph glyph-name="uni1EA3" unicode="&#x1ea3;" horiz-adv-x="609" 
d="M115.5 45.5q-43.5 53.5 -43.5 145.5q0 98 34.5 178t94.5 126t133 46q67 0 100.5 -31t43.5 -64h7l14 82h140l-87 -528h-139l15 91h-8q-24 -37 -67.5 -68t-111.5 -31q-82 0 -125.5 53.5zM385.5 131.5q34.5 27.5 54.5 75.5t20 105q0 51 -23.5 83.5t-72.5 32.5
q-41 0 -75.5 -27.5t-54 -75.5t-19.5 -106q0 -51 23 -83t72 -32q41 0 75.5 27.5zM363.5 619.5q9.5 7.5 19.5 14t13 8.5q30 17 45.5 32t15.5 37q0 11 -7.5 17.5t-21.5 6.5q-15 0 -25.5 -9t-13.5 -22h-98q9 43 46 74t102 31q54 0 82.5 -23t28.5 -59q0 -38 -17.5 -59t-47.5 -40
q-3 -2 -14.5 -9.5t-14.5 -15.5h-106q4 9 13.5 16.5z" />
    <glyph glyph-name="amacron" unicode="&#x101;" horiz-adv-x="609" 
d="M115.5 45.5q-43.5 53.5 -43.5 145.5q0 98 34.5 178t94.5 126t133 46q67 0 100.5 -31t43.5 -64h7l14 82h140l-87 -528h-139l15 91h-8q-24 -37 -67.5 -68t-111.5 -31q-82 0 -125.5 53.5zM385.5 131.5q34.5 27.5 54.5 75.5t20 105q0 51 -23.5 83.5t-72.5 32.5
q-41 0 -75.5 -27.5t-54 -75.5t-19.5 -106q0 -51 23 -83t72 -32q41 0 75.5 27.5zM257 681h320l-10 -64h-320z" />
    <glyph glyph-name="aogonek" unicode="&#x105;" horiz-adv-x="609" 
d="M500 -93q11 -9 35 -9q13 0 23.5 2.5t13.5 3.5l-12 -73q-4 -1 -17 -3t-38 -2q-54 0 -82.5 22.5t-28.5 59.5q0 26 12.5 50t34.5 42h-28l15 91h-8q-24 -37 -67.5 -68t-111.5 -31q-82 0 -125.5 53.5t-43.5 145.5q0 98 34.5 178t94.5 126t133 46q67 0 100.5 -31t43.5 -64h7
l14 82h140l-87 -528h-1q-29 -16 -45.5 -31t-16.5 -38q0 -15 11 -24zM385.5 131.5q34.5 27.5 54.5 75.5t20 105q0 51 -23.5 83.5t-72.5 32.5q-41 0 -75.5 -27.5t-54 -75.5t-19.5 -106q0 -51 23 -83t72 -32q41 0 75.5 27.5z" />
    <glyph glyph-name="aring" unicode="&#xe5;" horiz-adv-x="609" 
d="M115.5 45.5q-43.5 53.5 -43.5 145.5q0 98 34.5 178t94.5 126t133 46q67 0 100.5 -31t43.5 -64h7l14 82h140l-87 -528h-139l15 91h-8q-24 -37 -67.5 -68t-111.5 -31q-82 0 -125.5 53.5zM385.5 131.5q34.5 27.5 54.5 75.5t20 105q0 51 -23.5 83.5t-72.5 32.5
q-41 0 -75.5 -27.5t-54 -75.5t-19.5 -106q0 -51 23 -83t72 -32q41 0 75.5 27.5zM344 625q-24 24 -24 59q0 29 16.5 55.5t43.5 43t57 16.5q36 0 60 -24t24 -59q0 -29 -16.5 -56t-43.5 -43t-56 -16q-37 0 -61 24zM448 673q15 15 15 34q0 14 -10 24t-26 10q-19 0 -33.5 -14.5
t-14.5 -33.5q0 -15 10 -25t25 -10q19 0 34 15z" />
    <glyph glyph-name="atilde" unicode="&#xe3;" horiz-adv-x="609" 
d="M115.5 45.5q-43.5 53.5 -43.5 145.5q0 98 34.5 178t94.5 126t133 46q67 0 100.5 -31t43.5 -64h7l14 82h140l-87 -528h-139l15 91h-8q-24 -37 -67.5 -68t-111.5 -31q-82 0 -125.5 53.5zM385.5 131.5q34.5 27.5 54.5 75.5t20 105q0 51 -23.5 83.5t-72.5 32.5
q-41 0 -75.5 -27.5t-54 -75.5t-19.5 -106q0 -51 23 -83t72 -32q41 0 75.5 27.5zM278 709.5q31 36.5 87 36.5q19 0 36 -5.5t38 -15.5q12 -6 24.5 -10.5t22.5 -4.5q17 0 26.5 11t11.5 26h73q-7 -53 -37 -89t-87 -36q-20 0 -36.5 5.5t-39.5 15.5q-12 6 -24.5 10.5t-22.5 4.5
q-16 0 -25.5 -11t-12.5 -26h-73q8 52 39 88.5z" />
    <glyph glyph-name="ae" unicode="&#xe6;" horiz-adv-x="911" 
d="M108 27.5q-42 35.5 -42 95.5q0 93 70.5 139t188.5 48h100l4 29q1 6 1 19q0 74 -77 74q-40 0 -69 -20t-39 -54h-129q11 39 38.5 80t79.5 71t127 30q61 0 101 -22.5t57 -63.5h7q35 41 84.5 64.5t109.5 23.5q102 0 150 -60.5t48 -153.5q0 -29 -5 -62l-6 -38h-360l-1 -9
q-1 -6 -1 -18q0 -44 26 -71t70 -27q39 0 68.5 18t47.5 49h136q-33 -77 -102.5 -127t-164.5 -50q-68 0 -113.5 28t-66.5 76h-7q-35 -49 -90.5 -76.5t-121.5 -27.5q-77 0 -119 35.5zM788 310q2 11 2 30q0 48 -24.5 70.5t-67.5 22.5q-52 0 -88.5 -33t-46.5 -90h225zM362.5 121
q36.5 31 42.5 73l6 32h-93q-46 0 -81 -18t-35 -62q0 -26 19.5 -41t53.5 -15q51 0 87.5 31z" />
    <glyph glyph-name="b" unicode="b" horiz-adv-x="615" 
d="M264 23q-33 31 -45 68h-7l-16 -91h-139l123 751h140l-51 -305h8q22 34 65 64.5t111 30.5q84 0 128 -53.5t44 -146.5q0 -97 -34.5 -177t-94.5 -126t-132 -46q-67 0 -100 31zM407 130q34 28 54 76t20 106q0 51 -23.5 83t-72.5 32q-41 0 -75 -27.5t-54 -75t-20 -105.5
q0 -51 23.5 -84t71.5 -33q42 0 76 28z" />
    <glyph glyph-name="c" unicode="c" horiz-adv-x="566" 
d="M126.5 52.5q-52.5 61.5 -52.5 154.5l1 22q4 85 43 156.5t106.5 113.5t151.5 42q105 0 157 -60.5t50 -152.5h-135q1 45 -21.5 72.5t-67.5 27.5q-42 0 -76.5 -28t-54 -76.5t-19.5 -109.5q0 -49 23.5 -79.5t72.5 -30.5q45 0 77 28t45 72h135q-28 -92 -99 -152.5t-177 -60.5
q-107 0 -159.5 61.5z" />
    <glyph glyph-name="cacute" unicode="&#x107;" horiz-adv-x="566" 
d="M126.5 52.5q-52.5 61.5 -52.5 154.5l1 22q4 85 43 156.5t106.5 113.5t151.5 42q105 0 157 -60.5t50 -152.5h-135q1 45 -21.5 72.5t-67.5 27.5q-42 0 -76.5 -28t-54 -76.5t-19.5 -109.5q0 -49 23.5 -79.5t72.5 -30.5q45 0 77 28t45 72h135q-28 -92 -99 -152.5t-177 -60.5
q-107 0 -159.5 61.5zM333 604l132 195h138l-160 -196z" />
    <glyph glyph-name="ccaron" unicode="&#x10d;" horiz-adv-x="566" 
d="M126.5 52.5q-52.5 61.5 -52.5 154.5l1 22q4 85 43 156.5t106.5 113.5t151.5 42q105 0 157 -60.5t50 -152.5h-135q1 45 -21.5 72.5t-67.5 27.5q-42 0 -76.5 -28t-54 -76.5t-19.5 -109.5q0 -49 23.5 -79.5t72.5 -30.5q45 0 77 28t45 72h135q-28 -92 -99 -152.5t-177 -60.5
q-107 0 -159.5 61.5zM342 750l53 -74h4l79 74h127l-169 -158h-103l-117 158h126z" />
    <glyph glyph-name="ccedilla" unicode="&#xe7;" horiz-adv-x="566" 
d="M448 328q1 45 -21.5 72.5t-67.5 27.5q-42 0 -76.5 -28t-54 -76.5t-19.5 -109.5q0 -49 23.5 -79.5t72.5 -30.5q45 0 77 28t45 72h135q-25 -84 -87.5 -142.5t-154.5 -68.5l-16 -33h15q43 0 65 -21.5t22 -55.5q0 -35 -18.5 -64.5t-51 -46.5t-72.5 -17q-21 0 -39 4.5t-28 9.5
l11 68q33 -9 67 -9q29 0 47 13t18 33q0 14 -12 20.5t-27 6.5h-90l1 4l38 88q-89 11 -132.5 70.5t-43.5 144.5l1 21q4 85 43 156.5t106.5 113.5t151.5 42q105 0 157 -60.5t50 -152.5h-135z" />
    <glyph glyph-name="cdotaccent" unicode="&#x10b;" horiz-adv-x="566" 
d="M126.5 52.5q-52.5 61.5 -52.5 154.5l1 22q4 85 43 156.5t106.5 113.5t151.5 42q105 0 157 -60.5t50 -152.5h-135q1 45 -21.5 72.5t-67.5 27.5q-42 0 -76.5 -28t-54 -76.5t-19.5 -109.5q0 -49 23.5 -79.5t72.5 -30.5q45 0 77 28t45 72h135q-28 -92 -99 -152.5t-177 -60.5
q-107 0 -159.5 61.5zM340.5 637q-17.5 18 -17.5 45q0 37 27.5 64t63.5 27q30 0 47.5 -17.5t17.5 -45.5q0 -36 -27.5 -63.5t-64.5 -27.5q-29 0 -46.5 18z" />
    <glyph glyph-name="d" unicode="d" horiz-adv-x="610" 
d="M116 45.5q-44 53.5 -44 145.5q0 98 34.5 178t94.5 126t133 46q68 0 101 -30.5t43 -64.5h8l51 305h139l-123 -751h-140l16 91h-8q-25 -37 -68 -68t-110 -31q-83 0 -127 53.5zM386.5 130q34.5 28 54.5 76t20 105q0 51 -23.5 83.5t-72.5 32.5q-42 0 -76.5 -27.5t-54 -75.5
t-19.5 -106q0 -51 23.5 -83.5t72.5 -32.5q41 0 75.5 28z" />
    <glyph glyph-name="eth" unicode="&#xf0;" horiz-adv-x="607" 
d="M580 698q42 -61 42 -155q0 -35 -6 -76l-31 -188q-12 -73 -50 -138.5t-103 -107t-153 -41.5q-110 0 -163 63.5t-53 160.5q0 88 35 162.5t95 118t131 43.5q66 0 99 -30t43 -63h17l4 27q1 11 1 32q0 76 -32 127l-91 -48l-27 66l64 34q-45 27 -100 27l16 104
q49 0 106.5 -14.5t104.5 -49.5l98 52l29 -66zM373.5 132q34.5 28 54.5 75.5t20 105.5q0 52 -23 84.5t-72 32.5q-41 0 -75.5 -28.5t-54.5 -76.5t-20 -106q0 -51 23 -83t72 -32q41 0 75.5 28z" />
    <glyph glyph-name="dcaron" unicode="&#x10f;" horiz-adv-x="784" 
d="M116 45.5q-44 53.5 -44 145.5q0 98 34.5 178t94.5 126t133 46q68 0 101 -30.5t43 -64.5h8l51 305h139l-123 -751h-140l16 91h-8q-25 -37 -68 -68t-110 -31q-83 0 -127 53.5zM386.5 130q34.5 28 54.5 76t20 105q0 51 -23.5 83.5t-72.5 32.5q-42 0 -76.5 -27.5t-54 -75.5
t-19.5 -106q0 -51 23.5 -83.5t72.5 -32.5q41 0 75.5 28zM722 543q41 15 63 40t22 57q0 19 -10 24t-30 6q-29 1 -40.5 15t-11.5 34q0 41 28 67.5t71 26.5q41 0 59 -20.5t18 -52.5q0 -14 -3 -26l-7 -44q-26 -139 -167 -172z" />
    <glyph glyph-name="dcroat" unicode="&#x111;" horiz-adv-x="644" 
d="M716 589h-67l-96 -589h-140l16 91h-8q-25 -37 -68 -68t-110 -31q-83 0 -127 53.5t-44 145.5q0 98 34.5 178t94.5 126t133 46q68 0 101 -30.5t43 -64.5h8l24 143h-108l14 90h109l12 72h139l-12 -72h66zM386.5 130q34.5 28 54.5 76t20 105q0 51 -23.5 83.5t-72.5 32.5
q-42 0 -76.5 -27.5t-54 -75.5t-19.5 -106q0 -51 23.5 -83.5t72.5 -32.5q41 0 75.5 28z" />
    <glyph glyph-name="e" unicode="e" 
d="M130 60.5q-54 62.5 -54 161.5q0 90 38.5 164.5t109 117.5t162.5 43q102 0 150.5 -43.5t48.5 -104.5q0 -42 -22.5 -79.5t-72 -61.5t-125.5 -24h-157l-1 -8q-1 -6 -1 -18q0 -42 27 -71t73 -29q37 0 67 18.5t47 48.5h135q-32 -78 -99 -127.5t-164 -49.5q-108 0 -162 62.5z
M361 324q50 0 72.5 19t22.5 45q0 24 -20.5 41t-62.5 17q-58 0 -98.5 -32.5t-50.5 -89.5h137z" />
    <glyph glyph-name="eacute" unicode="&#xe9;" 
d="M130 60.5q-54 62.5 -54 161.5q0 90 38.5 164.5t109 117.5t162.5 43q102 0 150.5 -43.5t48.5 -104.5q0 -42 -22.5 -79.5t-72 -61.5t-125.5 -24h-157l-1 -8q-1 -6 -1 -18q0 -42 27 -71t73 -29q37 0 67 18.5t47 48.5h135q-32 -78 -99 -127.5t-164 -49.5q-108 0 -162 62.5z
M361 324q50 0 72.5 19t22.5 45q0 24 -20.5 41t-62.5 17q-58 0 -98.5 -32.5t-50.5 -89.5h137zM350 604l132 195h138l-160 -196z" />
    <glyph glyph-name="ecaron" unicode="&#x11b;" 
d="M130 60.5q-54 62.5 -54 161.5q0 90 38.5 164.5t109 117.5t162.5 43q102 0 150.5 -43.5t48.5 -104.5q0 -42 -22.5 -79.5t-72 -61.5t-125.5 -24h-157l-1 -8q-1 -6 -1 -18q0 -42 27 -71t73 -29q37 0 67 18.5t47 48.5h135q-32 -78 -99 -127.5t-164 -49.5q-108 0 -162 62.5z
M361 324q50 0 72.5 19t22.5 45q0 24 -20.5 41t-62.5 17q-58 0 -98.5 -32.5t-50.5 -89.5h137zM359 750l53 -74h4l79 74h127l-169 -158h-103l-117 158h126z" />
    <glyph glyph-name="ecircumflex" unicode="&#xea;" 
d="M130 60.5q-54 62.5 -54 161.5q0 90 38.5 164.5t109 117.5t162.5 43q102 0 150.5 -43.5t48.5 -104.5q0 -42 -22.5 -79.5t-72 -61.5t-125.5 -24h-157l-1 -8q-1 -6 -1 -18q0 -42 27 -71t73 -29q37 0 67 18.5t47 48.5h135q-32 -78 -99 -127.5t-164 -49.5q-108 0 -162 62.5z
M361 324q50 0 72.5 19t22.5 45q0 24 -20.5 41t-62.5 17q-58 0 -98.5 -32.5t-50.5 -89.5h137zM376 750h103l118 -158h-127l-55 73h-4l-77 -73h-126z" />
    <glyph glyph-name="uni1EBF" unicode="&#x1ebf;" 
d="M130 60.5q-54 62.5 -54 161.5q0 90 38.5 164.5t109 117.5t162.5 43q102 0 150.5 -43.5t48.5 -104.5q0 -42 -22.5 -79.5t-72 -61.5t-125.5 -24h-157l-1 -8q-1 -6 -1 -18q0 -42 27 -71t73 -29q37 0 67 18.5t47 48.5h135q-32 -78 -99 -127.5t-164 -49.5q-108 0 -162 62.5z
M361 324q50 0 72.5 19t22.5 45q0 24 -20.5 41t-62.5 17q-58 0 -98.5 -32.5t-50.5 -89.5h137zM375 750h103l118 -158h-127l-55 73h-4l-77 -73h-126zM541 721l132 195h138l-160 -196z" />
    <glyph glyph-name="uni1EC7" unicode="&#x1ec7;" 
d="M130 60.5q-54 62.5 -54 161.5q0 90 38.5 164.5t109 117.5t162.5 43q102 0 150.5 -43.5t48.5 -104.5q0 -42 -22.5 -79.5t-72 -61.5t-125.5 -24h-157l-1 -8q-1 -6 -1 -18q0 -42 27 -71t73 -29q37 0 67 18.5t47 48.5h135q-32 -78 -99 -127.5t-164 -49.5q-108 0 -162 62.5z
M361 324q50 0 72.5 19t22.5 45q0 24 -20.5 41t-62.5 17q-58 0 -98.5 -32.5t-50.5 -89.5h137zM243 -226.5q-17 17.5 -17 42.5q0 34 26 60t61 26q28 0 45 -17t17 -43q0 -34 -26.5 -60t-61.5 -26q-27 0 -44 17.5zM376 750h103l118 -158h-127l-55 73h-4l-77 -73h-126z" />
    <glyph glyph-name="uni1EC1" unicode="&#x1ec1;" 
d="M130 60.5q-54 62.5 -54 161.5q0 90 38.5 164.5t109 117.5t162.5 43q102 0 150.5 -43.5t48.5 -104.5q0 -42 -22.5 -79.5t-72 -61.5t-125.5 -24h-157l-1 -8q-1 -6 -1 -18q0 -42 27 -71t73 -29q37 0 67 18.5t47 48.5h135q-32 -78 -99 -127.5t-164 -49.5q-108 0 -162 62.5z
M361 324q50 0 72.5 19t22.5 45q0 24 -20.5 41t-62.5 17q-58 0 -98.5 -32.5t-50.5 -89.5h137zM376 750h103l118 -158h-127l-55 73h-4l-77 -73h-126zM459 916h137l69 -195l-110 -1z" />
    <glyph glyph-name="uni1EC3" unicode="&#x1ec3;" 
d="M130 60.5q-54 62.5 -54 161.5q0 90 38.5 164.5t109 117.5t162.5 43q102 0 150.5 -43.5t48.5 -104.5q0 -42 -22.5 -79.5t-72 -61.5t-125.5 -24h-157l-1 -8q-1 -6 -1 -18q0 -42 27 -71t73 -29q37 0 67 18.5t47 48.5h135q-32 -78 -99 -127.5t-164 -49.5q-108 0 -162 62.5z
M361 324q50 0 72.5 19t22.5 45q0 24 -20.5 41t-62.5 17q-58 0 -98.5 -32.5t-50.5 -89.5h137zM375 750h103l118 -158h-127l-55 73h-4l-77 -73h-126zM554.5 747.5q9.5 7.5 19.5 14t13 8.5q30 17 45.5 32t15.5 37q0 11 -7.5 17.5t-21.5 6.5q-15 0 -25.5 -9t-13.5 -22h-98
q9 43 46 74t102 31q54 0 82.5 -23t28.5 -59q0 -38 -17.5 -59t-47.5 -40q-3 -2 -14.5 -9.5t-14.5 -15.5h-106q4 9 13.5 16.5z" />
    <glyph glyph-name="uni1EC5" unicode="&#x1ec5;" 
d="M130 60.5q-54 62.5 -54 161.5q0 90 38.5 164.5t109 117.5t162.5 43q102 0 150.5 -43.5t48.5 -104.5q0 -42 -22.5 -79.5t-72 -61.5t-125.5 -24h-157l-1 -8q-1 -6 -1 -18q0 -42 27 -71t73 -29q37 0 67 18.5t47 48.5h135q-32 -78 -99 -127.5t-164 -49.5q-108 0 -162 62.5z
M361 324q50 0 72.5 19t22.5 45q0 24 -20.5 41t-62.5 17q-58 0 -98.5 -32.5t-50.5 -89.5h137zM373 750h103l118 -158h-127l-55 73h-4l-77 -73h-126zM295 885.5q31 36.5 87 36.5q19 0 36 -5.5t38 -15.5q12 -6 24.5 -10.5t22.5 -4.5q17 0 26.5 11t11.5 26h73q-7 -53 -37 -89
t-87 -36q-20 0 -36.5 5.5t-39.5 15.5q-12 6 -24.5 10.5t-22.5 4.5q-16 0 -25.5 -11t-12.5 -26h-73q8 52 39 88.5z" />
    <glyph glyph-name="edieresis" unicode="&#xeb;" 
d="M130 60.5q-54 62.5 -54 161.5q0 90 38.5 164.5t109 117.5t162.5 43q102 0 150.5 -43.5t48.5 -104.5q0 -42 -22.5 -79.5t-72 -61.5t-125.5 -24h-157l-1 -8q-1 -6 -1 -18q0 -42 27 -71t73 -29q37 0 67 18.5t47 48.5h135q-32 -78 -99 -127.5t-164 -49.5q-108 0 -162 62.5z
M361 324q50 0 72.5 19t22.5 45q0 24 -20.5 41t-62.5 17q-58 0 -98.5 -32.5t-50.5 -89.5h137zM491.5 637q-17.5 18 -17.5 45q0 37 27.5 64t63.5 27q30 0 47.5 -17.5t17.5 -45.5q0 -36 -27.5 -63.5t-64.5 -27.5q-29 0 -46.5 18zM237.5 637q-17.5 18 -17.5 45q0 37 27.5 64
t63.5 27q30 0 47.5 -17.5t17.5 -45.5q0 -36 -27.5 -63.5t-64.5 -27.5q-29 0 -46.5 18z" />
    <glyph glyph-name="edotaccent" unicode="&#x117;" 
d="M130 60.5q-54 62.5 -54 161.5q0 90 38.5 164.5t109 117.5t162.5 43q102 0 150.5 -43.5t48.5 -104.5q0 -42 -22.5 -79.5t-72 -61.5t-125.5 -24h-157l-1 -8q-1 -6 -1 -18q0 -42 27 -71t73 -29q37 0 67 18.5t47 48.5h135q-32 -78 -99 -127.5t-164 -49.5q-108 0 -162 62.5z
M361 324q50 0 72.5 19t22.5 45q0 24 -20.5 41t-62.5 17q-58 0 -98.5 -32.5t-50.5 -89.5h137zM357.5 637q-17.5 18 -17.5 45q0 37 27.5 64t63.5 27q30 0 47.5 -17.5t17.5 -45.5q0 -36 -27.5 -63.5t-64.5 -27.5q-29 0 -46.5 18z" />
    <glyph glyph-name="uni1EB9" unicode="&#x1eb9;" 
d="M130 60.5q-54 62.5 -54 161.5q0 90 38.5 164.5t109 117.5t162.5 43q102 0 150.5 -43.5t48.5 -104.5q0 -42 -22.5 -79.5t-72 -61.5t-125.5 -24h-157l-1 -8q-1 -6 -1 -18q0 -42 27 -71t73 -29q37 0 67 18.5t47 48.5h135q-32 -78 -99 -127.5t-164 -49.5q-108 0 -162 62.5z
M361 324q50 0 72.5 19t22.5 45q0 24 -20.5 41t-62.5 17q-58 0 -98.5 -32.5t-50.5 -89.5h137zM243 -226.5q-17 17.5 -17 42.5q0 34 26 60t61 26q28 0 45 -17t17 -43q0 -34 -26.5 -60t-61.5 -26q-27 0 -44 17.5z" />
    <glyph glyph-name="egrave" unicode="&#xe8;" 
d="M130 60.5q-54 62.5 -54 161.5q0 90 38.5 164.5t109 117.5t162.5 43q102 0 150.5 -43.5t48.5 -104.5q0 -42 -22.5 -79.5t-72 -61.5t-125.5 -24h-157l-1 -8q-1 -6 -1 -18q0 -42 27 -71t73 -29q37 0 67 18.5t47 48.5h135q-32 -78 -99 -127.5t-164 -49.5q-108 0 -162 62.5z
M361 324q50 0 72.5 19t22.5 45q0 24 -20.5 41t-62.5 17q-58 0 -98.5 -32.5t-50.5 -89.5h137zM250 799h137l69 -195l-110 -1z" />
    <glyph glyph-name="uni1EBB" unicode="&#x1ebb;" 
d="M130 60.5q-54 62.5 -54 161.5q0 90 38.5 164.5t109 117.5t162.5 43q102 0 150.5 -43.5t48.5 -104.5q0 -42 -22.5 -79.5t-72 -61.5t-125.5 -24h-157l-1 -8q-1 -6 -1 -18q0 -42 27 -71t73 -29q37 0 67 18.5t47 48.5h135q-32 -78 -99 -127.5t-164 -49.5q-108 0 -162 62.5z
M361 324q50 0 72.5 19t22.5 45q0 24 -20.5 41t-62.5 17q-58 0 -98.5 -32.5t-50.5 -89.5h137zM361.5 619.5q9.5 7.5 19.5 14t13 8.5q30 17 45.5 32t15.5 37q0 11 -7.5 17.5t-21.5 6.5q-15 0 -25.5 -9t-13.5 -22h-98q9 43 46 74t102 31q54 0 82.5 -23t28.5 -59
q0 -38 -17.5 -59t-47.5 -40q-3 -2 -14.5 -9.5t-14.5 -15.5h-106q4 9 13.5 16.5z" />
    <glyph glyph-name="emacron" unicode="&#x113;" 
d="M130 60.5q-54 62.5 -54 161.5q0 90 38.5 164.5t109 117.5t162.5 43q102 0 150.5 -43.5t48.5 -104.5q0 -42 -22.5 -79.5t-72 -61.5t-125.5 -24h-157l-1 -8q-1 -6 -1 -18q0 -42 27 -71t73 -29q37 0 67 18.5t47 48.5h135q-32 -78 -99 -127.5t-164 -49.5q-108 0 -162 62.5z
M361 324q50 0 72.5 19t22.5 45q0 24 -20.5 41t-62.5 17q-58 0 -98.5 -32.5t-50.5 -89.5h137zM255 681h320l-10 -64h-320z" />
    <glyph glyph-name="eogonek" unicode="&#x119;" 
d="M373 126.5q30 18.5 47 48.5h135q-26 -64 -77 -110t-122 -61l16 -10q-29 -16 -45.5 -31t-16.5 -38q0 -15 11 -24t35 -9q13 0 23.5 2.5t13.5 3.5l-12 -73q-4 -1 -17 -3t-38 -2q-54 0 -82.5 22.5t-28.5 59.5q0 28 14 53t39 44q-96 7 -144 68.5t-48 154.5q0 90 38.5 164.5
t109 117.5t162.5 43q102 0 150.5 -43.5t48.5 -104.5q0 -42 -22.5 -79.5t-72 -61.5t-125.5 -24h-157l-1 -8q-1 -6 -1 -18q0 -42 27 -71t73 -29q37 0 67 18.5zM274.5 413.5q-40.5 -32.5 -50.5 -89.5h137q50 0 72.5 19t22.5 45q0 24 -20.5 41t-62.5 17q-58 0 -98.5 -32.5z" />
    <glyph glyph-name="uni1EBD" unicode="&#x1ebd;" 
d="M130 60.5q-54 62.5 -54 161.5q0 90 38.5 164.5t109 117.5t162.5 43q102 0 150.5 -43.5t48.5 -104.5q0 -42 -22.5 -79.5t-72 -61.5t-125.5 -24h-157l-1 -8q-1 -6 -1 -18q0 -42 27 -71t73 -29q37 0 67 18.5t47 48.5h135q-32 -78 -99 -127.5t-164 -49.5q-108 0 -162 62.5z
M361 324q50 0 72.5 19t22.5 45q0 24 -20.5 41t-62.5 17q-58 0 -98.5 -32.5t-50.5 -89.5h137zM276 709.5q31 36.5 87 36.5q19 0 36 -5.5t38 -15.5q12 -6 24.5 -10.5t22.5 -4.5q17 0 26.5 11t11.5 26h73q-7 -53 -37 -89t-87 -36q-20 0 -36.5 5.5t-39.5 15.5q-12 6 -24.5 10.5
t-22.5 4.5q-16 0 -25.5 -11t-12.5 -26h-73q8 52 39 88.5z" />
    <glyph glyph-name="f" unicode="f" horiz-adv-x="389" 
d="M368 629.5q-17 -12.5 -23 -30.5t-11 -46l-4 -25h118l-17 -108h-119l-82 -501q-27 -158 -193 -158q-25 0 -52 3t-35 7l15 96q20 -5 50 -5q31 0 48 12.5t23 30.5t11 46l77 469h-66l17 108h67l9 53q9 61 50 109.5t142 48.5q25 0 52 -3t36 -7l-15 -91q-24 4 -50 4
q-31 0 -48 -12.5z" />
    <glyph glyph-name="g" unicode="g" horiz-adv-x="609" 
d="M211.5 -217.5q-18.5 4.5 -35.5 11.5l17 111q10 -3 32.5 -6.5t42.5 -3.5q70 0 105 40t45 98l11 70h-8q-23 -36 -67 -67t-110 -31q-81 0 -126 53t-45 144q0 94 34.5 171.5t94 122.5t130.5 45q46 0 77 -17t47.5 -40.5t20.5 -43.5h7l15 88h140l-82 -495q-16 -91 -81 -173
t-209 -82q-37 0 -55.5 4.5zM388 144.5q34 27.5 53.5 73t19.5 96.5q0 49 -23.5 82t-72.5 33q-41 0 -75 -27t-53 -72t-19 -98q0 -50 23 -82.5t72 -32.5q41 0 75 27.5z" />
    <glyph glyph-name="gbreve" unicode="&#x11f;" horiz-adv-x="609" 
d="M211.5 -217.5q-18.5 4.5 -35.5 11.5l17 111q10 -3 32.5 -6.5t42.5 -3.5q70 0 105 40t45 98l11 70h-8q-23 -36 -67 -67t-110 -31q-81 0 -126 53t-45 144q0 94 34.5 171.5t94 122.5t130.5 45q46 0 77 -17t47.5 -40.5t20.5 -43.5h7l15 88h140l-82 -495q-16 -91 -81 -173
t-209 -82q-37 0 -55.5 4.5zM388 144.5q34 27.5 53.5 73t19.5 96.5q0 49 -23.5 82t-72.5 33q-41 0 -75 -27t-53 -72t-19 -98q0 -50 23 -82.5t72 -32.5q41 0 75 27.5zM293.5 633.5q-40.5 31.5 -60.5 91.5h112q5 -22 21.5 -34.5t43.5 -12.5q52 0 81 47h112q-82 -123 -204 -123
q-65 0 -105.5 31.5z" />
    <glyph glyph-name="gdotaccent" unicode="&#x121;" horiz-adv-x="609" 
d="M211.5 -217.5q-18.5 4.5 -35.5 11.5l17 111q10 -3 32.5 -6.5t42.5 -3.5q70 0 105 40t45 98l11 70h-8q-23 -36 -67 -67t-110 -31q-81 0 -126 53t-45 144q0 94 34.5 171.5t94 122.5t130.5 45q46 0 77 -17t47.5 -40.5t20.5 -43.5h7l15 88h140l-82 -495q-16 -91 -81 -173
t-209 -82q-37 0 -55.5 4.5zM388 144.5q34 27.5 53.5 73t19.5 96.5q0 49 -23.5 82t-72.5 33q-41 0 -75 -27t-53 -72t-19 -98q0 -50 23 -82.5t72 -32.5q41 0 75 27.5zM352.5 637q-17.5 18 -17.5 45q0 37 27.5 64t63.5 27q30 0 47.5 -17.5t17.5 -45.5q0 -36 -27.5 -63.5
t-64.5 -27.5q-29 0 -46.5 18z" />
    <glyph glyph-name="h" unicode="h" horiz-adv-x="601" 
d="M179 743h140l-49 -296h8q25 39 69 66.5t102 27.5q85 0 120.5 -47.5t35.5 -116.5q0 -31 -4 -52l-54 -325h-138l50 302q3 18 3 33q0 43 -22.5 67t-65.5 24q-50 0 -84 -34t-43 -90l-50 -302h-140z" />
    <glyph glyph-name="hbar" unicode="&#x127;" horiz-adv-x="611" 
d="M593 495.5q31 -45.5 31 -108.5q0 -20 -2.5 -37t-2.5 -21l-54 -329h-138l50 306q3 17 3 37q0 83 -81 83q-57 0 -92 -38t-45 -97l-48 -291h-139l96 589h-65l15 90h65l12 72h139l-12 -72h110l-15 -90h-110l-24 -149h8q20 32 63.5 66.5t121.5 34.5q83 0 114 -45.5z" />
    <glyph glyph-name="i" unicode="i" horiz-adv-x="284" 
d="M160 528h138l-87 -528h-138zM195.5 637q-17.5 18 -17.5 45q0 37 27.5 64t63.5 27q30 0 47.5 -17.5t17.5 -45.5q0 -36 -27.5 -63.5t-64.5 -27.5q-29 0 -46.5 18z" />
    <glyph glyph-name="dotlessi" unicode="&#x131;" horiz-adv-x="284" 
d="M160 528h138l-87 -528h-138z" />
    <glyph glyph-name="iacute" unicode="&#xed;" horiz-adv-x="284" 
d="M160 528h138l-87 -528h-138zM189 604l132 195h138l-160 -196z" />
    <glyph glyph-name="icircumflex" unicode="&#xee;" horiz-adv-x="284" 
d="M160 528h138l-87 -528h-138zM215 750h103l118 -158h-127l-55 73h-4l-77 -73h-126z" />
    <glyph glyph-name="idieresis" unicode="&#xef;" horiz-adv-x="284" 
d="M160 528h138l-87 -528h-138zM330.5 637q-17.5 18 -17.5 45q0 37 27.5 64t63.5 27q30 0 47.5 -17.5t17.5 -45.5q0 -36 -27.5 -63.5t-64.5 -27.5q-29 0 -46.5 18zM76.5 637q-17.5 18 -17.5 45q0 37 27.5 64t63.5 27q30 0 47.5 -17.5t17.5 -45.5q0 -36 -27.5 -63.5
t-64.5 -27.5q-29 0 -46.5 18z" />
    <glyph glyph-name="i.loclTRK" horiz-adv-x="284" 
d="M160 528h138l-87 -528h-138zM195.5 637q-17.5 18 -17.5 45q0 37 27.5 64t63.5 27q30 0 47.5 -17.5t17.5 -45.5q0 -36 -27.5 -63.5t-64.5 -27.5q-29 0 -46.5 18z" />
    <glyph glyph-name="uni1ECB" unicode="&#x1ecb;" horiz-adv-x="284" 
d="M160 528h138l-87 -528h-138zM195.5 637q-17.5 18 -17.5 45q0 37 27.5 64t63.5 27q30 0 47.5 -17.5t17.5 -45.5q0 -36 -27.5 -63.5t-64.5 -27.5q-29 0 -46.5 18zM58 -226.5q-17 17.5 -17 42.5q0 34 26 60t61 26q28 0 45 -17t17 -43q0 -34 -26.5 -60t-61.5 -26
q-27 0 -44 17.5z" />
    <glyph glyph-name="igrave" unicode="&#xec;" horiz-adv-x="284" 
d="M160 528h138l-87 -528h-138zM89 799h137l69 -195l-110 -1z" />
    <glyph glyph-name="uni1EC9" unicode="&#x1ec9;" horiz-adv-x="284" 
d="M160 528h138l-87 -528h-138zM200.5 619.5q9.5 7.5 19.5 14t13 8.5q30 17 45.5 32t15.5 37q0 11 -7.5 17.5t-21.5 6.5q-15 0 -25.5 -9t-13.5 -22h-98q9 43 46 74t102 31q54 0 82.5 -23t28.5 -59q0 -38 -17.5 -59t-47.5 -40q-3 -2 -14.5 -9.5t-14.5 -15.5h-106
q4 9 13.5 16.5z" />
    <glyph glyph-name="imacron" unicode="&#x12b;" horiz-adv-x="284" 
d="M160 528h138l-87 -528h-138zM93 681h320l-10 -64h-320z" />
    <glyph glyph-name="iogonek" unicode="&#x12f;" horiz-adv-x="284" 
d="M316.5 755.5q17.5 -17.5 17.5 -45.5q0 -36 -27.5 -63.5t-64.5 -27.5q-29 0 -46.5 18t-17.5 45q0 37 27.5 64t63.5 27q30 0 47.5 -17.5zM164.5 -31q-16.5 -15 -16.5 -38q0 -15 11 -24t35 -9q13 0 23.5 2.5t13.5 3.5l-12 -73q-4 -1 -17 -3t-38 -2q-54 0 -82.5 22.5
t-28.5 59.5q0 26 12.5 50t34.5 42h-27l87 528h138l-87 -528h-1q-29 -16 -45.5 -31z" />
    <glyph glyph-name="itilde" unicode="&#x129;" horiz-adv-x="284" 
d="M160 528h138l-87 -528h-138zM114 709.5q31 36.5 87 36.5q19 0 36 -5.5t38 -15.5q12 -6 24.5 -10.5t22.5 -4.5q17 0 26.5 11t11.5 26h73q-7 -53 -37 -89t-87 -36q-20 0 -36.5 5.5t-39.5 15.5q-12 6 -24.5 10.5t-22.5 4.5q-16 0 -25.5 -11t-12.5 -26h-73q8 52 39 88.5z" />
    <glyph glyph-name="j" unicode="j" horiz-adv-x="283" 
d="M204 637q-18 18 -18 45q0 37 27.5 64t64.5 27q30 0 47.5 -17.5t17.5 -45.5q0 -36 -28 -63.5t-64 -27.5q-29 0 -47 18zM-80 -216l16 96q22 -4 43 -4q34 0 52.5 12.5t25 31t11.5 47.5l95 575h138l-101 -616q-28 -153 -194 -153q-42 0 -86 11z" />
    <glyph glyph-name="k" unicode="k" horiz-adv-x="561" 
d="M186 743h139l-67 -412h5l190 197h156l-231 -241l149 -287h-154l-122 254h-6l-42 -254h-139z" />
    <glyph glyph-name="l" unicode="l" horiz-adv-x="341" 
d="M114 23q-31 27 -31 75q0 16 3 36t4 26l98 590h138l-93 -562q-5 -30 -5 -46q0 -23 14 -34.5t51 -11.5q11 0 29 2l-16 -96q-54 -6 -81 -6q-80 0 -111 27z" />
    <glyph glyph-name="lacute" unicode="&#x13a;" horiz-adv-x="341" 
d="M114 23q-31 27 -31 75q0 16 3 36t4 26l98 590h138l-93 -562q-5 -30 -5 -46q0 -23 14 -34.5t51 -11.5q11 0 29 2l-16 -96q-54 -6 -81 -6q-80 0 -111 27zM214 818l132 195h138l-160 -196z" />
    <glyph glyph-name="lcaron" unicode="&#x13e;" horiz-adv-x="429" 
d="M407 792.5q18 -20.5 18 -52.5q0 -14 -3 -26l-8 -44q-21 -117 -128 -160l-53 -322q-5 -30 -5 -46q0 -23 14 -34.5t51 -11.5q11 0 29 2l-16 -96q-54 -6 -81 -6q-80 0 -111 27t-31 75q0 16 3 36t4 26l98 590h66q9 29 34.5 46t59.5 17q41 0 59 -20.5zM340 640q0 16 -7.5 22
t-19.5 7l-18 -106q45 29 45 77z" />
    <glyph glyph-name="m" unicode="m" horiz-adv-x="920" 
d="M144 528h139l-15 -85h8q6 13 25.5 35.5t55.5 42.5t84 20q52 0 82.5 -24t43 -51t12.5 -38h7q71 113 187 113q82 0 116 -50t34 -119q0 -19 -4 -47l-53 -325h-139l52 311q2 9 2 26q0 41 -23 62.5t-58 21.5q-41 0 -75.5 -29t-42.5 -81l-51 -311h-139l52 311q2 9 2 26
q0 41 -23 62.5t-58 21.5q-41 0 -75.5 -29t-42.5 -81l-51 -311h-139z" />
    <glyph glyph-name="n" unicode="n" horiz-adv-x="601" 
d="M144 528h140l-14 -81h8q25 39 69 66.5t102 27.5q85 0 120.5 -47.5t35.5 -116.5q0 -31 -4 -52l-54 -325h-138l50 302q3 18 3 33q0 43 -22.5 67t-64.5 24q-53 0 -86 -34.5t-42 -89.5l-50 -302h-140z" />
    <glyph glyph-name="nacute" unicode="&#x144;" horiz-adv-x="601" 
d="M144 528h140l-14 -81h8q25 39 69 66.5t102 27.5q85 0 120.5 -47.5t35.5 -116.5q0 -31 -4 -52l-54 -325h-138l50 302q3 18 3 33q0 43 -22.5 67t-64.5 24q-53 0 -86 -34.5t-42 -89.5l-50 -302h-140zM348 604l132 195h138l-160 -196z" />
    <glyph glyph-name="ncaron" unicode="&#x148;" horiz-adv-x="601" 
d="M144 528h140l-14 -81h8q25 39 69 66.5t102 27.5q85 0 120.5 -47.5t35.5 -116.5q0 -31 -4 -52l-54 -325h-138l50 302q3 18 3 33q0 43 -22.5 67t-64.5 24q-53 0 -86 -34.5t-42 -89.5l-50 -302h-140zM356 750l53 -74h4l79 74h127l-169 -158h-103l-117 158h126z" />
    <glyph glyph-name="ntilde" unicode="&#xf1;" horiz-adv-x="601" 
d="M144 528h140l-14 -81h8q25 39 69 66.5t102 27.5q85 0 120.5 -47.5t35.5 -116.5q0 -31 -4 -52l-54 -325h-138l50 302q3 18 3 33q0 43 -22.5 67t-64.5 24q-53 0 -86 -34.5t-42 -89.5l-50 -302h-140zM273 709.5q31 36.5 87 36.5q19 0 36 -5.5t38 -15.5q12 -6 24.5 -10.5
t22.5 -4.5q17 0 26.5 11t11.5 26h73q-7 -53 -37 -89t-87 -36q-20 0 -36.5 5.5t-39.5 15.5q-12 6 -24.5 10.5t-22.5 4.5q-16 0 -25.5 -11t-12.5 -26h-73q8 52 39 88.5z" />
    <glyph glyph-name="o" unicode="o" horiz-adv-x="580" 
d="M126.5 52q-53.5 60 -53.5 154t40 170t109 120t154 44q106 0 159 -60t53 -155q0 -93 -40 -169t-109 -120t-153 -44q-106 0 -159.5 60zM378.5 132.5q34.5 28.5 54 77t19.5 107.5q0 50 -23.5 80.5t-70.5 30.5q-41 0 -75 -27.5t-53.5 -75.5t-19.5 -107q0 -51 23.5 -82.5
t69.5 -31.5q41 0 75.5 28.5z" />
    <glyph glyph-name="oacute" unicode="&#xf3;" horiz-adv-x="580" 
d="M126.5 52q-53.5 60 -53.5 154t40 170t109 120t154 44q106 0 159 -60t53 -155q0 -93 -40 -169t-109 -120t-153 -44q-106 0 -159.5 60zM378.5 132.5q34.5 28.5 54 77t19.5 107.5q0 50 -23.5 80.5t-70.5 30.5q-41 0 -75 -27.5t-53.5 -75.5t-19.5 -107q0 -51 23.5 -82.5
t69.5 -31.5q41 0 75.5 28.5zM333 604l132 195h138l-160 -196z" />
    <glyph glyph-name="ocircumflex" unicode="&#xf4;" horiz-adv-x="580" 
d="M126.5 52q-53.5 60 -53.5 154t40 170t109 120t154 44q106 0 159 -60t53 -155q0 -93 -40 -169t-109 -120t-153 -44q-106 0 -159.5 60zM378.5 132.5q34.5 28.5 54 77t19.5 107.5q0 50 -23.5 80.5t-70.5 30.5q-41 0 -75 -27.5t-53.5 -75.5t-19.5 -107q0 -51 23.5 -82.5
t69.5 -31.5q41 0 75.5 28.5zM359 750h103l118 -158h-127l-55 73h-4l-77 -73h-126z" />
    <glyph glyph-name="uni1ED1" unicode="&#x1ed1;" horiz-adv-x="580" 
d="M126.5 52q-53.5 60 -53.5 154t40 170t109 120t154 44q106 0 159 -60t53 -155q0 -93 -40 -169t-109 -120t-153 -44q-106 0 -159.5 60zM378.5 132.5q34.5 28.5 54 77t19.5 107.5q0 50 -23.5 80.5t-70.5 30.5q-41 0 -75 -27.5t-53.5 -75.5t-19.5 -107q0 -51 23.5 -82.5
t69.5 -31.5q41 0 75.5 28.5zM359 750h103l118 -158h-127l-55 73h-4l-77 -73h-126zM525 721l132 195h138l-160 -196z" />
    <glyph glyph-name="uni1ED9" unicode="&#x1ed9;" horiz-adv-x="580" 
d="M126.5 52q-53.5 60 -53.5 154t40 170t109 120t154 44q106 0 159 -60t53 -155q0 -93 -40 -169t-109 -120t-153 -44q-106 0 -159.5 60zM378.5 132.5q34.5 28.5 54 77t19.5 107.5q0 50 -23.5 80.5t-70.5 30.5q-41 0 -75 -27.5t-53.5 -75.5t-19.5 -107q0 -51 23.5 -82.5
t69.5 -31.5q41 0 75.5 28.5zM203 -226.5q-17 17.5 -17 42.5q0 34 26 60t61 26q28 0 45 -17t17 -43q0 -34 -26.5 -60t-61.5 -26q-27 0 -44 17.5zM359 750h103l118 -158h-127l-55 73h-4l-77 -73h-126z" />
    <glyph glyph-name="uni1ED3" unicode="&#x1ed3;" horiz-adv-x="580" 
d="M126.5 52q-53.5 60 -53.5 154t40 170t109 120t154 44q106 0 159 -60t53 -155q0 -93 -40 -169t-109 -120t-153 -44q-106 0 -159.5 60zM378.5 132.5q34.5 28.5 54 77t19.5 107.5q0 50 -23.5 80.5t-70.5 30.5q-41 0 -75 -27.5t-53.5 -75.5t-19.5 -107q0 -51 23.5 -82.5
t69.5 -31.5q41 0 75.5 28.5zM359 750h103l118 -158h-127l-55 73h-4l-77 -73h-126zM442 916h137l69 -195l-110 -1z" />
    <glyph glyph-name="uni1ED5" unicode="&#x1ed5;" horiz-adv-x="580" 
d="M126.5 52q-53.5 60 -53.5 154t40 170t109 120t154 44q106 0 159 -60t53 -155q0 -93 -40 -169t-109 -120t-153 -44q-106 0 -159.5 60zM378.5 132.5q34.5 28.5 54 77t19.5 107.5q0 50 -23.5 80.5t-70.5 30.5q-41 0 -75 -27.5t-53.5 -75.5t-19.5 -107q0 -51 23.5 -82.5
t69.5 -31.5q41 0 75.5 28.5zM359 750h103l118 -158h-127l-55 73h-4l-77 -73h-126zM538.5 747.5q9.5 7.5 19.5 14t13 8.5q30 17 45.5 32t15.5 37q0 11 -7.5 17.5t-21.5 6.5q-15 0 -25.5 -9t-13.5 -22h-98q9 43 46 74t102 31q54 0 82.5 -23t28.5 -59q0 -38 -17.5 -59
t-47.5 -40q-3 -2 -14.5 -9.5t-14.5 -15.5h-106q4 9 13.5 16.5z" />
    <glyph glyph-name="uni1ED7" unicode="&#x1ed7;" horiz-adv-x="580" 
d="M126.5 52q-53.5 60 -53.5 154t40 170t109 120t154 44q106 0 159 -60t53 -155q0 -93 -40 -169t-109 -120t-153 -44q-106 0 -159.5 60zM378.5 132.5q34.5 28.5 54 77t19.5 107.5q0 50 -23.5 80.5t-70.5 30.5q-41 0 -75 -27.5t-53.5 -75.5t-19.5 -107q0 -51 23.5 -82.5
t69.5 -31.5q41 0 75.5 28.5zM357 750h103l118 -158h-127l-55 73h-4l-77 -73h-126zM279 885.5q31 36.5 87 36.5q19 0 36 -5.5t38 -15.5q12 -6 24.5 -10.5t22.5 -4.5q17 0 26.5 11t11.5 26h73q-7 -53 -37 -89t-87 -36q-20 0 -36.5 5.5t-39.5 15.5q-12 6 -24.5 10.5t-22.5 4.5
q-16 0 -25.5 -11t-12.5 -26h-73q8 52 39 88.5z" />
    <glyph glyph-name="odieresis" unicode="&#xf6;" horiz-adv-x="580" 
d="M126.5 52q-53.5 60 -53.5 154t40 170t109 120t154 44q106 0 159 -60t53 -155q0 -93 -40 -169t-109 -120t-153 -44q-106 0 -159.5 60zM378.5 132.5q34.5 28.5 54 77t19.5 107.5q0 50 -23.5 80.5t-70.5 30.5q-41 0 -75 -27.5t-53.5 -75.5t-19.5 -107q0 -51 23.5 -82.5
t69.5 -31.5q41 0 75.5 28.5zM474.5 637q-17.5 18 -17.5 45q0 37 27.5 64t63.5 27q30 0 47.5 -17.5t17.5 -45.5q0 -36 -27.5 -63.5t-64.5 -27.5q-29 0 -46.5 18zM220.5 637q-17.5 18 -17.5 45q0 37 27.5 64t63.5 27q30 0 47.5 -17.5t17.5 -45.5q0 -36 -27.5 -63.5
t-64.5 -27.5q-29 0 -46.5 18z" />
    <glyph glyph-name="uni1ECD" unicode="&#x1ecd;" horiz-adv-x="580" 
d="M126.5 52q-53.5 60 -53.5 154t40 170t109 120t154 44q106 0 159 -60t53 -155q0 -93 -40 -169t-109 -120t-153 -44q-106 0 -159.5 60zM378.5 132.5q34.5 28.5 54 77t19.5 107.5q0 50 -23.5 80.5t-70.5 30.5q-41 0 -75 -27.5t-53.5 -75.5t-19.5 -107q0 -51 23.5 -82.5
t69.5 -31.5q41 0 75.5 28.5zM203 -226.5q-17 17.5 -17 42.5q0 34 26 60t61 26q28 0 45 -17t17 -43q0 -34 -26.5 -60t-61.5 -26q-27 0 -44 17.5z" />
    <glyph glyph-name="ograve" unicode="&#xf2;" horiz-adv-x="580" 
d="M126.5 52q-53.5 60 -53.5 154t40 170t109 120t154 44q106 0 159 -60t53 -155q0 -93 -40 -169t-109 -120t-153 -44q-106 0 -159.5 60zM378.5 132.5q34.5 28.5 54 77t19.5 107.5q0 50 -23.5 80.5t-70.5 30.5q-41 0 -75 -27.5t-53.5 -75.5t-19.5 -107q0 -51 23.5 -82.5
t69.5 -31.5q41 0 75.5 28.5zM233 799h137l69 -195l-110 -1z" />
    <glyph glyph-name="uni1ECF" unicode="&#x1ecf;" horiz-adv-x="580" 
d="M126.5 52q-53.5 60 -53.5 154t40 170t109 120t154 44q106 0 159 -60t53 -155q0 -93 -40 -169t-109 -120t-153 -44q-106 0 -159.5 60zM378.5 132.5q34.5 28.5 54 77t19.5 107.5q0 50 -23.5 80.5t-70.5 30.5q-41 0 -75 -27.5t-53.5 -75.5t-19.5 -107q0 -51 23.5 -82.5
t69.5 -31.5q41 0 75.5 28.5zM344.5 619.5q9.5 7.5 19.5 14t13 8.5q30 17 45.5 32t15.5 37q0 11 -7.5 17.5t-21.5 6.5q-15 0 -25.5 -9t-13.5 -22h-98q9 43 46 74t102 31q54 0 82.5 -23t28.5 -59q0 -38 -17.5 -59t-47.5 -40q-3 -2 -14.5 -9.5t-14.5 -15.5h-106q4 9 13.5 16.5z
" />
    <glyph glyph-name="ohorn" unicode="&#x1a1;" horiz-adv-x="604" 
d="M689 633l-9 -54q-10 -59 -47.5 -84t-86.5 -29q42 -54 42 -141q0 -93 -40 -169t-109 -120t-153 -44q-106 0 -159.5 60t-53.5 154t40 170t109 120t154 44q53 0 91 -15l1 3h44q21 0 34 4t23.5 18.5t15.5 44.5l6 38h98zM378.5 132.5q34.5 28.5 54 77t19.5 107.5
q0 50 -23.5 80.5t-70.5 30.5q-41 0 -75 -27.5t-53.5 -75.5t-19.5 -107q0 -51 23.5 -82.5t69.5 -31.5q41 0 75.5 28.5z" />
    <glyph glyph-name="uni1EDB" unicode="&#x1edb;" horiz-adv-x="604" 
d="M689 633l-9 -54q-10 -59 -47.5 -84t-86.5 -29q42 -54 42 -141q0 -93 -40 -169t-109 -120t-153 -44q-106 0 -159.5 60t-53.5 154t40 170t109 120t154 44q53 0 91 -15l1 3h44q21 0 34 4t23.5 18.5t15.5 44.5l6 38h98zM378.5 132.5q34.5 28.5 54 77t19.5 107.5
q0 50 -23.5 80.5t-70.5 30.5q-41 0 -75 -27.5t-53.5 -75.5t-19.5 -107q0 -51 23.5 -82.5t69.5 -31.5q41 0 75.5 28.5zM333 604l132 195h138l-160 -196z" />
    <glyph glyph-name="uni1EE3" unicode="&#x1ee3;" horiz-adv-x="604" 
d="M689 633l-9 -54q-10 -59 -47.5 -84t-86.5 -29q42 -54 42 -141q0 -93 -40 -169t-109 -120t-153 -44q-106 0 -159.5 60t-53.5 154t40 170t109 120t154 44q53 0 91 -15l1 3h44q21 0 34 4t23.5 18.5t15.5 44.5l6 38h98zM378.5 132.5q34.5 28.5 54 77t19.5 107.5
q0 50 -23.5 80.5t-70.5 30.5q-41 0 -75 -27.5t-53.5 -75.5t-19.5 -107q0 -51 23.5 -82.5t69.5 -31.5q41 0 75.5 28.5zM203 -226.5q-17 17.5 -17 42.5q0 34 26 60t61 26q28 0 45 -17t17 -43q0 -34 -26.5 -60t-61.5 -26q-27 0 -44 17.5z" />
    <glyph glyph-name="uni1EDD" unicode="&#x1edd;" horiz-adv-x="604" 
d="M689 633l-9 -54q-10 -59 -47.5 -84t-86.5 -29q42 -54 42 -141q0 -93 -40 -169t-109 -120t-153 -44q-106 0 -159.5 60t-53.5 154t40 170t109 120t154 44q53 0 91 -15l1 3h44q21 0 34 4t23.5 18.5t15.5 44.5l6 38h98zM378.5 132.5q34.5 28.5 54 77t19.5 107.5
q0 50 -23.5 80.5t-70.5 30.5q-41 0 -75 -27.5t-53.5 -75.5t-19.5 -107q0 -51 23.5 -82.5t69.5 -31.5q41 0 75.5 28.5zM233 799h137l69 -195l-110 -1z" />
    <glyph glyph-name="uni1EDF" unicode="&#x1edf;" horiz-adv-x="604" 
d="M689 633l-9 -54q-10 -59 -47.5 -84t-86.5 -29q42 -54 42 -141q0 -93 -40 -169t-109 -120t-153 -44q-106 0 -159.5 60t-53.5 154t40 170t109 120t154 44q53 0 91 -15l1 3h44q21 0 34 4t23.5 18.5t15.5 44.5l6 38h98zM378.5 132.5q34.5 28.5 54 77t19.5 107.5
q0 50 -23.5 80.5t-70.5 30.5q-41 0 -75 -27.5t-53.5 -75.5t-19.5 -107q0 -51 23.5 -82.5t69.5 -31.5q41 0 75.5 28.5zM344.5 619.5q9.5 7.5 19.5 14t13 8.5q30 17 45.5 32t15.5 37q0 11 -7.5 17.5t-21.5 6.5q-15 0 -25.5 -9t-13.5 -22h-98q9 43 46 74t102 31q54 0 82.5 -23
t28.5 -59q0 -38 -17.5 -59t-47.5 -40q-3 -2 -14.5 -9.5t-14.5 -15.5h-106q4 9 13.5 16.5z" />
    <glyph glyph-name="uni1EE1" unicode="&#x1ee1;" horiz-adv-x="604" 
d="M689 633l-9 -54q-10 -59 -47.5 -84t-86.5 -29q42 -54 42 -141q0 -93 -40 -169t-109 -120t-153 -44q-106 0 -159.5 60t-53.5 154t40 170t109 120t154 44q53 0 91 -15l1 3h44q21 0 34 4t23.5 18.5t15.5 44.5l6 38h98zM378.5 132.5q34.5 28.5 54 77t19.5 107.5
q0 50 -23.5 80.5t-70.5 30.5q-41 0 -75 -27.5t-53.5 -75.5t-19.5 -107q0 -51 23.5 -82.5t69.5 -31.5q41 0 75.5 28.5zM259 709.5q31 36.5 87 36.5q19 0 36 -5.5t38 -15.5q12 -6 24.5 -10.5t22.5 -4.5q17 0 26.5 11t11.5 26h73q-7 -53 -37 -89t-87 -36q-20 0 -36.5 5.5
t-39.5 15.5q-12 6 -24.5 10.5t-22.5 4.5q-16 0 -25.5 -11t-12.5 -26h-73q8 52 39 88.5z" />
    <glyph glyph-name="omacron" unicode="&#x14d;" horiz-adv-x="580" 
d="M126.5 52q-53.5 60 -53.5 154t40 170t109 120t154 44q106 0 159 -60t53 -155q0 -93 -40 -169t-109 -120t-153 -44q-106 0 -159.5 60zM378.5 132.5q34.5 28.5 54 77t19.5 107.5q0 50 -23.5 80.5t-70.5 30.5q-41 0 -75 -27.5t-53.5 -75.5t-19.5 -107q0 -51 23.5 -82.5
t69.5 -31.5q41 0 75.5 28.5zM238 681h320l-10 -64h-320z" />
    <glyph glyph-name="oslash" unicode="&#xf8;" horiz-adv-x="587" 
d="M537 478q51 -57 51 -152q0 -93 -40 -169.5t-109 -120.5t-153 -44q-49 0 -92 15l-32 -43h-97l63 86q-55 58 -55 156q0 94 40 170.5t109 120.5t154 44q56 0 97 -18l41 56h97zM216 171l183 250q-19 8 -41 8q-41 0 -75 -28t-53.5 -76t-19.5 -107q0 -26 6 -47zM448 356
l-180 -246q16 -6 35 -6q41 0 75.5 28.5t54 77t19.5 107.5q0 23 -4 39z" />
    <glyph glyph-name="otilde" unicode="&#xf5;" horiz-adv-x="580" 
d="M126.5 52q-53.5 60 -53.5 154t40 170t109 120t154 44q106 0 159 -60t53 -155q0 -93 -40 -169t-109 -120t-153 -44q-106 0 -159.5 60zM378.5 132.5q34.5 28.5 54 77t19.5 107.5q0 50 -23.5 80.5t-70.5 30.5q-41 0 -75 -27.5t-53.5 -75.5t-19.5 -107q0 -51 23.5 -82.5
t69.5 -31.5q41 0 75.5 28.5zM259 709.5q31 36.5 87 36.5q19 0 36 -5.5t38 -15.5q12 -6 24.5 -10.5t22.5 -4.5q17 0 26.5 11t11.5 26h73q-7 -53 -37 -89t-87 -36q-20 0 -36.5 5.5t-39.5 15.5q-12 6 -24.5 10.5t-22.5 4.5q-16 0 -25.5 -11t-12.5 -26h-73q8 52 39 88.5z" />
    <glyph glyph-name="oe" unicode="&#x153;" horiz-adv-x="946" 
d="M131 50.5q-52 60.5 -52 154.5q0 92 39.5 168.5t107.5 120.5t150 44q65 0 109 -26.5t62 -69.5h7q30 43 82.5 71t118.5 28q92 0 145.5 -53t53.5 -152q0 -33 -6 -71l-6 -38h-354l-1 -8q-1 -6 -1 -19q0 -42 25.5 -70t68.5 -28q37 0 67 18t48 49h132q-32 -76 -101.5 -126.5
t-161.5 -50.5q-65 0 -107.5 26.5t-60.5 68.5h-7q-30 -42 -84 -69.5t-120 -27.5q-102 0 -154 60.5zM827 317q2 20 2 28q0 49 -25 72t-67 23q-49 0 -86 -33.5t-48 -89.5h224zM380 130.5q34 28.5 54 77t20 106.5q0 50 -24.5 81t-70.5 31q-40 0 -74 -28t-53.5 -76.5
t-19.5 -106.5q0 -51 23.5 -82t69.5 -31q41 0 75 28.5z" />
    <glyph glyph-name="p" unicode="p" horiz-adv-x="615" 
d="M264 23q-33 31 -45 68h-8l-49 -299h-139l121 736h139l-14 -82h8q22 34 65.5 64.5t110.5 30.5q84 0 127.5 -53.5t43.5 -146.5q0 -97 -34.5 -177t-94 -126t-131.5 -46q-67 0 -100 31zM406.5 130q34.5 28 54.5 76t20 106q0 51 -23.5 83t-72.5 32q-41 0 -75.5 -27.5
t-54 -75.5t-19.5 -105q0 -51 23.5 -84t71.5 -33q41 0 75.5 28z" />
    <glyph glyph-name="thorn" unicode="&#xfe;" horiz-adv-x="620" 
d="M264 22.5q-33 30.5 -46 67.5h-7l-55 -332h-139l163 993h140l-51 -304h8q22 34 65 64t110 30q84 0 128 -53.5t44 -146.5q0 -98 -34.5 -177.5t-94 -125.5t-131.5 -46q-67 0 -100 30.5zM406.5 130q34.5 28 54.5 76t20 106q0 51 -23.5 83t-72.5 32q-41 0 -75.5 -27.5
t-54.5 -75.5t-20 -105q0 -51 23.5 -84t72.5 -33q41 0 75.5 28z" />
    <glyph glyph-name="q" unicode="q" horiz-adv-x="610" 
d="M116 45.5q-44 53.5 -44 145.5q0 98 34.5 178t94.5 126t133 46q68 0 101 -30.5t43 -64.5h8l14 82h139l-121 -736h-139l50 299h-8q-25 -37 -68 -68t-110 -31q-83 0 -127 53.5zM386.5 130q34.5 28 54.5 76t20 105q0 51 -23.5 83.5t-72.5 32.5q-42 0 -76.5 -27.5t-54 -75.5
t-19.5 -106q0 -51 23.5 -83.5t72.5 -32.5q41 0 75.5 28z" />
    <glyph glyph-name="r" unicode="r" horiz-adv-x="387" 
d="M148 528h137l-13 -84h7q18 35 57 59.5t94 24.5q22 0 35 -4l-26 -127q-25 7 -52 7q-63 0 -97.5 -33t-47.5 -107l-44 -264h-137z" />
    <glyph glyph-name="racute" unicode="&#x155;" horiz-adv-x="387" 
d="M148 528h137l-13 -84h7q18 35 57 59.5t94 24.5q22 0 35 -4l-26 -127q-25 7 -52 7q-63 0 -97.5 -33t-47.5 -107l-44 -264h-137zM257 604l132 195h138l-160 -196z" />
    <glyph glyph-name="rcaron" unicode="&#x159;" horiz-adv-x="387" 
d="M148 528h137l-13 -84h7q18 35 57 59.5t94 24.5q22 0 35 -4l-26 -127q-25 7 -52 7q-63 0 -97.5 -33t-47.5 -107l-44 -264h-137zM265 750l53 -74h4l79 74h127l-169 -158h-103l-117 158h126z" />
    <glyph glyph-name="s" unicode="s" horiz-adv-x="494" 
d="M149.5 13q-42.5 21 -64 55t-21.5 74q0 17 2 26l1 6h133v-6q-2 -28 15.5 -48.5t56.5 -20.5q36 0 60.5 19.5t24.5 47.5q0 20 -16 32t-38 15l-59 12q-50 8 -91 38t-41 90q0 54 29 97t80 67t115 24q87 0 133.5 -42.5t46.5 -104.5q0 -11 -1 -17v-4h-135v3q0 25 -14 45t-50 20
q-34 0 -57 -19.5t-23 -47.5q0 -36 59 -48l64 -13q56 -12 92.5 -42.5t36.5 -84.5t-31 -98.5t-85.5 -70t-120.5 -25.5q-59 0 -101.5 21z" />
    <glyph glyph-name="sacute" unicode="&#x15b;" horiz-adv-x="494" 
d="M149.5 13q-42.5 21 -64 55t-21.5 74q0 17 2 26l1 6h133v-6q-2 -28 15.5 -48.5t56.5 -20.5q36 0 60.5 19.5t24.5 47.5q0 20 -16 32t-38 15l-59 12q-50 8 -91 38t-41 90q0 54 29 97t80 67t115 24q87 0 133.5 -42.5t46.5 -104.5q0 -11 -1 -17v-4h-135v3q0 25 -14 45t-50 20
q-34 0 -57 -19.5t-23 -47.5q0 -36 59 -48l64 -13q56 -12 92.5 -42.5t36.5 -84.5t-31 -98.5t-85.5 -70t-120.5 -25.5q-59 0 -101.5 21zM302 617l132 195h138l-160 -196z" />
    <glyph glyph-name="scaron" unicode="&#x161;" horiz-adv-x="494" 
d="M149.5 13q-42.5 21 -64 55t-21.5 74q0 17 2 26l1 6h133v-6q-2 -28 15.5 -48.5t56.5 -20.5q36 0 60.5 19.5t24.5 47.5q0 20 -16 32t-38 15l-59 12q-50 8 -91 38t-41 90q0 54 29 97t80 67t115 24q87 0 133.5 -42.5t46.5 -104.5q0 -11 -1 -17v-4h-135v3q0 25 -14 45t-50 20
q-34 0 -57 -19.5t-23 -47.5q0 -36 59 -48l64 -13q56 -12 92.5 -42.5t36.5 -84.5t-31 -98.5t-85.5 -70t-120.5 -25.5q-59 0 -101.5 21zM311 763l53 -74h4l79 74h127l-169 -158h-103l-117 158h126z" />
    <glyph glyph-name="scedilla" unicode="&#x15f;" horiz-adv-x="494" 
d="M469.5 498.5q46.5 -42.5 46.5 -104.5q0 -11 -1 -17v-4h-135v3q0 25 -14 45t-50 20q-34 0 -57 -19.5t-23 -47.5q0 -36 59 -48l64 -13q56 -12 92.5 -42.5t36.5 -84.5q0 -73 -54.5 -126t-139.5 -65l-18 -38h15q43 0 65 -21.5t22 -55.5q0 -35 -18.5 -64.5t-51 -46.5
t-72.5 -17q-21 0 -39 4.5t-28 9.5l11 68q33 -9 67 -9q29 0 47 13t18 33q0 14 -12 20.5t-27 6.5h-90l1 4l40 91q-76 7 -118 49.5t-42 99.5q0 17 2 26l1 6h133v-6q-2 -28 15.5 -48.5t56.5 -20.5q36 0 60.5 19.5t24.5 47.5q0 20 -16 32t-38 15l-59 12q-50 8 -91 38t-41 90
q0 54 29 97t80 67t115 24q87 0 133.5 -42.5z" />
    <glyph glyph-name="germandbls" unicode="&#xdf;" horiz-adv-x="595" 
d="M307 572.5q-25 -35.5 -32 -78.5l-81 -495h-137l79 482q17 106 83.5 171.5t188.5 65.5q112 0 161.5 -47.5t49.5 -116.5q0 -63 -28.5 -102.5t-60.5 -57.5t-41 -18l-1 -6q6 0 29.5 -14t44.5 -44t21 -77q0 -66 -36.5 -122.5t-98 -89.5t-133.5 -33q-38 0 -66 7l19 114
q16 -4 41 -4q68 0 109.5 37t41.5 98q0 48 -34.5 65.5t-76.5 17.5h-53l17 102h56q56 0 88.5 29.5t32.5 79.5q0 36 -24 54t-66 18q-68 0 -93 -35.5z" />
    <glyph glyph-name="t" unicode="t" horiz-adv-x="427" 
d="M285 185q-5 -28 -5 -45q0 -23 14 -33.5t51 -10.5q22 0 44 4l-15 -96q-11 -2 -40 -5t-56 -3q-82 0 -112.5 26t-30.5 74q0 19 6 59l44 265h-87l17 108h88l29 172h138l-28 -172h117l-17 -108h-118z" />
    <glyph glyph-name="tbar" unicode="&#x167;" horiz-adv-x="421" 
d="M324 420l-15 -91h118l-12 -76h-118l-11 -65q-5 -30 -5 -46q0 -23 14 -34.5t51 -11.5q21 0 43 4l-15 -96q-11 -2 -40 -5t-56 -3q-81 0 -111.5 26.5t-30.5 74.5q0 26 7 63l15 93h-87l12 76h88l15 91h-88l17 108h89l28 172h138l-28 -172h118l-17 -108h-119z" />
    <glyph glyph-name="tcaron" unicode="&#x165;" horiz-adv-x="560" 
d="M538 792.5q17 -20.5 17 -52.5q0 -10 -2 -26l-8 -44q-17 -96 -92 -142h6l-17 -108h-118l-39 -235q-5 -28 -5 -45q0 -23 14 -33.5t51 -10.5q22 0 44 4l-15 -96q-11 -2 -40 -5t-56 -3q-82 0 -112.5 26t-30.5 74q0 19 6 59l44 265h-87l17 108h88l29 172h138l-28 -172h42l3 15
q40 15 62 40t22 57q0 19 -9.5 24t-29.5 6q-29 1 -41 15t-12 34q0 41 28.5 67.5t71.5 26.5q42 0 59 -20.5z" />
    <glyph glyph-name="uni0163" unicode="&#x163;" horiz-adv-x="427" 
d="M285 185q-5 -28 -5 -45q0 -23 14 -33.5t51 -10.5q22 0 44 4l-15 -96q-11 -2 -40 -5t-56 -3h-3l-17 -36h15q43 0 65 -21.5t22 -55.5q0 -35 -18.5 -64.5t-51 -46.5t-72.5 -17q-21 0 -39 4.5t-28 9.5l11 68q33 -9 67 -9q29 0 47 13t18 33q0 14 -12 20.5t-27 6.5h-90l1 4
l43 98q-41 10 -57.5 34t-16.5 59q0 19 6 59l44 265h-87l17 108h88l29 172h138l-28 -172h117l-17 -108h-118z" />
    <glyph glyph-name="u" unicode="u" horiz-adv-x="591" 
d="M536 0h-139l14 84h-7q-25 -39 -68.5 -66.5t-98.5 -27.5q-83 0 -117.5 47t-34.5 116q0 26 5 53l53 322h138l-50 -299q-3 -18 -3 -34q0 -42 21.5 -66t61.5 -24q50 0 82 35.5t41 88.5l50 299h139z" />
    <glyph glyph-name="uacute" unicode="&#xfa;" horiz-adv-x="591" 
d="M536 0h-139l14 84h-7q-25 -39 -68.5 -66.5t-98.5 -27.5q-83 0 -117.5 47t-34.5 116q0 26 5 53l53 322h138l-50 -299q-3 -18 -3 -34q0 -42 21.5 -66t61.5 -24q50 0 82 35.5t41 88.5l50 299h139zM333 604l132 195h138l-160 -196z" />
    <glyph glyph-name="ucircumflex" unicode="&#xfb;" horiz-adv-x="591" 
d="M536 0h-139l14 84h-7q-25 -39 -68.5 -66.5t-98.5 -27.5q-83 0 -117.5 47t-34.5 116q0 26 5 53l53 322h138l-50 -299q-3 -18 -3 -34q0 -42 21.5 -66t61.5 -24q50 0 82 35.5t41 88.5l50 299h139zM359 750h103l118 -158h-127l-55 73h-4l-77 -73h-126z" />
    <glyph glyph-name="udieresis" unicode="&#xfc;" horiz-adv-x="591" 
d="M536 0h-139l14 84h-7q-25 -39 -68.5 -66.5t-98.5 -27.5q-83 0 -117.5 47t-34.5 116q0 26 5 53l53 322h138l-50 -299q-3 -18 -3 -34q0 -42 21.5 -66t61.5 -24q50 0 82 35.5t41 88.5l50 299h139zM474.5 637q-17.5 18 -17.5 45q0 37 27.5 64t63.5 27q30 0 47.5 -17.5
t17.5 -45.5q0 -36 -27.5 -63.5t-64.5 -27.5q-29 0 -46.5 18zM220.5 637q-17.5 18 -17.5 45q0 37 27.5 64t63.5 27q30 0 47.5 -17.5t17.5 -45.5q0 -36 -27.5 -63.5t-64.5 -27.5q-29 0 -46.5 18z" />
    <glyph glyph-name="uni1EE5" unicode="&#x1ee5;" horiz-adv-x="591" 
d="M536 0h-139l14 84h-7q-25 -39 -68.5 -66.5t-98.5 -27.5q-83 0 -117.5 47t-34.5 116q0 26 5 53l53 322h138l-50 -299q-3 -18 -3 -34q0 -42 21.5 -66t61.5 -24q50 0 82 35.5t41 88.5l50 299h139zM205 -226.5q-17 17.5 -17 42.5q0 34 26 60t61 26q28 0 45 -17t17 -43
q0 -34 -26.5 -60t-61.5 -26q-27 0 -44 17.5z" />
    <glyph glyph-name="ugrave" unicode="&#xf9;" horiz-adv-x="591" 
d="M536 0h-139l14 84h-7q-25 -39 -68.5 -66.5t-98.5 -27.5q-83 0 -117.5 47t-34.5 116q0 26 5 53l53 322h138l-50 -299q-3 -18 -3 -34q0 -42 21.5 -66t61.5 -24q50 0 82 35.5t41 88.5l50 299h139zM233 799h137l69 -195l-110 -1z" />
    <glyph glyph-name="uni1EE7" unicode="&#x1ee7;" horiz-adv-x="591" 
d="M536 0h-139l14 84h-7q-25 -39 -68.5 -66.5t-98.5 -27.5q-83 0 -117.5 47t-34.5 116q0 26 5 53l53 322h138l-50 -299q-3 -18 -3 -34q0 -42 21.5 -66t61.5 -24q50 0 82 35.5t41 88.5l50 299h139zM344.5 619.5q9.5 7.5 19.5 14t13 8.5q30 17 45.5 32t15.5 37q0 11 -7.5 17.5
t-21.5 6.5q-15 0 -25.5 -9t-13.5 -22h-98q9 43 46 74t102 31q54 0 82.5 -23t28.5 -59q0 -38 -17.5 -59t-47.5 -40q-3 -2 -14.5 -9.5t-14.5 -15.5h-106q4 9 13.5 16.5z" />
    <glyph glyph-name="uhorn" unicode="&#x1b0;" horiz-adv-x="591" 
d="M756 633l-9 -54q-10 -59 -48 -84t-86 -29l-77 -466h-139l14 84h-7q-25 -39 -68.5 -66.5t-98.5 -27.5q-83 0 -117.5 47t-34.5 116q0 26 5 53l53 322h138l-50 -299q-3 -18 -3 -34q0 -42 21.5 -66t61.5 -24q50 0 82 35.5t41 88.5l50 299h95q32 0 49 12t24 55l7 38h97z" />
    <glyph glyph-name="uni1EE9" unicode="&#x1ee9;" horiz-adv-x="591" 
d="M756 633l-9 -54q-10 -59 -48 -84t-86 -29l-77 -466h-139l14 84h-7q-25 -39 -68.5 -66.5t-98.5 -27.5q-83 0 -117.5 47t-34.5 116q0 26 5 53l53 322h138l-50 -299q-3 -18 -3 -34q0 -42 21.5 -66t61.5 -24q50 0 82 35.5t41 88.5l50 299h95q32 0 49 12t24 55l7 38h97z
M333 604l132 195h138l-160 -196z" />
    <glyph glyph-name="uni1EF1" unicode="&#x1ef1;" horiz-adv-x="591" 
d="M177 -226.5q-17 17.5 -17 42.5q0 34 26 60t61 26q28 0 45 -17t17 -43q0 -34 -26.5 -60t-61.5 -26q-27 0 -44 17.5zM756 633l-9 -54q-10 -59 -48 -84t-86 -29l-77 -466h-139l14 84h-7q-25 -39 -68.5 -66.5t-98.5 -27.5q-83 0 -117.5 47t-34.5 116q0 26 5 53l53 322h138
l-50 -299q-3 -18 -3 -34q0 -42 21.5 -66t61.5 -24q50 0 82 35.5t41 88.5l50 299h95q32 0 49 12t24 55l7 38h97z" />
    <glyph glyph-name="uni1EEB" unicode="&#x1eeb;" horiz-adv-x="591" 
d="M206 799h137l69 -195l-110 -1zM756 633l-9 -54q-10 -59 -48 -84t-86 -29l-77 -466h-139l14 84h-7q-25 -39 -68.5 -66.5t-98.5 -27.5q-83 0 -117.5 47t-34.5 116q0 26 5 53l53 322h138l-50 -299q-3 -18 -3 -34q0 -42 21.5 -66t61.5 -24q50 0 82 35.5t41 88.5l50 299h95
q32 0 49 12t24 55l7 38h97z" />
    <glyph glyph-name="uni1EED" unicode="&#x1eed;" horiz-adv-x="591" 
d="M756 633l-9 -54q-10 -59 -48 -84t-86 -29l-77 -466h-139l14 84h-7q-25 -39 -68.5 -66.5t-98.5 -27.5q-83 0 -117.5 47t-34.5 116q0 26 5 53l53 322h138l-50 -299q-3 -18 -3 -34q0 -42 21.5 -66t61.5 -24q50 0 82 35.5t41 88.5l50 299h95q32 0 49 12t24 55l7 38h97z
M344.5 619.5q9.5 7.5 19.5 14t13 8.5q30 17 45.5 32t15.5 37q0 11 -7.5 17.5t-21.5 6.5q-15 0 -25.5 -9t-13.5 -22h-98q9 43 46 74t102 31q54 0 82.5 -23t28.5 -59q0 -38 -17.5 -59t-47.5 -40q-3 -2 -14.5 -9.5t-14.5 -15.5h-106q4 9 13.5 16.5z" />
    <glyph glyph-name="uni1EEF" unicode="&#x1eef;" horiz-adv-x="591" 
d="M756 633l-9 -54q-10 -59 -48 -84t-86 -29l-77 -466h-139l14 84h-7q-25 -39 -68.5 -66.5t-98.5 -27.5q-83 0 -117.5 47t-34.5 116q0 26 5 53l53 322h138l-50 -299q-3 -18 -3 -34q0 -42 21.5 -66t61.5 -24q50 0 82 35.5t41 88.5l50 299h95q32 0 49 12t24 55l7 38h97z
M259 709.5q31 36.5 87 36.5q19 0 36 -5.5t38 -15.5q12 -6 24.5 -10.5t22.5 -4.5q17 0 26.5 11t11.5 26h73q-7 -53 -37 -89t-87 -36q-20 0 -36.5 5.5t-39.5 15.5q-12 6 -24.5 10.5t-22.5 4.5q-16 0 -25.5 -11t-12.5 -26h-73q8 52 39 88.5z" />
    <glyph glyph-name="umacron" unicode="&#x16b;" horiz-adv-x="591" 
d="M536 0h-139l14 84h-7q-25 -39 -68.5 -66.5t-98.5 -27.5q-83 0 -117.5 47t-34.5 116q0 26 5 53l53 322h138l-50 -299q-3 -18 -3 -34q0 -42 21.5 -66t61.5 -24q50 0 82 35.5t41 88.5l50 299h139zM238 681h320l-10 -64h-320z" />
    <glyph glyph-name="uogonek" unicode="&#x173;" horiz-adv-x="591" 
d="M479 -93q11 -9 35 -9q13 0 23.5 2.5t13.5 3.5l-12 -73q-4 -1 -17 -3t-38 -2q-54 0 -82.5 22.5t-28.5 59.5q0 26 12.5 50t34.5 42h-23l14 84h-7q-25 -39 -68.5 -66.5t-98.5 -27.5q-83 0 -117.5 47t-34.5 116q0 26 5 53l53 322h138l-50 -299q-3 -18 -3 -34q0 -42 21.5 -66
t61.5 -24q50 0 82 35.5t41 88.5l50 299h139l-87 -528h-6q-29 -16 -45.5 -31t-16.5 -38q0 -15 11 -24z" />
    <glyph glyph-name="uring" unicode="&#x16f;" horiz-adv-x="591" 
d="M536 0h-139l14 84h-7q-25 -39 -68.5 -66.5t-98.5 -27.5q-83 0 -117.5 47t-34.5 116q0 26 5 53l53 322h138l-50 -299q-3 -18 -3 -34q0 -42 21.5 -66t61.5 -24q50 0 82 35.5t41 88.5l50 299h139zM325 625q-24 24 -24 59q0 29 16.5 55.5t43.5 43t57 16.5q36 0 60 -24t24 -59
q0 -29 -16.5 -56t-43.5 -43t-56 -16q-37 0 -61 24zM429 673q15 15 15 34q0 14 -10 24t-26 10q-19 0 -33.5 -14.5t-14.5 -33.5q0 -15 10 -25t25 -10q19 0 34 15z" />
    <glyph glyph-name="utilde" unicode="&#x169;" horiz-adv-x="591" 
d="M536 0h-139l14 84h-7q-25 -39 -68.5 -66.5t-98.5 -27.5q-83 0 -117.5 47t-34.5 116q0 26 5 53l53 322h138l-50 -299q-3 -18 -3 -34q0 -42 21.5 -66t61.5 -24q50 0 82 35.5t41 88.5l50 299h139zM259 709.5q31 36.5 87 36.5q19 0 36 -5.5t38 -15.5q12 -6 24.5 -10.5
t22.5 -4.5q17 0 26.5 11t11.5 26h73q-7 -53 -37 -89t-87 -36q-20 0 -36.5 5.5t-39.5 15.5q-12 6 -24.5 10.5t-22.5 4.5q-16 0 -25.5 -11t-12.5 -26h-73q8 52 39 88.5z" />
    <glyph glyph-name="v" unicode="v" horiz-adv-x="556" 
d="M106 528h131l62 -388h6l188 388h131l-263 -528h-167z" />
    <glyph glyph-name="w" unicode="w" horiz-adv-x="823" 
d="M107 528h129l27 -378h6l169 378h121l47 -378h6l149 378h129l-222 -528h-167l-31 318h-8l-137 -318h-167z" />
    <glyph glyph-name="wacute" unicode="&#x1e83;" horiz-adv-x="823" 
d="M107 528h129l27 -378h6l169 378h121l47 -378h6l149 378h129l-222 -528h-167l-31 318h-8l-137 -318h-167zM459 604l132 195h138l-160 -196z" />
    <glyph glyph-name="wcircumflex" unicode="&#x175;" horiz-adv-x="823" 
d="M107 528h129l27 -378h6l169 378h121l47 -378h6l149 378h129l-222 -528h-167l-31 318h-8l-137 -318h-167zM485 750h103l118 -158h-127l-55 73h-4l-77 -73h-126z" />
    <glyph glyph-name="wdieresis" unicode="&#x1e85;" horiz-adv-x="823" 
d="M107 528h129l27 -378h6l169 378h121l47 -378h6l149 378h129l-222 -528h-167l-31 318h-8l-137 -318h-167zM600.5 637q-17.5 18 -17.5 45q0 37 27.5 64t63.5 27q30 0 47.5 -17.5t17.5 -45.5q0 -36 -27.5 -63.5t-64.5 -27.5q-29 0 -46.5 18zM346.5 637q-17.5 18 -17.5 45
q0 37 27.5 64t63.5 27q30 0 47.5 -17.5t17.5 -45.5q0 -36 -27.5 -63.5t-64.5 -27.5q-29 0 -46.5 18z" />
    <glyph glyph-name="wgrave" unicode="&#x1e81;" horiz-adv-x="823" 
d="M107 528h129l27 -378h6l169 378h121l47 -378h6l149 378h129l-222 -528h-167l-31 318h-8l-137 -318h-167zM359 799h137l69 -195l-110 -1z" />
    <glyph glyph-name="x" unicode="x" horiz-adv-x="575" 
d="M231 264l-118 264h152l69 -181h4l131 181h151l-207 -264l120 -264h-151l-70 182h-4l-129 -182h-152z" />
    <glyph glyph-name="y" unicode="y" horiz-adv-x="522" 
d="M243.5 -141q-20.5 -28 -65.5 -55t-110 -27q-29 0 -48.5 4.5t-23.5 5.5l16 97q15 -4 42 -4q46 0 71.5 21.5t51.5 68.5l24 42l-104 516h140l54 -363h6l180 363h140l-332 -603q-21 -38 -41.5 -66z" />
    <glyph glyph-name="yacute" unicode="&#xfd;" horiz-adv-x="522" 
d="M243.5 -141q-20.5 -28 -65.5 -55t-110 -27q-29 0 -48.5 4.5t-23.5 5.5l16 97q15 -4 42 -4q46 0 71.5 21.5t51.5 68.5l24 42l-104 516h140l54 -363h6l180 363h140l-332 -603q-21 -38 -41.5 -66zM314 604l132 195h138l-160 -196z" />
    <glyph glyph-name="ycircumflex" unicode="&#x177;" horiz-adv-x="522" 
d="M243.5 -141q-20.5 -28 -65.5 -55t-110 -27q-29 0 -48.5 4.5t-23.5 5.5l16 97q15 -4 42 -4q46 0 71.5 21.5t51.5 68.5l24 42l-104 516h140l54 -363h6l180 363h140l-332 -603q-21 -38 -41.5 -66zM340 750h103l118 -158h-127l-55 73h-4l-77 -73h-126z" />
    <glyph glyph-name="ydieresis" unicode="&#xff;" horiz-adv-x="522" 
d="M243.5 -141q-20.5 -28 -65.5 -55t-110 -27q-29 0 -48.5 4.5t-23.5 5.5l16 97q15 -4 42 -4q46 0 71.5 21.5t51.5 68.5l24 42l-104 516h140l54 -363h6l180 363h140l-332 -603q-21 -38 -41.5 -66zM455.5 637q-17.5 18 -17.5 45q0 37 27.5 64t63.5 27q30 0 47.5 -17.5
t17.5 -45.5q0 -36 -27.5 -63.5t-64.5 -27.5q-29 0 -46.5 18zM201.5 637q-17.5 18 -17.5 45q0 37 27.5 64t63.5 27q30 0 47.5 -17.5t17.5 -45.5q0 -36 -27.5 -63.5t-64.5 -27.5q-29 0 -46.5 18z" />
    <glyph glyph-name="uni1EF5" unicode="&#x1ef5;" horiz-adv-x="522" 
d="M243.5 -141q-20.5 -28 -65.5 -55t-110 -27q-29 0 -48.5 4.5t-23.5 5.5l16 97q15 -4 42 -4q46 0 71.5 21.5t51.5 68.5l24 42l-104 516h140l54 -363h6l180 363h140l-332 -603q-21 -38 -41.5 -66zM353 -226.5q-17 17.5 -17 42.5q0 34 26 60t61 26q28 0 45 -17t17 -43
q0 -34 -26.5 -60t-61.5 -26q-27 0 -44 17.5z" />
    <glyph glyph-name="ygrave" unicode="&#x1ef3;" horiz-adv-x="522" 
d="M243.5 -141q-20.5 -28 -65.5 -55t-110 -27q-29 0 -48.5 4.5t-23.5 5.5l16 97q15 -4 42 -4q46 0 71.5 21.5t51.5 68.5l24 42l-104 516h140l54 -363h6l180 363h140l-332 -603q-21 -38 -41.5 -66zM214 799h137l69 -195l-110 -1z" />
    <glyph glyph-name="uni1EF7" unicode="&#x1ef7;" horiz-adv-x="522" 
d="M243.5 -141q-20.5 -28 -65.5 -55t-110 -27q-29 0 -48.5 4.5t-23.5 5.5l16 97q15 -4 42 -4q46 0 71.5 21.5t51.5 68.5l24 42l-104 516h140l54 -363h6l180 363h140l-332 -603q-21 -38 -41.5 -66zM325.5 619.5q9.5 7.5 19.5 14t13 8.5q30 17 45.5 32t15.5 37q0 11 -7.5 17.5
t-21.5 6.5q-15 0 -25.5 -9t-13.5 -22h-98q9 43 46 74t102 31q54 0 82.5 -23t28.5 -59q0 -38 -17.5 -59t-47.5 -40q-3 -2 -14.5 -9.5t-14.5 -15.5h-106q4 9 13.5 16.5z" />
    <glyph glyph-name="uni1EF9" unicode="&#x1ef9;" horiz-adv-x="522" 
d="M243.5 -141q-20.5 -28 -65.5 -55t-110 -27q-29 0 -48.5 4.5t-23.5 5.5l16 97q15 -4 42 -4q46 0 71.5 21.5t51.5 68.5l24 42l-104 516h140l54 -363h6l180 363h140l-332 -603q-21 -38 -41.5 -66zM240 709.5q31 36.5 87 36.5q19 0 36 -5.5t38 -15.5q12 -6 24.5 -10.5
t22.5 -4.5q17 0 26.5 11t11.5 26h73q-7 -53 -37 -89t-87 -36q-20 0 -36.5 5.5t-39.5 15.5q-12 6 -24.5 10.5t-22.5 4.5q-16 0 -25.5 -11t-12.5 -26h-73q8 52 39 88.5z" />
    <glyph glyph-name="z" unicode="z" horiz-adv-x="496" 
d="M69 109l307 309v3h-244l17 109h392l-17 -109l-307 -309l-1 -3h256l-18 -109h-403z" />
    <glyph glyph-name="zacute" unicode="&#x17a;" horiz-adv-x="496" 
d="M69 109l307 309v3h-244l17 109h392l-17 -109l-307 -309l-1 -3h256l-18 -109h-403zM302 604l132 195h138l-160 -196z" />
    <glyph glyph-name="zcaron" unicode="&#x17e;" horiz-adv-x="496" 
d="M69 109l307 309v3h-244l17 109h392l-17 -109l-307 -309l-1 -3h256l-18 -109h-403zM311 750l53 -74h4l79 74h127l-169 -158h-103l-117 158h126z" />
    <glyph glyph-name="zdotaccent" unicode="&#x17c;" horiz-adv-x="496" 
d="M69 109l307 309v3h-244l17 109h392l-17 -109l-307 -309l-1 -3h256l-18 -109h-403zM309.5 637q-17.5 18 -17.5 45q0 37 27.5 64t63.5 27q30 0 47.5 -17.5t17.5 -45.5q0 -36 -27.5 -63.5t-64.5 -27.5q-29 0 -46.5 18z" />
    <glyph glyph-name="a.ss01" horiz-adv-x="564" 
d="M101.5 25.5q-38.5 33.5 -38.5 91.5q0 89 64.5 140t176.5 51h122l6 38q1 6 1 19q0 31 -18.5 51t-62.5 20q-46 0 -74 -22.5t-28 -59.5v-3h-126v3q0 43 27.5 86.5t83.5 72t136 28.5q107 0 152.5 -44t45.5 -112q0 -19 -3 -39l-56 -346h-135l12 74h-8q-19 -28 -63 -55
t-108 -27q-68 0 -106.5 33.5zM363 121q37 31 44 73l5 32h-106q-44 0 -74.5 -18.5t-30.5 -60.5q0 -27 19 -42t54 -15q52 0 89 31z" />
    <glyph glyph-name="aacute.ss01" horiz-adv-x="564" 
d="M101.5 25.5q-38.5 33.5 -38.5 91.5q0 89 64.5 140t176.5 51h122l6 38q1 6 1 19q0 31 -18.5 51t-62.5 20q-46 0 -74 -22.5t-28 -59.5v-3h-126v3q0 43 27.5 86.5t83.5 72t136 28.5q107 0 152.5 -44t45.5 -112q0 -19 -3 -39l-56 -346h-135l12 74h-8q-19 -28 -63 -55
t-108 -27q-68 0 -106.5 33.5zM363 121q37 31 44 73l5 32h-106q-44 0 -74.5 -18.5t-30.5 -60.5q0 -27 19 -42t54 -15q52 0 89 31zM335 610l132 195h138l-160 -196z" />
    <glyph glyph-name="abreve.ss01" horiz-adv-x="564" 
d="M101.5 25.5q-38.5 33.5 -38.5 91.5q0 89 64.5 140t176.5 51h122l6 38q1 6 1 19q0 31 -18.5 51t-62.5 20q-46 0 -74 -22.5t-28 -59.5v-3h-126v3q0 43 27.5 86.5t83.5 72t136 28.5q107 0 152.5 -44t45.5 -112q0 -19 -3 -39l-56 -346h-135l12 74h-8q-19 -28 -63 -55
t-108 -27q-68 0 -106.5 33.5zM363 121q37 31 44 73l5 32h-106q-44 0 -74.5 -18.5t-30.5 -60.5q0 -27 19 -42t54 -15q52 0 89 31zM282.5 639.5q-40.5 31.5 -60.5 91.5h112q5 -22 21.5 -34.5t43.5 -12.5q52 0 81 47h112q-82 -123 -204 -123q-65 0 -105.5 31.5z" />
    <glyph glyph-name="uni1EAF.ss01" horiz-adv-x="564" 
d="M101.5 25.5q-38.5 33.5 -38.5 91.5q0 89 64.5 140t176.5 51h122l6 38q1 6 1 19q0 31 -18.5 51t-62.5 20q-46 0 -74 -22.5t-28 -59.5v-3h-126v3q0 43 27.5 86.5t83.5 72t136 28.5q107 0 152.5 -44t45.5 -112q0 -19 -3 -39l-56 -346h-135l12 74h-8q-19 -28 -63 -55
t-108 -27q-68 0 -106.5 33.5zM363 121q37 31 44 73l5 32h-106q-44 0 -74.5 -18.5t-30.5 -60.5q0 -27 19 -42t54 -15q52 0 89 31zM281.5 639.5q-40.5 31.5 -60.5 91.5h112q5 -22 21.5 -34.5t43.5 -12.5q52 0 81 47h112q-82 -123 -204 -123q-65 0 -105.5 31.5zM361 776
l132 195h138l-160 -196z" />
    <glyph glyph-name="uni1EB7.ss01" horiz-adv-x="564" 
d="M101.5 25.5q-38.5 33.5 -38.5 91.5q0 89 64.5 140t176.5 51h122l6 38q1 6 1 19q0 31 -18.5 51t-62.5 20q-46 0 -74 -22.5t-28 -59.5v-3h-126v3q0 43 27.5 86.5t83.5 72t136 28.5q107 0 152.5 -44t45.5 -112q0 -19 -3 -39l-56 -346h-135l12 74h-8q-19 -28 -63 -55
t-108 -27q-68 0 -106.5 33.5zM363 121q37 31 44 73l5 32h-106q-44 0 -74.5 -18.5t-30.5 -60.5q0 -27 19 -42t54 -15q52 0 89 31zM282.5 639.5q-40.5 31.5 -60.5 91.5h112q5 -22 21.5 -34.5t43.5 -12.5q52 0 81 47h112q-82 -123 -204 -123q-65 0 -105.5 31.5zM204 -226.5
q-17 17.5 -17 42.5q0 34 26 60t61 26q28 0 45 -17t17 -43q0 -34 -26.5 -60t-61.5 -26q-27 0 -44 17.5z" />
    <glyph glyph-name="uni1EB1.ss01" horiz-adv-x="564" 
d="M101.5 25.5q-38.5 33.5 -38.5 91.5q0 89 64.5 140t176.5 51h122l6 38q1 6 1 19q0 31 -18.5 51t-62.5 20q-46 0 -74 -22.5t-28 -59.5v-3h-126v3q0 43 27.5 86.5t83.5 72t136 28.5q107 0 152.5 -44t45.5 -112q0 -19 -3 -39l-56 -346h-135l12 74h-8q-19 -28 -63 -55
t-108 -27q-68 0 -106.5 33.5zM363 121q37 31 44 73l5 32h-106q-44 0 -74.5 -18.5t-30.5 -60.5q0 -27 19 -42t54 -15q52 0 89 31zM287.5 639.5q-40.5 31.5 -60.5 91.5h112q5 -22 21.5 -34.5t43.5 -12.5q52 0 81 47h112q-82 -123 -204 -123q-65 0 -105.5 31.5zM267 971h137
l69 -195l-110 -1z" />
    <glyph glyph-name="uni1EB3.ss01" horiz-adv-x="564" 
d="M101.5 25.5q-38.5 33.5 -38.5 91.5q0 89 64.5 140t176.5 51h122l6 38q1 6 1 19q0 31 -18.5 51t-62.5 20q-46 0 -74 -22.5t-28 -59.5v-3h-126v3q0 43 27.5 86.5t83.5 72t136 28.5q107 0 152.5 -44t45.5 -112q0 -19 -3 -39l-56 -346h-135l12 74h-8q-19 -28 -63 -55
t-108 -27q-68 0 -106.5 33.5zM363 121q37 31 44 73l5 32h-106q-44 0 -74.5 -18.5t-30.5 -60.5q0 -27 19 -42t54 -15q52 0 89 31zM281.5 639.5q-40.5 31.5 -60.5 91.5h112q5 -22 21.5 -34.5t43.5 -12.5q52 0 81 47h112q-82 -123 -204 -123q-65 0 -105.5 31.5zM372.5 791.5
q9.5 7.5 19.5 14t13 8.5q30 17 45.5 32t15.5 37q0 11 -7.5 17.5t-21.5 6.5q-15 0 -25.5 -9t-13.5 -22h-98q9 43 46 74t102 31q54 0 82.5 -23t28.5 -59q0 -38 -17.5 -59t-47.5 -40q-3 -2 -14.5 -9.5t-14.5 -15.5h-106q4 9 13.5 16.5z" />
    <glyph glyph-name="uni1EB5.ss01" horiz-adv-x="564" 
d="M101.5 25.5q-38.5 33.5 -38.5 91.5q0 89 64.5 140t176.5 51h122l6 38q1 6 1 19q0 31 -18.5 51t-62.5 20q-46 0 -74 -22.5t-28 -59.5v-3h-126v3q0 43 27.5 86.5t83.5 72t136 28.5q107 0 152.5 -44t45.5 -112q0 -19 -3 -39l-56 -346h-135l12 74h-8q-19 -28 -63 -55
t-108 -27q-68 0 -106.5 33.5zM363 121q37 31 44 73l5 32h-106q-44 0 -74.5 -18.5t-30.5 -60.5q0 -27 19 -42t54 -15q52 0 89 31zM283.5 639.5q-40.5 31.5 -60.5 91.5h112q5 -22 21.5 -34.5t43.5 -12.5q52 0 81 47h112q-82 -123 -204 -123q-65 0 -105.5 31.5zM288 881.5
q31 36.5 87 36.5q19 0 36 -5.5t38 -15.5q12 -6 24.5 -10.5t22.5 -4.5q17 0 26.5 11t11.5 26h73q-7 -53 -37 -89t-87 -36q-20 0 -36.5 5.5t-39.5 15.5q-12 6 -24.5 10.5t-22.5 4.5q-16 0 -25.5 -11t-12.5 -26h-73q8 52 39 88.5z" />
    <glyph glyph-name="acircumflex.ss01" horiz-adv-x="564" 
d="M101.5 25.5q-38.5 33.5 -38.5 91.5q0 89 64.5 140t176.5 51h122l6 38q1 6 1 19q0 31 -18.5 51t-62.5 20q-46 0 -74 -22.5t-28 -59.5v-3h-126v3q0 43 27.5 86.5t83.5 72t136 28.5q107 0 152.5 -44t45.5 -112q0 -19 -3 -39l-56 -346h-135l12 74h-8q-19 -28 -63 -55
t-108 -27q-68 0 -106.5 33.5zM363 121q37 31 44 73l5 32h-106q-44 0 -74.5 -18.5t-30.5 -60.5q0 -27 19 -42t54 -15q52 0 89 31zM361 756h103l118 -158h-127l-55 73h-4l-77 -73h-126z" />
    <glyph glyph-name="uni1EA5.ss01" horiz-adv-x="564" 
d="M101.5 25.5q-38.5 33.5 -38.5 91.5q0 89 64.5 140t176.5 51h122l6 38q1 6 1 19q0 31 -18.5 51t-62.5 20q-46 0 -74 -22.5t-28 -59.5v-3h-126v3q0 43 27.5 86.5t83.5 72t136 28.5q107 0 152.5 -44t45.5 -112q0 -19 -3 -39l-56 -346h-135l12 74h-8q-19 -28 -63 -55
t-108 -27q-68 0 -106.5 33.5zM363 121q37 31 44 73l5 32h-106q-44 0 -74.5 -18.5t-30.5 -60.5q0 -27 19 -42t54 -15q52 0 89 31zM360 756h103l118 -158h-127l-55 73h-4l-77 -73h-126zM526 727l132 195h138l-160 -196z" />
    <glyph glyph-name="uni1EAD.ss01" horiz-adv-x="564" 
d="M101.5 25.5q-38.5 33.5 -38.5 91.5q0 89 64.5 140t176.5 51h122l6 38q1 6 1 19q0 31 -18.5 51t-62.5 20q-46 0 -74 -22.5t-28 -59.5v-3h-126v3q0 43 27.5 86.5t83.5 72t136 28.5q107 0 152.5 -44t45.5 -112q0 -19 -3 -39l-56 -346h-135l12 74h-8q-19 -28 -63 -55
t-108 -27q-68 0 -106.5 33.5zM363 121q37 31 44 73l5 32h-106q-44 0 -74.5 -18.5t-30.5 -60.5q0 -27 19 -42t54 -15q52 0 89 31zM361 756h103l118 -158h-127l-55 73h-4l-77 -73h-126zM204 -226.5q-17 17.5 -17 42.5q0 34 26 60t61 26q28 0 45 -17t17 -43q0 -34 -26.5 -60
t-61.5 -26q-27 0 -44 17.5z" />
    <glyph glyph-name="uni1EA7.ss01" horiz-adv-x="564" 
d="M101.5 25.5q-38.5 33.5 -38.5 91.5q0 89 64.5 140t176.5 51h122l6 38q1 6 1 19q0 31 -18.5 51t-62.5 20q-46 0 -74 -22.5t-28 -59.5v-3h-126v3q0 43 27.5 86.5t83.5 72t136 28.5q107 0 152.5 -44t45.5 -112q0 -19 -3 -39l-56 -346h-135l12 74h-8q-19 -28 -63 -55
t-108 -27q-68 0 -106.5 33.5zM363 121q37 31 44 73l5 32h-106q-44 0 -74.5 -18.5t-30.5 -60.5q0 -27 19 -42t54 -15q52 0 89 31zM361 756h103l118 -158h-127l-55 73h-4l-77 -73h-126zM444 922h137l69 -195l-110 -1z" />
    <glyph glyph-name="uni1EA9.ss01" horiz-adv-x="564" 
d="M101.5 25.5q-38.5 33.5 -38.5 91.5q0 89 64.5 140t176.5 51h122l6 38q1 6 1 19q0 31 -18.5 51t-62.5 20q-46 0 -74 -22.5t-28 -59.5v-3h-126v3q0 43 27.5 86.5t83.5 72t136 28.5q107 0 152.5 -44t45.5 -112q0 -19 -3 -39l-56 -346h-135l12 74h-8q-19 -28 -63 -55
t-108 -27q-68 0 -106.5 33.5zM363 121q37 31 44 73l5 32h-106q-44 0 -74.5 -18.5t-30.5 -60.5q0 -27 19 -42t54 -15q52 0 89 31zM360 756h103l118 -158h-127l-55 73h-4l-77 -73h-126zM539.5 753.5q9.5 7.5 19.5 14t13 8.5q30 17 45.5 32t15.5 37q0 11 -7.5 17.5t-21.5 6.5
q-15 0 -25.5 -9t-13.5 -22h-98q9 43 46 74t102 31q54 0 82.5 -23t28.5 -59q0 -38 -17.5 -59t-47.5 -40q-3 -2 -14.5 -9.5t-14.5 -15.5h-106q4 9 13.5 16.5z" />
    <glyph glyph-name="uni1EAB.ss01" horiz-adv-x="564" 
d="M101.5 25.5q-38.5 33.5 -38.5 91.5q0 89 64.5 140t176.5 51h122l6 38q1 6 1 19q0 31 -18.5 51t-62.5 20q-46 0 -74 -22.5t-28 -59.5v-3h-126v3q0 43 27.5 86.5t83.5 72t136 28.5q107 0 152.5 -44t45.5 -112q0 -19 -3 -39l-56 -346h-135l12 74h-8q-19 -28 -63 -55
t-108 -27q-68 0 -106.5 33.5zM363 121q37 31 44 73l5 32h-106q-44 0 -74.5 -18.5t-30.5 -60.5q0 -27 19 -42t54 -15q52 0 89 31zM358 756h103l118 -158h-127l-55 73h-4l-77 -73h-126zM280 891.5q31 36.5 87 36.5q19 0 36 -5.5t38 -15.5q12 -6 24.5 -10.5t22.5 -4.5
q17 0 26.5 11t11.5 26h73q-7 -53 -37 -89t-87 -36q-20 0 -36.5 5.5t-39.5 15.5q-12 6 -24.5 10.5t-22.5 4.5q-16 0 -25.5 -11t-12.5 -26h-73q8 52 39 88.5z" />
    <glyph glyph-name="adieresis.ss01" horiz-adv-x="564" 
d="M101.5 25.5q-38.5 33.5 -38.5 91.5q0 89 64.5 140t176.5 51h122l6 38q1 6 1 19q0 31 -18.5 51t-62.5 20q-46 0 -74 -22.5t-28 -59.5v-3h-126v3q0 43 27.5 86.5t83.5 72t136 28.5q107 0 152.5 -44t45.5 -112q0 -19 -3 -39l-56 -346h-135l12 74h-8q-19 -28 -63 -55
t-108 -27q-68 0 -106.5 33.5zM363 121q37 31 44 73l5 32h-106q-44 0 -74.5 -18.5t-30.5 -60.5q0 -27 19 -42t54 -15q52 0 89 31zM476.5 643q-17.5 18 -17.5 45q0 37 27.5 64t63.5 27q30 0 47.5 -17.5t17.5 -45.5q0 -36 -27.5 -63.5t-64.5 -27.5q-29 0 -46.5 18zM222.5 643
q-17.5 18 -17.5 45q0 37 27.5 64t63.5 27q30 0 47.5 -17.5t17.5 -45.5q0 -36 -27.5 -63.5t-64.5 -27.5q-29 0 -46.5 18z" />
    <glyph glyph-name="uni1EA1.ss01" horiz-adv-x="564" 
d="M101.5 25.5q-38.5 33.5 -38.5 91.5q0 89 64.5 140t176.5 51h122l6 38q1 6 1 19q0 31 -18.5 51t-62.5 20q-46 0 -74 -22.5t-28 -59.5v-3h-126v3q0 43 27.5 86.5t83.5 72t136 28.5q107 0 152.5 -44t45.5 -112q0 -19 -3 -39l-56 -346h-135l12 74h-8q-19 -28 -63 -55
t-108 -27q-68 0 -106.5 33.5zM363 121q37 31 44 73l5 32h-106q-44 0 -74.5 -18.5t-30.5 -60.5q0 -27 19 -42t54 -15q52 0 89 31zM204 -226.5q-17 17.5 -17 42.5q0 34 26 60t61 26q28 0 45 -17t17 -43q0 -34 -26.5 -60t-61.5 -26q-27 0 -44 17.5z" />
    <glyph glyph-name="agrave.ss01" horiz-adv-x="564" 
d="M101.5 25.5q-38.5 33.5 -38.5 91.5q0 89 64.5 140t176.5 51h122l6 38q1 6 1 19q0 31 -18.5 51t-62.5 20q-46 0 -74 -22.5t-28 -59.5v-3h-126v3q0 43 27.5 86.5t83.5 72t136 28.5q107 0 152.5 -44t45.5 -112q0 -19 -3 -39l-56 -346h-135l12 74h-8q-19 -28 -63 -55
t-108 -27q-68 0 -106.5 33.5zM363 121q37 31 44 73l5 32h-106q-44 0 -74.5 -18.5t-30.5 -60.5q0 -27 19 -42t54 -15q52 0 89 31zM235 805h137l69 -195l-110 -1z" />
    <glyph glyph-name="uni1EA3.ss01" horiz-adv-x="564" 
d="M101.5 25.5q-38.5 33.5 -38.5 91.5q0 89 64.5 140t176.5 51h122l6 38q1 6 1 19q0 31 -18.5 51t-62.5 20q-46 0 -74 -22.5t-28 -59.5v-3h-126v3q0 43 27.5 86.5t83.5 72t136 28.5q107 0 152.5 -44t45.5 -112q0 -19 -3 -39l-56 -346h-135l12 74h-8q-19 -28 -63 -55
t-108 -27q-68 0 -106.5 33.5zM363 121q37 31 44 73l5 32h-106q-44 0 -74.5 -18.5t-30.5 -60.5q0 -27 19 -42t54 -15q52 0 89 31zM346.5 625.5q9.5 7.5 19.5 14t13 8.5q30 17 45.5 32t15.5 37q0 11 -7.5 17.5t-21.5 6.5q-15 0 -25.5 -9t-13.5 -22h-98q9 43 46 74t102 31
q54 0 82.5 -23t28.5 -59q0 -38 -17.5 -59t-47.5 -40q-3 -2 -14.5 -9.5t-14.5 -15.5h-106q4 9 13.5 16.5z" />
    <glyph glyph-name="amacron.ss01" horiz-adv-x="564" 
d="M101.5 25.5q-38.5 33.5 -38.5 91.5q0 89 64.5 140t176.5 51h122l6 38q1 6 1 19q0 31 -18.5 51t-62.5 20q-46 0 -74 -22.5t-28 -59.5v-3h-126v3q0 43 27.5 86.5t83.5 72t136 28.5q107 0 152.5 -44t45.5 -112q0 -19 -3 -39l-56 -346h-135l12 74h-8q-19 -28 -63 -55
t-108 -27q-68 0 -106.5 33.5zM363 121q37 31 44 73l5 32h-106q-44 0 -74.5 -18.5t-30.5 -60.5q0 -27 19 -42t54 -15q52 0 89 31zM240 687h320l-10 -64h-320z" />
    <glyph glyph-name="aring.ss01" horiz-adv-x="564" 
d="M101.5 25.5q-38.5 33.5 -38.5 91.5q0 89 64.5 140t176.5 51h122l6 38q1 6 1 19q0 31 -18.5 51t-62.5 20q-46 0 -74 -22.5t-28 -59.5v-3h-126v3q0 43 27.5 86.5t83.5 72t136 28.5q107 0 152.5 -44t45.5 -112q0 -19 -3 -39l-56 -346h-135l12 74h-8q-19 -28 -63 -55
t-108 -27q-68 0 -106.5 33.5zM363 121q37 31 44 73l5 32h-106q-44 0 -74.5 -18.5t-30.5 -60.5q0 -27 19 -42t54 -15q52 0 89 31zM327 631q-24 24 -24 59q0 29 16.5 55.5t43.5 43t57 16.5q36 0 60 -24t24 -59q0 -29 -16.5 -56t-43.5 -43t-56 -16q-37 0 -61 24zM431 679
q15 15 15 34q0 14 -10 24t-26 10q-19 0 -33.5 -14.5t-14.5 -33.5q0 -15 10 -25t25 -10q19 0 34 15z" />
    <glyph glyph-name="atilde.ss01" horiz-adv-x="564" 
d="M101.5 25.5q-38.5 33.5 -38.5 91.5q0 89 64.5 140t176.5 51h122l6 38q1 6 1 19q0 31 -18.5 51t-62.5 20q-46 0 -74 -22.5t-28 -59.5v-3h-126v3q0 43 27.5 86.5t83.5 72t136 28.5q107 0 152.5 -44t45.5 -112q0 -19 -3 -39l-56 -346h-135l12 74h-8q-19 -28 -63 -55
t-108 -27q-68 0 -106.5 33.5zM363 121q37 31 44 73l5 32h-106q-44 0 -74.5 -18.5t-30.5 -60.5q0 -27 19 -42t54 -15q52 0 89 31zM261 715.5q31 36.5 87 36.5q19 0 36 -5.5t38 -15.5q12 -6 24.5 -10.5t22.5 -4.5q17 0 26.5 11t11.5 26h73q-7 -53 -37 -89t-87 -36
q-20 0 -36.5 5.5t-39.5 15.5q-12 6 -24.5 10.5t-22.5 4.5q-16 0 -25.5 -11t-12.5 -26h-73q8 52 39 88.5z" />
    <glyph glyph-name="ae.ss01" horiz-adv-x="907" 
d="M857 489q55 -52 55 -153q0 -37 -5 -66l-7 -43h-357l-1 -13q-1 -5 -1 -15q0 -43 24 -70t72 -27q41 0 72 20.5t46 57.5h135q-31 -83 -100.5 -135.5t-169.5 -52.5q-65 0 -111 23.5t-71 66.5q-31 -40 -86 -65t-120 -25q-75 0 -120.5 34.5t-45.5 97.5q0 92 71 139t188 47h100
l4 29q1 6 1 19q0 74 -77 74q-40 0 -69 -20t-39 -54h-129q20 70 79 125.5t175 55.5q110 0 161 -58q74 60 178 60q93 0 148 -52zM783 341q0 42 -24 67t-67 25q-51 0 -87.5 -30.5t-43.5 -81.5l-1 -11h221l1 11q1 7 1 20zM411 226h-93q-46 0 -81 -18t-35 -62q0 -26 19.5 -41
t53.5 -15q51 0 87.5 31t42.5 73z" />
    <glyph glyph-name="b.ss01" horiz-adv-x="614" 
d="M264 23q-33 31 -45 67h-7l-16 -90h-139l123 750h140l-51 -303h8q24 35 66 64.5t110 29.5q79 0 128.5 -50.5t49.5 -132.5q0 -24 -4 -45l-16 -96q-11 -65 -46.5 -116.5t-88 -80t-112.5 -28.5q-67 0 -100 31zM425 140.5q38 36.5 49 94.5l10 60q3 15 3 30q0 47 -26.5 75
t-74.5 28q-56 0 -94 -37t-48 -96l-10 -60q-3 -16 -3 -31q0 -45 26.5 -72.5t73.5 -27.5q56 0 94 36.5z" />
    <glyph glyph-name="c.ss01" 
d="M130 46q-55 54 -55 141q0 27 4 48l11 60q12 69 50.5 125t100 88.5t137.5 32.5q72 0 120 -29t69 -77t17 -107h-131q2 44 -21 72t-72 28q-55 0 -92 -38t-47 -97l-9 -55q-3 -16 -3 -33q0 -46 25 -73.5t72 -27.5q48 0 81 28t46 72h131q-24 -91 -96 -151.5t-181 -60.5
q-102 0 -157 54z" />
    <glyph glyph-name="cacute.ss01" 
d="M130 46q-55 54 -55 141q0 27 4 48l11 60q12 69 50.5 125t100 88.5t137.5 32.5q72 0 120 -29t69 -77t17 -107h-131q2 44 -21 72t-72 28q-55 0 -92 -38t-47 -97l-9 -55q-3 -16 -3 -33q0 -46 25 -73.5t72 -27.5q48 0 81 28t46 72h131q-24 -91 -96 -151.5t-181 -60.5
q-102 0 -157 54zM336 604l132 195h138l-160 -196z" />
    <glyph glyph-name="ccaron.ss01" 
d="M130 46q-55 54 -55 141q0 27 4 48l11 60q12 69 50.5 125t100 88.5t137.5 32.5q72 0 120 -29t69 -77t17 -107h-131q2 44 -21 72t-72 28q-55 0 -92 -38t-47 -97l-9 -55q-3 -16 -3 -33q0 -46 25 -73.5t72 -27.5q48 0 81 28t46 72h131q-24 -91 -96 -151.5t-181 -60.5
q-102 0 -157 54zM344 750l53 -74h4l79 74h127l-169 -158h-103l-117 158h126z" />
    <glyph glyph-name="ccedilla.ss01" 
d="M453 328q2 44 -21 72t-72 28q-55 0 -92 -38t-47 -97l-9 -55q-3 -16 -3 -33q0 -46 25 -73.5t72 -27.5q48 0 81 28t46 72h131q-22 -84 -85 -142.5t-159 -67.5l-16 -34h15q43 0 65 -21.5t22 -55.5q0 -35 -18.5 -64.5t-51 -46.5t-72.5 -17q-21 0 -39 4.5t-28 9.5l11 68
q33 -9 67 -9q29 0 47 13t18 33q0 14 -12 20.5t-27 6.5h-90l1 4l39 89q-85 10 -130.5 63t-45.5 131q0 26 4 47l11 60q12 69 50.5 125t100 88.5t137.5 32.5q72 0 120 -29t69 -77t17 -107h-131z" />
    <glyph glyph-name="cdotaccent.ss01" 
d="M130 46q-55 54 -55 141q0 27 4 48l11 60q12 69 50.5 125t100 88.5t137.5 32.5q72 0 120 -29t69 -77t17 -107h-131q2 44 -21 72t-72 28q-55 0 -92 -38t-47 -97l-9 -55q-3 -16 -3 -33q0 -46 25 -73.5t72 -27.5q48 0 81 28t46 72h131q-24 -91 -96 -151.5t-181 -60.5
q-102 0 -157 54zM342.5 637q-17.5 18 -17.5 45q0 37 27.5 64t63.5 27q30 0 47.5 -17.5t17.5 -45.5q0 -36 -27.5 -63.5t-64.5 -27.5q-29 0 -46.5 18z" />
    <glyph glyph-name="d.ss01" horiz-adv-x="614" 
d="M119.5 42q-48.5 50 -48.5 131q0 14 4 44l16 96q11 66 47 118t89 81t113 29q67 0 100 -30t44 -64h7l50 303h140l-124 -750h-139l15 90h-7q-25 -37 -68 -67.5t-111 -30.5q-79 0 -127.5 50zM409.5 140.5q38.5 36.5 48.5 94.5l10 60q3 17 3 31q0 47 -26.5 74.5t-74.5 27.5
q-55 0 -93 -37t-49 -96l-10 -60q-3 -15 -3 -29q0 -47 26.5 -74.5t74.5 -27.5q55 0 93.5 36.5z" />
    <glyph glyph-name="eth.ss01" horiz-adv-x="621" 
d="M175.5 18.5q-50.5 26.5 -75.5 72t-25 102.5q0 25 4 45l12 75q11 66 47.5 118t89.5 81t113 29q67 0 100 -30t44 -64h11l4 27q1 12 1 34q0 83 -28 124l-90 -47l-28 66l65 34q-25 15 -52.5 21.5t-47.5 5.5l17 104q49 0 106 -14t104 -50l99 52l27 -66l-76 -40q44 -63 44 -154
q0 -38 -7 -77l-35 -210q-12 -71 -51.5 -131.5t-103.5 -97t-145 -36.5q-73 0 -123.5 26.5zM410 140.5q38 36.5 48 94.5l11 60q3 15 3 30q0 47 -26.5 75t-74.5 28q-56 0 -94 -37t-48 -96l-11 -60q-3 -15 -3 -29q0 -46 27 -74t75 -28q55 0 93 36.5z" />
    <glyph glyph-name="dcaron.ss01" horiz-adv-x="784" 
d="M119.5 42q-48.5 50 -48.5 131q0 14 4 44l16 96q11 66 47 118t89 81t113 29q67 0 100 -30t44 -64h7l50 303h140l-124 -750h-139l15 90h-7q-25 -37 -68 -67.5t-111 -30.5q-79 0 -127.5 50zM409.5 140.5q38.5 36.5 48.5 94.5l10 60q3 17 3 31q0 47 -26.5 74.5t-74.5 27.5
q-55 0 -93 -37t-49 -96l-10 -60q-3 -15 -3 -29q0 -47 26.5 -74.5t74.5 -27.5q55 0 93.5 36.5zM720 543q41 15 63 40t22 57q0 19 -10 24t-30 6q-29 1 -40.5 15t-11.5 34q0 41 28 67.5t71 26.5q41 0 59 -20.5t18 -52.5q0 -14 -3 -26l-7 -44q-26 -139 -167 -172z" />
    <glyph glyph-name="dcroat.ss01" horiz-adv-x="627" 
d="M716 589h-62l-97 -589h-139l15 90h-7q-25 -37 -68 -67.5t-111 -30.5q-79 0 -127.5 50t-48.5 131q0 14 4 44l16 96q11 66 47 118t89 81t113 29q67 0 100 -30t44 -64h7l23 142h-112l15 90h112l12 71h140l-12 -71h62zM471 326q0 47 -26.5 74.5t-74.5 27.5q-55 0 -93 -37
t-49 -96l-10 -60q-3 -15 -3 -29q0 -47 26.5 -74.5t74.5 -27.5q55 0 93.5 36.5t48.5 94.5l10 60q3 17 3 31z" />
    <glyph glyph-name="e.ss01" horiz-adv-x="568" 
d="M129.5 46q-54.5 54 -54.5 141q0 27 4 48l11 60q12 69 50 125t98.5 88.5t135.5 32.5q93 0 148 -52t55 -154q0 -36 -5 -65l-7 -43h-355l-2 -13q-2 -14 -2 -21q0 -39 24.5 -65t71.5 -26q42 0 72 20.5t45 57.5h135q-30 -83 -100.5 -135.5t-169.5 -52.5q-100 0 -154.5 54z
M446 317l2 10q3 14 3 25q0 39 -25.5 63t-68.5 24q-50 0 -85.5 -31t-44.5 -81l-2 -10h221z" />
    <glyph glyph-name="eacute.ss01" horiz-adv-x="568" 
d="M129.5 46q-54.5 54 -54.5 141q0 27 4 48l11 60q12 69 50 125t98.5 88.5t135.5 32.5q93 0 148 -52t55 -154q0 -36 -5 -65l-7 -43h-355l-2 -13q-2 -14 -2 -21q0 -39 24.5 -65t71.5 -26q42 0 72 20.5t45 57.5h135q-30 -83 -100.5 -135.5t-169.5 -52.5q-100 0 -154.5 54z
M446 317l2 10q3 14 3 25q0 39 -25.5 63t-68.5 24q-50 0 -85.5 -31t-44.5 -81l-2 -10h221zM332 604l132 195h138l-160 -196z" />
    <glyph glyph-name="ecaron.ss01" horiz-adv-x="568" 
d="M129.5 46q-54.5 54 -54.5 141q0 27 4 48l11 60q12 69 50 125t98.5 88.5t135.5 32.5q93 0 148 -52t55 -154q0 -36 -5 -65l-7 -43h-355l-2 -13q-2 -14 -2 -21q0 -39 24.5 -65t71.5 -26q42 0 72 20.5t45 57.5h135q-30 -83 -100.5 -135.5t-169.5 -52.5q-100 0 -154.5 54z
M446 317l2 10q3 14 3 25q0 39 -25.5 63t-68.5 24q-50 0 -85.5 -31t-44.5 -81l-2 -10h221zM340 750l53 -74h4l79 74h127l-169 -158h-103l-117 158h126z" />
    <glyph glyph-name="ecircumflex.ss01" horiz-adv-x="568" 
d="M129.5 46q-54.5 54 -54.5 141q0 27 4 48l11 60q12 69 50 125t98.5 88.5t135.5 32.5q93 0 148 -52t55 -154q0 -36 -5 -65l-7 -43h-355l-2 -13q-2 -14 -2 -21q0 -39 24.5 -65t71.5 -26q42 0 72 20.5t45 57.5h135q-30 -83 -100.5 -135.5t-169.5 -52.5q-100 0 -154.5 54z
M446 317l2 10q3 14 3 25q0 39 -25.5 63t-68.5 24q-50 0 -85.5 -31t-44.5 -81l-2 -10h221zM358 750h103l118 -158h-127l-55 73h-4l-77 -73h-126z" />
    <glyph glyph-name="uni1EBF.ss01" horiz-adv-x="568" 
d="M129.5 46q-54.5 54 -54.5 141q0 27 4 48l11 60q12 69 50 125t98.5 88.5t135.5 32.5q93 0 148 -52t55 -154q0 -36 -5 -65l-7 -43h-355l-2 -13q-2 -14 -2 -21q0 -39 24.5 -65t71.5 -26q42 0 72 20.5t45 57.5h135q-30 -83 -100.5 -135.5t-169.5 -52.5q-100 0 -154.5 54z
M446 317l2 10q3 14 3 25q0 39 -25.5 63t-68.5 24q-50 0 -85.5 -31t-44.5 -81l-2 -10h221zM357 750h103l118 -158h-127l-55 73h-4l-77 -73h-126zM523 721l132 195h138l-160 -196z" />
    <glyph glyph-name="uni1EC7.ss01" horiz-adv-x="568" 
d="M129.5 46q-54.5 54 -54.5 141q0 27 4 48l11 60q12 69 50 125t98.5 88.5t135.5 32.5q93 0 148 -52t55 -154q0 -36 -5 -65l-7 -43h-355l-2 -13q-2 -14 -2 -21q0 -39 24.5 -65t71.5 -26q42 0 72 20.5t45 57.5h135q-30 -83 -100.5 -135.5t-169.5 -52.5q-100 0 -154.5 54z
M446 317l2 10q3 14 3 25q0 39 -25.5 63t-68.5 24q-50 0 -85.5 -31t-44.5 -81l-2 -10h221zM202 -226.5q-17 17.5 -17 42.5q0 34 26 60t61 26q28 0 45 -17t17 -43q0 -34 -26.5 -60t-61.5 -26q-27 0 -44 17.5zM358 750h103l118 -158h-127l-55 73h-4l-77 -73h-126z" />
    <glyph glyph-name="uni1EC1.ss01" horiz-adv-x="568" 
d="M129.5 46q-54.5 54 -54.5 141q0 27 4 48l11 60q12 69 50 125t98.5 88.5t135.5 32.5q93 0 148 -52t55 -154q0 -36 -5 -65l-7 -43h-355l-2 -13q-2 -14 -2 -21q0 -39 24.5 -65t71.5 -26q42 0 72 20.5t45 57.5h135q-30 -83 -100.5 -135.5t-169.5 -52.5q-100 0 -154.5 54z
M446 317l2 10q3 14 3 25q0 39 -25.5 63t-68.5 24q-50 0 -85.5 -31t-44.5 -81l-2 -10h221zM357 750h103l118 -158h-127l-55 73h-4l-77 -73h-126zM440 916h137l69 -195l-110 -1z" />
    <glyph glyph-name="uni1EC3.ss01" horiz-adv-x="568" 
d="M129.5 46q-54.5 54 -54.5 141q0 27 4 48l11 60q12 69 50 125t98.5 88.5t135.5 32.5q93 0 148 -52t55 -154q0 -36 -5 -65l-7 -43h-355l-2 -13q-2 -14 -2 -21q0 -39 24.5 -65t71.5 -26q42 0 72 20.5t45 57.5h135q-30 -83 -100.5 -135.5t-169.5 -52.5q-100 0 -154.5 54z
M446 317l2 10q3 14 3 25q0 39 -25.5 63t-68.5 24q-50 0 -85.5 -31t-44.5 -81l-2 -10h221zM357 750h103l118 -158h-127l-55 73h-4l-77 -73h-126zM536.5 747.5q9.5 7.5 19.5 14t13 8.5q30 17 45.5 32t15.5 37q0 11 -7.5 17.5t-21.5 6.5q-15 0 -25.5 -9t-13.5 -22h-98
q9 43 46 74t102 31q54 0 82.5 -23t28.5 -59q0 -38 -17.5 -59t-47.5 -40q-3 -2 -14.5 -9.5t-14.5 -15.5h-106q4 9 13.5 16.5z" />
    <glyph glyph-name="uni1EC5.ss01" horiz-adv-x="568" 
d="M129.5 46q-54.5 54 -54.5 141q0 27 4 48l11 60q12 69 50 125t98.5 88.5t135.5 32.5q93 0 148 -52t55 -154q0 -36 -5 -65l-7 -43h-355l-2 -13q-2 -14 -2 -21q0 -39 24.5 -65t71.5 -26q42 0 72 20.5t45 57.5h135q-30 -83 -100.5 -135.5t-169.5 -52.5q-100 0 -154.5 54z
M446 317l2 10q3 14 3 25q0 39 -25.5 63t-68.5 24q-50 0 -85.5 -31t-44.5 -81l-2 -10h221zM355 750h103l118 -158h-127l-55 73h-4l-77 -73h-126zM277 885.5q31 36.5 87 36.5q19 0 36 -5.5t38 -15.5q12 -6 24.5 -10.5t22.5 -4.5q17 0 26.5 11t11.5 26h73q-7 -53 -37 -89
t-87 -36q-20 0 -36.5 5.5t-39.5 15.5q-12 6 -24.5 10.5t-22.5 4.5q-16 0 -25.5 -11t-12.5 -26h-73q8 52 39 88.5z" />
    <glyph glyph-name="edieresis.ss01" horiz-adv-x="568" 
d="M129.5 46q-54.5 54 -54.5 141q0 27 4 48l11 60q12 69 50 125t98.5 88.5t135.5 32.5q93 0 148 -52t55 -154q0 -36 -5 -65l-7 -43h-355l-2 -13q-2 -14 -2 -21q0 -39 24.5 -65t71.5 -26q42 0 72 20.5t45 57.5h135q-30 -83 -100.5 -135.5t-169.5 -52.5q-100 0 -154.5 54z
M446 317l2 10q3 14 3 25q0 39 -25.5 63t-68.5 24q-50 0 -85.5 -31t-44.5 -81l-2 -10h221zM473.5 637q-17.5 18 -17.5 45q0 37 27.5 64t63.5 27q30 0 47.5 -17.5t17.5 -45.5q0 -36 -27.5 -63.5t-64.5 -27.5q-29 0 -46.5 18zM219.5 637q-17.5 18 -17.5 45q0 37 27.5 64
t63.5 27q30 0 47.5 -17.5t17.5 -45.5q0 -36 -27.5 -63.5t-64.5 -27.5q-29 0 -46.5 18z" />
    <glyph glyph-name="edotaccent.ss01" horiz-adv-x="568" 
d="M129.5 46q-54.5 54 -54.5 141q0 27 4 48l11 60q12 69 50 125t98.5 88.5t135.5 32.5q93 0 148 -52t55 -154q0 -36 -5 -65l-7 -43h-355l-2 -13q-2 -14 -2 -21q0 -39 24.5 -65t71.5 -26q42 0 72 20.5t45 57.5h135q-30 -83 -100.5 -135.5t-169.5 -52.5q-100 0 -154.5 54z
M446 317l2 10q3 14 3 25q0 39 -25.5 63t-68.5 24q-50 0 -85.5 -31t-44.5 -81l-2 -10h221zM338.5 637q-17.5 18 -17.5 45q0 37 27.5 64t63.5 27q30 0 47.5 -17.5t17.5 -45.5q0 -36 -27.5 -63.5t-64.5 -27.5q-29 0 -46.5 18z" />
    <glyph glyph-name="uni1EB9.ss01" horiz-adv-x="568" 
d="M129.5 46q-54.5 54 -54.5 141q0 27 4 48l11 60q12 69 50 125t98.5 88.5t135.5 32.5q93 0 148 -52t55 -154q0 -36 -5 -65l-7 -43h-355l-2 -13q-2 -14 -2 -21q0 -39 24.5 -65t71.5 -26q42 0 72 20.5t45 57.5h135q-30 -83 -100.5 -135.5t-169.5 -52.5q-100 0 -154.5 54z
M446 317l2 10q3 14 3 25q0 39 -25.5 63t-68.5 24q-50 0 -85.5 -31t-44.5 -81l-2 -10h221zM202 -226.5q-17 17.5 -17 42.5q0 34 26 60t61 26q28 0 45 -17t17 -43q0 -34 -26.5 -60t-61.5 -26q-27 0 -44 17.5z" />
    <glyph glyph-name="egrave.ss01" horiz-adv-x="568" 
d="M129.5 46q-54.5 54 -54.5 141q0 27 4 48l11 60q12 69 50 125t98.5 88.5t135.5 32.5q93 0 148 -52t55 -154q0 -36 -5 -65l-7 -43h-355l-2 -13q-2 -14 -2 -21q0 -39 24.5 -65t71.5 -26q42 0 72 20.5t45 57.5h135q-30 -83 -100.5 -135.5t-169.5 -52.5q-100 0 -154.5 54z
M446 317l2 10q3 14 3 25q0 39 -25.5 63t-68.5 24q-50 0 -85.5 -31t-44.5 -81l-2 -10h221zM232 799h137l69 -195l-110 -1z" />
    <glyph glyph-name="uni1EBB.ss01" horiz-adv-x="568" 
d="M129.5 46q-54.5 54 -54.5 141q0 27 4 48l11 60q12 69 50 125t98.5 88.5t135.5 32.5q93 0 148 -52t55 -154q0 -36 -5 -65l-7 -43h-355l-2 -13q-2 -14 -2 -21q0 -39 24.5 -65t71.5 -26q42 0 72 20.5t45 57.5h135q-30 -83 -100.5 -135.5t-169.5 -52.5q-100 0 -154.5 54z
M446 317l2 10q3 14 3 25q0 39 -25.5 63t-68.5 24q-50 0 -85.5 -31t-44.5 -81l-2 -10h221zM343.5 619.5q9.5 7.5 19.5 14t13 8.5q30 17 45.5 32t15.5 37q0 11 -7.5 17.5t-21.5 6.5q-15 0 -25.5 -9t-13.5 -22h-98q9 43 46 74t102 31q54 0 82.5 -23t28.5 -59q0 -38 -17.5 -59
t-47.5 -40q-3 -2 -14.5 -9.5t-14.5 -15.5h-106q4 9 13.5 16.5z" />
    <glyph glyph-name="emacron.ss01" horiz-adv-x="568" 
d="M129.5 46q-54.5 54 -54.5 141q0 27 4 48l11 60q12 69 50 125t98.5 88.5t135.5 32.5q93 0 148 -52t55 -154q0 -36 -5 -65l-7 -43h-355l-2 -13q-2 -14 -2 -21q0 -39 24.5 -65t71.5 -26q42 0 72 20.5t45 57.5h135q-30 -83 -100.5 -135.5t-169.5 -52.5q-100 0 -154.5 54z
M446 317l2 10q3 14 3 25q0 39 -25.5 63t-68.5 24q-50 0 -85.5 -31t-44.5 -81l-2 -10h221zM236 681h320l-10 -64h-320z" />
    <glyph glyph-name="uni1EBD.ss01" horiz-adv-x="568" 
d="M129.5 46q-54.5 54 -54.5 141q0 27 4 48l11 60q12 69 50 125t98.5 88.5t135.5 32.5q93 0 148 -52t55 -154q0 -36 -5 -65l-7 -43h-355l-2 -13q-2 -14 -2 -21q0 -39 24.5 -65t71.5 -26q42 0 72 20.5t45 57.5h135q-30 -83 -100.5 -135.5t-169.5 -52.5q-100 0 -154.5 54z
M446 317l2 10q3 14 3 25q0 39 -25.5 63t-68.5 24q-50 0 -85.5 -31t-44.5 -81l-2 -10h221zM257 709.5q31 36.5 87 36.5q19 0 36 -5.5t38 -15.5q12 -6 24.5 -10.5t22.5 -4.5q17 0 26.5 11t11.5 26h73q-7 -53 -37 -89t-87 -36q-20 0 -36.5 5.5t-39.5 15.5q-12 6 -24.5 10.5
t-22.5 4.5q-16 0 -25.5 -11t-12.5 -26h-73q8 52 39 88.5z" />
    <glyph glyph-name="f.ss01" horiz-adv-x="389" 
d="M366 618.5q-16 -9.5 -22 -24t-10 -41.5l-4 -25h118l-17 -108h-119l-69 -420h-138l69 420h-66l17 108h67l9 53q9 62 53.5 110t145.5 48h82l-17 -111h-51q-32 0 -48 -9.5z" />
    <glyph glyph-name="g.ss01" horiz-adv-x="615" 
d="M104.5 -184q-54.5 51 -54.5 145h134q1 -46 26.5 -70.5t73.5 -24.5q62 0 93.5 38.5t41.5 97.5l17 95h-8q-23 -37 -66 -68t-110 -31q-79 0 -127 50.5t-48 131.5q0 14 4 44l15 89q11 66 47 118t88.5 81t111.5 29q67 0 98.5 -29.5t44.5 -64.5h7l13 81h140l-87 -526
q-8 -48 -37 -101.5t-92 -94.5t-164 -41q-107 0 -161.5 51zM413 147.5q37 37.5 48 97.5l8 48q3 17 3 33q0 46 -26 74t-73 28q-55 0 -92.5 -38t-47.5 -97l-8 -48q-3 -16 -3 -32q0 -46 25.5 -74.5t72.5 -28.5q56 0 93 37.5z" />
    <glyph glyph-name="gbreve.ss01" horiz-adv-x="615" 
d="M104.5 -184q-54.5 51 -54.5 145h134q1 -46 26.5 -70.5t73.5 -24.5q62 0 93.5 38.5t41.5 97.5l17 95h-8q-23 -37 -66 -68t-110 -31q-79 0 -127 50.5t-48 131.5q0 14 4 44l15 89q11 66 47 118t88.5 81t111.5 29q67 0 98.5 -29.5t44.5 -64.5h7l13 81h140l-87 -526
q-8 -48 -37 -101.5t-92 -94.5t-164 -41q-107 0 -161.5 51zM413 147.5q37 37.5 48 97.5l8 48q3 17 3 33q0 46 -26 74t-73 28q-55 0 -92.5 -38t-47.5 -97l-8 -48q-3 -16 -3 -32q0 -46 25.5 -74.5t72.5 -28.5q56 0 93 37.5zM299.5 633.5q-40.5 31.5 -60.5 91.5h112
q5 -22 21.5 -34.5t43.5 -12.5q52 0 81 47h112q-82 -123 -204 -123q-65 0 -105.5 31.5z" />
    <glyph glyph-name="gdotaccent.ss01" horiz-adv-x="615" 
d="M104.5 -184q-54.5 51 -54.5 145h134q1 -46 26.5 -70.5t73.5 -24.5q62 0 93.5 38.5t41.5 97.5l17 95h-8q-23 -37 -66 -68t-110 -31q-79 0 -127 50.5t-48 131.5q0 14 4 44l15 89q11 66 47 118t88.5 81t111.5 29q67 0 98.5 -29.5t44.5 -64.5h7l13 81h140l-87 -526
q-8 -48 -37 -101.5t-92 -94.5t-164 -41q-107 0 -161.5 51zM413 147.5q37 37.5 48 97.5l8 48q3 17 3 33q0 46 -26 74t-73 28q-55 0 -92.5 -38t-47.5 -97l-8 -48q-3 -16 -3 -32q0 -46 25.5 -74.5t72.5 -28.5q56 0 93 37.5zM358.5 637q-17.5 18 -17.5 45q0 37 27.5 64t63.5 27
q30 0 47.5 -17.5t17.5 -45.5q0 -36 -27.5 -63.5t-64.5 -27.5q-29 0 -46.5 18z" />
    <glyph glyph-name="j.ss01" horiz-adv-x="268" 
d="M190 637q-18 18 -18 45q0 37 27.5 64t64.5 27q29 0 47 -18t18 -45q0 -36 -28 -63.5t-64 -27.5q-29 0 -47 18zM-83 -237l17 109h28q34 0 51.5 10t25 29.5t14.5 59.5l93 557h138l-95 -574q-10 -60 -25 -98.5t-54.5 -65.5t-113.5 -27h-79z" />
    <glyph glyph-name="l.ss01" horiz-adv-x="266" 
d="M188 750h138l-124 -750h-138z" />
    <glyph glyph-name="o.ss01" horiz-adv-x="575" 
d="M130 46.5q-55 54.5 -55 142.5q0 27 4 50l9 53q12 71 50.5 127.5t100 89t138.5 32.5q101 0 156 -54.5t55 -143.5q0 -28 -4 -51l-9 -53q-12 -71 -50 -127t-99.5 -88t-139.5 -32q-101 0 -156 54.5zM395.5 141.5q36.5 37.5 48.5 99.5l8 48q3 18 3 35q0 48 -24.5 76t-71.5 28
q-55 0 -91.5 -38t-48.5 -101l-8 -48q-3 -18 -3 -35q0 -46 24.5 -74t71.5 -28q55 0 91.5 37.5z" />
    <glyph glyph-name="oacute.ss01" horiz-adv-x="575" 
d="M130 46.5q-55 54.5 -55 142.5q0 27 4 50l9 53q12 71 50.5 127.5t100 89t138.5 32.5q101 0 156 -54.5t55 -143.5q0 -28 -4 -51l-9 -53q-12 -71 -50 -127t-99.5 -88t-139.5 -32q-101 0 -156 54.5zM395.5 141.5q36.5 37.5 48.5 99.5l8 48q3 18 3 35q0 48 -24.5 76t-71.5 28
q-55 0 -91.5 -38t-48.5 -101l-8 -48q-3 -18 -3 -35q0 -46 24.5 -74t71.5 -28q55 0 91.5 37.5zM334 604l132 195h138l-160 -196z" />
    <glyph glyph-name="ocircumflex.ss01" horiz-adv-x="575" 
d="M130 46.5q-55 54.5 -55 142.5q0 27 4 50l9 53q12 71 50.5 127.5t100 89t138.5 32.5q101 0 156 -54.5t55 -143.5q0 -28 -4 -51l-9 -53q-12 -71 -50 -127t-99.5 -88t-139.5 -32q-101 0 -156 54.5zM395.5 141.5q36.5 37.5 48.5 99.5l8 48q3 18 3 35q0 48 -24.5 76t-71.5 28
q-55 0 -91.5 -38t-48.5 -101l-8 -48q-3 -18 -3 -35q0 -46 24.5 -74t71.5 -28q55 0 91.5 37.5zM360 750h103l118 -158h-127l-55 73h-4l-77 -73h-126z" />
    <glyph glyph-name="uni1ED1.ss01" horiz-adv-x="575" 
d="M130 46.5q-55 54.5 -55 142.5q0 27 4 50l9 53q12 71 50.5 127.5t100 89t138.5 32.5q101 0 156 -54.5t55 -143.5q0 -28 -4 -51l-9 -53q-12 -71 -50 -127t-99.5 -88t-139.5 -32q-101 0 -156 54.5zM395.5 141.5q36.5 37.5 48.5 99.5l8 48q3 18 3 35q0 48 -24.5 76t-71.5 28
q-55 0 -91.5 -38t-48.5 -101l-8 -48q-3 -18 -3 -35q0 -46 24.5 -74t71.5 -28q55 0 91.5 37.5zM360 750h103l118 -158h-127l-55 73h-4l-77 -73h-126zM526 721l132 195h138l-160 -196z" />
    <glyph glyph-name="uni1ED9.ss01" horiz-adv-x="575" 
d="M130 46.5q-55 54.5 -55 142.5q0 27 4 50l9 53q12 71 50.5 127.5t100 89t138.5 32.5q101 0 156 -54.5t55 -143.5q0 -28 -4 -51l-9 -53q-12 -71 -50 -127t-99.5 -88t-139.5 -32q-101 0 -156 54.5zM395.5 141.5q36.5 37.5 48.5 99.5l8 48q3 18 3 35q0 48 -24.5 76t-71.5 28
q-55 0 -91.5 -38t-48.5 -101l-8 -48q-3 -18 -3 -35q0 -46 24.5 -74t71.5 -28q55 0 91.5 37.5zM204 -226.5q-17 17.5 -17 42.5q0 34 26 60t61 26q28 0 45 -17t17 -43q0 -34 -26.5 -60t-61.5 -26q-27 0 -44 17.5zM360 750h103l118 -158h-127l-55 73h-4l-77 -73h-126z" />
    <glyph glyph-name="uni1ED3.ss01" horiz-adv-x="575" 
d="M130 46.5q-55 54.5 -55 142.5q0 27 4 50l9 53q12 71 50.5 127.5t100 89t138.5 32.5q101 0 156 -54.5t55 -143.5q0 -28 -4 -51l-9 -53q-12 -71 -50 -127t-99.5 -88t-139.5 -32q-101 0 -156 54.5zM395.5 141.5q36.5 37.5 48.5 99.5l8 48q3 18 3 35q0 48 -24.5 76t-71.5 28
q-55 0 -91.5 -38t-48.5 -101l-8 -48q-3 -18 -3 -35q0 -46 24.5 -74t71.5 -28q55 0 91.5 37.5zM360 750h103l118 -158h-127l-55 73h-4l-77 -73h-126zM443 916h137l69 -195l-110 -1z" />
    <glyph glyph-name="uni1ED5.ss01" horiz-adv-x="575" 
d="M130 46.5q-55 54.5 -55 142.5q0 27 4 50l9 53q12 71 50.5 127.5t100 89t138.5 32.5q101 0 156 -54.5t55 -143.5q0 -28 -4 -51l-9 -53q-12 -71 -50 -127t-99.5 -88t-139.5 -32q-101 0 -156 54.5zM395.5 141.5q36.5 37.5 48.5 99.5l8 48q3 18 3 35q0 48 -24.5 76t-71.5 28
q-55 0 -91.5 -38t-48.5 -101l-8 -48q-3 -18 -3 -35q0 -46 24.5 -74t71.5 -28q55 0 91.5 37.5zM360 750h103l118 -158h-127l-55 73h-4l-77 -73h-126zM539.5 747.5q9.5 7.5 19.5 14t13 8.5q30 17 45.5 32t15.5 37q0 11 -7.5 17.5t-21.5 6.5q-15 0 -25.5 -9t-13.5 -22h-98
q9 43 46 74t102 31q54 0 82.5 -23t28.5 -59q0 -38 -17.5 -59t-47.5 -40q-3 -2 -14.5 -9.5t-14.5 -15.5h-106q4 9 13.5 16.5z" />
    <glyph glyph-name="uni1ED7.ss01" horiz-adv-x="575" 
d="M130 46.5q-55 54.5 -55 142.5q0 27 4 50l9 53q12 71 50.5 127.5t100 89t138.5 32.5q101 0 156 -54.5t55 -143.5q0 -28 -4 -51l-9 -53q-12 -71 -50 -127t-99.5 -88t-139.5 -32q-101 0 -156 54.5zM395.5 141.5q36.5 37.5 48.5 99.5l8 48q3 18 3 35q0 48 -24.5 76t-71.5 28
q-55 0 -91.5 -38t-48.5 -101l-8 -48q-3 -18 -3 -35q0 -46 24.5 -74t71.5 -28q55 0 91.5 37.5zM358 750h103l118 -158h-127l-55 73h-4l-77 -73h-126zM280 885.5q31 36.5 87 36.5q19 0 36 -5.5t38 -15.5q12 -6 24.5 -10.5t22.5 -4.5q17 0 26.5 11t11.5 26h73q-7 -53 -37 -89
t-87 -36q-20 0 -36.5 5.5t-39.5 15.5q-12 6 -24.5 10.5t-22.5 4.5q-16 0 -25.5 -11t-12.5 -26h-73q8 52 39 88.5z" />
    <glyph glyph-name="odieresis.ss01" horiz-adv-x="575" 
d="M130 46.5q-55 54.5 -55 142.5q0 27 4 50l9 53q12 71 50.5 127.5t100 89t138.5 32.5q101 0 156 -54.5t55 -143.5q0 -28 -4 -51l-9 -53q-12 -71 -50 -127t-99.5 -88t-139.5 -32q-101 0 -156 54.5zM395.5 141.5q36.5 37.5 48.5 99.5l8 48q3 18 3 35q0 48 -24.5 76t-71.5 28
q-55 0 -91.5 -38t-48.5 -101l-8 -48q-3 -18 -3 -35q0 -46 24.5 -74t71.5 -28q55 0 91.5 37.5zM475.5 637q-17.5 18 -17.5 45q0 37 27.5 64t63.5 27q30 0 47.5 -17.5t17.5 -45.5q0 -36 -27.5 -63.5t-64.5 -27.5q-29 0 -46.5 18zM221.5 637q-17.5 18 -17.5 45q0 37 27.5 64
t63.5 27q30 0 47.5 -17.5t17.5 -45.5q0 -36 -27.5 -63.5t-64.5 -27.5q-29 0 -46.5 18z" />
    <glyph glyph-name="uni1ECD.ss01" horiz-adv-x="575" 
d="M130 46.5q-55 54.5 -55 142.5q0 27 4 50l9 53q12 71 50.5 127.5t100 89t138.5 32.5q101 0 156 -54.5t55 -143.5q0 -28 -4 -51l-9 -53q-12 -71 -50 -127t-99.5 -88t-139.5 -32q-101 0 -156 54.5zM395.5 141.5q36.5 37.5 48.5 99.5l8 48q3 18 3 35q0 48 -24.5 76t-71.5 28
q-55 0 -91.5 -38t-48.5 -101l-8 -48q-3 -18 -3 -35q0 -46 24.5 -74t71.5 -28q55 0 91.5 37.5zM204 -226.5q-17 17.5 -17 42.5q0 34 26 60t61 26q28 0 45 -17t17 -43q0 -34 -26.5 -60t-61.5 -26q-27 0 -44 17.5z" />
    <glyph glyph-name="ograve.ss01" horiz-adv-x="575" 
d="M130 46.5q-55 54.5 -55 142.5q0 27 4 50l9 53q12 71 50.5 127.5t100 89t138.5 32.5q101 0 156 -54.5t55 -143.5q0 -28 -4 -51l-9 -53q-12 -71 -50 -127t-99.5 -88t-139.5 -32q-101 0 -156 54.5zM395.5 141.5q36.5 37.5 48.5 99.5l8 48q3 18 3 35q0 48 -24.5 76t-71.5 28
q-55 0 -91.5 -38t-48.5 -101l-8 -48q-3 -18 -3 -35q0 -46 24.5 -74t71.5 -28q55 0 91.5 37.5zM234 799h137l69 -195l-110 -1z" />
    <glyph glyph-name="uni1ECF.ss01" horiz-adv-x="575" 
d="M130 46.5q-55 54.5 -55 142.5q0 27 4 50l9 53q12 71 50.5 127.5t100 89t138.5 32.5q101 0 156 -54.5t55 -143.5q0 -28 -4 -51l-9 -53q-12 -71 -50 -127t-99.5 -88t-139.5 -32q-101 0 -156 54.5zM395.5 141.5q36.5 37.5 48.5 99.5l8 48q3 18 3 35q0 48 -24.5 76t-71.5 28
q-55 0 -91.5 -38t-48.5 -101l-8 -48q-3 -18 -3 -35q0 -46 24.5 -74t71.5 -28q55 0 91.5 37.5zM345.5 619.5q9.5 7.5 19.5 14t13 8.5q30 17 45.5 32t15.5 37q0 11 -7.5 17.5t-21.5 6.5q-15 0 -25.5 -9t-13.5 -22h-98q9 43 46 74t102 31q54 0 82.5 -23t28.5 -59
q0 -38 -17.5 -59t-47.5 -40q-3 -2 -14.5 -9.5t-14.5 -15.5h-106q4 9 13.5 16.5z" />
    <glyph glyph-name="ohorn.ss01" horiz-adv-x="604" 
d="M690 633l-9 -54q-9 -57 -46.5 -82.5t-84.5 -29.5q39 -53 39 -124q0 -23 -5 -51l-9 -53q-12 -71 -50 -127t-99.5 -88t-139.5 -32q-101 0 -156 54.5t-55 142.5q0 27 4 50l9 53q12 71 50.5 127.5t100 89t138.5 32.5q52 0 92 -15v2h44q32 0 49 12t24 55l7 38h97zM455 324
q0 48 -24.5 76t-71.5 28q-55 0 -91.5 -38t-48.5 -101l-8 -48q-3 -18 -3 -35q0 -46 24.5 -74t71.5 -28q55 0 91.5 37.5t48.5 99.5l8 48q3 18 3 35z" />
    <glyph glyph-name="uni1EDB.ss01" horiz-adv-x="604" 
d="M690 633l-9 -54q-9 -57 -46.5 -82.5t-84.5 -29.5q39 -53 39 -124q0 -23 -5 -51l-9 -53q-12 -71 -50 -127t-99.5 -88t-139.5 -32q-101 0 -156 54.5t-55 142.5q0 27 4 50l9 53q12 71 50.5 127.5t100 89t138.5 32.5q52 0 92 -15v2h44q32 0 49 12t24 55l7 38h97zM455 324
q0 48 -24.5 76t-71.5 28q-55 0 -91.5 -38t-48.5 -101l-8 -48q-3 -18 -3 -35q0 -46 24.5 -74t71.5 -28q55 0 91.5 37.5t48.5 99.5l8 48q3 18 3 35zM334 604l132 195h138l-160 -196z" />
    <glyph glyph-name="uni1EE3.ss01" horiz-adv-x="604" 
d="M690 633l-9 -54q-9 -57 -46.5 -82.5t-84.5 -29.5q39 -53 39 -124q0 -23 -5 -51l-9 -53q-12 -71 -50 -127t-99.5 -88t-139.5 -32q-101 0 -156 54.5t-55 142.5q0 27 4 50l9 53q12 71 50.5 127.5t100 89t138.5 32.5q52 0 92 -15v2h44q32 0 49 12t24 55l7 38h97zM455 324
q0 48 -24.5 76t-71.5 28q-55 0 -91.5 -38t-48.5 -101l-8 -48q-3 -18 -3 -35q0 -46 24.5 -74t71.5 -28q55 0 91.5 37.5t48.5 99.5l8 48q3 18 3 35zM204 -226.5q-17 17.5 -17 42.5q0 34 26 60t61 26q28 0 45 -17t17 -43q0 -34 -26.5 -60t-61.5 -26q-27 0 -44 17.5z" />
    <glyph glyph-name="uni1EDD.ss01" horiz-adv-x="604" 
d="M690 633l-9 -54q-9 -57 -46.5 -82.5t-84.5 -29.5q39 -53 39 -124q0 -23 -5 -51l-9 -53q-12 -71 -50 -127t-99.5 -88t-139.5 -32q-101 0 -156 54.5t-55 142.5q0 27 4 50l9 53q12 71 50.5 127.5t100 89t138.5 32.5q52 0 92 -15v2h44q32 0 49 12t24 55l7 38h97zM455 324
q0 48 -24.5 76t-71.5 28q-55 0 -91.5 -38t-48.5 -101l-8 -48q-3 -18 -3 -35q0 -46 24.5 -74t71.5 -28q55 0 91.5 37.5t48.5 99.5l8 48q3 18 3 35zM234 799h137l69 -195l-110 -1z" />
    <glyph glyph-name="uni1EDF.ss01" horiz-adv-x="604" 
d="M690 633l-9 -54q-9 -57 -46.5 -82.5t-84.5 -29.5q39 -53 39 -124q0 -23 -5 -51l-9 -53q-12 -71 -50 -127t-99.5 -88t-139.5 -32q-101 0 -156 54.5t-55 142.5q0 27 4 50l9 53q12 71 50.5 127.5t100 89t138.5 32.5q52 0 92 -15v2h44q32 0 49 12t24 55l7 38h97zM455 324
q0 48 -24.5 76t-71.5 28q-55 0 -91.5 -38t-48.5 -101l-8 -48q-3 -18 -3 -35q0 -46 24.5 -74t71.5 -28q55 0 91.5 37.5t48.5 99.5l8 48q3 18 3 35zM345.5 619.5q9.5 7.5 19.5 14t13 8.5q30 17 45.5 32t15.5 37q0 11 -7.5 17.5t-21.5 6.5q-15 0 -25.5 -9t-13.5 -22h-98
q9 43 46 74t102 31q54 0 82.5 -23t28.5 -59q0 -38 -17.5 -59t-47.5 -40q-3 -2 -14.5 -9.5t-14.5 -15.5h-106q4 9 13.5 16.5z" />
    <glyph glyph-name="uni1EE1.ss01" horiz-adv-x="604" 
d="M690 633l-9 -54q-9 -57 -46.5 -82.5t-84.5 -29.5q39 -53 39 -124q0 -23 -5 -51l-9 -53q-12 -71 -50 -127t-99.5 -88t-139.5 -32q-101 0 -156 54.5t-55 142.5q0 27 4 50l9 53q12 71 50.5 127.5t100 89t138.5 32.5q52 0 92 -15v2h44q32 0 49 12t24 55l7 38h97zM455 324
q0 48 -24.5 76t-71.5 28q-55 0 -91.5 -38t-48.5 -101l-8 -48q-3 -18 -3 -35q0 -46 24.5 -74t71.5 -28q55 0 91.5 37.5t48.5 99.5l8 48q3 18 3 35zM260 709.5q31 36.5 87 36.5q19 0 36 -5.5t38 -15.5q12 -6 24.5 -10.5t22.5 -4.5q17 0 26.5 11t11.5 26h73q-7 -53 -37 -89
t-87 -36q-20 0 -36.5 5.5t-39.5 15.5q-12 6 -24.5 10.5t-22.5 4.5q-16 0 -25.5 -11t-12.5 -26h-73q8 52 39 88.5z" />
    <glyph glyph-name="omacron.ss01" horiz-adv-x="575" 
d="M130 46.5q-55 54.5 -55 142.5q0 27 4 50l9 53q12 71 50.5 127.5t100 89t138.5 32.5q101 0 156 -54.5t55 -143.5q0 -28 -4 -51l-9 -53q-12 -71 -50 -127t-99.5 -88t-139.5 -32q-101 0 -156 54.5zM395.5 141.5q36.5 37.5 48.5 99.5l8 48q3 18 3 35q0 48 -24.5 76t-71.5 28
q-55 0 -91.5 -38t-48.5 -101l-8 -48q-3 -18 -3 -35q0 -46 24.5 -74t71.5 -28q55 0 91.5 37.5zM239 681h320l-10 -64h-320z" />
    <glyph glyph-name="oslash.ss01" horiz-adv-x="587" 
d="M539 480q49 -54 49 -138q0 -27 -4 -50l-9 -53q-12 -71 -50 -127t-99.5 -88t-139.5 -32q-52 0 -93 15l-31 -43h-97l62 85q-52 52 -52 140q0 27 4 50l9 53q12 71 50.5 127.5t100 89t138.5 32.5q54 0 97 -17l40 55h97zM208 207q0 -20 5 -40l186 254q-17 7 -40 7
q-55 0 -91.5 -37.5t-48.5 -100.5l-8 -48q-3 -18 -3 -35zM455 324q0 21 -4 36l-183 -251q18 -5 36 -5q55 0 91.5 37.5t48.5 100.5l8 48q3 18 3 34z" />
    <glyph glyph-name="otilde.ss01" horiz-adv-x="575" 
d="M130 46.5q-55 54.5 -55 142.5q0 27 4 50l9 53q12 71 50.5 127.5t100 89t138.5 32.5q101 0 156 -54.5t55 -143.5q0 -28 -4 -51l-9 -53q-12 -71 -50 -127t-99.5 -88t-139.5 -32q-101 0 -156 54.5zM395.5 141.5q36.5 37.5 48.5 99.5l8 48q3 18 3 35q0 48 -24.5 76t-71.5 28
q-55 0 -91.5 -38t-48.5 -101l-8 -48q-3 -18 -3 -35q0 -46 24.5 -74t71.5 -28q55 0 91.5 37.5zM260 709.5q31 36.5 87 36.5q19 0 36 -5.5t38 -15.5q12 -6 24.5 -10.5t22.5 -4.5q17 0 26.5 11t11.5 26h73q-7 -53 -37 -89t-87 -36q-20 0 -36.5 5.5t-39.5 15.5q-12 6 -24.5 10.5
t-22.5 4.5q-16 0 -25.5 -11t-12.5 -26h-73q8 52 39 88.5z" />
    <glyph glyph-name="oe.ss01" horiz-adv-x="939" 
d="M886 488.5q55 -52.5 55 -152.5q0 -31 -6 -66l-6 -43h-355l-2 -13q-2 -14 -2 -21q0 -39 24 -65t71 -26q42 0 72.5 20.5t45.5 57.5h135q-31 -83 -101 -135.5t-169 -52.5q-57 0 -99.5 18t-68.5 51q-80 -69 -194 -69q-101 0 -156 54.5t-55 142.5q0 27 4 50l9 53
q12 71 50.5 127.5t100 89t138.5 32.5q114 0 170 -70q38 33 86.5 51.5t104.5 18.5q93 0 148 -52.5zM814 350q0 41 -25.5 65t-68.5 24q-50 0 -85 -30.5t-45 -81.5l-2 -10h222l2 10q2 16 2 23zM395.5 141.5q36.5 37.5 48.5 99.5l8 48v3q3 17 3 33q0 47 -25 75t-71 28
q-55 0 -91.5 -38t-48.5 -101l-8 -48q-3 -18 -3 -35q0 -46 24.5 -74t71.5 -28q55 0 91.5 37.5z" />
    <glyph glyph-name="p.ss01" horiz-adv-x="621" 
d="M270 23q-34 31 -44 67h-8l-51 -308h-139l123 746h139l-14 -81h8q22 34 65 64t110 30q80 0 129 -50t49 -132q0 -25 -4 -46l-15 -96q-11 -65 -46.5 -116t-88 -80t-111.5 -29q-68 0 -102 31zM432 140.5q38 36.5 48 94.5l11 60q3 15 3 30q0 47 -26.5 75t-74.5 28
q-56 0 -94 -37t-48 -96l-11 -60q-3 -15 -3 -29q0 -47 26.5 -74.5t74.5 -27.5q56 0 94 36.5z" />
    <glyph glyph-name="thorn.ss01" horiz-adv-x="619" 
d="M267 22.5q-33 30.5 -46 67.5h-7l-55 -332h-139l163 993h140l-51 -304h8q22 34 65 64t110 30q79 0 128.5 -50.5t49.5 -132.5q0 -24 -4 -45l-16 -96q-10 -65 -46 -116t-88.5 -80t-111.5 -29q-67 0 -100 30.5zM428.5 140.5q38.5 36.5 47.5 94.5l10 60q3 15 3 30
q0 47 -26.5 75t-74.5 28q-56 0 -94 -37t-48 -96l-9 -60q-3 -15 -3 -29q0 -47 26.5 -74.5t73.5 -27.5q56 0 94.5 36.5z" />
    <glyph glyph-name="q.ss01" horiz-adv-x="621" 
d="M119.5 42q-48.5 50 -48.5 131q0 14 4 44l16 96q11 66 47 118t89 81t113 29q67 0 100 -30t44 -64h7l14 81h139l-122 -746h-140l51 308h-7q-25 -37 -68 -67.5t-111 -30.5q-79 0 -127.5 50zM409.5 140.5q38.5 36.5 48.5 94.5l10 60q3 17 3 31q0 47 -26.5 74.5t-74.5 27.5
q-55 0 -93 -37t-49 -96l-10 -60q-3 -15 -3 -29q0 -47 26.5 -74.5t74.5 -27.5q55 0 93.5 36.5z" />
    <glyph glyph-name="r.ss01" horiz-adv-x="370" 
d="M148 528h137l-13 -84h7q19 38 49 61t89 23h32l-20 -124h-32q-65 0 -103.5 -30t-51.5 -110l-44 -264h-137z" />
    <glyph glyph-name="t.ss01" horiz-adv-x="421" 
d="M288 209q-6 -40 -6 -50q0 -27 14 -38.5t52 -11.5h31l-18 -109h-83q-78 0 -108.5 29.5t-30.5 83.5q0 31 6 64l40 243h-87l17 108h88l29 172h138l-29 -172h118l-17 -108h-119z" />
    <glyph glyph-name="y.ss01" horiz-adv-x="546" 
d="M75 -230l138 242l-103 504l2 12h136l54 -363h6l180 363h135l-2 -12l-418 -760h-130z" />
    <glyph glyph-name="yacute.ss01" horiz-adv-x="546" 
d="M75 -230l138 242l-103 504l2 12h136l54 -363h6l180 363h135l-2 -12l-418 -760h-130zM325 604l132 195h138l-160 -196z" />
    <glyph glyph-name="ycircumflex.ss01" horiz-adv-x="546" 
d="M75 -230l138 242l-103 504l2 12h136l54 -363h6l180 363h135l-2 -12l-418 -760h-130zM351 750h103l118 -158h-127l-55 73h-4l-77 -73h-126z" />
    <glyph glyph-name="ydieresis.ss01" horiz-adv-x="546" 
d="M75 -230l138 242l-103 504l2 12h136l54 -363h6l180 363h135l-2 -12l-418 -760h-130zM466.5 637q-17.5 18 -17.5 45q0 37 27.5 64t63.5 27q30 0 47.5 -17.5t17.5 -45.5q0 -36 -27.5 -63.5t-64.5 -27.5q-29 0 -46.5 18zM212.5 637q-17.5 18 -17.5 45q0 37 27.5 64t63.5 27
q30 0 47.5 -17.5t17.5 -45.5q0 -36 -27.5 -63.5t-64.5 -27.5q-29 0 -46.5 18z" />
    <glyph glyph-name="uni1EF5.ss01" horiz-adv-x="546" 
d="M75 -230l138 242l-103 504l2 12h136l54 -363h6l180 363h135l-2 -12l-418 -760h-130zM364 -226.5q-17 17.5 -17 42.5q0 34 26 60t61 26q28 0 45 -17t17 -43q0 -34 -26.5 -60t-61.5 -26q-27 0 -44 17.5z" />
    <glyph glyph-name="ygrave.ss01" horiz-adv-x="546" 
d="M75 -230l138 242l-103 504l2 12h136l54 -363h6l180 363h135l-2 -12l-418 -760h-130zM225 799h137l69 -195l-110 -1z" />
    <glyph glyph-name="uni1EF7.ss01" horiz-adv-x="546" 
d="M75 -230l138 242l-103 504l2 12h136l54 -363h6l180 363h135l-2 -12l-418 -760h-130zM336.5 619.5q9.5 7.5 19.5 14t13 8.5q30 17 45.5 32t15.5 37q0 11 -7.5 17.5t-21.5 6.5q-15 0 -25.5 -9t-13.5 -22h-98q9 43 46 74t102 31q54 0 82.5 -23t28.5 -59q0 -38 -17.5 -59
t-47.5 -40q-3 -2 -14.5 -9.5t-14.5 -15.5h-106q4 9 13.5 16.5z" />
    <glyph glyph-name="uni1EF9.ss01" horiz-adv-x="546" 
d="M75 -230l138 242l-103 504l2 12h136l54 -363h6l180 363h135l-2 -12l-418 -760h-130zM250 709.5q31 36.5 87 36.5q19 0 36 -5.5t38 -15.5q12 -6 24.5 -10.5t22.5 -4.5q17 0 26.5 11t11.5 26h73q-7 -53 -37 -89t-87 -36q-20 0 -36.5 5.5t-39.5 15.5q-12 6 -24.5 10.5
t-22.5 4.5q-16 0 -25.5 -11t-12.5 -26h-73q8 52 39 88.5z" />
    <glyph glyph-name="a.ss02" horiz-adv-x="618" 
d="M119 42q-48 50 -48 131q0 14 4 44l16 96q11 66 47 118t88.5 81t111.5 29q66 0 99 -30t44 -64h7l14 81h139l-87 -528h-139l15 90h-7q-25 -37 -67.5 -67.5t-109.5 -30.5q-79 0 -127 50zM407.5 141.5q37.5 37.5 47.5 96.5l9 55q3 17 3 33q0 46 -26 74t-73 28
q-55 0 -92.5 -38t-47.5 -97l-10 -55q-3 -16 -3 -31q0 -46 26 -74.5t73 -28.5q56 0 93.5 37.5z" />
    <glyph glyph-name="aacute.ss02" horiz-adv-x="618" 
d="M119 42q-48 50 -48 131q0 14 4 44l16 96q11 66 47 118t88.5 81t111.5 29q66 0 99 -30t44 -64h7l14 81h139l-87 -528h-139l15 90h-7q-25 -37 -67.5 -67.5t-109.5 -30.5q-79 0 -127 50zM407.5 141.5q37.5 37.5 47.5 96.5l9 55q3 17 3 33q0 46 -26 74t-73 28
q-55 0 -92.5 -38t-47.5 -97l-10 -55q-3 -16 -3 -31q0 -46 26 -74.5t73 -28.5q56 0 93.5 37.5zM352 604l132 195h138l-160 -196z" />
    <glyph glyph-name="abreve.ss02" horiz-adv-x="618" 
d="M119 42q-48 50 -48 131q0 14 4 44l16 96q11 66 47 118t88.5 81t111.5 29q66 0 99 -30t44 -64h7l14 81h139l-87 -528h-139l15 90h-7q-25 -37 -67.5 -67.5t-109.5 -30.5q-79 0 -127 50zM407.5 141.5q37.5 37.5 47.5 96.5l9 55q3 17 3 33q0 46 -26 74t-73 28
q-55 0 -92.5 -38t-47.5 -97l-10 -55q-3 -16 -3 -31q0 -46 26 -74.5t73 -28.5q56 0 93.5 37.5zM299.5 633.5q-40.5 31.5 -60.5 91.5h112q5 -22 21.5 -34.5t43.5 -12.5q52 0 81 47h112q-82 -123 -204 -123q-65 0 -105.5 31.5z" />
    <glyph glyph-name="uni1EAF.ss02" horiz-adv-x="618" 
d="M119 42q-48 50 -48 131q0 14 4 44l16 96q11 66 47 118t88.5 81t111.5 29q66 0 99 -30t44 -64h7l14 81h139l-87 -528h-139l15 90h-7q-25 -37 -67.5 -67.5t-109.5 -30.5q-79 0 -127 50zM407.5 141.5q37.5 37.5 47.5 96.5l9 55q3 17 3 33q0 46 -26 74t-73 28
q-55 0 -92.5 -38t-47.5 -97l-10 -55q-3 -16 -3 -31q0 -46 26 -74.5t73 -28.5q56 0 93.5 37.5zM298.5 633.5q-40.5 31.5 -60.5 91.5h112q5 -22 21.5 -34.5t43.5 -12.5q52 0 81 47h112q-82 -123 -204 -123q-65 0 -105.5 31.5zM378 770l132 195h138l-160 -196z" />
    <glyph glyph-name="uni1EB7.ss02" horiz-adv-x="618" 
d="M119 42q-48 50 -48 131q0 14 4 44l16 96q11 66 47 118t88.5 81t111.5 29q66 0 99 -30t44 -64h7l14 81h139l-87 -528h-139l15 90h-7q-25 -37 -67.5 -67.5t-109.5 -30.5q-79 0 -127 50zM407.5 141.5q37.5 37.5 47.5 96.5l9 55q3 17 3 33q0 46 -26 74t-73 28
q-55 0 -92.5 -38t-47.5 -97l-10 -55q-3 -16 -3 -31q0 -46 26 -74.5t73 -28.5q56 0 93.5 37.5zM299.5 633.5q-40.5 31.5 -60.5 91.5h112q5 -22 21.5 -34.5t43.5 -12.5q52 0 81 47h112q-82 -123 -204 -123q-65 0 -105.5 31.5zM208 -226.5q-17 17.5 -17 42.5q0 34 26 60t61 26
q28 0 45 -17t17 -43q0 -34 -26.5 -60t-61.5 -26q-27 0 -44 17.5z" />
    <glyph glyph-name="uni1EB1.ss02" horiz-adv-x="618" 
d="M119 42q-48 50 -48 131q0 14 4 44l16 96q11 66 47 118t88.5 81t111.5 29q66 0 99 -30t44 -64h7l14 81h139l-87 -528h-139l15 90h-7q-25 -37 -67.5 -67.5t-109.5 -30.5q-79 0 -127 50zM407.5 141.5q37.5 37.5 47.5 96.5l9 55q3 17 3 33q0 46 -26 74t-73 28
q-55 0 -92.5 -38t-47.5 -97l-10 -55q-3 -16 -3 -31q0 -46 26 -74.5t73 -28.5q56 0 93.5 37.5zM304.5 633.5q-40.5 31.5 -60.5 91.5h112q5 -22 21.5 -34.5t43.5 -12.5q52 0 81 47h112q-82 -123 -204 -123q-65 0 -105.5 31.5zM284 965h137l69 -195l-110 -1z" />
    <glyph glyph-name="uni1EB3.ss02" horiz-adv-x="618" 
d="M119 42q-48 50 -48 131q0 14 4 44l16 96q11 66 47 118t88.5 81t111.5 29q66 0 99 -30t44 -64h7l14 81h139l-87 -528h-139l15 90h-7q-25 -37 -67.5 -67.5t-109.5 -30.5q-79 0 -127 50zM407.5 141.5q37.5 37.5 47.5 96.5l9 55q3 17 3 33q0 46 -26 74t-73 28
q-55 0 -92.5 -38t-47.5 -97l-10 -55q-3 -16 -3 -31q0 -46 26 -74.5t73 -28.5q56 0 93.5 37.5zM298.5 633.5q-40.5 31.5 -60.5 91.5h112q5 -22 21.5 -34.5t43.5 -12.5q52 0 81 47h112q-82 -123 -204 -123q-65 0 -105.5 31.5zM389.5 785.5q9.5 7.5 19.5 14t13 8.5
q30 17 45.5 32t15.5 37q0 11 -7.5 17.5t-21.5 6.5q-15 0 -25.5 -9t-13.5 -22h-98q9 43 46 74t102 31q54 0 82.5 -23t28.5 -59q0 -38 -17.5 -59t-47.5 -40q-3 -2 -14.5 -9.5t-14.5 -15.5h-106q4 9 13.5 16.5z" />
    <glyph glyph-name="uni1EB5.ss02" horiz-adv-x="618" 
d="M119 42q-48 50 -48 131q0 14 4 44l16 96q11 66 47 118t88.5 81t111.5 29q66 0 99 -30t44 -64h7l14 81h139l-87 -528h-139l15 90h-7q-25 -37 -67.5 -67.5t-109.5 -30.5q-79 0 -127 50zM407.5 141.5q37.5 37.5 47.5 96.5l9 55q3 17 3 33q0 46 -26 74t-73 28
q-55 0 -92.5 -38t-47.5 -97l-10 -55q-3 -16 -3 -31q0 -46 26 -74.5t73 -28.5q56 0 93.5 37.5zM300.5 633.5q-40.5 31.5 -60.5 91.5h112q5 -22 21.5 -34.5t43.5 -12.5q52 0 81 47h112q-82 -123 -204 -123q-65 0 -105.5 31.5zM305 875.5q31 36.5 87 36.5q19 0 36 -5.5
t38 -15.5q12 -6 24.5 -10.5t22.5 -4.5q17 0 26.5 11t11.5 26h73q-7 -53 -37 -89t-87 -36q-20 0 -36.5 5.5t-39.5 15.5q-12 6 -24.5 10.5t-22.5 4.5q-16 0 -25.5 -11t-12.5 -26h-73q8 52 39 88.5z" />
    <glyph glyph-name="acircumflex.ss02" horiz-adv-x="618" 
d="M119 42q-48 50 -48 131q0 14 4 44l16 96q11 66 47 118t88.5 81t111.5 29q66 0 99 -30t44 -64h7l14 81h139l-87 -528h-139l15 90h-7q-25 -37 -67.5 -67.5t-109.5 -30.5q-79 0 -127 50zM407.5 141.5q37.5 37.5 47.5 96.5l9 55q3 17 3 33q0 46 -26 74t-73 28
q-55 0 -92.5 -38t-47.5 -97l-10 -55q-3 -16 -3 -31q0 -46 26 -74.5t73 -28.5q56 0 93.5 37.5zM378 750h103l118 -158h-127l-55 73h-4l-77 -73h-126z" />
    <glyph glyph-name="uni1EA5.ss02" horiz-adv-x="618" 
d="M119 42q-48 50 -48 131q0 14 4 44l16 96q11 66 47 118t88.5 81t111.5 29q66 0 99 -30t44 -64h7l14 81h139l-87 -528h-139l15 90h-7q-25 -37 -67.5 -67.5t-109.5 -30.5q-79 0 -127 50zM407.5 141.5q37.5 37.5 47.5 96.5l9 55q3 17 3 33q0 46 -26 74t-73 28
q-55 0 -92.5 -38t-47.5 -97l-10 -55q-3 -16 -3 -31q0 -46 26 -74.5t73 -28.5q56 0 93.5 37.5zM377 750h103l118 -158h-127l-55 73h-4l-77 -73h-126zM543 721l132 195h138l-160 -196z" />
    <glyph glyph-name="uni1EAD.ss02" horiz-adv-x="618" 
d="M119 42q-48 50 -48 131q0 14 4 44l16 96q11 66 47 118t88.5 81t111.5 29q66 0 99 -30t44 -64h7l14 81h139l-87 -528h-139l15 90h-7q-25 -37 -67.5 -67.5t-109.5 -30.5q-79 0 -127 50zM407.5 141.5q37.5 37.5 47.5 96.5l9 55q3 17 3 33q0 46 -26 74t-73 28
q-55 0 -92.5 -38t-47.5 -97l-10 -55q-3 -16 -3 -31q0 -46 26 -74.5t73 -28.5q56 0 93.5 37.5zM378 750h103l118 -158h-127l-55 73h-4l-77 -73h-126zM208 -226.5q-17 17.5 -17 42.5q0 34 26 60t61 26q28 0 45 -17t17 -43q0 -34 -26.5 -60t-61.5 -26q-27 0 -44 17.5z" />
    <glyph glyph-name="uni1EA7.ss02" horiz-adv-x="618" 
d="M119 42q-48 50 -48 131q0 14 4 44l16 96q11 66 47 118t88.5 81t111.5 29q66 0 99 -30t44 -64h7l14 81h139l-87 -528h-139l15 90h-7q-25 -37 -67.5 -67.5t-109.5 -30.5q-79 0 -127 50zM407.5 141.5q37.5 37.5 47.5 96.5l9 55q3 17 3 33q0 46 -26 74t-73 28
q-55 0 -92.5 -38t-47.5 -97l-10 -55q-3 -16 -3 -31q0 -46 26 -74.5t73 -28.5q56 0 93.5 37.5zM378 750h103l118 -158h-127l-55 73h-4l-77 -73h-126zM461 916h137l69 -195l-110 -1z" />
    <glyph glyph-name="uni1EA9.ss02" horiz-adv-x="618" 
d="M119 42q-48 50 -48 131q0 14 4 44l16 96q11 66 47 118t88.5 81t111.5 29q66 0 99 -30t44 -64h7l14 81h139l-87 -528h-139l15 90h-7q-25 -37 -67.5 -67.5t-109.5 -30.5q-79 0 -127 50zM407.5 141.5q37.5 37.5 47.5 96.5l9 55q3 17 3 33q0 46 -26 74t-73 28
q-55 0 -92.5 -38t-47.5 -97l-10 -55q-3 -16 -3 -31q0 -46 26 -74.5t73 -28.5q56 0 93.5 37.5zM377 750h103l118 -158h-127l-55 73h-4l-77 -73h-126zM556.5 747.5q9.5 7.5 19.5 14t13 8.5q30 17 45.5 32t15.5 37q0 11 -7.5 17.5t-21.5 6.5q-15 0 -25.5 -9t-13.5 -22h-98
q9 43 46 74t102 31q54 0 82.5 -23t28.5 -59q0 -38 -17.5 -59t-47.5 -40q-3 -2 -14.5 -9.5t-14.5 -15.5h-106q4 9 13.5 16.5z" />
    <glyph glyph-name="uni1EAB.ss02" horiz-adv-x="618" 
d="M119 42q-48 50 -48 131q0 14 4 44l16 96q11 66 47 118t88.5 81t111.5 29q66 0 99 -30t44 -64h7l14 81h139l-87 -528h-139l15 90h-7q-25 -37 -67.5 -67.5t-109.5 -30.5q-79 0 -127 50zM407.5 141.5q37.5 37.5 47.5 96.5l9 55q3 17 3 33q0 46 -26 74t-73 28
q-55 0 -92.5 -38t-47.5 -97l-10 -55q-3 -16 -3 -31q0 -46 26 -74.5t73 -28.5q56 0 93.5 37.5zM375 750h103l118 -158h-127l-55 73h-4l-77 -73h-126zM297 885.5q31 36.5 87 36.5q19 0 36 -5.5t38 -15.5q12 -6 24.5 -10.5t22.5 -4.5q17 0 26.5 11t11.5 26h73q-7 -53 -37 -89
t-87 -36q-20 0 -36.5 5.5t-39.5 15.5q-12 6 -24.5 10.5t-22.5 4.5q-16 0 -25.5 -11t-12.5 -26h-73q8 52 39 88.5z" />
    <glyph glyph-name="adieresis.ss02" horiz-adv-x="618" 
d="M119 42q-48 50 -48 131q0 14 4 44l16 96q11 66 47 118t88.5 81t111.5 29q66 0 99 -30t44 -64h7l14 81h139l-87 -528h-139l15 90h-7q-25 -37 -67.5 -67.5t-109.5 -30.5q-79 0 -127 50zM407.5 141.5q37.5 37.5 47.5 96.5l9 55q3 17 3 33q0 46 -26 74t-73 28
q-55 0 -92.5 -38t-47.5 -97l-10 -55q-3 -16 -3 -31q0 -46 26 -74.5t73 -28.5q56 0 93.5 37.5zM493.5 637q-17.5 18 -17.5 45q0 37 27.5 64t63.5 27q30 0 47.5 -17.5t17.5 -45.5q0 -36 -27.5 -63.5t-64.5 -27.5q-29 0 -46.5 18zM239.5 637q-17.5 18 -17.5 45q0 37 27.5 64
t63.5 27q30 0 47.5 -17.5t17.5 -45.5q0 -36 -27.5 -63.5t-64.5 -27.5q-29 0 -46.5 18z" />
    <glyph glyph-name="uni1EA1.ss02" horiz-adv-x="618" 
d="M119 42q-48 50 -48 131q0 14 4 44l16 96q11 66 47 118t88.5 81t111.5 29q66 0 99 -30t44 -64h7l14 81h139l-87 -528h-139l15 90h-7q-25 -37 -67.5 -67.5t-109.5 -30.5q-79 0 -127 50zM407.5 141.5q37.5 37.5 47.5 96.5l9 55q3 17 3 33q0 46 -26 74t-73 28
q-55 0 -92.5 -38t-47.5 -97l-10 -55q-3 -16 -3 -31q0 -46 26 -74.5t73 -28.5q56 0 93.5 37.5zM208 -226.5q-17 17.5 -17 42.5q0 34 26 60t61 26q28 0 45 -17t17 -43q0 -34 -26.5 -60t-61.5 -26q-27 0 -44 17.5z" />
    <glyph glyph-name="agrave.ss02" horiz-adv-x="618" 
d="M119 42q-48 50 -48 131q0 14 4 44l16 96q11 66 47 118t88.5 81t111.5 29q66 0 99 -30t44 -64h7l14 81h139l-87 -528h-139l15 90h-7q-25 -37 -67.5 -67.5t-109.5 -30.5q-79 0 -127 50zM407.5 141.5q37.5 37.5 47.5 96.5l9 55q3 17 3 33q0 46 -26 74t-73 28
q-55 0 -92.5 -38t-47.5 -97l-10 -55q-3 -16 -3 -31q0 -46 26 -74.5t73 -28.5q56 0 93.5 37.5zM252 799h137l69 -195l-110 -1z" />
    <glyph glyph-name="uni1EA3.ss02" horiz-adv-x="618" 
d="M119 42q-48 50 -48 131q0 14 4 44l16 96q11 66 47 118t88.5 81t111.5 29q66 0 99 -30t44 -64h7l14 81h139l-87 -528h-139l15 90h-7q-25 -37 -67.5 -67.5t-109.5 -30.5q-79 0 -127 50zM407.5 141.5q37.5 37.5 47.5 96.5l9 55q3 17 3 33q0 46 -26 74t-73 28
q-55 0 -92.5 -38t-47.5 -97l-10 -55q-3 -16 -3 -31q0 -46 26 -74.5t73 -28.5q56 0 93.5 37.5zM363.5 619.5q9.5 7.5 19.5 14t13 8.5q30 17 45.5 32t15.5 37q0 11 -7.5 17.5t-21.5 6.5q-15 0 -25.5 -9t-13.5 -22h-98q9 43 46 74t102 31q54 0 82.5 -23t28.5 -59
q0 -38 -17.5 -59t-47.5 -40q-3 -2 -14.5 -9.5t-14.5 -15.5h-106q4 9 13.5 16.5z" />
    <glyph glyph-name="amacron.ss02" horiz-adv-x="618" 
d="M119 42q-48 50 -48 131q0 14 4 44l16 96q11 66 47 118t88.5 81t111.5 29q66 0 99 -30t44 -64h7l14 81h139l-87 -528h-139l15 90h-7q-25 -37 -67.5 -67.5t-109.5 -30.5q-79 0 -127 50zM407.5 141.5q37.5 37.5 47.5 96.5l9 55q3 17 3 33q0 46 -26 74t-73 28
q-55 0 -92.5 -38t-47.5 -97l-10 -55q-3 -16 -3 -31q0 -46 26 -74.5t73 -28.5q56 0 93.5 37.5zM257 681h320l-10 -64h-320z" />
    <glyph glyph-name="aring.ss02" horiz-adv-x="618" 
d="M119 42q-48 50 -48 131q0 14 4 44l16 96q11 66 47 118t88.5 81t111.5 29q66 0 99 -30t44 -64h7l14 81h139l-87 -528h-139l15 90h-7q-25 -37 -67.5 -67.5t-109.5 -30.5q-79 0 -127 50zM407.5 141.5q37.5 37.5 47.5 96.5l9 55q3 17 3 33q0 46 -26 74t-73 28
q-55 0 -92.5 -38t-47.5 -97l-10 -55q-3 -16 -3 -31q0 -46 26 -74.5t73 -28.5q56 0 93.5 37.5zM344 625q-24 24 -24 59q0 29 16.5 55.5t43.5 43t57 16.5q36 0 60 -24t24 -59q0 -29 -16.5 -56t-43.5 -43t-56 -16q-37 0 -61 24zM448 673q15 15 15 34q0 14 -10 24t-26 10
q-19 0 -33.5 -14.5t-14.5 -33.5q0 -15 10 -25t25 -10q19 0 34 15z" />
    <glyph glyph-name="atilde.ss02" horiz-adv-x="618" 
d="M119 42q-48 50 -48 131q0 14 4 44l16 96q11 66 47 118t88.5 81t111.5 29q66 0 99 -30t44 -64h7l14 81h139l-87 -528h-139l15 90h-7q-25 -37 -67.5 -67.5t-109.5 -30.5q-79 0 -127 50zM407.5 141.5q37.5 37.5 47.5 96.5l9 55q3 17 3 33q0 46 -26 74t-73 28
q-55 0 -92.5 -38t-47.5 -97l-10 -55q-3 -16 -3 -31q0 -46 26 -74.5t73 -28.5q56 0 93.5 37.5zM278 709.5q31 36.5 87 36.5q19 0 36 -5.5t38 -15.5q12 -6 24.5 -10.5t22.5 -4.5q17 0 26.5 11t11.5 26h73q-7 -53 -37 -89t-87 -36q-20 0 -36.5 5.5t-39.5 15.5q-12 6 -24.5 10.5
t-22.5 4.5q-16 0 -25.5 -11t-12.5 -26h-73q8 52 39 88.5z" />
    <glyph glyph-name="f_h.dlig" horiz-adv-x="1024" 
d="M996 494q36 -47 36 -116q0 -25 -5 -53l-53 -325h-138l50 302q3 17 3 32q0 44 -23 68t-66 24q-50 0 -84 -34t-43 -90l-50 -302h-139l88 540q5 30 5 48q0 32 -17 47t-60 15h-58q-89 0 -105 -103l-3 -19h114l-17 -108h-115l-69 -420h-140l69 420h-68l17 108h69l3 19
q18 106 84 162.5t166 56.5h72q102 0 149.5 -39.5t47.5 -127.5q0 -26 -7 -75l-13 -77h8q25 39 69.5 66.5t101.5 27.5q85 0 121 -47z" />
    <glyph glyph-name="f_k.dlig" horiz-adv-x="980" 
d="M798 287l149 -287h-155l-122 254h-5l-42 -254h-139l88 540q5 30 5 48q0 32 -17 47t-60 15h-58q-89 0 -105 -103l-3 -19h114l-17 -108h-115l-69 -420h-140l69 420h-68l17 108h69l3 19q18 106 84 162.5t166 56.5h72q99 0 148 -38.5t49 -129.5q0 -25 -7 -74l-32 -194h5
l192 198h154z" />
    <glyph glyph-name="f_l.dlig" horiz-adv-x="759" 
d="M741 98l-15 -96q-54 -6 -81 -6q-81 0 -112 27t-31 75q0 16 3 36t4 26l63 380q5 30 5 48q0 32 -17 47t-60 15h-58q-89 0 -105 -103l-3 -19h120l-17 -108h-121l-69 -420h-140l69 420h-68l17 108h69l3 19q18 106 84 162.5t166 56.5h72q100 0 148 -38.5t48 -128.5
q0 -26 -7 -75l-56 -336q-5 -30 -5 -46q0 -23 14 -34.5t51 -11.5q13 0 29 2z" />
    <glyph glyph-name="f_t.dlig" horiz-adv-x="808" 
d="M674 188q-5 -28 -5 -46q0 -23 14 -34.5t51 -11.5q22 0 44 4l-15 -96q-11 -2 -40 -5t-56 -3q-81 0 -112 27t-31 75q0 16 3 36t4 26l43 260h-262l-69 -420h-138l69 420h-66l17 108h66l11 65q8 51 49.5 98.5t141.5 47.5q25 0 52 -3t36 -7l-15 -91q-24 4 -50 4
q-31 0 -48 -12.5t-23 -30.5t-11 -46l-4 -25h262l29 172h138l-29 -172h119l-18 -108h-118z" />
    <glyph glyph-name="r_f.dlig" horiz-adv-x="715" 
d="M688.5 629.5q-16.5 -12.5 -22.5 -30t-11 -46.5l-4 -25h118l-18 -108h-118l-69 -420h-138l69 420h-116q-56 0 -92 -31.5t-49 -112.5l-46 -276h-138l87 528h138l-14 -84h7q21 35 59.5 59.5t89.5 24.5h91l11 65q8 51 49 98.5t142 47.5q25 0 52 -3t35 -7l-14 -91q-24 4 -51 4
q-31 0 -47.5 -12.5z" />
    <glyph glyph-name="r_t.dlig" horiz-adv-x="776" 
d="M640 188q-5 -30 -5 -46q0 -23 14 -34.5t51 -11.5q22 0 44 4l-15 -96q-11 -2 -40 -5t-56 -3q-81 0 -112 27t-31 75q0 16 3 36t4 26l43 260h-158q-54 0 -91.5 -37.5t-51.5 -118.5l-44 -264h-138l87 528h138l-14 -84h7q21 35 59.5 59.5t89.5 24.5h134l29 172h138l-29 -172
h119l-18 -108h-118z" />
    <glyph glyph-name="f_f.liga.ss01" horiz-adv-x="771" 
d="M747.5 618.5q-15.5 -9.5 -21 -24t-10.5 -41.5l-4 -25h117l-17 -108h-118l-70 -420h-138l69 420h-243l-69 -420h-138l69 420h-66l17 108h67l9 53q9 62 53.5 110t145.5 48h82l-17 -111h-51q-32 0 -48 -9.5t-22 -24t-10 -41.5l-4 -25h243l9 53q10 62 53.5 110t146.5 48h82
l-18 -111h-51q-32 0 -47.5 -9.5z" />
    <glyph glyph-name="f_i.liga.ss01" horiz-adv-x="669" 
d="M713 755q18 -18 18 -45q0 -36 -28 -63.5t-64 -27.5q-29 0 -47 18t-18 45q0 37 27.5 64t64.5 27q29 0 47 -18zM599 0h-138l69 420h-218l-69 -420h-138l69 420h-66l17 108h67l9 53q9 62 53.5 110t145.5 48h82l-17 -111h-51q-32 0 -48 -9.5t-22 -24t-10 -41.5l-4 -25h356z
" />
    <glyph glyph-name="t_t.liga.ss01" horiz-adv-x="841" 
d="M708 209q-6 -40 -6 -51q0 -26 14 -37.5t51 -11.5h32l-18 -109h-83q-78 0 -108.5 29.5t-30.5 83.5q0 31 6 64l40 243h-282l-35 -211q-6 -40 -6 -50q0 -27 14 -38.5t52 -11.5h31l-18 -109h-83q-78 0 -108.5 29.5t-30.5 83.5q0 31 6 64l40 243h-87l17 108h88l29 172h138
l-29 -172h282l28 172h138l-28 -172h118l-17 -108h-119z" />
    <glyph glyph-name="ordfeminine" unicode="&#xaa;" horiz-adv-x="169" 
d="M91.5 394q-11.5 14 -11.5 40q0 41 20 69t50 28q16 0 23.5 -7.5t9.5 -13.5h2l3 19h56l-24 -146h-56l4 19h-2q-16 -22 -41 -22q-22 0 -33.5 14zM173 436q8 13 8 30q0 9 -4.5 16t-13.5 7q-13 0 -21 -14t-8 -30q0 -22 18 -22q13 0 21 13z" />
    <glyph glyph-name="ordmasculine" unicode="&#xba;" horiz-adv-x="168" 
d="M101 396.5q-15 16.5 -15 43.5q0 41 25 68.5t62 27.5q30 0 45.5 -17.5t15.5 -44.5q0 -40 -25 -67t-62 -27q-31 0 -46 16.5zM177 434.5q10 14.5 10 35.5q0 11 -5 18.5t-16 7.5q-14 0 -23.5 -14.5t-9.5 -36.5q0 -11 5 -18t15 -7q14 0 24 14.5z" />
    <glyph glyph-name="zero" unicode="0" horiz-adv-x="621" 
d="M138 49.5q-55 63.5 -55 172.5q0 38 8 88l14 82q25 146 105.5 234t216.5 88q114 0 169.5 -63.5t55.5 -172.5q0 -38 -8 -86l-14 -82q-25 -146 -106 -235t-217 -89q-114 0 -169 63.5zM422 156.5q36 50.5 52 148.5l16 93q7 42 7 79q0 58 -22 87.5t-68 29.5q-59 0 -94.5 -49.5
t-52.5 -146.5l-15 -93q-8 -48 -8 -82q0 -117 89 -117q60 0 96 50.5z" />
    <glyph glyph-name="one" unicode="1" horiz-adv-x="524" 
d="M514 121l-20 -121h-418l19 121h151l69 414h-4l-170 -134l27 165l170 134h136l-95 -579h135z" />
    <glyph glyph-name="two" unicode="2" horiz-adv-x="594" 
d="M78 118l128 97l55 40q76 54 121.5 92t75.5 80t30 87q0 36 -21.5 59t-67.5 23t-74 -21t-40 -48t-13 -48l-1 -12h-138q12 75 51 131t98.5 86.5t132.5 30.5q99 0 152.5 -48.5t53.5 -126.5q0 -68 -33 -125t-77 -97t-108 -87l-23 -17l-119 -88l-1 -5h301l-20 -121h-481z" />
    <glyph glyph-name="three" unicode="3" horiz-adv-x="596" 
d="M123.5 50q-55.5 59 -53.5 150h140q5 -41 32 -64t75 -23q58 0 96 34t38 86q0 38 -27.5 59.5t-72.5 21.5h-62l17 105h64q54 0 86.5 30.5t32.5 77.5q0 35 -24.5 56t-67.5 21q-46 0 -77.5 -23t-46.5 -63h-136q28 86 96 143t183 57q75 0 123 -25t69 -63.5t21 -83.5
q0 -63 -30.5 -103t-64.5 -58.5t-41 -18.5v-6q28 -9 60 -35t32 -91q0 -69 -37.5 -124.5t-103 -87t-146.5 -31.5q-119 0 -174.5 59z" />
    <glyph glyph-name="four" unicode="4" horiz-adv-x="614" 
d="M373 166l-309 1l17 105l342 428h174l-72 -428h87l-17 -106h-86l-28 -166h-136zM390 274l44 263l-214 -263h170z" />
    <glyph glyph-name="five" unicode="5" horiz-adv-x="598" 
d="M179 22.5q-50 29.5 -73.5 77.5t-21.5 104h140q3 -44 30 -66t67 -22q39 0 70.5 21t49.5 57.5t18 80.5q0 45 -26 70t-71 25q-48 0 -74 -21t-42 -47l-136 2l83 396h434l-20 -126h-321l-37 -172h6q16 21 55.5 43.5t102.5 22.5q88 0 136.5 -47.5t48.5 -128.5q0 -80 -38 -148.5
t-105 -109.5t-152 -41q-74 0 -124 29.5z" />
    <glyph glyph-name="six" unicode="6" horiz-adv-x="591" 
d="M187 13q-50 22 -80 67t-30 111q0 94 47 177t119 168l132 164h136l-251 -302l3 -2l17 14q27 22 57.5 35.5t76.5 13.5q83 0 130 -49.5t47 -130.5t-38.5 -147t-105.5 -103.5t-149 -37.5q-61 0 -111 22zM385 124q33 22 51.5 57.5t18.5 75.5q0 43 -25.5 73t-76.5 30
q-41 0 -73.5 -22t-51 -58t-18.5 -76q0 -44 25.5 -73t74.5 -29q42 0 75 22z" />
    <glyph glyph-name="seven" unicode="7" horiz-adv-x="525" 
d="M98 12l361 555l1 7h-345l20 126h476l-23 -141l-346 -559h-146z" />
    <glyph glyph-name="eight" unicode="8" horiz-adv-x="608" 
d="M135 34.5q-55 49.5 -55 123.5q0 60 26.5 103t59.5 66.5t56 29.5l1 4q-24 11 -47.5 42.5t-23.5 79.5q0 58 32 110.5t94.5 85.5t148.5 33q108 0 158.5 -48.5t50.5 -117.5q0 -50 -22 -89.5t-50.5 -63.5t-49.5 -32l-1 -4q29 -9 59 -41.5t30 -90.5q0 -66 -36 -120.5t-103 -87
t-157 -32.5q-116 0 -171 49.5zM466 437.5q35 34.5 35 81.5q0 34 -22.5 58t-70.5 24q-56 0 -91 -35t-35 -84q0 -34 22.5 -56.5t70.5 -22.5q56 0 91 34.5zM398 117q32 18 49.5 48t17.5 64q0 38 -25.5 64.5t-77.5 26.5q-42 0 -73.5 -18.5t-49 -49.5t-17.5 -66q0 -37 25 -62
t77 -25q42 0 74 18z" />
    <glyph glyph-name="nine" unicode="9" horiz-adv-x="591" 
d="M447 306l-2 3l-18 -15q-28 -22 -58 -35t-75 -13q-83 0 -130.5 49.5t-47.5 130.5t38.5 147t106.5 103.5t152 37.5q59 0 108 -22.5t79 -67.5t30 -110q0 -70 -28.5 -136.5t-62 -113t-75.5 -96.5l-136 -168h-148zM428.5 367q32.5 22 50.5 58t18 75q0 43 -25.5 73t-74.5 30
q-42 0 -74.5 -22t-51 -57.5t-18.5 -75.5q0 -44 25.5 -73.5t76.5 -29.5q41 0 73.5 22z" />
    <glyph glyph-name="one.ss01" horiz-adv-x="518" 
d="M508 121l-20 -121h-418l19 121h151l76 458h-143l19 121h276l-95 -579h135z" />
    <glyph glyph-name="seven.ss01" horiz-adv-x="525" 
d="M588 559l-346 -559h-146l2 12l361 555l1 7h-225l-13 -82h-121l34 208h476z" />
    <glyph glyph-name="uni2080" unicode="&#x2080;" horiz-adv-x="345" 
d="M38 -214.5q-29 40.5 -29 102.5q0 68 24.5 124t66.5 88t94 32q64 0 93.5 -41t29.5 -102q0 -65 -24 -121t-67 -89.5t-96 -33.5q-63 0 -92 40.5zM180 -160q19 26 30.5 68.5t11.5 87.5q0 30 -9.5 48.5t-29.5 18.5t-39 -26.5t-30.5 -69t-11.5 -87.5q0 -30 9.5 -48t29.5 -18
t39 26z" />
    <glyph glyph-name="uni2081" unicode="&#x2081;" horiz-adv-x="282" 
d="M228 -182l-12 -72h-234l12 72h82l34 204h-2l-93 -72l16 97l93 73h80l-49 -302h73z" />
    <glyph glyph-name="uni2082" unicode="&#x2082;" horiz-adv-x="307" 
d="M-7 -181l60 46q53 36 80.5 56.5t49.5 46.5t22 52q0 16 -10 26t-31 10q-52 0 -63 -64h-78q11 64 53 99.5t99 35.5q51 0 80 -26t29 -68q0 -52 -31.5 -88.5t-60 -57t-35.5 -25.5l-56 -42v-3h153l-12 -72h-261z" />
    <glyph glyph-name="uni2083" unicode="&#x2083;" horiz-adv-x="327" 
d="M32.5 -228q-32.5 28 -32.5 75q0 11 1 16h85q1 -20 15 -31t36 -11q26 0 44 15.5t18 38.5q0 17 -12.5 27t-33.5 10h-33l11 65h29q26 0 43.5 14.5t17.5 36.5q0 16 -12.5 26.5t-33.5 10.5t-36.5 -11.5t-21.5 -29.5h-83q16 48 54 79t101 31q60 0 87.5 -27.5t27.5 -66.5
q0 -32 -15 -53.5t-32.5 -32t-21.5 -10.5l-1 -4q4 0 16 -6.5t22 -21t10 -37.5q0 -32 -19 -62t-55 -49.5t-84 -19.5q-59 0 -91.5 28z" />
    <glyph glyph-name="uni2084" unicode="&#x2084;" horiz-adv-x="337" 
d="M158 -167h-162l10 63l176 224h104l-37 -222h48l-10 -65h-49l-14 -87h-80zM169 -100l24 142l-116 -142h92z" />
    <glyph glyph-name="uni2085" unicode="&#x2085;" horiz-adv-x="321" 
d="M29 -222q-31 33 -28 84h84q1 -20 14.5 -31t30.5 -11q26 0 45 21.5t19 51.5q0 22 -13 33.5t-33 11.5q-31 0 -51 -30h-86l45 216h243l-12 -76h-172l-18 -82h4q7 9 29 20.5t53 11.5q46 0 71.5 -25.5t25.5 -67.5t-20.5 -78.5t-57 -59t-82.5 -22.5q-60 0 -91 33z" />
    <glyph glyph-name="uni2086" unicode="&#x2086;" horiz-adv-x="323" 
d="M33 -228q-32 27 -32 77q0 38 15 73t29.5 55t41.5 54l74 94h88l-139 -160h1l8 6q30 23 66 23q43 0 67 -26.5t24 -68.5q0 -44 -21 -79t-57.5 -55t-81.5 -20q-51 0 -83 27zM180 -167q20 23 20 52q0 21 -12.5 36.5t-36.5 15.5q-30 0 -50.5 -23.5t-20.5 -52.5q0 -21 12.5 -36
t36.5 -15q31 0 51 23z" />
    <glyph glyph-name="uni2087" unicode="&#x2087;" horiz-adv-x="305" 
d="M27 -247l187 289l1 5l-183 -2l11 75h259l-14 -84l-181 -290l-81 1z" />
    <glyph glyph-name="uni2088" unicode="&#x2088;" horiz-adv-x="326" 
d="M27.5 -230q-29.5 26 -29.5 65q0 48 26 74t48 33v3q-12 5 -24.5 21t-12.5 43q0 30 17 59t51 47t82 18q60 0 87.5 -27t27.5 -64q0 -27 -12 -48t-27 -33.5t-26 -15.5v-3q16 -7 30.5 -23t14.5 -46q0 -55 -43 -92t-116 -37q-64 0 -93.5 26zM199.5 -13.5q16.5 16.5 16.5 36.5
q0 16 -10.5 28.5t-31.5 12.5q-26 0 -43 -17.5t-17 -38.5q0 -15 11 -26.5t33 -11.5q25 0 41.5 16.5zM178.5 -167.5q18.5 18.5 18.5 42.5q0 17 -11.5 30t-35.5 13q-29 0 -47 -19t-18 -42q0 -18 11 -30.5t35 -12.5q29 0 47.5 18.5z" />
    <glyph glyph-name="uni2089" unicode="&#x2089;" horiz-adv-x="323" 
d="M192 -94h-1l-8 -7q-9 -8 -26 -15t-39 -7q-44 0 -68 26.5t-24 68.5q0 44 21 79t57.5 55t81.5 20q51 0 83 -26.5t32 -77.5q0 -53 -25.5 -96t-60.5 -86l-74 -95h-88zM203.5 -41.5q19.5 23.5 19.5 52.5q0 20 -12.5 35.5t-36.5 15.5q-30 0 -50.5 -23.5t-20.5 -52.5
q0 -20 12.5 -35.5t38.5 -15.5q30 0 49.5 23.5z" />
    <glyph glyph-name="zero.dnom" horiz-adv-x="635" 
d="M137 49.5q-55 63.5 -55 172.5q0 38 8 88l14 82q25 146 105.5 234t216.5 88q114 0 169.5 -63.5t55.5 -172.5q0 -38 -8 -86l-14 -82q-25 -146 -106 -235t-217 -89q-114 0 -169 63.5zM421 156.5q36 50.5 52 148.5l16 93q7 42 7 79q0 58 -22 87.5t-68 29.5q-59 0 -94.5 -49.5
t-52.5 -146.5l-15 -93q-8 -48 -8 -82q0 -117 89 -117q60 0 96 50.5z" />
    <glyph glyph-name="one.dnom" horiz-adv-x="527" 
d="M505 121l-20 -121h-418l19 121h151l69 414h-4l-170 -134l27 165l170 134h136l-95 -579h135z" />
    <glyph glyph-name="two.dnom" horiz-adv-x="594" 
d="M75 118l128 97l55 40q76 54 121.5 92t75.5 80t30 87q0 36 -21.5 59t-67.5 23t-74 -21t-40 -48t-13 -48l-1 -12h-138q12 75 51 131t98.5 86.5t132.5 30.5q99 0 152.5 -48.5t53.5 -126.5q0 -68 -33 -125t-77 -97t-108 -87l-23 -17l-119 -88l-1 -5h301l-20 -121h-481z" />
    </font>
</defs>
</svg>
