<?xml version="1.0" standalone="no"?>
<!DOCTYPE svg PUBLIC "-//W3C//DTD SVG 1.1//EN" "http://www.w3.org/Graphics/SVG/1.1/DTD/svg11.dtd" >
<svg xmlns="http://www.w3.org/2000/svg" xmlns:xlink="http://www.w3.org/1999/xlink" version="1.1">
<metadata>
Created by FontForge 20170812 at Mon Aug  5 09:33:14 2019
 By www-data
Copyright 2019 The Bevietnam Project Authors (https://github.com/bettergui/beVietnam)
</metadata>
<defs>
<font id="BeVietnam-MediumItalic" horiz-adv-x="616" >
  <font-face 
    font-family="Be Vietnam Medium"
    font-weight="500"
    font-style="italic"
    font-stretch="normal"
    units-per-em="1000"
    panose-1="0 0 6 0 0 0 0 0 0 0"
    ascent="800"
    descent="-200"
    x-height="527"
    cap-height="700"
    bbox="-462 -265 1166 1196"
    underline-thickness="50"
    underline-position="-100"
    slope="-9.444"
    unicode-range="U+000D-2265"
  />
<missing-glyph horiz-adv-x="731" 
d="M599 -265h-463v1461h463v-1461zM245 1098v-48h95v-54h-96v-48h243v48h-97v54h97v48h-242zM244 910v-152h243v49h-97v103h-146zM340 807h-48v53h48v-53zM244 718v-48h96v-54h-96v-48h146v102h97v48h-243zM438 631v-97h-194v-50h243v147h-49zM340 452v-81h50v33h48v-69
h-146v117h-48v-165h243v165h-147zM244 200v-165h243v165h-243zM438 83h-146v68h146v-68zM244 1v-48h102l-102 -69v-48h243v48h-150l103 69h47v48h-243z" />
    <glyph glyph-name="f_f.liga" unicode="ff" horiz-adv-x="750" 
d="M723 651q-18 -13 -24.5 -31.5t-11.5 -47.5l-8 -45h123l-14 -82h-123l-75 -445h-103l74 445h-268l-75 -445h-103l74 445h-70l14 82h70l12 72q9 53 47 96t126 43q21 0 44 -2.5t32 -5.5l-11 -71q-20 5 -50 5q-34 0 -52 -13t-24.5 -31.5t-11.5 -47.5l-8 -45h268l12 72
q10 53 46.5 96t126.5 43q21 0 44 -2.5t32 -5.5l-11 -71q-22 5 -50 5q-34 0 -52 -13z" />
    <glyph glyph-name="f_i.liga" unicode="fi" horiz-adv-x="640" 
d="M678 734q15 -15 15 -37q0 -29 -23 -51.5t-52 -22.5q-24 0 -38.5 15t-14.5 37q0 29 22.5 51.5t51.5 22.5q24 0 39 -15zM561 0h-103l75 445h-240l-75 -445h-103l74 445h-70l14 82h70l12 72q9 53 47 96t126 43q21 0 44 -2.5t32 -5.5l-11 -71q-20 5 -50 5q-34 0 -52 -13
t-24.5 -31.5t-11.5 -47.5l-8 -45h343z" />
    <glyph glyph-name="t_t.liga" unicode="tt" horiz-adv-x="804" 
d="M658 167q-6 -36 -6 -48q0 -24 14 -35.5t50 -11.5q26 0 50 6l-12 -73q-7 -3 -34 -6t-52 -3q-70 0 -97 24t-27 68q0 15 3 34.5t4 26.5l50 296h-297l-47 -278q-6 -38 -6 -49q0 -24 13.5 -35t49.5 -11q25 0 51 6l-12 -73q-8 -3 -34.5 -6t-51.5 -3q-70 0 -97 24t-27 67
q0 25 7 62l50 296h-94l13 82h95l29 173h104l-29 -173h297l30 173h103l-29 -173h123l-13 -82h-124z" />
    <glyph glyph-name="hyphen_greater.liga" unicode="&#x2d;&#x3e;" horiz-adv-x="717" 
d="M570 527l162 -213l-233 -212h-104l184 168h-495l14 88h495l-127 169h104z" />
    <glyph glyph-name="colon_b_e_colon.liga" unicode="&#x3a;be&#x3a;" horiz-adv-x="878" 
d="M250 621h160q59 0 89 33.5t31 81.5q42 -13 65 -44.5t23 -76.5q0 -80 -54.5 -125.5t-148.5 -45.5h-217zM142 253h229q61 0 102.5 21.5t62 56.5t20.5 77q0 12 -1 18q64 -14 102.5 -64t38.5 -117q0 -72 -39 -131.5t-106.5 -93.5t-149.5 -34h-340z" />
    <glyph glyph-name="colon_d_d_colon.liga" unicode="&#x3a;dd&#x3a;" horiz-adv-x="599" 
d="M694 686h-58l-87 -518h-104l12 74h-7q-26 -32 -70 -56.5t-109 -24.5q-85 0 -129.5 49t-44.5 132t33.5 151t91.5 107.5t129 39.5q67 0 104.5 -27.5t47.5 -59.5h7l22 133h-130l11 68h131l11 68h104l-11 -68h57zM404.5 272q38.5 26 60.5 69.5t22 94.5t-29 84t-87 33
q-48 0 -86.5 -25.5t-60 -69t-21.5 -95.5t28.5 -84.5t86.5 -32.5q48 0 86.5 26zM103 70h437l-12 -70h-436z" />
    <glyph glyph-name="colon_d_o_w_n_colon.liga" unicode="&#x3a;down&#x3a;" horiz-adv-x="558" 
d="M525 200l-246 -199l-179 199l17 103l142 -155l91 553h89l-91 -553l194 155z" />
    <glyph glyph-name="colon_l_e_f_t_colon.liga" unicode="&#x3a;left&#x3a;" horiz-adv-x="687" 
d="M126 93h298q46 0 88.5 25t69 66.5t26.5 88.5q0 57 -37.5 94.5t-93.5 37.5h-251l149 -159h-112l-150 169l10 58l203 146h111l-197 -136h250q57 0 102 -26t71 -70.5t26 -99.5q0 -70 -39.5 -133t-103.5 -102t-135 -39h-298z" />
    <glyph glyph-name="colon_r_i_g_h_t_colon.liga" unicode="&#x3a;right&#x3a;" horiz-adv-x="687" 
d="M280 13q-57 0 -102 26t-70.5 71.5t-25.5 100.5q0 69 39.5 132t103.5 101.5t134 38.5h250l-151 136h112l153 -146l-9 -58l-207 -169h-111l202 159h-252q-45 0 -88 -25.5t-69.5 -68t-26.5 -90.5q0 -55 37.5 -91.5t94.5 -36.5h298l-14 -80h-298z" />
    <glyph glyph-name="colon_s_t_a_r_colon.liga" unicode="&#x3a;star&#x3a;" horiz-adv-x="831" 
d="M327 291l-164 144l236 16l127 221l54 -220l232 -17l-212 -143l24 -241l-177 137l-224 -137z" />
    <glyph glyph-name="colon_u_p_colon.liga" unicode="&#x3a;up&#x3a;" horiz-adv-x="558" 
d="M527 554l-91 -554h-88l91 554l-194 -156l18 103l246 199l179 -199l-18 -103z" />
    <glyph glyph-name="less_hyphen.liga" unicode="&#x3c;&#x2d;" horiz-adv-x="689" 
d="M95 358h495l14 -88h-495l185 -168h-104l-234 212l163 213h104z" />
    <glyph glyph-name=".notdef" horiz-adv-x="731" 
d="M599 -265h-463v1461h463v-1461zM245 1098v-48h95v-54h-96v-48h243v48h-97v54h97v48h-242zM244 910v-152h243v49h-97v103h-146zM340 807h-48v53h48v-53zM244 718v-48h96v-54h-96v-48h146v102h97v48h-243zM438 631v-97h-194v-50h243v147h-49zM340 452v-81h50v33h48v-69
h-146v117h-48v-165h243v165h-147zM244 200v-165h243v165h-243zM438 83h-146v68h146v-68zM244 1v-48h102l-102 -69v-48h243v48h-150l103 69h47v48h-243z" />
    <glyph glyph-name="nonmarkingreturn" unicode="&#xd;" horiz-adv-x="600" 
 />
    <glyph glyph-name="space" unicode=" " horiz-adv-x="230" 
 />
    <glyph glyph-name="A" unicode="A" horiz-adv-x="678" 
d="M508 193h-271l-100 -193h-105l377 700h98l142 -700h-105zM493 275l-55 294h-5l-153 -294h213z" />
    <glyph glyph-name="Aacute" unicode="&#xc1;" horiz-adv-x="678" 
d="M508 193h-271l-100 -193h-105l377 700h98l142 -700h-105zM493 275l-55 294h-5l-153 -294h213zM430 773l130 184h106l-154 -184h-82z" />
    <glyph glyph-name="Abreve" unicode="&#x102;" horiz-adv-x="678" 
d="M508 193h-271l-100 -193h-105l377 700h98l142 -700h-105zM493 275l-55 294h-5l-153 -294h213zM372 806.5q-38 27.5 -59 83.5h88q18 -50 79 -50t95 50h88q-40 -56 -86.5 -83.5t-106.5 -27.5t-98 27.5z" />
    <glyph glyph-name="uni1EAE" unicode="&#x1eae;" horiz-adv-x="678" 
d="M508 193h-271l-100 -193h-105l377 700h98l142 -700h-105zM493 275l-55 294h-5l-153 -294h213zM372 806.5q-38 27.5 -59 83.5h88q18 -50 79 -50t95 50h88q-40 -56 -86.5 -83.5t-106.5 -27.5t-98 27.5zM455 923l130 184h106l-154 -184h-82z" />
    <glyph glyph-name="uni1EB6" unicode="&#x1eb6;" horiz-adv-x="678" 
d="M508 193h-271l-100 -193h-105l377 700h98l142 -700h-105zM493 275l-55 294h-5l-153 -294h213zM263 -215.5q-14 14.5 -14 36.5q0 29 22 51t51 22q23 0 37.5 -15t14.5 -36q0 -29 -22.5 -51t-51.5 -22q-23 0 -37 14.5zM372 806.5q-38 27.5 -59 83.5h88q18 -50 79 -50t95 50
h88q-40 -56 -86.5 -83.5t-106.5 -27.5t-98 27.5z" />
    <glyph glyph-name="uni1EB0" unicode="&#x1eb0;" horiz-adv-x="678" 
d="M508 193h-271l-100 -193h-105l377 700h98l142 -700h-105zM493 275l-55 294h-5l-153 -294h213zM376 806.5q-38 27.5 -59 83.5h88q18 -50 79 -50t95 50h88q-40 -56 -86.5 -83.5t-106.5 -27.5t-98 27.5zM361 1107h107l68 -184h-82z" />
    <glyph glyph-name="uni1EB2" unicode="&#x1eb2;" horiz-adv-x="678" 
d="M508 193h-271l-100 -193h-105l377 700h98l142 -700h-105zM493 275l-55 294h-5l-153 -294h213zM372 806.5q-38 27.5 -59 83.5h88q18 -50 79 -50t95 50h88q-40 -56 -86.5 -83.5t-106.5 -27.5t-98 27.5zM464 938.5q8 6.5 17.5 12.5t13.5 9q27 16 42 30.5t15 36.5
q0 12 -8.5 20t-25.5 8q-18 0 -29.5 -8.5t-16.5 -22.5h-76q10 37 43 64t88 27q47 0 72.5 -20.5t25.5 -54.5t-16 -53.5t-44 -37.5q-25 -15 -30 -26h-83q4 9 12 15.5z" />
    <glyph glyph-name="uni1EB4" unicode="&#x1eb4;" horiz-adv-x="678" 
d="M508 193h-271l-100 -193h-105l377 700h98l142 -700h-105zM493 275l-55 294h-5l-153 -294h213zM371 806.5q-38 27.5 -59 83.5h88q18 -50 79 -50t95 50h88q-40 -56 -86.5 -83.5t-106.5 -27.5t-98 27.5zM373 1026.5q30 32.5 81 32.5q19 0 34.5 -5.5t34.5 -15.5
q17 -9 27.5 -13t21.5 -4q18 0 30 11t17 27h61q-9 -43 -38 -75t-81 -32q-19 0 -35.5 6t-35.5 16q-12 6 -24 11t-23 5q-32 0 -48 -39h-61q9 43 39 75.5z" />
    <glyph glyph-name="Acircumflex" unicode="&#xc2;" horiz-adv-x="678" 
d="M508 193h-271l-100 -193h-105l377 700h98l142 -700h-105zM493 275l-55 294h-5l-153 -294h213zM451 916h84l111 -150h-100l-62 84h-4l-90 -84h-99z" />
    <glyph glyph-name="uni1EA4" unicode="&#x1ea4;" horiz-adv-x="678" 
d="M508 193h-271l-100 -193h-105l377 700h98l142 -700h-105zM493 275l-55 294h-5l-153 -294h213zM451 916h84l111 -150h-100l-62 84h-4l-90 -84h-99zM605 892l130 184h106l-154 -184h-82z" />
    <glyph glyph-name="uni1EAC" unicode="&#x1eac;" horiz-adv-x="678" 
d="M508 193h-271l-100 -193h-105l377 700h98l142 -700h-105zM493 275l-55 294h-5l-153 -294h213zM263 -215.5q-14 14.5 -14 36.5q0 29 22 51t51 22q23 0 37.5 -15t14.5 -36q0 -29 -22.5 -51t-51.5 -22q-23 0 -37 14.5zM451 916h84l111 -150h-100l-62 84h-4l-90 -84h-99z" />
    <glyph glyph-name="uni1EA6" unicode="&#x1ea6;" horiz-adv-x="678" 
d="M508 193h-271l-100 -193h-105l377 700h98l142 -700h-105zM493 275l-55 294h-5l-153 -294h213zM451 916h84l111 -150h-100l-62 84h-4l-90 -84h-99zM519 1076h107l68 -184h-82z" />
    <glyph glyph-name="uni1EA8" unicode="&#x1ea8;" horiz-adv-x="678" 
d="M508 193h-271l-100 -193h-105l377 700h98l142 -700h-105zM493 275l-55 294h-5l-153 -294h213zM450 916h84l111 -150h-100l-62 84h-4l-90 -84h-99zM615 914.5q8 6.5 17.5 12.5t13.5 9q27 16 42 30.5t15 36.5q0 12 -8.5 20t-25.5 8q-18 0 -29.5 -8.5t-16.5 -22.5h-76
q10 37 43 64t88 27q47 0 72.5 -20.5t25.5 -54.5t-16 -53.5t-44 -37.5q-25 -15 -30 -26h-83q4 9 12 15.5z" />
    <glyph glyph-name="uni1EAA" unicode="&#x1eaa;" horiz-adv-x="678" 
d="M508 193h-271l-100 -193h-105l377 700h98l142 -700h-105zM493 275l-55 294h-5l-153 -294h213zM450 916h84l111 -150h-100l-62 84h-4l-90 -84h-99zM363 1039.5q30 32.5 81 32.5q19 0 34.5 -5.5t34.5 -15.5q17 -9 27.5 -13t21.5 -4q18 0 30 11t17 27h61q-9 -43 -38 -75
t-81 -32q-19 0 -35.5 6t-35.5 16q-12 6 -24 11t-23 5q-32 0 -48 -39h-61q9 43 39 75.5z" />
    <glyph glyph-name="Adieresis" unicode="&#xc4;" horiz-adv-x="678" 
d="M508 193h-271l-100 -193h-105l377 700h98l142 -700h-105zM493 275l-55 294h-5l-153 -294h213zM545.5 811q-14.5 15 -14.5 37q0 29 22.5 51.5t51.5 22.5q24 0 39 -15t15 -37q0 -29 -23 -51.5t-53 -22.5q-23 0 -37.5 15zM330.5 811q-14.5 15 -14.5 37q0 29 22.5 51.5
t51.5 22.5q24 0 39 -15t15 -37q0 -29 -23 -51.5t-53 -22.5q-23 0 -37.5 15z" />
    <glyph glyph-name="uni1EA0" unicode="&#x1ea0;" horiz-adv-x="678" 
d="M508 193h-271l-100 -193h-105l377 700h98l142 -700h-105zM493 275l-55 294h-5l-153 -294h213zM263 -215.5q-14 14.5 -14 36.5q0 29 22 51t51 22q23 0 37.5 -15t14.5 -36q0 -29 -22.5 -51t-51.5 -22q-23 0 -37 14.5z" />
    <glyph glyph-name="Agrave" unicode="&#xc0;" horiz-adv-x="678" 
d="M508 193h-271l-100 -193h-105l377 700h98l142 -700h-105zM493 275l-55 294h-5l-153 -294h213zM333 957h107l68 -184h-82z" />
    <glyph glyph-name="uni1EA2" unicode="&#x1ea2;" horiz-adv-x="678" 
d="M508 193h-271l-100 -193h-105l377 700h98l142 -700h-105zM493 275l-55 294h-5l-153 -294h213zM439 788.5q8 6.5 17.5 12.5t13.5 9q27 16 42 30.5t15 36.5q0 12 -8.5 20t-25.5 8q-18 0 -29.5 -8.5t-16.5 -22.5h-76q10 37 43 64t88 27q47 0 72.5 -20.5t25.5 -54.5
t-16 -53.5t-44 -37.5q-25 -15 -30 -26h-83q4 9 12 15.5z" />
    <glyph glyph-name="Amacron" unicode="&#x100;" horiz-adv-x="678" 
d="M508 193h-271l-100 -193h-105l377 700h98l142 -700h-105zM493 275l-55 294h-5l-153 -294h213zM328 847h306l-8 -51h-307z" />
    <glyph glyph-name="Aogonek" unicode="&#x104;" horiz-adv-x="678" 
d="M572 -98q12 -10 36 -10q11 0 38 6l-9 -58q-25 -6 -53 -6q-47 0 -72 21t-25 54q0 28 15 53t41 44l-35 187h-271l-100 -193h-105l377 700h98l142 -700h-23q-31 -17 -48.5 -33.5t-17.5 -40.5q0 -14 12 -24zM493 275l-55 294h-5l-153 -294h213z" />
    <glyph glyph-name="Aring" unicode="&#xc5;" horiz-adv-x="678" 
d="M508 193h-271l-100 -193h-105l377 700h98l142 -700h-105zM493 275l-55 294h-5l-153 -294h213zM415 803.5q-22 22.5 -22 54.5q0 27 15 51.5t40 39.5t52 15q34 0 56 -22t22 -54q0 -27 -15.5 -52t-40.5 -40t-52 -15q-33 0 -55 22.5zM515.5 844q16.5 16 16.5 37
q0 16 -11 26.5t-28 10.5q-21 0 -37 -16t-16 -37q0 -16 11 -26.5t27 -10.5q21 0 37.5 16z" />
    <glyph glyph-name="Atilde" unicode="&#xc3;" horiz-adv-x="678" 
d="M508 193h-271l-100 -193h-105l377 700h98l142 -700h-105zM493 275l-55 294h-5l-153 -294h213zM348 876.5q30 32.5 81 32.5q19 0 34.5 -5.5t34.5 -15.5q17 -9 27.5 -13t21.5 -4q18 0 30 11t17 27h61q-9 -43 -38 -75t-81 -32q-19 0 -35.5 6t-35.5 16q-12 6 -24 11t-23 5
q-32 0 -48 -39h-61q9 43 39 75.5z" />
    <glyph glyph-name="AE" unicode="&#xc6;" horiz-adv-x="959" 
d="M667 608l-35 -210h293l-14 -83h-293l-38 -223h337l-15 -92h-442l33 193h-228l-134 -193h-116l484 700h521l-15 -92h-338zM506 275l56 333h-8l-232 -333h184z" />
    <glyph glyph-name="B" unicode="B" horiz-adv-x="624" 
d="M187 700h285q87 0 128.5 -41.5t41.5 -103.5q0 -51 -23 -90.5t-55.5 -63t-61.5 -29.5l-2 -6q24 -2 52 -16.5t49 -43.5t21 -74q0 -59 -31.5 -112.5t-88.5 -86.5t-130 -33h-303zM390 398q66 0 108.5 37.5t42.5 95.5q0 44 -32.5 64t-80.5 20h-154l-37 -217h153zM361 85
q73 0 117.5 39.5t44.5 104.5q0 49 -35 70t-87 21h-177l-40 -235h177z" />
    <glyph glyph-name="C" unicode="C" horiz-adv-x="708" 
d="M221 28.5q-59 35.5 -88.5 98.5t-29.5 144q0 122 51 224t139 161t194 59q119 0 185.5 -68t72.5 -181h-102q-5 70 -50 113t-119 43t-134.5 -45t-94.5 -123.5t-34 -176.5q0 -89 43.5 -140t127.5 -51q70 0 127 39t88 101h102q-45 -105 -131.5 -169t-202.5 -64
q-85 0 -144 35.5z" />
    <glyph glyph-name="Cacute" unicode="&#x106;" horiz-adv-x="708" 
d="M221 28.5q-59 35.5 -88.5 98.5t-29.5 144q0 122 51 224t139 161t194 59q119 0 185.5 -68t72.5 -181h-102q-5 70 -50 113t-119 43t-134.5 -45t-94.5 -123.5t-34 -176.5q0 -89 43.5 -140t127.5 -51q70 0 127 39t88 101h102q-45 -105 -131.5 -169t-202.5 -64
q-85 0 -144 35.5zM449 773l130 184h106l-154 -184h-82z" />
    <glyph glyph-name="Ccaron" unicode="&#x10c;" horiz-adv-x="708" 
d="M221 28.5q-59 35.5 -88.5 98.5t-29.5 144q0 122 51 224t139 161t194 59q119 0 185.5 -68t72.5 -181h-102q-5 70 -50 113t-119 43t-134.5 -45t-94.5 -123.5t-34 -176.5q0 -89 43.5 -140t127.5 -51q70 0 127 39t88 101h102q-45 -105 -131.5 -169t-202.5 -64
q-85 0 -144 35.5zM434 916l61 -84h4l91 84h99l-160 -150h-84l-110 150h99z" />
    <glyph glyph-name="Ccedilla" unicode="&#xc7;" horiz-adv-x="708" 
d="M509 125q57 39 88 101h102q-42 -99 -121 -161.5t-184 -70.5l-23 -45h23q41 0 62.5 -20.5t21.5 -52.5q0 -33 -18 -61.5t-50 -45t-71 -16.5q-34 0 -60 11l10 56q32 -8 60 -8q34 0 54 15.5t20 40.5q0 18 -14 25t-31 7h-85l1 3l42 91q-113 9 -173 84.5t-60 192.5
q0 122 51 224t139 161t194 59q119 0 185.5 -68t72.5 -181h-102q-5 70 -50 113t-119 43t-134.5 -45t-94.5 -123.5t-34 -176.5q0 -89 43.5 -140t127.5 -51q70 0 127 39z" />
    <glyph glyph-name="Cdotaccent" unicode="&#x10a;" horiz-adv-x="708" 
d="M221 28.5q-59 35.5 -88.5 98.5t-29.5 144q0 122 51 224t139 161t194 59q119 0 185.5 -68t72.5 -181h-102q-5 70 -50 113t-119 43t-134.5 -45t-94.5 -123.5t-34 -176.5q0 -89 43.5 -140t127.5 -51q70 0 127 39t88 101h102q-45 -105 -131.5 -169t-202.5 -64
q-85 0 -144 35.5zM452.5 811q-14.5 15 -14.5 37q0 29 22.5 51.5t51.5 22.5q24 0 39 -15t15 -37q0 -29 -23 -51.5t-53 -22.5q-23 0 -37.5 15z" />
    <glyph glyph-name="D" unicode="D" horiz-adv-x="684" 
d="M187 700h261q122 0 192 -70.5t70 -195.5q0 -122 -50 -221.5t-137 -156t-194 -56.5h-260zM328 95q78 0 139.5 41t96.5 115t35 171q0 94 -49.5 139.5t-134.5 45.5h-143l-87 -512h143z" />
    <glyph glyph-name="Eth" unicode="&#xd0;" horiz-adv-x="712" 
d="M661.5 630.5q75.5 -69.5 75.5 -197.5q0 -127 -51.5 -225.5t-144.5 -153.5t-212 -55h-232l54 323h-54l12 71h54l52 307h234q137 0 212.5 -69.5zM446 117q67 23 124 96.5t57 211.5q0 81 -36.5 121.5t-81 50.5t-93.5 10h-115l-37 -214h124l-11 -71h-125l-39 -228h115
q51 0 118 23z" />
    <glyph glyph-name="Dcaron" unicode="&#x10e;" horiz-adv-x="684" 
d="M187 700h261q122 0 192 -70.5t70 -195.5q0 -122 -50 -221.5t-137 -156t-194 -56.5h-260zM328 95q78 0 139.5 41t96.5 115t35 171q0 94 -49.5 139.5t-134.5 45.5h-143l-87 -512h143zM407 916l61 -84h4l91 84h99l-160 -150h-84l-110 150h99z" />
    <glyph glyph-name="Dcroat" unicode="&#x110;" horiz-adv-x="712" 
d="M661.5 630.5q75.5 -69.5 75.5 -197.5q0 -127 -51.5 -225.5t-144.5 -153.5t-212 -55h-232l54 323h-54l12 71h54l52 307h234q137 0 212.5 -69.5zM446 117q67 23 124 96.5t57 211.5q0 81 -36.5 121.5t-81 50.5t-93.5 10h-115l-37 -214h124l-11 -71h-125l-39 -228h115
q51 0 118 23z" />
    <glyph glyph-name="E" unicode="E" horiz-adv-x="568" 
d="M276 608l-35 -210h293l-14 -83h-293l-38 -223h337l-15 -92h-442l118 700h442l-15 -92h-338z" />
    <glyph glyph-name="Eacute" unicode="&#xc9;" horiz-adv-x="568" 
d="M276 608l-35 -210h293l-14 -83h-293l-38 -223h337l-15 -92h-442l118 700h442l-15 -92h-338zM380 773l130 184h106l-154 -184h-82z" />
    <glyph glyph-name="Ecaron" unicode="&#x11a;" horiz-adv-x="568" 
d="M276 608l-35 -210h293l-14 -83h-293l-38 -223h337l-15 -92h-442l118 700h442l-15 -92h-338zM365 916l61 -84h4l91 84h99l-160 -150h-84l-110 150h99z" />
    <glyph glyph-name="Ecircumflex" unicode="&#xca;" horiz-adv-x="568" 
d="M276 608l-35 -210h293l-14 -83h-293l-38 -223h337l-15 -92h-442l118 700h442l-15 -92h-338zM401 916h84l111 -150h-100l-62 84h-4l-90 -84h-99z" />
    <glyph glyph-name="uni1EBE" unicode="&#x1ebe;" horiz-adv-x="568" 
d="M276 608l-35 -210h293l-14 -83h-293l-38 -223h337l-15 -92h-442l118 700h442l-15 -92h-338zM401 916h84l111 -150h-100l-62 84h-4l-90 -84h-99zM555 892l130 184h106l-154 -184h-82z" />
    <glyph glyph-name="uni1EC6" unicode="&#x1ec6;" horiz-adv-x="568" 
d="M276 608l-35 -210h293l-14 -83h-293l-38 -223h337l-15 -92h-442l118 700h442l-15 -92h-338zM214 -215.5q-14 14.5 -14 36.5q0 29 22 51t51 22q23 0 37.5 -15t14.5 -36q0 -29 -22.5 -51t-51.5 -22q-23 0 -37 14.5zM401 916h84l111 -150h-100l-62 84h-4l-90 -84h-99z" />
    <glyph glyph-name="uni1EC0" unicode="&#x1ec0;" horiz-adv-x="568" 
d="M276 608l-35 -210h293l-14 -83h-293l-38 -223h337l-15 -92h-442l118 700h442l-15 -92h-338zM401 916h84l111 -150h-100l-62 84h-4l-90 -84h-99zM469 1076h107l68 -184h-82z" />
    <glyph glyph-name="uni1EC2" unicode="&#x1ec2;" horiz-adv-x="568" 
d="M276 608l-35 -210h293l-14 -83h-293l-38 -223h337l-15 -92h-442l118 700h442l-15 -92h-338zM400 916h84l111 -150h-100l-62 84h-4l-90 -84h-99zM565 914.5q8 6.5 17.5 12.5t13.5 9q27 16 42 30.5t15 36.5q0 12 -8.5 20t-25.5 8q-18 0 -29.5 -8.5t-16.5 -22.5h-76
q10 37 43 64t88 27q47 0 72.5 -20.5t25.5 -54.5t-16 -53.5t-44 -37.5q-25 -15 -30 -26h-83q4 9 12 15.5z" />
    <glyph glyph-name="uni1EC4" unicode="&#x1ec4;" horiz-adv-x="568" 
d="M276 608l-35 -210h293l-14 -83h-293l-38 -223h337l-15 -92h-442l118 700h442l-15 -92h-338zM400 916h84l111 -150h-100l-62 84h-4l-90 -84h-99zM313 1039.5q30 32.5 81 32.5q19 0 34.5 -5.5t34.5 -15.5q17 -9 27.5 -13t21.5 -4q18 0 30 11t17 27h61q-9 -43 -38 -75
t-81 -32q-19 0 -35.5 6t-35.5 16q-12 6 -24 11t-23 5q-32 0 -48 -39h-61q9 43 39 75.5z" />
    <glyph glyph-name="Edieresis" unicode="&#xcb;" horiz-adv-x="568" 
d="M276 608l-35 -210h293l-14 -83h-293l-38 -223h337l-15 -92h-442l118 700h442l-15 -92h-338zM495.5 811q-14.5 15 -14.5 37q0 29 22.5 51.5t51.5 22.5q24 0 39 -15t15 -37q0 -29 -23 -51.5t-53 -22.5q-23 0 -37.5 15zM280.5 811q-14.5 15 -14.5 37q0 29 22.5 51.5
t51.5 22.5q24 0 39 -15t15 -37q0 -29 -23 -51.5t-53 -22.5q-23 0 -37.5 15z" />
    <glyph glyph-name="Edotaccent" unicode="&#x116;" horiz-adv-x="568" 
d="M276 608l-35 -210h293l-14 -83h-293l-38 -223h337l-15 -92h-442l118 700h442l-15 -92h-338zM383.5 811q-14.5 15 -14.5 37q0 29 22.5 51.5t51.5 22.5q24 0 39 -15t15 -37q0 -29 -23 -51.5t-53 -22.5q-23 0 -37.5 15z" />
    <glyph glyph-name="uni1EB8" unicode="&#x1eb8;" horiz-adv-x="568" 
d="M276 608l-35 -210h293l-14 -83h-293l-38 -223h337l-15 -92h-442l118 700h442l-15 -92h-338zM214 -215.5q-14 14.5 -14 36.5q0 29 22 51t51 22q23 0 37.5 -15t14.5 -36q0 -29 -22.5 -51t-51.5 -22q-23 0 -37 14.5z" />
    <glyph glyph-name="Egrave" unicode="&#xc8;" horiz-adv-x="568" 
d="M276 608l-35 -210h293l-14 -83h-293l-38 -223h337l-15 -92h-442l118 700h442l-15 -92h-338zM283 957h107l68 -184h-82z" />
    <glyph glyph-name="uni1EBA" unicode="&#x1eba;" horiz-adv-x="568" 
d="M276 608l-35 -210h293l-14 -83h-293l-38 -223h337l-15 -92h-442l118 700h442l-15 -92h-338zM389 788.5q8 6.5 17.5 12.5t13.5 9q27 16 42 30.5t15 36.5q0 12 -8.5 20t-25.5 8q-18 0 -29.5 -8.5t-16.5 -22.5h-76q10 37 43 64t88 27q47 0 72.5 -20.5t25.5 -54.5t-16 -53.5
t-44 -37.5q-25 -15 -30 -26h-83q4 9 12 15.5z" />
    <glyph glyph-name="Emacron" unicode="&#x112;" horiz-adv-x="568" 
d="M276 608l-35 -210h293l-14 -83h-293l-38 -223h337l-15 -92h-442l118 700h442l-15 -92h-338zM278 847h306l-8 -51h-307z" />
    <glyph glyph-name="Eogonek" unicode="&#x118;" horiz-adv-x="568" 
d="M276 608l-35 -210h293l-14 -83h-293l-38 -223h337l-15 -92h-1q-31 -17 -48.5 -33.5t-17.5 -40.5q0 -14 12 -24t36 -10q11 0 38 6l-9 -58q-25 -6 -53 -6q-47 0 -72 21t-25 54q0 51 48 91h-350l118 700h442l-15 -92h-338z" />
    <glyph glyph-name="uni1EBC" unicode="&#x1ebc;" horiz-adv-x="568" 
d="M276 608l-35 -210h293l-14 -83h-293l-38 -223h337l-15 -92h-442l118 700h442l-15 -92h-338zM298 876.5q30 32.5 81 32.5q19 0 34.5 -5.5t34.5 -15.5q17 -9 27.5 -13t21.5 -4q18 0 30 11t17 27h61q-9 -43 -38 -75t-81 -32q-19 0 -35.5 6t-35.5 16q-12 6 -24 11t-23 5
q-32 0 -48 -39h-61q9 43 39 75.5z" />
    <glyph glyph-name="F" unicode="F" horiz-adv-x="514" 
d="M276 608l-35 -211l285 2l-14 -84h-285l-53 -315h-104l117 700h427l-15 -92h-323z" />
    <glyph glyph-name="G" unicode="G" horiz-adv-x="716" 
d="M210 31q-56 38 -82 100.5t-26 139.5q0 121 51 223t138.5 161.5t191.5 59.5q118 0 181 -64t75 -164h-110q-8 63 -48 98.5t-112 35.5q-73 0 -133 -45.5t-94 -125t-34 -177.5q0 -93 45 -144t127 -51q59 0 106 25.5t76.5 68.5t38.5 95l5 24h-178l12 76h278l-61 -367h-80
l19 112h-8q-85 -119 -236 -119q-86 0 -142 38z" />
    <glyph glyph-name="Gbreve" unicode="&#x11e;" horiz-adv-x="716" 
d="M210 31q-56 38 -82 100.5t-26 139.5q0 121 51 223t138.5 161.5t191.5 59.5q118 0 181 -64t75 -164h-110q-8 63 -48 98.5t-112 35.5q-73 0 -133 -45.5t-94 -125t-34 -177.5q0 -93 45 -144t127 -51q59 0 106 25.5t76.5 68.5t38.5 95l5 24h-178l12 76h278l-61 -367h-80
l19 112h-8q-85 -119 -236 -119q-86 0 -142 38zM397 806.5q-38 27.5 -59 83.5h88q18 -50 79 -50t95 50h88q-40 -56 -86.5 -83.5t-106.5 -27.5t-98 27.5z" />
    <glyph glyph-name="Gdotaccent" unicode="&#x120;" horiz-adv-x="716" 
d="M210 31q-56 38 -82 100.5t-26 139.5q0 121 51 223t138.5 161.5t191.5 59.5q118 0 181 -64t75 -164h-110q-8 63 -48 98.5t-112 35.5q-73 0 -133 -45.5t-94 -125t-34 -177.5q0 -93 45 -144t127 -51q59 0 106 25.5t76.5 68.5t38.5 95l5 24h-178l12 76h278l-61 -367h-80
l19 112h-8q-85 -119 -236 -119q-86 0 -142 38zM458.5 811q-14.5 15 -14.5 37q0 29 22.5 51.5t51.5 22.5q24 0 39 -15t15 -37q0 -29 -23 -51.5t-53 -22.5q-23 0 -37.5 15z" />
    <glyph glyph-name="H" unicode="H" horiz-adv-x="679" 
d="M728 700l-118 -700h-104l52 310h-333l-52 -310h-104l118 700h103l-51 -307h333l51 307h105z" />
    <glyph glyph-name="Hbar" unicode="&#x126;" horiz-adv-x="695" 
d="M760 510h-56l-86 -510h-104l52 310h-333l-52 -310h-104l85 510h-54l13 83h55l18 107h104l-18 -107h333l18 107h105l-18 -107h55zM599 510h-333l-19 -117h333z" />
    <glyph glyph-name="I" unicode="I" horiz-adv-x="251" 
d="M191 700h105l-118 -700h-105z" />
    <glyph glyph-name="Iacute" unicode="&#xcd;" horiz-adv-x="251" 
d="M191 700h105l-118 -700h-105zM217 773l130 184h106l-154 -184h-82z" />
    <glyph glyph-name="Icircumflex" unicode="&#xce;" horiz-adv-x="251" 
d="M191 700h105l-118 -700h-105zM238 916h84l111 -150h-100l-62 84h-4l-90 -84h-99z" />
    <glyph glyph-name="Idieresis" unicode="&#xcf;" horiz-adv-x="251" 
d="M191 700h105l-118 -700h-105zM332.5 811q-14.5 15 -14.5 37q0 29 22.5 51.5t51.5 22.5q24 0 39 -15t15 -37q0 -29 -23 -51.5t-53 -22.5q-23 0 -37.5 15zM117.5 811q-14.5 15 -14.5 37q0 29 22.5 51.5t51.5 22.5q24 0 39 -15t15 -37q0 -29 -23 -51.5t-53 -22.5
q-23 0 -37.5 15z" />
    <glyph glyph-name="Idotaccent" unicode="&#x130;" horiz-adv-x="251" 
d="M191 700h105l-118 -700h-105zM220.5 811q-14.5 15 -14.5 37q0 29 22.5 51.5t51.5 22.5q24 0 39 -15t15 -37q0 -29 -23 -51.5t-53 -22.5q-23 0 -37.5 15z" />
    <glyph glyph-name="uni1ECA" unicode="&#x1eca;" horiz-adv-x="251" 
d="M191 700h105l-118 -700h-105zM51 -215.5q-14 14.5 -14 36.5q0 29 22 51t51 22q23 0 37.5 -15t14.5 -36q0 -29 -22.5 -51t-51.5 -22q-23 0 -37 14.5z" />
    <glyph glyph-name="Igrave" unicode="&#xcc;" horiz-adv-x="251" 
d="M191 700h105l-118 -700h-105zM120 957h107l68 -184h-82z" />
    <glyph glyph-name="uni1EC8" unicode="&#x1ec8;" horiz-adv-x="251" 
d="M191 700h105l-118 -700h-105zM226 788.5q8 6.5 17.5 12.5t13.5 9q27 16 42 30.5t15 36.5q0 12 -8.5 20t-25.5 8q-18 0 -29.5 -8.5t-16.5 -22.5h-76q10 37 43 64t88 27q47 0 72.5 -20.5t25.5 -54.5t-16 -53.5t-44 -37.5q-25 -15 -30 -26h-83q4 9 12 15.5z" />
    <glyph glyph-name="Imacron" unicode="&#x12a;" horiz-adv-x="251" 
d="M191 700h105l-118 -700h-105zM115 847h306l-8 -51h-307z" />
    <glyph glyph-name="Iogonek" unicode="&#x12e;" horiz-adv-x="251" 
d="M123 -98q12 -10 36 -10q11 0 38 6l-9 -58q-25 -6 -53 -6q-47 0 -72 21t-25 54q0 51 48 91h-13l118 700h105l-118 -700h-1q-31 -17 -48.5 -33.5t-17.5 -40.5q0 -14 12 -24z" />
    <glyph glyph-name="Itilde" unicode="&#x128;" horiz-adv-x="251" 
d="M191 700h105l-118 -700h-105zM136 876.5q30 32.5 81 32.5q19 0 34.5 -5.5t34.5 -15.5q17 -9 27.5 -13t21.5 -4q18 0 30 11t17 27h61q-9 -43 -38 -75t-81 -32q-19 0 -35.5 6t-35.5 16q-12 6 -24 11t-23 5q-32 0 -48 -39h-61q9 43 39 75.5z" />
    <glyph glyph-name="J" unicode="J" horiz-adv-x="353" 
d="M48 4l12 75q24 -4 46 -4q50 0 68 25t25 68l90 532h102l-94 -559q-24 -144 -177 -144q-47 0 -72 7z" />
    <glyph glyph-name="K" unicode="K" horiz-adv-x="634" 
d="M185 700h103l-51 -301h5l318 301h123l-320 -300l218 -400h-119l-175 326l-72 -66l-44 -260h-103z" />
    <glyph glyph-name="L" unicode="L" horiz-adv-x="530" 
d="M507 92l-15 -92h-423l118 700h104l-102 -608h318z" />
    <glyph glyph-name="Lacute" unicode="&#x139;" horiz-adv-x="530" 
d="M507 92l-15 -92h-423l118 700h104l-102 -608h318zM212 773l130 184h106l-154 -184h-82z" />
    <glyph glyph-name="Lcaron" unicode="&#x13d;" horiz-adv-x="530" 
d="M507 92l-15 -92h-423l118 700h104l-102 -608h318zM197 916l61 -84h4l91 84h99l-160 -150h-84l-110 150h99z" />
    <glyph glyph-name="M" unicode="M" horiz-adv-x="828" 
d="M187 700h153l105 -501h3l276 501h153l-118 -700h-102l93 545h-5l-295 -545h-72l-110 545h-5l-92 -545h-102z" />
    <glyph glyph-name="N" unicode="N" horiz-adv-x="708" 
d="M187 700h118l254 -537h3l92 537h102l-117 -700h-120l-254 526h-4l-89 -526h-103z" />
    <glyph glyph-name="Nacute" unicode="&#x143;" horiz-adv-x="708" 
d="M187 700h118l254 -537h3l92 537h102l-117 -700h-120l-254 526h-4l-89 -526h-103zM446 773l130 184h106l-154 -184h-82z" />
    <glyph glyph-name="Ncaron" unicode="&#x147;" horiz-adv-x="708" 
d="M187 700h118l254 -537h3l92 537h102l-117 -700h-120l-254 526h-4l-89 -526h-103zM430 916l61 -84h4l91 84h99l-160 -150h-84l-110 150h99z" />
    <glyph glyph-name="Ntilde" unicode="&#xd1;" horiz-adv-x="708" 
d="M187 700h118l254 -537h3l92 537h102l-117 -700h-120l-254 526h-4l-89 -526h-103zM364 876.5q30 32.5 81 32.5q19 0 34.5 -5.5t34.5 -15.5q17 -9 27.5 -13t21.5 -4q18 0 30 11t17 27h61q-9 -43 -38 -75t-81 -32q-19 0 -35.5 6t-35.5 16q-12 6 -24 11t-23 5q-32 0 -48 -39
h-61q9 43 39 75.5z" />
    <glyph glyph-name="O" unicode="O" horiz-adv-x="732" 
d="M167.5 68q-67.5 75 -67.5 199t51 226.5t139.5 162t195.5 59.5q127 0 195 -76t68 -202q0 -124 -50.5 -225.5t-139 -160t-195.5 -58.5q-129 0 -196.5 75zM509.5 132q59.5 45 94 122.5t34.5 170.5q0 89 -43.5 142.5t-124.5 53.5q-71 0 -130.5 -45.5t-94 -123t-34.5 -170.5
q0 -89 43.5 -142t124.5 -53q71 0 130.5 45z" />
    <glyph glyph-name="Oacute" unicode="&#xd3;" horiz-adv-x="732" 
d="M167.5 68q-67.5 75 -67.5 199t51 226.5t139.5 162t195.5 59.5q127 0 195 -76t68 -202q0 -124 -50.5 -225.5t-139 -160t-195.5 -58.5q-129 0 -196.5 75zM509.5 132q59.5 45 94 122.5t34.5 170.5q0 89 -43.5 142.5t-124.5 53.5q-71 0 -130.5 -45.5t-94 -123t-34.5 -170.5
q0 -89 43.5 -142t124.5 -53q71 0 130.5 45zM457 773l130 184h106l-154 -184h-82z" />
    <glyph glyph-name="Ocircumflex" unicode="&#xd4;" horiz-adv-x="732" 
d="M167.5 68q-67.5 75 -67.5 199t51 226.5t139.5 162t195.5 59.5q127 0 195 -76t68 -202q0 -124 -50.5 -225.5t-139 -160t-195.5 -58.5q-129 0 -196.5 75zM509.5 132q59.5 45 94 122.5t34.5 170.5q0 89 -43.5 142.5t-124.5 53.5q-71 0 -130.5 -45.5t-94 -123t-34.5 -170.5
q0 -89 43.5 -142t124.5 -53q71 0 130.5 45zM478 916h84l111 -150h-100l-62 84h-4l-90 -84h-99z" />
    <glyph glyph-name="uni1ED0" unicode="&#x1ed0;" horiz-adv-x="732" 
d="M167.5 68q-67.5 75 -67.5 199t51 226.5t139.5 162t195.5 59.5q127 0 195 -76t68 -202q0 -124 -50.5 -225.5t-139 -160t-195.5 -58.5q-129 0 -196.5 75zM509.5 132q59.5 45 94 122.5t34.5 170.5q0 89 -43.5 142.5t-124.5 53.5q-71 0 -130.5 -45.5t-94 -123t-34.5 -170.5
q0 -89 43.5 -142t124.5 -53q71 0 130.5 45zM478 916h84l111 -150h-100l-62 84h-4l-90 -84h-99zM632 892l130 184h106l-154 -184h-82z" />
    <glyph glyph-name="uni1ED8" unicode="&#x1ed8;" horiz-adv-x="732" 
d="M167.5 68q-67.5 75 -67.5 199t51 226.5t139.5 162t195.5 59.5q127 0 195 -76t68 -202q0 -124 -50.5 -225.5t-139 -160t-195.5 -58.5q-129 0 -196.5 75zM509.5 132q59.5 45 94 122.5t34.5 170.5q0 89 -43.5 142.5t-124.5 53.5q-71 0 -130.5 -45.5t-94 -123t-34.5 -170.5
q0 -89 43.5 -142t124.5 -53q71 0 130.5 45zM291 -215.5q-14 14.5 -14 36.5q0 29 22 51t51 22q23 0 37.5 -15t14.5 -36q0 -29 -22.5 -51t-51.5 -22q-23 0 -37 14.5zM478 916h84l111 -150h-100l-62 84h-4l-90 -84h-99z" />
    <glyph glyph-name="uni1ED2" unicode="&#x1ed2;" horiz-adv-x="732" 
d="M167.5 68q-67.5 75 -67.5 199t51 226.5t139.5 162t195.5 59.5q127 0 195 -76t68 -202q0 -124 -50.5 -225.5t-139 -160t-195.5 -58.5q-129 0 -196.5 75zM509.5 132q59.5 45 94 122.5t34.5 170.5q0 89 -43.5 142.5t-124.5 53.5q-71 0 -130.5 -45.5t-94 -123t-34.5 -170.5
q0 -89 43.5 -142t124.5 -53q71 0 130.5 45zM478 916h84l111 -150h-100l-62 84h-4l-90 -84h-99zM546 1076h107l68 -184h-82z" />
    <glyph glyph-name="uni1ED4" unicode="&#x1ed4;" horiz-adv-x="732" 
d="M167.5 68q-67.5 75 -67.5 199t51 226.5t139.5 162t195.5 59.5q127 0 195 -76t68 -202q0 -124 -50.5 -225.5t-139 -160t-195.5 -58.5q-129 0 -196.5 75zM509.5 132q59.5 45 94 122.5t34.5 170.5q0 89 -43.5 142.5t-124.5 53.5q-71 0 -130.5 -45.5t-94 -123t-34.5 -170.5
q0 -89 43.5 -142t124.5 -53q71 0 130.5 45zM477 916h84l111 -150h-100l-62 84h-4l-90 -84h-99zM642 914.5q8 6.5 17.5 12.5t13.5 9q27 16 42 30.5t15 36.5q0 12 -8.5 20t-25.5 8q-18 0 -29.5 -8.5t-16.5 -22.5h-76q10 37 43 64t88 27q47 0 72.5 -20.5t25.5 -54.5t-16 -53.5
t-44 -37.5q-25 -15 -30 -26h-83q4 9 12 15.5z" />
    <glyph glyph-name="uni1ED6" unicode="&#x1ed6;" horiz-adv-x="732" 
d="M167.5 68q-67.5 75 -67.5 199t51 226.5t139.5 162t195.5 59.5q127 0 195 -76t68 -202q0 -124 -50.5 -225.5t-139 -160t-195.5 -58.5q-129 0 -196.5 75zM509.5 132q59.5 45 94 122.5t34.5 170.5q0 89 -43.5 142.5t-124.5 53.5q-71 0 -130.5 -45.5t-94 -123t-34.5 -170.5
q0 -89 43.5 -142t124.5 -53q71 0 130.5 45zM477 916h84l111 -150h-100l-62 84h-4l-90 -84h-99zM390 1039.5q30 32.5 81 32.5q19 0 34.5 -5.5t34.5 -15.5q17 -9 27.5 -13t21.5 -4q18 0 30 11t17 27h61q-9 -43 -38 -75t-81 -32q-19 0 -35.5 6t-35.5 16q-12 6 -24 11t-23 5
q-32 0 -48 -39h-61q9 43 39 75.5z" />
    <glyph glyph-name="Odieresis" unicode="&#xd6;" horiz-adv-x="732" 
d="M167.5 68q-67.5 75 -67.5 199t51 226.5t139.5 162t195.5 59.5q127 0 195 -76t68 -202q0 -124 -50.5 -225.5t-139 -160t-195.5 -58.5q-129 0 -196.5 75zM509.5 132q59.5 45 94 122.5t34.5 170.5q0 89 -43.5 142.5t-124.5 53.5q-71 0 -130.5 -45.5t-94 -123t-34.5 -170.5
q0 -89 43.5 -142t124.5 -53q71 0 130.5 45zM572.5 811q-14.5 15 -14.5 37q0 29 22.5 51.5t51.5 22.5q24 0 39 -15t15 -37q0 -29 -23 -51.5t-53 -22.5q-23 0 -37.5 15zM357.5 811q-14.5 15 -14.5 37q0 29 22.5 51.5t51.5 22.5q24 0 39 -15t15 -37q0 -29 -23 -51.5t-53 -22.5
q-23 0 -37.5 15z" />
    <glyph glyph-name="uni1ECC" unicode="&#x1ecc;" horiz-adv-x="732" 
d="M167.5 68q-67.5 75 -67.5 199t51 226.5t139.5 162t195.5 59.5q127 0 195 -76t68 -202q0 -124 -50.5 -225.5t-139 -160t-195.5 -58.5q-129 0 -196.5 75zM509.5 132q59.5 45 94 122.5t34.5 170.5q0 89 -43.5 142.5t-124.5 53.5q-71 0 -130.5 -45.5t-94 -123t-34.5 -170.5
q0 -89 43.5 -142t124.5 -53q71 0 130.5 45zM291 -215.5q-14 14.5 -14 36.5q0 29 22 51t51 22q23 0 37.5 -15t14.5 -36q0 -29 -22.5 -51t-51.5 -22q-23 0 -37 14.5z" />
    <glyph glyph-name="Ograve" unicode="&#xd2;" horiz-adv-x="732" 
d="M167.5 68q-67.5 75 -67.5 199t51 226.5t139.5 162t195.5 59.5q127 0 195 -76t68 -202q0 -124 -50.5 -225.5t-139 -160t-195.5 -58.5q-129 0 -196.5 75zM509.5 132q59.5 45 94 122.5t34.5 170.5q0 89 -43.5 142.5t-124.5 53.5q-71 0 -130.5 -45.5t-94 -123t-34.5 -170.5
q0 -89 43.5 -142t124.5 -53q71 0 130.5 45zM360 957h107l68 -184h-82z" />
    <glyph glyph-name="uni1ECE" unicode="&#x1ece;" horiz-adv-x="732" 
d="M167.5 68q-67.5 75 -67.5 199t51 226.5t139.5 162t195.5 59.5q127 0 195 -76t68 -202q0 -124 -50.5 -225.5t-139 -160t-195.5 -58.5q-129 0 -196.5 75zM509.5 132q59.5 45 94 122.5t34.5 170.5q0 89 -43.5 142.5t-124.5 53.5q-71 0 -130.5 -45.5t-94 -123t-34.5 -170.5
q0 -89 43.5 -142t124.5 -53q71 0 130.5 45zM466 788.5q8 6.5 17.5 12.5t13.5 9q27 16 42 30.5t15 36.5q0 12 -8.5 20t-25.5 8q-18 0 -29.5 -8.5t-16.5 -22.5h-76q10 37 43 64t88 27q47 0 72.5 -20.5t25.5 -54.5t-16 -53.5t-44 -37.5q-25 -15 -30 -26h-83q4 9 12 15.5z" />
    <glyph glyph-name="Ohorn" unicode="&#x1a0;" horiz-adv-x="732" 
d="M732 682.5q-27 -24.5 -64 -30.5q40 -37 60.5 -92t20.5 -123q0 -124 -50.5 -225.5t-139 -160t-195.5 -58.5q-129 0 -196.5 75t-67.5 199t51 226.5t139.5 162t195.5 59.5q55 0 100 -15h38q29 0 44.5 12t22.5 54l5 31h78l-7 -42q-8 -48 -35 -72.5zM509.5 132
q59.5 45 94 122.5t34.5 170.5q0 89 -43.5 142.5t-124.5 53.5q-71 0 -130.5 -45.5t-94 -123t-34.5 -170.5q0 -89 43.5 -142t124.5 -53q71 0 130.5 45z" />
    <glyph glyph-name="uni1EDA" unicode="&#x1eda;" horiz-adv-x="732" 
d="M732 682.5q-27 -24.5 -64 -30.5q40 -37 60.5 -92t20.5 -123q0 -124 -50.5 -225.5t-139 -160t-195.5 -58.5q-129 0 -196.5 75t-67.5 199t51 226.5t139.5 162t195.5 59.5q55 0 100 -15h38q29 0 44.5 12t22.5 54l5 31h78l-7 -42q-8 -48 -35 -72.5zM509.5 132
q59.5 45 94 122.5t34.5 170.5q0 89 -43.5 142.5t-124.5 53.5q-71 0 -130.5 -45.5t-94 -123t-34.5 -170.5q0 -89 43.5 -142t124.5 -53q71 0 130.5 45zM457 773l130 184h106l-154 -184h-82z" />
    <glyph glyph-name="uni1EE2" unicode="&#x1ee2;" horiz-adv-x="732" 
d="M732 682.5q-27 -24.5 -64 -30.5q40 -37 60.5 -92t20.5 -123q0 -124 -50.5 -225.5t-139 -160t-195.5 -58.5q-129 0 -196.5 75t-67.5 199t51 226.5t139.5 162t195.5 59.5q55 0 100 -15h38q29 0 44.5 12t22.5 54l5 31h78l-7 -42q-8 -48 -35 -72.5zM509.5 132
q59.5 45 94 122.5t34.5 170.5q0 89 -43.5 142.5t-124.5 53.5q-71 0 -130.5 -45.5t-94 -123t-34.5 -170.5q0 -89 43.5 -142t124.5 -53q71 0 130.5 45zM291 -215.5q-14 14.5 -14 36.5q0 29 22 51t51 22q23 0 37.5 -15t14.5 -36q0 -29 -22.5 -51t-51.5 -22q-23 0 -37 14.5z" />
    <glyph glyph-name="uni1EDC" unicode="&#x1edc;" horiz-adv-x="732" 
d="M732 682.5q-27 -24.5 -64 -30.5q40 -37 60.5 -92t20.5 -123q0 -124 -50.5 -225.5t-139 -160t-195.5 -58.5q-129 0 -196.5 75t-67.5 199t51 226.5t139.5 162t195.5 59.5q55 0 100 -15h38q29 0 44.5 12t22.5 54l5 31h78l-7 -42q-8 -48 -35 -72.5zM509.5 132
q59.5 45 94 122.5t34.5 170.5q0 89 -43.5 142.5t-124.5 53.5q-71 0 -130.5 -45.5t-94 -123t-34.5 -170.5q0 -89 43.5 -142t124.5 -53q71 0 130.5 45zM360 957h107l68 -184h-82z" />
    <glyph glyph-name="uni1EDE" unicode="&#x1ede;" horiz-adv-x="732" 
d="M732 682.5q-27 -24.5 -64 -30.5q40 -37 60.5 -92t20.5 -123q0 -124 -50.5 -225.5t-139 -160t-195.5 -58.5q-129 0 -196.5 75t-67.5 199t51 226.5t139.5 162t195.5 59.5q55 0 100 -15h38q29 0 44.5 12t22.5 54l5 31h78l-7 -42q-8 -48 -35 -72.5zM509.5 132
q59.5 45 94 122.5t34.5 170.5q0 89 -43.5 142.5t-124.5 53.5q-71 0 -130.5 -45.5t-94 -123t-34.5 -170.5q0 -89 43.5 -142t124.5 -53q71 0 130.5 45zM466 788.5q8 6.5 17.5 12.5t13.5 9q27 16 42 30.5t15 36.5q0 12 -8.5 20t-25.5 8q-18 0 -29.5 -8.5t-16.5 -22.5h-76
q10 37 43 64t88 27q47 0 72.5 -20.5t25.5 -54.5t-16 -53.5t-44 -37.5q-25 -15 -30 -26h-83q4 9 12 15.5z" />
    <glyph glyph-name="uni1EE0" unicode="&#x1ee0;" horiz-adv-x="732" 
d="M732 682.5q-27 -24.5 -64 -30.5q40 -37 60.5 -92t20.5 -123q0 -124 -50.5 -225.5t-139 -160t-195.5 -58.5q-129 0 -196.5 75t-67.5 199t51 226.5t139.5 162t195.5 59.5q55 0 100 -15h38q29 0 44.5 12t22.5 54l5 31h78l-7 -42q-8 -48 -35 -72.5zM509.5 132
q59.5 45 94 122.5t34.5 170.5q0 89 -43.5 142.5t-124.5 53.5q-71 0 -130.5 -45.5t-94 -123t-34.5 -170.5q0 -89 43.5 -142t124.5 -53q71 0 130.5 45zM375 876.5q30 32.5 81 32.5q19 0 34.5 -5.5t34.5 -15.5q17 -9 27.5 -13t21.5 -4q18 0 30 11t17 27h61q-9 -43 -38 -75
t-81 -32q-19 0 -35.5 6t-35.5 16q-12 6 -24 11t-23 5q-32 0 -48 -39h-61q9 43 39 75.5z" />
    <glyph glyph-name="Omacron" unicode="&#x14c;" horiz-adv-x="732" 
d="M167.5 68q-67.5 75 -67.5 199t51 226.5t139.5 162t195.5 59.5q127 0 195 -76t68 -202q0 -124 -50.5 -225.5t-139 -160t-195.5 -58.5q-129 0 -196.5 75zM509.5 132q59.5 45 94 122.5t34.5 170.5q0 89 -43.5 142.5t-124.5 53.5q-71 0 -130.5 -45.5t-94 -123t-34.5 -170.5
q0 -89 43.5 -142t124.5 -53q71 0 130.5 45zM355 847h306l-8 -51h-307z" />
    <glyph glyph-name="Oslash" unicode="&#xd8;" horiz-adv-x="743" 
d="M699 623q55 -71 55 -186q0 -124 -50.5 -225.5t-138.5 -160t-195 -58.5q-88 0 -151 38l-60 -74h-96l100 123q-58 71 -58 187q0 124 51 226.5t139.5 162t195.5 59.5q91 0 153 -40l55 68h97zM238 174l338 417q-41 30 -100 30q-71 0 -131 -45.5t-94.5 -123t-34.5 -170.5
q0 -61 22 -108zM623 530l-336 -415q40 -28 98 -28q71 0 130 45t93.5 122.5t34.5 170.5q0 59 -20 105z" />
    <glyph glyph-name="Otilde" unicode="&#xd5;" horiz-adv-x="732" 
d="M167.5 68q-67.5 75 -67.5 199t51 226.5t139.5 162t195.5 59.5q127 0 195 -76t68 -202q0 -124 -50.5 -225.5t-139 -160t-195.5 -58.5q-129 0 -196.5 75zM509.5 132q59.5 45 94 122.5t34.5 170.5q0 89 -43.5 142.5t-124.5 53.5q-71 0 -130.5 -45.5t-94 -123t-34.5 -170.5
q0 -89 43.5 -142t124.5 -53q71 0 130.5 45zM375 876.5q30 32.5 81 32.5q19 0 34.5 -5.5t34.5 -15.5q17 -9 27.5 -13t21.5 -4q18 0 30 11t17 27h61q-9 -43 -38 -75t-81 -32q-19 0 -35.5 6t-35.5 16q-12 6 -24 11t-23 5q-32 0 -48 -39h-61q9 43 39 75.5z" />
    <glyph glyph-name="OE" unicode="&#x152;" horiz-adv-x="965" 
d="M161.5 73q-68.5 73 -68.5 195q0 121 50.5 220t138.5 155.5t195 56.5h549l-15 -92h-338l-36 -210h294l-14 -83h-293l-39 -223h338l-15 -92h-549q-129 0 -197.5 73zM481 94l88 513h-107q-71 0 -130.5 -43t-93.5 -117t-34 -164q0 -86 44.5 -137.5t126.5 -51.5h106z" />
    <glyph glyph-name="P" unicode="P" horiz-adv-x="585" 
d="M591 646.5q51 -53.5 51 -134.5q0 -75 -35 -138t-100.5 -100.5t-152.5 -37.5h-144l-40 -236h-101l118 700h245q108 0 159 -53.5zM489.5 371.5q50.5 47.5 50.5 127.5q0 59 -39 83.5t-99 24.5h-130l-47 -283h129q85 0 135.5 47.5z" />
    <glyph glyph-name="Thorn" unicode="&#xde;" horiz-adv-x="596" 
d="M571 528.5q51 -53.5 51 -134.5q0 -74 -35 -137.5t-100.5 -101t-152.5 -37.5h-144l-20 -118h-101l118 700h101l-20 -118h144q108 0 159 -53.5zM469.5 254q50.5 48 50.5 128q0 58 -39 83t-98 25h-130l-48 -284h129q85 0 135.5 48z" />
    <glyph glyph-name="Q" unicode="Q" horiz-adv-x="729" 
d="M704 223q-45 -97 -123 -156l73 -119h-96l-47 77q-69 -32 -147 -32q-129 0 -196.5 75t-67.5 199t51 226.5t139.5 162t195.5 59.5q127 0 195 -76t68 -202q0 -117 -45 -214zM463 105l-102 166h96l74 -121q50 47 78.5 119t28.5 156q0 89 -43.5 142.5t-124.5 53.5
q-71 0 -130.5 -45.5t-94 -123t-34.5 -170.5q0 -89 43.5 -142t124.5 -53q44 0 84 18z" />
    <glyph glyph-name="R" unicode="R" horiz-adv-x="606" 
d="M589.5 368.5q-54.5 -67.5 -150.5 -89.5l129 -279h-112l-124 271h-114l-46 -271h-103l118 700h245q109 0 160.5 -50.5t51.5 -126.5q0 -87 -54.5 -154.5zM493.5 399q49.5 41 49.5 111q0 54 -40 76t-101 22h-128l-42 -250h128q84 0 133.5 41z" />
    <glyph glyph-name="Racute" unicode="&#x154;" horiz-adv-x="606" 
d="M589.5 368.5q-54.5 -67.5 -150.5 -89.5l129 -279h-112l-124 271h-114l-46 -271h-103l118 700h245q109 0 160.5 -50.5t51.5 -126.5q0 -87 -54.5 -154.5zM493.5 399q49.5 41 49.5 111q0 54 -40 76t-101 22h-128l-42 -250h128q84 0 133.5 41zM378 773l130 184h106l-154 -184
h-82z" />
    <glyph glyph-name="Rcaron" unicode="&#x158;" horiz-adv-x="606" 
d="M589.5 368.5q-54.5 -67.5 -150.5 -89.5l129 -279h-112l-124 271h-114l-46 -271h-103l118 700h245q109 0 160.5 -50.5t51.5 -126.5q0 -87 -54.5 -154.5zM493.5 399q49.5 41 49.5 111q0 54 -40 76t-101 22h-128l-42 -250h128q84 0 133.5 41zM363 916l61 -84h4l91 84h99
l-160 -150h-84l-110 150h99z" />
    <glyph glyph-name="S" unicode="S" horiz-adv-x="601" 
d="M172.5 25q-51.5 33 -73 85.5t-18.5 112.5v5h114v-5q0 -56 28 -97t100 -41q44 0 80.5 17.5t57.5 48t21 67.5q0 36 -25 58t-62 29l-94 19q-53 11 -102 44t-49 111q0 66 35.5 120t97.5 85t138 31q77 0 126 -31t70.5 -79.5t21.5 -104.5v-4h-118v3q0 49 -24 87.5t-95 38.5
q-40 0 -73.5 -17t-53 -47t-19.5 -65q0 -34 24.5 -54.5t63.5 -28.5l86 -18q65 -14 114 -50.5t49 -107.5q0 -68 -38 -124t-104 -88.5t-146 -32.5q-81 0 -132.5 33z" />
    <glyph glyph-name="Sacute" unicode="&#x15a;" horiz-adv-x="601" 
d="M172.5 25q-51.5 33 -73 85.5t-18.5 112.5v5h114v-5q0 -56 28 -97t100 -41q44 0 80.5 17.5t57.5 48t21 67.5q0 36 -25 58t-62 29l-94 19q-53 11 -102 44t-49 111q0 66 35.5 120t97.5 85t138 31q77 0 126 -31t70.5 -79.5t21.5 -104.5v-4h-118v3q0 49 -24 87.5t-95 38.5
q-40 0 -73.5 -17t-53 -47t-19.5 -65q0 -34 24.5 -54.5t63.5 -28.5l86 -18q65 -14 114 -50.5t49 -107.5q0 -68 -38 -124t-104 -88.5t-146 -32.5q-81 0 -132.5 33zM414 772l130 184h106l-154 -184h-82z" />
    <glyph glyph-name="Scaron" unicode="&#x160;" horiz-adv-x="601" 
d="M172.5 25q-51.5 33 -73 85.5t-18.5 112.5v5h114v-5q0 -56 28 -97t100 -41q44 0 80.5 17.5t57.5 48t21 67.5q0 36 -25 58t-62 29l-94 19q-53 11 -102 44t-49 111q0 66 35.5 120t97.5 85t138 31q77 0 126 -31t70.5 -79.5t21.5 -104.5v-4h-118v3q0 49 -24 87.5t-95 38.5
q-40 0 -73.5 -17t-53 -47t-19.5 -65q0 -34 24.5 -54.5t63.5 -28.5l86 -18q65 -14 114 -50.5t49 -107.5q0 -68 -38 -124t-104 -88.5t-146 -32.5q-81 0 -132.5 33zM399 915l61 -84h4l91 84h99l-160 -150h-84l-110 150h99z" />
    <glyph glyph-name="Scedilla" unicode="&#x15e;" horiz-adv-x="601" 
d="M521 496v3q0 49 -24 87.5t-95 38.5q-40 0 -73.5 -17t-53 -47t-19.5 -65q0 -34 24.5 -54.5t63.5 -28.5l86 -18q65 -14 114 -50.5t49 -107.5q0 -64 -34.5 -118t-94.5 -87.5t-134 -38.5l-24 -47h23q41 0 62.5 -20.5t21.5 -52.5q0 -33 -18 -61.5t-50 -45t-71 -16.5
q-34 0 -60 11l10 56q32 -8 60 -8q34 0 54 15.5t20 40.5q0 18 -14 25t-31 7h-85l1 3l43 94q-69 7 -113 40.5t-62.5 83.5t-15.5 105v5h114v-5q0 -56 28 -97t100 -41q44 0 80.5 17.5t57.5 48t21 67.5q0 36 -25 58t-62 29l-94 19q-53 11 -102 44t-49 111q0 66 35.5 120t97.5 85
t138 31q77 0 126 -31t70.5 -79.5t21.5 -104.5v-4h-118z" />
    <glyph glyph-name="T" unicode="T" horiz-adv-x="590" 
d="M650 608h-202l-102 -608h-103l102 608h-200l15 92h505z" />
    <glyph glyph-name="Tbar" unicode="&#x166;" horiz-adv-x="589" 
d="M448 608l-32 -193h161l-12 -72h-161l-58 -343h-103l58 343h-160l11 72h161l32 193h-200l15 92h505l-15 -92h-202z" />
    <glyph glyph-name="Tcaron" unicode="&#x164;" horiz-adv-x="590" 
d="M650 608h-202l-102 -608h-103l102 608h-200l15 92h505zM371 916l61 -84h4l91 84h99l-160 -150h-84l-110 150h99z" />
    <glyph glyph-name="uni0162" unicode="&#x162;" horiz-adv-x="590" 
d="M650 608h-202l-102 -608h-103l102 608h-200l15 92h505zM318 -174.5q20 15.5 20 40.5q0 18 -14 25t-31 7h-85l1 3l46 99h58l-27 -53h23q41 0 62.5 -20.5t21.5 -52.5q0 -33 -18 -61.5t-50 -45t-71 -16.5q-34 0 -60 11l10 56q32 -8 60 -8q34 0 54 15.5z" />
    <glyph glyph-name="U" unicode="U" horiz-adv-x="684" 
d="M167.5 50q-61.5 59 -61.5 173q0 37 8 85l66 392h103l-66 -388q-6 -38 -6 -67q0 -66 32.5 -110.5t114.5 -44.5q103 0 151 68t63 154l66 388h102l-66 -392q-26 -155 -114 -236t-218 -81q-113 0 -174.5 59z" />
    <glyph glyph-name="Uacute" unicode="&#xda;" horiz-adv-x="684" 
d="M167.5 50q-61.5 59 -61.5 173q0 37 8 85l66 392h103l-66 -388q-6 -38 -6 -67q0 -66 32.5 -110.5t114.5 -44.5q103 0 151 68t63 154l66 388h102l-66 -392q-26 -155 -114 -236t-218 -81q-113 0 -174.5 59zM435 773l130 184h106l-154 -184h-82z" />
    <glyph glyph-name="Ucircumflex" unicode="&#xdb;" horiz-adv-x="684" 
d="M167.5 50q-61.5 59 -61.5 173q0 37 8 85l66 392h103l-66 -388q-6 -38 -6 -67q0 -66 32.5 -110.5t114.5 -44.5q103 0 151 68t63 154l66 388h102l-66 -392q-26 -155 -114 -236t-218 -81q-113 0 -174.5 59zM455 916h84l111 -150h-100l-62 84h-4l-90 -84h-99z" />
    <glyph glyph-name="Udieresis" unicode="&#xdc;" horiz-adv-x="684" 
d="M167.5 50q-61.5 59 -61.5 173q0 37 8 85l66 392h103l-66 -388q-6 -38 -6 -67q0 -66 32.5 -110.5t114.5 -44.5q103 0 151 68t63 154l66 388h102l-66 -392q-26 -155 -114 -236t-218 -81q-113 0 -174.5 59zM549.5 811q-14.5 15 -14.5 37q0 29 22.5 51.5t51.5 22.5
q24 0 39 -15t15 -37q0 -29 -23 -51.5t-53 -22.5q-23 0 -37.5 15zM334.5 811q-14.5 15 -14.5 37q0 29 22.5 51.5t51.5 22.5q24 0 39 -15t15 -37q0 -29 -23 -51.5t-53 -22.5q-23 0 -37.5 15z" />
    <glyph glyph-name="uni1EE4" unicode="&#x1ee4;" horiz-adv-x="684" 
d="M167.5 50q-61.5 59 -61.5 173q0 37 8 85l66 392h103l-66 -388q-6 -38 -6 -67q0 -66 32.5 -110.5t114.5 -44.5q103 0 151 68t63 154l66 388h102l-66 -392q-26 -155 -114 -236t-218 -81q-113 0 -174.5 59zM268 -215.5q-14 14.5 -14 36.5q0 29 22 51t51 22q23 0 37.5 -15
t14.5 -36q0 -29 -22.5 -51t-51.5 -22q-23 0 -37 14.5z" />
    <glyph glyph-name="Ugrave" unicode="&#xd9;" horiz-adv-x="684" 
d="M167.5 50q-61.5 59 -61.5 173q0 37 8 85l66 392h103l-66 -388q-6 -38 -6 -67q0 -66 32.5 -110.5t114.5 -44.5q103 0 151 68t63 154l66 388h102l-66 -392q-26 -155 -114 -236t-218 -81q-113 0 -174.5 59zM337 957h107l68 -184h-82z" />
    <glyph glyph-name="uni1EE6" unicode="&#x1ee6;" horiz-adv-x="684" 
d="M167.5 50q-61.5 59 -61.5 173q0 37 8 85l66 392h103l-66 -388q-6 -38 -6 -67q0 -66 32.5 -110.5t114.5 -44.5q103 0 151 68t63 154l66 388h102l-66 -392q-26 -155 -114 -236t-218 -81q-113 0 -174.5 59zM444 788.5q8 6.5 17.5 12.5t13.5 9q27 16 42 30.5t15 36.5
q0 12 -8.5 20t-25.5 8q-18 0 -29.5 -8.5t-16.5 -22.5h-76q10 37 43 64t88 27q47 0 72.5 -20.5t25.5 -54.5t-16 -53.5t-44 -37.5q-25 -15 -30 -26h-83q4 9 12 15.5z" />
    <glyph glyph-name="Uhorn" unicode="&#x1af;" horiz-adv-x="684" 
d="M865 797l-7 -42q-10 -58 -45.5 -81.5t-81.5 -24.5l-57 -341q-26 -155 -114 -236t-218 -81q-113 0 -174.5 59t-61.5 173q0 37 8 85l66 392h103l-66 -388q-6 -38 -6 -67q0 -66 32.5 -110.5t114.5 -44.5q103 0 151 68t63 154l66 388h77q29 0 44.5 12t22.5 54l5 31h78z" />
    <glyph glyph-name="uni1EE8" unicode="&#x1ee8;" horiz-adv-x="684" 
d="M865 797l-7 -42q-10 -58 -45.5 -81.5t-81.5 -24.5l-57 -341q-26 -155 -114 -236t-218 -81q-113 0 -174.5 59t-61.5 173q0 37 8 85l66 392h103l-66 -388q-6 -38 -6 -67q0 -66 32.5 -110.5t114.5 -44.5q103 0 151 68t63 154l66 388h77q29 0 44.5 12t22.5 54l5 31h78z
M435 773l130 184h106l-154 -184h-82z" />
    <glyph glyph-name="uni1EF0" unicode="&#x1ef0;" horiz-adv-x="684" 
d="M865 797l-7 -42q-10 -58 -45.5 -81.5t-81.5 -24.5l-57 -341q-26 -155 -114 -236t-218 -81q-113 0 -174.5 59t-61.5 173q0 37 8 85l66 392h103l-66 -388q-6 -38 -6 -67q0 -66 32.5 -110.5t114.5 -44.5q103 0 151 68t63 154l66 388h77q29 0 44.5 12t22.5 54l5 31h78z
M268 -215.5q-14 14.5 -14 36.5q0 29 22 51t51 22q23 0 37.5 -15t14.5 -36q0 -29 -22.5 -51t-51.5 -22q-23 0 -37 14.5z" />
    <glyph glyph-name="uni1EEA" unicode="&#x1eea;" horiz-adv-x="684" 
d="M865 797l-7 -42q-10 -58 -45.5 -81.5t-81.5 -24.5l-57 -341q-26 -155 -114 -236t-218 -81q-113 0 -174.5 59t-61.5 173q0 37 8 85l66 392h103l-66 -388q-6 -38 -6 -67q0 -66 32.5 -110.5t114.5 -44.5q103 0 151 68t63 154l66 388h77q29 0 44.5 12t22.5 54l5 31h78z
M337 957h107l68 -184h-82z" />
    <glyph glyph-name="uni1EEC" unicode="&#x1eec;" horiz-adv-x="684" 
d="M865 797l-7 -42q-10 -58 -45.5 -81.5t-81.5 -24.5l-57 -341q-26 -155 -114 -236t-218 -81q-113 0 -174.5 59t-61.5 173q0 37 8 85l66 392h103l-66 -388q-6 -38 -6 -67q0 -66 32.5 -110.5t114.5 -44.5q103 0 151 68t63 154l66 388h77q29 0 44.5 12t22.5 54l5 31h78z
M444 788.5q8 6.5 17.5 12.5t13.5 9q27 16 42 30.5t15 36.5q0 12 -8.5 20t-25.5 8q-18 0 -29.5 -8.5t-16.5 -22.5h-76q10 37 43 64t88 27q47 0 72.5 -20.5t25.5 -54.5t-16 -53.5t-44 -37.5q-25 -15 -30 -26h-83q4 9 12 15.5z" />
    <glyph glyph-name="uni1EEE" unicode="&#x1eee;" horiz-adv-x="684" 
d="M865 797l-7 -42q-10 -58 -45.5 -81.5t-81.5 -24.5l-57 -341q-26 -155 -114 -236t-218 -81q-113 0 -174.5 59t-61.5 173q0 37 8 85l66 392h103l-66 -388q-6 -38 -6 -67q0 -66 32.5 -110.5t114.5 -44.5q103 0 151 68t63 154l66 388h77q29 0 44.5 12t22.5 54l5 31h78z
M353 876.5q30 32.5 81 32.5q19 0 34.5 -5.5t34.5 -15.5q17 -9 27.5 -13t21.5 -4q18 0 30 11t17 27h61q-9 -43 -38 -75t-81 -32q-19 0 -35.5 6t-35.5 16q-12 6 -24 11t-23 5q-32 0 -48 -39h-61q9 43 39 75.5z" />
    <glyph glyph-name="Umacron" unicode="&#x16a;" horiz-adv-x="684" 
d="M167.5 50q-61.5 59 -61.5 173q0 37 8 85l66 392h103l-66 -388q-6 -38 -6 -67q0 -66 32.5 -110.5t114.5 -44.5q103 0 151 68t63 154l66 388h102l-66 -392q-26 -155 -114 -236t-218 -81q-113 0 -174.5 59zM332 847h306l-8 -51h-307z" />
    <glyph glyph-name="Uogonek" unicode="&#x172;" horiz-adv-x="684" 
d="M740 700l-66 -392q-24 -141 -98.5 -220.5t-185.5 -93.5q-31 -17 -48.5 -33.5t-17.5 -40.5q0 -14 12 -24t36 -10q11 0 38 6l-9 -58q-25 -6 -53 -6q-47 0 -72 21t-25 54q0 52 48 90q-93 11 -143 69.5t-50 161.5q0 36 8 84l66 392h103l-66 -388q-6 -38 -6 -67
q0 -66 32.5 -110.5t114.5 -44.5q103 0 151 68t63 154l66 388h102z" />
    <glyph glyph-name="Uring" unicode="&#x16e;" horiz-adv-x="684" 
d="M167.5 50q-61.5 59 -61.5 173q0 37 8 85l66 392h103l-66 -388q-6 -38 -6 -67q0 -66 32.5 -110.5t114.5 -44.5q103 0 151 68t63 154l66 388h102l-66 -392q-26 -155 -114 -236t-218 -81q-113 0 -174.5 59zM419 803.5q-22 22.5 -22 54.5q0 27 15 51.5t40 39.5t52 15
q34 0 56 -22t22 -54q0 -27 -15.5 -52t-40.5 -40t-52 -15q-33 0 -55 22.5zM519.5 844q16.5 16 16.5 37q0 16 -11 26.5t-28 10.5q-21 0 -37 -16t-16 -37q0 -16 11 -26.5t27 -10.5q21 0 37.5 16z" />
    <glyph glyph-name="Utilde" unicode="&#x168;" horiz-adv-x="684" 
d="M167.5 50q-61.5 59 -61.5 173q0 37 8 85l66 392h103l-66 -388q-6 -38 -6 -67q0 -66 32.5 -110.5t114.5 -44.5q103 0 151 68t63 154l66 388h102l-66 -392q-26 -155 -114 -236t-218 -81q-113 0 -174.5 59zM353 876.5q30 32.5 81 32.5q19 0 34.5 -5.5t34.5 -15.5
q17 -9 27.5 -13t21.5 -4q18 0 30 11t17 27h61q-9 -43 -38 -75t-81 -32q-19 0 -35.5 6t-35.5 16q-12 6 -24 11t-23 5q-32 0 -48 -39h-61q9 43 39 75.5z" />
    <glyph glyph-name="V" unicode="V" horiz-adv-x="641" 
d="M131 700h104l100 -593h6l301 593h104l-355 -700h-140z" />
    <glyph glyph-name="W" unicode="W" horiz-adv-x="994" 
d="M131 700h104l47 -571h6l280 571h93l85 -571h6l242 571h104l-303 -700h-132l-75 517h-6l-252 -517h-132z" />
    <glyph glyph-name="Wacute" unicode="&#x1e82;" horiz-adv-x="994" 
d="M131 700h104l47 -571h6l280 571h93l85 -571h6l242 571h104l-303 -700h-132l-75 517h-6l-252 -517h-132zM588 773l130 184h106l-154 -184h-82z" />
    <glyph glyph-name="Wcircumflex" unicode="&#x174;" horiz-adv-x="994" 
d="M131 700h104l47 -571h6l280 571h93l85 -571h6l242 571h104l-303 -700h-132l-75 517h-6l-252 -517h-132zM609 916h84l111 -150h-100l-62 84h-4l-90 -84h-99z" />
    <glyph glyph-name="Wdieresis" unicode="&#x1e84;" horiz-adv-x="994" 
d="M131 700h104l47 -571h6l280 571h93l85 -571h6l242 571h104l-303 -700h-132l-75 517h-6l-252 -517h-132zM703.5 811q-14.5 15 -14.5 37q0 29 22.5 51.5t51.5 22.5q24 0 39 -15t15 -37q0 -29 -23 -51.5t-53 -22.5q-23 0 -37.5 15zM488.5 811q-14.5 15 -14.5 37
q0 29 22.5 51.5t51.5 22.5q24 0 39 -15t15 -37q0 -29 -23 -51.5t-53 -22.5q-23 0 -37.5 15z" />
    <glyph glyph-name="Wgrave" unicode="&#x1e80;" horiz-adv-x="994" 
d="M131 700h104l47 -571h6l280 571h93l85 -571h6l242 571h104l-303 -700h-132l-75 517h-6l-252 -517h-132zM491 957h107l68 -184h-82z" />
    <glyph glyph-name="X" unicode="X" horiz-adv-x="664" 
d="M326 350l-172 350h115l132 -277h6l226 277h115l-290 -350l173 -350h-116l-132 277h-6l-226 -277h-115z" />
    <glyph glyph-name="Y" unicode="Y" horiz-adv-x="624" 
d="M259 -1l43 251l-153 450h111l108 -339h7l223 339h111l-304 -450l-42 -250z" />
    <glyph glyph-name="Yacute" unicode="&#xdd;" horiz-adv-x="624" 
d="M259 -1l43 251l-153 450h111l108 -339h7l223 339h111l-304 -450l-42 -250zM402 773l130 184h106l-154 -184h-82z" />
    <glyph glyph-name="Ycircumflex" unicode="&#x176;" horiz-adv-x="624" 
d="M259 -1l43 251l-153 450h111l108 -339h7l223 339h111l-304 -450l-42 -250zM423 916h84l111 -150h-100l-62 84h-4l-90 -84h-99z" />
    <glyph glyph-name="Ydieresis" unicode="&#x178;" horiz-adv-x="624" 
d="M259 -1l43 251l-153 450h111l108 -339h7l223 339h111l-304 -450l-42 -250zM516.5 811q-14.5 15 -14.5 37q0 29 22.5 51.5t51.5 22.5q24 0 39 -15t15 -37q0 -29 -23 -51.5t-53 -22.5q-23 0 -37.5 15zM301.5 811q-14.5 15 -14.5 37q0 29 22.5 51.5t51.5 22.5q24 0 39 -15
t15 -37q0 -29 -23 -51.5t-53 -22.5q-23 0 -37.5 15z" />
    <glyph glyph-name="uni1EF4" unicode="&#x1ef4;" horiz-adv-x="624" 
d="M259 -1l43 251l-153 450h111l108 -339h7l223 339h111l-304 -450l-42 -250zM235 -215.5q-14 14.5 -14 36.5q0 29 22 51t51 22q23 0 37.5 -15t14.5 -36q0 -29 -22.5 -51t-51.5 -22q-23 0 -37 14.5z" />
    <glyph glyph-name="Ygrave" unicode="&#x1ef2;" horiz-adv-x="624" 
d="M259 -1l43 251l-153 450h111l108 -339h7l223 339h111l-304 -450l-42 -250zM304 957h107l68 -184h-82z" />
    <glyph glyph-name="uni1EF6" unicode="&#x1ef6;" horiz-adv-x="624" 
d="M259 -1l43 251l-153 450h111l108 -339h7l223 339h111l-304 -450l-42 -250zM411 788.5q8 6.5 17.5 12.5t13.5 9q27 16 42 30.5t15 36.5q0 12 -8.5 20t-25.5 8q-18 0 -29.5 -8.5t-16.5 -22.5h-76q10 37 43 64t88 27q47 0 72.5 -20.5t25.5 -54.5t-16 -53.5t-44 -37.5
q-25 -15 -30 -26h-83q4 9 12 15.5z" />
    <glyph glyph-name="uni1EF8" unicode="&#x1ef8;" horiz-adv-x="624" 
d="M259 -1l43 251l-153 450h111l108 -339h7l223 339h111l-304 -450l-42 -250zM320 876.5q30 32.5 81 32.5q19 0 34.5 -5.5t34.5 -15.5q17 -9 27.5 -13t21.5 -4q18 0 30 11t17 27h61q-9 -43 -38 -75t-81 -32q-19 0 -35.5 6t-35.5 16q-12 6 -24 11t-23 5q-32 0 -48 -39h-61
q9 43 39 75.5z" />
    <glyph glyph-name="Z" unicode="Z" 
d="M65 95l467 508v2h-380l16 95h504l-15 -95l-467 -508v-2h380l-16 -95h-504z" />
    <glyph glyph-name="Zacute" unicode="&#x179;" 
d="M65 95l467 508v2h-380l16 95h504l-15 -95l-467 -508v-2h380l-16 -95h-504zM400 773l130 184h106l-154 -184h-82z" />
    <glyph glyph-name="Zcaron" unicode="&#x17d;" 
d="M65 95l467 508v2h-380l16 95h504l-15 -95l-467 -508v-2h380l-16 -95h-504zM384 916l61 -84h4l91 84h99l-160 -150h-84l-110 150h99z" />
    <glyph glyph-name="Zdotaccent" unicode="&#x17b;" 
d="M65 95l467 508v2h-380l16 95h504l-15 -95l-467 -508v-2h380l-16 -95h-504zM402.5 811q-14.5 15 -14.5 37q0 29 22.5 51.5t51.5 22.5q24 0 39 -15t15 -37q0 -29 -23 -51.5t-53 -22.5q-23 0 -37.5 15z" />
    <glyph glyph-name="B.ss01" horiz-adv-x="615" 
d="M187 700h293q81 0 119.5 -34t38.5 -89q0 -18 -2 -27l-7 -47q-7 -39 -30.5 -67.5t-52 -44.5t-50.5 -20l-1 -6q23 -3 51 -15t49 -38.5t21 -66.5q0 -17 -2 -26l-8 -47q-13 -72 -72 -122t-161 -50h-304zM399 398q55 0 90 26.5t41 66.5l5 32q2 12 2 19q0 33 -22.5 53.5
t-70.5 20.5h-169l-38 -218h162zM373 85q65 0 98 28t41 72l5 35q2 14 2 21q0 36 -24.5 57.5t-77.5 21.5h-193l-40 -235h189z" />
    <glyph glyph-name="C.ss01" horiz-adv-x="687" 
d="M159.5 61.5q-65.5 68.5 -65.5 181.5q0 34 6 68l14 85q15 91 63.5 163.5t124 114t167.5 41.5q120 -1 184 -69t64 -180h-104q0 70 -41.5 114.5t-118.5 44.5q-96 0 -157.5 -65t-78.5 -171l-12 -71q-5 -27 -5 -62q0 -80 40 -126.5t121 -46.5q76 0 127.5 39.5t79.5 103.5h104
q-40 -106 -125 -169.5t-201 -63.5q-121 0 -186.5 68.5z" />
    <glyph glyph-name="D.ss01" horiz-adv-x="664" 
d="M187 701l252 -1q84 0 141.5 -32t86 -86.5t28.5 -124.5q0 -32 -6 -65l-14 -82q-15 -87 -62.5 -157.5t-122 -111.5t-169.5 -41h-252zM336 93q97 0 158.5 62t78.5 161l11 69q5 33 5 57q0 77 -41 121.5t-123 44.5h-152l-88 -515h151z" />
    <glyph glyph-name="Eth.ss01" horiz-adv-x="692" 
d="M657 632q65 -67 65 -177q0 -35 -5 -63l-14 -82q-15 -87 -62 -157.5t-121.5 -111.5t-169.5 -41h-253l54 322h-54l12 71h54l52 307h252q125 -1 190 -68zM618 440q0 78 -41.5 123t-124.5 45h-151l-37 -215h124l-11 -71h-125l-39 -229h152q97 0 158 61.5t78 161.5l12 69
q5 32 5 55z" />
    <glyph glyph-name="Dcaron.ss01" horiz-adv-x="664" 
d="M187 701l252 -1q84 0 141.5 -32t86 -86.5t28.5 -124.5q0 -32 -6 -65l-14 -82q-15 -87 -62.5 -157.5t-122 -111.5t-169.5 -41h-252zM336 93q97 0 158.5 62t78.5 161l11 69q5 33 5 57q0 77 -41 121.5t-123 44.5h-152l-88 -515h151zM377 916l61 -84h4l91 84h99l-160 -150
h-84l-110 150h99z" />
    <glyph glyph-name="Dcroat.ss01" horiz-adv-x="692" 
d="M657 632q65 -67 65 -177q0 -35 -5 -63l-14 -82q-15 -87 -62 -157.5t-121.5 -111.5t-169.5 -41h-253l54 322h-54l12 71h54l52 307h252q125 -1 190 -68zM618 440q0 78 -41.5 123t-124.5 45h-151l-37 -215h124l-11 -71h-125l-39 -229h152q97 0 158 61.5t78 161.5l12 69
q5 32 5 55z" />
    <glyph glyph-name="G.ss01" horiz-adv-x="701" 
d="M159.5 61q-63.5 68 -63.5 181q0 33 6 69l15 85q15 91 63.5 163.5t123.5 114t167 41.5q119 -1 183 -67.5t66 -176.5h-104q-2 70 -44 112t-116 42q-97 0 -158.5 -65t-78.5 -171l-12 -71q-6 -34 -6 -66q0 -81 41 -127.5t125 -46.5q85 0 145 52t75 133l5 28h-184l12 76h283
l-61 -367h-80l19 112h-8q-18 -25 -38 -47t-71 -47t-124 -25q-117 0 -180.5 68z" />
    <glyph glyph-name="Gbreve.ss01" horiz-adv-x="701" 
d="M159.5 61q-63.5 68 -63.5 181q0 33 6 69l15 85q15 91 63.5 163.5t123.5 114t167 41.5q119 -1 183 -67.5t66 -176.5h-104q-2 70 -44 112t-116 42q-97 0 -158.5 -65t-78.5 -171l-12 -71q-6 -34 -6 -66q0 -81 41 -127.5t125 -46.5q85 0 145 52t75 133l5 28h-184l12 76h283
l-61 -367h-80l19 112h-8q-18 -25 -38 -47t-71 -47t-124 -25q-117 0 -180.5 68zM384 806.5q-38 27.5 -59 83.5h88q18 -50 79 -50t95 50h88q-40 -56 -86.5 -83.5t-106.5 -27.5t-98 27.5z" />
    <glyph glyph-name="Gdotaccent.ss01" horiz-adv-x="701" 
d="M159.5 61q-63.5 68 -63.5 181q0 33 6 69l15 85q15 91 63.5 163.5t123.5 114t167 41.5q119 -1 183 -67.5t66 -176.5h-104q-2 70 -44 112t-116 42q-97 0 -158.5 -65t-78.5 -171l-12 -71q-6 -34 -6 -66q0 -81 41 -127.5t125 -46.5q85 0 145 52t75 133l5 28h-184l12 76h283
l-61 -367h-80l19 112h-8q-18 -25 -38 -47t-71 -47t-124 -25q-117 0 -180.5 68zM444.5 811q-14.5 15 -14.5 37q0 29 22.5 51.5t51.5 22.5q24 0 39 -15t15 -37q0 -29 -23 -51.5t-53 -22.5q-23 0 -37.5 15z" />
    <glyph glyph-name="J.ss01" horiz-adv-x="523" 
d="M175 170q0 -50 25 -68.5t57 -18.5q100 0 120 113l85 504l104 1l-86 -505q-12 -70 -48.5 -115.5t-86 -66.5t-102.5 -21q-73 0 -123 39.5t-50 124.5q0 20 5 52h104q-4 -30 -4 -39z" />
    <glyph glyph-name="O.ss01" horiz-adv-x="700" 
d="M208 25q-57 32 -85.5 88.5t-28.5 128.5q0 33 6 69l14 85q15 89 62 161.5t122.5 115t170.5 42.5q124 0 189 -69.5t65 -181.5q0 -33 -6 -68l-14 -85q-15 -89 -62.5 -161.5t-123 -114.5t-170.5 -42q-82 0 -139 32zM521 147.5q61 64.5 79 170.5l12 71q6 33 6 63
q0 80 -41 126.5t-122 46.5q-98 0 -159.5 -65t-78.5 -171l-12 -71q-5 -27 -5 -62q0 -80 40 -126.5t122 -46.5q98 0 159 64.5z" />
    <glyph glyph-name="Oacute.ss01" horiz-adv-x="700" 
d="M208 25q-57 32 -85.5 88.5t-28.5 128.5q0 33 6 69l14 85q15 89 62 161.5t122.5 115t170.5 42.5q124 0 189 -69.5t65 -181.5q0 -33 -6 -68l-14 -85q-15 -89 -62.5 -161.5t-123 -114.5t-170.5 -42q-82 0 -139 32zM521 147.5q61 64.5 79 170.5l12 71q6 33 6 63
q0 80 -41 126.5t-122 46.5q-98 0 -159.5 -65t-78.5 -171l-12 -71q-5 -27 -5 -62q0 -80 40 -126.5t122 -46.5q98 0 159 64.5zM440 773l130 184h106l-154 -184h-82z" />
    <glyph glyph-name="Ocircumflex.ss01" horiz-adv-x="700" 
d="M208 25q-57 32 -85.5 88.5t-28.5 128.5q0 33 6 69l14 85q15 89 62 161.5t122.5 115t170.5 42.5q124 0 189 -69.5t65 -181.5q0 -33 -6 -68l-14 -85q-15 -89 -62.5 -161.5t-123 -114.5t-170.5 -42q-82 0 -139 32zM521 147.5q61 64.5 79 170.5l12 71q6 33 6 63
q0 80 -41 126.5t-122 46.5q-98 0 -159.5 -65t-78.5 -171l-12 -71q-5 -27 -5 -62q0 -80 40 -126.5t122 -46.5q98 0 159 64.5zM461 916h84l111 -150h-100l-62 84h-4l-90 -84h-99z" />
    <glyph glyph-name="uni1ED0.ss01" horiz-adv-x="700" 
d="M208 25q-57 32 -85.5 88.5t-28.5 128.5q0 33 6 69l14 85q15 89 62 161.5t122.5 115t170.5 42.5q124 0 189 -69.5t65 -181.5q0 -33 -6 -68l-14 -85q-15 -89 -62.5 -161.5t-123 -114.5t-170.5 -42q-82 0 -139 32zM521 147.5q61 64.5 79 170.5l12 71q6 33 6 63
q0 80 -41 126.5t-122 46.5q-98 0 -159.5 -65t-78.5 -171l-12 -71q-5 -27 -5 -62q0 -80 40 -126.5t122 -46.5q98 0 159 64.5zM461 916h84l111 -150h-100l-62 84h-4l-90 -84h-99zM615 892l130 184h106l-154 -184h-82z" />
    <glyph glyph-name="uni1ED8.ss01" horiz-adv-x="700" 
d="M208 25q-57 32 -85.5 88.5t-28.5 128.5q0 33 6 69l14 85q15 89 62 161.5t122.5 115t170.5 42.5q124 0 189 -69.5t65 -181.5q0 -33 -6 -68l-14 -85q-15 -89 -62.5 -161.5t-123 -114.5t-170.5 -42q-82 0 -139 32zM521 147.5q61 64.5 79 170.5l12 71q6 33 6 63
q0 80 -41 126.5t-122 46.5q-98 0 -159.5 -65t-78.5 -171l-12 -71q-5 -27 -5 -62q0 -80 40 -126.5t122 -46.5q98 0 159 64.5zM274 -215.5q-14 14.5 -14 36.5q0 29 22 51t51 22q23 0 37.5 -15t14.5 -36q0 -29 -22.5 -51t-51.5 -22q-23 0 -37 14.5zM461 916h84l111 -150h-100
l-62 84h-4l-90 -84h-99z" />
    <glyph glyph-name="uni1ED2.ss01" horiz-adv-x="700" 
d="M208 25q-57 32 -85.5 88.5t-28.5 128.5q0 33 6 69l14 85q15 89 62 161.5t122.5 115t170.5 42.5q124 0 189 -69.5t65 -181.5q0 -33 -6 -68l-14 -85q-15 -89 -62.5 -161.5t-123 -114.5t-170.5 -42q-82 0 -139 32zM521 147.5q61 64.5 79 170.5l12 71q6 33 6 63
q0 80 -41 126.5t-122 46.5q-98 0 -159.5 -65t-78.5 -171l-12 -71q-5 -27 -5 -62q0 -80 40 -126.5t122 -46.5q98 0 159 64.5zM461 916h84l111 -150h-100l-62 84h-4l-90 -84h-99zM529 1076h107l68 -184h-82z" />
    <glyph glyph-name="uni1ED4.ss01" horiz-adv-x="700" 
d="M208 25q-57 32 -85.5 88.5t-28.5 128.5q0 33 6 69l14 85q15 89 62 161.5t122.5 115t170.5 42.5q124 0 189 -69.5t65 -181.5q0 -33 -6 -68l-14 -85q-15 -89 -62.5 -161.5t-123 -114.5t-170.5 -42q-82 0 -139 32zM521 147.5q61 64.5 79 170.5l12 71q6 33 6 63
q0 80 -41 126.5t-122 46.5q-98 0 -159.5 -65t-78.5 -171l-12 -71q-5 -27 -5 -62q0 -80 40 -126.5t122 -46.5q98 0 159 64.5zM460 916h84l111 -150h-100l-62 84h-4l-90 -84h-99zM625 914.5q8 6.5 17.5 12.5t13.5 9q27 16 42 30.5t15 36.5q0 12 -8.5 20t-25.5 8
q-18 0 -29.5 -8.5t-16.5 -22.5h-76q10 37 43 64t88 27q47 0 72.5 -20.5t25.5 -54.5t-16 -53.5t-44 -37.5q-25 -15 -30 -26h-83q4 9 12 15.5z" />
    <glyph glyph-name="uni1ED6.ss01" horiz-adv-x="700" 
d="M208 25q-57 32 -85.5 88.5t-28.5 128.5q0 33 6 69l14 85q15 89 62 161.5t122.5 115t170.5 42.5q124 0 189 -69.5t65 -181.5q0 -33 -6 -68l-14 -85q-15 -89 -62.5 -161.5t-123 -114.5t-170.5 -42q-82 0 -139 32zM521 147.5q61 64.5 79 170.5l12 71q6 33 6 63
q0 80 -41 126.5t-122 46.5q-98 0 -159.5 -65t-78.5 -171l-12 -71q-5 -27 -5 -62q0 -80 40 -126.5t122 -46.5q98 0 159 64.5zM460 916h84l111 -150h-100l-62 84h-4l-90 -84h-99zM373 1039.5q30 32.5 81 32.5q19 0 34.5 -5.5t34.5 -15.5q17 -9 27.5 -13t21.5 -4q18 0 30 11
t17 27h61q-9 -43 -38 -75t-81 -32q-19 0 -35.5 6t-35.5 16q-12 6 -24 11t-23 5q-32 0 -48 -39h-61q9 43 39 75.5z" />
    <glyph glyph-name="Odieresis.ss01" horiz-adv-x="700" 
d="M208 25q-57 32 -85.5 88.5t-28.5 128.5q0 33 6 69l14 85q15 89 62 161.5t122.5 115t170.5 42.5q124 0 189 -69.5t65 -181.5q0 -33 -6 -68l-14 -85q-15 -89 -62.5 -161.5t-123 -114.5t-170.5 -42q-82 0 -139 32zM521 147.5q61 64.5 79 170.5l12 71q6 33 6 63
q0 80 -41 126.5t-122 46.5q-98 0 -159.5 -65t-78.5 -171l-12 -71q-5 -27 -5 -62q0 -80 40 -126.5t122 -46.5q98 0 159 64.5zM555.5 811q-14.5 15 -14.5 37q0 29 22.5 51.5t51.5 22.5q24 0 39 -15t15 -37q0 -29 -23 -51.5t-53 -22.5q-23 0 -37.5 15zM340.5 811
q-14.5 15 -14.5 37q0 29 22.5 51.5t51.5 22.5q24 0 39 -15t15 -37q0 -29 -23 -51.5t-53 -22.5q-23 0 -37.5 15z" />
    <glyph glyph-name="uni1ECC.ss01" horiz-adv-x="700" 
d="M208 25q-57 32 -85.5 88.5t-28.5 128.5q0 33 6 69l14 85q15 89 62 161.5t122.5 115t170.5 42.5q124 0 189 -69.5t65 -181.5q0 -33 -6 -68l-14 -85q-15 -89 -62.5 -161.5t-123 -114.5t-170.5 -42q-82 0 -139 32zM521 147.5q61 64.5 79 170.5l12 71q6 33 6 63
q0 80 -41 126.5t-122 46.5q-98 0 -159.5 -65t-78.5 -171l-12 -71q-5 -27 -5 -62q0 -80 40 -126.5t122 -46.5q98 0 159 64.5zM274 -215.5q-14 14.5 -14 36.5q0 29 22 51t51 22q23 0 37.5 -15t14.5 -36q0 -29 -22.5 -51t-51.5 -22q-23 0 -37 14.5z" />
    <glyph glyph-name="Ograve.ss01" horiz-adv-x="700" 
d="M208 25q-57 32 -85.5 88.5t-28.5 128.5q0 33 6 69l14 85q15 89 62 161.5t122.5 115t170.5 42.5q124 0 189 -69.5t65 -181.5q0 -33 -6 -68l-14 -85q-15 -89 -62.5 -161.5t-123 -114.5t-170.5 -42q-82 0 -139 32zM521 147.5q61 64.5 79 170.5l12 71q6 33 6 63
q0 80 -41 126.5t-122 46.5q-98 0 -159.5 -65t-78.5 -171l-12 -71q-5 -27 -5 -62q0 -80 40 -126.5t122 -46.5q98 0 159 64.5zM343 957h107l68 -184h-82z" />
    <glyph glyph-name="uni1ECE.ss01" horiz-adv-x="700" 
d="M208 25q-57 32 -85.5 88.5t-28.5 128.5q0 33 6 69l14 85q15 89 62 161.5t122.5 115t170.5 42.5q124 0 189 -69.5t65 -181.5q0 -33 -6 -68l-14 -85q-15 -89 -62.5 -161.5t-123 -114.5t-170.5 -42q-82 0 -139 32zM521 147.5q61 64.5 79 170.5l12 71q6 33 6 63
q0 80 -41 126.5t-122 46.5q-98 0 -159.5 -65t-78.5 -171l-12 -71q-5 -27 -5 -62q0 -80 40 -126.5t122 -46.5q98 0 159 64.5zM449 788.5q8 6.5 17.5 12.5t13.5 9q27 16 42 30.5t15 36.5q0 12 -8.5 20t-25.5 8q-18 0 -29.5 -8.5t-16.5 -22.5h-76q10 37 43 64t88 27
q47 0 72.5 -20.5t25.5 -54.5t-16 -53.5t-44 -37.5q-25 -15 -30 -26h-83q4 9 12 15.5z" />
    <glyph glyph-name="Ohorn.ss01" horiz-adv-x="700" 
d="M764 797l-7 -42q-9 -50 -37.5 -74.5t-67.5 -29.5q35 -34 53 -82.5t18 -105.5q0 -32 -6 -67l-14 -85q-15 -89 -62.5 -161.5t-123 -114.5t-170.5 -42q-82 0 -139 32t-85.5 88.5t-28.5 128.5q0 33 6 69l14 85q15 89 62 161.5t122.5 115t170.5 42.5q57 0 100 -15h45
q29 0 44.5 12t22.5 54l5 31h78zM618 452q0 80 -41 126.5t-122 46.5q-98 0 -159.5 -65t-78.5 -171l-12 -71q-5 -27 -5 -62q0 -80 40 -126.5t122 -46.5q98 0 159 64.5t79 170.5l12 71q6 33 6 63z" />
    <glyph glyph-name="uni1EDA.ss01" horiz-adv-x="700" 
d="M764 797l-7 -42q-9 -50 -37.5 -74.5t-67.5 -29.5q35 -34 53 -82.5t18 -105.5q0 -32 -6 -67l-14 -85q-15 -89 -62.5 -161.5t-123 -114.5t-170.5 -42q-82 0 -139 32t-85.5 88.5t-28.5 128.5q0 33 6 69l14 85q15 89 62 161.5t122.5 115t170.5 42.5q57 0 100 -15h45
q29 0 44.5 12t22.5 54l5 31h78zM618 452q0 80 -41 126.5t-122 46.5q-98 0 -159.5 -65t-78.5 -171l-12 -71q-5 -27 -5 -62q0 -80 40 -126.5t122 -46.5q98 0 159 64.5t79 170.5l12 71q6 33 6 63zM440 773l130 184h106l-154 -184h-82z" />
    <glyph glyph-name="uni1EE2.ss01" horiz-adv-x="700" 
d="M764 797l-7 -42q-9 -50 -37.5 -74.5t-67.5 -29.5q35 -34 53 -82.5t18 -105.5q0 -32 -6 -67l-14 -85q-15 -89 -62.5 -161.5t-123 -114.5t-170.5 -42q-82 0 -139 32t-85.5 88.5t-28.5 128.5q0 33 6 69l14 85q15 89 62 161.5t122.5 115t170.5 42.5q57 0 100 -15h45
q29 0 44.5 12t22.5 54l5 31h78zM618 452q0 80 -41 126.5t-122 46.5q-98 0 -159.5 -65t-78.5 -171l-12 -71q-5 -27 -5 -62q0 -80 40 -126.5t122 -46.5q98 0 159 64.5t79 170.5l12 71q6 33 6 63zM274 -215.5q-14 14.5 -14 36.5q0 29 22 51t51 22q23 0 37.5 -15t14.5 -36
q0 -29 -22.5 -51t-51.5 -22q-23 0 -37 14.5z" />
    <glyph glyph-name="uni1EDC.ss01" horiz-adv-x="700" 
d="M764 797l-7 -42q-9 -50 -37.5 -74.5t-67.5 -29.5q35 -34 53 -82.5t18 -105.5q0 -32 -6 -67l-14 -85q-15 -89 -62.5 -161.5t-123 -114.5t-170.5 -42q-82 0 -139 32t-85.5 88.5t-28.5 128.5q0 33 6 69l14 85q15 89 62 161.5t122.5 115t170.5 42.5q57 0 100 -15h45
q29 0 44.5 12t22.5 54l5 31h78zM618 452q0 80 -41 126.5t-122 46.5q-98 0 -159.5 -65t-78.5 -171l-12 -71q-5 -27 -5 -62q0 -80 40 -126.5t122 -46.5q98 0 159 64.5t79 170.5l12 71q6 33 6 63zM343 957h107l68 -184h-82z" />
    <glyph glyph-name="uni1EDE.ss01" horiz-adv-x="700" 
d="M764 797l-7 -42q-9 -50 -37.5 -74.5t-67.5 -29.5q35 -34 53 -82.5t18 -105.5q0 -32 -6 -67l-14 -85q-15 -89 -62.5 -161.5t-123 -114.5t-170.5 -42q-82 0 -139 32t-85.5 88.5t-28.5 128.5q0 33 6 69l14 85q15 89 62 161.5t122.5 115t170.5 42.5q57 0 100 -15h45
q29 0 44.5 12t22.5 54l5 31h78zM618 452q0 80 -41 126.5t-122 46.5q-98 0 -159.5 -65t-78.5 -171l-12 -71q-5 -27 -5 -62q0 -80 40 -126.5t122 -46.5q98 0 159 64.5t79 170.5l12 71q6 33 6 63zM449 788.5q8 6.5 17.5 12.5t13.5 9q27 16 42 30.5t15 36.5q0 12 -8.5 20
t-25.5 8q-18 0 -29.5 -8.5t-16.5 -22.5h-76q10 37 43 64t88 27q47 0 72.5 -20.5t25.5 -54.5t-16 -53.5t-44 -37.5q-25 -15 -30 -26h-83q4 9 12 15.5z" />
    <glyph glyph-name="uni1EE0.ss01" horiz-adv-x="700" 
d="M764 797l-7 -42q-9 -50 -37.5 -74.5t-67.5 -29.5q35 -34 53 -82.5t18 -105.5q0 -32 -6 -67l-14 -85q-15 -89 -62.5 -161.5t-123 -114.5t-170.5 -42q-82 0 -139 32t-85.5 88.5t-28.5 128.5q0 33 6 69l14 85q15 89 62 161.5t122.5 115t170.5 42.5q57 0 100 -15h45
q29 0 44.5 12t22.5 54l5 31h78zM618 452q0 80 -41 126.5t-122 46.5q-98 0 -159.5 -65t-78.5 -171l-12 -71q-5 -27 -5 -62q0 -80 40 -126.5t122 -46.5q98 0 159 64.5t79 170.5l12 71q6 33 6 63zM358 876.5q30 32.5 81 32.5q19 0 34.5 -5.5t34.5 -15.5q17 -9 27.5 -13t21.5 -4
q18 0 30 11t17 27h61q-9 -43 -38 -75t-81 -32q-19 0 -35.5 6t-35.5 16q-12 6 -24 11t-23 5q-32 0 -48 -39h-61q9 43 39 75.5z" />
    <glyph glyph-name="Omacron.ss01" horiz-adv-x="700" 
d="M208 25q-57 32 -85.5 88.5t-28.5 128.5q0 33 6 69l14 85q15 89 62 161.5t122.5 115t170.5 42.5q124 0 189 -69.5t65 -181.5q0 -33 -6 -68l-14 -85q-15 -89 -62.5 -161.5t-123 -114.5t-170.5 -42q-82 0 -139 32zM521 147.5q61 64.5 79 170.5l12 71q6 33 6 63
q0 80 -41 126.5t-122 46.5q-98 0 -159.5 -65t-78.5 -171l-12 -71q-5 -27 -5 -62q0 -80 40 -126.5t122 -46.5q98 0 159 64.5zM338 847h306l-8 -51h-307z" />
    <glyph glyph-name="Oslash.ss01" horiz-adv-x="722" 
d="M689 612q39 -61 39 -148q0 -33 -6 -68l-14 -85q-15 -89 -62.5 -161.5t-122.5 -114.5t-170 -42q-83 0 -139 32l-55 -68h-96l93 115q-57 66 -57 171q0 34 6 68l15 85q15 89 62 161.5t122.5 115t169.5 42.5q101 0 164 -48l61 76h97zM205 256q0 -60 21 -98l348 430
q-42 37 -114 37q-98 0 -159.5 -65t-78.5 -171l-12 -71q-5 -35 -5 -62zM624 454q0 36 -9 66l-337 -416q36 -21 90 -21q97 0 158.5 64.5t79.5 170.5l12 71q6 35 6 65z" />
    <glyph glyph-name="Otilde.ss01" horiz-adv-x="700" 
d="M208 25q-57 32 -85.5 88.5t-28.5 128.5q0 33 6 69l14 85q15 89 62 161.5t122.5 115t170.5 42.5q124 0 189 -69.5t65 -181.5q0 -33 -6 -68l-14 -85q-15 -89 -62.5 -161.5t-123 -114.5t-170.5 -42q-82 0 -139 32zM521 147.5q61 64.5 79 170.5l12 71q6 33 6 63
q0 80 -41 126.5t-122 46.5q-98 0 -159.5 -65t-78.5 -171l-12 -71q-5 -27 -5 -62q0 -80 40 -126.5t122 -46.5q98 0 159 64.5zM358 876.5q30 32.5 81 32.5q19 0 34.5 -5.5t34.5 -15.5q17 -9 27.5 -13t21.5 -4q18 0 30 11t17 27h61q-9 -43 -38 -75t-81 -32q-19 0 -35.5 6
t-35.5 16q-12 6 -24 11t-23 5q-32 0 -48 -39h-61q9 43 39 75.5z" />
    <glyph glyph-name="OE.ss01" horiz-adv-x="948" 
d="M202 31.5q-58 31.5 -86.5 87t-28.5 126.5q0 32 6 65l14 82q14 86 60.5 156t121.5 111t171 41h549l-16 -92h-337l-36 -210h294l-14 -83h-294l-38 -223h338l-15 -92h-548q-83 0 -141 31.5zM464 94l88 513h-107q-97 0 -158 -61t-78 -161l-12 -69q-5 -32 -5 -55
q0 -77 41.5 -122t123.5 -45h107z" />
    <glyph glyph-name="P.ss01" horiz-adv-x="584" 
d="M590.5 653q54.5 -47 54.5 -123q0 -19 -3 -39l-11 -69q-10 -59 -45.5 -106.5t-96.5 -75.5t-143 -28h-140l-36 -212h-101l118 700h241q108 0 162.5 -47zM540 511q0 43 -30.5 70t-95.5 27h-141l-29 -167l-23 -136h140q74 0 116 34t50 84l11 67q2 14 2 21z" />
    <glyph glyph-name="Q.ss01" horiz-adv-x="698" 
d="M658 645.5q65 -69.5 65 -181.5q0 -33 -6 -68l-14 -85q-13 -74 -48 -137t-89 -107l73 -119h-96l-47 76q-68 -31 -149 -31q-82 0 -139 32t-85.5 88.5t-28.5 128.5q0 33 6 69l14 85q15 89 62 161.5t122.5 115t170.5 42.5q124 0 189 -69.5zM618 452q0 80 -41 126.5t-122 46.5
q-98 0 -159.5 -65t-78.5 -171l-12 -71q-5 -27 -5 -62q0 -80 40 -126.5t122 -46.5q48 0 88 17l-105 171h96l77 -126q63 61 82 173l12 71q6 33 6 63z" />
    <glyph glyph-name="R.ss01" horiz-adv-x="604" 
d="M597 657.5q51 -42.5 51 -113.5q0 -18 -3 -36l-10 -60q-11 -70 -59.5 -119.5t-132.5 -66.5l125 -262h-112l-122 255h-121l-43 -255h-101l118 700h252q107 0 158 -42.5zM543 527q0 37 -27.5 59.5t-90.5 22.5h-152l-23 -134l-22 -129h152q71 0 107.5 29.5t44.5 73.5l9 58
q2 14 2 20z" />
    <glyph glyph-name="G.ss02" horiz-adv-x="699" 
d="M220 30q-60 37 -89 100.5t-29 142.5q0 119 50.5 220.5t138.5 161.5t196 60q79 0 133 -31t82 -82.5t31 -114.5h-104q-7 62 -45.5 98t-110.5 36q-74 0 -135 -45.5t-95.5 -125t-34.5 -175.5q0 -94 46.5 -145.5t130.5 -51.5q86 0 145.5 50t75.5 139l7 42h-187l12 76h280
l-20 -122q-14 -82 -60.5 -143.5t-116.5 -94t-152 -32.5q-89 0 -149 37z" />
    <glyph glyph-name="a" unicode="a" horiz-adv-x="609" 
d="M121.5 48.5q-45.5 55.5 -45.5 147.5q0 95 36 174t98.5 125t137.5 46q69 0 105 -32.5t48 -73.5h8l16 92h104l-88 -527h-105l18 102h-7q-31 -44 -78.5 -76.5t-115.5 -32.5q-86 0 -131.5 55.5zM394 111q42 32 66 86.5t24 120.5q0 61 -29.5 98.5t-88.5 37.5
q-51 0 -92.5 -31.5t-65.5 -86t-24 -121.5q0 -60 29 -98t89 -38q50 0 92 32z" />
    <glyph glyph-name="aacute" unicode="&#xe1;" horiz-adv-x="609" 
d="M121.5 48.5q-45.5 55.5 -45.5 147.5q0 95 36 174t98.5 125t137.5 46q69 0 105 -32.5t48 -73.5h8l16 92h104l-88 -527h-105l18 102h-7q-31 -44 -78.5 -76.5t-115.5 -32.5q-86 0 -131.5 55.5zM394 111q42 32 66 86.5t24 120.5q0 61 -29.5 98.5t-88.5 37.5
q-51 0 -92.5 -31.5t-65.5 -86t-24 -121.5q0 -60 29 -98t89 -38q50 0 92 32zM363 600l130 184h106l-154 -184h-82z" />
    <glyph glyph-name="abreve" unicode="&#x103;" horiz-adv-x="609" 
d="M121.5 48.5q-45.5 55.5 -45.5 147.5q0 95 36 174t98.5 125t137.5 46q69 0 105 -32.5t48 -73.5h8l16 92h104l-88 -527h-105l18 102h-7q-31 -44 -78.5 -76.5t-115.5 -32.5q-86 0 -131.5 55.5zM394 111q42 32 66 86.5t24 120.5q0 61 -29.5 98.5t-88.5 37.5
q-51 0 -92.5 -31.5t-65.5 -86t-24 -121.5q0 -60 29 -98t89 -38q50 0 92 32zM305 633.5q-38 27.5 -59 83.5h88q18 -50 79 -50t95 50h88q-40 -56 -86.5 -83.5t-106.5 -27.5t-98 27.5z" />
    <glyph glyph-name="uni1EAF" unicode="&#x1eaf;" horiz-adv-x="609" 
d="M121.5 48.5q-45.5 55.5 -45.5 147.5q0 95 36 174t98.5 125t137.5 46q69 0 105 -32.5t48 -73.5h8l16 92h104l-88 -527h-105l18 102h-7q-31 -44 -78.5 -76.5t-115.5 -32.5q-86 0 -131.5 55.5zM394 111q42 32 66 86.5t24 120.5q0 61 -29.5 98.5t-88.5 37.5
q-51 0 -92.5 -31.5t-65.5 -86t-24 -121.5q0 -60 29 -98t89 -38q50 0 92 32zM305 633.5q-38 27.5 -59 83.5h88q18 -50 79 -50t95 50h88q-40 -56 -86.5 -83.5t-106.5 -27.5t-98 27.5zM388 750l130 184h106l-154 -184h-82z" />
    <glyph glyph-name="uni1EB7" unicode="&#x1eb7;" horiz-adv-x="609" 
d="M121.5 48.5q-45.5 55.5 -45.5 147.5q0 95 36 174t98.5 125t137.5 46q69 0 105 -32.5t48 -73.5h8l16 92h104l-88 -527h-105l18 102h-7q-31 -44 -78.5 -76.5t-115.5 -32.5q-86 0 -131.5 55.5zM394 111q42 32 66 86.5t24 120.5q0 61 -29.5 98.5t-88.5 37.5
q-51 0 -92.5 -31.5t-65.5 -86t-24 -121.5q0 -60 29 -98t89 -38q50 0 92 32zM305 633.5q-38 27.5 -59 83.5h88q18 -50 79 -50t95 50h88q-40 -56 -86.5 -83.5t-106.5 -27.5t-98 27.5zM226 -215.5q-14 14.5 -14 36.5q0 29 22 51t51 22q23 0 37.5 -15t14.5 -36q0 -29 -22.5 -51
t-51.5 -22q-23 0 -37 14.5z" />
    <glyph glyph-name="uni1EB1" unicode="&#x1eb1;" horiz-adv-x="609" 
d="M121.5 48.5q-45.5 55.5 -45.5 147.5q0 95 36 174t98.5 125t137.5 46q69 0 105 -32.5t48 -73.5h8l16 92h104l-88 -527h-105l18 102h-7q-31 -44 -78.5 -76.5t-115.5 -32.5q-86 0 -131.5 55.5zM394 111q42 32 66 86.5t24 120.5q0 61 -29.5 98.5t-88.5 37.5
q-51 0 -92.5 -31.5t-65.5 -86t-24 -121.5q0 -60 29 -98t89 -38q50 0 92 32zM308 633.5q-38 27.5 -59 83.5h88q18 -50 79 -50t95 50h88q-40 -56 -86.5 -83.5t-106.5 -27.5t-98 27.5zM293 934h107l68 -184h-82z" />
    <glyph glyph-name="uni1EB3" unicode="&#x1eb3;" horiz-adv-x="609" 
d="M121.5 48.5q-45.5 55.5 -45.5 147.5q0 95 36 174t98.5 125t137.5 46q69 0 105 -32.5t48 -73.5h8l16 92h104l-88 -527h-105l18 102h-7q-31 -44 -78.5 -76.5t-115.5 -32.5q-86 0 -131.5 55.5zM394 111q42 32 66 86.5t24 120.5q0 61 -29.5 98.5t-88.5 37.5
q-51 0 -92.5 -31.5t-65.5 -86t-24 -121.5q0 -60 29 -98t89 -38q50 0 92 32zM305 633.5q-38 27.5 -59 83.5h88q18 -50 79 -50t95 50h88q-40 -56 -86.5 -83.5t-106.5 -27.5t-98 27.5zM397 765.5q8 6.5 17.5 12.5t13.5 9q27 16 42 30.5t15 36.5q0 12 -8.5 20t-25.5 8
q-18 0 -29.5 -8.5t-16.5 -22.5h-76q10 37 43 64t88 27q47 0 72.5 -20.5t25.5 -54.5t-16 -53.5t-44 -37.5q-25 -15 -30 -26h-83q4 9 12 15.5z" />
    <glyph glyph-name="uni1EB5" unicode="&#x1eb5;" horiz-adv-x="609" 
d="M121.5 48.5q-45.5 55.5 -45.5 147.5q0 95 36 174t98.5 125t137.5 46q69 0 105 -32.5t48 -73.5h8l16 92h104l-88 -527h-105l18 102h-7q-31 -44 -78.5 -76.5t-115.5 -32.5q-86 0 -131.5 55.5zM394 111q42 32 66 86.5t24 120.5q0 61 -29.5 98.5t-88.5 37.5
q-51 0 -92.5 -31.5t-65.5 -86t-24 -121.5q0 -60 29 -98t89 -38q50 0 92 32zM304 633.5q-38 27.5 -59 83.5h88q18 -50 79 -50t95 50h88q-40 -56 -86.5 -83.5t-106.5 -27.5t-98 27.5zM306 853.5q30 32.5 81 32.5q19 0 34.5 -5.5t34.5 -15.5q17 -9 27.5 -13t21.5 -4q18 0 30 11
t17 27h61q-9 -43 -38 -75t-81 -32q-19 0 -35.5 6t-35.5 16q-12 6 -24 11t-23 5q-32 0 -48 -39h-61q9 43 39 75.5z" />
    <glyph glyph-name="acircumflex" unicode="&#xe2;" horiz-adv-x="609" 
d="M121.5 48.5q-45.5 55.5 -45.5 147.5q0 95 36 174t98.5 125t137.5 46q69 0 105 -32.5t48 -73.5h8l16 92h104l-88 -527h-105l18 102h-7q-31 -44 -78.5 -76.5t-115.5 -32.5q-86 0 -131.5 55.5zM394 111q42 32 66 86.5t24 120.5q0 61 -29.5 98.5t-88.5 37.5
q-51 0 -92.5 -31.5t-65.5 -86t-24 -121.5q0 -60 29 -98t89 -38q50 0 92 32zM384 743h84l111 -150h-100l-62 84h-4l-90 -84h-99z" />
    <glyph glyph-name="uni1EA5" unicode="&#x1ea5;" horiz-adv-x="609" 
d="M121.5 48.5q-45.5 55.5 -45.5 147.5q0 95 36 174t98.5 125t137.5 46q69 0 105 -32.5t48 -73.5h8l16 92h104l-88 -527h-105l18 102h-7q-31 -44 -78.5 -76.5t-115.5 -32.5q-86 0 -131.5 55.5zM394 111q42 32 66 86.5t24 120.5q0 61 -29.5 98.5t-88.5 37.5
q-51 0 -92.5 -31.5t-65.5 -86t-24 -121.5q0 -60 29 -98t89 -38q50 0 92 32zM384 743h84l111 -150h-100l-62 84h-4l-90 -84h-99zM538 719l130 184h106l-154 -184h-82z" />
    <glyph glyph-name="uni1EAD" unicode="&#x1ead;" horiz-adv-x="609" 
d="M121.5 48.5q-45.5 55.5 -45.5 147.5q0 95 36 174t98.5 125t137.5 46q69 0 105 -32.5t48 -73.5h8l16 92h104l-88 -527h-105l18 102h-7q-31 -44 -78.5 -76.5t-115.5 -32.5q-86 0 -131.5 55.5zM394 111q42 32 66 86.5t24 120.5q0 61 -29.5 98.5t-88.5 37.5
q-51 0 -92.5 -31.5t-65.5 -86t-24 -121.5q0 -60 29 -98t89 -38q50 0 92 32zM384 743h84l111 -150h-100l-62 84h-4l-90 -84h-99zM226 -215.5q-14 14.5 -14 36.5q0 29 22 51t51 22q23 0 37.5 -15t14.5 -36q0 -29 -22.5 -51t-51.5 -22q-23 0 -37 14.5z" />
    <glyph glyph-name="uni1EA7" unicode="&#x1ea7;" horiz-adv-x="609" 
d="M121.5 48.5q-45.5 55.5 -45.5 147.5q0 95 36 174t98.5 125t137.5 46q69 0 105 -32.5t48 -73.5h8l16 92h104l-88 -527h-105l18 102h-7q-31 -44 -78.5 -76.5t-115.5 -32.5q-86 0 -131.5 55.5zM394 111q42 32 66 86.5t24 120.5q0 61 -29.5 98.5t-88.5 37.5
q-51 0 -92.5 -31.5t-65.5 -86t-24 -121.5q0 -60 29 -98t89 -38q50 0 92 32zM384 743h84l111 -150h-100l-62 84h-4l-90 -84h-99zM452 903h107l68 -184h-82z" />
    <glyph glyph-name="uni1EA9" unicode="&#x1ea9;" horiz-adv-x="609" 
d="M121.5 48.5q-45.5 55.5 -45.5 147.5q0 95 36 174t98.5 125t137.5 46q69 0 105 -32.5t48 -73.5h8l16 92h104l-88 -527h-105l18 102h-7q-31 -44 -78.5 -76.5t-115.5 -32.5q-86 0 -131.5 55.5zM394 111q42 32 66 86.5t24 120.5q0 61 -29.5 98.5t-88.5 37.5
q-51 0 -92.5 -31.5t-65.5 -86t-24 -121.5q0 -60 29 -98t89 -38q50 0 92 32zM383 743h84l111 -150h-100l-62 84h-4l-90 -84h-99zM548 741.5q8 6.5 17.5 12.5t13.5 9q27 16 42 30.5t15 36.5q0 12 -8.5 20t-25.5 8q-18 0 -29.5 -8.5t-16.5 -22.5h-76q10 37 43 64t88 27
q47 0 72.5 -20.5t25.5 -54.5t-16 -53.5t-44 -37.5q-25 -15 -30 -26h-83q4 9 12 15.5z" />
    <glyph glyph-name="uni1EAB" unicode="&#x1eab;" horiz-adv-x="609" 
d="M121.5 48.5q-45.5 55.5 -45.5 147.5q0 95 36 174t98.5 125t137.5 46q69 0 105 -32.5t48 -73.5h8l16 92h104l-88 -527h-105l18 102h-7q-31 -44 -78.5 -76.5t-115.5 -32.5q-86 0 -131.5 55.5zM394 111q42 32 66 86.5t24 120.5q0 61 -29.5 98.5t-88.5 37.5
q-51 0 -92.5 -31.5t-65.5 -86t-24 -121.5q0 -60 29 -98t89 -38q50 0 92 32zM383 743h84l111 -150h-100l-62 84h-4l-90 -84h-99zM296 866.5q30 32.5 81 32.5q19 0 34.5 -5.5t34.5 -15.5q17 -9 27.5 -13t21.5 -4q18 0 30 11t17 27h61q-9 -43 -38 -75t-81 -32q-19 0 -35.5 6
t-35.5 16q-12 6 -24 11t-23 5q-32 0 -48 -39h-61q9 43 39 75.5z" />
    <glyph glyph-name="adieresis" unicode="&#xe4;" horiz-adv-x="609" 
d="M121.5 48.5q-45.5 55.5 -45.5 147.5q0 95 36 174t98.5 125t137.5 46q69 0 105 -32.5t48 -73.5h8l16 92h104l-88 -527h-105l18 102h-7q-31 -44 -78.5 -76.5t-115.5 -32.5q-86 0 -131.5 55.5zM394 111q42 32 66 86.5t24 120.5q0 61 -29.5 98.5t-88.5 37.5
q-51 0 -92.5 -31.5t-65.5 -86t-24 -121.5q0 -60 29 -98t89 -38q50 0 92 32zM477.5 638q-14.5 15 -14.5 37q0 29 22.5 51.5t51.5 22.5q24 0 39 -15t15 -37q0 -29 -23 -51.5t-53 -22.5q-23 0 -37.5 15zM262.5 638q-14.5 15 -14.5 37q0 29 22.5 51.5t51.5 22.5q24 0 39 -15
t15 -37q0 -29 -23 -51.5t-53 -22.5q-23 0 -37.5 15z" />
    <glyph glyph-name="uni1EA1" unicode="&#x1ea1;" horiz-adv-x="609" 
d="M121.5 48.5q-45.5 55.5 -45.5 147.5q0 95 36 174t98.5 125t137.5 46q69 0 105 -32.5t48 -73.5h8l16 92h104l-88 -527h-105l18 102h-7q-31 -44 -78.5 -76.5t-115.5 -32.5q-86 0 -131.5 55.5zM394 111q42 32 66 86.5t24 120.5q0 61 -29.5 98.5t-88.5 37.5
q-51 0 -92.5 -31.5t-65.5 -86t-24 -121.5q0 -60 29 -98t89 -38q50 0 92 32zM226 -215.5q-14 14.5 -14 36.5q0 29 22 51t51 22q23 0 37.5 -15t14.5 -36q0 -29 -22.5 -51t-51.5 -22q-23 0 -37 14.5z" />
    <glyph glyph-name="agrave" unicode="&#xe0;" horiz-adv-x="609" 
d="M121.5 48.5q-45.5 55.5 -45.5 147.5q0 95 36 174t98.5 125t137.5 46q69 0 105 -32.5t48 -73.5h8l16 92h104l-88 -527h-105l18 102h-7q-31 -44 -78.5 -76.5t-115.5 -32.5q-86 0 -131.5 55.5zM394 111q42 32 66 86.5t24 120.5q0 61 -29.5 98.5t-88.5 37.5
q-51 0 -92.5 -31.5t-65.5 -86t-24 -121.5q0 -60 29 -98t89 -38q50 0 92 32zM265 784h107l68 -184h-82z" />
    <glyph glyph-name="uni1EA3" unicode="&#x1ea3;" horiz-adv-x="609" 
d="M121.5 48.5q-45.5 55.5 -45.5 147.5q0 95 36 174t98.5 125t137.5 46q69 0 105 -32.5t48 -73.5h8l16 92h104l-88 -527h-105l18 102h-7q-31 -44 -78.5 -76.5t-115.5 -32.5q-86 0 -131.5 55.5zM394 111q42 32 66 86.5t24 120.5q0 61 -29.5 98.5t-88.5 37.5
q-51 0 -92.5 -31.5t-65.5 -86t-24 -121.5q0 -60 29 -98t89 -38q50 0 92 32zM372 615.5q8 6.5 17.5 12.5t13.5 9q27 16 42 30.5t15 36.5q0 12 -8.5 20t-25.5 8q-18 0 -29.5 -8.5t-16.5 -22.5h-76q10 37 43 64t88 27q47 0 72.5 -20.5t25.5 -54.5t-16 -53.5t-44 -37.5
q-25 -15 -30 -26h-83q4 9 12 15.5z" />
    <glyph glyph-name="amacron" unicode="&#x101;" horiz-adv-x="609" 
d="M121.5 48.5q-45.5 55.5 -45.5 147.5q0 95 36 174t98.5 125t137.5 46q69 0 105 -32.5t48 -73.5h8l16 92h104l-88 -527h-105l18 102h-7q-31 -44 -78.5 -76.5t-115.5 -32.5q-86 0 -131.5 55.5zM394 111q42 32 66 86.5t24 120.5q0 61 -29.5 98.5t-88.5 37.5
q-51 0 -92.5 -31.5t-65.5 -86t-24 -121.5q0 -60 29 -98t89 -38q50 0 92 32zM261 674h306l-8 -51h-307z" />
    <glyph glyph-name="aogonek" unicode="&#x105;" horiz-adv-x="609" 
d="M485 -98q12 -10 36 -10q11 0 38 6l-9 -58q-26 -6 -53 -6q-47 0 -72 21t-25 54q0 51 48 91h-12l18 102h-7q-31 -44 -78.5 -76.5t-115.5 -32.5q-86 0 -131.5 55.5t-45.5 147.5q0 95 36 174t98.5 125t137.5 46q69 0 105 -32.5t48 -73.5h8l16 92h104l-88 -527h-2
q-31 -17 -48.5 -33.5t-17.5 -40.5q0 -14 12 -24zM394 111q42 32 66 86.5t24 120.5q0 61 -29.5 98.5t-88.5 37.5q-51 0 -92.5 -31.5t-65.5 -86t-24 -121.5q0 -60 29 -98t89 -38q50 0 92 32z" />
    <glyph glyph-name="aring" unicode="&#xe5;" horiz-adv-x="609" 
d="M121.5 48.5q-45.5 55.5 -45.5 147.5q0 95 36 174t98.5 125t137.5 46q69 0 105 -32.5t48 -73.5h8l16 92h104l-88 -527h-105l18 102h-7q-31 -44 -78.5 -76.5t-115.5 -32.5q-86 0 -131.5 55.5zM394 111q42 32 66 86.5t24 120.5q0 61 -29.5 98.5t-88.5 37.5
q-51 0 -92.5 -31.5t-65.5 -86t-24 -121.5q0 -60 29 -98t89 -38q50 0 92 32zM348 630.5q-22 22.5 -22 54.5q0 27 15 51.5t40 39.5t52 15q34 0 56 -22t22 -54q0 -27 -15.5 -52t-40.5 -40t-52 -15q-33 0 -55 22.5zM448.5 671q16.5 16 16.5 37q0 16 -11 26.5t-28 10.5
q-21 0 -37 -16t-16 -37q0 -16 11 -26.5t27 -10.5q21 0 37.5 16z" />
    <glyph glyph-name="atilde" unicode="&#xe3;" horiz-adv-x="609" 
d="M121.5 48.5q-45.5 55.5 -45.5 147.5q0 95 36 174t98.5 125t137.5 46q69 0 105 -32.5t48 -73.5h8l16 92h104l-88 -527h-105l18 102h-7q-31 -44 -78.5 -76.5t-115.5 -32.5q-86 0 -131.5 55.5zM394 111q42 32 66 86.5t24 120.5q0 61 -29.5 98.5t-88.5 37.5
q-51 0 -92.5 -31.5t-65.5 -86t-24 -121.5q0 -60 29 -98t89 -38q50 0 92 32zM281 703.5q30 32.5 81 32.5q19 0 34.5 -5.5t34.5 -15.5q17 -9 27.5 -13t21.5 -4q18 0 30 11t17 27h61q-9 -43 -38 -75t-81 -32q-19 0 -35.5 6t-35.5 16q-12 6 -24 11t-23 5q-32 0 -48 -39h-61
q9 43 39 75.5z" />
    <glyph glyph-name="ae" unicode="&#xe6;" horiz-adv-x="931" 
d="M113.5 28q-42.5 35 -42.5 94q0 93 71.5 136.5t183.5 44.5h120l7 37q2 14 2 23q0 38 -22 65.5t-78 27.5q-52 0 -87 -25.5t-48 -63.5h-97q13 41 43 80t80 65t117 26q66 0 107.5 -28t53.5 -80h5q37 51 91 81t119 30q106 0 149.5 -63.5t43.5 -152.5q0 -35 -4 -59l-5 -29h-383
l-1 -8q-2 -18 -2 -26q0 -55 32 -90.5t88 -35.5q47 0 84.5 23.5t60.5 63.5h102q-33 -74 -100 -122.5t-159 -48.5q-73 0 -119.5 32.5t-64.5 87.5h-5q-37 -58 -96.5 -89t-128.5 -31q-75 0 -117.5 35zM833 303q3 20 3 37q0 62 -30.5 90t-82.5 28q-64 0 -110.5 -42.5
t-60.5 -112.5h281zM344.5 89q35.5 18 57 46.5t26.5 60.5l7 41h-115q-56 0 -100.5 -20t-44.5 -78q0 -33 24 -50.5t66 -17.5q44 0 79.5 18z" />
    <glyph glyph-name="b" unicode="b" horiz-adv-x="620" 
d="M248 26q-36 33 -50 76h-8l-17 -102h-105l127 750h104l-53 -315h7q28 42 74.5 74t116.5 32q86 0 132 -55t46 -148q0 -96 -35.5 -175t-97.5 -124.5t-136 -45.5q-69 0 -105 33zM425 110.5q42 31.5 66 86.5t24 121q0 60 -29.5 97.5t-89.5 37.5q-50 0 -91.5 -31.5t-65.5 -85.5
t-24 -120q0 -61 29 -99t88 -38q51 0 93 31.5z" />
    <glyph glyph-name="c" unicode="c" horiz-adv-x="564" 
d="M129.5 53.5q-51.5 61.5 -51.5 153.5q0 11 2 35q7 79 45.5 147.5t104 110t148.5 41.5q70 0 115.5 -28.5t66 -75.5t18.5 -103h-101q1 54 -27.5 87.5t-84.5 33.5q-52 0 -94 -32t-66.5 -87t-24.5 -123q0 -60 30 -97t91 -37q57 0 96.5 33t56.5 87h101q-26 -88 -96 -147.5
t-173 -59.5q-105 0 -156.5 61.5z" />
    <glyph glyph-name="cacute" unicode="&#x107;" horiz-adv-x="564" 
d="M129.5 53.5q-51.5 61.5 -51.5 153.5q0 11 2 35q7 79 45.5 147.5t104 110t148.5 41.5q70 0 115.5 -28.5t66 -75.5t18.5 -103h-101q1 54 -27.5 87.5t-84.5 33.5q-52 0 -94 -32t-66.5 -87t-24.5 -123q0 -60 30 -97t91 -37q57 0 96.5 33t56.5 87h101q-26 -88 -96 -147.5
t-173 -59.5q-105 0 -156.5 61.5zM349 600l130 184h106l-154 -184h-82z" />
    <glyph glyph-name="ccaron" unicode="&#x10d;" horiz-adv-x="564" 
d="M129.5 53.5q-51.5 61.5 -51.5 153.5q0 11 2 35q7 79 45.5 147.5t104 110t148.5 41.5q70 0 115.5 -28.5t66 -75.5t18.5 -103h-101q1 54 -27.5 87.5t-84.5 33.5q-52 0 -94 -32t-66.5 -87t-24.5 -123q0 -60 30 -97t91 -37q57 0 96.5 33t56.5 87h101q-26 -88 -96 -147.5
t-173 -59.5q-105 0 -156.5 61.5zM334 743l61 -84h4l91 84h99l-160 -150h-84l-110 150h99z" />
    <glyph glyph-name="ccedilla" unicode="&#xe7;" horiz-adv-x="564" 
d="M477 334q1 54 -27.5 87.5t-84.5 33.5q-52 0 -94 -32t-66.5 -87t-24.5 -123q0 -60 30 -97t91 -37q57 0 96.5 33t56.5 87h101q-24 -81 -86.5 -139t-153.5 -67l-22 -43h23q41 0 62.5 -20.5t21.5 -52.5q0 -33 -18 -61.5t-50 -45t-71 -16.5q-34 0 -60 11l10 56q32 -8 60 -8
q34 0 54 15.5t20 40.5q0 18 -14 25t-31 7h-85l1 3l42 89q-91 9 -135.5 69.5t-44.5 145.5q0 12 2 34q7 79 45.5 147.5t104 110t148.5 41.5q70 0 115.5 -28.5t66 -75.5t18.5 -103h-101z" />
    <glyph glyph-name="cdotaccent" unicode="&#x10b;" horiz-adv-x="564" 
d="M129.5 53.5q-51.5 61.5 -51.5 153.5q0 11 2 35q7 79 45.5 147.5t104 110t148.5 41.5q70 0 115.5 -28.5t66 -75.5t18.5 -103h-101q1 54 -27.5 87.5t-84.5 33.5q-52 0 -94 -32t-66.5 -87t-24.5 -123q0 -60 30 -97t91 -37q57 0 96.5 33t56.5 87h101q-26 -88 -96 -147.5
t-173 -59.5q-105 0 -156.5 61.5zM352.5 638q-14.5 15 -14.5 37q0 29 22.5 51.5t51.5 22.5q24 0 39 -15t15 -37q0 -29 -23 -51.5t-53 -22.5q-23 0 -37.5 15z" />
    <glyph glyph-name="d" unicode="d" horiz-adv-x="609" 
d="M122.5 48.5q-45.5 55.5 -45.5 147.5q0 96 36 175t98 124.5t137 45.5q69 0 105.5 -32.5t48.5 -73.5h7l54 315h104l-126 -750h-104l17 102h-7q-76 -109 -193 -109q-86 0 -131.5 55.5zM394 110.5q42 31.5 66 86t24 120.5q0 60 -29.5 98t-88.5 38q-51 0 -92.5 -31.5
t-65.5 -86t-24 -121.5q0 -60 29.5 -97.5t88.5 -37.5q50 0 92 31.5z" />
    <glyph glyph-name="eth" unicode="&#xf0;" horiz-adv-x="612" 
d="M571 696q49 -66 49 -164q0 -34 -8 -82l-29 -175q-13 -74 -51.5 -138.5t-102 -104t-145.5 -39.5q-105 0 -156.5 61.5t-51.5 157.5q0 89 36 164.5t98 120t135 44.5q70 0 106 -32t48 -72h23l2 19q5 122 -47 190l-97 -51l-21 53l75 39q-27 19 -55.5 26t-50.5 7l13 79
q41 0 93 -13.5t96 -47.5l100 53l22 -53zM391 111q42 32 66 86.5t24 120.5q0 61 -29.5 99t-88.5 38q-51 0 -92.5 -32t-65.5 -87t-24 -122q0 -60 29 -97.5t88 -37.5q51 0 93 32z" />
    <glyph glyph-name="dcaron" unicode="&#x10f;" horiz-adv-x="754" 
d="M122.5 48.5q-45.5 55.5 -45.5 147.5q0 96 36 175t98 124.5t137 45.5q69 0 105.5 -32.5t48.5 -73.5h7l54 315h104l-126 -750h-104l17 102h-7q-76 -109 -193 -109q-86 0 -131.5 55.5zM394 110.5q42 31.5 66 86t24 120.5q0 60 -29.5 98t-88.5 38q-51 0 -92.5 -31.5
t-65.5 -86t-24 -121.5q0 -60 29.5 -97.5t88.5 -37.5q50 0 92 31.5zM708 552q38 15 58.5 39.5t20.5 55.5q0 17 -8 21.5t-23 4.5q-25 0 -36.5 11.5t-11.5 29.5q0 35 23 57t59 22q66 0 66 -61q0 -9 -2 -23l-7 -39q-11 -65 -50 -103.5t-95 -53.5z" />
    <glyph glyph-name="dcroat" unicode="&#x111;" horiz-adv-x="653" 
d="M719 602h-77l-101 -602h-104l17 102h-7q-76 -109 -193 -109q-86 0 -131.5 55.5t-45.5 147.5q0 96 36 175t98 124.5t137 45.5q69 0 105.5 -32.5t48.5 -73.5h7l29 167h-132l11 70h133l13 78h104l-13 -78h77zM394 110.5q42 31.5 66 86t24 120.5q0 60 -29.5 98t-88.5 38
q-51 0 -92.5 -31.5t-65.5 -86t-24 -121.5q0 -60 29.5 -97.5t88.5 -37.5q50 0 92 31.5z" />
    <glyph glyph-name="e" unicode="e" horiz-adv-x="566" 
d="M133.5 59.5q-54.5 62.5 -54.5 160.5q0 90 38 164.5t108 118t162 43.5q97 0 143 -42.5t46 -103.5q0 -42 -22.5 -78t-70 -58.5t-117.5 -22.5h-185l-1 -7q-2 -16 -2 -23q0 -54 33.5 -91.5t91.5 -37.5q46 0 83 23.5t59 62.5h102q-33 -75 -97 -123t-157 -48
q-105 0 -159.5 62.5zM365 312q59 0 85.5 23.5t26.5 57.5q0 30 -24 52t-78 22q-72 0 -119.5 -41.5t-61.5 -113.5h171z" />
    <glyph glyph-name="eacute" unicode="&#xe9;" horiz-adv-x="566" 
d="M133.5 59.5q-54.5 62.5 -54.5 160.5q0 90 38 164.5t108 118t162 43.5q97 0 143 -42.5t46 -103.5q0 -42 -22.5 -78t-70 -58.5t-117.5 -22.5h-185l-1 -7q-2 -16 -2 -23q0 -54 33.5 -91.5t91.5 -37.5q46 0 83 23.5t59 62.5h102q-33 -75 -97 -123t-157 -48
q-105 0 -159.5 62.5zM365 312q59 0 85.5 23.5t26.5 57.5q0 30 -24 52t-78 22q-72 0 -119.5 -41.5t-61.5 -113.5h171zM363 600l130 184h106l-154 -184h-82z" />
    <glyph glyph-name="ecaron" unicode="&#x11b;" horiz-adv-x="566" 
d="M133.5 59.5q-54.5 62.5 -54.5 160.5q0 90 38 164.5t108 118t162 43.5q97 0 143 -42.5t46 -103.5q0 -42 -22.5 -78t-70 -58.5t-117.5 -22.5h-185l-1 -7q-2 -16 -2 -23q0 -54 33.5 -91.5t91.5 -37.5q46 0 83 23.5t59 62.5h102q-33 -75 -97 -123t-157 -48
q-105 0 -159.5 62.5zM365 312q59 0 85.5 23.5t26.5 57.5q0 30 -24 52t-78 22q-72 0 -119.5 -41.5t-61.5 -113.5h171zM347 743l61 -84h4l91 84h99l-160 -150h-84l-110 150h99z" />
    <glyph glyph-name="ecircumflex" unicode="&#xea;" horiz-adv-x="566" 
d="M133.5 59.5q-54.5 62.5 -54.5 160.5q0 90 38 164.5t108 118t162 43.5q97 0 143 -42.5t46 -103.5q0 -42 -22.5 -78t-70 -58.5t-117.5 -22.5h-185l-1 -7q-2 -16 -2 -23q0 -54 33.5 -91.5t91.5 -37.5q46 0 83 23.5t59 62.5h102q-33 -75 -97 -123t-157 -48
q-105 0 -159.5 62.5zM365 312q59 0 85.5 23.5t26.5 57.5q0 30 -24 52t-78 22q-72 0 -119.5 -41.5t-61.5 -113.5h171zM384 743h84l111 -150h-100l-62 84h-4l-90 -84h-99z" />
    <glyph glyph-name="uni1EBF" unicode="&#x1ebf;" horiz-adv-x="566" 
d="M133.5 59.5q-54.5 62.5 -54.5 160.5q0 90 38 164.5t108 118t162 43.5q97 0 143 -42.5t46 -103.5q0 -42 -22.5 -78t-70 -58.5t-117.5 -22.5h-185l-1 -7q-2 -16 -2 -23q0 -54 33.5 -91.5t91.5 -37.5q46 0 83 23.5t59 62.5h102q-33 -75 -97 -123t-157 -48
q-105 0 -159.5 62.5zM365 312q59 0 85.5 23.5t26.5 57.5q0 30 -24 52t-78 22q-72 0 -119.5 -41.5t-61.5 -113.5h171zM384 743h84l111 -150h-100l-62 84h-4l-90 -84h-99zM538 719l130 184h106l-154 -184h-82z" />
    <glyph glyph-name="uni1EC7" unicode="&#x1ec7;" horiz-adv-x="566" 
d="M133.5 59.5q-54.5 62.5 -54.5 160.5q0 90 38 164.5t108 118t162 43.5q97 0 143 -42.5t46 -103.5q0 -42 -22.5 -78t-70 -58.5t-117.5 -22.5h-185l-1 -7q-2 -16 -2 -23q0 -54 33.5 -91.5t91.5 -37.5q46 0 83 23.5t59 62.5h102q-33 -75 -97 -123t-157 -48
q-105 0 -159.5 62.5zM365 312q59 0 85.5 23.5t26.5 57.5q0 30 -24 52t-78 22q-72 0 -119.5 -41.5t-61.5 -113.5h171zM254 -215.5q-14 14.5 -14 36.5q0 29 22 51t51 22q23 0 37.5 -15t14.5 -36q0 -29 -22.5 -51t-51.5 -22q-23 0 -37 14.5zM384 743h84l111 -150h-100l-62 84
h-4l-90 -84h-99z" />
    <glyph glyph-name="uni1EC1" unicode="&#x1ec1;" horiz-adv-x="566" 
d="M133.5 59.5q-54.5 62.5 -54.5 160.5q0 90 38 164.5t108 118t162 43.5q97 0 143 -42.5t46 -103.5q0 -42 -22.5 -78t-70 -58.5t-117.5 -22.5h-185l-1 -7q-2 -16 -2 -23q0 -54 33.5 -91.5t91.5 -37.5q46 0 83 23.5t59 62.5h102q-33 -75 -97 -123t-157 -48
q-105 0 -159.5 62.5zM365 312q59 0 85.5 23.5t26.5 57.5q0 30 -24 52t-78 22q-72 0 -119.5 -41.5t-61.5 -113.5h171zM384 743h84l111 -150h-100l-62 84h-4l-90 -84h-99zM452 903h107l68 -184h-82z" />
    <glyph glyph-name="uni1EC3" unicode="&#x1ec3;" horiz-adv-x="566" 
d="M133.5 59.5q-54.5 62.5 -54.5 160.5q0 90 38 164.5t108 118t162 43.5q97 0 143 -42.5t46 -103.5q0 -42 -22.5 -78t-70 -58.5t-117.5 -22.5h-185l-1 -7q-2 -16 -2 -23q0 -54 33.5 -91.5t91.5 -37.5q46 0 83 23.5t59 62.5h102q-33 -75 -97 -123t-157 -48
q-105 0 -159.5 62.5zM365 312q59 0 85.5 23.5t26.5 57.5q0 30 -24 52t-78 22q-72 0 -119.5 -41.5t-61.5 -113.5h171zM383 743h84l111 -150h-100l-62 84h-4l-90 -84h-99zM548 741.5q8 6.5 17.5 12.5t13.5 9q27 16 42 30.5t15 36.5q0 12 -8.5 20t-25.5 8q-18 0 -29.5 -8.5
t-16.5 -22.5h-76q10 37 43 64t88 27q47 0 72.5 -20.5t25.5 -54.5t-16 -53.5t-44 -37.5q-25 -15 -30 -26h-83q4 9 12 15.5z" />
    <glyph glyph-name="uni1EC5" unicode="&#x1ec5;" horiz-adv-x="566" 
d="M133.5 59.5q-54.5 62.5 -54.5 160.5q0 90 38 164.5t108 118t162 43.5q97 0 143 -42.5t46 -103.5q0 -42 -22.5 -78t-70 -58.5t-117.5 -22.5h-185l-1 -7q-2 -16 -2 -23q0 -54 33.5 -91.5t91.5 -37.5q46 0 83 23.5t59 62.5h102q-33 -75 -97 -123t-157 -48
q-105 0 -159.5 62.5zM365 312q59 0 85.5 23.5t26.5 57.5q0 30 -24 52t-78 22q-72 0 -119.5 -41.5t-61.5 -113.5h171zM383 743h84l111 -150h-100l-62 84h-4l-90 -84h-99zM296 866.5q30 32.5 81 32.5q19 0 34.5 -5.5t34.5 -15.5q17 -9 27.5 -13t21.5 -4q18 0 30 11t17 27h61
q-9 -43 -38 -75t-81 -32q-19 0 -35.5 6t-35.5 16q-12 6 -24 11t-23 5q-32 0 -48 -39h-61q9 43 39 75.5z" />
    <glyph glyph-name="edieresis" unicode="&#xeb;" horiz-adv-x="566" 
d="M133.5 59.5q-54.5 62.5 -54.5 160.5q0 90 38 164.5t108 118t162 43.5q97 0 143 -42.5t46 -103.5q0 -42 -22.5 -78t-70 -58.5t-117.5 -22.5h-185l-1 -7q-2 -16 -2 -23q0 -54 33.5 -91.5t91.5 -37.5q46 0 83 23.5t59 62.5h102q-33 -75 -97 -123t-157 -48
q-105 0 -159.5 62.5zM365 312q59 0 85.5 23.5t26.5 57.5q0 30 -24 52t-78 22q-72 0 -119.5 -41.5t-61.5 -113.5h171zM477.5 638q-14.5 15 -14.5 37q0 29 22.5 51.5t51.5 22.5q24 0 39 -15t15 -37q0 -29 -23 -51.5t-53 -22.5q-23 0 -37.5 15zM262.5 638q-14.5 15 -14.5 37
q0 29 22.5 51.5t51.5 22.5q24 0 39 -15t15 -37q0 -29 -23 -51.5t-53 -22.5q-23 0 -37.5 15z" />
    <glyph glyph-name="edotaccent" unicode="&#x117;" horiz-adv-x="566" 
d="M133.5 59.5q-54.5 62.5 -54.5 160.5q0 90 38 164.5t108 118t162 43.5q97 0 143 -42.5t46 -103.5q0 -42 -22.5 -78t-70 -58.5t-117.5 -22.5h-185l-1 -7q-2 -16 -2 -23q0 -54 33.5 -91.5t91.5 -37.5q46 0 83 23.5t59 62.5h102q-33 -75 -97 -123t-157 -48
q-105 0 -159.5 62.5zM365 312q59 0 85.5 23.5t26.5 57.5q0 30 -24 52t-78 22q-72 0 -119.5 -41.5t-61.5 -113.5h171zM365.5 638q-14.5 15 -14.5 37q0 29 22.5 51.5t51.5 22.5q24 0 39 -15t15 -37q0 -29 -23 -51.5t-53 -22.5q-23 0 -37.5 15z" />
    <glyph glyph-name="uni1EB9" unicode="&#x1eb9;" horiz-adv-x="566" 
d="M133.5 59.5q-54.5 62.5 -54.5 160.5q0 90 38 164.5t108 118t162 43.5q97 0 143 -42.5t46 -103.5q0 -42 -22.5 -78t-70 -58.5t-117.5 -22.5h-185l-1 -7q-2 -16 -2 -23q0 -54 33.5 -91.5t91.5 -37.5q46 0 83 23.5t59 62.5h102q-33 -75 -97 -123t-157 -48
q-105 0 -159.5 62.5zM365 312q59 0 85.5 23.5t26.5 57.5q0 30 -24 52t-78 22q-72 0 -119.5 -41.5t-61.5 -113.5h171zM254 -215.5q-14 14.5 -14 36.5q0 29 22 51t51 22q23 0 37.5 -15t14.5 -36q0 -29 -22.5 -51t-51.5 -22q-23 0 -37 14.5z" />
    <glyph glyph-name="egrave" unicode="&#xe8;" horiz-adv-x="566" 
d="M133.5 59.5q-54.5 62.5 -54.5 160.5q0 90 38 164.5t108 118t162 43.5q97 0 143 -42.5t46 -103.5q0 -42 -22.5 -78t-70 -58.5t-117.5 -22.5h-185l-1 -7q-2 -16 -2 -23q0 -54 33.5 -91.5t91.5 -37.5q46 0 83 23.5t59 62.5h102q-33 -75 -97 -123t-157 -48
q-105 0 -159.5 62.5zM365 312q59 0 85.5 23.5t26.5 57.5q0 30 -24 52t-78 22q-72 0 -119.5 -41.5t-61.5 -113.5h171zM265 784h107l68 -184h-82z" />
    <glyph glyph-name="uni1EBB" unicode="&#x1ebb;" horiz-adv-x="566" 
d="M133.5 59.5q-54.5 62.5 -54.5 160.5q0 90 38 164.5t108 118t162 43.5q97 0 143 -42.5t46 -103.5q0 -42 -22.5 -78t-70 -58.5t-117.5 -22.5h-185l-1 -7q-2 -16 -2 -23q0 -54 33.5 -91.5t91.5 -37.5q46 0 83 23.5t59 62.5h102q-33 -75 -97 -123t-157 -48
q-105 0 -159.5 62.5zM365 312q59 0 85.5 23.5t26.5 57.5q0 30 -24 52t-78 22q-72 0 -119.5 -41.5t-61.5 -113.5h171zM372 615.5q8 6.5 17.5 12.5t13.5 9q27 16 42 30.5t15 36.5q0 12 -8.5 20t-25.5 8q-18 0 -29.5 -8.5t-16.5 -22.5h-76q10 37 43 64t88 27q47 0 72.5 -20.5
t25.5 -54.5t-16 -53.5t-44 -37.5q-25 -15 -30 -26h-83q4 9 12 15.5z" />
    <glyph glyph-name="emacron" unicode="&#x113;" horiz-adv-x="566" 
d="M133.5 59.5q-54.5 62.5 -54.5 160.5q0 90 38 164.5t108 118t162 43.5q97 0 143 -42.5t46 -103.5q0 -42 -22.5 -78t-70 -58.5t-117.5 -22.5h-185l-1 -7q-2 -16 -2 -23q0 -54 33.5 -91.5t91.5 -37.5q46 0 83 23.5t59 62.5h102q-33 -75 -97 -123t-157 -48
q-105 0 -159.5 62.5zM365 312q59 0 85.5 23.5t26.5 57.5q0 30 -24 52t-78 22q-72 0 -119.5 -41.5t-61.5 -113.5h171zM261 674h306l-8 -51h-307z" />
    <glyph glyph-name="eogonek" unicode="&#x119;" horiz-adv-x="566" 
d="M386 105.5q37 23.5 59 62.5h102q-27 -60 -74.5 -104t-114.5 -60l13 -9q-31 -17 -48.5 -33.5t-17.5 -40.5q0 -14 12 -24t36 -10q11 0 38 6l-9 -58q-25 -6 -53 -6q-47 0 -72 21t-25 54q0 52 51 93q-100 4 -152 66t-52 157q0 90 38 164.5t108 118t162 43.5q97 0 143 -42.5
t46 -103.5q0 -42 -22.5 -78t-70 -58.5t-117.5 -22.5h-185l-1 -7q-2 -16 -2 -23q0 -54 33.5 -91.5t91.5 -37.5q46 0 83 23.5zM255.5 425.5q-47.5 -41.5 -61.5 -113.5h171q59 0 85.5 23.5t26.5 57.5q0 30 -24 52t-78 22q-72 0 -119.5 -41.5z" />
    <glyph glyph-name="uni1EBD" unicode="&#x1ebd;" horiz-adv-x="566" 
d="M133.5 59.5q-54.5 62.5 -54.5 160.5q0 90 38 164.5t108 118t162 43.5q97 0 143 -42.5t46 -103.5q0 -42 -22.5 -78t-70 -58.5t-117.5 -22.5h-185l-1 -7q-2 -16 -2 -23q0 -54 33.5 -91.5t91.5 -37.5q46 0 83 23.5t59 62.5h102q-33 -75 -97 -123t-157 -48
q-105 0 -159.5 62.5zM365 312q59 0 85.5 23.5t26.5 57.5q0 30 -24 52t-78 22q-72 0 -119.5 -41.5t-61.5 -113.5h171zM281 703.5q30 32.5 81 32.5q19 0 34.5 -5.5t34.5 -15.5q17 -9 27.5 -13t21.5 -4q18 0 30 11t17 27h61q-9 -43 -38 -75t-81 -32q-19 0 -35.5 6t-35.5 16
q-12 6 -24 11t-23 5q-32 0 -48 -39h-61q9 43 39 75.5z" />
    <glyph glyph-name="f" unicode="f" horiz-adv-x="378" 
d="M351 651q-18 -13 -24.5 -31.5t-11.5 -47.5l-8 -45h123l-14 -82h-122l-92 -541q-24 -147 -174 -147q-22 0 -44.5 2.5t-30.5 6.5l11 73q24 -4 50 -4q34 0 52 13t24.5 31t11.5 47l87 519h-70l14 82h70l11 64q11 60 48 103.5t126 43.5q21 0 44 -2.5t32 -5.5l-11 -71
q-20 5 -50 5q-34 0 -52 -13z" />
    <glyph glyph-name="g" unicode="g" horiz-adv-x="610" 
d="M214.5 -211q-17.5 4 -36.5 12l14 85q11 -4 32.5 -7.5t42.5 -3.5q76 0 119 42.5t55 110.5l15 87h-8q-28 -44 -77 -75.5t-116 -31.5q-83 0 -130 54.5t-47 145.5t36 168t97 121.5t134 44.5q68 0 107 -34.5t48 -77.5h8l17 97h104l-84 -499q-10 -54 -40.5 -109t-91 -94.5
t-150.5 -39.5q-31 0 -48.5 4zM396 125.5q41 31.5 65 83.5t24 112q0 58 -29.5 96t-88.5 38q-50 0 -91 -30.5t-65 -82t-24 -112.5q0 -60 29.5 -98t89.5 -38q49 0 90 31.5z" />
    <glyph glyph-name="gbreve" unicode="&#x11f;" horiz-adv-x="610" 
d="M214.5 -211q-17.5 4 -36.5 12l14 85q11 -4 32.5 -7.5t42.5 -3.5q76 0 119 42.5t55 110.5l15 87h-8q-28 -44 -77 -75.5t-116 -31.5q-83 0 -130 54.5t-47 145.5t36 168t97 121.5t134 44.5q68 0 107 -34.5t48 -77.5h8l17 97h104l-84 -499q-10 -54 -40.5 -109t-91 -94.5
t-150.5 -39.5q-31 0 -48.5 4zM396 125.5q41 31.5 65 83.5t24 112q0 58 -29.5 96t-88.5 38q-50 0 -91 -30.5t-65 -82t-24 -112.5q0 -60 29.5 -98t89.5 -38q49 0 90 31.5zM299 633.5q-38 27.5 -59 83.5h88q18 -50 79 -50t95 50h88q-40 -56 -86.5 -83.5t-106.5 -27.5t-98 27.5z
" />
    <glyph glyph-name="gdotaccent" unicode="&#x121;" horiz-adv-x="610" 
d="M214.5 -211q-17.5 4 -36.5 12l14 85q11 -4 32.5 -7.5t42.5 -3.5q76 0 119 42.5t55 110.5l15 87h-8q-28 -44 -77 -75.5t-116 -31.5q-83 0 -130 54.5t-47 145.5t36 168t97 121.5t134 44.5q68 0 107 -34.5t48 -77.5h8l17 97h104l-84 -499q-10 -54 -40.5 -109t-91 -94.5
t-150.5 -39.5q-31 0 -48.5 4zM396 125.5q41 31.5 65 83.5t24 112q0 58 -29.5 96t-88.5 38q-50 0 -91 -30.5t-65 -82t-24 -112.5q0 -60 29.5 -98t89.5 -38q49 0 90 31.5zM360.5 638q-14.5 15 -14.5 37q0 29 22.5 51.5t51.5 22.5q24 0 39 -15t15 -37q0 -29 -23 -51.5
t-53 -22.5q-23 0 -37.5 15z" />
    <glyph glyph-name="h" unicode="h" horiz-adv-x="608" 
d="M194 746h104l-51 -309h7q27 44 75.5 74t110.5 30q85 0 124 -48t39 -121q0 -24 -5 -54l-53 -318h-103l51 303q3 20 3 37q0 54 -29.5 82.5t-82.5 28.5q-59 0 -103.5 -40t-56.5 -108l-51 -303h-104z" />
    <glyph glyph-name="hbar" unicode="&#x127;" horiz-adv-x="608" 
d="M584.5 495.5q32.5 -45.5 32.5 -108.5q0 -29 -6 -62l-55 -325h-103l53 309q4 22 4 43q0 42 -21.5 71t-78.5 29q-72 0 -118 -47.5t-59 -120.5l-48 -284h-105l102 602h-72l12 70h72l13 78h103l-13 -78h138l-12 -70h-138l-29 -173h8q18 25 35.5 45t61.5 43.5t106 23.5
q85 0 117.5 -45.5z" />
    <glyph glyph-name="i" unicode="i" horiz-adv-x="261" 
d="M168 527h103l-89 -527h-103zM196.5 638q-14.5 15 -14.5 37q0 29 22.5 51.5t51.5 22.5q24 0 39 -15t15 -37q0 -29 -23 -51.5t-53 -22.5q-23 0 -37.5 15z" />
    <glyph glyph-name="dotlessi" unicode="&#x131;" horiz-adv-x="261" 
d="M168 527h103l-89 -527h-103z" />
    <glyph glyph-name="iacute" unicode="&#xed;" horiz-adv-x="261" 
d="M168 527h103l-89 -527h-103zM193 600l130 184h106l-154 -184h-82z" />
    <glyph glyph-name="icircumflex" unicode="&#xee;" horiz-adv-x="261" 
d="M168 527h103l-89 -527h-103zM214 743h84l111 -150h-100l-62 84h-4l-90 -84h-99z" />
    <glyph glyph-name="idieresis" unicode="&#xef;" horiz-adv-x="261" 
d="M168 527h103l-89 -527h-103zM308.5 638q-14.5 15 -14.5 37q0 29 22.5 51.5t51.5 22.5q24 0 39 -15t15 -37q0 -29 -23 -51.5t-53 -22.5q-23 0 -37.5 15zM93.5 638q-14.5 15 -14.5 37q0 29 22.5 51.5t51.5 22.5q24 0 39 -15t15 -37q0 -29 -23 -51.5t-53 -22.5
q-23 0 -37.5 15z" />
    <glyph glyph-name="i.loclTRK" horiz-adv-x="261" 
d="M168 527h103l-89 -527h-103zM196.5 638q-14.5 15 -14.5 37q0 29 22.5 51.5t51.5 22.5q24 0 39 -15t15 -37q0 -29 -23 -51.5t-53 -22.5q-23 0 -37.5 15z" />
    <glyph glyph-name="uni1ECB" unicode="&#x1ecb;" horiz-adv-x="261" 
d="M168 527h103l-89 -527h-103zM196.5 638q-14.5 15 -14.5 37q0 29 22.5 51.5t51.5 22.5q24 0 39 -15t15 -37q0 -29 -23 -51.5t-53 -22.5q-23 0 -37.5 15zM55 -215.5q-14 14.5 -14 36.5q0 29 22 51t51 22q23 0 37.5 -15t14.5 -36q0 -29 -22.5 -51t-51.5 -22q-23 0 -37 14.5z
" />
    <glyph glyph-name="igrave" unicode="&#xec;" horiz-adv-x="261" 
d="M168 527h103l-89 -527h-103zM96 784h107l68 -184h-82z" />
    <glyph glyph-name="uni1EC9" unicode="&#x1ec9;" horiz-adv-x="261" 
d="M168 527h103l-89 -527h-103zM202 615.5q8 6.5 17.5 12.5t13.5 9q27 16 42 30.5t15 36.5q0 12 -8.5 20t-25.5 8q-18 0 -29.5 -8.5t-16.5 -22.5h-76q10 37 43 64t88 27q47 0 72.5 -20.5t25.5 -54.5t-16 -53.5t-44 -37.5q-25 -15 -30 -26h-83q4 9 12 15.5z" />
    <glyph glyph-name="imacron" unicode="&#x12b;" horiz-adv-x="261" 
d="M168 527h103l-89 -527h-103zM91 674h306l-8 -51h-307z" />
    <glyph glyph-name="iogonek" unicode="&#x12f;" horiz-adv-x="261" 
d="M295 734q15 -15 15 -37q0 -29 -23 -51.5t-53 -22.5q-23 0 -37.5 15t-14.5 37q0 29 22.5 51.5t51.5 22.5q24 0 39 -15zM133.5 -33.5q-17.5 -16.5 -17.5 -40.5q0 -14 12 -24t36 -10q11 0 38 6l-9 -58q-26 -6 -53 -6q-47 0 -72 21t-25 54q0 51 48 91h-12l89 527h103
l-89 -527q-31 -17 -48.5 -33.5z" />
    <glyph glyph-name="itilde" unicode="&#x129;" horiz-adv-x="261" 
d="M168 527h103l-89 -527h-103zM112 703.5q30 32.5 81 32.5q19 0 34.5 -5.5t34.5 -15.5q17 -9 27.5 -13t21.5 -4q18 0 30 11t17 27h61q-9 -43 -38 -75t-81 -32q-19 0 -35.5 6t-35.5 16q-12 6 -24 11t-23 5q-32 0 -48 -39h-61q9 43 39 75.5z" />
    <glyph glyph-name="j" unicode="j" horiz-adv-x="263" 
d="M204.5 638q-14.5 15 -14.5 37q0 29 22.5 51.5t51.5 22.5q24 0 38.5 -15t14.5 -37q0 -29 -23 -51.5t-52 -22.5q-23 0 -37.5 15zM-76 -213l12 74q15 -4 45 -4q35 0 54 13t26 32t12 47l99 588h104l-103 -615q-25 -144 -175 -144q-43 0 -74 9z" />
    <glyph glyph-name="k" unicode="k" horiz-adv-x="531" 
d="M199 746h104l-70 -416h5l216 197h120l-259 -238l179 -289h-118l-150 256h-5l-43 -256h-105z" />
    <glyph glyph-name="l" unicode="l" horiz-adv-x="323" 
d="M118 20q-27 24 -27 67q0 24 7 62l102 601h103l-98 -583q-6 -38 -6 -49q0 -23 13.5 -34.5t49.5 -11.5q19 0 35 3l-12 -74q-42 -5 -71 -5q-69 0 -96 24z" />
    <glyph glyph-name="lacute" unicode="&#x13a;" horiz-adv-x="323" 
d="M118 20q-27 24 -27 67q0 24 7 62l102 601h103l-98 -583q-6 -38 -6 -49q0 -23 13.5 -34.5t49.5 -11.5q19 0 35 3l-12 -74q-42 -5 -71 -5q-69 0 -96 24zM224 818l130 184h106l-154 -184h-82z" />
    <glyph glyph-name="lcaron" unicode="&#x13e;" horiz-adv-x="382" 
d="M374 732q0 -9 -2 -23l-7 -39q-9 -51 -34.5 -85.5t-64.5 -53.5l-61 -364q-6 -38 -6 -49q0 -23 13.5 -34.5t49.5 -11.5q19 0 35 3l-12 -74q-42 -5 -71 -5q-69 0 -96 24t-27 67q0 24 7 62l102 601h34q10 20 29.5 31.5t44.5 11.5q66 0 66 -61zM305 647q0 20 -15 25l-15 -91
q30 28 30 66z" />
    <glyph glyph-name="m" unicode="m" horiz-adv-x="945" 
d="M158 527h103l-16 -93h8q5 11 26.5 36.5t60.5 48t92 22.5q56 0 88.5 -26t45.5 -55t13 -39h8q7 14 29.5 41.5t66 53t102.5 25.5q81 0 118 -50t37 -123q0 -28 -4 -49l-54 -319h-103l52 309q3 18 3 35q0 52 -29 78t-73 26q-53 0 -97.5 -36.5t-55.5 -102.5l-52 -309h-103
l52 309q3 18 3 35q0 52 -29 78t-73 26q-53 0 -97.5 -36.5t-55.5 -102.5l-52 -309h-103z" />
    <glyph glyph-name="n" unicode="n" horiz-adv-x="608" 
d="M158 527h104l-15 -90h7q27 44 75.5 74t110.5 30q85 0 124 -48t39 -121q0 -24 -5 -54l-53 -318h-103l51 303q3 20 3 37q0 54 -29.5 82.5t-80.5 28.5q-63 0 -107 -41t-55 -107l-51 -303h-104z" />
    <glyph glyph-name="nacute" unicode="&#x144;" horiz-adv-x="608" 
d="M158 527h104l-15 -90h7q27 44 75.5 74t110.5 30q85 0 124 -48t39 -121q0 -24 -5 -54l-53 -318h-103l51 303q3 20 3 37q0 54 -29.5 82.5t-80.5 28.5q-63 0 -107 -41t-55 -107l-51 -303h-104zM367 600l130 184h106l-154 -184h-82z" />
    <glyph glyph-name="ncaron" unicode="&#x148;" horiz-adv-x="608" 
d="M158 527h104l-15 -90h7q27 44 75.5 74t110.5 30q85 0 124 -48t39 -121q0 -24 -5 -54l-53 -318h-103l51 303q3 20 3 37q0 54 -29.5 82.5t-80.5 28.5q-63 0 -107 -41t-55 -107l-51 -303h-104zM352 743l61 -84h4l91 84h99l-160 -150h-84l-110 150h99z" />
    <glyph glyph-name="ntilde" unicode="&#xf1;" horiz-adv-x="608" 
d="M158 527h104l-15 -90h7q27 44 75.5 74t110.5 30q85 0 124 -48t39 -121q0 -24 -5 -54l-53 -318h-103l51 303q3 20 3 37q0 54 -29.5 82.5t-80.5 28.5q-63 0 -107 -41t-55 -107l-51 -303h-104zM285 703.5q30 32.5 81 32.5q19 0 34.5 -5.5t34.5 -15.5q17 -9 27.5 -13t21.5 -4
q18 0 30 11t17 27h61q-9 -43 -38 -75t-81 -32q-19 0 -35.5 6t-35.5 16q-12 6 -24 11t-23 5q-32 0 -48 -39h-61q9 43 39 75.5z" />
    <glyph glyph-name="o" unicode="o" horiz-adv-x="582" 
d="M129 53.5q-52 60.5 -52 153.5q0 92 40 168.5t109 121t151 44.5q103 0 155 -61t52 -154q0 -91 -40 -167.5t-108.5 -121t-150.5 -44.5q-104 0 -156 60.5zM390 111.5q42 32.5 66.5 87.5t24.5 120q0 61 -30.5 98.5t-87.5 37.5q-50 0 -92 -32t-66.5 -87t-24.5 -120
q0 -61 30.5 -99t87.5 -38q50 0 92 32.5z" />
    <glyph glyph-name="oacute" unicode="&#xf3;" horiz-adv-x="582" 
d="M129 53.5q-52 60.5 -52 153.5q0 92 40 168.5t109 121t151 44.5q103 0 155 -61t52 -154q0 -91 -40 -167.5t-108.5 -121t-150.5 -44.5q-104 0 -156 60.5zM390 111.5q42 32.5 66.5 87.5t24.5 120q0 61 -30.5 98.5t-87.5 37.5q-50 0 -92 -32t-66.5 -87t-24.5 -120
q0 -61 30.5 -99t87.5 -38q50 0 92 32.5zM348 600l130 184h106l-154 -184h-82z" />
    <glyph glyph-name="ocircumflex" unicode="&#xf4;" horiz-adv-x="582" 
d="M129 53.5q-52 60.5 -52 153.5q0 92 40 168.5t109 121t151 44.5q103 0 155 -61t52 -154q0 -91 -40 -167.5t-108.5 -121t-150.5 -44.5q-104 0 -156 60.5zM390 111.5q42 32.5 66.5 87.5t24.5 120q0 61 -30.5 98.5t-87.5 37.5q-50 0 -92 -32t-66.5 -87t-24.5 -120
q0 -61 30.5 -99t87.5 -38q50 0 92 32.5zM369 743h84l111 -150h-100l-62 84h-4l-90 -84h-99z" />
    <glyph glyph-name="uni1ED1" unicode="&#x1ed1;" horiz-adv-x="582" 
d="M129 53.5q-52 60.5 -52 153.5q0 92 40 168.5t109 121t151 44.5q103 0 155 -61t52 -154q0 -91 -40 -167.5t-108.5 -121t-150.5 -44.5q-104 0 -156 60.5zM390 111.5q42 32.5 66.5 87.5t24.5 120q0 61 -30.5 98.5t-87.5 37.5q-50 0 -92 -32t-66.5 -87t-24.5 -120
q0 -61 30.5 -99t87.5 -38q50 0 92 32.5zM369 743h84l111 -150h-100l-62 84h-4l-90 -84h-99zM523 719l130 184h106l-154 -184h-82z" />
    <glyph glyph-name="uni1ED9" unicode="&#x1ed9;" horiz-adv-x="582" 
d="M129 53.5q-52 60.5 -52 153.5q0 92 40 168.5t109 121t151 44.5q103 0 155 -61t52 -154q0 -91 -40 -167.5t-108.5 -121t-150.5 -44.5q-104 0 -156 60.5zM390 111.5q42 32.5 66.5 87.5t24.5 120q0 61 -30.5 98.5t-87.5 37.5q-50 0 -92 -32t-66.5 -87t-24.5 -120
q0 -61 30.5 -99t87.5 -38q50 0 92 32.5zM210 -215.5q-14 14.5 -14 36.5q0 29 22 51t51 22q23 0 37.5 -15t14.5 -36q0 -29 -22.5 -51t-51.5 -22q-23 0 -37 14.5zM369 743h84l111 -150h-100l-62 84h-4l-90 -84h-99z" />
    <glyph glyph-name="uni1ED3" unicode="&#x1ed3;" horiz-adv-x="582" 
d="M129 53.5q-52 60.5 -52 153.5q0 92 40 168.5t109 121t151 44.5q103 0 155 -61t52 -154q0 -91 -40 -167.5t-108.5 -121t-150.5 -44.5q-104 0 -156 60.5zM390 111.5q42 32.5 66.5 87.5t24.5 120q0 61 -30.5 98.5t-87.5 37.5q-50 0 -92 -32t-66.5 -87t-24.5 -120
q0 -61 30.5 -99t87.5 -38q50 0 92 32.5zM369 743h84l111 -150h-100l-62 84h-4l-90 -84h-99zM437 903h107l68 -184h-82z" />
    <glyph glyph-name="uni1ED5" unicode="&#x1ed5;" horiz-adv-x="582" 
d="M129 53.5q-52 60.5 -52 153.5q0 92 40 168.5t109 121t151 44.5q103 0 155 -61t52 -154q0 -91 -40 -167.5t-108.5 -121t-150.5 -44.5q-104 0 -156 60.5zM390 111.5q42 32.5 66.5 87.5t24.5 120q0 61 -30.5 98.5t-87.5 37.5q-50 0 -92 -32t-66.5 -87t-24.5 -120
q0 -61 30.5 -99t87.5 -38q50 0 92 32.5zM368 743h84l111 -150h-100l-62 84h-4l-90 -84h-99zM533 741.5q8 6.5 17.5 12.5t13.5 9q27 16 42 30.5t15 36.5q0 12 -8.5 20t-25.5 8q-18 0 -29.5 -8.5t-16.5 -22.5h-76q10 37 43 64t88 27q47 0 72.5 -20.5t25.5 -54.5t-16 -53.5
t-44 -37.5q-25 -15 -30 -26h-83q4 9 12 15.5z" />
    <glyph glyph-name="uni1ED7" unicode="&#x1ed7;" horiz-adv-x="582" 
d="M129 53.5q-52 60.5 -52 153.5q0 92 40 168.5t109 121t151 44.5q103 0 155 -61t52 -154q0 -91 -40 -167.5t-108.5 -121t-150.5 -44.5q-104 0 -156 60.5zM390 111.5q42 32.5 66.5 87.5t24.5 120q0 61 -30.5 98.5t-87.5 37.5q-50 0 -92 -32t-66.5 -87t-24.5 -120
q0 -61 30.5 -99t87.5 -38q50 0 92 32.5zM367 743h84l111 -150h-100l-62 84h-4l-90 -84h-99zM280 866.5q30 32.5 81 32.5q19 0 34.5 -5.5t34.5 -15.5q17 -9 27.5 -13t21.5 -4q18 0 30 11t17 27h61q-9 -43 -38 -75t-81 -32q-19 0 -35.5 6t-35.5 16q-12 6 -24 11t-23 5
q-32 0 -48 -39h-61q9 43 39 75.5z" />
    <glyph glyph-name="odieresis" unicode="&#xf6;" horiz-adv-x="582" 
d="M129 53.5q-52 60.5 -52 153.5q0 92 40 168.5t109 121t151 44.5q103 0 155 -61t52 -154q0 -91 -40 -167.5t-108.5 -121t-150.5 -44.5q-104 0 -156 60.5zM390 111.5q42 32.5 66.5 87.5t24.5 120q0 61 -30.5 98.5t-87.5 37.5q-50 0 -92 -32t-66.5 -87t-24.5 -120
q0 -61 30.5 -99t87.5 -38q50 0 92 32.5zM462.5 638q-14.5 15 -14.5 37q0 29 22.5 51.5t51.5 22.5q24 0 39 -15t15 -37q0 -29 -23 -51.5t-53 -22.5q-23 0 -37.5 15zM247.5 638q-14.5 15 -14.5 37q0 29 22.5 51.5t51.5 22.5q24 0 39 -15t15 -37q0 -29 -23 -51.5t-53 -22.5
q-23 0 -37.5 15z" />
    <glyph glyph-name="uni1ECD" unicode="&#x1ecd;" horiz-adv-x="582" 
d="M129 53.5q-52 60.5 -52 153.5q0 92 40 168.5t109 121t151 44.5q103 0 155 -61t52 -154q0 -91 -40 -167.5t-108.5 -121t-150.5 -44.5q-104 0 -156 60.5zM390 111.5q42 32.5 66.5 87.5t24.5 120q0 61 -30.5 98.5t-87.5 37.5q-50 0 -92 -32t-66.5 -87t-24.5 -120
q0 -61 30.5 -99t87.5 -38q50 0 92 32.5zM210 -215.5q-14 14.5 -14 36.5q0 29 22 51t51 22q23 0 37.5 -15t14.5 -36q0 -29 -22.5 -51t-51.5 -22q-23 0 -37 14.5z" />
    <glyph glyph-name="ograve" unicode="&#xf2;" horiz-adv-x="582" 
d="M129 53.5q-52 60.5 -52 153.5q0 92 40 168.5t109 121t151 44.5q103 0 155 -61t52 -154q0 -91 -40 -167.5t-108.5 -121t-150.5 -44.5q-104 0 -156 60.5zM390 111.5q42 32.5 66.5 87.5t24.5 120q0 61 -30.5 98.5t-87.5 37.5q-50 0 -92 -32t-66.5 -87t-24.5 -120
q0 -61 30.5 -99t87.5 -38q50 0 92 32.5zM250 784h107l68 -184h-82z" />
    <glyph glyph-name="uni1ECF" unicode="&#x1ecf;" horiz-adv-x="582" 
d="M129 53.5q-52 60.5 -52 153.5q0 92 40 168.5t109 121t151 44.5q103 0 155 -61t52 -154q0 -91 -40 -167.5t-108.5 -121t-150.5 -44.5q-104 0 -156 60.5zM390 111.5q42 32.5 66.5 87.5t24.5 120q0 61 -30.5 98.5t-87.5 37.5q-50 0 -92 -32t-66.5 -87t-24.5 -120
q0 -61 30.5 -99t87.5 -38q50 0 92 32.5zM357 615.5q8 6.5 17.5 12.5t13.5 9q27 16 42 30.5t15 36.5q0 12 -8.5 20t-25.5 8q-18 0 -29.5 -8.5t-16.5 -22.5h-76q10 37 43 64t88 27q47 0 72.5 -20.5t25.5 -54.5t-16 -53.5t-44 -37.5q-25 -15 -30 -26h-83q4 9 12 15.5z" />
    <glyph glyph-name="ohorn" unicode="&#x1a1;" horiz-adv-x="597" 
d="M663 624l-7 -42q-9 -56 -43 -79.5t-78 -26.5q49 -56 49 -150q0 -91 -40 -167.5t-108.5 -121t-150.5 -44.5q-104 0 -156 60.5t-52 153.5q0 92 40 168.5t109 121t151 44.5q51 0 88 -15v1h47q29 0 44.5 12t23.5 54l5 31h78zM390 111.5q42 32.5 66.5 87.5t24.5 120
q0 61 -30.5 98.5t-87.5 37.5q-50 0 -92 -32t-66.5 -87t-24.5 -120q0 -61 30.5 -99t87.5 -38q50 0 92 32.5z" />
    <glyph glyph-name="uni1EDB" unicode="&#x1edb;" horiz-adv-x="597" 
d="M663 624l-7 -42q-9 -56 -43 -79.5t-78 -26.5q49 -56 49 -150q0 -91 -40 -167.5t-108.5 -121t-150.5 -44.5q-104 0 -156 60.5t-52 153.5q0 92 40 168.5t109 121t151 44.5q51 0 88 -15v1h47q29 0 44.5 12t23.5 54l5 31h78zM390 111.5q42 32.5 66.5 87.5t24.5 120
q0 61 -30.5 98.5t-87.5 37.5q-50 0 -92 -32t-66.5 -87t-24.5 -120q0 -61 30.5 -99t87.5 -38q50 0 92 32.5zM348 600l130 184h106l-154 -184h-82z" />
    <glyph glyph-name="uni1EE3" unicode="&#x1ee3;" horiz-adv-x="597" 
d="M663 624l-7 -42q-9 -56 -43 -79.5t-78 -26.5q49 -56 49 -150q0 -91 -40 -167.5t-108.5 -121t-150.5 -44.5q-104 0 -156 60.5t-52 153.5q0 92 40 168.5t109 121t151 44.5q51 0 88 -15v1h47q29 0 44.5 12t23.5 54l5 31h78zM390 111.5q42 32.5 66.5 87.5t24.5 120
q0 61 -30.5 98.5t-87.5 37.5q-50 0 -92 -32t-66.5 -87t-24.5 -120q0 -61 30.5 -99t87.5 -38q50 0 92 32.5zM210 -215.5q-14 14.5 -14 36.5q0 29 22 51t51 22q23 0 37.5 -15t14.5 -36q0 -29 -22.5 -51t-51.5 -22q-23 0 -37 14.5z" />
    <glyph glyph-name="uni1EDD" unicode="&#x1edd;" horiz-adv-x="597" 
d="M663 624l-7 -42q-9 -56 -43 -79.5t-78 -26.5q49 -56 49 -150q0 -91 -40 -167.5t-108.5 -121t-150.5 -44.5q-104 0 -156 60.5t-52 153.5q0 92 40 168.5t109 121t151 44.5q51 0 88 -15v1h47q29 0 44.5 12t23.5 54l5 31h78zM390 111.5q42 32.5 66.5 87.5t24.5 120
q0 61 -30.5 98.5t-87.5 37.5q-50 0 -92 -32t-66.5 -87t-24.5 -120q0 -61 30.5 -99t87.5 -38q50 0 92 32.5zM250 784h107l68 -184h-82z" />
    <glyph glyph-name="uni1EDF" unicode="&#x1edf;" horiz-adv-x="597" 
d="M663 624l-7 -42q-9 -56 -43 -79.5t-78 -26.5q49 -56 49 -150q0 -91 -40 -167.5t-108.5 -121t-150.5 -44.5q-104 0 -156 60.5t-52 153.5q0 92 40 168.5t109 121t151 44.5q51 0 88 -15v1h47q29 0 44.5 12t23.5 54l5 31h78zM390 111.5q42 32.5 66.5 87.5t24.5 120
q0 61 -30.5 98.5t-87.5 37.5q-50 0 -92 -32t-66.5 -87t-24.5 -120q0 -61 30.5 -99t87.5 -38q50 0 92 32.5zM357 615.5q8 6.5 17.5 12.5t13.5 9q27 16 42 30.5t15 36.5q0 12 -8.5 20t-25.5 8q-18 0 -29.5 -8.5t-16.5 -22.5h-76q10 37 43 64t88 27q47 0 72.5 -20.5t25.5 -54.5
t-16 -53.5t-44 -37.5q-25 -15 -30 -26h-83q4 9 12 15.5z" />
    <glyph glyph-name="uni1EE1" unicode="&#x1ee1;" horiz-adv-x="597" 
d="M663 624l-7 -42q-9 -56 -43 -79.5t-78 -26.5q49 -56 49 -150q0 -91 -40 -167.5t-108.5 -121t-150.5 -44.5q-104 0 -156 60.5t-52 153.5q0 92 40 168.5t109 121t151 44.5q51 0 88 -15v1h47q29 0 44.5 12t23.5 54l5 31h78zM390 111.5q42 32.5 66.5 87.5t24.5 120
q0 61 -30.5 98.5t-87.5 37.5q-50 0 -92 -32t-66.5 -87t-24.5 -120q0 -61 30.5 -99t87.5 -38q50 0 92 32.5zM266 703.5q30 32.5 81 32.5q19 0 34.5 -5.5t34.5 -15.5q17 -9 27.5 -13t21.5 -4q18 0 30 11t17 27h61q-9 -43 -38 -75t-81 -32q-19 0 -35.5 6t-35.5 16q-12 6 -24 11
t-23 5q-32 0 -48 -39h-61q9 43 39 75.5z" />
    <glyph glyph-name="omacron" unicode="&#x14d;" horiz-adv-x="582" 
d="M129 53.5q-52 60.5 -52 153.5q0 92 40 168.5t109 121t151 44.5q103 0 155 -61t52 -154q0 -91 -40 -167.5t-108.5 -121t-150.5 -44.5q-104 0 -156 60.5zM390 111.5q42 32.5 66.5 87.5t24.5 120q0 61 -30.5 98.5t-87.5 37.5q-50 0 -92 -32t-66.5 -87t-24.5 -120
q0 -61 30.5 -99t87.5 -38q50 0 92 32.5zM246 674h306l-8 -51h-307z" />
    <glyph glyph-name="oslash" unicode="&#xf8;" horiz-adv-x="592" 
d="M532 480q52 -56 52 -154q0 -91 -40 -167.5t-108.5 -121t-150.5 -44.5q-54 0 -94 17l-36 -49h-77l61 83q-31 29 -46.5 71.5t-15.5 92.5q0 92 40 168t109 120.5t151 44.5q62 0 106 -23l46 64h77zM201 131l224 308q-27 16 -62 16q-50 0 -92 -31.5t-66.5 -86.5t-24.5 -120
q0 -51 21 -86zM467 391l-219 -301q21 -10 50 -10q50 0 92 32t66.5 87.5t24.5 120.5q0 40 -14 71z" />
    <glyph glyph-name="otilde" unicode="&#xf5;" horiz-adv-x="582" 
d="M129 53.5q-52 60.5 -52 153.5q0 92 40 168.5t109 121t151 44.5q103 0 155 -61t52 -154q0 -91 -40 -167.5t-108.5 -121t-150.5 -44.5q-104 0 -156 60.5zM390 111.5q42 32.5 66.5 87.5t24.5 120q0 61 -30.5 98.5t-87.5 37.5q-50 0 -92 -32t-66.5 -87t-24.5 -120
q0 -61 30.5 -99t87.5 -38q50 0 92 32.5zM266 703.5q30 32.5 81 32.5q19 0 34.5 -5.5t34.5 -15.5q17 -9 27.5 -13t21.5 -4q18 0 30 11t17 27h61q-9 -43 -38 -75t-81 -32q-19 0 -35.5 6t-35.5 16q-12 6 -24 11t-23 5q-32 0 -48 -39h-61q9 43 39 75.5z" />
    <glyph glyph-name="oe" unicode="&#x153;" horiz-adv-x="975" 
d="M138.5 52q-51.5 61 -51.5 154q0 91 39.5 167t107.5 121t149 45q70 0 115.5 -33.5t61.5 -86.5h7q34 53 89.5 87.5t127.5 34.5q90 0 142 -51.5t52 -148.5q0 -37 -7 -75l-4 -29h-378l-1 -7q-2 -18 -2 -26q0 -55 32 -91t86 -36q45 0 83.5 23.5t60.5 63.5h100
q-32 -73 -100 -122t-157 -49q-71 0 -115 33t-60 85h-7q-33 -51 -90.5 -85.5t-128.5 -34.5q-100 0 -151.5 61zM880 308q3 20 3 36q0 62 -31 90t-82 28q-61 0 -107.5 -42.5t-62.5 -111.5h280zM395 109q42 32 67 87t25 119q0 62 -32 100t-87 38q-48 0 -89.5 -32t-66 -87
t-24.5 -120q0 -61 30.5 -98.5t84.5 -38.5q50 0 92 32z" />
    <glyph glyph-name="p" unicode="p" horiz-adv-x="619" 
d="M248.5 25.5q-36.5 32.5 -51.5 76.5h-7l-52 -307h-104l123 732h105l-16 -92h7q27 41 74 73.5t116 32.5q87 0 133 -55t46 -148q0 -95 -35.5 -174t-97.5 -125t-136 -46q-68 0 -104.5 32.5zM425 110.5q42 31.5 66 86.5t24 121q0 60 -29.5 97.5t-89.5 37.5q-50 0 -92 -31.5
t-66 -86t-24 -119.5q0 -61 29.5 -99t88.5 -38q51 0 93 31.5z" />
    <glyph glyph-name="thorn" unicode="&#xfe;" horiz-adv-x="621" 
d="M247.5 25.5q-36.5 32.5 -50.5 75.5h-8l-56 -337h-105l167 986h104l-53 -314h7q27 41 73.5 73t116.5 32q87 0 133 -55t46 -148q0 -96 -35.5 -175t-97.5 -124.5t-136 -45.5q-69 0 -105.5 32.5zM425 110.5q42 31.5 66 86.5t24 121q0 60 -29.5 97.5t-89.5 37.5
q-50 0 -92 -31.5t-66 -86t-24 -119.5q0 -61 29.5 -99t88.5 -38q51 0 93 31.5z" />
    <glyph glyph-name="q" unicode="q" horiz-adv-x="609" 
d="M122.5 48.5q-45.5 55.5 -45.5 147.5q0 96 36 175t98 124.5t137 45.5q69 0 105.5 -32.5t48.5 -73.5h7l16 92h105l-124 -732h-104l52 307h-7q-76 -109 -193 -109q-86 0 -131.5 55.5zM394 110.5q42 31.5 66 86t24 120.5q0 60 -29.5 98t-88.5 38q-51 0 -92.5 -31.5t-65.5 -86
t-24 -121.5q0 -60 29.5 -97.5t88.5 -37.5q50 0 92 31.5z" />
    <glyph glyph-name="r" unicode="r" horiz-adv-x="364" 
d="M157 527h103l-15 -84h7q19 35 56.5 59.5t90.5 24.5q26 0 43 -6l-20 -98q-16 5 -26.5 6.5t-27.5 1.5q-61 0 -98.5 -34t-50.5 -110l-48 -287h-103z" />
    <glyph glyph-name="racute" unicode="&#x155;" horiz-adv-x="364" 
d="M157 527h103l-15 -84h7q19 35 56.5 59.5t90.5 24.5q26 0 43 -6l-20 -98q-16 5 -26.5 6.5t-27.5 1.5q-61 0 -98.5 -34t-50.5 -110l-48 -287h-103zM253 600l130 184h106l-154 -184h-82z" />
    <glyph glyph-name="rcaron" unicode="&#x159;" horiz-adv-x="364" 
d="M157 527h103l-15 -84h7q19 35 56.5 59.5t90.5 24.5q26 0 43 -6l-20 -98q-16 5 -26.5 6.5t-27.5 1.5q-61 0 -98.5 -34t-50.5 -110l-48 -287h-103zM237 743l61 -84h4l91 84h99l-160 -150h-84l-110 150h99z" />
    <glyph glyph-name="s" unicode="s" horiz-adv-x="495" 
d="M154 13.5q-42 20.5 -63.5 53.5t-21.5 71q0 10 4 30l1 5h99v-4q-1 -38 22 -65.5t74 -27.5q49 0 81.5 25.5t32.5 63.5q0 26 -19 41t-48 20l-65 10q-54 9 -92.5 38t-38.5 84q0 52 28.5 94t78.5 65.5t112 23.5q61 0 101 -22.5t58 -59.5t15 -80l-1 -4h-103v2q0 33 -18 59.5
t-68 26.5q-45 0 -76.5 -25.5t-31.5 -62.5q0 -23 18.5 -38t47.5 -20l70 -13q57 -11 94.5 -40t37.5 -83q0 -52 -30.5 -95t-83 -68t-116.5 -25q-57 0 -99 20.5z" />
    <glyph glyph-name="sacute" unicode="&#x15b;" horiz-adv-x="495" 
d="M154 13.5q-42 20.5 -63.5 53.5t-21.5 71q0 10 4 30l1 5h99v-4q-1 -38 22 -65.5t74 -27.5q49 0 81.5 25.5t32.5 63.5q0 26 -19 41t-48 20l-65 10q-54 9 -92.5 38t-38.5 84q0 52 28.5 94t78.5 65.5t112 23.5q61 0 101 -22.5t58 -59.5t15 -80l-1 -4h-103v2q0 33 -18 59.5
t-68 26.5q-45 0 -76.5 -25.5t-31.5 -62.5q0 -23 18.5 -38t47.5 -20l70 -13q57 -11 94.5 -40t37.5 -83q0 -52 -30.5 -95t-83 -68t-116.5 -25q-57 0 -99 20.5zM317 609l130 184h106l-154 -184h-82z" />
    <glyph glyph-name="scaron" unicode="&#x161;" horiz-adv-x="495" 
d="M154 13.5q-42 20.5 -63.5 53.5t-21.5 71q0 10 4 30l1 5h99v-4q-1 -38 22 -65.5t74 -27.5q49 0 81.5 25.5t32.5 63.5q0 26 -19 41t-48 20l-65 10q-54 9 -92.5 38t-38.5 84q0 52 28.5 94t78.5 65.5t112 23.5q61 0 101 -22.5t58 -59.5t15 -80l-1 -4h-103v2q0 33 -18 59.5
t-68 26.5q-45 0 -76.5 -25.5t-31.5 -62.5q0 -23 18.5 -38t47.5 -20l70 -13q57 -11 94.5 -40t37.5 -83q0 -52 -30.5 -95t-83 -68t-116.5 -25q-57 0 -99 20.5zM301 752l61 -84h4l91 84h99l-160 -150h-84l-110 150h99z" />
    <glyph glyph-name="scedilla" unicode="&#x15f;" horiz-adv-x="495" 
d="M440 518.5q40 -22.5 58 -59.5t15 -80l-1 -4h-103v2q0 33 -18 59.5t-68 26.5q-45 0 -76.5 -25.5t-31.5 -62.5q0 -23 18.5 -38t47.5 -20l70 -13q57 -11 94.5 -40t37.5 -83q0 -47 -25 -87t-69.5 -66t-99.5 -33l-25 -48h23q41 0 62.5 -20.5t21.5 -52.5q0 -33 -18 -61.5
t-50 -45t-71 -16.5q-34 0 -60 11l10 56q32 -8 60 -8q34 0 54 15.5t20 40.5q0 18 -14 25t-31 7h-85l1 3l43 93q-75 6 -118 47.5t-43 96.5q0 10 4 30l1 5h99v-4q-1 -38 22 -65.5t74 -27.5q49 0 81.5 25.5t32.5 63.5q0 26 -19 41t-48 20l-65 10q-54 9 -92.5 38t-38.5 84
q0 52 28.5 94t78.5 65.5t112 23.5q61 0 101 -22.5z" />
    <glyph glyph-name="germandbls" unicode="&#xdf;" horiz-adv-x="578" 
d="M313 607.5q-31 -24.5 -42 -53t-17 -61.5l-83 -495h-103l82 486q16 96 76 164.5t181 68.5q100 0 146.5 -44.5t46.5 -111.5q0 -65 -29.5 -106.5t-63.5 -60.5t-45 -19l-1 -6q7 0 32 -13.5t47 -43.5t22 -79q0 -66 -35 -121.5t-95.5 -88t-132.5 -32.5q-34 0 -61 6l14 87
q20 -4 45 -4q76 0 124 43.5t48 112.5q0 54 -39 76t-92 22h-55l12 78h59q68 0 108.5 37t40.5 98q0 42 -28 63.5t-76 21.5q-55 0 -86 -24.5z" />
    <glyph glyph-name="t" unicode="t" horiz-adv-x="412" 
d="M256 163q-5 -32 -5 -48q0 -22 13.5 -32.5t49.5 -10.5q25 0 51 6l-12 -73q-8 -3 -34.5 -6t-51.5 -3q-71 0 -98 22.5t-27 66.5q0 15 6 55l52 305h-94l13 82h95l29 173h104l-29 -173h122l-13 -82h-123z" />
    <glyph glyph-name="tbar" unicode="&#x167;" horiz-adv-x="402" 
d="M304 445l-20 -119h124l-10 -58h-124l-17 -101q-5 -30 -5 -48q0 -24 13.5 -35.5t49.5 -11.5q26 0 50 6l-12 -73q-7 -3 -33.5 -6t-52.5 -3q-70 0 -96.5 24t-26.5 69q0 18 6 60l20 119h-94l10 58h94l20 119h-93l13 82h94l30 173h103l-29 -173h123l-13 -82h-124z" />
    <glyph glyph-name="tcaron" unicode="&#x165;" horiz-adv-x="520" 
d="M512 732q0 -9 -2 -23l-7 -39q-19 -103 -107 -143h44l-13 -82h-123l-48 -282q-5 -32 -5 -48q0 -22 13.5 -32.5t49.5 -10.5q25 0 51 6l-12 -73q-8 -3 -34.5 -6t-51.5 -3q-71 0 -98 22.5t-27 66.5q0 15 6 55l52 305h-94l13 82h95l29 173h104l-29 -173h42l4 25
q37 15 57.5 39.5t20.5 55.5q0 17 -8 21.5t-23 4.5q-25 0 -36 11.5t-11 29.5q0 35 23 57t59 22q66 0 66 -61z" />
    <glyph glyph-name="uni0163" unicode="&#x163;" horiz-adv-x="412" 
d="M256 163q-5 -32 -5 -48q0 -22 13.5 -32.5t49.5 -10.5q25 0 51 6l-12 -73q-8 -3 -34.5 -6t-51.5 -3h-5l-23 -46h23q41 0 62.5 -20.5t21.5 -52.5q0 -33 -18 -61.5t-50 -45t-71 -16.5q-34 0 -60 11l10 56q32 -8 60 -8q34 0 54 15.5t20 40.5q0 18 -14 25t-31 7h-85l1 3l45 98
q-36 8 -50.5 28.5t-14.5 53.5q0 16 6 56l52 305h-94l13 82h95l29 173h104l-29 -173h122l-13 -82h-123z" />
    <glyph glyph-name="u" unicode="u" horiz-adv-x="598" 
d="M533 0h-105l16 95h-6q-27 -44 -74.5 -74t-107.5 -30q-82 0 -120 48t-38 120q0 24 5 54l53 314h103l-51 -299q-4 -28 -4 -39q0 -52 28.5 -80.5t77.5 -28.5q61 0 103 41.5t54 106.5l50 299h105z" />
    <glyph glyph-name="uacute" unicode="&#xfa;" horiz-adv-x="598" 
d="M533 0h-105l16 95h-6q-27 -44 -74.5 -74t-107.5 -30q-82 0 -120 48t-38 120q0 24 5 54l53 314h103l-51 -299q-4 -28 -4 -39q0 -52 28.5 -80.5t77.5 -28.5q61 0 103 41.5t54 106.5l50 299h105zM349 600l130 184h106l-154 -184h-82z" />
    <glyph glyph-name="ucircumflex" unicode="&#xfb;" horiz-adv-x="598" 
d="M533 0h-105l16 95h-6q-27 -44 -74.5 -74t-107.5 -30q-82 0 -120 48t-38 120q0 24 5 54l53 314h103l-51 -299q-4 -28 -4 -39q0 -52 28.5 -80.5t77.5 -28.5q61 0 103 41.5t54 106.5l50 299h105zM370 743h84l111 -150h-100l-62 84h-4l-90 -84h-99z" />
    <glyph glyph-name="udieresis" unicode="&#xfc;" horiz-adv-x="598" 
d="M533 0h-105l16 95h-6q-27 -44 -74.5 -74t-107.5 -30q-82 0 -120 48t-38 120q0 24 5 54l53 314h103l-51 -299q-4 -28 -4 -39q0 -52 28.5 -80.5t77.5 -28.5q61 0 103 41.5t54 106.5l50 299h105zM464.5 638q-14.5 15 -14.5 37q0 29 22.5 51.5t51.5 22.5q24 0 39 -15t15 -37
q0 -29 -23 -51.5t-53 -22.5q-23 0 -37.5 15zM249.5 638q-14.5 15 -14.5 37q0 29 22.5 51.5t51.5 22.5q24 0 39 -15t15 -37q0 -29 -23 -51.5t-53 -22.5q-23 0 -37.5 15z" />
    <glyph glyph-name="uni1EE5" unicode="&#x1ee5;" horiz-adv-x="598" 
d="M533 0h-105l16 95h-6q-27 -44 -74.5 -74t-107.5 -30q-82 0 -120 48t-38 120q0 24 5 54l53 314h103l-51 -299q-4 -28 -4 -39q0 -52 28.5 -80.5t77.5 -28.5q61 0 103 41.5t54 106.5l50 299h105zM213 -215.5q-14 14.5 -14 36.5q0 29 22 51t51 22q23 0 37.5 -15t14.5 -36
q0 -29 -22.5 -51t-51.5 -22q-23 0 -37 14.5z" />
    <glyph glyph-name="ugrave" unicode="&#xf9;" horiz-adv-x="598" 
d="M533 0h-105l16 95h-6q-27 -44 -74.5 -74t-107.5 -30q-82 0 -120 48t-38 120q0 24 5 54l53 314h103l-51 -299q-4 -28 -4 -39q0 -52 28.5 -80.5t77.5 -28.5q61 0 103 41.5t54 106.5l50 299h105zM252 784h107l68 -184h-82z" />
    <glyph glyph-name="uni1EE7" unicode="&#x1ee7;" horiz-adv-x="598" 
d="M533 0h-105l16 95h-6q-27 -44 -74.5 -74t-107.5 -30q-82 0 -120 48t-38 120q0 24 5 54l53 314h103l-51 -299q-4 -28 -4 -39q0 -52 28.5 -80.5t77.5 -28.5q61 0 103 41.5t54 106.5l50 299h105zM358 615.5q8 6.5 17.5 12.5t13.5 9q27 16 42 30.5t15 36.5q0 12 -8.5 20
t-25.5 8q-18 0 -29.5 -8.5t-16.5 -22.5h-76q10 37 43 64t88 27q47 0 72.5 -20.5t25.5 -54.5t-16 -53.5t-44 -37.5q-25 -15 -30 -26h-83q4 9 12 15.5z" />
    <glyph glyph-name="uhorn" unicode="&#x1b0;" horiz-adv-x="598" 
d="M749 624l-7 -42q-10 -58 -47 -82t-82 -24l-80 -476h-105l16 95h-6q-27 -44 -74.5 -74t-107.5 -30q-82 0 -120 48t-38 120q0 24 5 54l53 314h103l-51 -299q-4 -28 -4 -39q0 -52 28.5 -80.5t77.5 -28.5q61 0 103 41.5t54 106.5l50 299h81q29 0 44.5 12t23.5 54l5 31h78z
" />
    <glyph glyph-name="uni1EE9" unicode="&#x1ee9;" horiz-adv-x="598" 
d="M749 624l-7 -42q-10 -58 -47 -82t-82 -24l-80 -476h-105l16 95h-6q-27 -44 -74.5 -74t-107.5 -30q-82 0 -120 48t-38 120q0 24 5 54l53 314h103l-51 -299q-4 -28 -4 -39q0 -52 28.5 -80.5t77.5 -28.5q61 0 103 41.5t54 106.5l50 299h81q29 0 44.5 12t23.5 54l5 31h78z
M349 600l130 184h106l-154 -184h-82z" />
    <glyph glyph-name="uni1EF1" unicode="&#x1ef1;" horiz-adv-x="598" 
d="M185 -215.5q-14 14.5 -14 36.5q0 29 22 51t51 22q23 0 37.5 -15t14.5 -36q0 -29 -22.5 -51t-51.5 -22q-23 0 -37 14.5zM749 624l-7 -42q-10 -58 -47 -82t-82 -24l-80 -476h-105l16 95h-6q-27 -44 -74.5 -74t-107.5 -30q-82 0 -120 48t-38 120q0 24 5 54l53 314h103
l-51 -299q-4 -28 -4 -39q0 -52 28.5 -80.5t77.5 -28.5q61 0 103 41.5t54 106.5l50 299h81q29 0 44.5 12t23.5 54l5 31h78z" />
    <glyph glyph-name="uni1EEB" unicode="&#x1eeb;" horiz-adv-x="598" 
d="M223 784h107l68 -184h-82zM749 624l-7 -42q-10 -58 -47 -82t-82 -24l-80 -476h-105l16 95h-6q-27 -44 -74.5 -74t-107.5 -30q-82 0 -120 48t-38 120q0 24 5 54l53 314h103l-51 -299q-4 -28 -4 -39q0 -52 28.5 -80.5t77.5 -28.5q61 0 103 41.5t54 106.5l50 299h81
q29 0 44.5 12t23.5 54l5 31h78z" />
    <glyph glyph-name="uni1EED" unicode="&#x1eed;" horiz-adv-x="598" 
d="M749 624l-7 -42q-10 -58 -47 -82t-82 -24l-80 -476h-105l16 95h-6q-27 -44 -74.5 -74t-107.5 -30q-82 0 -120 48t-38 120q0 24 5 54l53 314h103l-51 -299q-4 -28 -4 -39q0 -52 28.5 -80.5t77.5 -28.5q61 0 103 41.5t54 106.5l50 299h81q29 0 44.5 12t23.5 54l5 31h78z
M358 615.5q8 6.5 17.5 12.5t13.5 9q27 16 42 30.5t15 36.5q0 12 -8.5 20t-25.5 8q-18 0 -29.5 -8.5t-16.5 -22.5h-76q10 37 43 64t88 27q47 0 72.5 -20.5t25.5 -54.5t-16 -53.5t-44 -37.5q-25 -15 -30 -26h-83q4 9 12 15.5z" />
    <glyph glyph-name="uni1EEF" unicode="&#x1eef;" horiz-adv-x="598" 
d="M749 624l-7 -42q-10 -58 -47 -82t-82 -24l-80 -476h-105l16 95h-6q-27 -44 -74.5 -74t-107.5 -30q-82 0 -120 48t-38 120q0 24 5 54l53 314h103l-51 -299q-4 -28 -4 -39q0 -52 28.5 -80.5t77.5 -28.5q61 0 103 41.5t54 106.5l50 299h81q29 0 44.5 12t23.5 54l5 31h78z
M267 703.5q30 32.5 81 32.5q19 0 34.5 -5.5t34.5 -15.5q17 -9 27.5 -13t21.5 -4q18 0 30 11t17 27h61q-9 -43 -38 -75t-81 -32q-19 0 -35.5 6t-35.5 16q-12 6 -24 11t-23 5q-32 0 -48 -39h-61q9 43 39 75.5z" />
    <glyph glyph-name="umacron" unicode="&#x16b;" horiz-adv-x="598" 
d="M533 0h-105l16 95h-6q-27 -44 -74.5 -74t-107.5 -30q-82 0 -120 48t-38 120q0 24 5 54l53 314h103l-51 -299q-4 -28 -4 -39q0 -52 28.5 -80.5t77.5 -28.5q61 0 103 41.5t54 106.5l50 299h105zM247 674h306l-8 -51h-307z" />
    <glyph glyph-name="uogonek" unicode="&#x173;" horiz-adv-x="598" 
d="M466 -98q12 -10 36 -10q11 0 38 6l-9 -58q-25 -6 -53 -6q-47 0 -72 21t-25 54q0 51 48 91h-1l16 95h-6q-27 -44 -74.5 -74t-107.5 -30q-82 0 -120 48t-38 120q0 24 5 54l53 314h103l-51 -299q-4 -28 -4 -39q0 -52 28.5 -80.5t77.5 -28.5q61 0 103 41.5t54 106.5l50 299
h105l-89 -527h-13q-31 -17 -48.5 -33.5t-17.5 -40.5q0 -14 12 -24z" />
    <glyph glyph-name="uring" unicode="&#x16f;" horiz-adv-x="598" 
d="M533 0h-105l16 95h-6q-27 -44 -74.5 -74t-107.5 -30q-82 0 -120 48t-38 120q0 24 5 54l53 314h103l-51 -299q-4 -28 -4 -39q0 -52 28.5 -80.5t77.5 -28.5q61 0 103 41.5t54 106.5l50 299h105zM334 630.5q-22 22.5 -22 54.5q0 27 15 51.5t40 39.5t52 15q34 0 56 -22
t22 -54q0 -27 -15.5 -52t-40.5 -40t-52 -15q-33 0 -55 22.5zM434.5 671q16.5 16 16.5 37q0 16 -11 26.5t-28 10.5q-21 0 -37 -16t-16 -37q0 -16 11 -26.5t27 -10.5q21 0 37.5 16z" />
    <glyph glyph-name="utilde" unicode="&#x169;" horiz-adv-x="598" 
d="M533 0h-105l16 95h-6q-27 -44 -74.5 -74t-107.5 -30q-82 0 -120 48t-38 120q0 24 5 54l53 314h103l-51 -299q-4 -28 -4 -39q0 -52 28.5 -80.5t77.5 -28.5q61 0 103 41.5t54 106.5l50 299h105zM267 703.5q30 32.5 81 32.5q19 0 34.5 -5.5t34.5 -15.5q17 -9 27.5 -13
t21.5 -4q18 0 30 11t17 27h61q-9 -43 -38 -75t-81 -32q-19 0 -35.5 6t-35.5 16q-12 6 -24 11t-23 5q-32 0 -48 -39h-61q9 43 39 75.5z" />
    <glyph glyph-name="v" unicode="v" horiz-adv-x="554" 
d="M117 527h99l76 -420h6l218 420h99l-275 -527h-127z" />
    <glyph glyph-name="w" unicode="w" horiz-adv-x="819" 
d="M118 527h97l38 -414h5l195 414h92l56 -414h5l176 414h98l-231 -527h-129l-44 363h-7l-168 -363h-129z" />
    <glyph glyph-name="wacute" unicode="&#x1e83;" horiz-adv-x="819" 
d="M118 527h97l38 -414h5l195 414h92l56 -414h5l176 414h98l-231 -527h-129l-44 363h-7l-168 -363h-129zM473 600l130 184h106l-154 -184h-82z" />
    <glyph glyph-name="wcircumflex" unicode="&#x175;" horiz-adv-x="819" 
d="M118 527h97l38 -414h5l195 414h92l56 -414h5l176 414h98l-231 -527h-129l-44 363h-7l-168 -363h-129zM494 743h84l111 -150h-100l-62 84h-4l-90 -84h-99z" />
    <glyph glyph-name="wdieresis" unicode="&#x1e85;" horiz-adv-x="819" 
d="M118 527h97l38 -414h5l195 414h92l56 -414h5l176 414h98l-231 -527h-129l-44 363h-7l-168 -363h-129zM588.5 638q-14.5 15 -14.5 37q0 29 22.5 51.5t51.5 22.5q24 0 39 -15t15 -37q0 -29 -23 -51.5t-53 -22.5q-23 0 -37.5 15zM373.5 638q-14.5 15 -14.5 37
q0 29 22.5 51.5t51.5 22.5q24 0 39 -15t15 -37q0 -29 -23 -51.5t-53 -22.5q-23 0 -37.5 15z" />
    <glyph glyph-name="wgrave" unicode="&#x1e81;" horiz-adv-x="819" 
d="M118 527h97l38 -414h5l195 414h92l56 -414h5l176 414h98l-231 -527h-129l-44 363h-7l-168 -363h-129zM376 784h107l68 -184h-82z" />
    <glyph glyph-name="x" unicode="x" horiz-adv-x="562" 
d="M246 264l-126 263h116l88 -203h3l158 203h115l-214 -263l124 -264h-115l-87 202h-3l-157 -202h-116z" />
    <glyph glyph-name="y" unicode="y" horiz-adv-x="501" 
d="M209.5 -138q-18.5 -25 -58 -48.5t-96.5 -23.5q-30 0 -62 8l12 75q22 -4 42 -4q32 0 54 11.5t37.5 31.5t35.5 56l31 53l-108 506h107l69 -391h6l209 391h107l-343 -601q-24 -39 -42.5 -64z" />
    <glyph glyph-name="yacute" unicode="&#xfd;" horiz-adv-x="501" 
d="M209.5 -138q-18.5 -25 -58 -48.5t-96.5 -23.5q-30 0 -62 8l12 75q22 -4 42 -4q32 0 54 11.5t37.5 31.5t35.5 56l31 53l-108 506h107l69 -391h6l209 391h107l-343 -601q-24 -39 -42.5 -64zM316 600l130 184h106l-154 -184h-82z" />
    <glyph glyph-name="ycircumflex" unicode="&#x177;" horiz-adv-x="501" 
d="M209.5 -138q-18.5 -25 -58 -48.5t-96.5 -23.5q-30 0 -62 8l12 75q22 -4 42 -4q32 0 54 11.5t37.5 31.5t35.5 56l31 53l-108 506h107l69 -391h6l209 391h107l-343 -601q-24 -39 -42.5 -64zM337 743h84l111 -150h-100l-62 84h-4l-90 -84h-99z" />
    <glyph glyph-name="ydieresis" unicode="&#xff;" horiz-adv-x="501" 
d="M209.5 -138q-18.5 -25 -58 -48.5t-96.5 -23.5q-30 0 -62 8l12 75q22 -4 42 -4q32 0 54 11.5t37.5 31.5t35.5 56l31 53l-108 506h107l69 -391h6l209 391h107l-343 -601q-24 -39 -42.5 -64zM431.5 638q-14.5 15 -14.5 37q0 29 22.5 51.5t51.5 22.5q24 0 39 -15t15 -37
q0 -29 -23 -51.5t-53 -22.5q-23 0 -37.5 15zM216.5 638q-14.5 15 -14.5 37q0 29 22.5 51.5t51.5 22.5q24 0 39 -15t15 -37q0 -29 -23 -51.5t-53 -22.5q-23 0 -37.5 15z" />
    <glyph glyph-name="uni1EF5" unicode="&#x1ef5;" horiz-adv-x="501" 
d="M209.5 -138q-18.5 -25 -58 -48.5t-96.5 -23.5q-30 0 -62 8l12 75q22 -4 42 -4q32 0 54 11.5t37.5 31.5t35.5 56l31 53l-108 506h107l69 -391h6l209 391h107l-343 -601q-24 -39 -42.5 -64zM332 -215.5q-14 14.5 -14 36.5q0 29 22 51t51 22q23 0 37.5 -15t14.5 -36
q0 -29 -22.5 -51t-51.5 -22q-23 0 -37 14.5z" />
    <glyph glyph-name="ygrave" unicode="&#x1ef3;" horiz-adv-x="501" 
d="M209.5 -138q-18.5 -25 -58 -48.5t-96.5 -23.5q-30 0 -62 8l12 75q22 -4 42 -4q32 0 54 11.5t37.5 31.5t35.5 56l31 53l-108 506h107l69 -391h6l209 391h107l-343 -601q-24 -39 -42.5 -64zM219 784h107l68 -184h-82z" />
    <glyph glyph-name="uni1EF7" unicode="&#x1ef7;" horiz-adv-x="501" 
d="M209.5 -138q-18.5 -25 -58 -48.5t-96.5 -23.5q-30 0 -62 8l12 75q22 -4 42 -4q32 0 54 11.5t37.5 31.5t35.5 56l31 53l-108 506h107l69 -391h6l209 391h107l-343 -601q-24 -39 -42.5 -64zM325 615.5q8 6.5 17.5 12.5t13.5 9q27 16 42 30.5t15 36.5q0 12 -8.5 20t-25.5 8
q-18 0 -29.5 -8.5t-16.5 -22.5h-76q10 37 43 64t88 27q47 0 72.5 -20.5t25.5 -54.5t-16 -53.5t-44 -37.5q-25 -15 -30 -26h-83q4 9 12 15.5z" />
    <glyph glyph-name="uni1EF9" unicode="&#x1ef9;" horiz-adv-x="501" 
d="M209.5 -138q-18.5 -25 -58 -48.5t-96.5 -23.5q-30 0 -62 8l12 75q22 -4 42 -4q32 0 54 11.5t37.5 31.5t35.5 56l31 53l-108 506h107l69 -391h6l209 391h107l-343 -601q-24 -39 -42.5 -64zM234 703.5q30 32.5 81 32.5q19 0 34.5 -5.5t34.5 -15.5q17 -9 27.5 -13t21.5 -4
q18 0 30 11t17 27h61q-9 -43 -38 -75t-81 -32q-19 0 -35.5 6t-35.5 16q-12 6 -24 11t-23 5q-32 0 -48 -39h-61q9 43 39 75.5z" />
    <glyph glyph-name="z" unicode="z" horiz-adv-x="498" 
d="M65 83l351 359l1 2h-275l14 85h388l-14 -83l-351 -359v-3h289l-13 -84h-403z" />
    <glyph glyph-name="zacute" unicode="&#x17a;" horiz-adv-x="498" 
d="M65 83l351 359l1 2h-275l14 85h388l-14 -83l-351 -359v-3h289l-13 -84h-403zM318 600l130 184h106l-154 -184h-82z" />
    <glyph glyph-name="zcaron" unicode="&#x17e;" horiz-adv-x="498" 
d="M65 83l351 359l1 2h-275l14 85h388l-14 -83l-351 -359v-3h289l-13 -84h-403zM303 743l61 -84h4l91 84h99l-160 -150h-84l-110 150h99z" />
    <glyph glyph-name="zdotaccent" unicode="&#x17c;" horiz-adv-x="498" 
d="M65 83l351 359l1 2h-275l14 85h388l-14 -83l-351 -359v-3h289l-13 -84h-403zM321.5 638q-14.5 15 -14.5 37q0 29 22.5 51.5t51.5 22.5q24 0 39 -15t15 -37q0 -29 -23 -51.5t-53 -22.5q-23 0 -37.5 15z" />
    <glyph glyph-name="a.ss01" horiz-adv-x="563" 
d="M108.5 27q-40.5 34 -40.5 92q0 85 62 134t171 49h148l7 45q2 16 2 25q0 38 -22.5 63.5t-78.5 25.5q-59 0 -94.5 -28.5t-35.5 -74.5v-2h-94v2q0 49 29.5 91t84 67t124.5 25q98 0 143.5 -42.5t45.5 -111.5q0 -20 -3 -40l-58 -347h-101l14 84h-8q-21 -30 -67.5 -60.5
t-117.5 -30.5q-70 0 -110.5 34zM344.5 89q35.5 18 58 46.5t27.5 60.5l7 40h-136q-52 0 -90 -20.5t-38 -74.5q0 -33 24.5 -51.5t67.5 -18.5q44 0 79.5 18z" />
    <glyph glyph-name="aacute.ss01" horiz-adv-x="563" 
d="M108.5 27q-40.5 34 -40.5 92q0 85 62 134t171 49h148l7 45q2 16 2 25q0 38 -22.5 63.5t-78.5 25.5q-59 0 -94.5 -28.5t-35.5 -74.5v-2h-94v2q0 49 29.5 91t84 67t124.5 25q98 0 143.5 -42.5t45.5 -111.5q0 -20 -3 -40l-58 -347h-101l14 84h-8q-21 -30 -67.5 -60.5
t-117.5 -30.5q-70 0 -110.5 34zM344.5 89q35.5 18 58 46.5t27.5 60.5l7 40h-136q-52 0 -90 -20.5t-38 -74.5q0 -33 24.5 -51.5t67.5 -18.5q44 0 79.5 18zM349 609l130 184h106l-154 -184h-82z" />
    <glyph glyph-name="abreve.ss01" horiz-adv-x="563" 
d="M108.5 27q-40.5 34 -40.5 92q0 85 62 134t171 49h148l7 45q2 16 2 25q0 38 -22.5 63.5t-78.5 25.5q-59 0 -94.5 -28.5t-35.5 -74.5v-2h-94v2q0 49 29.5 91t84 67t124.5 25q98 0 143.5 -42.5t45.5 -111.5q0 -20 -3 -40l-58 -347h-101l14 84h-8q-21 -30 -67.5 -60.5
t-117.5 -30.5q-70 0 -110.5 34zM344.5 89q35.5 18 58 46.5t27.5 60.5l7 40h-136q-52 0 -90 -20.5t-38 -74.5q0 -33 24.5 -51.5t67.5 -18.5q44 0 79.5 18zM291 642.5q-38 27.5 -59 83.5h88q18 -50 79 -50t95 50h88q-40 -56 -86.5 -83.5t-106.5 -27.5t-98 27.5z" />
    <glyph glyph-name="uni1EAF.ss01" horiz-adv-x="563" 
d="M108.5 27q-40.5 34 -40.5 92q0 85 62 134t171 49h148l7 45q2 16 2 25q0 38 -22.5 63.5t-78.5 25.5q-59 0 -94.5 -28.5t-35.5 -74.5v-2h-94v2q0 49 29.5 91t84 67t124.5 25q98 0 143.5 -42.5t45.5 -111.5q0 -20 -3 -40l-58 -347h-101l14 84h-8q-21 -30 -67.5 -60.5
t-117.5 -30.5q-70 0 -110.5 34zM344.5 89q35.5 18 58 46.5t27.5 60.5l7 40h-136q-52 0 -90 -20.5t-38 -74.5q0 -33 24.5 -51.5t67.5 -18.5q44 0 79.5 18zM291 642.5q-38 27.5 -59 83.5h88q18 -50 79 -50t95 50h88q-40 -56 -86.5 -83.5t-106.5 -27.5t-98 27.5zM374 759
l130 184h106l-154 -184h-82z" />
    <glyph glyph-name="uni1EB7.ss01" horiz-adv-x="563" 
d="M108.5 27q-40.5 34 -40.5 92q0 85 62 134t171 49h148l7 45q2 16 2 25q0 38 -22.5 63.5t-78.5 25.5q-59 0 -94.5 -28.5t-35.5 -74.5v-2h-94v2q0 49 29.5 91t84 67t124.5 25q98 0 143.5 -42.5t45.5 -111.5q0 -20 -3 -40l-58 -347h-101l14 84h-8q-21 -30 -67.5 -60.5
t-117.5 -30.5q-70 0 -110.5 34zM344.5 89q35.5 18 58 46.5t27.5 60.5l7 40h-136q-52 0 -90 -20.5t-38 -74.5q0 -33 24.5 -51.5t67.5 -18.5q44 0 79.5 18zM291 642.5q-38 27.5 -59 83.5h88q18 -50 79 -50t95 50h88q-40 -56 -86.5 -83.5t-106.5 -27.5t-98 27.5zM210 -215.5
q-14 14.5 -14 36.5q0 29 22 51t51 22q23 0 37.5 -15t14.5 -36q0 -29 -22.5 -51t-51.5 -22q-23 0 -37 14.5z" />
    <glyph glyph-name="uni1EB1.ss01" horiz-adv-x="563" 
d="M108.5 27q-40.5 34 -40.5 92q0 85 62 134t171 49h148l7 45q2 16 2 25q0 38 -22.5 63.5t-78.5 25.5q-59 0 -94.5 -28.5t-35.5 -74.5v-2h-94v2q0 49 29.5 91t84 67t124.5 25q98 0 143.5 -42.5t45.5 -111.5q0 -20 -3 -40l-58 -347h-101l14 84h-8q-21 -30 -67.5 -60.5
t-117.5 -30.5q-70 0 -110.5 34zM344.5 89q35.5 18 58 46.5t27.5 60.5l7 40h-136q-52 0 -90 -20.5t-38 -74.5q0 -33 24.5 -51.5t67.5 -18.5q44 0 79.5 18zM295 642.5q-38 27.5 -59 83.5h88q18 -50 79 -50t95 50h88q-40 -56 -86.5 -83.5t-106.5 -27.5t-98 27.5zM280 943h107
l68 -184h-82z" />
    <glyph glyph-name="uni1EB3.ss01" horiz-adv-x="563" 
d="M108.5 27q-40.5 34 -40.5 92q0 85 62 134t171 49h148l7 45q2 16 2 25q0 38 -22.5 63.5t-78.5 25.5q-59 0 -94.5 -28.5t-35.5 -74.5v-2h-94v2q0 49 29.5 91t84 67t124.5 25q98 0 143.5 -42.5t45.5 -111.5q0 -20 -3 -40l-58 -347h-101l14 84h-8q-21 -30 -67.5 -60.5
t-117.5 -30.5q-70 0 -110.5 34zM344.5 89q35.5 18 58 46.5t27.5 60.5l7 40h-136q-52 0 -90 -20.5t-38 -74.5q0 -33 24.5 -51.5t67.5 -18.5q44 0 79.5 18zM291 642.5q-38 27.5 -59 83.5h88q18 -50 79 -50t95 50h88q-40 -56 -86.5 -83.5t-106.5 -27.5t-98 27.5zM383 774.5
q8 6.5 17.5 12.5t13.5 9q27 16 42 30.5t15 36.5q0 12 -8.5 20t-25.5 8q-18 0 -29.5 -8.5t-16.5 -22.5h-76q10 37 43 64t88 27q47 0 72.5 -20.5t25.5 -54.5t-16 -53.5t-44 -37.5q-25 -15 -30 -26h-83q4 9 12 15.5z" />
    <glyph glyph-name="uni1EB5.ss01" horiz-adv-x="563" 
d="M108.5 27q-40.5 34 -40.5 92q0 85 62 134t171 49h148l7 45q2 16 2 25q0 38 -22.5 63.5t-78.5 25.5q-59 0 -94.5 -28.5t-35.5 -74.5v-2h-94v2q0 49 29.5 91t84 67t124.5 25q98 0 143.5 -42.5t45.5 -111.5q0 -20 -3 -40l-58 -347h-101l14 84h-8q-21 -30 -67.5 -60.5
t-117.5 -30.5q-70 0 -110.5 34zM344.5 89q35.5 18 58 46.5t27.5 60.5l7 40h-136q-52 0 -90 -20.5t-38 -74.5q0 -33 24.5 -51.5t67.5 -18.5q44 0 79.5 18zM290 642.5q-38 27.5 -59 83.5h88q18 -50 79 -50t95 50h88q-40 -56 -86.5 -83.5t-106.5 -27.5t-98 27.5zM292 862.5
q30 32.5 81 32.5q19 0 34.5 -5.5t34.5 -15.5q17 -9 27.5 -13t21.5 -4q18 0 30 11t17 27h61q-9 -43 -38 -75t-81 -32q-19 0 -35.5 6t-35.5 16q-12 6 -24 11t-23 5q-32 0 -48 -39h-61q9 43 39 75.5z" />
    <glyph glyph-name="acircumflex.ss01" horiz-adv-x="563" 
d="M108.5 27q-40.5 34 -40.5 92q0 85 62 134t171 49h148l7 45q2 16 2 25q0 38 -22.5 63.5t-78.5 25.5q-59 0 -94.5 -28.5t-35.5 -74.5v-2h-94v2q0 49 29.5 91t84 67t124.5 25q98 0 143.5 -42.5t45.5 -111.5q0 -20 -3 -40l-58 -347h-101l14 84h-8q-21 -30 -67.5 -60.5
t-117.5 -30.5q-70 0 -110.5 34zM344.5 89q35.5 18 58 46.5t27.5 60.5l7 40h-136q-52 0 -90 -20.5t-38 -74.5q0 -33 24.5 -51.5t67.5 -18.5q44 0 79.5 18zM370 752h84l111 -150h-100l-62 84h-4l-90 -84h-99z" />
    <glyph glyph-name="uni1EA5.ss01" horiz-adv-x="563" 
d="M108.5 27q-40.5 34 -40.5 92q0 85 62 134t171 49h148l7 45q2 16 2 25q0 38 -22.5 63.5t-78.5 25.5q-59 0 -94.5 -28.5t-35.5 -74.5v-2h-94v2q0 49 29.5 91t84 67t124.5 25q98 0 143.5 -42.5t45.5 -111.5q0 -20 -3 -40l-58 -347h-101l14 84h-8q-21 -30 -67.5 -60.5
t-117.5 -30.5q-70 0 -110.5 34zM344.5 89q35.5 18 58 46.5t27.5 60.5l7 40h-136q-52 0 -90 -20.5t-38 -74.5q0 -33 24.5 -51.5t67.5 -18.5q44 0 79.5 18zM370 752h84l111 -150h-100l-62 84h-4l-90 -84h-99zM524 728l130 184h106l-154 -184h-82z" />
    <glyph glyph-name="uni1EAD.ss01" horiz-adv-x="563" 
d="M108.5 27q-40.5 34 -40.5 92q0 85 62 134t171 49h148l7 45q2 16 2 25q0 38 -22.5 63.5t-78.5 25.5q-59 0 -94.5 -28.5t-35.5 -74.5v-2h-94v2q0 49 29.5 91t84 67t124.5 25q98 0 143.5 -42.5t45.5 -111.5q0 -20 -3 -40l-58 -347h-101l14 84h-8q-21 -30 -67.5 -60.5
t-117.5 -30.5q-70 0 -110.5 34zM344.5 89q35.5 18 58 46.5t27.5 60.5l7 40h-136q-52 0 -90 -20.5t-38 -74.5q0 -33 24.5 -51.5t67.5 -18.5q44 0 79.5 18zM370 752h84l111 -150h-100l-62 84h-4l-90 -84h-99zM210 -215.5q-14 14.5 -14 36.5q0 29 22 51t51 22q23 0 37.5 -15
t14.5 -36q0 -29 -22.5 -51t-51.5 -22q-23 0 -37 14.5z" />
    <glyph glyph-name="uni1EA7.ss01" horiz-adv-x="563" 
d="M108.5 27q-40.5 34 -40.5 92q0 85 62 134t171 49h148l7 45q2 16 2 25q0 38 -22.5 63.5t-78.5 25.5q-59 0 -94.5 -28.5t-35.5 -74.5v-2h-94v2q0 49 29.5 91t84 67t124.5 25q98 0 143.5 -42.5t45.5 -111.5q0 -20 -3 -40l-58 -347h-101l14 84h-8q-21 -30 -67.5 -60.5
t-117.5 -30.5q-70 0 -110.5 34zM344.5 89q35.5 18 58 46.5t27.5 60.5l7 40h-136q-52 0 -90 -20.5t-38 -74.5q0 -33 24.5 -51.5t67.5 -18.5q44 0 79.5 18zM370 752h84l111 -150h-100l-62 84h-4l-90 -84h-99zM438 912h107l68 -184h-82z" />
    <glyph glyph-name="uni1EA9.ss01" horiz-adv-x="563" 
d="M108.5 27q-40.5 34 -40.5 92q0 85 62 134t171 49h148l7 45q2 16 2 25q0 38 -22.5 63.5t-78.5 25.5q-59 0 -94.5 -28.5t-35.5 -74.5v-2h-94v2q0 49 29.5 91t84 67t124.5 25q98 0 143.5 -42.5t45.5 -111.5q0 -20 -3 -40l-58 -347h-101l14 84h-8q-21 -30 -67.5 -60.5
t-117.5 -30.5q-70 0 -110.5 34zM344.5 89q35.5 18 58 46.5t27.5 60.5l7 40h-136q-52 0 -90 -20.5t-38 -74.5q0 -33 24.5 -51.5t67.5 -18.5q44 0 79.5 18zM369 752h84l111 -150h-100l-62 84h-4l-90 -84h-99zM534 750.5q8 6.5 17.5 12.5t13.5 9q27 16 42 30.5t15 36.5
q0 12 -8.5 20t-25.5 8q-18 0 -29.5 -8.5t-16.5 -22.5h-76q10 37 43 64t88 27q47 0 72.5 -20.5t25.5 -54.5t-16 -53.5t-44 -37.5q-25 -15 -30 -26h-83q4 9 12 15.5z" />
    <glyph glyph-name="uni1EAB.ss01" horiz-adv-x="563" 
d="M108.5 27q-40.5 34 -40.5 92q0 85 62 134t171 49h148l7 45q2 16 2 25q0 38 -22.5 63.5t-78.5 25.5q-59 0 -94.5 -28.5t-35.5 -74.5v-2h-94v2q0 49 29.5 91t84 67t124.5 25q98 0 143.5 -42.5t45.5 -111.5q0 -20 -3 -40l-58 -347h-101l14 84h-8q-21 -30 -67.5 -60.5
t-117.5 -30.5q-70 0 -110.5 34zM344.5 89q35.5 18 58 46.5t27.5 60.5l7 40h-136q-52 0 -90 -20.5t-38 -74.5q0 -33 24.5 -51.5t67.5 -18.5q44 0 79.5 18zM369 752h84l111 -150h-100l-62 84h-4l-90 -84h-99zM282 875.5q30 32.5 81 32.5q19 0 34.5 -5.5t34.5 -15.5
q17 -9 27.5 -13t21.5 -4q18 0 30 11t17 27h61q-9 -43 -38 -75t-81 -32q-19 0 -35.5 6t-35.5 16q-12 6 -24 11t-23 5q-32 0 -48 -39h-61q9 43 39 75.5z" />
    <glyph glyph-name="adieresis.ss01" horiz-adv-x="563" 
d="M108.5 27q-40.5 34 -40.5 92q0 85 62 134t171 49h148l7 45q2 16 2 25q0 38 -22.5 63.5t-78.5 25.5q-59 0 -94.5 -28.5t-35.5 -74.5v-2h-94v2q0 49 29.5 91t84 67t124.5 25q98 0 143.5 -42.5t45.5 -111.5q0 -20 -3 -40l-58 -347h-101l14 84h-8q-21 -30 -67.5 -60.5
t-117.5 -30.5q-70 0 -110.5 34zM344.5 89q35.5 18 58 46.5t27.5 60.5l7 40h-136q-52 0 -90 -20.5t-38 -74.5q0 -33 24.5 -51.5t67.5 -18.5q44 0 79.5 18zM464.5 647q-14.5 15 -14.5 37q0 29 22.5 51.5t51.5 22.5q24 0 39 -15t15 -37q0 -29 -23 -51.5t-53 -22.5
q-23 0 -37.5 15zM249.5 647q-14.5 15 -14.5 37q0 29 22.5 51.5t51.5 22.5q24 0 39 -15t15 -37q0 -29 -23 -51.5t-53 -22.5q-23 0 -37.5 15z" />
    <glyph glyph-name="uni1EA1.ss01" horiz-adv-x="563" 
d="M108.5 27q-40.5 34 -40.5 92q0 85 62 134t171 49h148l7 45q2 16 2 25q0 38 -22.5 63.5t-78.5 25.5q-59 0 -94.5 -28.5t-35.5 -74.5v-2h-94v2q0 49 29.5 91t84 67t124.5 25q98 0 143.5 -42.5t45.5 -111.5q0 -20 -3 -40l-58 -347h-101l14 84h-8q-21 -30 -67.5 -60.5
t-117.5 -30.5q-70 0 -110.5 34zM344.5 89q35.5 18 58 46.5t27.5 60.5l7 40h-136q-52 0 -90 -20.5t-38 -74.5q0 -33 24.5 -51.5t67.5 -18.5q44 0 79.5 18zM210 -215.5q-14 14.5 -14 36.5q0 29 22 51t51 22q23 0 37.5 -15t14.5 -36q0 -29 -22.5 -51t-51.5 -22q-23 0 -37 14.5z
" />
    <glyph glyph-name="agrave.ss01" horiz-adv-x="563" 
d="M108.5 27q-40.5 34 -40.5 92q0 85 62 134t171 49h148l7 45q2 16 2 25q0 38 -22.5 63.5t-78.5 25.5q-59 0 -94.5 -28.5t-35.5 -74.5v-2h-94v2q0 49 29.5 91t84 67t124.5 25q98 0 143.5 -42.5t45.5 -111.5q0 -20 -3 -40l-58 -347h-101l14 84h-8q-21 -30 -67.5 -60.5
t-117.5 -30.5q-70 0 -110.5 34zM344.5 89q35.5 18 58 46.5t27.5 60.5l7 40h-136q-52 0 -90 -20.5t-38 -74.5q0 -33 24.5 -51.5t67.5 -18.5q44 0 79.5 18zM252 793h107l68 -184h-82z" />
    <glyph glyph-name="uni1EA3.ss01" horiz-adv-x="563" 
d="M108.5 27q-40.5 34 -40.5 92q0 85 62 134t171 49h148l7 45q2 16 2 25q0 38 -22.5 63.5t-78.5 25.5q-59 0 -94.5 -28.5t-35.5 -74.5v-2h-94v2q0 49 29.5 91t84 67t124.5 25q98 0 143.5 -42.5t45.5 -111.5q0 -20 -3 -40l-58 -347h-101l14 84h-8q-21 -30 -67.5 -60.5
t-117.5 -30.5q-70 0 -110.5 34zM344.5 89q35.5 18 58 46.5t27.5 60.5l7 40h-136q-52 0 -90 -20.5t-38 -74.5q0 -33 24.5 -51.5t67.5 -18.5q44 0 79.5 18zM358 624.5q8 6.5 17.5 12.5t13.5 9q27 16 42 30.5t15 36.5q0 12 -8.5 20t-25.5 8q-18 0 -29.5 -8.5t-16.5 -22.5h-76
q10 37 43 64t88 27q47 0 72.5 -20.5t25.5 -54.5t-16 -53.5t-44 -37.5q-25 -15 -30 -26h-83q4 9 12 15.5z" />
    <glyph glyph-name="amacron.ss01" horiz-adv-x="563" 
d="M108.5 27q-40.5 34 -40.5 92q0 85 62 134t171 49h148l7 45q2 16 2 25q0 38 -22.5 63.5t-78.5 25.5q-59 0 -94.5 -28.5t-35.5 -74.5v-2h-94v2q0 49 29.5 91t84 67t124.5 25q98 0 143.5 -42.5t45.5 -111.5q0 -20 -3 -40l-58 -347h-101l14 84h-8q-21 -30 -67.5 -60.5
t-117.5 -30.5q-70 0 -110.5 34zM344.5 89q35.5 18 58 46.5t27.5 60.5l7 40h-136q-52 0 -90 -20.5t-38 -74.5q0 -33 24.5 -51.5t67.5 -18.5q44 0 79.5 18zM247 683h306l-8 -51h-307z" />
    <glyph glyph-name="aring.ss01" horiz-adv-x="563" 
d="M108.5 27q-40.5 34 -40.5 92q0 85 62 134t171 49h148l7 45q2 16 2 25q0 38 -22.5 63.5t-78.5 25.5q-59 0 -94.5 -28.5t-35.5 -74.5v-2h-94v2q0 49 29.5 91t84 67t124.5 25q98 0 143.5 -42.5t45.5 -111.5q0 -20 -3 -40l-58 -347h-101l14 84h-8q-21 -30 -67.5 -60.5
t-117.5 -30.5q-70 0 -110.5 34zM344.5 89q35.5 18 58 46.5t27.5 60.5l7 40h-136q-52 0 -90 -20.5t-38 -74.5q0 -33 24.5 -51.5t67.5 -18.5q44 0 79.5 18zM334 639.5q-22 22.5 -22 54.5q0 27 15 51.5t40 39.5t52 15q34 0 56 -22t22 -54q0 -27 -15.5 -52t-40.5 -40t-52 -15
q-33 0 -55 22.5zM434.5 680q16.5 16 16.5 37q0 16 -11 26.5t-28 10.5q-21 0 -37 -16t-16 -37q0 -16 11 -26.5t27 -10.5q21 0 37.5 16z" />
    <glyph glyph-name="atilde.ss01" horiz-adv-x="563" 
d="M108.5 27q-40.5 34 -40.5 92q0 85 62 134t171 49h148l7 45q2 16 2 25q0 38 -22.5 63.5t-78.5 25.5q-59 0 -94.5 -28.5t-35.5 -74.5v-2h-94v2q0 49 29.5 91t84 67t124.5 25q98 0 143.5 -42.5t45.5 -111.5q0 -20 -3 -40l-58 -347h-101l14 84h-8q-21 -30 -67.5 -60.5
t-117.5 -30.5q-70 0 -110.5 34zM344.5 89q35.5 18 58 46.5t27.5 60.5l7 40h-136q-52 0 -90 -20.5t-38 -74.5q0 -33 24.5 -51.5t67.5 -18.5q44 0 79.5 18zM267 712.5q30 32.5 81 32.5q19 0 34.5 -5.5t34.5 -15.5q17 -9 27.5 -13t21.5 -4q18 0 30 11t17 27h61q-9 -43 -38 -75
t-81 -32q-19 0 -35.5 6t-35.5 16q-12 6 -24 11t-23 5q-32 0 -48 -39h-61q9 43 39 75.5z" />
    <glyph glyph-name="ae.ss01" horiz-adv-x="928" 
d="M872 491q54 -50 54 -151q0 -31 -6 -67l-5 -36h-379l-3 -16q-2 -16 -2 -24q0 -53 30.5 -86t88.5 -33q55 0 94 28t58 77h101q-28 -82 -97 -136t-169 -54q-67 0 -115 27.5t-71 76.5q-35 -49 -93 -76.5t-123 -27.5q-74 0 -119 34t-45 95q0 93 71.5 137t183.5 44h120l7 37
q2 14 2 23q0 38 -22 65.5t-78 27.5q-52 0 -87 -25.5t-48 -63.5h-97q22 70 83 120.5t163 50.5q62 0 102.5 -20t61.5 -54q38 37 88 57t107 20q90 0 144 -50zM829 339q0 53 -30 85.5t-84 32.5q-63 0 -109.5 -40t-55.5 -103l-2 -11h277l2 11q2 18 2 25zM344.5 89
q35.5 18 57 46.5t26.5 60.5l7 41h-115q-56 0 -100.5 -20t-44.5 -78q0 -33 24 -50.5t66 -17.5q44 0 79.5 18z" />
    <glyph glyph-name="b.ss01" horiz-adv-x="617" 
d="M248 25.5q-37 32.5 -50 75.5h-8l-17 -101h-105l127 750h104l-53 -314h7q27 42 74 73.5t116 31.5q83 0 134 -51t51 -133q0 -24 -4 -45l-15 -92q-11 -65 -48 -116.5t-91.5 -81t-116.5 -29.5q-68 0 -105 32.5zM446.5 122q47.5 43 58.5 110l12 68q3 18 3 33q0 54 -33 87.5
t-90 33.5q-66 0 -113.5 -43.5t-59.5 -110.5l-12 -68q-3 -16 -3 -32q0 -54 33 -87.5t90 -33.5q67 0 114.5 43z" />
    <glyph glyph-name="c.ss01" horiz-adv-x="568" 
d="M178.5 18q-46.5 25 -71 68.5t-24.5 99.5q0 25 4 46l12 68q12 67 50.5 122t99 87t134.5 32q99 0 149.5 -54t50.5 -134l-1 -19h-98q2 53 -26.5 86.5t-88.5 33.5q-67 0 -113 -45t-58 -113l-11 -59q-3 -18 -3 -34q0 -55 31.5 -89.5t89.5 -34.5q59 0 99.5 33t56.5 87h98
q-15 -56 -50.5 -102.5t-91.5 -75t-127 -28.5q-65 0 -111.5 25z" />
    <glyph glyph-name="cacute.ss01" horiz-adv-x="568" 
d="M178.5 18q-46.5 25 -71 68.5t-24.5 99.5q0 25 4 46l12 68q12 67 50.5 122t99 87t134.5 32q99 0 149.5 -54t50.5 -134l-1 -19h-98q2 53 -26.5 86.5t-88.5 33.5q-67 0 -113 -45t-58 -113l-11 -59q-3 -18 -3 -34q0 -55 31.5 -89.5t89.5 -34.5q59 0 99.5 33t56.5 87h98
q-15 -56 -50.5 -102.5t-91.5 -75t-127 -28.5q-65 0 -111.5 25zM354 600l130 184h106l-154 -184h-82z" />
    <glyph glyph-name="ccaron.ss01" horiz-adv-x="568" 
d="M178.5 18q-46.5 25 -71 68.5t-24.5 99.5q0 25 4 46l12 68q12 67 50.5 122t99 87t134.5 32q99 0 149.5 -54t50.5 -134l-1 -19h-98q2 53 -26.5 86.5t-88.5 33.5q-67 0 -113 -45t-58 -113l-11 -59q-3 -18 -3 -34q0 -55 31.5 -89.5t89.5 -34.5q59 0 99.5 33t56.5 87h98
q-15 -56 -50.5 -102.5t-91.5 -75t-127 -28.5q-65 0 -111.5 25zM339 743l61 -84h4l91 84h99l-160 -150h-84l-110 150h99z" />
    <glyph glyph-name="ccedilla.ss01" horiz-adv-x="568" 
d="M484 334q2 53 -26.5 86.5t-88.5 33.5q-67 0 -113 -45t-58 -113l-11 -59q-3 -18 -3 -34q0 -55 31.5 -89.5t89.5 -34.5q59 0 99.5 33t56.5 87h98q-21 -80 -83 -137.5t-154 -66.5l-23 -45h23q41 0 62.5 -20.5t21.5 -52.5q0 -33 -18 -61.5t-50 -45t-71 -16.5q-34 0 -60 11
l10 56q32 -8 60 -8q34 0 54 15.5t20 40.5q0 18 -14 25t-31 7h-85l1 3l42 90q-86 7 -133.5 60t-47.5 132q0 25 4 46l12 68q12 67 50.5 122t99 87t134.5 32q99 0 149.5 -54t50.5 -134l-1 -19h-98z" />
    <glyph glyph-name="cdotaccent.ss01" horiz-adv-x="568" 
d="M178.5 18q-46.5 25 -71 68.5t-24.5 99.5q0 25 4 46l12 68q12 67 50.5 122t99 87t134.5 32q99 0 149.5 -54t50.5 -134l-1 -19h-98q2 53 -26.5 86.5t-88.5 33.5q-67 0 -113 -45t-58 -113l-11 -59q-3 -18 -3 -34q0 -55 31.5 -89.5t89.5 -34.5q59 0 99.5 33t56.5 87h98
q-15 -56 -50.5 -102.5t-91.5 -75t-127 -28.5q-65 0 -111.5 25zM357.5 638q-14.5 15 -14.5 37q0 29 22.5 51.5t51.5 22.5q24 0 39 -15t15 -37q0 -29 -23 -51.5t-53 -22.5q-23 0 -37.5 15z" />
    <glyph glyph-name="d.ss01" horiz-adv-x="617" 
d="M129 43.5q-50 50.5 -50 132.5q0 24 4 44l15 92q11 66 48.5 118t93 81.5t117.5 29.5q69 0 105 -32t49 -73h7l53 314h104l-126 -750h-104l17 101h-7q-30 -44 -77 -76t-116 -32q-83 0 -133 50.5zM424.5 122q47.5 43 58.5 110l12 68q3 18 3 33q0 54 -33 87.5t-90 33.5
q-67 0 -114.5 -43.5t-58.5 -110.5l-12 -68q-3 -18 -3 -33q0 -54 33 -87t91 -33q66 0 113.5 43z" />
    <glyph glyph-name="eth.ss01" horiz-adv-x="618" 
d="M180.5 18.5q-48.5 25.5 -73.5 70.5t-25 101q0 24 4 44l13 78q11 65 48.5 117.5t93 82t117.5 29.5q69 0 105 -32t49 -73h14l3 20q2 70 -8 116.5t-32 73.5l-97 -51l-22 53l77 40q-27 18 -56.5 25t-50.5 7l13 79q41 0 93 -13.5t96 -47.5l100 53l22 -53l-82 -43
q50 -64 50 -162q0 -35 -8 -83l-34 -204q-12 -69 -51.5 -126.5t-102 -92t-139.5 -34.5q-68 0 -116.5 25.5zM424.5 122q47.5 43 59.5 110l12 68q3 17 3 32q0 54 -33 88t-91 34q-66 0 -113.5 -43.5t-59.5 -110.5l-11 -68q-3 -16 -3 -33q0 -54 33 -87t91 -33q65 0 112.5 43z" />
    <glyph glyph-name="dcaron.ss01" horiz-adv-x="754" 
d="M129 43.5q-50 50.5 -50 132.5q0 24 4 44l15 92q11 66 48.5 118t93 81.5t117.5 29.5q69 0 105 -32t49 -73h7l53 314h104l-126 -750h-104l17 101h-7q-30 -44 -77 -76t-116 -32q-83 0 -133 50.5zM424.5 122q47.5 43 58.5 110l12 68q3 18 3 33q0 54 -33 87.5t-90 33.5
q-67 0 -114.5 -43.5t-58.5 -110.5l-12 -68q-3 -18 -3 -33q0 -54 33 -87t91 -33q66 0 113.5 43zM706 552q38 15 58.5 39.5t20.5 55.5q0 17 -8 21.5t-23 4.5q-25 0 -36.5 11.5t-11.5 29.5q0 35 23 57t59 22q66 0 66 -61q0 -9 -2 -23l-7 -39q-11 -65 -50 -103.5t-95 -53.5z" />
    <glyph glyph-name="dcroat.ss01" horiz-adv-x="624" 
d="M720 602h-70l-101 -602h-104l17 101h-7q-30 -44 -77 -76t-116 -32q-83 0 -133 50.5t-50 132.5q0 24 4 44l15 92q11 66 48.5 118t93 81.5t117.5 29.5q69 0 105 -32t49 -73h7l28 166h-139l11 70h140l13 78h104l-13 -78h69zM498 333q0 54 -33 87.5t-90 33.5
q-67 0 -114.5 -43.5t-58.5 -110.5l-12 -68q-3 -18 -3 -33q0 -54 33 -87t91 -33q66 0 113.5 43t58.5 110l12 68q3 18 3 33z" />
    <glyph glyph-name="e.ss01" horiz-adv-x="573" 
d="M137.5 47q-54.5 54 -54.5 139q0 25 4 46l12 68q12 67 50.5 122t98.5 87t132 32q89 0 143 -50.5t54 -150.5q0 -31 -6 -67l-5 -36h-378l-3 -16q-2 -18 -2 -27q0 -51 30.5 -83.5t87.5 -32.5q56 0 95 28t56 77h101q-28 -82 -97 -136t-169 -54q-95 0 -149.5 54zM477 308l2 11
q2 10 2 28q0 51 -30.5 83t-84.5 32q-64 0 -108.5 -40.5t-55.5 -102.5l-2 -11h277z" />
    <glyph glyph-name="eacute.ss01" horiz-adv-x="573" 
d="M137.5 47q-54.5 54 -54.5 139q0 25 4 46l12 68q12 67 50.5 122t98.5 87t132 32q89 0 143 -50.5t54 -150.5q0 -31 -6 -67l-5 -36h-378l-3 -16q-2 -18 -2 -27q0 -51 30.5 -83.5t87.5 -32.5q56 0 95 28t56 77h101q-28 -82 -97 -136t-169 -54q-95 0 -149.5 54zM477 308l2 11
q2 10 2 28q0 51 -30.5 83t-84.5 32q-64 0 -108.5 -40.5t-55.5 -102.5l-2 -11h277zM351 600l130 184h106l-154 -184h-82z" />
    <glyph glyph-name="ecaron.ss01" horiz-adv-x="573" 
d="M137.5 47q-54.5 54 -54.5 139q0 25 4 46l12 68q12 67 50.5 122t98.5 87t132 32q89 0 143 -50.5t54 -150.5q0 -31 -6 -67l-5 -36h-378l-3 -16q-2 -18 -2 -27q0 -51 30.5 -83.5t87.5 -32.5q56 0 95 28t56 77h101q-28 -82 -97 -136t-169 -54q-95 0 -149.5 54zM477 308l2 11
q2 10 2 28q0 51 -30.5 83t-84.5 32q-64 0 -108.5 -40.5t-55.5 -102.5l-2 -11h277zM336 743l61 -84h4l91 84h99l-160 -150h-84l-110 150h99z" />
    <glyph glyph-name="ecircumflex.ss01" horiz-adv-x="573" 
d="M137.5 47q-54.5 54 -54.5 139q0 25 4 46l12 68q12 67 50.5 122t98.5 87t132 32q89 0 143 -50.5t54 -150.5q0 -31 -6 -67l-5 -36h-378l-3 -16q-2 -18 -2 -27q0 -51 30.5 -83.5t87.5 -32.5q56 0 95 28t56 77h101q-28 -82 -97 -136t-169 -54q-95 0 -149.5 54zM477 308l2 11
q2 10 2 28q0 51 -30.5 83t-84.5 32q-64 0 -108.5 -40.5t-55.5 -102.5l-2 -11h277zM372 743h84l111 -150h-100l-62 84h-4l-90 -84h-99z" />
    <glyph glyph-name="uni1EBF.ss01" horiz-adv-x="573" 
d="M137.5 47q-54.5 54 -54.5 139q0 25 4 46l12 68q12 67 50.5 122t98.5 87t132 32q89 0 143 -50.5t54 -150.5q0 -31 -6 -67l-5 -36h-378l-3 -16q-2 -18 -2 -27q0 -51 30.5 -83.5t87.5 -32.5q56 0 95 28t56 77h101q-28 -82 -97 -136t-169 -54q-95 0 -149.5 54zM477 308l2 11
q2 10 2 28q0 51 -30.5 83t-84.5 32q-64 0 -108.5 -40.5t-55.5 -102.5l-2 -11h277zM372 743h84l111 -150h-100l-62 84h-4l-90 -84h-99zM526 719l130 184h106l-154 -184h-82z" />
    <glyph glyph-name="uni1EC7.ss01" horiz-adv-x="573" 
d="M137.5 47q-54.5 54 -54.5 139q0 25 4 46l12 68q12 67 50.5 122t98.5 87t132 32q89 0 143 -50.5t54 -150.5q0 -31 -6 -67l-5 -36h-378l-3 -16q-2 -18 -2 -27q0 -51 30.5 -83.5t87.5 -32.5q56 0 95 28t56 77h101q-28 -82 -97 -136t-169 -54q-95 0 -149.5 54zM477 308l2 11
q2 10 2 28q0 51 -30.5 83t-84.5 32q-64 0 -108.5 -40.5t-55.5 -102.5l-2 -11h277zM213 -215.5q-14 14.5 -14 36.5q0 29 22 51t51 22q23 0 37.5 -15t14.5 -36q0 -29 -22.5 -51t-51.5 -22q-23 0 -37 14.5zM372 743h84l111 -150h-100l-62 84h-4l-90 -84h-99z" />
    <glyph glyph-name="uni1EC1.ss01" horiz-adv-x="573" 
d="M137.5 47q-54.5 54 -54.5 139q0 25 4 46l12 68q12 67 50.5 122t98.5 87t132 32q89 0 143 -50.5t54 -150.5q0 -31 -6 -67l-5 -36h-378l-3 -16q-2 -18 -2 -27q0 -51 30.5 -83.5t87.5 -32.5q56 0 95 28t56 77h101q-28 -82 -97 -136t-169 -54q-95 0 -149.5 54zM477 308l2 11
q2 10 2 28q0 51 -30.5 83t-84.5 32q-64 0 -108.5 -40.5t-55.5 -102.5l-2 -11h277zM372 743h84l111 -150h-100l-62 84h-4l-90 -84h-99zM440 903h107l68 -184h-82z" />
    <glyph glyph-name="uni1EC3.ss01" horiz-adv-x="573" 
d="M137.5 47q-54.5 54 -54.5 139q0 25 4 46l12 68q12 67 50.5 122t98.5 87t132 32q89 0 143 -50.5t54 -150.5q0 -31 -6 -67l-5 -36h-378l-3 -16q-2 -18 -2 -27q0 -51 30.5 -83.5t87.5 -32.5q56 0 95 28t56 77h101q-28 -82 -97 -136t-169 -54q-95 0 -149.5 54zM477 308l2 11
q2 10 2 28q0 51 -30.5 83t-84.5 32q-64 0 -108.5 -40.5t-55.5 -102.5l-2 -11h277zM371 743h84l111 -150h-100l-62 84h-4l-90 -84h-99zM536 741.5q8 6.5 17.5 12.5t13.5 9q27 16 42 30.5t15 36.5q0 12 -8.5 20t-25.5 8q-18 0 -29.5 -8.5t-16.5 -22.5h-76q10 37 43 64t88 27
q47 0 72.5 -20.5t25.5 -54.5t-16 -53.5t-44 -37.5q-25 -15 -30 -26h-83q4 9 12 15.5z" />
    <glyph glyph-name="uni1EC5.ss01" horiz-adv-x="573" 
d="M137.5 47q-54.5 54 -54.5 139q0 25 4 46l12 68q12 67 50.5 122t98.5 87t132 32q89 0 143 -50.5t54 -150.5q0 -31 -6 -67l-5 -36h-378l-3 -16q-2 -18 -2 -27q0 -51 30.5 -83.5t87.5 -32.5q56 0 95 28t56 77h101q-28 -82 -97 -136t-169 -54q-95 0 -149.5 54zM477 308l2 11
q2 10 2 28q0 51 -30.5 83t-84.5 32q-64 0 -108.5 -40.5t-55.5 -102.5l-2 -11h277zM371 743h84l111 -150h-100l-62 84h-4l-90 -84h-99zM284 866.5q30 32.5 81 32.5q19 0 34.5 -5.5t34.5 -15.5q17 -9 27.5 -13t21.5 -4q18 0 30 11t17 27h61q-9 -43 -38 -75t-81 -32
q-19 0 -35.5 6t-35.5 16q-12 6 -24 11t-23 5q-32 0 -48 -39h-61q9 43 39 75.5z" />
    <glyph glyph-name="edieresis.ss01" horiz-adv-x="573" 
d="M137.5 47q-54.5 54 -54.5 139q0 25 4 46l12 68q12 67 50.5 122t98.5 87t132 32q89 0 143 -50.5t54 -150.5q0 -31 -6 -67l-5 -36h-378l-3 -16q-2 -18 -2 -27q0 -51 30.5 -83.5t87.5 -32.5q56 0 95 28t56 77h101q-28 -82 -97 -136t-169 -54q-95 0 -149.5 54zM477 308l2 11
q2 10 2 28q0 51 -30.5 83t-84.5 32q-64 0 -108.5 -40.5t-55.5 -102.5l-2 -11h277zM465.5 638q-14.5 15 -14.5 37q0 29 22.5 51.5t51.5 22.5q24 0 39 -15t15 -37q0 -29 -23 -51.5t-53 -22.5q-23 0 -37.5 15zM250.5 638q-14.5 15 -14.5 37q0 29 22.5 51.5t51.5 22.5
q24 0 39 -15t15 -37q0 -29 -23 -51.5t-53 -22.5q-23 0 -37.5 15z" />
    <glyph glyph-name="edotaccent.ss01" horiz-adv-x="573" 
d="M137.5 47q-54.5 54 -54.5 139q0 25 4 46l12 68q12 67 50.5 122t98.5 87t132 32q89 0 143 -50.5t54 -150.5q0 -31 -6 -67l-5 -36h-378l-3 -16q-2 -18 -2 -27q0 -51 30.5 -83.5t87.5 -32.5q56 0 95 28t56 77h101q-28 -82 -97 -136t-169 -54q-95 0 -149.5 54zM477 308l2 11
q2 10 2 28q0 51 -30.5 83t-84.5 32q-64 0 -108.5 -40.5t-55.5 -102.5l-2 -11h277zM354.5 638q-14.5 15 -14.5 37q0 29 22.5 51.5t51.5 22.5q24 0 39 -15t15 -37q0 -29 -23 -51.5t-53 -22.5q-23 0 -37.5 15z" />
    <glyph glyph-name="uni1EB9.ss01" horiz-adv-x="573" 
d="M137.5 47q-54.5 54 -54.5 139q0 25 4 46l12 68q12 67 50.5 122t98.5 87t132 32q89 0 143 -50.5t54 -150.5q0 -31 -6 -67l-5 -36h-378l-3 -16q-2 -18 -2 -27q0 -51 30.5 -83.5t87.5 -32.5q56 0 95 28t56 77h101q-28 -82 -97 -136t-169 -54q-95 0 -149.5 54zM477 308l2 11
q2 10 2 28q0 51 -30.5 83t-84.5 32q-64 0 -108.5 -40.5t-55.5 -102.5l-2 -11h277zM213 -215.5q-14 14.5 -14 36.5q0 29 22 51t51 22q23 0 37.5 -15t14.5 -36q0 -29 -22.5 -51t-51.5 -22q-23 0 -37 14.5z" />
    <glyph glyph-name="egrave.ss01" horiz-adv-x="573" 
d="M137.5 47q-54.5 54 -54.5 139q0 25 4 46l12 68q12 67 50.5 122t98.5 87t132 32q89 0 143 -50.5t54 -150.5q0 -31 -6 -67l-5 -36h-378l-3 -16q-2 -18 -2 -27q0 -51 30.5 -83.5t87.5 -32.5q56 0 95 28t56 77h101q-28 -82 -97 -136t-169 -54q-95 0 -149.5 54zM477 308l2 11
q2 10 2 28q0 51 -30.5 83t-84.5 32q-64 0 -108.5 -40.5t-55.5 -102.5l-2 -11h277zM253 784h107l68 -184h-82z" />
    <glyph glyph-name="uni1EBB.ss01" horiz-adv-x="573" 
d="M137.5 47q-54.5 54 -54.5 139q0 25 4 46l12 68q12 67 50.5 122t98.5 87t132 32q89 0 143 -50.5t54 -150.5q0 -31 -6 -67l-5 -36h-378l-3 -16q-2 -18 -2 -27q0 -51 30.5 -83.5t87.5 -32.5q56 0 95 28t56 77h101q-28 -82 -97 -136t-169 -54q-95 0 -149.5 54zM477 308l2 11
q2 10 2 28q0 51 -30.5 83t-84.5 32q-64 0 -108.5 -40.5t-55.5 -102.5l-2 -11h277zM360 615.5q8 6.5 17.5 12.5t13.5 9q27 16 42 30.5t15 36.5q0 12 -8.5 20t-25.5 8q-18 0 -29.5 -8.5t-16.5 -22.5h-76q10 37 43 64t88 27q47 0 72.5 -20.5t25.5 -54.5t-16 -53.5t-44 -37.5
q-25 -15 -30 -26h-83q4 9 12 15.5z" />
    <glyph glyph-name="emacron.ss01" horiz-adv-x="573" 
d="M137.5 47q-54.5 54 -54.5 139q0 25 4 46l12 68q12 67 50.5 122t98.5 87t132 32q89 0 143 -50.5t54 -150.5q0 -31 -6 -67l-5 -36h-378l-3 -16q-2 -18 -2 -27q0 -51 30.5 -83.5t87.5 -32.5q56 0 95 28t56 77h101q-28 -82 -97 -136t-169 -54q-95 0 -149.5 54zM477 308l2 11
q2 10 2 28q0 51 -30.5 83t-84.5 32q-64 0 -108.5 -40.5t-55.5 -102.5l-2 -11h277zM249 674h306l-8 -51h-307z" />
    <glyph glyph-name="uni1EBD.ss01" horiz-adv-x="573" 
d="M137.5 47q-54.5 54 -54.5 139q0 25 4 46l12 68q12 67 50.5 122t98.5 87t132 32q89 0 143 -50.5t54 -150.5q0 -31 -6 -67l-5 -36h-378l-3 -16q-2 -18 -2 -27q0 -51 30.5 -83.5t87.5 -32.5q56 0 95 28t56 77h101q-28 -82 -97 -136t-169 -54q-95 0 -149.5 54zM477 308l2 11
q2 10 2 28q0 51 -30.5 83t-84.5 32q-64 0 -108.5 -40.5t-55.5 -102.5l-2 -11h277zM269 703.5q30 32.5 81 32.5q19 0 34.5 -5.5t34.5 -15.5q17 -9 27.5 -13t21.5 -4q18 0 30 11t17 27h61q-9 -43 -38 -75t-81 -32q-19 0 -35.5 6t-35.5 16q-12 6 -24 11t-23 5q-32 0 -48 -39
h-61q9 43 39 75.5z" />
    <glyph glyph-name="f.ss01" horiz-adv-x="378" 
d="M349.5 642.5q-17.5 -10.5 -23.5 -27t-11 -43.5l-8 -45h123l-14 -82h-123l-75 -445h-103l75 445h-71l14 82h70l11 64q27 147 179 147h72l-13 -85h-51q-34 0 -51.5 -10.5z" />
    <glyph glyph-name="g.ss01" horiz-adv-x="620" 
d="M113.5 -173.5q-54.5 49.5 -56.5 135.5h102q3 -50 36 -78t90 -28q70 0 111 42t52 110l18 104h-7q-29 -44 -75.5 -76t-113.5 -32q-82 0 -131.5 50.5t-49.5 132.5q0 24 4 44l13 81q11 65 48 117.5t91.5 82t115.5 29.5q69 0 104.5 -31.5t48.5 -73.5h7l15 91h104l-88 -519
q-9 -52 -40 -104.5t-91.5 -89.5t-150.5 -37q-102 0 -156.5 49.5zM430 135.5q46 44.5 58 112.5l9 48q3 18 3 36q0 54 -31.5 88t-88.5 34q-67 0 -113 -44.5t-58 -113.5l-8 -48q-3 -18 -3 -36q0 -54 31.5 -87.5t87.5 -33.5q67 0 113 44.5z" />
    <glyph glyph-name="gbreve.ss01" horiz-adv-x="620" 
d="M113.5 -173.5q-54.5 49.5 -56.5 135.5h102q3 -50 36 -78t90 -28q70 0 111 42t52 110l18 104h-7q-29 -44 -75.5 -76t-113.5 -32q-82 0 -131.5 50.5t-49.5 132.5q0 24 4 44l13 81q11 65 48 117.5t91.5 82t115.5 29.5q69 0 104.5 -31.5t48.5 -73.5h7l15 91h104l-88 -519
q-9 -52 -40 -104.5t-91.5 -89.5t-150.5 -37q-102 0 -156.5 49.5zM430 135.5q46 44.5 58 112.5l9 48q3 18 3 36q0 54 -31.5 88t-88.5 34q-67 0 -113 -44.5t-58 -113.5l-8 -48q-3 -18 -3 -36q0 -54 31.5 -87.5t87.5 -33.5q67 0 113 44.5zM309 633.5q-38 27.5 -59 83.5h88
q18 -50 79 -50t95 50h88q-40 -56 -86.5 -83.5t-106.5 -27.5t-98 27.5z" />
    <glyph glyph-name="gdotaccent.ss01" horiz-adv-x="620" 
d="M113.5 -173.5q-54.5 49.5 -56.5 135.5h102q3 -50 36 -78t90 -28q70 0 111 42t52 110l18 104h-7q-29 -44 -75.5 -76t-113.5 -32q-82 0 -131.5 50.5t-49.5 132.5q0 24 4 44l13 81q11 65 48 117.5t91.5 82t115.5 29.5q69 0 104.5 -31.5t48.5 -73.5h7l15 91h104l-88 -519
q-9 -52 -40 -104.5t-91.5 -89.5t-150.5 -37q-102 0 -156.5 49.5zM430 135.5q46 44.5 58 112.5l9 48q3 18 3 36q0 54 -31.5 88t-88.5 34q-67 0 -113 -44.5t-58 -113.5l-8 -48q-3 -18 -3 -36q0 -54 31.5 -87.5t87.5 -33.5q67 0 113 44.5zM370.5 638q-14.5 15 -14.5 37
q0 29 22.5 51.5t51.5 22.5q24 0 39 -15t15 -37q0 -29 -23 -51.5t-53 -22.5q-23 0 -37.5 15z" />
    <glyph glyph-name="j.ss01" horiz-adv-x="250" 
d="M190.5 638q-14.5 15 -14.5 37q0 29 22.5 51.5t52.5 22.5q24 0 38.5 -15t14.5 -37q0 -29 -23 -51.5t-52 -22.5q-24 0 -38.5 15zM-79 -229l14 83h35q33 0 50.5 10.5t25 30t14.5 59.5l97 573h104l-99 -584q-9 -54 -23 -89.5t-48.5 -59t-98.5 -23.5h-71z" />
    <glyph glyph-name="l.ss01" horiz-adv-x="251" 
d="M200 750h103l-126 -750h-104z" />
    <glyph glyph-name="o.ss01" horiz-adv-x="579" 
d="M136.5 46.5q-54.5 53.5 -54.5 141.5q0 27 4 50l9 57q13 71 52 126.5t99.5 87.5t134.5 32q97 0 151.5 -54t54.5 -142q0 -27 -4 -50l-9 -57q-13 -71 -51.5 -126.5t-99 -87t-134.5 -31.5q-98 0 -152.5 53.5zM414.5 123.5q45.5 44.5 59.5 118.5l9 48q4 19 4 40
q0 57 -31.5 90.5t-88.5 33.5q-67 0 -112.5 -44.5t-59.5 -119.5l-9 -48q-4 -19 -4 -40q0 -56 31.5 -89.5t89.5 -33.5q66 0 111.5 44.5z" />
    <glyph glyph-name="oacute.ss01" horiz-adv-x="579" 
d="M136.5 46.5q-54.5 53.5 -54.5 141.5q0 27 4 50l9 57q13 71 52 126.5t99.5 87.5t134.5 32q97 0 151.5 -54t54.5 -142q0 -27 -4 -50l-9 -57q-13 -71 -51.5 -126.5t-99 -87t-134.5 -31.5q-98 0 -152.5 53.5zM414.5 123.5q45.5 44.5 59.5 118.5l9 48q4 19 4 40
q0 57 -31.5 90.5t-88.5 33.5q-67 0 -112.5 -44.5t-59.5 -119.5l-9 -48q-4 -19 -4 -40q0 -56 31.5 -89.5t89.5 -33.5q66 0 111.5 44.5zM352 600l130 184h106l-154 -184h-82z" />
    <glyph glyph-name="ocircumflex.ss01" horiz-adv-x="579" 
d="M136.5 46.5q-54.5 53.5 -54.5 141.5q0 27 4 50l9 57q13 71 52 126.5t99.5 87.5t134.5 32q97 0 151.5 -54t54.5 -142q0 -27 -4 -50l-9 -57q-13 -71 -51.5 -126.5t-99 -87t-134.5 -31.5q-98 0 -152.5 53.5zM414.5 123.5q45.5 44.5 59.5 118.5l9 48q4 19 4 40
q0 57 -31.5 90.5t-88.5 33.5q-67 0 -112.5 -44.5t-59.5 -119.5l-9 -48q-4 -19 -4 -40q0 -56 31.5 -89.5t89.5 -33.5q66 0 111.5 44.5zM373 743h84l111 -150h-100l-62 84h-4l-90 -84h-99z" />
    <glyph glyph-name="uni1ED1.ss01" horiz-adv-x="579" 
d="M136.5 46.5q-54.5 53.5 -54.5 141.5q0 27 4 50l9 57q13 71 52 126.5t99.5 87.5t134.5 32q97 0 151.5 -54t54.5 -142q0 -27 -4 -50l-9 -57q-13 -71 -51.5 -126.5t-99 -87t-134.5 -31.5q-98 0 -152.5 53.5zM414.5 123.5q45.5 44.5 59.5 118.5l9 48q4 19 4 40
q0 57 -31.5 90.5t-88.5 33.5q-67 0 -112.5 -44.5t-59.5 -119.5l-9 -48q-4 -19 -4 -40q0 -56 31.5 -89.5t89.5 -33.5q66 0 111.5 44.5zM373 743h84l111 -150h-100l-62 84h-4l-90 -84h-99zM527 719l130 184h106l-154 -184h-82z" />
    <glyph glyph-name="uni1ED9.ss01" horiz-adv-x="579" 
d="M136.5 46.5q-54.5 53.5 -54.5 141.5q0 27 4 50l9 57q13 71 52 126.5t99.5 87.5t134.5 32q97 0 151.5 -54t54.5 -142q0 -27 -4 -50l-9 -57q-13 -71 -51.5 -126.5t-99 -87t-134.5 -31.5q-98 0 -152.5 53.5zM414.5 123.5q45.5 44.5 59.5 118.5l9 48q4 19 4 40
q0 57 -31.5 90.5t-88.5 33.5q-67 0 -112.5 -44.5t-59.5 -119.5l-9 -48q-4 -19 -4 -40q0 -56 31.5 -89.5t89.5 -33.5q66 0 111.5 44.5zM214 -215.5q-14 14.5 -14 36.5q0 29 22 51t51 22q23 0 37.5 -15t14.5 -36q0 -29 -22.5 -51t-51.5 -22q-23 0 -37 14.5zM373 743h84
l111 -150h-100l-62 84h-4l-90 -84h-99z" />
    <glyph glyph-name="uni1ED3.ss01" horiz-adv-x="579" 
d="M136.5 46.5q-54.5 53.5 -54.5 141.5q0 27 4 50l9 57q13 71 52 126.5t99.5 87.5t134.5 32q97 0 151.5 -54t54.5 -142q0 -27 -4 -50l-9 -57q-13 -71 -51.5 -126.5t-99 -87t-134.5 -31.5q-98 0 -152.5 53.5zM414.5 123.5q45.5 44.5 59.5 118.5l9 48q4 19 4 40
q0 57 -31.5 90.5t-88.5 33.5q-67 0 -112.5 -44.5t-59.5 -119.5l-9 -48q-4 -19 -4 -40q0 -56 31.5 -89.5t89.5 -33.5q66 0 111.5 44.5zM373 743h84l111 -150h-100l-62 84h-4l-90 -84h-99zM441 903h107l68 -184h-82z" />
    <glyph glyph-name="uni1ED5.ss01" horiz-adv-x="579" 
d="M136.5 46.5q-54.5 53.5 -54.5 141.5q0 27 4 50l9 57q13 71 52 126.5t99.5 87.5t134.5 32q97 0 151.5 -54t54.5 -142q0 -27 -4 -50l-9 -57q-13 -71 -51.5 -126.5t-99 -87t-134.5 -31.5q-98 0 -152.5 53.5zM414.5 123.5q45.5 44.5 59.5 118.5l9 48q4 19 4 40
q0 57 -31.5 90.5t-88.5 33.5q-67 0 -112.5 -44.5t-59.5 -119.5l-9 -48q-4 -19 -4 -40q0 -56 31.5 -89.5t89.5 -33.5q66 0 111.5 44.5zM372 743h84l111 -150h-100l-62 84h-4l-90 -84h-99zM537 741.5q8 6.5 17.5 12.5t13.5 9q27 16 42 30.5t15 36.5q0 12 -8.5 20t-25.5 8
q-18 0 -29.5 -8.5t-16.5 -22.5h-76q10 37 43 64t88 27q47 0 72.5 -20.5t25.5 -54.5t-16 -53.5t-44 -37.5q-25 -15 -30 -26h-83q4 9 12 15.5z" />
    <glyph glyph-name="uni1ED7.ss01" horiz-adv-x="579" 
d="M136.5 46.5q-54.5 53.5 -54.5 141.5q0 27 4 50l9 57q13 71 52 126.5t99.5 87.5t134.5 32q97 0 151.5 -54t54.5 -142q0 -27 -4 -50l-9 -57q-13 -71 -51.5 -126.5t-99 -87t-134.5 -31.5q-98 0 -152.5 53.5zM414.5 123.5q45.5 44.5 59.5 118.5l9 48q4 19 4 40
q0 57 -31.5 90.5t-88.5 33.5q-67 0 -112.5 -44.5t-59.5 -119.5l-9 -48q-4 -19 -4 -40q0 -56 31.5 -89.5t89.5 -33.5q66 0 111.5 44.5zM372 743h84l111 -150h-100l-62 84h-4l-90 -84h-99zM285 866.5q30 32.5 81 32.5q19 0 34.5 -5.5t34.5 -15.5q17 -9 27.5 -13t21.5 -4
q18 0 30 11t17 27h61q-9 -43 -38 -75t-81 -32q-19 0 -35.5 6t-35.5 16q-12 6 -24 11t-23 5q-32 0 -48 -39h-61q9 43 39 75.5z" />
    <glyph glyph-name="odieresis.ss01" horiz-adv-x="579" 
d="M136.5 46.5q-54.5 53.5 -54.5 141.5q0 27 4 50l9 57q13 71 52 126.5t99.5 87.5t134.5 32q97 0 151.5 -54t54.5 -142q0 -27 -4 -50l-9 -57q-13 -71 -51.5 -126.5t-99 -87t-134.5 -31.5q-98 0 -152.5 53.5zM414.5 123.5q45.5 44.5 59.5 118.5l9 48q4 19 4 40
q0 57 -31.5 90.5t-88.5 33.5q-67 0 -112.5 -44.5t-59.5 -119.5l-9 -48q-4 -19 -4 -40q0 -56 31.5 -89.5t89.5 -33.5q66 0 111.5 44.5zM467.5 638q-14.5 15 -14.5 37q0 29 22.5 51.5t51.5 22.5q24 0 39 -15t15 -37q0 -29 -23 -51.5t-53 -22.5q-23 0 -37.5 15zM252.5 638
q-14.5 15 -14.5 37q0 29 22.5 51.5t51.5 22.5q24 0 39 -15t15 -37q0 -29 -23 -51.5t-53 -22.5q-23 0 -37.5 15z" />
    <glyph glyph-name="uni1ECD.ss01" horiz-adv-x="579" 
d="M136.5 46.5q-54.5 53.5 -54.5 141.5q0 27 4 50l9 57q13 71 52 126.5t99.5 87.5t134.5 32q97 0 151.5 -54t54.5 -142q0 -27 -4 -50l-9 -57q-13 -71 -51.5 -126.5t-99 -87t-134.5 -31.5q-98 0 -152.5 53.5zM414.5 123.5q45.5 44.5 59.5 118.5l9 48q4 19 4 40
q0 57 -31.5 90.5t-88.5 33.5q-67 0 -112.5 -44.5t-59.5 -119.5l-9 -48q-4 -19 -4 -40q0 -56 31.5 -89.5t89.5 -33.5q66 0 111.5 44.5zM214 -215.5q-14 14.5 -14 36.5q0 29 22 51t51 22q23 0 37.5 -15t14.5 -36q0 -29 -22.5 -51t-51.5 -22q-23 0 -37 14.5z" />
    <glyph glyph-name="ograve.ss01" horiz-adv-x="579" 
d="M136.5 46.5q-54.5 53.5 -54.5 141.5q0 27 4 50l9 57q13 71 52 126.5t99.5 87.5t134.5 32q97 0 151.5 -54t54.5 -142q0 -27 -4 -50l-9 -57q-13 -71 -51.5 -126.5t-99 -87t-134.5 -31.5q-98 0 -152.5 53.5zM414.5 123.5q45.5 44.5 59.5 118.5l9 48q4 19 4 40
q0 57 -31.5 90.5t-88.5 33.5q-67 0 -112.5 -44.5t-59.5 -119.5l-9 -48q-4 -19 -4 -40q0 -56 31.5 -89.5t89.5 -33.5q66 0 111.5 44.5zM255 784h107l68 -184h-82z" />
    <glyph glyph-name="uni1ECF.ss01" horiz-adv-x="579" 
d="M136.5 46.5q-54.5 53.5 -54.5 141.5q0 27 4 50l9 57q13 71 52 126.5t99.5 87.5t134.5 32q97 0 151.5 -54t54.5 -142q0 -27 -4 -50l-9 -57q-13 -71 -51.5 -126.5t-99 -87t-134.5 -31.5q-98 0 -152.5 53.5zM414.5 123.5q45.5 44.5 59.5 118.5l9 48q4 19 4 40
q0 57 -31.5 90.5t-88.5 33.5q-67 0 -112.5 -44.5t-59.5 -119.5l-9 -48q-4 -19 -4 -40q0 -56 31.5 -89.5t89.5 -33.5q66 0 111.5 44.5zM361 615.5q8 6.5 17.5 12.5t13.5 9q27 16 42 30.5t15 36.5q0 12 -8.5 20t-25.5 8q-18 0 -29.5 -8.5t-16.5 -22.5h-76q10 37 43 64t88 27
q47 0 72.5 -20.5t25.5 -54.5t-16 -53.5t-44 -37.5q-25 -15 -30 -26h-83q4 9 12 15.5z" />
    <glyph glyph-name="ohorn.ss01" horiz-adv-x="598" 
d="M665 624l-7 -42q-10 -54 -42 -78t-73 -27q45 -53 45 -131q0 -21 -5 -51l-9 -57q-13 -71 -51.5 -126.5t-99 -87t-134.5 -31.5q-98 0 -152.5 53.5t-54.5 141.5q0 27 4 50l9 57q13 71 52 126.5t99.5 87.5t134.5 32q48 0 87 -14h46q29 0 44.5 12t23.5 54l5 31h78zM487 330
q0 57 -31.5 90.5t-88.5 33.5q-67 0 -112.5 -44.5t-59.5 -119.5l-9 -48q-4 -19 -4 -40q0 -56 31.5 -89.5t89.5 -33.5q66 0 111.5 44.5t59.5 118.5l9 48q4 19 4 40z" />
    <glyph glyph-name="uni1EDB.ss01" horiz-adv-x="598" 
d="M665 624l-7 -42q-10 -54 -42 -78t-73 -27q45 -53 45 -131q0 -21 -5 -51l-9 -57q-13 -71 -51.5 -126.5t-99 -87t-134.5 -31.5q-98 0 -152.5 53.5t-54.5 141.5q0 27 4 50l9 57q13 71 52 126.5t99.5 87.5t134.5 32q48 0 87 -14h46q29 0 44.5 12t23.5 54l5 31h78zM487 330
q0 57 -31.5 90.5t-88.5 33.5q-67 0 -112.5 -44.5t-59.5 -119.5l-9 -48q-4 -19 -4 -40q0 -56 31.5 -89.5t89.5 -33.5q66 0 111.5 44.5t59.5 118.5l9 48q4 19 4 40zM352 600l130 184h106l-154 -184h-82z" />
    <glyph glyph-name="uni1EE3.ss01" horiz-adv-x="598" 
d="M665 624l-7 -42q-10 -54 -42 -78t-73 -27q45 -53 45 -131q0 -21 -5 -51l-9 -57q-13 -71 -51.5 -126.5t-99 -87t-134.5 -31.5q-98 0 -152.5 53.5t-54.5 141.5q0 27 4 50l9 57q13 71 52 126.5t99.5 87.5t134.5 32q48 0 87 -14h46q29 0 44.5 12t23.5 54l5 31h78zM487 330
q0 57 -31.5 90.5t-88.5 33.5q-67 0 -112.5 -44.5t-59.5 -119.5l-9 -48q-4 -19 -4 -40q0 -56 31.5 -89.5t89.5 -33.5q66 0 111.5 44.5t59.5 118.5l9 48q4 19 4 40zM214 -215.5q-14 14.5 -14 36.5q0 29 22 51t51 22q23 0 37.5 -15t14.5 -36q0 -29 -22.5 -51t-51.5 -22
q-23 0 -37 14.5z" />
    <glyph glyph-name="uni1EDD.ss01" horiz-adv-x="598" 
d="M665 624l-7 -42q-10 -54 -42 -78t-73 -27q45 -53 45 -131q0 -21 -5 -51l-9 -57q-13 -71 -51.5 -126.5t-99 -87t-134.5 -31.5q-98 0 -152.5 53.5t-54.5 141.5q0 27 4 50l9 57q13 71 52 126.5t99.5 87.5t134.5 32q48 0 87 -14h46q29 0 44.5 12t23.5 54l5 31h78zM487 330
q0 57 -31.5 90.5t-88.5 33.5q-67 0 -112.5 -44.5t-59.5 -119.5l-9 -48q-4 -19 -4 -40q0 -56 31.5 -89.5t89.5 -33.5q66 0 111.5 44.5t59.5 118.5l9 48q4 19 4 40zM255 784h107l68 -184h-82z" />
    <glyph glyph-name="uni1EDF.ss01" horiz-adv-x="598" 
d="M665 624l-7 -42q-10 -54 -42 -78t-73 -27q45 -53 45 -131q0 -21 -5 -51l-9 -57q-13 -71 -51.5 -126.5t-99 -87t-134.5 -31.5q-98 0 -152.5 53.5t-54.5 141.5q0 27 4 50l9 57q13 71 52 126.5t99.5 87.5t134.5 32q48 0 87 -14h46q29 0 44.5 12t23.5 54l5 31h78zM487 330
q0 57 -31.5 90.5t-88.5 33.5q-67 0 -112.5 -44.5t-59.5 -119.5l-9 -48q-4 -19 -4 -40q0 -56 31.5 -89.5t89.5 -33.5q66 0 111.5 44.5t59.5 118.5l9 48q4 19 4 40zM361 615.5q8 6.5 17.5 12.5t13.5 9q27 16 42 30.5t15 36.5q0 12 -8.5 20t-25.5 8q-18 0 -29.5 -8.5
t-16.5 -22.5h-76q10 37 43 64t88 27q47 0 72.5 -20.5t25.5 -54.5t-16 -53.5t-44 -37.5q-25 -15 -30 -26h-83q4 9 12 15.5z" />
    <glyph glyph-name="uni1EE1.ss01" horiz-adv-x="598" 
d="M665 624l-7 -42q-10 -54 -42 -78t-73 -27q45 -53 45 -131q0 -21 -5 -51l-9 -57q-13 -71 -51.5 -126.5t-99 -87t-134.5 -31.5q-98 0 -152.5 53.5t-54.5 141.5q0 27 4 50l9 57q13 71 52 126.5t99.5 87.5t134.5 32q48 0 87 -14h46q29 0 44.5 12t23.5 54l5 31h78zM487 330
q0 57 -31.5 90.5t-88.5 33.5q-67 0 -112.5 -44.5t-59.5 -119.5l-9 -48q-4 -19 -4 -40q0 -56 31.5 -89.5t89.5 -33.5q66 0 111.5 44.5t59.5 118.5l9 48q4 19 4 40zM270 703.5q30 32.5 81 32.5q19 0 34.5 -5.5t34.5 -15.5q17 -9 27.5 -13t21.5 -4q18 0 30 11t17 27h61
q-9 -43 -38 -75t-81 -32q-19 0 -35.5 6t-35.5 16q-12 6 -24 11t-23 5q-32 0 -48 -39h-61q9 43 39 75.5z" />
    <glyph glyph-name="omacron.ss01" horiz-adv-x="579" 
d="M136.5 46.5q-54.5 53.5 -54.5 141.5q0 27 4 50l9 57q13 71 52 126.5t99.5 87.5t134.5 32q97 0 151.5 -54t54.5 -142q0 -27 -4 -50l-9 -57q-13 -71 -51.5 -126.5t-99 -87t-134.5 -31.5q-98 0 -152.5 53.5zM414.5 123.5q45.5 44.5 59.5 118.5l9 48q4 19 4 40
q0 57 -31.5 90.5t-88.5 33.5q-67 0 -112.5 -44.5t-59.5 -119.5l-9 -48q-4 -19 -4 -40q0 -56 31.5 -89.5t89.5 -33.5q66 0 111.5 44.5zM250 674h306l-8 -51h-307z" />
    <glyph glyph-name="oslash.ss01" horiz-adv-x="592" 
d="M536 485q51 -51 51 -140q0 -27 -4 -50l-9 -57q-13 -70 -51.5 -126t-99 -87.5t-134.5 -31.5q-56 0 -98 18l-36 -50h-77l61 83q-57 53 -57 144q0 27 4 50l9 57q13 71 52 127t99.5 88t134.5 32q61 0 104 -21l44 61h77zM182 203q0 -41 19 -73l226 312q-26 13 -60 13
q-66 0 -112 -45t-60 -119l-9 -48q-4 -28 -4 -40zM487 332q0 38 -15 66l-223 -308q21 -10 54 -10q66 0 111.5 44.5t59.5 118.5l9 48q4 19 4 41z" />
    <glyph glyph-name="otilde.ss01" horiz-adv-x="579" 
d="M136.5 46.5q-54.5 53.5 -54.5 141.5q0 27 4 50l9 57q13 71 52 126.5t99.5 87.5t134.5 32q97 0 151.5 -54t54.5 -142q0 -27 -4 -50l-9 -57q-13 -71 -51.5 -126.5t-99 -87t-134.5 -31.5q-98 0 -152.5 53.5zM414.5 123.5q45.5 44.5 59.5 118.5l9 48q4 19 4 40
q0 57 -31.5 90.5t-88.5 33.5q-67 0 -112.5 -44.5t-59.5 -119.5l-9 -48q-4 -19 -4 -40q0 -56 31.5 -89.5t89.5 -33.5q66 0 111.5 44.5zM270 703.5q30 32.5 81 32.5q19 0 34.5 -5.5t34.5 -15.5q17 -9 27.5 -13t21.5 -4q18 0 30 11t17 27h61q-9 -43 -38 -75t-81 -32
q-19 0 -35.5 6t-35.5 16q-12 6 -24 11t-23 5q-32 0 -48 -39h-61q9 43 39 75.5z" />
    <glyph glyph-name="oe.ss01" horiz-adv-x="964" 
d="M910 490q54 -51 54 -151q0 -31 -6 -66l-6 -36h-378l-3 -16q-2 -18 -2 -27q0 -51 30.5 -83.5t87.5 -32.5q55 0 94 28t57 77h101q-28 -82 -97 -136t-169 -54q-62 0 -107 22.5t-70 63.5q-38 -41 -91.5 -63.5t-115.5 -22.5q-98 0 -152.5 53.5t-54.5 141.5q0 27 4 50l9 57
q13 71 52 126.5t99.5 87.5t134.5 32q62 0 108 -23t71 -65q38 41 91 64.5t114 23.5q91 0 145 -51zM867 348q0 50 -31 82t-84 32q-64 0 -109 -40.5t-56 -102.5l-2 -11h277l2 11q3 15 3 29zM412 121q45 42 60 112l12 67l2 9q1 7 1 20q0 57 -31 91t-89 34q-67 0 -112.5 -44.5
t-59.5 -119.5l-9 -48q-4 -19 -4 -40q0 -56 31.5 -89.5t89.5 -33.5q64 0 109 42z" />
    <glyph glyph-name="p.ss01" horiz-adv-x="622" 
d="M252.5 25.5q-36.5 32.5 -50.5 75.5h-7l-53 -313h-105l125 739h104l-16 -91h7q29 42 75 73.5t116 31.5q83 0 134 -51t51 -134q0 -14 -4 -44l-16 -92q-11 -65 -48 -116.5t-91.5 -81t-115.5 -29.5q-69 0 -105.5 32.5zM450.5 122q47.5 43 59.5 110l12 68q3 17 3 32
q0 54 -33 88t-91 34q-66 0 -113.5 -43.5t-59.5 -110.5l-11 -68q-3 -18 -3 -33q0 -54 32.5 -87t90.5 -33q66 0 113.5 43z" />
    <glyph glyph-name="thorn.ss01" horiz-adv-x="622" 
d="M249.5 25.5q-36.5 32.5 -50.5 75.5h-8l-56 -337h-104l166 986h104l-53 -314h7q27 41 73.5 73t115.5 32q84 0 135 -51t51 -133q0 -24 -4 -45l-15 -92q-11 -65 -48 -116.5t-91.5 -81t-115.5 -29.5q-70 0 -106.5 32.5zM448.5 122q47.5 43 58.5 110l12 68q3 17 3 32
q0 54 -33 88t-90 34q-67 0 -114.5 -43.5t-58.5 -110.5l-12 -68q-3 -16 -3 -32q0 -54 33 -87.5t91 -33.5q66 0 113.5 43z" />
    <glyph glyph-name="q.ss01" horiz-adv-x="622" 
d="M129 43.5q-50 50.5 -50 132.5q0 24 4 44l15 92q11 66 48.5 118t93 81.5t117.5 29.5q69 0 105 -32t49 -73h7l16 91h104l-125 -739h-104l53 313h-7q-30 -44 -77 -76t-116 -32q-83 0 -133 50.5zM424.5 122q47.5 43 58.5 110l12 68q3 18 3 33q0 54 -33 87.5t-90 33.5
q-67 0 -114.5 -43.5t-58.5 -110.5l-12 -68q-3 -18 -3 -33q0 -54 33 -87t91 -33q66 0 113.5 43z" />
    <glyph glyph-name="r.ss01" horiz-adv-x="346" 
d="M157 527h103l-15 -84h7q19 37 51 60.5t87 23.5h34l-15 -96h-35q-61 0 -101.5 -32t-53.5 -112l-48 -287h-103z" />
    <glyph glyph-name="t.ss01" horiz-adv-x="402" 
d="M259 183q-6 -40 -6 -51q0 -26 14 -38t49 -12h42l-14 -82h-77q-68 0 -94.5 26t-26.5 74q0 29 6 62l48 283h-94l13 82h95l29 173h104l-29 -173h122l-13 -82h-123z" />
    <glyph glyph-name="y.ss01" horiz-adv-x="542" 
d="M83 -222l141 243l-107 494l2 12h102l70 -391h6l210 391h101l-2 -12l-427 -749h-98z" />
    <glyph glyph-name="yacute.ss01" horiz-adv-x="542" 
d="M83 -222l141 243l-107 494l2 12h102l70 -391h6l210 391h101l-2 -12l-427 -749h-98zM334 600l130 184h106l-154 -184h-82z" />
    <glyph glyph-name="ycircumflex.ss01" horiz-adv-x="542" 
d="M83 -222l141 243l-107 494l2 12h102l70 -391h6l210 391h101l-2 -12l-427 -749h-98zM355 743h84l111 -150h-100l-62 84h-4l-90 -84h-99z" />
    <glyph glyph-name="ydieresis.ss01" horiz-adv-x="542" 
d="M83 -222l141 243l-107 494l2 12h102l70 -391h6l210 391h101l-2 -12l-427 -749h-98zM448.5 638q-14.5 15 -14.5 37q0 29 22.5 51.5t51.5 22.5q24 0 39 -15t15 -37q0 -29 -23 -51.5t-53 -22.5q-23 0 -37.5 15zM233.5 638q-14.5 15 -14.5 37q0 29 22.5 51.5t51.5 22.5
q24 0 39 -15t15 -37q0 -29 -23 -51.5t-53 -22.5q-23 0 -37.5 15z" />
    <glyph glyph-name="uni1EF5.ss01" horiz-adv-x="542" 
d="M83 -222l141 243l-107 494l2 12h102l70 -391h6l210 391h101l-2 -12l-427 -749h-98zM351 -215.5q-14 14.5 -14 36.5q0 29 22 51t51 22q23 0 37.5 -15t14.5 -36q0 -29 -22.5 -51t-51.5 -22q-23 0 -37 14.5z" />
    <glyph glyph-name="ygrave.ss01" horiz-adv-x="542" 
d="M83 -222l141 243l-107 494l2 12h102l70 -391h6l210 391h101l-2 -12l-427 -749h-98zM236 784h107l68 -184h-82z" />
    <glyph glyph-name="uni1EF7.ss01" horiz-adv-x="542" 
d="M83 -222l141 243l-107 494l2 12h102l70 -391h6l210 391h101l-2 -12l-427 -749h-98zM343 615.5q8 6.5 17.5 12.5t13.5 9q27 16 42 30.5t15 36.5q0 12 -8.5 20t-25.5 8q-18 0 -29.5 -8.5t-16.5 -22.5h-76q10 37 43 64t88 27q47 0 72.5 -20.5t25.5 -54.5t-16 -53.5
t-44 -37.5q-25 -15 -30 -26h-83q4 9 12 15.5z" />
    <glyph glyph-name="uni1EF9.ss01" horiz-adv-x="542" 
d="M83 -222l141 243l-107 494l2 12h102l70 -391h6l210 391h101l-2 -12l-427 -749h-98zM252 703.5q30 32.5 81 32.5q19 0 34.5 -5.5t34.5 -15.5q17 -9 27.5 -13t21.5 -4q18 0 30 11t17 27h61q-9 -43 -38 -75t-81 -32q-19 0 -35.5 6t-35.5 16q-12 6 -24 11t-23 5
q-32 0 -48 -39h-61q9 43 39 75.5z" />
    <glyph glyph-name="a.ss02" 
d="M128.5 43.5q-49.5 50.5 -49.5 132.5q0 24 4 44l15 92q11 65 48.5 117.5t91.5 82t115 29.5q69 0 104.5 -31.5t48.5 -73.5h7l15 91h104l-89 -527h-104l18 101h-7q-30 -44 -76.5 -76t-113.5 -32q-82 0 -131.5 50.5zM420.5 123.5q45.5 44.5 57.5 113.5l11 59q3 18 3 34
q0 56 -31.5 90t-89.5 34q-67 0 -112.5 -44.5t-57.5 -113.5l-10 -59q-3 -18 -3 -36q0 -54 31.5 -88t87.5 -34q68 0 113.5 44.5z" />
    <glyph glyph-name="aacute.ss02" 
d="M128.5 43.5q-49.5 50.5 -49.5 132.5q0 24 4 44l15 92q11 65 48.5 117.5t91.5 82t115 29.5q69 0 104.5 -31.5t48.5 -73.5h7l15 91h104l-89 -527h-104l18 101h-7q-30 -44 -76.5 -76t-113.5 -32q-82 0 -131.5 50.5zM420.5 123.5q45.5 44.5 57.5 113.5l11 59q3 18 3 34
q0 56 -31.5 90t-89.5 34q-67 0 -112.5 -44.5t-57.5 -113.5l-10 -59q-3 -18 -3 -36q0 -54 31.5 -88t87.5 -34q68 0 113.5 44.5zM362 600l130 184h106l-154 -184h-82z" />
    <glyph glyph-name="abreve.ss02" 
d="M128.5 43.5q-49.5 50.5 -49.5 132.5q0 24 4 44l15 92q11 65 48.5 117.5t91.5 82t115 29.5q69 0 104.5 -31.5t48.5 -73.5h7l15 91h104l-89 -527h-104l18 101h-7q-30 -44 -76.5 -76t-113.5 -32q-82 0 -131.5 50.5zM420.5 123.5q45.5 44.5 57.5 113.5l11 59q3 18 3 34
q0 56 -31.5 90t-89.5 34q-67 0 -112.5 -44.5t-57.5 -113.5l-10 -59q-3 -18 -3 -36q0 -54 31.5 -88t87.5 -34q68 0 113.5 44.5zM304 633.5q-38 27.5 -59 83.5h88q18 -50 79 -50t95 50h88q-40 -56 -86.5 -83.5t-106.5 -27.5t-98 27.5z" />
    <glyph glyph-name="uni1EAF.ss02" 
d="M128.5 43.5q-49.5 50.5 -49.5 132.5q0 24 4 44l15 92q11 65 48.5 117.5t91.5 82t115 29.5q69 0 104.5 -31.5t48.5 -73.5h7l15 91h104l-89 -527h-104l18 101h-7q-30 -44 -76.5 -76t-113.5 -32q-82 0 -131.5 50.5zM420.5 123.5q45.5 44.5 57.5 113.5l11 59q3 18 3 34
q0 56 -31.5 90t-89.5 34q-67 0 -112.5 -44.5t-57.5 -113.5l-10 -59q-3 -18 -3 -36q0 -54 31.5 -88t87.5 -34q68 0 113.5 44.5zM304 633.5q-38 27.5 -59 83.5h88q18 -50 79 -50t95 50h88q-40 -56 -86.5 -83.5t-106.5 -27.5t-98 27.5zM387 750l130 184h106l-154 -184h-82z" />
    <glyph glyph-name="uni1EB7.ss02" 
d="M128.5 43.5q-49.5 50.5 -49.5 132.5q0 24 4 44l15 92q11 65 48.5 117.5t91.5 82t115 29.5q69 0 104.5 -31.5t48.5 -73.5h7l15 91h104l-89 -527h-104l18 101h-7q-30 -44 -76.5 -76t-113.5 -32q-82 0 -131.5 50.5zM420.5 123.5q45.5 44.5 57.5 113.5l11 59q3 18 3 34
q0 56 -31.5 90t-89.5 34q-67 0 -112.5 -44.5t-57.5 -113.5l-10 -59q-3 -18 -3 -36q0 -54 31.5 -88t87.5 -34q68 0 113.5 44.5zM304 633.5q-38 27.5 -59 83.5h88q18 -50 79 -50t95 50h88q-40 -56 -86.5 -83.5t-106.5 -27.5t-98 27.5zM219 -215.5q-14 14.5 -14 36.5
q0 29 22 51t51 22q23 0 37.5 -15t14.5 -36q0 -29 -22.5 -51t-51.5 -22q-23 0 -37 14.5z" />
    <glyph glyph-name="uni1EB1.ss02" 
d="M128.5 43.5q-49.5 50.5 -49.5 132.5q0 24 4 44l15 92q11 65 48.5 117.5t91.5 82t115 29.5q69 0 104.5 -31.5t48.5 -73.5h7l15 91h104l-89 -527h-104l18 101h-7q-30 -44 -76.5 -76t-113.5 -32q-82 0 -131.5 50.5zM420.5 123.5q45.5 44.5 57.5 113.5l11 59q3 18 3 34
q0 56 -31.5 90t-89.5 34q-67 0 -112.5 -44.5t-57.5 -113.5l-10 -59q-3 -18 -3 -36q0 -54 31.5 -88t87.5 -34q68 0 113.5 44.5zM308 633.5q-38 27.5 -59 83.5h88q18 -50 79 -50t95 50h88q-40 -56 -86.5 -83.5t-106.5 -27.5t-98 27.5zM293 934h107l68 -184h-82z" />
    <glyph glyph-name="uni1EB3.ss02" 
d="M128.5 43.5q-49.5 50.5 -49.5 132.5q0 24 4 44l15 92q11 65 48.5 117.5t91.5 82t115 29.5q69 0 104.5 -31.5t48.5 -73.5h7l15 91h104l-89 -527h-104l18 101h-7q-30 -44 -76.5 -76t-113.5 -32q-82 0 -131.5 50.5zM420.5 123.5q45.5 44.5 57.5 113.5l11 59q3 18 3 34
q0 56 -31.5 90t-89.5 34q-67 0 -112.5 -44.5t-57.5 -113.5l-10 -59q-3 -18 -3 -36q0 -54 31.5 -88t87.5 -34q68 0 113.5 44.5zM304 633.5q-38 27.5 -59 83.5h88q18 -50 79 -50t95 50h88q-40 -56 -86.5 -83.5t-106.5 -27.5t-98 27.5zM396 765.5q8 6.5 17.5 12.5t13.5 9
q27 16 42 30.5t15 36.5q0 12 -8.5 20t-25.5 8q-18 0 -29.5 -8.5t-16.5 -22.5h-76q10 37 43 64t88 27q47 0 72.5 -20.5t25.5 -54.5t-16 -53.5t-44 -37.5q-25 -15 -30 -26h-83q4 9 12 15.5z" />
    <glyph glyph-name="uni1EB5.ss02" 
d="M128.5 43.5q-49.5 50.5 -49.5 132.5q0 24 4 44l15 92q11 65 48.5 117.5t91.5 82t115 29.5q69 0 104.5 -31.5t48.5 -73.5h7l15 91h104l-89 -527h-104l18 101h-7q-30 -44 -76.5 -76t-113.5 -32q-82 0 -131.5 50.5zM420.5 123.5q45.5 44.5 57.5 113.5l11 59q3 18 3 34
q0 56 -31.5 90t-89.5 34q-67 0 -112.5 -44.5t-57.5 -113.5l-10 -59q-3 -18 -3 -36q0 -54 31.5 -88t87.5 -34q68 0 113.5 44.5zM303 633.5q-38 27.5 -59 83.5h88q18 -50 79 -50t95 50h88q-40 -56 -86.5 -83.5t-106.5 -27.5t-98 27.5zM305 853.5q30 32.5 81 32.5
q19 0 34.5 -5.5t34.5 -15.5q17 -9 27.5 -13t21.5 -4q18 0 30 11t17 27h61q-9 -43 -38 -75t-81 -32q-19 0 -35.5 6t-35.5 16q-12 6 -24 11t-23 5q-32 0 -48 -39h-61q9 43 39 75.5z" />
    <glyph glyph-name="acircumflex.ss02" 
d="M128.5 43.5q-49.5 50.5 -49.5 132.5q0 24 4 44l15 92q11 65 48.5 117.5t91.5 82t115 29.5q69 0 104.5 -31.5t48.5 -73.5h7l15 91h104l-89 -527h-104l18 101h-7q-30 -44 -76.5 -76t-113.5 -32q-82 0 -131.5 50.5zM420.5 123.5q45.5 44.5 57.5 113.5l11 59q3 18 3 34
q0 56 -31.5 90t-89.5 34q-67 0 -112.5 -44.5t-57.5 -113.5l-10 -59q-3 -18 -3 -36q0 -54 31.5 -88t87.5 -34q68 0 113.5 44.5zM383 743h84l111 -150h-100l-62 84h-4l-90 -84h-99z" />
    <glyph glyph-name="uni1EA5.ss02" 
d="M128.5 43.5q-49.5 50.5 -49.5 132.5q0 24 4 44l15 92q11 65 48.5 117.5t91.5 82t115 29.5q69 0 104.5 -31.5t48.5 -73.5h7l15 91h104l-89 -527h-104l18 101h-7q-30 -44 -76.5 -76t-113.5 -32q-82 0 -131.5 50.5zM420.5 123.5q45.5 44.5 57.5 113.5l11 59q3 18 3 34
q0 56 -31.5 90t-89.5 34q-67 0 -112.5 -44.5t-57.5 -113.5l-10 -59q-3 -18 -3 -36q0 -54 31.5 -88t87.5 -34q68 0 113.5 44.5zM383 743h84l111 -150h-100l-62 84h-4l-90 -84h-99zM537 719l130 184h106l-154 -184h-82z" />
    <glyph glyph-name="uni1EAD.ss02" 
d="M128.5 43.5q-49.5 50.5 -49.5 132.5q0 24 4 44l15 92q11 65 48.5 117.5t91.5 82t115 29.5q69 0 104.5 -31.5t48.5 -73.5h7l15 91h104l-89 -527h-104l18 101h-7q-30 -44 -76.5 -76t-113.5 -32q-82 0 -131.5 50.5zM420.5 123.5q45.5 44.5 57.5 113.5l11 59q3 18 3 34
q0 56 -31.5 90t-89.5 34q-67 0 -112.5 -44.5t-57.5 -113.5l-10 -59q-3 -18 -3 -36q0 -54 31.5 -88t87.5 -34q68 0 113.5 44.5zM383 743h84l111 -150h-100l-62 84h-4l-90 -84h-99zM219 -215.5q-14 14.5 -14 36.5q0 29 22 51t51 22q23 0 37.5 -15t14.5 -36q0 -29 -22.5 -51
t-51.5 -22q-23 0 -37 14.5z" />
    <glyph glyph-name="uni1EA7.ss02" 
d="M128.5 43.5q-49.5 50.5 -49.5 132.5q0 24 4 44l15 92q11 65 48.5 117.5t91.5 82t115 29.5q69 0 104.5 -31.5t48.5 -73.5h7l15 91h104l-89 -527h-104l18 101h-7q-30 -44 -76.5 -76t-113.5 -32q-82 0 -131.5 50.5zM420.5 123.5q45.5 44.5 57.5 113.5l11 59q3 18 3 34
q0 56 -31.5 90t-89.5 34q-67 0 -112.5 -44.5t-57.5 -113.5l-10 -59q-3 -18 -3 -36q0 -54 31.5 -88t87.5 -34q68 0 113.5 44.5zM383 743h84l111 -150h-100l-62 84h-4l-90 -84h-99zM451 903h107l68 -184h-82z" />
    <glyph glyph-name="uni1EA9.ss02" 
d="M128.5 43.5q-49.5 50.5 -49.5 132.5q0 24 4 44l15 92q11 65 48.5 117.5t91.5 82t115 29.5q69 0 104.5 -31.5t48.5 -73.5h7l15 91h104l-89 -527h-104l18 101h-7q-30 -44 -76.5 -76t-113.5 -32q-82 0 -131.5 50.5zM420.5 123.5q45.5 44.5 57.5 113.5l11 59q3 18 3 34
q0 56 -31.5 90t-89.5 34q-67 0 -112.5 -44.5t-57.5 -113.5l-10 -59q-3 -18 -3 -36q0 -54 31.5 -88t87.5 -34q68 0 113.5 44.5zM382 743h84l111 -150h-100l-62 84h-4l-90 -84h-99zM547 741.5q8 6.5 17.5 12.5t13.5 9q27 16 42 30.5t15 36.5q0 12 -8.5 20t-25.5 8
q-18 0 -29.5 -8.5t-16.5 -22.5h-76q10 37 43 64t88 27q47 0 72.5 -20.5t25.5 -54.5t-16 -53.5t-44 -37.5q-25 -15 -30 -26h-83q4 9 12 15.5z" />
    <glyph glyph-name="uni1EAB.ss02" 
d="M128.5 43.5q-49.5 50.5 -49.5 132.5q0 24 4 44l15 92q11 65 48.5 117.5t91.5 82t115 29.5q69 0 104.5 -31.5t48.5 -73.5h7l15 91h104l-89 -527h-104l18 101h-7q-30 -44 -76.5 -76t-113.5 -32q-82 0 -131.5 50.5zM420.5 123.5q45.5 44.5 57.5 113.5l11 59q3 18 3 34
q0 56 -31.5 90t-89.5 34q-67 0 -112.5 -44.5t-57.5 -113.5l-10 -59q-3 -18 -3 -36q0 -54 31.5 -88t87.5 -34q68 0 113.5 44.5zM382 743h84l111 -150h-100l-62 84h-4l-90 -84h-99zM295 866.5q30 32.5 81 32.5q19 0 34.5 -5.5t34.5 -15.5q17 -9 27.5 -13t21.5 -4q18 0 30 11
t17 27h61q-9 -43 -38 -75t-81 -32q-19 0 -35.5 6t-35.5 16q-12 6 -24 11t-23 5q-32 0 -48 -39h-61q9 43 39 75.5z" />
    <glyph glyph-name="adieresis.ss02" 
d="M128.5 43.5q-49.5 50.5 -49.5 132.5q0 24 4 44l15 92q11 65 48.5 117.5t91.5 82t115 29.5q69 0 104.5 -31.5t48.5 -73.5h7l15 91h104l-89 -527h-104l18 101h-7q-30 -44 -76.5 -76t-113.5 -32q-82 0 -131.5 50.5zM420.5 123.5q45.5 44.5 57.5 113.5l11 59q3 18 3 34
q0 56 -31.5 90t-89.5 34q-67 0 -112.5 -44.5t-57.5 -113.5l-10 -59q-3 -18 -3 -36q0 -54 31.5 -88t87.5 -34q68 0 113.5 44.5zM477.5 638q-14.5 15 -14.5 37q0 29 22.5 51.5t51.5 22.5q24 0 39 -15t15 -37q0 -29 -23 -51.5t-53 -22.5q-23 0 -37.5 15zM262.5 638
q-14.5 15 -14.5 37q0 29 22.5 51.5t51.5 22.5q24 0 39 -15t15 -37q0 -29 -23 -51.5t-53 -22.5q-23 0 -37.5 15z" />
    <glyph glyph-name="uni1EA1.ss02" 
d="M128.5 43.5q-49.5 50.5 -49.5 132.5q0 24 4 44l15 92q11 65 48.5 117.5t91.5 82t115 29.5q69 0 104.5 -31.5t48.5 -73.5h7l15 91h104l-89 -527h-104l18 101h-7q-30 -44 -76.5 -76t-113.5 -32q-82 0 -131.5 50.5zM420.5 123.5q45.5 44.5 57.5 113.5l11 59q3 18 3 34
q0 56 -31.5 90t-89.5 34q-67 0 -112.5 -44.5t-57.5 -113.5l-10 -59q-3 -18 -3 -36q0 -54 31.5 -88t87.5 -34q68 0 113.5 44.5zM219 -215.5q-14 14.5 -14 36.5q0 29 22 51t51 22q23 0 37.5 -15t14.5 -36q0 -29 -22.5 -51t-51.5 -22q-23 0 -37 14.5z" />
    <glyph glyph-name="agrave.ss02" 
d="M128.5 43.5q-49.5 50.5 -49.5 132.5q0 24 4 44l15 92q11 65 48.5 117.5t91.5 82t115 29.5q69 0 104.5 -31.5t48.5 -73.5h7l15 91h104l-89 -527h-104l18 101h-7q-30 -44 -76.5 -76t-113.5 -32q-82 0 -131.5 50.5zM420.5 123.5q45.5 44.5 57.5 113.5l11 59q3 18 3 34
q0 56 -31.5 90t-89.5 34q-67 0 -112.5 -44.5t-57.5 -113.5l-10 -59q-3 -18 -3 -36q0 -54 31.5 -88t87.5 -34q68 0 113.5 44.5zM265 784h107l68 -184h-82z" />
    <glyph glyph-name="uni1EA3.ss02" 
d="M128.5 43.5q-49.5 50.5 -49.5 132.5q0 24 4 44l15 92q11 65 48.5 117.5t91.5 82t115 29.5q69 0 104.5 -31.5t48.5 -73.5h7l15 91h104l-89 -527h-104l18 101h-7q-30 -44 -76.5 -76t-113.5 -32q-82 0 -131.5 50.5zM420.5 123.5q45.5 44.5 57.5 113.5l11 59q3 18 3 34
q0 56 -31.5 90t-89.5 34q-67 0 -112.5 -44.5t-57.5 -113.5l-10 -59q-3 -18 -3 -36q0 -54 31.5 -88t87.5 -34q68 0 113.5 44.5zM371 615.5q8 6.5 17.5 12.5t13.5 9q27 16 42 30.5t15 36.5q0 12 -8.5 20t-25.5 8q-18 0 -29.5 -8.5t-16.5 -22.5h-76q10 37 43 64t88 27
q47 0 72.5 -20.5t25.5 -54.5t-16 -53.5t-44 -37.5q-25 -15 -30 -26h-83q4 9 12 15.5z" />
    <glyph glyph-name="amacron.ss02" 
d="M128.5 43.5q-49.5 50.5 -49.5 132.5q0 24 4 44l15 92q11 65 48.5 117.5t91.5 82t115 29.5q69 0 104.5 -31.5t48.5 -73.5h7l15 91h104l-89 -527h-104l18 101h-7q-30 -44 -76.5 -76t-113.5 -32q-82 0 -131.5 50.5zM420.5 123.5q45.5 44.5 57.5 113.5l11 59q3 18 3 34
q0 56 -31.5 90t-89.5 34q-67 0 -112.5 -44.5t-57.5 -113.5l-10 -59q-3 -18 -3 -36q0 -54 31.5 -88t87.5 -34q68 0 113.5 44.5zM260 674h306l-8 -51h-307z" />
    <glyph glyph-name="aring.ss02" 
d="M128.5 43.5q-49.5 50.5 -49.5 132.5q0 24 4 44l15 92q11 65 48.5 117.5t91.5 82t115 29.5q69 0 104.5 -31.5t48.5 -73.5h7l15 91h104l-89 -527h-104l18 101h-7q-30 -44 -76.5 -76t-113.5 -32q-82 0 -131.5 50.5zM420.5 123.5q45.5 44.5 57.5 113.5l11 59q3 18 3 34
q0 56 -31.5 90t-89.5 34q-67 0 -112.5 -44.5t-57.5 -113.5l-10 -59q-3 -18 -3 -36q0 -54 31.5 -88t87.5 -34q68 0 113.5 44.5zM347 630.5q-22 22.5 -22 54.5q0 27 15 51.5t40 39.5t52 15q34 0 56 -22t22 -54q0 -27 -15.5 -52t-40.5 -40t-52 -15q-33 0 -55 22.5zM447.5 671
q16.5 16 16.5 37q0 16 -11 26.5t-28 10.5q-21 0 -37 -16t-16 -37q0 -16 11 -26.5t27 -10.5q21 0 37.5 16z" />
    <glyph glyph-name="atilde.ss02" 
d="M128.5 43.5q-49.5 50.5 -49.5 132.5q0 24 4 44l15 92q11 65 48.5 117.5t91.5 82t115 29.5q69 0 104.5 -31.5t48.5 -73.5h7l15 91h104l-89 -527h-104l18 101h-7q-30 -44 -76.5 -76t-113.5 -32q-82 0 -131.5 50.5zM420.5 123.5q45.5 44.5 57.5 113.5l11 59q3 18 3 34
q0 56 -31.5 90t-89.5 34q-67 0 -112.5 -44.5t-57.5 -113.5l-10 -59q-3 -18 -3 -36q0 -54 31.5 -88t87.5 -34q68 0 113.5 44.5zM280 703.5q30 32.5 81 32.5q19 0 34.5 -5.5t34.5 -15.5q17 -9 27.5 -13t21.5 -4q18 0 30 11t17 27h61q-9 -43 -38 -75t-81 -32q-19 0 -35.5 6
t-35.5 16q-12 6 -24 11t-23 5q-32 0 -48 -39h-61q9 43 39 75.5z" />
    <glyph glyph-name="f_h.dlig" horiz-adv-x="1030" 
d="M991 492q39 -49 39 -123q0 -28 -4 -51l-54 -318h-103l51 303q3 21 3 38q0 54 -30 82t-82 28q-58 0 -102.5 -40t-56.5 -108l-52 -303h-104l92 546q5 32 5 51q0 39 -20.5 56.5t-71.5 17.5h-57q-54 0 -85.5 -28t-42.5 -92l-4 -24h117l-13 -82h-118l-74 -445h-104l74 445h-75
l13 82h76l4 24q18 104 80 156.5t158 52.5h66q92 0 136 -36.5t44 -118.5q0 -30 -6 -69l-17 -99h8q27 44 75.5 74t110.5 30q85 0 124 -49z" />
    <glyph glyph-name="f_k.dlig" horiz-adv-x="955" 
d="M738 289l178 -289h-117l-150 256h-5l-44 -256h-104l92 546q5 32 5 51q0 39 -20.5 56.5t-71.5 17.5h-57q-54 0 -85.5 -28t-42.5 -92l-4 -24h117l-13 -82h-118l-74 -445h-104l74 445h-75l13 82h76l4 24q18 104 80 156.5t158 52.5h66q89 0 135 -35.5t46 -119.5q0 -31 -6 -69
l-35 -208h4l220 199h117z" />
    <glyph glyph-name="f_l.dlig" horiz-adv-x="742" 
d="M719 75l-12 -74q-42 -5 -70 -5q-70 0 -97 23.5t-27 67.5q0 24 7 62l68 397q5 32 5 51q0 39 -20.5 56.5t-71.5 17.5h-57q-54 0 -85.5 -28t-42.5 -92l-4 -24h121l-13 -82h-122l-74 -445h-104l74 445h-75l13 82h76l4 24q18 104 80 156.5t158 52.5h66q90 0 135 -36t45 -118
q0 -24 -7 -70l-62 -369q-5 -30 -5 -48q0 -24 13.5 -35.5t49.5 -11.5q17 0 34 3z" />
    <glyph glyph-name="f_t.dlig" horiz-adv-x="779" 
d="M635 167q-6 -38 -6 -49q0 -23 14 -34.5t50 -11.5q24 0 50 6l-12 -73q-7 -3 -33.5 -6t-52.5 -3q-70 0 -97 23.5t-27 67.5q0 24 7 62l50 296h-285l-75 -445h-103l74 445h-70l14 82h70l12 72q9 53 47 96t126 43q21 0 44 -2.5t32 -5.5l-11 -71q-20 5 -50 5q-34 0 -52 -13
t-24.5 -31.5t-11.5 -47.5l-8 -45h285l30 173h103l-29 -173h123l-13 -82h-124z" />
    <glyph glyph-name="r_f.dlig" horiz-adv-x="690" 
d="M660 651q-18 -13 -24.5 -31.5t-11.5 -47.5l-8 -45h122l-13 -82h-123l-75 -445h-104l75 445h-132q-55 0 -95.5 -35t-54.5 -116l-50 -294h-103l89 527h103l-15 -85h7q23 36 61.5 60.5t87.5 24.5h116l12 72q8 52 45.5 95.5t127.5 43.5q21 0 44 -2.5t31 -5.5l-11 -71
q-20 5 -50 5q-33 0 -51 -13z" />
    <glyph glyph-name="r_t.dlig" horiz-adv-x="737" 
d="M592 167q-6 -38 -6 -49q0 -23 13.5 -34.5t49.5 -11.5q26 0 50 6l-11 -73q-8 -3 -34 -6t-52 -3q-70 0 -97 24t-27 67q0 24 7 62l50 296h-164q-54 0 -95.5 -39t-55.5 -121l-48 -285h-103l89 527h103l-15 -85h6q23 36 62 60.5t88 24.5h147l29 173h104l-29 -173h123l-14 -82
h-123z" />
    <glyph glyph-name="f_f.liga.ss01" horiz-adv-x="750" 
d="M721.5 642.5q-17.5 -10.5 -23.5 -27t-11 -43.5l-8 -45h123l-14 -82h-123l-75 -445h-103l75 445h-269l-75 -445h-103l75 445h-71l14 82h70l11 64q27 147 179 147h72l-13 -85h-51q-34 0 -51.5 -10.5t-23.5 -27t-11 -43.5l-8 -45h268l11 64q26 147 179 147h72l-14 -85h-50
q-34 0 -51.5 -10.5z" />
    <glyph glyph-name="f_i.liga.ss01" horiz-adv-x="640" 
d="M678 734q15 -15 15 -37q0 -29 -23 -51.5t-52 -22.5q-24 0 -38.5 15t-14.5 37q0 29 22.5 51.5t51.5 22.5q24 0 39 -15zM561 0h-103l75 445h-240l-75 -445h-103l75 445h-71l14 82h70l11 64q27 147 179 147h72l-13 -85h-51q-34 0 -51.5 -10.5t-23.5 -27t-11 -43.5l-8 -45
h343z" />
    <glyph glyph-name="t_t.liga.ss01" horiz-adv-x="804" 
d="M661 183q-6 -40 -6 -52q0 -25 14 -37t49 -12h41l-13 -82h-77q-68 0 -94.5 25.5t-26.5 73.5q0 30 6 63l48 283h-298l-45 -262q-6 -40 -6 -51q0 -26 14 -38t49 -12h42l-14 -82h-77q-68 0 -94.5 26t-26.5 74q0 29 6 62l48 283h-94l13 82h95l29 173h104l-29 -173h298l29 173
h103l-29 -173h123l-13 -82h-124z" />
    <glyph glyph-name="ordfeminine" unicode="&#xaa;" horiz-adv-x="159" 
d="M91.5 399q-11.5 14 -11.5 38q0 39 20 66.5t49 27.5q17 0 25 -7.5t11 -15.5h2l3 20h45l-23 -141h-45l3 22h-2q-5 -9 -16 -16.5t-27 -7.5q-22 0 -33.5 14zM172 435q10 15 10 34q0 11 -5.5 19t-16.5 8q-16 0 -25.5 -15t-9.5 -35q0 -26 22 -26q15 0 25 15z" />
    <glyph glyph-name="ordmasculine" unicode="&#xba;" horiz-adv-x="163" 
d="M103.5 401.5q-14.5 16.5 -14.5 41.5q0 38 24 64.5t59 26.5q29 0 44 -16.5t15 -42.5q0 -38 -24.5 -64t-60.5 -26q-28 0 -42.5 16.5zM179 433q11 16 11 39q0 12 -6 20.5t-17 8.5q-16 0 -27.5 -16t-11.5 -38q0 -13 6.5 -21.5t17.5 -8.5q16 0 27 16z" />
    <glyph glyph-name="zero" unicode="0" horiz-adv-x="610" 
d="M142.5 51q-51.5 62 -51.5 168q0 43 7 85l17 97q24 140 102 226.5t207 86.5q108 0 160.5 -61.5t52.5 -165.5q0 -38 -8 -86l-17 -97q-24 -140 -102.5 -227.5t-207.5 -87.5q-108 0 -159.5 62zM433.5 136q45.5 57 65.5 168l16 96q8 48 8 82q0 141 -113 141q-143 0 -181 -223
l-17 -96q-8 -50 -8 -83q0 -142 113 -142q71 0 116.5 57z" />
    <glyph glyph-name="one" unicode="1" horiz-adv-x="503" 
d="M480 92l-15 -92h-376l15 92h146l82 484h-4l-165 -132l20 123l165 133h102l-102 -608h132z" />
    <glyph glyph-name="two" unicode="2" horiz-adv-x="588" 
d="M81 89l172 133l35 26q76 56 121.5 95t76.5 86t31 97q0 43 -26.5 71t-82.5 28q-54 0 -88 -24t-48.5 -56t-14.5 -59l-1 -8h-106q10 64 44.5 118t92.5 86.5t135 32.5q97 0 146 -47.5t49 -122.5q0 -73 -37.5 -134t-84 -102t-128.5 -103l-145 -109l-1 -5h329l-14 -92h-469z
" />
    <glyph glyph-name="three" unicode="3" horiz-adv-x="591" 
d="M136 46.5q-53 54.5 -52 134.5h105q5 -44 36.5 -70.5t88.5 -26.5q70 0 115.5 40.5t45.5 103.5q0 46 -34 70.5t-85 24.5h-66l14 81h63q69 0 110 36.5t41 95.5q0 43 -30.5 68t-82.5 25q-54 0 -91.5 -26.5t-53.5 -69.5h-102q26 77 90 130.5t173 53.5q103 0 152 -48t49 -118
q0 -65 -31 -106t-66.5 -60.5t-44.5 -19.5v-6q10 -2 32.5 -13.5t42.5 -40t20 -74.5q0 -68 -35.5 -122.5t-98 -85.5t-140.5 -31q-112 0 -165 54.5z" />
    <glyph glyph-name="four" unicode="4" horiz-adv-x="606" 
d="M389 171l-318 1l15 87l364 441h130l-76 -447h96l-13 -82h-96l-29 -171h-102zM403 254l56 323l-272 -323h216z" />
    <glyph glyph-name="five" unicode="5" horiz-adv-x="602" 
d="M191.5 22q-47.5 27 -70.5 71t-22 95h104q5 -50 38.5 -75t80.5 -25q49 0 87.5 25t60.5 69.5t22 98.5q0 56 -33 84.5t-85 28.5q-90 0 -139 -81l-105 4l84 383h410l-16 -95h-324l-47 -208h5q18 23 58.5 48.5t109.5 25.5q87 0 137 -47t50 -131q0 -81 -37.5 -149
t-103.5 -108.5t-148 -40.5q-69 0 -116.5 27z" />
    <glyph glyph-name="six" unicode="6" horiz-adv-x="590" 
d="M193 12.5q-48 20.5 -77 64t-29 108.5q0 68 27.5 133.5t64.5 117t89 112.5l127 152h103l-267 -318l4 -1l18 16q62 55 146 55q82 0 131.5 -48.5t49.5 -130.5q0 -78 -37 -142.5t-101.5 -101.5t-143.5 -37q-57 0 -105 20.5zM394 101.5q39 24.5 61.5 65t22.5 86.5q0 51 -31 86
t-91 35q-47 0 -86 -25t-61 -66t-22 -88q0 -51 31.5 -84.5t88.5 -33.5q48 0 87 24.5z" />
    <glyph glyph-name="seven" unicode="7" horiz-adv-x="516" 
d="M112 12l367 585l1 8h-353l15 95h455l-16 -104l-364 -596h-107z" />
    <glyph glyph-name="eight" unicode="8" horiz-adv-x="610" 
d="M140 36.5q-55 48.5 -55 120.5q0 55 25 98.5t60 70.5t65 36l1 4q-27 13 -49 44.5t-22 77.5q0 58 32.5 110t92.5 83.5t139 31.5q100 0 149 -47t49 -115q0 -46 -20 -85t-48 -64.5t-54 -35.5l-1 -4q33 -11 63 -46.5t30 -91.5q0 -65 -36.5 -119t-102.5 -85.5t-152 -31.5
q-111 0 -166 48.5zM454 415.5q35 18.5 54 49.5t19 68q0 40 -28 67.5t-84 27.5q-45 0 -79.5 -18.5t-53.5 -50t-19 -69.5q0 -41 27.5 -67t84.5 -26q44 0 79 18.5zM410.5 95.5q39.5 20.5 61.5 55.5t22 76q0 46 -32.5 76t-96.5 30q-51 0 -90.5 -20.5t-61.5 -56t-22 -77.5
q0 -46 32 -75t97 -29q51 0 90.5 20.5z" />
    <glyph glyph-name="nine" unicode="9" horiz-adv-x="590" 
d="M478 321l-4 2l-19 -17q-64 -54 -144 -54q-83 0 -132.5 48.5t-49.5 130.5q0 79 37 143.5t102.5 102t145.5 37.5q55 0 102.5 -21t76.5 -64.5t29 -108.5q0 -71 -29.5 -139.5t-66.5 -119.5t-85 -107l-128 -154l-113 -1zM439 355q39 25 61 66.5t22 88.5q0 51 -31 85t-88 34
q-48 0 -87.5 -25t-62.5 -66t-23 -87q0 -51 31.5 -86t90.5 -35q48 0 87 25z" />
    <glyph glyph-name="one.ss01" horiz-adv-x="499" 
d="M476 92l-15 -92h-376l15 92h146l87 516h-140l14 92h239l-102 -608h132z" />
    <glyph glyph-name="seven.ss01" horiz-adv-x="516" 
d="M581 596l-364 -596h-107l2 12l367 585l1 8h-261l-14 -82h-91l28 177h455z" />
    <glyph glyph-name="uni2080" unicode="&#x2080;" horiz-adv-x="337" 
d="M38 -212.5q-28 39.5 -28 100.5q0 68 24 124.5t65.5 89.5t91.5 33q61 0 88.5 -40t27.5 -100q0 -66 -23.5 -123t-65 -90.5t-92.5 -33.5q-60 0 -88 39.5zM183.5 -170q22.5 28 36 73.5t13.5 96.5q0 37 -12.5 58.5t-38.5 21.5q-25 0 -48 -28t-37 -74t-14 -96q0 -36 12.5 -58
t39.5 -22q26 0 48.5 28z" />
    <glyph glyph-name="uni2081" unicode="&#x2081;" horiz-adv-x="265" 
d="M207 -195l-10 -58h-213l9 58h80l41 239h-2l-91 -71l13 77l91 72h63l-53 -317h72z" />
    <glyph glyph-name="uni2082" unicode="&#x2082;" horiz-adv-x="306" 
d="M-8 -194l82 65l19 14q61 44 92 75.5t31 67.5q0 19 -12 32t-37 13q-62 0 -77 -74h-62q9 57 48.5 93t99.5 36q50 0 76.5 -25t26.5 -64q0 -51 -31 -87.5t-83 -76.5l-18 -14l-67 -53l-1 -3h168l-10 -58h-254z" />
    <glyph glyph-name="uni2083" unicode="&#x2083;" horiz-adv-x="319" 
d="M27.5 -222q-30.5 32 -26.5 77h67q2 -22 19 -35t42 -13q33 0 55 19t22 48q0 22 -16.5 34t-40.5 12h-34l8 52h32q32 0 53 17.5t21 45.5q0 20 -15 32.5t-40 12.5q-27 0 -45 -13t-25 -34h-65q15 43 51 72.5t94 29.5q57 0 84 -26.5t27 -63.5q0 -33 -16 -55.5t-34.5 -33.5
t-22.5 -11l-1 -2q1 0 13.5 -5t24.5 -21.5t12 -40.5q0 -33 -19 -63t-53.5 -48.5t-79.5 -18.5q-61 0 -91.5 32z" />
    <glyph glyph-name="uni2084" unicode="&#x2084;" horiz-adv-x="333" 
d="M165 -164h-167l9 54l188 231h82l-39 -232h50l-8 -53h-51l-15 -89h-64zM174 -111l29 168l-140 -168h111z" />
    <glyph glyph-name="uni2085" unicode="&#x2085;" horiz-adv-x="316" 
d="M30 -222q-30 31 -29 77h67q1 -25 17.5 -37.5t38.5 -12.5q34 0 57.5 27t23.5 65q0 27 -16 40.5t-41 13.5q-27 0 -42.5 -13t-22.5 -24l-67 1l44 210h232l-10 -61h-175l-24 -100h3q7 9 30 22.5t58 13.5q46 0 72.5 -25.5t26.5 -68.5q0 -42 -20.5 -78.5t-56.5 -58.5t-80 -22
q-56 0 -86 31z" />
    <glyph glyph-name="uni2086" unicode="&#x2086;" horiz-adv-x="317" 
d="M34.5 -227q-32.5 26 -32.5 76q0 38 15.5 73.5t33 59.5t45.5 57l70 88h71l-145 -167h2l9 7q33 26 73 26q42 0 67.5 -26.5t25.5 -68.5t-20.5 -76.5t-55.5 -54.5t-78 -20q-48 0 -80.5 26zM184.5 -174.5q24.5 26.5 24.5 60.5q0 25 -15.5 42.5t-43.5 17.5q-36 0 -60.5 -26.5
t-24.5 -61.5q0 -25 15.5 -42t43.5 -17q36 0 60.5 26.5z" />
    <glyph glyph-name="uni2087" unicode="&#x2087;" horiz-adv-x="299" 
d="M30 -246l193 305l1 4l-187 -1l9 60h248l-11 -67l-190 -308l-64 1z" />
    <glyph glyph-name="uni2088" unicode="&#x2088;" horiz-adv-x="325" 
d="M28.5 -227.5q-29.5 26.5 -29.5 64.5q0 45 27 73t51 36l1 3q-13 5 -25 21.5t-12 41.5q0 31 17.5 59t50.5 45.5t77 17.5q55 0 82 -26t27 -63q0 -36 -22 -62t-44 -34l-1 -3q18 -8 33 -26t15 -47q0 -35 -19.5 -64t-55 -46t-81.5 -17q-62 0 -91.5 26.5zM208.5 -12.5
q20.5 19.5 20.5 44.5q0 19 -13 34t-39 15q-32 0 -53.5 -20.5t-21.5 -46.5q0 -19 14 -32.5t41 -13.5q31 0 51.5 19.5zM187 -176.5q24 21.5 24 51.5q0 21 -15 36t-45 15q-36 0 -59.5 -21.5t-23.5 -51.5q0 -22 14.5 -36.5t45.5 -14.5q35 0 59 21.5z" />
    <glyph glyph-name="uni2089" unicode="&#x2089;" horiz-adv-x="317" 
d="M204 -85h-1l-9 -8q-10 -10 -29 -18t-43 -8q-43 0 -69 26t-26 70q0 42 20.5 76.5t56.5 54.5t79 20q48 0 79.5 -26t31.5 -76q0 -54 -27.5 -100t-65.5 -91l-71 -88h-70zM207.5 -44q24.5 27 24.5 60q0 25 -15 42.5t-44 17.5q-35 0 -59.5 -26.5t-24.5 -60.5q0 -24 15.5 -42
t44.5 -18q34 0 58.5 27z" />
    <glyph glyph-name="zero.dnom" horiz-adv-x="633" 
d="M141.5 51q-51.5 62 -51.5 168q0 43 7 85l17 97q24 140 102 226.5t207 86.5q108 0 160.5 -61.5t52.5 -165.5q0 -38 -8 -86l-17 -97q-24 -140 -102.5 -227.5t-207.5 -87.5q-108 0 -159.5 62zM432.5 136q45.5 57 65.5 168l16 96q8 48 8 82q0 141 -113 141q-143 0 -181 -223
l-17 -96q-8 -50 -8 -83q0 -142 113 -142q71 0 116.5 57z" />
    <glyph glyph-name="one.dnom" horiz-adv-x="509" 
d="M473 92l-15 -92h-376l15 92h146l82 484h-4l-165 -132l20 123l165 133h102l-102 -608h132z" />
    <glyph glyph-name="two.dnom" horiz-adv-x="588" 
d="M78 89l172 133l35 26q76 56 121.5 95t76.5 86t31 97q0 43 -26.5 71t-82.5 28q-54 0 -88 -24t-48.5 -56t-14.5 -59l-1 -8h-106q10 64 44.5 118t92.5 86.5t135 32.5q97 0 146 -47.5t49 -122.5q0 -73 -37.5 -134t-84 -102t-128.5 -103l-145 -109l-1 -5h329l-14 -92h-469z
" />
    <glyph glyph-name="three.dnom" horiz-adv-x="591" 
d="M134 46.5q-53 54.5 -52 134.5h105q5 -44 36.5 -70.5t88.5 -26.5q70 0 115.5 40.5t45.5 103.5q0 46 -34 70.5t-85 24.5h-66l14 81h63q69 0 110 36.5t41 95.5q0 43 -30.5 68t-82.5 25q-54 0 -91.5 -26.5t-53.5 -69.5h-102q26 77 90 130.5t173 53.5q103 0 152 -48t49 -118
q0 -65 -31 -106t-66.5 -60.5t-44.5 -19.5v-6q10 -2 32.5 -13.5t42.5 -40t20 -74.5q0 -68 -35.5 -122.5t-98 -85.5t-140.5 -31q-112 0 -165 54.5z" />
    <glyph glyph-name="four.dnom" horiz-adv-x="618" 
d="M388 171l-318 1l15 87l364 441h130l-76 -447h96l-13 -82h-96l-29 -171h-102zM402 254l56 323l-272 -323h216z" />
    <glyph glyph-name="five.dnom" horiz-adv-x="602" 
d="M192.5 22q-47.5 27 -70.5 71t-22 95h104q5 -50 38.5 -75t80.5 -25q49 0 87.5 25t60.5 69.5t22 98.5q0 56 -33 84.5t-85 28.5q-90 0 -139 -81l-105 4l84 383h410l-16 -95h-324l-47 -208h5q18 23 58.5 48.5t109.5 25.5q87 0 137 -47t50 -131q0 -81 -37.5 -149
t-103.5 -108.5t-148 -40.5q-69 0 -116.5 27z" />
    </font>
</defs>
</svg>
