<?xml version="1.0" standalone="no"?>
<!DOCTYPE svg PUBLIC "-//W3C//DTD SVG 1.1//EN" "http://www.w3.org/Graphics/SVG/1.1/DTD/svg11.dtd" >
<svg xmlns="http://www.w3.org/2000/svg" xmlns:xlink="http://www.w3.org/1999/xlink" version="1.1">
<metadata>
Created by FontForge 20170812 at Mon Aug  5 09:43:35 2019
 By www-data
Copyright 2019 The Bevietnam Project Authors (https://github.com/bettergui/beVietnam)
</metadata>
<defs>
<font id="BeVietnam-Thin" horiz-adv-x="623" >
  <font-face 
    font-family="Be Vietnam Thin"
    font-weight="100"
    font-stretch="normal"
    units-per-em="1000"
    panose-1="0 0 2 0 0 0 0 0 0 0"
    ascent="800"
    descent="-200"
    x-height="525"
    cap-height="700"
    bbox="-454 -265 1207 1196"
    underline-thickness="50"
    underline-position="-100"
    unicode-range="U+000D-2265"
  />
<missing-glyph horiz-adv-x="731" 
d="M599 -265h-463v1461h463v-1461zM245 1098v-48h95v-54h-96v-48h243v48h-97v54h97v48h-242zM244 910v-152h243v49h-97v103h-146zM340 807h-48v53h48v-53zM244 718v-48h96v-54h-96v-48h146v102h97v48h-243zM438 631v-97h-194v-50h243v147h-49zM340 452v-81h50v33h48v-69
h-146v117h-48v-165h243v165h-147zM244 200v-165h243v165h-243zM438 83h-146v68h146v-68zM244 1v-48h102l-102 -69v-48h243v48h-150l103 69h47v48h-243z" />
    <glyph glyph-name="f_f.liga" unicode="ff" horiz-adv-x="708" 
d="M547.5 693.5q-18.5 -14.5 -22.5 -34t-4 -48.5v-86h132v-30h-132v-495h-34l-1 495h-317v-495h-34l-1 495h-79v30h79v86q0 57 24.5 91.5t90.5 34.5q33 0 52 -6v-28q-22 5 -49 5q-38 0 -56.5 -14.5t-22.5 -34t-4 -48.5v-86h317v86q0 57 24.5 91.5t90.5 34.5q32 0 52 -6v-28
q-22 5 -49 5q-38 0 -56.5 -14.5z" />
    <glyph glyph-name="f_i.liga" unicode="fi" horiz-adv-x="581" 
d="M484 0h-34v495h-281v-495h-34l-1 495h-79v30h79v86q0 57 24.5 91.5t90.5 34.5q33 0 52 -6v-28q-22 5 -49 5q-38 0 -56.5 -14.5t-22.5 -34t-4 -48.5v-86h315v-525zM490.5 691q10.5 -11 10.5 -25q0 -15 -10.5 -25.5t-25.5 -10.5t-25 10.5t-10 25.5t10 25.5t25 10.5
t25.5 -11z" />
    <glyph glyph-name="t_t.liga" unicode="tt" horiz-adv-x="730" 
d="M543 495v-368q0 -40 3.5 -60t18.5 -31.5t48 -11.5q31 0 62 9v-28q-28 -10 -64 -10q-45 0 -67.5 15.5t-29 43t-6.5 73.5l1 368h-331v-368q0 -40 3.5 -60t18.5 -31.5t48 -11.5q31 0 62 9v-28q-28 -10 -64 -10q-45 0 -67.5 15.5t-29 43t-6.5 73.5l1 368h-109v30h109v175h34
v-175h331v175h34v-175h132v-30h-132z" />
    <glyph glyph-name="hyphen_greater.liga" unicode="&#x2d;&#x3e;" horiz-adv-x="670" 
d="M429 525l201 -203l-201 -202h-47l183 184h-524v36h524l-183 185h47z" />
    <glyph glyph-name="colon_b_e_colon.liga" unicode="&#x3a;be&#x3a;" horiz-adv-x="878" 
d="M146 609h160q53 0 77.5 26.5t24.5 67.5q0 14 -1 21q51 -14 80.5 -54.5t29.5 -96.5q0 -63 -42 -102t-135 -39h-217zM100 241h229q80 0 120 36t40 92q0 23 -6 45q50 -10 89.5 -41.5t62.5 -77.5t23 -99q0 -62 -30 -112.5t-87.5 -80t-136.5 -29.5h-340z" />
    <glyph glyph-name="colon_d_d_colon.liga" unicode="&#x3a;dd&#x3a;" horiz-adv-x="599" 
d="M578 727v-27h-66v-536h-34v102h-7q-29 -47 -78 -77t-121 -30t-124.5 32t-80 86t-27.5 119t27.5 119t80 86t124.5 32q76 0 126.5 -33t73.5 -81h6v181h-191v27h191v85h34v-85h66zM385 221q45 27 68 73t23 102q0 57 -23 103t-68 73t-108 27q-64 0 -109 -27t-67.5 -73
t-22.5 -102q0 -57 22.5 -103t67.5 -73t109 -27q63 0 108 27zM92 34h429l-1 -34h-428v34z" />
    <glyph glyph-name="colon_d_o_w_n_colon.liga" unicode="&#x3a;down&#x3a;" horiz-adv-x="485" 
d="M445 204l-203 -201l-202 201v47l183 -182v633h37v-633l185 182v-47z" />
    <glyph glyph-name="colon_l_e_f_t_colon.liga" unicode="&#x3a;left&#x3a;" horiz-adv-x="642" 
d="M106 69h298q47 0 86 22.5t62 62t23 87.5q0 45 -23 83t-62.5 60.5t-85.5 22.5h-316l214 -169h-58l-209 169v31l209 151h58l-215 -151h317q56 0 102.5 -26.5t73.5 -71.5t27 -99q0 -56 -27.5 -102.5t-74 -73.5t-101.5 -27h-298v31z" />
    <glyph glyph-name="colon_r_i_g_h_t_colon.liga" unicode="&#x3a;right&#x3a;" horiz-adv-x="642" 
d="M238 38q-55 0 -101.5 27t-74 73.5t-27.5 103.5q0 53 27 98t73.5 71.5t102.5 26.5h317l-215 151h58l209 -151v-31l-209 -169h-58l214 169h-316q-46 0 -85.5 -22.5t-62.5 -60.5t-23 -82q0 -49 23 -88.5t62 -62t86 -22.5h298v-31h-298z" />
    <glyph glyph-name="colon_s_t_a_r_colon.liga" unicode="&#x3a;star&#x3a;" horiz-adv-x="831" 
d="M302 305l-212 130h243l81 237l81 -237h243l-212 -131l87 -253l-199 162l-199 -162z" />
    <glyph glyph-name="colon_u_p_colon.liga" unicode="&#x3a;up&#x3a;" horiz-adv-x="485" 
d="M260 634v-633h-37v633l-183 -182v47l202 201l203 -201v-47z" />
    <glyph glyph-name="less_hyphen.liga" unicode="&#x3c;&#x2d;" horiz-adv-x="670" 
d="M105 340h524v-36h-524l183 -184h-47l-201 202l201 203h47z" />
    <glyph glyph-name=".notdef" horiz-adv-x="731" 
d="M599 -265h-463v1461h463v-1461zM245 1098v-48h95v-54h-96v-48h243v48h-97v54h97v48h-242zM244 910v-152h243v49h-97v103h-146zM340 807h-48v53h48v-53zM244 718v-48h96v-54h-96v-48h146v102h97v48h-243zM438 631v-97h-194v-50h243v147h-49zM340 452v-81h50v33h48v-69
h-146v117h-48v-165h243v165h-147zM244 200v-165h243v165h-243zM438 83h-146v68h146v-68zM244 1v-48h102l-102 -69v-48h243v48h-150l103 69h47v48h-243z" />
    <glyph glyph-name="nonmarkingreturn" unicode="&#xd;" horiz-adv-x="600" 
 />
    <glyph glyph-name="space" unicode=" " horiz-adv-x="230" 
 />
    <glyph glyph-name="A" unicode="A" horiz-adv-x="686" 
d="M508 235h-331l-92 -235h-35l273 700h35l278 -700h-35zM495 267l-153 386h-2l-151 -386h306z" />
    <glyph glyph-name="Aacute" unicode="&#xc1;" horiz-adv-x="686" 
d="M508 235h-331l-92 -235h-35l273 700h35l278 -700h-35zM495 267l-153 386h-2l-151 -386h306zM330 767l96 164h46l-113 -164h-29z" />
    <glyph glyph-name="Abreve" unicode="&#x102;" horiz-adv-x="686" 
d="M508 235h-331l-92 -235h-35l273 700h35l278 -700h-35zM495 267l-153 386h-2l-151 -386h306zM252.5 808.5q-35.5 20.5 -64.5 66.5h38q36 -57 115 -57t115 57h38q-29 -46 -64.5 -66.5t-88.5 -20.5t-88.5 20.5z" />
    <glyph glyph-name="uni1EAE" unicode="&#x1eae;" horiz-adv-x="686" 
d="M508 235h-331l-92 -235h-35l273 700h35l278 -700h-35zM495 267l-153 386h-2l-151 -386h306zM252.5 808.5q-35.5 20.5 -64.5 66.5h38q36 -57 115 -57t115 57h38q-29 -46 -64.5 -66.5t-88.5 -20.5t-88.5 20.5zM330 885l96 164h46l-113 -164h-29z" />
    <glyph glyph-name="uni1EB6" unicode="&#x1eb6;" horiz-adv-x="686" 
d="M508 235h-331l-92 -235h-35l273 700h35l278 -700h-35zM495 267l-153 386h-2l-151 -386h306zM313.5 -191q-10.5 11 -10.5 27q0 15 10.5 26t26.5 11t27 -11t11 -26q0 -16 -11 -27t-27 -11t-26.5 11zM252.5 808.5q-35.5 20.5 -64.5 66.5h38q36 -57 115 -57t115 57h38
q-29 -46 -64.5 -66.5t-88.5 -20.5t-88.5 20.5z" />
    <glyph glyph-name="uni1EB0" unicode="&#x1eb0;" horiz-adv-x="686" 
d="M508 235h-331l-92 -235h-35l273 700h35l278 -700h-35zM495 267l-153 386h-2l-151 -386h306zM252.5 808.5q-35.5 20.5 -64.5 66.5h38q36 -57 115 -57t115 57h38q-29 -46 -64.5 -66.5t-88.5 -20.5t-88.5 20.5zM210 1049h46l96 -164h-29z" />
    <glyph glyph-name="uni1EB2" unicode="&#x1eb2;" horiz-adv-x="686" 
d="M508 235h-331l-92 -235h-35l273 700h35l278 -700h-35zM495 267l-153 386h-2l-151 -386h306zM252.5 808.5q-35.5 20.5 -64.5 66.5h38q36 -57 115 -57t115 57h38q-29 -46 -64.5 -66.5t-88.5 -20.5t-88.5 20.5zM357 920q19 15 28.5 26.5t9.5 27.5q0 18 -12 31.5t-40 13.5
q-22 0 -34.5 -9.5t-16.5 -23.5h-34q19 63 85 63q38 0 61 -20t23 -52q0 -21 -9.5 -34t-27.5 -28q-23 -17 -27 -30h-38q6 16 32 35z" />
    <glyph glyph-name="uni1EB4" unicode="&#x1eb4;" horiz-adv-x="686" 
d="M508 235h-331l-92 -235h-35l273 700h35l278 -700h-35zM495 267l-153 386h-2l-151 -386h306zM252.5 808.5q-35.5 20.5 -64.5 66.5h38q36 -57 115 -57t115 57h38q-29 -46 -64.5 -66.5t-88.5 -20.5t-88.5 20.5zM232.5 980.5q17.5 28.5 54.5 28.5q19 0 33 -9t31 -26
q15 -14 24 -20t20 -6q20 0 29.5 17t9.5 44h33q0 -33 -17.5 -61.5t-54.5 -28.5q-19 0 -32.5 8.5t-31.5 25.5q-13 13 -22.5 19.5t-21.5 6.5q-20 0 -29.5 -16.5t-9.5 -43.5h-33q0 33 17.5 61.5z" />
    <glyph glyph-name="Acircumflex" unicode="&#xc2;" horiz-adv-x="686" 
d="M508 235h-331l-92 -235h-35l273 700h35l278 -700h-35zM495 267l-153 386h-2l-151 -386h306zM318 903h46l120 -133h-45l-96 105h-4l-96 -105h-45z" />
    <glyph glyph-name="uni1EA4" unicode="&#x1ea4;" horiz-adv-x="686" 
d="M508 235h-331l-92 -235h-35l273 700h35l278 -700h-35zM495 267l-153 386h-2l-151 -386h306zM318 903h46l120 -133h-45l-96 105h-4l-96 -105h-45zM450 890l96 164h46l-113 -164h-29z" />
    <glyph glyph-name="uni1EAC" unicode="&#x1eac;" horiz-adv-x="686" 
d="M508 235h-331l-92 -235h-35l273 700h35l278 -700h-35zM495 267l-153 386h-2l-151 -386h306zM313.5 -191q-10.5 11 -10.5 27q0 15 10.5 26t26.5 11t27 -11t11 -26q0 -16 -11 -27t-27 -11t-26.5 11zM318 903h46l120 -133h-45l-96 105h-4l-96 -105h-45z" />
    <glyph glyph-name="uni1EA6" unicode="&#x1ea6;" horiz-adv-x="686" 
d="M508 235h-331l-92 -235h-35l273 700h35l278 -700h-35zM495 267l-153 386h-2l-151 -386h306zM318 903h46l120 -133h-45l-96 105h-4l-96 -105h-45zM330 1054h46l96 -164h-29z" />
    <glyph glyph-name="uni1EA8" unicode="&#x1ea8;" horiz-adv-x="686" 
d="M508 235h-331l-92 -235h-35l273 700h35l278 -700h-35zM495 267l-153 386h-2l-151 -386h306zM318 903h46l120 -133h-45l-96 105h-4l-96 -105h-45zM477 925q19 15 28.5 26.5t9.5 27.5q0 18 -12 31.5t-40 13.5q-22 0 -34.5 -9.5t-16.5 -23.5h-34q19 63 85 63q38 0 61 -20
t23 -52q0 -21 -9.5 -34t-27.5 -28q-23 -17 -27 -30h-38q6 16 32 35z" />
    <glyph glyph-name="uni1EAA" unicode="&#x1eaa;" horiz-adv-x="686" 
d="M508 235h-331l-92 -235h-35l273 700h35l278 -700h-35zM495 267l-153 386h-2l-151 -386h306zM318 903h46l120 -133h-45l-96 105h-4l-96 -105h-45zM236.5 997.5q17.5 28.5 54.5 28.5q19 0 33 -9t31 -26q15 -14 24 -20t20 -6q20 0 29.5 17t9.5 44h33q0 -33 -17.5 -61.5
t-54.5 -28.5q-19 0 -32.5 8.5t-31.5 25.5q-13 13 -22.5 19.5t-21.5 6.5q-20 0 -29.5 -16.5t-9.5 -43.5h-33q0 33 17.5 61.5z" />
    <glyph glyph-name="Adieresis" unicode="&#xc4;" horiz-adv-x="686" 
d="M508 235h-331l-92 -235h-35l273 700h35l278 -700h-35zM495 267l-153 386h-2l-151 -386h306zM383 815.5q-10 10.5 -10 25.5t10 25.5t25 10.5t25.5 -11t10.5 -25q0 -15 -10.5 -25.5t-25.5 -10.5t-25 10.5zM244 815.5q-10 10.5 -10 25.5t10 25.5t25 10.5t25.5 -11t10.5 -25
q0 -15 -10.5 -25.5t-25.5 -10.5t-25 10.5z" />
    <glyph glyph-name="uni1EA0" unicode="&#x1ea0;" horiz-adv-x="686" 
d="M508 235h-331l-92 -235h-35l273 700h35l278 -700h-35zM495 267l-153 386h-2l-151 -386h306zM313.5 -191q-10.5 11 -10.5 27q0 15 10.5 26t26.5 11t27 -11t11 -26q0 -16 -11 -27t-27 -11t-26.5 11z" />
    <glyph glyph-name="Agrave" unicode="&#xc0;" horiz-adv-x="686" 
d="M508 235h-331l-92 -235h-35l273 700h35l278 -700h-35zM495 267l-153 386h-2l-151 -386h306zM210 931h46l96 -164h-29z" />
    <glyph glyph-name="uni1EA2" unicode="&#x1ea2;" horiz-adv-x="686" 
d="M508 235h-331l-92 -235h-35l273 700h35l278 -700h-35zM495 267l-153 386h-2l-151 -386h306zM357 802q19 15 28.5 26.5t9.5 27.5q0 18 -12 31.5t-40 13.5q-22 0 -34.5 -9.5t-16.5 -23.5h-34q19 63 85 63q38 0 61 -20t23 -52q0 -21 -9.5 -34t-27.5 -28q-23 -17 -27 -30h-38
q6 16 32 35z" />
    <glyph glyph-name="Amacron" unicode="&#x100;" horiz-adv-x="686" 
d="M508 235h-331l-92 -235h-35l273 700h35l278 -700h-35zM495 267l-153 386h-2l-151 -386h306zM201 836h280v-26h-280v26z" />
    <glyph glyph-name="Aogonek" unicode="&#x104;" horiz-adv-x="686" 
d="M676 -116v-28q-22 -5 -45 -5q-38 0 -61 20t-23 52q0 49 51 84l-90 228h-331l-92 -235h-35l273 700h35l277 -699l2 -1q-27 -18 -42.5 -34.5t-15.5 -40.5q0 -19 13.5 -32t42.5 -13q15 0 41 4zM495 267l-153 386h-2l-151 -386h306z" />
    <glyph glyph-name="Aring" unicode="&#xc5;" horiz-adv-x="686" 
d="M508 235h-331l-92 -235h-35l273 700h35l278 -700h-35zM495 267l-153 386h-2l-151 -386h306zM287 821.5q-22 22.5 -22 53.5t22 53t53 22t53.5 -22t22.5 -53t-22.5 -53.5t-53.5 -22.5t-53 22.5zM377.5 837.5q15.5 15.5 15.5 37.5t-15.5 37t-37.5 15t-37 -15t-15 -37
t15 -37.5t37 -15.5t37.5 15.5z" />
    <glyph glyph-name="Atilde" unicode="&#xc3;" horiz-adv-x="686" 
d="M508 235h-331l-92 -235h-35l273 700h35l278 -700h-35zM495 267l-153 386h-2l-151 -386h306zM232.5 862.5q17.5 28.5 54.5 28.5q19 0 33 -9t31 -26q15 -14 24 -20t20 -6q20 0 29.5 17t9.5 44h33q0 -33 -17.5 -61.5t-54.5 -28.5q-19 0 -32.5 8.5t-31.5 25.5
q-13 13 -22.5 19.5t-21.5 6.5q-20 0 -29.5 -16.5t-9.5 -43.5h-33q0 33 17.5 61.5z" />
    <glyph glyph-name="AE" unicode="&#xc6;" horiz-adv-x="946" 
d="M501 666v-291h331v-32h-331v-309h366v-34h-400v235h-260l-137 -235h-35l401 700h431v-34h-366zM467 267v399h-9l-232 -399h241z" />
    <glyph glyph-name="B" unicode="B" horiz-adv-x="624" 
d="M92 700h266q74 0 118 -29t61 -69.5t17 -79.5q0 -49 -22.5 -83.5t-53 -53t-53.5 -21.5v-4q23 -1 59.5 -16t65.5 -51.5t29 -95.5q0 -49 -22.5 -94t-70 -74t-118.5 -29h-276v700zM348 376q44 0 82.5 16t63 50t24.5 85q0 70 -47 104t-123 34h-224v-289h224zM356 35
q82 0 134.5 37.5t52.5 119.5q0 81 -52 115t-135 34h-232v-306h232z" />
    <glyph glyph-name="C" unicode="C" horiz-adv-x="724" 
d="M212 39.5q-70 44.5 -107.5 125.5t-37.5 190t37.5 190.5t108 125.5t165.5 44q114 0 191 -62.5t105 -173.5h-36q-27 95 -95.5 148.5t-164.5 53.5q-130 0 -201.5 -87t-71.5 -238t71.5 -238.5t201.5 -87.5q89 0 154.5 46t96.5 129h37q-32 -99 -106.5 -154.5t-181.5 -55.5
q-96 0 -166 44.5z" />
    <glyph glyph-name="Cacute" unicode="&#x106;" horiz-adv-x="724" 
d="M212 39.5q-70 44.5 -107.5 125.5t-37.5 190t37.5 190.5t108 125.5t165.5 44q114 0 191 -62.5t105 -173.5h-36q-27 95 -95.5 148.5t-164.5 53.5q-130 0 -201.5 -87t-71.5 -238t71.5 -238.5t201.5 -87.5q89 0 154.5 46t96.5 129h37q-32 -99 -106.5 -154.5t-181.5 -55.5
q-96 0 -166 44.5zM351 767l96 164h46l-113 -164h-29z" />
    <glyph glyph-name="Ccaron" unicode="&#x10c;" horiz-adv-x="724" 
d="M212 39.5q-70 44.5 -107.5 125.5t-37.5 190t37.5 190.5t108 125.5t165.5 44q114 0 191 -62.5t105 -173.5h-36q-27 95 -95.5 148.5t-164.5 53.5q-130 0 -201.5 -87t-71.5 -238t71.5 -238.5t201.5 -87.5q89 0 154.5 46t96.5 129h37q-32 -99 -106.5 -154.5t-181.5 -55.5
q-96 0 -166 44.5zM264 903l96 -105h4l96 105h45l-120 -133h-46l-120 133h45z" />
    <glyph glyph-name="Ccedilla" unicode="&#xc7;" horiz-adv-x="724" 
d="M532.5 76q65.5 46 96.5 129h37q-29 -91 -94 -145t-157 -63l-22 -62h36q47 0 70.5 -22t23.5 -58q0 -39 -29.5 -68.5t-85.5 -29.5q-24 0 -46 5l2 30q26 -4 47 -4q38 0 59 17.5t21 46.5q0 33 -21.5 42.5t-44.5 9.5h-76v4l31 87h-2q-96 0 -166 44.5t-107.5 125.5t-37.5 190
t37.5 190.5t108 125.5t165.5 44q114 0 191 -62.5t105 -173.5h-36q-27 95 -95.5 148.5t-164.5 53.5q-130 0 -201.5 -87t-71.5 -238t71.5 -238.5t201.5 -87.5q89 0 154.5 46z" />
    <glyph glyph-name="Cdotaccent" unicode="&#x10a;" horiz-adv-x="724" 
d="M212 39.5q-70 44.5 -107.5 125.5t-37.5 190t37.5 190.5t108 125.5t165.5 44q114 0 191 -62.5t105 -173.5h-36q-27 95 -95.5 148.5t-164.5 53.5q-130 0 -201.5 -87t-71.5 -238t71.5 -238.5t201.5 -87.5q89 0 154.5 46t96.5 129h37q-32 -99 -106.5 -154.5t-181.5 -55.5
q-96 0 -166 44.5zM336 815.5q-10 10.5 -10 25.5t10 25.5t25 10.5t25.5 -11t10.5 -25q0 -15 -10.5 -25.5t-25.5 -10.5t-25 10.5z" />
    <glyph glyph-name="D" unicode="D" horiz-adv-x="694" 
d="M92 700h241q95 0 165.5 -43.5t108 -122.5t37.5 -184t-37.5 -184t-107.5 -122.5t-166 -43.5h-241v700zM333 34q83 0 146 39.5t97 111t34 166.5q0 94 -34 165.5t-97 110.5t-146 39h-207v-632h207z" />
    <glyph glyph-name="Eth" unicode="&#xd0;" horiz-adv-x="720" 
d="M576.5 608.5q93.5 -91.5 93.5 -259.5t-93.5 -259.5t-266.5 -91.5h-192v344h-61v28h61v330h192q173 0 266.5 -91.5zM446 48.5q69 16.5 130 86.5t61 214t-61 214t-130 86.5t-136 16.5h-158v-296h166v-28h-166v-310h158q67 0 136 16.5z" />
    <glyph glyph-name="Dcaron" unicode="&#x10e;" horiz-adv-x="694" 
d="M92 700h241q95 0 165.5 -43.5t108 -122.5t37.5 -184t-37.5 -184t-107.5 -122.5t-166 -43.5h-241v700zM333 34q83 0 146 39.5t97 111t34 166.5q0 94 -34 165.5t-97 110.5t-146 39h-207v-632h207zM236 903l96 -105h4l96 105h45l-120 -133h-46l-120 133h45z" />
    <glyph glyph-name="Dcroat" unicode="&#x110;" horiz-adv-x="720" 
d="M576.5 608.5q93.5 -91.5 93.5 -259.5t-93.5 -259.5t-266.5 -91.5h-192v344h-61v28h61v330h192q173 0 266.5 -91.5zM446 48.5q69 16.5 130 86.5t61 214t-61 214t-130 86.5t-136 16.5h-158v-296h166v-28h-166v-310h158q67 0 136 16.5z" />
    <glyph glyph-name="E" unicode="E" horiz-adv-x="571" 
d="M126 666v-291h331v-32h-331v-309h366v-34h-400v700h400v-34h-366z" />
    <glyph glyph-name="Eacute" unicode="&#xc9;" horiz-adv-x="571" 
d="M126 666v-291h331v-32h-331v-309h366v-34h-400v700h400v-34h-366zM281 767l96 164h46l-113 -164h-29z" />
    <glyph glyph-name="Ecaron" unicode="&#x11a;" horiz-adv-x="571" 
d="M126 666v-291h331v-32h-331v-309h366v-34h-400v700h400v-34h-366zM194 903l96 -105h4l96 105h45l-120 -133h-46l-120 133h45z" />
    <glyph glyph-name="Ecircumflex" unicode="&#xca;" horiz-adv-x="571" 
d="M126 666v-291h331v-32h-331v-309h366v-34h-400v700h400v-34h-366zM269 903h46l120 -133h-45l-96 105h-4l-96 -105h-45z" />
    <glyph glyph-name="uni1EBE" unicode="&#x1ebe;" horiz-adv-x="571" 
d="M126 666v-291h331v-32h-331v-309h366v-34h-400v700h400v-34h-366zM269 903h46l120 -133h-45l-96 105h-4l-96 -105h-45zM401 890l96 164h46l-113 -164h-29z" />
    <glyph glyph-name="uni1EC6" unicode="&#x1ec6;" horiz-adv-x="571" 
d="M126 666v-291h331v-32h-331v-309h366v-34h-400v700h400v-34h-366zM264.5 -191q-10.5 11 -10.5 27q0 15 10.5 26t26.5 11t27 -11t11 -26q0 -16 -11 -27t-27 -11t-26.5 11zM269 903h46l120 -133h-45l-96 105h-4l-96 -105h-45z" />
    <glyph glyph-name="uni1EC0" unicode="&#x1ec0;" horiz-adv-x="571" 
d="M126 666v-291h331v-32h-331v-309h366v-34h-400v700h400v-34h-366zM269 903h46l120 -133h-45l-96 105h-4l-96 -105h-45zM281 1054h46l96 -164h-29z" />
    <glyph glyph-name="uni1EC2" unicode="&#x1ec2;" horiz-adv-x="571" 
d="M126 666v-291h331v-32h-331v-309h366v-34h-400v700h400v-34h-366zM269 903h46l120 -133h-45l-96 105h-4l-96 -105h-45zM428 925q19 15 28.5 26.5t9.5 27.5q0 18 -12 31.5t-40 13.5q-22 0 -34.5 -9.5t-16.5 -23.5h-34q19 63 85 63q38 0 61 -20t23 -52q0 -21 -9.5 -34
t-27.5 -28q-23 -17 -27 -30h-38q6 16 32 35z" />
    <glyph glyph-name="uni1EC4" unicode="&#x1ec4;" horiz-adv-x="571" 
d="M126 666v-291h331v-32h-331v-309h366v-34h-400v700h400v-34h-366zM269 903h46l120 -133h-45l-96 105h-4l-96 -105h-45zM187.5 997.5q17.5 28.5 54.5 28.5q19 0 33 -9t31 -26q15 -14 24 -20t20 -6q20 0 29.5 17t9.5 44h33q0 -33 -17.5 -61.5t-54.5 -28.5q-19 0 -32.5 8.5
t-31.5 25.5q-13 13 -22.5 19.5t-21.5 6.5q-20 0 -29.5 -16.5t-9.5 -43.5h-33q0 33 17.5 61.5z" />
    <glyph glyph-name="Edieresis" unicode="&#xcb;" horiz-adv-x="571" 
d="M126 666v-291h331v-32h-331v-309h366v-34h-400v700h400v-34h-366zM334 815.5q-10 10.5 -10 25.5t10 25.5t25 10.5t25.5 -11t10.5 -25q0 -15 -10.5 -25.5t-25.5 -10.5t-25 10.5zM195 815.5q-10 10.5 -10 25.5t10 25.5t25 10.5t25.5 -11t10.5 -25q0 -15 -10.5 -25.5
t-25.5 -10.5t-25 10.5z" />
    <glyph glyph-name="Edotaccent" unicode="&#x116;" horiz-adv-x="571" 
d="M126 666v-291h331v-32h-331v-309h366v-34h-400v700h400v-34h-366zM266 815.5q-10 10.5 -10 25.5t10 25.5t25 10.5t25.5 -11t10.5 -25q0 -15 -10.5 -25.5t-25.5 -10.5t-25 10.5z" />
    <glyph glyph-name="uni1EB8" unicode="&#x1eb8;" horiz-adv-x="571" 
d="M126 666v-291h331v-32h-331v-309h366v-34h-400v700h400v-34h-366zM264.5 -191q-10.5 11 -10.5 27q0 15 10.5 26t26.5 11t27 -11t11 -26q0 -16 -11 -27t-27 -11t-26.5 11z" />
    <glyph glyph-name="Egrave" unicode="&#xc8;" horiz-adv-x="571" 
d="M126 666v-291h331v-32h-331v-309h366v-34h-400v700h400v-34h-366zM161 931h46l96 -164h-29z" />
    <glyph glyph-name="uni1EBA" unicode="&#x1eba;" horiz-adv-x="571" 
d="M126 666v-291h331v-32h-331v-309h366v-34h-400v700h400v-34h-366zM308 802q19 15 28.5 26.5t9.5 27.5q0 18 -12 31.5t-40 13.5q-22 0 -34.5 -9.5t-16.5 -23.5h-34q19 63 85 63q38 0 61 -20t23 -52q0 -21 -9.5 -34t-27.5 -28q-23 -17 -27 -30h-38q6 16 32 35z" />
    <glyph glyph-name="Emacron" unicode="&#x112;" horiz-adv-x="571" 
d="M126 666v-291h331v-32h-331v-309h366v-34h-400v700h400v-34h-366zM152 836h280v-26h-280v26z" />
    <glyph glyph-name="Eogonek" unicode="&#x118;" horiz-adv-x="571" 
d="M531 -116v-28q-22 -5 -45 -5q-38 0 -61 20t-23 52q0 44 41 77h-351v700h400v-34h-366v-291h331v-32h-331v-309h366v-34q-27 -18 -42.5 -34.5t-15.5 -40.5q0 -19 13.5 -32t42.5 -13q15 0 41 4z" />
    <glyph glyph-name="uni1EBC" unicode="&#x1ebc;" horiz-adv-x="571" 
d="M126 666v-291h331v-32h-331v-309h366v-34h-400v700h400v-34h-366zM183.5 862.5q17.5 28.5 54.5 28.5q19 0 33 -9t31 -26q15 -14 24 -20t20 -6q20 0 29.5 17t9.5 44h33q0 -33 -17.5 -61.5t-54.5 -28.5q-19 0 -32.5 8.5t-31.5 25.5q-13 13 -22.5 19.5t-21.5 6.5
q-20 0 -29.5 -16.5t-9.5 -43.5h-33q0 33 17.5 61.5z" />
    <glyph glyph-name="F" unicode="F" horiz-adv-x="520" 
d="M126 666v-293l316 2v-32h-316v-343h-34v700h390v-34h-356z" />
    <glyph glyph-name="G" unicode="G" horiz-adv-x="715" 
d="M192.5 48.5q-68.5 53.5 -99.5 135.5t-31 171t30.5 171t99 135.5t175.5 53.5q116 0 185.5 -60.5t95.5 -149.5h-37q-25 84 -86.5 129.5t-157.5 45.5q-83 0 -143.5 -38.5t-93 -111.5t-32.5 -174t33 -174.5t93.5 -112.5t142.5 -39q74 0 130 31t87 86.5t33 129.5l1 39h-244v30
h271v-346h-34v129h-8q-26 -56 -86 -95t-150 -39q-106 0 -174.5 53.5z" />
    <glyph glyph-name="Gbreve" unicode="&#x11e;" horiz-adv-x="715" 
d="M192.5 48.5q-68.5 53.5 -99.5 135.5t-31 171t30.5 171t99 135.5t175.5 53.5q116 0 185.5 -60.5t95.5 -149.5h-37q-25 84 -86.5 129.5t-157.5 45.5q-83 0 -143.5 -38.5t-93 -111.5t-32.5 -174t33 -174.5t93.5 -112.5t142.5 -39q74 0 130 31t87 86.5t33 129.5l1 39h-244v30
h271v-346h-34v129h-8q-26 -56 -86 -95t-150 -39q-106 0 -174.5 53.5zM278.5 808.5q-35.5 20.5 -64.5 66.5h38q36 -57 115 -57t115 57h38q-29 -46 -64.5 -66.5t-88.5 -20.5t-88.5 20.5z" />
    <glyph glyph-name="Gdotaccent" unicode="&#x120;" horiz-adv-x="715" 
d="M192.5 48.5q-68.5 53.5 -99.5 135.5t-31 171t30.5 171t99 135.5t175.5 53.5q116 0 185.5 -60.5t95.5 -149.5h-37q-25 84 -86.5 129.5t-157.5 45.5q-83 0 -143.5 -38.5t-93 -111.5t-32.5 -174t33 -174.5t93.5 -112.5t142.5 -39q74 0 130 31t87 86.5t33 129.5l1 39h-244v30
h271v-346h-34v129h-8q-26 -56 -86 -95t-150 -39q-106 0 -174.5 53.5zM341 815.5q-10 10.5 -10 25.5t10 25.5t25 10.5t25.5 -11t10.5 -25q0 -15 -10.5 -25.5t-25.5 -10.5t-25 10.5z" />
    <glyph glyph-name="H" unicode="H" horiz-adv-x="678" 
d="M586 700v-700h-34v337h-426v-337h-34v700h34v-331h426v331h34z" />
    <glyph glyph-name="Hbar" unicode="&#x126;" horiz-adv-x="692" 
d="M657 525h-64v-525h-34v337h-426v-337h-34v525h-64v32h64v143h34v-143h426v143h34v-143h64v-32zM559 525h-426v-156h426v156z" />
    <glyph glyph-name="I" unicode="I" horiz-adv-x="219" 
d="M92 700h35v-700h-35v700z" />
    <glyph glyph-name="Iacute" unicode="&#xcd;" horiz-adv-x="219" 
d="M92 700h35v-700h-35v700zM99 767l96 164h46l-113 -164h-29z" />
    <glyph glyph-name="Icircumflex" unicode="&#xce;" horiz-adv-x="219" 
d="M92 700h35v-700h-35v700zM87 903h46l120 -133h-45l-96 105h-4l-96 -105h-45z" />
    <glyph glyph-name="Idieresis" unicode="&#xcf;" horiz-adv-x="219" 
d="M92 700h35v-700h-35v700zM152 815.5q-10 10.5 -10 25.5t10 25.5t25 10.5t25.5 -11t10.5 -25q0 -15 -10.5 -25.5t-25.5 -10.5t-25 10.5zM13 815.5q-10 10.5 -10 25.5t10 25.5t25 10.5t25.5 -11t10.5 -25q0 -15 -10.5 -25.5t-25.5 -10.5t-25 10.5z" />
    <glyph glyph-name="Idotaccent" unicode="&#x130;" horiz-adv-x="219" 
d="M92 700h35v-700h-35v700zM84 815.5q-10 10.5 -10 25.5t10 25.5t25 10.5t25.5 -11t10.5 -25q0 -15 -10.5 -25.5t-25.5 -10.5t-25 10.5z" />
    <glyph glyph-name="uni1ECA" unicode="&#x1eca;" horiz-adv-x="219" 
d="M92 700h35v-700h-35v700zM82.5 -191q-10.5 11 -10.5 27q0 15 10.5 26t26.5 11t27 -11t11 -26q0 -16 -11 -27t-27 -11t-26.5 11z" />
    <glyph glyph-name="Igrave" unicode="&#xcc;" horiz-adv-x="219" 
d="M92 700h35v-700h-35v700zM-21 931h46l96 -164h-29z" />
    <glyph glyph-name="uni1EC8" unicode="&#x1ec8;" horiz-adv-x="219" 
d="M92 700h35v-700h-35v700zM126 802q19 15 28.5 26.5t9.5 27.5q0 18 -12 31.5t-40 13.5q-22 0 -34.5 -9.5t-16.5 -23.5h-34q19 63 85 63q38 0 61 -20t23 -52q0 -21 -9.5 -34t-27.5 -28q-23 -17 -27 -30h-38q6 16 32 35z" />
    <glyph glyph-name="Imacron" unicode="&#x12a;" horiz-adv-x="219" 
d="M92 700h35v-700h-35v700zM-30 836h280v-26h-280v26z" />
    <glyph glyph-name="Iogonek" unicode="&#x12e;" horiz-adv-x="219" 
d="M166 -116v-28q-22 -5 -45 -5q-38 0 -61 20t-23 52q0 53 55 86v691h35v-700q-27 -18 -42.5 -34.5t-15.5 -40.5q0 -19 13.5 -32t42.5 -13q15 0 41 4z" />
    <glyph glyph-name="Itilde" unicode="&#x128;" horiz-adv-x="219" 
d="M92 700h35v-700h-35v700zM1.5 862.5q17.5 28.5 54.5 28.5q19 0 33 -9t31 -26q15 -14 24 -20t20 -6q20 0 29.5 17t9.5 44h33q0 -33 -17.5 -61.5t-54.5 -28.5q-19 0 -32.5 8.5t-31.5 25.5q-13 13 -22.5 19.5t-21.5 6.5q-20 0 -29.5 -16.5t-9.5 -43.5h-33q0 33 17.5 61.5z
" />
    <glyph glyph-name="J" unicode="J" horiz-adv-x="327" 
d="M57 3v28q22 -5 49 -5q38 0 56.5 14.5t23 34t4.5 48.5v577h32l1 -577q0 -57 -24 -91.5t-90 -34.5q-32 0 -52 6z" />
    <glyph glyph-name="K" unicode="K" horiz-adv-x="594" 
d="M90 700h35v-336h5l310 336h52l-295 -305l332 -395h-46l-307 365l-51 -53v-312h-35v700z" />
    <glyph glyph-name="L" unicode="L" horiz-adv-x="524" 
d="M477 34v-34h-384l-1 700h35l-2 -666h352z" />
    <glyph glyph-name="Lacute" unicode="&#x139;" horiz-adv-x="524" 
d="M477 34v-34h-384l-1 700h35l-2 -666h352zM99 767l96 164h46l-113 -164h-29z" />
    <glyph glyph-name="Lcaron" unicode="&#x13d;" horiz-adv-x="524" 
d="M477 34v-34h-384l-1 700h35l-2 -666h352zM12 903l96 -105h4l96 105h45l-120 -133h-46l-120 133h45z" />
    <glyph glyph-name="M" unicode="M" horiz-adv-x="806" 
d="M92 700h48l261 -640h4l261 640h48v-700h-34v632h-4l-256 -632h-34l-256 632h-4v-632h-34v700z" />
    <glyph glyph-name="N" unicode="N" horiz-adv-x="721" 
d="M92 700h35l464 -638h4v638h34v-700h-35l-464 638h-4v-638h-34v700z" />
    <glyph glyph-name="Nacute" unicode="&#x143;" horiz-adv-x="721" 
d="M92 700h35l464 -638h4v638h34v-700h-35l-464 638h-4v-638h-34v700zM350 767l96 164h46l-113 -164h-29z" />
    <glyph glyph-name="Ncaron" unicode="&#x147;" horiz-adv-x="721" 
d="M92 700h35l464 -638h4v638h34v-700h-35l-464 638h-4v-638h-34v700zM263 903l96 -105h4l96 105h45l-120 -133h-46l-120 133h45z" />
    <glyph glyph-name="Ntilde" unicode="&#xd1;" horiz-adv-x="721" 
d="M92 700h35l464 -638h4v638h34v-700h-35l-464 638h-4v-638h-34v700zM252.5 862.5q17.5 28.5 54.5 28.5q19 0 33 -9t31 -26q15 -14 24 -20t20 -6q20 0 29.5 17t9.5 44h33q0 -33 -17.5 -61.5t-54.5 -28.5q-19 0 -32.5 8.5t-31.5 25.5q-13 13 -22.5 19.5t-21.5 6.5
q-20 0 -29.5 -16.5t-9.5 -43.5h-33q0 33 17.5 61.5z" />
    <glyph glyph-name="O" unicode="O" horiz-adv-x="745" 
d="M207 39.5q-70 44.5 -107.5 125.5t-37.5 190t37.5 190.5t108 125.5t165.5 44t165 -44t107.5 -125.5t37.5 -190.5t-37.5 -190t-107.5 -125.5t-165 -44.5q-96 0 -166 44.5zM518.5 70q62.5 40 96.5 114t34 172t-34 171.5t-96.5 113.5t-145.5 40t-146 -40t-97 -113.5
t-34 -171.5q0 -99 34 -172.5t97 -113.5t146 -40t145.5 40z" />
    <glyph glyph-name="Oacute" unicode="&#xd3;" horiz-adv-x="745" 
d="M207 39.5q-70 44.5 -107.5 125.5t-37.5 190t37.5 190.5t108 125.5t165.5 44t165 -44t107.5 -125.5t37.5 -190.5t-37.5 -190t-107.5 -125.5t-165 -44.5q-96 0 -166 44.5zM518.5 70q62.5 40 96.5 114t34 172t-34 171.5t-96.5 113.5t-145.5 40t-146 -40t-97 -113.5
t-34 -171.5q0 -99 34 -172.5t97 -113.5t146 -40t145.5 40zM362 767l96 164h46l-113 -164h-29z" />
    <glyph glyph-name="Ocircumflex" unicode="&#xd4;" horiz-adv-x="745" 
d="M207 39.5q-70 44.5 -107.5 125.5t-37.5 190t37.5 190.5t108 125.5t165.5 44t165 -44t107.5 -125.5t37.5 -190.5t-37.5 -190t-107.5 -125.5t-165 -44.5q-96 0 -166 44.5zM518.5 70q62.5 40 96.5 114t34 172t-34 171.5t-96.5 113.5t-145.5 40t-146 -40t-97 -113.5
t-34 -171.5q0 -99 34 -172.5t97 -113.5t146 -40t145.5 40zM350 903h46l120 -133h-45l-96 105h-4l-96 -105h-45z" />
    <glyph glyph-name="uni1ED0" unicode="&#x1ed0;" horiz-adv-x="745" 
d="M207 39.5q-70 44.5 -107.5 125.5t-37.5 190t37.5 190.5t108 125.5t165.5 44t165 -44t107.5 -125.5t37.5 -190.5t-37.5 -190t-107.5 -125.5t-165 -44.5q-96 0 -166 44.5zM518.5 70q62.5 40 96.5 114t34 172t-34 171.5t-96.5 113.5t-145.5 40t-146 -40t-97 -113.5
t-34 -171.5q0 -99 34 -172.5t97 -113.5t146 -40t145.5 40zM350 903h46l120 -133h-45l-96 105h-4l-96 -105h-45zM482 890l96 164h46l-113 -164h-29z" />
    <glyph glyph-name="uni1ED8" unicode="&#x1ed8;" horiz-adv-x="745" 
d="M207 39.5q-70 44.5 -107.5 125.5t-37.5 190t37.5 190.5t108 125.5t165.5 44t165 -44t107.5 -125.5t37.5 -190.5t-37.5 -190t-107.5 -125.5t-165 -44.5q-96 0 -166 44.5zM518.5 70q62.5 40 96.5 114t34 172t-34 171.5t-96.5 113.5t-145.5 40t-146 -40t-97 -113.5
t-34 -171.5q0 -99 34 -172.5t97 -113.5t146 -40t145.5 40zM345.5 -191q-10.5 11 -10.5 27q0 15 10.5 26t26.5 11t27 -11t11 -26q0 -16 -11 -27t-27 -11t-26.5 11zM350 903h46l120 -133h-45l-96 105h-4l-96 -105h-45z" />
    <glyph glyph-name="uni1ED2" unicode="&#x1ed2;" horiz-adv-x="745" 
d="M207 39.5q-70 44.5 -107.5 125.5t-37.5 190t37.5 190.5t108 125.5t165.5 44t165 -44t107.5 -125.5t37.5 -190.5t-37.5 -190t-107.5 -125.5t-165 -44.5q-96 0 -166 44.5zM518.5 70q62.5 40 96.5 114t34 172t-34 171.5t-96.5 113.5t-145.5 40t-146 -40t-97 -113.5
t-34 -171.5q0 -99 34 -172.5t97 -113.5t146 -40t145.5 40zM350 903h46l120 -133h-45l-96 105h-4l-96 -105h-45zM362 1054h46l96 -164h-29z" />
    <glyph glyph-name="uni1ED4" unicode="&#x1ed4;" horiz-adv-x="745" 
d="M207 39.5q-70 44.5 -107.5 125.5t-37.5 190t37.5 190.5t108 125.5t165.5 44t165 -44t107.5 -125.5t37.5 -190.5t-37.5 -190t-107.5 -125.5t-165 -44.5q-96 0 -166 44.5zM518.5 70q62.5 40 96.5 114t34 172t-34 171.5t-96.5 113.5t-145.5 40t-146 -40t-97 -113.5
t-34 -171.5q0 -99 34 -172.5t97 -113.5t146 -40t145.5 40zM350 903h46l120 -133h-45l-96 105h-4l-96 -105h-45zM509 925q19 15 28.5 26.5t9.5 27.5q0 18 -12 31.5t-40 13.5q-22 0 -34.5 -9.5t-16.5 -23.5h-34q19 63 85 63q38 0 61 -20t23 -52q0 -21 -9.5 -34t-27.5 -28
q-23 -17 -27 -30h-38q6 16 32 35z" />
    <glyph glyph-name="uni1ED6" unicode="&#x1ed6;" horiz-adv-x="745" 
d="M207 39.5q-70 44.5 -107.5 125.5t-37.5 190t37.5 190.5t108 125.5t165.5 44t165 -44t107.5 -125.5t37.5 -190.5t-37.5 -190t-107.5 -125.5t-165 -44.5q-96 0 -166 44.5zM518.5 70q62.5 40 96.5 114t34 172t-34 171.5t-96.5 113.5t-145.5 40t-146 -40t-97 -113.5
t-34 -171.5q0 -99 34 -172.5t97 -113.5t146 -40t145.5 40zM350 903h46l120 -133h-45l-96 105h-4l-96 -105h-45zM268.5 997.5q17.5 28.5 54.5 28.5q19 0 33 -9t31 -26q15 -14 24 -20t20 -6q20 0 29.5 17t9.5 44h33q0 -33 -17.5 -61.5t-54.5 -28.5q-19 0 -32.5 8.5t-31.5 25.5
q-13 13 -22.5 19.5t-21.5 6.5q-20 0 -29.5 -16.5t-9.5 -43.5h-33q0 33 17.5 61.5z" />
    <glyph glyph-name="Odieresis" unicode="&#xd6;" horiz-adv-x="745" 
d="M207 39.5q-70 44.5 -107.5 125.5t-37.5 190t37.5 190.5t108 125.5t165.5 44t165 -44t107.5 -125.5t37.5 -190.5t-37.5 -190t-107.5 -125.5t-165 -44.5q-96 0 -166 44.5zM518.5 70q62.5 40 96.5 114t34 172t-34 171.5t-96.5 113.5t-145.5 40t-146 -40t-97 -113.5
t-34 -171.5q0 -99 34 -172.5t97 -113.5t146 -40t145.5 40zM415 815.5q-10 10.5 -10 25.5t10 25.5t25 10.5t25.5 -11t10.5 -25q0 -15 -10.5 -25.5t-25.5 -10.5t-25 10.5zM276 815.5q-10 10.5 -10 25.5t10 25.5t25 10.5t25.5 -11t10.5 -25q0 -15 -10.5 -25.5t-25.5 -10.5
t-25 10.5z" />
    <glyph glyph-name="uni1ECC" unicode="&#x1ecc;" horiz-adv-x="745" 
d="M207 39.5q-70 44.5 -107.5 125.5t-37.5 190t37.5 190.5t108 125.5t165.5 44t165 -44t107.5 -125.5t37.5 -190.5t-37.5 -190t-107.5 -125.5t-165 -44.5q-96 0 -166 44.5zM518.5 70q62.5 40 96.5 114t34 172t-34 171.5t-96.5 113.5t-145.5 40t-146 -40t-97 -113.5
t-34 -171.5q0 -99 34 -172.5t97 -113.5t146 -40t145.5 40zM345.5 -191q-10.5 11 -10.5 27q0 15 10.5 26t26.5 11t27 -11t11 -26q0 -16 -11 -27t-27 -11t-26.5 11z" />
    <glyph glyph-name="Ograve" unicode="&#xd2;" horiz-adv-x="745" 
d="M207 39.5q-70 44.5 -107.5 125.5t-37.5 190t37.5 190.5t108 125.5t165.5 44t165 -44t107.5 -125.5t37.5 -190.5t-37.5 -190t-107.5 -125.5t-165 -44.5q-96 0 -166 44.5zM518.5 70q62.5 40 96.5 114t34 172t-34 171.5t-96.5 113.5t-145.5 40t-146 -40t-97 -113.5
t-34 -171.5q0 -99 34 -172.5t97 -113.5t146 -40t145.5 40zM242 931h46l96 -164h-29z" />
    <glyph glyph-name="uni1ECE" unicode="&#x1ece;" horiz-adv-x="745" 
d="M207 39.5q-70 44.5 -107.5 125.5t-37.5 190t37.5 190.5t108 125.5t165.5 44t165 -44t107.5 -125.5t37.5 -190.5t-37.5 -190t-107.5 -125.5t-165 -44.5q-96 0 -166 44.5zM518.5 70q62.5 40 96.5 114t34 172t-34 171.5t-96.5 113.5t-145.5 40t-146 -40t-97 -113.5
t-34 -171.5q0 -99 34 -172.5t97 -113.5t146 -40t145.5 40zM389 802q19 15 28.5 26.5t9.5 27.5q0 18 -12 31.5t-40 13.5q-22 0 -34.5 -9.5t-16.5 -23.5h-34q19 63 85 63q38 0 61 -20t23 -52q0 -21 -9.5 -34t-27.5 -28q-23 -17 -27 -30h-38q6 16 32 35z" />
    <glyph glyph-name="Ohorn" unicode="&#x1a0;" horiz-adv-x="745" 
d="M645.5 545.5q37.5 -81.5 37.5 -190.5t-37.5 -190t-107.5 -125.5t-165 -44.5q-96 0 -166 44.5t-107.5 125.5t-37.5 190t37.5 190.5t108 125.5t165.5 44q56 0 102 -15h46q25 0 35 12t10 51v16h39v-16q0 -86 -66 -93q69 -43 106.5 -124.5zM518.5 70q62.5 40 96.5 114t34 172
t-34 171.5t-96.5 113.5t-145.5 40t-146 -40t-97 -113.5t-34 -171.5q0 -99 34 -172.5t97 -113.5t146 -40t145.5 40z" />
    <glyph glyph-name="uni1EDA" unicode="&#x1eda;" horiz-adv-x="745" 
d="M645.5 545.5q37.5 -81.5 37.5 -190.5t-37.5 -190t-107.5 -125.5t-165 -44.5q-96 0 -166 44.5t-107.5 125.5t-37.5 190t37.5 190.5t108 125.5t165.5 44q56 0 102 -15h46q25 0 35 12t10 51v16h39v-16q0 -86 -66 -93q69 -43 106.5 -124.5zM518.5 70q62.5 40 96.5 114t34 172
t-34 171.5t-96.5 113.5t-145.5 40t-146 -40t-97 -113.5t-34 -171.5q0 -99 34 -172.5t97 -113.5t146 -40t145.5 40zM362 767l96 164h46l-113 -164h-29z" />
    <glyph glyph-name="uni1EE2" unicode="&#x1ee2;" horiz-adv-x="745" 
d="M645.5 545.5q37.5 -81.5 37.5 -190.5t-37.5 -190t-107.5 -125.5t-165 -44.5q-96 0 -166 44.5t-107.5 125.5t-37.5 190t37.5 190.5t108 125.5t165.5 44q56 0 102 -15h46q25 0 35 12t10 51v16h39v-16q0 -86 -66 -93q69 -43 106.5 -124.5zM518.5 70q62.5 40 96.5 114t34 172
t-34 171.5t-96.5 113.5t-145.5 40t-146 -40t-97 -113.5t-34 -171.5q0 -99 34 -172.5t97 -113.5t146 -40t145.5 40zM345.5 -191q-10.5 11 -10.5 27q0 15 10.5 26t26.5 11t27 -11t11 -26q0 -16 -11 -27t-27 -11t-26.5 11z" />
    <glyph glyph-name="uni1EDC" unicode="&#x1edc;" horiz-adv-x="745" 
d="M645.5 545.5q37.5 -81.5 37.5 -190.5t-37.5 -190t-107.5 -125.5t-165 -44.5q-96 0 -166 44.5t-107.5 125.5t-37.5 190t37.5 190.5t108 125.5t165.5 44q56 0 102 -15h46q25 0 35 12t10 51v16h39v-16q0 -86 -66 -93q69 -43 106.5 -124.5zM518.5 70q62.5 40 96.5 114t34 172
t-34 171.5t-96.5 113.5t-145.5 40t-146 -40t-97 -113.5t-34 -171.5q0 -99 34 -172.5t97 -113.5t146 -40t145.5 40zM242 931h46l96 -164h-29z" />
    <glyph glyph-name="uni1EDE" unicode="&#x1ede;" horiz-adv-x="745" 
d="M645.5 545.5q37.5 -81.5 37.5 -190.5t-37.5 -190t-107.5 -125.5t-165 -44.5q-96 0 -166 44.5t-107.5 125.5t-37.5 190t37.5 190.5t108 125.5t165.5 44q56 0 102 -15h46q25 0 35 12t10 51v16h39v-16q0 -86 -66 -93q69 -43 106.5 -124.5zM518.5 70q62.5 40 96.5 114t34 172
t-34 171.5t-96.5 113.5t-145.5 40t-146 -40t-97 -113.5t-34 -171.5q0 -99 34 -172.5t97 -113.5t146 -40t145.5 40zM389 802q19 15 28.5 26.5t9.5 27.5q0 18 -12 31.5t-40 13.5q-22 0 -34.5 -9.5t-16.5 -23.5h-34q19 63 85 63q38 0 61 -20t23 -52q0 -21 -9.5 -34t-27.5 -28
q-23 -17 -27 -30h-38q6 16 32 35z" />
    <glyph glyph-name="uni1EE0" unicode="&#x1ee0;" horiz-adv-x="745" 
d="M645.5 545.5q37.5 -81.5 37.5 -190.5t-37.5 -190t-107.5 -125.5t-165 -44.5q-96 0 -166 44.5t-107.5 125.5t-37.5 190t37.5 190.5t108 125.5t165.5 44q56 0 102 -15h46q25 0 35 12t10 51v16h39v-16q0 -86 -66 -93q69 -43 106.5 -124.5zM518.5 70q62.5 40 96.5 114t34 172
t-34 171.5t-96.5 113.5t-145.5 40t-146 -40t-97 -113.5t-34 -171.5q0 -99 34 -172.5t97 -113.5t146 -40t145.5 40zM264.5 862.5q17.5 28.5 54.5 28.5q19 0 33 -9t31 -26q15 -14 24 -20t20 -6q20 0 29.5 17t9.5 44h33q0 -33 -17.5 -61.5t-54.5 -28.5q-19 0 -32.5 8.5
t-31.5 25.5q-13 13 -22.5 19.5t-21.5 6.5q-20 0 -29.5 -16.5t-9.5 -43.5h-33q0 33 17.5 61.5z" />
    <glyph glyph-name="Omacron" unicode="&#x14c;" horiz-adv-x="745" 
d="M207 39.5q-70 44.5 -107.5 125.5t-37.5 190t37.5 190.5t108 125.5t165.5 44t165 -44t107.5 -125.5t37.5 -190.5t-37.5 -190t-107.5 -125.5t-165 -44.5q-96 0 -166 44.5zM518.5 70q62.5 40 96.5 114t34 172t-34 171.5t-96.5 113.5t-145.5 40t-146 -40t-97 -113.5
t-34 -171.5q0 -99 34 -172.5t97 -113.5t146 -40t145.5 40zM233 836h280v-26h-280v26z" />
    <glyph glyph-name="Oslash" unicode="&#xd8;" horiz-adv-x="744" 
d="M655 520.5q27 -72.5 27 -165.5q0 -109 -37.5 -190t-107.5 -125.5t-165 -44.5q-102 0 -176 51l-57 -89h-37l69 108q-53 47 -81.5 121.5t-28.5 168.5q0 109 37.5 190.5t108 125.5t165.5 44q106 0 181 -55l53 83h37l-66 -103q51 -47 78 -119.5zM120 205.5
q25 -66.5 71 -108.5l343 533q-68 51 -162 51q-83 0 -146 -40t-97 -113.5t-34 -171.5q0 -84 25 -150.5zM517.5 70q62.5 40 96.5 114t34 172q0 82 -23.5 146.5t-67.5 106.5l-341 -532q65 -47 156 -47q83 0 145.5 40z" />
    <glyph glyph-name="Otilde" unicode="&#xd5;" horiz-adv-x="745" 
d="M207 39.5q-70 44.5 -107.5 125.5t-37.5 190t37.5 190.5t108 125.5t165.5 44t165 -44t107.5 -125.5t37.5 -190.5t-37.5 -190t-107.5 -125.5t-165 -44.5q-96 0 -166 44.5zM518.5 70q62.5 40 96.5 114t34 172t-34 171.5t-96.5 113.5t-145.5 40t-146 -40t-97 -113.5
t-34 -171.5q0 -99 34 -172.5t97 -113.5t146 -40t145.5 40zM264.5 862.5q17.5 28.5 54.5 28.5q19 0 33 -9t31 -26q15 -14 24 -20t20 -6q20 0 29.5 17t9.5 44h33q0 -33 -17.5 -61.5t-54.5 -28.5q-19 0 -32.5 8.5t-31.5 25.5q-13 13 -22.5 19.5t-21.5 6.5q-20 0 -29.5 -16.5
t-9.5 -43.5h-33q0 33 17.5 61.5z" />
    <glyph glyph-name="OE" unicode="&#x152;" horiz-adv-x="956" 
d="M195 43q-70 43 -107.5 122t-37.5 185t37.5 185t108 122t165.5 43h516v-34h-366v-291h331v-32h-331v-309h366v-34h-516q-96 0 -166 43zM477 33v634h-116q-83 0 -146 -39t-97 -110.5t-34 -166.5q0 -96 34 -168t97 -111t146 -39h116z" />
    <glyph glyph-name="P" unicode="P" horiz-adv-x="584" 
d="M448 666.5q52 -33.5 73 -83t21 -102.5t-21 -102.5t-73 -83t-139 -33.5h-185v-262h-32v700h217q87 0 139 -33.5zM451 338q58 42 58 143t-58 143t-142 42h-185v-370h185q84 0 142 42z" />
    <glyph glyph-name="Thorn" unicode="&#xde;" horiz-adv-x="584" 
d="M448 535.5q52 -33.5 73 -83t21 -102.5t-21 -102.5t-73 -83t-139 -33.5h-185v-131h-32v700h32v-131h185q87 0 139 -33.5zM451 207q58 42 58 143t-58 143t-142 42h-185v-370h185q84 0 142 42z" />
    <glyph glyph-name="Q" unicode="Q" horiz-adv-x="743" 
d="M652 180.5q-31 -76.5 -88 -123.5l102 -124h-44l-86 105q-71 -43 -163 -43q-96 0 -166 44.5t-107.5 125.5t-37.5 190t37.5 190.5t108 125.5t165.5 44t165 -44t107.5 -125.5t37.5 -190.5q0 -98 -31 -174.5zM512 66l-162 197h44l146 -177q52 42 80.5 111t28.5 159
q0 98 -34 171.5t-96.5 113.5t-145.5 40t-146 -40t-97 -113.5t-34 -171.5q0 -99 34 -172.5t97 -113.5t146 -40q78 0 139 36z" />
    <glyph glyph-name="R" unicode="R" horiz-adv-x="603" 
d="M492 369q-50 -59 -167 -64l216 -305h-44l-214 305h-157v-305h-34v700h217q87 0 139 -30.5t73 -75t21 -91.5q0 -75 -50 -134zM126 339h183q83 0 141.5 37t58.5 127q0 89 -58.5 126t-141.5 37h-183v-327z" />
    <glyph glyph-name="Racute" unicode="&#x154;" horiz-adv-x="603" 
d="M492 369q-50 -59 -167 -64l216 -305h-44l-214 305h-157v-305h-34v700h217q87 0 139 -30.5t73 -75t21 -91.5q0 -75 -50 -134zM126 339h183q83 0 141.5 37t58.5 127q0 89 -58.5 126t-141.5 37h-183v-327zM266 767l96 164h46l-113 -164h-29z" />
    <glyph glyph-name="Rcaron" unicode="&#x158;" horiz-adv-x="603" 
d="M492 369q-50 -59 -167 -64l216 -305h-44l-214 305h-157v-305h-34v700h217q87 0 139 -30.5t73 -75t21 -91.5q0 -75 -50 -134zM126 339h183q83 0 141.5 37t58.5 127q0 89 -58.5 126t-141.5 37h-183v-327zM179 903l96 -105h4l96 105h45l-120 -133h-46l-120 133h45z" />
    <glyph glyph-name="S" unicode="S" horiz-adv-x="595" 
d="M169 27q-55 34 -82 87t-27 110v2h38v-3q0 -43 20.5 -88t66.5 -75.5t118 -30.5q84 0 140 43t56 118q0 60 -38.5 95t-99.5 47l-118 22q-56 10 -110 45t-54 126q0 56 26.5 99t75.5 67t114 24q74 0 126.5 -31t78.5 -80t26 -102v-2h-38v2q0 38 -18 78.5t-61.5 70t-113.5 29.5
q-55 0 -96 -21t-62.5 -57t-21.5 -79q0 -52 32 -86.5t94 -46.5l100 -19q76 -14 135 -51.5t59 -127.5q0 -57 -28 -102t-81 -71t-123 -26q-79 0 -134 34z" />
    <glyph glyph-name="Sacute" unicode="&#x15a;" horiz-adv-x="595" 
d="M169 27q-55 34 -82 87t-27 110v2h38v-3q0 -43 20.5 -88t66.5 -75.5t118 -30.5q84 0 140 43t56 118q0 60 -38.5 95t-99.5 47l-118 22q-56 10 -110 45t-54 126q0 56 26.5 99t75.5 67t114 24q74 0 126.5 -31t78.5 -80t26 -102v-2h-38v2q0 38 -18 78.5t-61.5 70t-113.5 29.5
q-55 0 -96 -21t-62.5 -57t-21.5 -79q0 -52 32 -86.5t94 -46.5l100 -19q76 -14 135 -51.5t59 -127.5q0 -57 -28 -102t-81 -71t-123 -26q-79 0 -134 34zM287 767l96 164h46l-113 -164h-29z" />
    <glyph glyph-name="Scaron" unicode="&#x160;" horiz-adv-x="595" 
d="M169 27q-55 34 -82 87t-27 110v2h38v-3q0 -43 20.5 -88t66.5 -75.5t118 -30.5q84 0 140 43t56 118q0 60 -38.5 95t-99.5 47l-118 22q-56 10 -110 45t-54 126q0 56 26.5 99t75.5 67t114 24q74 0 126.5 -31t78.5 -80t26 -102v-2h-38v2q0 38 -18 78.5t-61.5 70t-113.5 29.5
q-55 0 -96 -21t-62.5 -57t-21.5 -79q0 -52 32 -86.5t94 -46.5l100 -19q76 -14 135 -51.5t59 -127.5q0 -57 -28 -102t-81 -71t-123 -26q-79 0 -134 34zM200 903l96 -105h4l96 105h45l-120 -133h-46l-120 133h45z" />
    <glyph glyph-name="Scedilla" unicode="&#x15e;" horiz-adv-x="595" 
d="M508.5 92.5q-26.5 -44.5 -76.5 -71t-117 -28.5l-23 -65h36q47 0 70.5 -22t23.5 -58q0 -39 -29.5 -68.5t-85.5 -29.5q-24 0 -46 5l2 30q26 -4 47 -4q38 0 59 17.5t21 46.5q0 33 -21.5 42.5t-44.5 9.5h-76v4l33 93q-72 5 -122 39.5t-74.5 85.5t-24.5 105v2h38v-3
q0 -43 20.5 -88t66.5 -75.5t118 -30.5q84 0 140 43t56 118q0 60 -38.5 95t-99.5 47l-118 22q-56 10 -110 45t-54 126q0 56 26.5 99t75.5 67t114 24q74 0 126.5 -31t78.5 -80t26 -102v-2h-38v2q0 38 -18 78.5t-61.5 70t-113.5 29.5q-55 0 -96 -21t-62.5 -57t-21.5 -79
q0 -52 32 -86.5t94 -46.5l100 -19q76 -14 135 -51.5t59 -127.5q0 -55 -26.5 -99.5z" />
    <glyph glyph-name="T" unicode="T" horiz-adv-x="585" 
d="M532 666h-223v-666h-34v666h-223v34h480v-34z" />
    <glyph glyph-name="Tbar" unicode="&#x166;" horiz-adv-x="584" 
d="M309 666v-241h183v-34h-183v-391h-34v391h-183v34h183v241h-223v34h480v-34h-223z" />
    <glyph glyph-name="Tcaron" unicode="&#x164;" horiz-adv-x="585" 
d="M532 666h-223v-666h-34v666h-223v34h480v-34zM195 903l96 -105h4l96 105h45l-120 -133h-46l-120 133h45z" />
    <glyph glyph-name="uni0162" unicode="&#x162;" horiz-adv-x="585" 
d="M532 666h-223v-666h-34v666h-223v34h480v-34zM361 -200.5q21 17.5 21 46.5q0 33 -22 42.5t-44 9.5h-76v4l35 98h34l-25 -71h36q47 0 70.5 -22t23.5 -58q0 -39 -29.5 -68.5t-85.5 -29.5q-24 0 -46 5l2 30q26 -4 47 -4q38 0 59 17.5z" />
    <glyph glyph-name="U" unicode="U" horiz-adv-x="683" 
d="M138.5 78.5q-63.5 87.5 -63.5 231.5v390h33v-394q0 -95 43.5 -188t191.5 -93q145 0 188 92t43 189v394h33v-390q0 -145 -63 -232t-201 -87q-141 0 -204.5 87.5z" />
    <glyph glyph-name="Uacute" unicode="&#xda;" horiz-adv-x="683" 
d="M138.5 78.5q-63.5 87.5 -63.5 231.5v390h33v-394q0 -95 43.5 -188t191.5 -93q145 0 188 92t43 189v394h33v-390q0 -145 -63 -232t-201 -87q-141 0 -204.5 87.5zM332 767l96 164h46l-113 -164h-29z" />
    <glyph glyph-name="Ucircumflex" unicode="&#xdb;" horiz-adv-x="683" 
d="M138.5 78.5q-63.5 87.5 -63.5 231.5v390h33v-394q0 -95 43.5 -188t191.5 -93q145 0 188 92t43 189v394h33v-390q0 -145 -63 -232t-201 -87q-141 0 -204.5 87.5zM320 903h46l120 -133h-45l-96 105h-4l-96 -105h-45z" />
    <glyph glyph-name="Udieresis" unicode="&#xdc;" horiz-adv-x="683" 
d="M138.5 78.5q-63.5 87.5 -63.5 231.5v390h33v-394q0 -95 43.5 -188t191.5 -93q145 0 188 92t43 189v394h33v-390q0 -145 -63 -232t-201 -87q-141 0 -204.5 87.5zM385 815.5q-10 10.5 -10 25.5t10 25.5t25 10.5t25.5 -11t10.5 -25q0 -15 -10.5 -25.5t-25.5 -10.5t-25 10.5z
M246 815.5q-10 10.5 -10 25.5t10 25.5t25 10.5t25.5 -11t10.5 -25q0 -15 -10.5 -25.5t-25.5 -10.5t-25 10.5z" />
    <glyph glyph-name="uni1EE4" unicode="&#x1ee4;" horiz-adv-x="683" 
d="M138.5 78.5q-63.5 87.5 -63.5 231.5v390h33v-394q0 -95 43.5 -188t191.5 -93q145 0 188 92t43 189v394h33v-390q0 -145 -63 -232t-201 -87q-141 0 -204.5 87.5zM316.5 -191q-10.5 11 -10.5 27q0 15 10.5 26t26.5 11t27 -11t11 -26q0 -16 -11 -27t-27 -11t-26.5 11z" />
    <glyph glyph-name="Ugrave" unicode="&#xd9;" horiz-adv-x="683" 
d="M138.5 78.5q-63.5 87.5 -63.5 231.5v390h33v-394q0 -95 43.5 -188t191.5 -93q145 0 188 92t43 189v394h33v-390q0 -145 -63 -232t-201 -87q-141 0 -204.5 87.5zM212 931h46l96 -164h-29z" />
    <glyph glyph-name="uni1EE6" unicode="&#x1ee6;" horiz-adv-x="683" 
d="M138.5 78.5q-63.5 87.5 -63.5 231.5v390h33v-394q0 -95 43.5 -188t191.5 -93q145 0 188 92t43 189v394h33v-390q0 -145 -63 -232t-201 -87q-141 0 -204.5 87.5zM359 802q19 15 28.5 26.5t9.5 27.5q0 18 -12 31.5t-40 13.5q-22 0 -34.5 -9.5t-16.5 -23.5h-34q19 63 85 63
q38 0 61 -20t23 -52q0 -21 -9.5 -34t-27.5 -28q-23 -17 -27 -30h-38q6 16 32 35z" />
    <glyph glyph-name="Uhorn" unicode="&#x1af;" horiz-adv-x="683" 
d="M710 779v-16q0 -93 -77 -93h-26v-360q0 -145 -63 -232t-201 -87q-141 0 -204.5 87.5t-63.5 231.5v390h33v-394q0 -95 43.5 -188t191.5 -93q145 0 188 92t43 189v394h52q25 0 35 12t10 51v16h39z" />
    <glyph glyph-name="uni1EE8" unicode="&#x1ee8;" horiz-adv-x="683" 
d="M710 779v-16q0 -93 -77 -93h-26v-360q0 -145 -63 -232t-201 -87q-141 0 -204.5 87.5t-63.5 231.5v390h33v-394q0 -95 43.5 -188t191.5 -93q145 0 188 92t43 189v394h52q25 0 35 12t10 51v16h39zM332 767l96 164h46l-113 -164h-29z" />
    <glyph glyph-name="uni1EF0" unicode="&#x1ef0;" horiz-adv-x="683" 
d="M710 779v-16q0 -93 -77 -93h-26v-360q0 -145 -63 -232t-201 -87q-141 0 -204.5 87.5t-63.5 231.5v390h33v-394q0 -95 43.5 -188t191.5 -93q145 0 188 92t43 189v394h52q25 0 35 12t10 51v16h39zM316.5 -191q-10.5 11 -10.5 27q0 15 10.5 26t26.5 11t27 -11t11 -26
q0 -16 -11 -27t-27 -11t-26.5 11z" />
    <glyph glyph-name="uni1EEA" unicode="&#x1eea;" horiz-adv-x="683" 
d="M710 779v-16q0 -93 -77 -93h-26v-360q0 -145 -63 -232t-201 -87q-141 0 -204.5 87.5t-63.5 231.5v390h33v-394q0 -95 43.5 -188t191.5 -93q145 0 188 92t43 189v394h52q25 0 35 12t10 51v16h39zM212 931h46l96 -164h-29z" />
    <glyph glyph-name="uni1EEC" unicode="&#x1eec;" horiz-adv-x="683" 
d="M710 779v-16q0 -93 -77 -93h-26v-360q0 -145 -63 -232t-201 -87q-141 0 -204.5 87.5t-63.5 231.5v390h33v-394q0 -95 43.5 -188t191.5 -93q145 0 188 92t43 189v394h52q25 0 35 12t10 51v16h39zM359 802q19 15 28.5 26.5t9.5 27.5q0 18 -12 31.5t-40 13.5
q-22 0 -34.5 -9.5t-16.5 -23.5h-34q19 63 85 63q38 0 61 -20t23 -52q0 -21 -9.5 -34t-27.5 -28q-23 -17 -27 -30h-38q6 16 32 35z" />
    <glyph glyph-name="uni1EEE" unicode="&#x1eee;" horiz-adv-x="683" 
d="M710 779v-16q0 -93 -77 -93h-26v-360q0 -145 -63 -232t-201 -87q-141 0 -204.5 87.5t-63.5 231.5v390h33v-394q0 -95 43.5 -188t191.5 -93q145 0 188 92t43 189v394h52q25 0 35 12t10 51v16h39zM234.5 862.5q17.5 28.5 54.5 28.5q19 0 33 -9t31 -26q15 -14 24 -20t20 -6
q20 0 29.5 17t9.5 44h33q0 -33 -17.5 -61.5t-54.5 -28.5q-19 0 -32.5 8.5t-31.5 25.5q-13 13 -22.5 19.5t-21.5 6.5q-20 0 -29.5 -16.5t-9.5 -43.5h-33q0 33 17.5 61.5z" />
    <glyph glyph-name="Umacron" unicode="&#x16a;" horiz-adv-x="683" 
d="M138.5 78.5q-63.5 87.5 -63.5 231.5v390h33v-394q0 -95 43.5 -188t191.5 -93q145 0 188 92t43 189v394h33v-390q0 -145 -63 -232t-201 -87q-141 0 -204.5 87.5zM203 836h280v-26h-280v26z" />
    <glyph glyph-name="Uogonek" unicode="&#x172;" horiz-adv-x="683" 
d="M607 700v-390q0 -139 -57.5 -224.5t-183.5 -93.5l1 -1q-27 -18 -42.5 -34.5t-15.5 -40.5q0 -19 13.5 -32t42.5 -13q15 0 41 4v-28q-22 -5 -45 -5q-38 0 -61 20t-23 52q0 44 42 78q-128 8 -186 94t-58 224v390h33v-394q0 -95 43.5 -188t191.5 -93q145 0 188 92t43 189v394
h33z" />
    <glyph glyph-name="Uring" unicode="&#x16e;" horiz-adv-x="683" 
d="M138.5 78.5q-63.5 87.5 -63.5 231.5v390h33v-394q0 -95 43.5 -188t191.5 -93q145 0 188 92t43 189v394h33v-390q0 -145 -63 -232t-201 -87q-141 0 -204.5 87.5zM289 821.5q-22 22.5 -22 53.5t22 53t53 22t53.5 -22t22.5 -53t-22.5 -53.5t-53.5 -22.5t-53 22.5z
M379.5 837.5q15.5 15.5 15.5 37.5t-15.5 37t-37.5 15t-37 -15t-15 -37t15 -37.5t37 -15.5t37.5 15.5z" />
    <glyph glyph-name="Utilde" unicode="&#x168;" horiz-adv-x="683" 
d="M138.5 78.5q-63.5 87.5 -63.5 231.5v390h33v-394q0 -95 43.5 -188t191.5 -93q145 0 188 92t43 189v394h33v-390q0 -145 -63 -232t-201 -87q-141 0 -204.5 87.5zM234.5 862.5q17.5 28.5 54.5 28.5q19 0 33 -9t31 -26q15 -14 24 -20t20 -6q20 0 29.5 17t9.5 44h33
q0 -33 -17.5 -61.5t-54.5 -28.5q-19 0 -32.5 8.5t-31.5 25.5q-13 13 -22.5 19.5t-21.5 6.5q-20 0 -29.5 -16.5t-9.5 -43.5h-33q0 33 17.5 61.5z" />
    <glyph glyph-name="V" unicode="V" horiz-adv-x="610" 
d="M18 700h36l248 -673h6l248 673h36l-257 -700h-60z" />
    <glyph glyph-name="W" unicode="W" horiz-adv-x="990" 
d="M18 700h35l190 -674h6l229 674h35l228 -674h6l190 674h34l-195 -700h-61l-217 647h-6l-217 -647h-61z" />
    <glyph glyph-name="Wacute" unicode="&#x1e82;" horiz-adv-x="990" 
d="M18 700h35l190 -674h6l229 674h35l228 -674h6l190 674h34l-195 -700h-61l-217 647h-6l-217 -647h-61zM484 767l96 164h46l-113 -164h-29z" />
    <glyph glyph-name="Wcircumflex" unicode="&#x174;" horiz-adv-x="990" 
d="M18 700h35l190 -674h6l229 674h35l228 -674h6l190 674h34l-195 -700h-61l-217 647h-6l-217 -647h-61zM472 903h46l120 -133h-45l-96 105h-4l-96 -105h-45z" />
    <glyph glyph-name="Wdieresis" unicode="&#x1e84;" horiz-adv-x="990" 
d="M18 700h35l190 -674h6l229 674h35l228 -674h6l190 674h34l-195 -700h-61l-217 647h-6l-217 -647h-61zM537 815.5q-10 10.5 -10 25.5t10 25.5t25 10.5t25.5 -11t10.5 -25q0 -15 -10.5 -25.5t-25.5 -10.5t-25 10.5zM398 815.5q-10 10.5 -10 25.5t10 25.5t25 10.5t25.5 -11
t10.5 -25q0 -15 -10.5 -25.5t-25.5 -10.5t-25 10.5z" />
    <glyph glyph-name="Wgrave" unicode="&#x1e80;" horiz-adv-x="990" 
d="M18 700h35l190 -674h6l229 674h35l228 -674h6l190 674h34l-195 -700h-61l-217 647h-6l-217 -647h-61zM364 931h46l96 -164h-29z" />
    <glyph glyph-name="X" unicode="X" horiz-adv-x="640" 
d="M291 350l-238 350h41l225 -326h6l221 326h43l-236 -350l236 -350h-43l-221 325h-6l-225 -325h-42z" />
    <glyph glyph-name="Y" unicode="Y" horiz-adv-x="585" 
d="M270 -1v265l-227 436h43l198 -383h8l195 383h43l-225 -436v-264z" />
    <glyph glyph-name="Yacute" unicode="&#xdd;" horiz-adv-x="585" 
d="M270 -1v265l-227 436h43l198 -383h8l195 383h43l-225 -436v-264zM277 767l96 164h46l-113 -164h-29z" />
    <glyph glyph-name="Ycircumflex" unicode="&#x176;" horiz-adv-x="585" 
d="M270 -1v265l-227 436h43l198 -383h8l195 383h43l-225 -436v-264zM265 903h46l120 -133h-45l-96 105h-4l-96 -105h-45z" />
    <glyph glyph-name="Ydieresis" unicode="&#x178;" horiz-adv-x="585" 
d="M270 -1v265l-227 436h43l198 -383h8l195 383h43l-225 -436v-264zM330 815.5q-10 10.5 -10 25.5t10 25.5t25 10.5t25.5 -11t10.5 -25q0 -15 -10.5 -25.5t-25.5 -10.5t-25 10.5zM191 815.5q-10 10.5 -10 25.5t10 25.5t25 10.5t25.5 -11t10.5 -25q0 -15 -10.5 -25.5
t-25.5 -10.5t-25 10.5z" />
    <glyph glyph-name="uni1EF4" unicode="&#x1ef4;" horiz-adv-x="585" 
d="M270 -1v265l-227 436h43l198 -383h8l195 383h43l-225 -436v-264zM260.5 -191q-10.5 11 -10.5 27q0 15 10.5 26t26.5 11t27 -11t11 -26q0 -16 -11 -27t-27 -11t-26.5 11z" />
    <glyph glyph-name="Ygrave" unicode="&#x1ef2;" horiz-adv-x="585" 
d="M270 -1v265l-227 436h43l198 -383h8l195 383h43l-225 -436v-264zM157 931h46l96 -164h-29z" />
    <glyph glyph-name="uni1EF6" unicode="&#x1ef6;" horiz-adv-x="585" 
d="M270 -1v265l-227 436h43l198 -383h8l195 383h43l-225 -436v-264zM304 802q19 15 28.5 26.5t9.5 27.5q0 18 -12 31.5t-40 13.5q-22 0 -34.5 -9.5t-16.5 -23.5h-34q19 63 85 63q38 0 61 -20t23 -52q0 -21 -9.5 -34t-27.5 -28q-23 -17 -27 -30h-38q6 16 32 35z" />
    <glyph glyph-name="uni1EF8" unicode="&#x1ef8;" horiz-adv-x="585" 
d="M270 -1v265l-227 436h43l198 -383h8l195 383h43l-225 -436v-264zM179.5 862.5q17.5 28.5 54.5 28.5q19 0 33 -9t31 -26q15 -14 24 -20t20 -6q20 0 29.5 17t9.5 44h33q0 -33 -17.5 -61.5t-54.5 -28.5q-19 0 -32.5 8.5t-31.5 25.5q-13 13 -22.5 19.5t-21.5 6.5
q-20 0 -29.5 -16.5t-9.5 -43.5h-33q0 33 17.5 61.5z" />
    <glyph glyph-name="Z" unicode="Z" horiz-adv-x="600" 
d="M59 35l421 628v2h-421v35h466v-35l-421 -628v-2h421v-35h-466v35z" />
    <glyph glyph-name="Zacute" unicode="&#x179;" horiz-adv-x="600" 
d="M59 35l421 628v2h-421v35h466v-35l-421 -628v-2h421v-35h-466v35zM289 767l96 164h46l-113 -164h-29z" />
    <glyph glyph-name="Zcaron" unicode="&#x17d;" horiz-adv-x="600" 
d="M59 35l421 628v2h-421v35h466v-35l-421 -628v-2h421v-35h-466v35zM202 903l96 -105h4l96 105h45l-120 -133h-46l-120 133h45z" />
    <glyph glyph-name="Zdotaccent" unicode="&#x17b;" horiz-adv-x="600" 
d="M59 35l421 628v2h-421v35h466v-35l-421 -628v-2h421v-35h-466v35zM274 815.5q-10 10.5 -10 25.5t10 25.5t25 10.5t25.5 -11t10.5 -25q0 -15 -10.5 -25.5t-25.5 -10.5t-25 10.5z" />
    <glyph glyph-name="B.ss01" horiz-adv-x="615" 
d="M92 700h268q64 0 105.5 -22t60.5 -56t19 -72v-51q0 -42 -23.5 -72t-54 -45.5t-52.5 -18.5v-4q23 -1 59.5 -13.5t66 -45t29.5 -86.5v-51q0 -70 -48 -116.5t-152 -46.5h-278v700zM348 375q74 0 117 35.5t43 92.5v36q0 58 -37.5 93t-110.5 35h-236v-292h224zM370 35
q163 0 163 134v38q0 61 -39.5 97.5t-117.5 36.5h-252v-306h246z" />
    <glyph glyph-name="C.ss01" horiz-adv-x="699" 
d="M197.5 36.5q-66.5 41.5 -101 112.5t-34.5 158v96q0 87 34.5 158t101 112.5t158.5 41.5q115 0 189 -62.5t92 -173.5h-36q-17 95 -82.5 148.5t-165.5 53.5q-84 0 -141.5 -38t-86 -103.5t-28.5 -146.5v-76q0 -81 28.5 -146.5t86 -103.5t141.5 -38q98 0 157.5 45.5
t81.5 130.5h37q-22 -99 -93.5 -154.5t-179.5 -55.5q-92 0 -158.5 41.5z" />
    <glyph glyph-name="D.ss01" horiz-adv-x="677" 
d="M92 700h241q93 0 159 -40.5t100.5 -109.5t34.5 -154v-93q0 -84 -34.5 -153t-101 -109.5t-158.5 -40.5h-241v700zM333 33q85 0 143.5 37t87 100.5t28.5 142.5v74q0 79 -28.5 142.5t-87 100.5t-143.5 37h-207v-634h207z" />
    <glyph glyph-name="Eth.ss01" horiz-adv-x="703" 
d="M518 659.5q66 -40.5 100.5 -109.5t34.5 -154v-93q0 -84 -34.5 -153t-101 -109.5t-158.5 -40.5h-241v342h-61v28h61v330h241q93 0 159 -40.5zM618 387q0 79 -28.5 142.5t-87 100.5t-143.5 37h-207v-297h166v-28h-166v-309h207q85 0 143.5 37t87 100.5t28.5 142.5v74z" />
    <glyph glyph-name="Dcaron.ss01" horiz-adv-x="677" 
d="M92 700h241q93 0 159 -40.5t100.5 -109.5t34.5 -154v-93q0 -84 -34.5 -153t-101 -109.5t-158.5 -40.5h-241v700zM333 33q85 0 143.5 37t87 100.5t28.5 142.5v74q0 79 -28.5 142.5t-87 100.5t-143.5 37h-207v-634h207zM236 903l96 -105h4l96 105h45l-120 -133h-46
l-120 133h45z" />
    <glyph glyph-name="Dcroat.ss01" horiz-adv-x="703" 
d="M518 659.5q66 -40.5 100.5 -109.5t34.5 -154v-93q0 -84 -34.5 -153t-101 -109.5t-158.5 -40.5h-241v342h-61v28h61v330h241q93 0 159 -40.5zM618 387q0 79 -28.5 142.5t-87 100.5t-143.5 37h-207v-297h166v-28h-166v-309h207q85 0 143.5 37t87 100.5t28.5 142.5v74z" />
    <glyph glyph-name="G.ss01" horiz-adv-x="704" 
d="M196.5 36.5q-66.5 41.5 -100.5 112.5t-34 158v96q0 87 34 158t100.5 112.5t158.5 41.5q116 0 190 -62.5t92 -173.5h-36q-17 95 -82.5 148.5t-163.5 53.5q-84 0 -142.5 -38t-87 -103.5t-28.5 -146.5v-76q0 -81 28.5 -146.5t87 -103.5t142.5 -38q74 0 130 31t87 87t33 130
l1 39h-244v30h271v-346h-34v129h-8q-26 -56 -86 -95t-150 -39q-92 0 -158.5 41.5z" />
    <glyph glyph-name="Gbreve.ss01" horiz-adv-x="704" 
d="M196.5 36.5q-66.5 41.5 -100.5 112.5t-34 158v96q0 87 34 158t100.5 112.5t158.5 41.5q116 0 190 -62.5t92 -173.5h-36q-17 95 -82.5 148.5t-163.5 53.5q-84 0 -142.5 -38t-87 -103.5t-28.5 -146.5v-76q0 -81 28.5 -146.5t87 -103.5t142.5 -38q74 0 130 31t87 87t33 130
l1 39h-244v30h271v-346h-34v129h-8q-26 -56 -86 -95t-150 -39q-92 0 -158.5 41.5zM266.5 808.5q-35.5 20.5 -64.5 66.5h38q36 -57 115 -57t115 57h38q-29 -46 -64.5 -66.5t-88.5 -20.5t-88.5 20.5z" />
    <glyph glyph-name="Gdotaccent.ss01" horiz-adv-x="704" 
d="M196.5 36.5q-66.5 41.5 -100.5 112.5t-34 158v96q0 87 34 158t100.5 112.5t158.5 41.5q116 0 190 -62.5t92 -173.5h-36q-17 95 -82.5 148.5t-163.5 53.5q-84 0 -142.5 -38t-87 -103.5t-28.5 -146.5v-76q0 -81 28.5 -146.5t87 -103.5t142.5 -38q74 0 130 31t87 87t33 130
l1 39h-244v30h271v-346h-34v129h-8q-26 -56 -86 -95t-150 -39q-92 0 -158.5 41.5zM329 815.5q-10 10.5 -10 25.5t10 25.5t25 10.5t25.5 -11t10.5 -25q0 -15 -10.5 -25.5t-25.5 -10.5t-25 10.5z" />
    <glyph glyph-name="J.ss01" horiz-adv-x="477" 
d="M124.5 57.5q39.5 -28.5 91.5 -28.5t91.5 28.5t39.5 109.5v533h35v-533q0 -97 -51 -134.5t-115 -37.5t-115 37.5t-51 134.5h35q0 -81 39.5 -109.5z" />
    <glyph glyph-name="O.ss01" horiz-adv-x="712" 
d="M197.5 36.5q-66.5 41.5 -101 112.5t-34.5 158v96q0 87 34.5 158t101 112.5t158.5 41.5t158.5 -41.5t101 -112.5t34.5 -158v-96q0 -87 -34.5 -158t-101 -112.5t-158.5 -41.5t-158.5 41.5zM499.5 67q58.5 38 87 103.5t28.5 146.5v76q0 81 -28.5 146.5t-87 103.5t-143.5 38
t-143.5 -38t-87 -103.5t-28.5 -146.5v-76q0 -81 28.5 -146.5t87 -103.5t143.5 -38t143.5 38z" />
    <glyph glyph-name="Oacute.ss01" horiz-adv-x="712" 
d="M197.5 36.5q-66.5 41.5 -101 112.5t-34.5 158v96q0 87 34.5 158t101 112.5t158.5 41.5t158.5 -41.5t101 -112.5t34.5 -158v-96q0 -87 -34.5 -158t-101 -112.5t-158.5 -41.5t-158.5 41.5zM499.5 67q58.5 38 87 103.5t28.5 146.5v76q0 81 -28.5 146.5t-87 103.5t-143.5 38
t-143.5 -38t-87 -103.5t-28.5 -146.5v-76q0 -81 28.5 -146.5t87 -103.5t143.5 -38t143.5 38zM345 767l96 164h46l-113 -164h-29z" />
    <glyph glyph-name="Ocircumflex.ss01" horiz-adv-x="712" 
d="M197.5 36.5q-66.5 41.5 -101 112.5t-34.5 158v96q0 87 34.5 158t101 112.5t158.5 41.5t158.5 -41.5t101 -112.5t34.5 -158v-96q0 -87 -34.5 -158t-101 -112.5t-158.5 -41.5t-158.5 41.5zM499.5 67q58.5 38 87 103.5t28.5 146.5v76q0 81 -28.5 146.5t-87 103.5t-143.5 38
t-143.5 -38t-87 -103.5t-28.5 -146.5v-76q0 -81 28.5 -146.5t87 -103.5t143.5 -38t143.5 38zM333 903h46l120 -133h-45l-96 105h-4l-96 -105h-45z" />
    <glyph glyph-name="uni1ED0.ss01" horiz-adv-x="712" 
d="M197.5 36.5q-66.5 41.5 -101 112.5t-34.5 158v96q0 87 34.5 158t101 112.5t158.5 41.5t158.5 -41.5t101 -112.5t34.5 -158v-96q0 -87 -34.5 -158t-101 -112.5t-158.5 -41.5t-158.5 41.5zM499.5 67q58.5 38 87 103.5t28.5 146.5v76q0 81 -28.5 146.5t-87 103.5t-143.5 38
t-143.5 -38t-87 -103.5t-28.5 -146.5v-76q0 -81 28.5 -146.5t87 -103.5t143.5 -38t143.5 38zM333 903h46l120 -133h-45l-96 105h-4l-96 -105h-45zM465 890l96 164h46l-113 -164h-29z" />
    <glyph glyph-name="uni1ED8.ss01" horiz-adv-x="712" 
d="M197.5 36.5q-66.5 41.5 -101 112.5t-34.5 158v96q0 87 34.5 158t101 112.5t158.5 41.5t158.5 -41.5t101 -112.5t34.5 -158v-96q0 -87 -34.5 -158t-101 -112.5t-158.5 -41.5t-158.5 41.5zM499.5 67q58.5 38 87 103.5t28.5 146.5v76q0 81 -28.5 146.5t-87 103.5t-143.5 38
t-143.5 -38t-87 -103.5t-28.5 -146.5v-76q0 -81 28.5 -146.5t87 -103.5t143.5 -38t143.5 38zM328.5 -191q-10.5 11 -10.5 27q0 15 10.5 26t26.5 11t27 -11t11 -26q0 -16 -11 -27t-27 -11t-26.5 11zM333 903h46l120 -133h-45l-96 105h-4l-96 -105h-45z" />
    <glyph glyph-name="uni1ED2.ss01" horiz-adv-x="712" 
d="M197.5 36.5q-66.5 41.5 -101 112.5t-34.5 158v96q0 87 34.5 158t101 112.5t158.5 41.5t158.5 -41.5t101 -112.5t34.5 -158v-96q0 -87 -34.5 -158t-101 -112.5t-158.5 -41.5t-158.5 41.5zM499.5 67q58.5 38 87 103.5t28.5 146.5v76q0 81 -28.5 146.5t-87 103.5t-143.5 38
t-143.5 -38t-87 -103.5t-28.5 -146.5v-76q0 -81 28.5 -146.5t87 -103.5t143.5 -38t143.5 38zM333 903h46l120 -133h-45l-96 105h-4l-96 -105h-45zM345 1054h46l96 -164h-29z" />
    <glyph glyph-name="uni1ED4.ss01" horiz-adv-x="712" 
d="M197.5 36.5q-66.5 41.5 -101 112.5t-34.5 158v96q0 87 34.5 158t101 112.5t158.5 41.5t158.5 -41.5t101 -112.5t34.5 -158v-96q0 -87 -34.5 -158t-101 -112.5t-158.5 -41.5t-158.5 41.5zM499.5 67q58.5 38 87 103.5t28.5 146.5v76q0 81 -28.5 146.5t-87 103.5t-143.5 38
t-143.5 -38t-87 -103.5t-28.5 -146.5v-76q0 -81 28.5 -146.5t87 -103.5t143.5 -38t143.5 38zM333 903h46l120 -133h-45l-96 105h-4l-96 -105h-45zM492 925q19 15 28.5 26.5t9.5 27.5q0 18 -12 31.5t-40 13.5q-22 0 -34.5 -9.5t-16.5 -23.5h-34q19 63 85 63q38 0 61 -20
t23 -52q0 -21 -9.5 -34t-27.5 -28q-23 -17 -27 -30h-38q6 16 32 35z" />
    <glyph glyph-name="uni1ED6.ss01" horiz-adv-x="712" 
d="M197.5 36.5q-66.5 41.5 -101 112.5t-34.5 158v96q0 87 34.5 158t101 112.5t158.5 41.5t158.5 -41.5t101 -112.5t34.5 -158v-96q0 -87 -34.5 -158t-101 -112.5t-158.5 -41.5t-158.5 41.5zM499.5 67q58.5 38 87 103.5t28.5 146.5v76q0 81 -28.5 146.5t-87 103.5t-143.5 38
t-143.5 -38t-87 -103.5t-28.5 -146.5v-76q0 -81 28.5 -146.5t87 -103.5t143.5 -38t143.5 38zM333 903h46l120 -133h-45l-96 105h-4l-96 -105h-45zM251.5 997.5q17.5 28.5 54.5 28.5q19 0 33 -9t31 -26q15 -14 24 -20t20 -6q20 0 29.5 17t9.5 44h33q0 -33 -17.5 -61.5
t-54.5 -28.5q-19 0 -32.5 8.5t-31.5 25.5q-13 13 -22.5 19.5t-21.5 6.5q-20 0 -29.5 -16.5t-9.5 -43.5h-33q0 33 17.5 61.5z" />
    <glyph glyph-name="Odieresis.ss01" horiz-adv-x="712" 
d="M197.5 36.5q-66.5 41.5 -101 112.5t-34.5 158v96q0 87 34.5 158t101 112.5t158.5 41.5t158.5 -41.5t101 -112.5t34.5 -158v-96q0 -87 -34.5 -158t-101 -112.5t-158.5 -41.5t-158.5 41.5zM499.5 67q58.5 38 87 103.5t28.5 146.5v76q0 81 -28.5 146.5t-87 103.5t-143.5 38
t-143.5 -38t-87 -103.5t-28.5 -146.5v-76q0 -81 28.5 -146.5t87 -103.5t143.5 -38t143.5 38zM398 815.5q-10 10.5 -10 25.5t10 25.5t25 10.5t25.5 -11t10.5 -25q0 -15 -10.5 -25.5t-25.5 -10.5t-25 10.5zM259 815.5q-10 10.5 -10 25.5t10 25.5t25 10.5t25.5 -11t10.5 -25
q0 -15 -10.5 -25.5t-25.5 -10.5t-25 10.5z" />
    <glyph glyph-name="uni1ECC.ss01" horiz-adv-x="712" 
d="M197.5 36.5q-66.5 41.5 -101 112.5t-34.5 158v96q0 87 34.5 158t101 112.5t158.5 41.5t158.5 -41.5t101 -112.5t34.5 -158v-96q0 -87 -34.5 -158t-101 -112.5t-158.5 -41.5t-158.5 41.5zM499.5 67q58.5 38 87 103.5t28.5 146.5v76q0 81 -28.5 146.5t-87 103.5t-143.5 38
t-143.5 -38t-87 -103.5t-28.5 -146.5v-76q0 -81 28.5 -146.5t87 -103.5t143.5 -38t143.5 38zM328.5 -191q-10.5 11 -10.5 27q0 15 10.5 26t26.5 11t27 -11t11 -26q0 -16 -11 -27t-27 -11t-26.5 11z" />
    <glyph glyph-name="Ograve.ss01" horiz-adv-x="712" 
d="M197.5 36.5q-66.5 41.5 -101 112.5t-34.5 158v96q0 87 34.5 158t101 112.5t158.5 41.5t158.5 -41.5t101 -112.5t34.5 -158v-96q0 -87 -34.5 -158t-101 -112.5t-158.5 -41.5t-158.5 41.5zM499.5 67q58.5 38 87 103.5t28.5 146.5v76q0 81 -28.5 146.5t-87 103.5t-143.5 38
t-143.5 -38t-87 -103.5t-28.5 -146.5v-76q0 -81 28.5 -146.5t87 -103.5t143.5 -38t143.5 38zM225 931h46l96 -164h-29z" />
    <glyph glyph-name="uni1ECE.ss01" horiz-adv-x="712" 
d="M197.5 36.5q-66.5 41.5 -101 112.5t-34.5 158v96q0 87 34.5 158t101 112.5t158.5 41.5t158.5 -41.5t101 -112.5t34.5 -158v-96q0 -87 -34.5 -158t-101 -112.5t-158.5 -41.5t-158.5 41.5zM499.5 67q58.5 38 87 103.5t28.5 146.5v76q0 81 -28.5 146.5t-87 103.5t-143.5 38
t-143.5 -38t-87 -103.5t-28.5 -146.5v-76q0 -81 28.5 -146.5t87 -103.5t143.5 -38t143.5 38zM372 802q19 15 28.5 26.5t9.5 27.5q0 18 -12 31.5t-40 13.5q-22 0 -34.5 -9.5t-16.5 -23.5h-34q19 63 85 63q38 0 61 -20t23 -52q0 -21 -9.5 -34t-27.5 -28q-23 -17 -27 -30h-38
q6 16 32 35z" />
    <glyph glyph-name="Ohorn.ss01" horiz-adv-x="712" 
d="M616.5 559q33.5 -70 33.5 -156v-96q0 -87 -34.5 -158t-101 -112.5t-158.5 -41.5t-158.5 41.5t-101 112.5t-34.5 158v96q0 87 34.5 158t101 112.5t158.5 41.5q53 0 103 -16v1h52q25 0 35 12t10 51v16h39v-16q0 -91 -75 -93q63 -41 96.5 -111zM615 393q0 81 -28.5 146.5
t-87 103.5t-143.5 38t-143.5 -38t-87 -103.5t-28.5 -146.5v-76q0 -81 28.5 -146.5t87 -103.5t143.5 -38t143.5 38t87 103.5t28.5 146.5v76z" />
    <glyph glyph-name="uni1EDA.ss01" horiz-adv-x="712" 
d="M616.5 559q33.5 -70 33.5 -156v-96q0 -87 -34.5 -158t-101 -112.5t-158.5 -41.5t-158.5 41.5t-101 112.5t-34.5 158v96q0 87 34.5 158t101 112.5t158.5 41.5q53 0 103 -16v1h52q25 0 35 12t10 51v16h39v-16q0 -91 -75 -93q63 -41 96.5 -111zM615 393q0 81 -28.5 146.5
t-87 103.5t-143.5 38t-143.5 -38t-87 -103.5t-28.5 -146.5v-76q0 -81 28.5 -146.5t87 -103.5t143.5 -38t143.5 38t87 103.5t28.5 146.5v76zM345 767l96 164h46l-113 -164h-29z" />
    <glyph glyph-name="uni1EE2.ss01" horiz-adv-x="712" 
d="M616.5 559q33.5 -70 33.5 -156v-96q0 -87 -34.5 -158t-101 -112.5t-158.5 -41.5t-158.5 41.5t-101 112.5t-34.5 158v96q0 87 34.5 158t101 112.5t158.5 41.5q53 0 103 -16v1h52q25 0 35 12t10 51v16h39v-16q0 -91 -75 -93q63 -41 96.5 -111zM615 393q0 81 -28.5 146.5
t-87 103.5t-143.5 38t-143.5 -38t-87 -103.5t-28.5 -146.5v-76q0 -81 28.5 -146.5t87 -103.5t143.5 -38t143.5 38t87 103.5t28.5 146.5v76zM328.5 -191q-10.5 11 -10.5 27q0 15 10.5 26t26.5 11t27 -11t11 -26q0 -16 -11 -27t-27 -11t-26.5 11z" />
    <glyph glyph-name="uni1EDC.ss01" horiz-adv-x="712" 
d="M616.5 559q33.5 -70 33.5 -156v-96q0 -87 -34.5 -158t-101 -112.5t-158.5 -41.5t-158.5 41.5t-101 112.5t-34.5 158v96q0 87 34.5 158t101 112.5t158.5 41.5q53 0 103 -16v1h52q25 0 35 12t10 51v16h39v-16q0 -91 -75 -93q63 -41 96.5 -111zM615 393q0 81 -28.5 146.5
t-87 103.5t-143.5 38t-143.5 -38t-87 -103.5t-28.5 -146.5v-76q0 -81 28.5 -146.5t87 -103.5t143.5 -38t143.5 38t87 103.5t28.5 146.5v76zM225 931h46l96 -164h-29z" />
    <glyph glyph-name="uni1EDE.ss01" horiz-adv-x="712" 
d="M616.5 559q33.5 -70 33.5 -156v-96q0 -87 -34.5 -158t-101 -112.5t-158.5 -41.5t-158.5 41.5t-101 112.5t-34.5 158v96q0 87 34.5 158t101 112.5t158.5 41.5q53 0 103 -16v1h52q25 0 35 12t10 51v16h39v-16q0 -91 -75 -93q63 -41 96.5 -111zM615 393q0 81 -28.5 146.5
t-87 103.5t-143.5 38t-143.5 -38t-87 -103.5t-28.5 -146.5v-76q0 -81 28.5 -146.5t87 -103.5t143.5 -38t143.5 38t87 103.5t28.5 146.5v76zM372 802q19 15 28.5 26.5t9.5 27.5q0 18 -12 31.5t-40 13.5q-22 0 -34.5 -9.5t-16.5 -23.5h-34q19 63 85 63q38 0 61 -20t23 -52
q0 -21 -9.5 -34t-27.5 -28q-23 -17 -27 -30h-38q6 16 32 35z" />
    <glyph glyph-name="uni1EE0.ss01" horiz-adv-x="712" 
d="M616.5 559q33.5 -70 33.5 -156v-96q0 -87 -34.5 -158t-101 -112.5t-158.5 -41.5t-158.5 41.5t-101 112.5t-34.5 158v96q0 87 34.5 158t101 112.5t158.5 41.5q53 0 103 -16v1h52q25 0 35 12t10 51v16h39v-16q0 -91 -75 -93q63 -41 96.5 -111zM615 393q0 81 -28.5 146.5
t-87 103.5t-143.5 38t-143.5 -38t-87 -103.5t-28.5 -146.5v-76q0 -81 28.5 -146.5t87 -103.5t143.5 -38t143.5 38t87 103.5t28.5 146.5v76zM247.5 862.5q17.5 28.5 54.5 28.5q19 0 33 -9t31 -26q15 -14 24 -20t20 -6q20 0 29.5 17t9.5 44h33q0 -33 -17.5 -61.5t-54.5 -28.5
q-19 0 -32.5 8.5t-31.5 25.5q-13 13 -22.5 19.5t-21.5 6.5q-20 0 -29.5 -16.5t-9.5 -43.5h-33q0 33 17.5 61.5z" />
    <glyph glyph-name="Omacron.ss01" horiz-adv-x="712" 
d="M197.5 36.5q-66.5 41.5 -101 112.5t-34.5 158v96q0 87 34.5 158t101 112.5t158.5 41.5t158.5 -41.5t101 -112.5t34.5 -158v-96q0 -87 -34.5 -158t-101 -112.5t-158.5 -41.5t-158.5 41.5zM499.5 67q58.5 38 87 103.5t28.5 146.5v76q0 81 -28.5 146.5t-87 103.5t-143.5 38
t-143.5 -38t-87 -103.5t-28.5 -146.5v-76q0 -81 28.5 -146.5t87 -103.5t143.5 -38t143.5 38zM216 836h280v-26h-280v26z" />
    <glyph glyph-name="Oslash.ss01" horiz-adv-x="710" 
d="M628.5 528q20.5 -58 20.5 -125v-96q0 -87 -34.5 -158t-101 -112.5t-158.5 -41.5q-94 0 -163 44l-53 -82h-37l65 101q-52 42 -79 107t-27 142v96q0 87 34.5 158t101 112.5t158.5 41.5q115 0 191 -65l60 93h37l-74 -115q39 -42 59.5 -100zM118.5 185q22.5 -60 66.5 -98
l343 534q-68 60 -173 60q-85 0 -143.5 -38t-87 -103.5t-28.5 -146.5v-76q0 -72 22.5 -132zM614 393q0 61 -16 113.5t-48 91.5l-340 -530q59 -39 145 -39q85 0 143.5 38t87 103.5t28.5 146.5v76z" />
    <glyph glyph-name="Otilde.ss01" horiz-adv-x="712" 
d="M197.5 36.5q-66.5 41.5 -101 112.5t-34.5 158v96q0 87 34.5 158t101 112.5t158.5 41.5t158.5 -41.5t101 -112.5t34.5 -158v-96q0 -87 -34.5 -158t-101 -112.5t-158.5 -41.5t-158.5 41.5zM499.5 67q58.5 38 87 103.5t28.5 146.5v76q0 81 -28.5 146.5t-87 103.5t-143.5 38
t-143.5 -38t-87 -103.5t-28.5 -146.5v-76q0 -81 28.5 -146.5t87 -103.5t143.5 -38t143.5 38zM247.5 862.5q17.5 28.5 54.5 28.5q19 0 33 -9t31 -26q15 -14 24 -20t20 -6q20 0 29.5 17t9.5 44h33q0 -33 -17.5 -61.5t-54.5 -28.5q-19 0 -32.5 8.5t-31.5 25.5
q-13 13 -22.5 19.5t-21.5 6.5q-20 0 -29.5 -16.5t-9.5 -43.5h-33q0 33 17.5 61.5z" />
    <glyph glyph-name="OE.ss01" horiz-adv-x="939" 
d="M185.5 40.5q-66.5 40.5 -101 109.5t-34.5 153v93q0 85 34.5 154t100.5 109.5t159 40.5h516v-34h-366v-291h331v-32h-331v-309h366v-34h-516q-92 0 -158.5 40.5zM460 33v634h-116q-85 0 -143.5 -37t-87 -100.5t-28.5 -142.5v-74q0 -79 28.5 -142.5t87 -100.5t143.5 -37
h116z" />
    <glyph glyph-name="P.ss01" horiz-adv-x="580" 
d="M479.5 646.5q58.5 -53.5 58.5 -140.5v-93q0 -86 -58.5 -139.5t-176.5 -53.5h-179v-220h-32v700h211q118 0 176.5 -53.5zM503 506q0 71 -48 116t-152 45h-177v-414h177q104 0 152 45t48 115v93z" />
    <glyph glyph-name="Q.ss01" horiz-adv-x="712" 
d="M623.5 165.5q-26.5 -64.5 -77.5 -106.5l104 -126h-44l-87 106q-69 -44 -163 -44q-92 0 -158.5 41.5t-101 112.5t-34.5 158v96q0 87 34.5 158t101 112.5t158.5 41.5t158.5 -41.5t101 -112.5t34.5 -158v-96q0 -77 -26.5 -141.5zM334 263h44l146 -178q45 39 68 99t23 133v76
q0 81 -28.5 146.5t-87 103.5t-143.5 38t-143.5 -38t-87 -103.5t-28.5 -146.5v-76q0 -81 28.5 -146.5t87 -103.5t143.5 -38q82 0 141 36z" />
    <glyph glyph-name="R.ss01" horiz-adv-x="602" 
d="M293 275h-169v-275h-32v700h220q117 0 171.5 -47.5t54.5 -124.5v-82q0 -73 -49 -119.5t-154 -50.5l206 -276h-44zM126 306h186q103 0 147 39t44 101v82q0 63 -44 102t-147 39h-186v-363z" />
    <glyph glyph-name="G.ss02" horiz-adv-x="701" 
d="M194.5 48.5q-69.5 53.5 -101 136t-31.5 172.5q0 89 31 170.5t100.5 134.5t179.5 53q112 0 180.5 -60.5t94.5 -149.5h-37q-24 82 -83 128.5t-155 46.5q-82 0 -144 -39t-96.5 -112.5t-34.5 -173.5t34.5 -173.5t96.5 -112.5t144 -39q109 0 177 60.5t68 186.5v57h-244v30h277
v-87q0 -87 -35 -151t-98 -97.5t-145 -33.5q-109 0 -178.5 53.5z" />
    <glyph glyph-name="a" unicode="a" 
d="M165.5 32q-52.5 37 -80 99t-27.5 137t27.5 137.5t81.5 99.5t128 37q132 0 196 -129h7v112h34v-525h-34v125h-7q-29 -58 -78.5 -94t-121.5 -36q-73 0 -125.5 37zM403 62q45 31 68 85t23 121q0 104 -52.5 171t-147.5 67q-97 0 -148.5 -67t-51.5 -170q0 -104 51.5 -171
t148.5 -67q64 0 109 31z" />
    <glyph glyph-name="aacute" unicode="&#xe1;" 
d="M165.5 32q-52.5 37 -80 99t-27.5 137t27.5 137.5t81.5 99.5t128 37q132 0 196 -129h7v112h34v-525h-34v125h-7q-29 -58 -78.5 -94t-121.5 -36q-73 0 -125.5 37zM403 62q45 31 68 85t23 121q0 104 -52.5 171t-147.5 67q-97 0 -148.5 -67t-51.5 -170q0 -104 51.5 -171
t148.5 -67q64 0 109 31zM294 592l96 164h46l-113 -164h-29z" />
    <glyph glyph-name="abreve" unicode="&#x103;" 
d="M165.5 32q-52.5 37 -80 99t-27.5 137t27.5 137.5t81.5 99.5t128 37q132 0 196 -129h7v112h34v-525h-34v125h-7q-29 -58 -78.5 -94t-121.5 -36q-73 0 -125.5 37zM403 62q45 31 68 85t23 121q0 104 -52.5 171t-147.5 67q-97 0 -148.5 -67t-51.5 -170q0 -104 51.5 -171
t148.5 -67q64 0 109 31zM216.5 633.5q-35.5 20.5 -64.5 66.5h38q36 -57 115 -57t115 57h38q-29 -46 -64.5 -66.5t-88.5 -20.5t-88.5 20.5z" />
    <glyph glyph-name="uni1EAF" unicode="&#x1eaf;" 
d="M165.5 32q-52.5 37 -80 99t-27.5 137t27.5 137.5t81.5 99.5t128 37q132 0 196 -129h7v112h34v-525h-34v125h-7q-29 -58 -78.5 -94t-121.5 -36q-73 0 -125.5 37zM403 62q45 31 68 85t23 121q0 104 -52.5 171t-147.5 67q-97 0 -148.5 -67t-51.5 -170q0 -104 51.5 -171
t148.5 -67q64 0 109 31zM216.5 633.5q-35.5 20.5 -64.5 66.5h38q36 -57 115 -57t115 57h38q-29 -46 -64.5 -66.5t-88.5 -20.5t-88.5 20.5zM294 710l96 164h46l-113 -164h-29z" />
    <glyph glyph-name="uni1EB7" unicode="&#x1eb7;" 
d="M165.5 32q-52.5 37 -80 99t-27.5 137t27.5 137.5t81.5 99.5t128 37q132 0 196 -129h7v112h34v-525h-34v125h-7q-29 -58 -78.5 -94t-121.5 -36q-73 0 -125.5 37zM403 62q45 31 68 85t23 121q0 104 -52.5 171t-147.5 67q-97 0 -148.5 -67t-51.5 -170q0 -104 51.5 -171
t148.5 -67q64 0 109 31zM216.5 633.5q-35.5 20.5 -64.5 66.5h38q36 -57 115 -57t115 57h38q-29 -46 -64.5 -66.5t-88.5 -20.5t-88.5 20.5zM284.5 -191q-10.5 11 -10.5 27q0 15 10.5 26t26.5 11t27 -11t11 -26q0 -16 -11 -27t-27 -11t-26.5 11z" />
    <glyph glyph-name="uni1EB1" unicode="&#x1eb1;" 
d="M165.5 32q-52.5 37 -80 99t-27.5 137t27.5 137.5t81.5 99.5t128 37q132 0 196 -129h7v112h34v-525h-34v125h-7q-29 -58 -78.5 -94t-121.5 -36q-73 0 -125.5 37zM403 62q45 31 68 85t23 121q0 104 -52.5 171t-147.5 67q-97 0 -148.5 -67t-51.5 -170q0 -104 51.5 -171
t148.5 -67q64 0 109 31zM216.5 633.5q-35.5 20.5 -64.5 66.5h38q36 -57 115 -57t115 57h38q-29 -46 -64.5 -66.5t-88.5 -20.5t-88.5 20.5zM174 874h46l96 -164h-29z" />
    <glyph glyph-name="uni1EB3" unicode="&#x1eb3;" 
d="M165.5 32q-52.5 37 -80 99t-27.5 137t27.5 137.5t81.5 99.5t128 37q132 0 196 -129h7v112h34v-525h-34v125h-7q-29 -58 -78.5 -94t-121.5 -36q-73 0 -125.5 37zM403 62q45 31 68 85t23 121q0 104 -52.5 171t-147.5 67q-97 0 -148.5 -67t-51.5 -170q0 -104 51.5 -171
t148.5 -67q64 0 109 31zM216.5 633.5q-35.5 20.5 -64.5 66.5h38q36 -57 115 -57t115 57h38q-29 -46 -64.5 -66.5t-88.5 -20.5t-88.5 20.5zM321 745q19 15 28.5 26.5t9.5 27.5q0 18 -12 31.5t-40 13.5q-22 0 -34.5 -9.5t-16.5 -23.5h-34q19 63 85 63q38 0 61 -20t23 -52
q0 -21 -9.5 -34t-27.5 -28q-23 -17 -27 -30h-38q6 16 32 35z" />
    <glyph glyph-name="uni1EB5" unicode="&#x1eb5;" 
d="M165.5 32q-52.5 37 -80 99t-27.5 137t27.5 137.5t81.5 99.5t128 37q132 0 196 -129h7v112h34v-525h-34v125h-7q-29 -58 -78.5 -94t-121.5 -36q-73 0 -125.5 37zM403 62q45 31 68 85t23 121q0 104 -52.5 171t-147.5 67q-97 0 -148.5 -67t-51.5 -170q0 -104 51.5 -171
t148.5 -67q64 0 109 31zM216.5 633.5q-35.5 20.5 -64.5 66.5h38q36 -57 115 -57t115 57h38q-29 -46 -64.5 -66.5t-88.5 -20.5t-88.5 20.5zM196.5 805.5q17.5 28.5 54.5 28.5q19 0 33 -9t31 -26q15 -14 24 -20t20 -6q20 0 29.5 17t9.5 44h33q0 -33 -17.5 -61.5t-54.5 -28.5
q-19 0 -32.5 8.5t-31.5 25.5q-13 13 -22.5 19.5t-21.5 6.5q-20 0 -29.5 -16.5t-9.5 -43.5h-33q0 33 17.5 61.5z" />
    <glyph glyph-name="acircumflex" unicode="&#xe2;" 
d="M165.5 32q-52.5 37 -80 99t-27.5 137t27.5 137.5t81.5 99.5t128 37q132 0 196 -129h7v112h34v-525h-34v125h-7q-29 -58 -78.5 -94t-121.5 -36q-73 0 -125.5 37zM403 62q45 31 68 85t23 121q0 104 -52.5 171t-147.5 67q-97 0 -148.5 -67t-51.5 -170q0 -104 51.5 -171
t148.5 -67q64 0 109 31zM282 728h46l120 -133h-45l-96 105h-4l-96 -105h-45z" />
    <glyph glyph-name="uni1EA5" unicode="&#x1ea5;" 
d="M165.5 32q-52.5 37 -80 99t-27.5 137t27.5 137.5t81.5 99.5t128 37q132 0 196 -129h7v112h34v-525h-34v125h-7q-29 -58 -78.5 -94t-121.5 -36q-73 0 -125.5 37zM403 62q45 31 68 85t23 121q0 104 -52.5 171t-147.5 67q-97 0 -148.5 -67t-51.5 -170q0 -104 51.5 -171
t148.5 -67q64 0 109 31zM282 728h46l120 -133h-45l-96 105h-4l-96 -105h-45zM414 715l96 164h46l-113 -164h-29z" />
    <glyph glyph-name="uni1EAD" unicode="&#x1ead;" 
d="M165.5 32q-52.5 37 -80 99t-27.5 137t27.5 137.5t81.5 99.5t128 37q132 0 196 -129h7v112h34v-525h-34v125h-7q-29 -58 -78.5 -94t-121.5 -36q-73 0 -125.5 37zM403 62q45 31 68 85t23 121q0 104 -52.5 171t-147.5 67q-97 0 -148.5 -67t-51.5 -170q0 -104 51.5 -171
t148.5 -67q64 0 109 31zM282 728h46l120 -133h-45l-96 105h-4l-96 -105h-45zM284.5 -191q-10.5 11 -10.5 27q0 15 10.5 26t26.5 11t27 -11t11 -26q0 -16 -11 -27t-27 -11t-26.5 11z" />
    <glyph glyph-name="uni1EA7" unicode="&#x1ea7;" 
d="M165.5 32q-52.5 37 -80 99t-27.5 137t27.5 137.5t81.5 99.5t128 37q132 0 196 -129h7v112h34v-525h-34v125h-7q-29 -58 -78.5 -94t-121.5 -36q-73 0 -125.5 37zM403 62q45 31 68 85t23 121q0 104 -52.5 171t-147.5 67q-97 0 -148.5 -67t-51.5 -170q0 -104 51.5 -171
t148.5 -67q64 0 109 31zM282 728h46l120 -133h-45l-96 105h-4l-96 -105h-45zM294 879h46l96 -164h-29z" />
    <glyph glyph-name="uni1EA9" unicode="&#x1ea9;" 
d="M165.5 32q-52.5 37 -80 99t-27.5 137t27.5 137.5t81.5 99.5t128 37q132 0 196 -129h7v112h34v-525h-34v125h-7q-29 -58 -78.5 -94t-121.5 -36q-73 0 -125.5 37zM403 62q45 31 68 85t23 121q0 104 -52.5 171t-147.5 67q-97 0 -148.5 -67t-51.5 -170q0 -104 51.5 -171
t148.5 -67q64 0 109 31zM282 728h46l120 -133h-45l-96 105h-4l-96 -105h-45zM441 750q19 15 28.5 26.5t9.5 27.5q0 18 -12 31.5t-40 13.5q-22 0 -34.5 -9.5t-16.5 -23.5h-34q19 63 85 63q38 0 61 -20t23 -52q0 -21 -9.5 -34t-27.5 -28q-23 -17 -27 -30h-38q6 16 32 35z" />
    <glyph glyph-name="uni1EAB" unicode="&#x1eab;" 
d="M165.5 32q-52.5 37 -80 99t-27.5 137t27.5 137.5t81.5 99.5t128 37q132 0 196 -129h7v112h34v-525h-34v125h-7q-29 -58 -78.5 -94t-121.5 -36q-73 0 -125.5 37zM403 62q45 31 68 85t23 121q0 104 -52.5 171t-147.5 67q-97 0 -148.5 -67t-51.5 -170q0 -104 51.5 -171
t148.5 -67q64 0 109 31zM282 728h46l120 -133h-45l-96 105h-4l-96 -105h-45zM200.5 822.5q17.5 28.5 54.5 28.5q19 0 33 -9t31 -26q15 -14 24 -20t20 -6q20 0 29.5 17t9.5 44h33q0 -33 -17.5 -61.5t-54.5 -28.5q-19 0 -32.5 8.5t-31.5 25.5q-13 13 -22.5 19.5t-21.5 6.5
q-20 0 -29.5 -16.5t-9.5 -43.5h-33q0 33 17.5 61.5z" />
    <glyph glyph-name="adieresis" unicode="&#xe4;" 
d="M165.5 32q-52.5 37 -80 99t-27.5 137t27.5 137.5t81.5 99.5t128 37q132 0 196 -129h7v112h34v-525h-34v125h-7q-29 -58 -78.5 -94t-121.5 -36q-73 0 -125.5 37zM403 62q45 31 68 85t23 121q0 104 -52.5 171t-147.5 67q-97 0 -148.5 -67t-51.5 -170q0 -104 51.5 -171
t148.5 -67q64 0 109 31zM347 640.5q-10 10.5 -10 25.5t10 25.5t25 10.5t25.5 -11t10.5 -25q0 -15 -10.5 -25.5t-25.5 -10.5t-25 10.5zM208 640.5q-10 10.5 -10 25.5t10 25.5t25 10.5t25.5 -11t10.5 -25q0 -15 -10.5 -25.5t-25.5 -10.5t-25 10.5z" />
    <glyph glyph-name="uni1EA1" unicode="&#x1ea1;" 
d="M165.5 32q-52.5 37 -80 99t-27.5 137t27.5 137.5t81.5 99.5t128 37q132 0 196 -129h7v112h34v-525h-34v125h-7q-29 -58 -78.5 -94t-121.5 -36q-73 0 -125.5 37zM403 62q45 31 68 85t23 121q0 104 -52.5 171t-147.5 67q-97 0 -148.5 -67t-51.5 -170q0 -104 51.5 -171
t148.5 -67q64 0 109 31zM284.5 -191q-10.5 11 -10.5 27q0 15 10.5 26t26.5 11t27 -11t11 -26q0 -16 -11 -27t-27 -11t-26.5 11z" />
    <glyph glyph-name="agrave" unicode="&#xe0;" 
d="M165.5 32q-52.5 37 -80 99t-27.5 137t27.5 137.5t81.5 99.5t128 37q132 0 196 -129h7v112h34v-525h-34v125h-7q-29 -58 -78.5 -94t-121.5 -36q-73 0 -125.5 37zM403 62q45 31 68 85t23 121q0 104 -52.5 171t-147.5 67q-97 0 -148.5 -67t-51.5 -170q0 -104 51.5 -171
t148.5 -67q64 0 109 31zM174 756h46l96 -164h-29z" />
    <glyph glyph-name="uni1EA3" unicode="&#x1ea3;" 
d="M165.5 32q-52.5 37 -80 99t-27.5 137t27.5 137.5t81.5 99.5t128 37q132 0 196 -129h7v112h34v-525h-34v125h-7q-29 -58 -78.5 -94t-121.5 -36q-73 0 -125.5 37zM403 62q45 31 68 85t23 121q0 104 -52.5 171t-147.5 67q-97 0 -148.5 -67t-51.5 -170q0 -104 51.5 -171
t148.5 -67q64 0 109 31zM321 627q19 15 28.5 26.5t9.5 27.5q0 18 -12 31.5t-40 13.5q-22 0 -34.5 -9.5t-16.5 -23.5h-34q19 63 85 63q38 0 61 -20t23 -52q0 -21 -9.5 -34t-27.5 -28q-23 -17 -27 -30h-38q6 16 32 35z" />
    <glyph glyph-name="amacron" unicode="&#x101;" 
d="M165.5 32q-52.5 37 -80 99t-27.5 137t27.5 137.5t81.5 99.5t128 37q132 0 196 -129h7v112h34v-525h-34v125h-7q-29 -58 -78.5 -94t-121.5 -36q-73 0 -125.5 37zM403 62q45 31 68 85t23 121q0 104 -52.5 171t-147.5 67q-97 0 -148.5 -67t-51.5 -170q0 -104 51.5 -171
t148.5 -67q64 0 109 31zM165 661h280v-26h-280v26z" />
    <glyph glyph-name="aogonek" unicode="&#x105;" 
d="M571 -116v-28q-22 -5 -45 -5q-38 0 -61 20t-23 52q0 53 56 87v115h-7q-29 -58 -78.5 -94t-121.5 -36q-73 0 -125.5 37t-80 99t-27.5 137t27.5 137.5t81.5 99.5t128 37q132 0 196 -129h7v112h34v-525q-27 -18 -42.5 -34.5t-15.5 -40.5q0 -19 13.5 -32t42.5 -13q15 0 41 4z
M403 62q45 31 68 85t23 121q0 104 -52.5 171t-147.5 67q-97 0 -148.5 -67t-51.5 -170q0 -104 51.5 -171t148.5 -67q64 0 109 31z" />
    <glyph glyph-name="aring" unicode="&#xe5;" 
d="M165.5 32q-52.5 37 -80 99t-27.5 137t27.5 137.5t81.5 99.5t128 37q132 0 196 -129h7v112h34v-525h-34v125h-7q-29 -58 -78.5 -94t-121.5 -36q-73 0 -125.5 37zM403 62q45 31 68 85t23 121q0 104 -52.5 171t-147.5 67q-97 0 -148.5 -67t-51.5 -170q0 -104 51.5 -171
t148.5 -67q64 0 109 31zM251 646.5q-22 22.5 -22 53.5t22 53t53 22t53.5 -22t22.5 -53t-22.5 -53.5t-53.5 -22.5t-53 22.5zM341.5 662.5q15.5 15.5 15.5 37.5t-15.5 37t-37.5 15t-37 -15t-15 -37t15 -37.5t37 -15.5t37.5 15.5z" />
    <glyph glyph-name="atilde" unicode="&#xe3;" 
d="M165.5 32q-52.5 37 -80 99t-27.5 137t27.5 137.5t81.5 99.5t128 37q132 0 196 -129h7v112h34v-525h-34v125h-7q-29 -58 -78.5 -94t-121.5 -36q-73 0 -125.5 37zM403 62q45 31 68 85t23 121q0 104 -52.5 171t-147.5 67q-97 0 -148.5 -67t-51.5 -170q0 -104 51.5 -171
t148.5 -67q64 0 109 31zM196.5 687.5q17.5 28.5 54.5 28.5q19 0 33 -9t31 -26q15 -14 24 -20t20 -6q20 0 29.5 17t9.5 44h33q0 -33 -17.5 -61.5t-54.5 -28.5q-19 0 -32.5 8.5t-31.5 25.5q-13 13 -22.5 19.5t-21.5 6.5q-20 0 -29.5 -16.5t-9.5 -43.5h-33q0 33 17.5 61.5z" />
    <glyph glyph-name="ae" unicode="&#xe6;" horiz-adv-x="971" 
d="M110 36.5q-50 41.5 -50 111.5q0 141 219 141h161v53q0 30 -12.5 66.5t-50 66t-106.5 29.5q-77 0 -116 -35.5t-51 -82.5h-35q15 71 70.5 111t133.5 40q75 0 126 -38t66 -113h4q25 73 81.5 114.5t133.5 41.5q101 0 151 -55.5t62 -115t12 -104.5v-10h-430v-7
q0 -59 25.5 -109.5t72.5 -81t107 -30.5q65 0 111.5 33.5t69.5 91.5h35q-22 -68 -76 -113.5t-140 -45.5q-81 0 -137 42t-80 111h-4q-27 -76 -87.5 -114.5t-135.5 -38.5q-80 0 -130 41.5zM872 289q-6 117 -56.5 167.5t-131.5 50.5q-91 0 -145 -61t-59 -157h392zM348 57.5
q45 24.5 68 62.5t23 80v57h-160q-47 0 -84.5 -5.5t-67.5 -30t-30 -74.5q0 -56 39 -85t105 -29q62 0 107 24.5z" />
    <glyph glyph-name="b" unicode="b" 
d="M210.5 31q-49.5 36 -78.5 94h-7v-125h-34v750h34v-337h7q64 129 196 129q74 0 128 -37t81.5 -99.5t27.5 -137.5t-27.5 -137t-80 -99t-125.5 -37q-72 0 -121.5 36zM477.5 98q51.5 67 51.5 171q0 103 -51.5 170t-148.5 67q-95 0 -147.5 -67t-52.5 -171q0 -67 23 -121
t68 -85t109 -31q97 0 148.5 67z" />
    <glyph glyph-name="c" unicode="c" horiz-adv-x="579" 
d="M170 33.5q-55 39.5 -81.5 102t-26.5 132.5t26.5 132.5t81.5 102t136 39.5q67 0 115 -28t74 -72t32 -95h-33q-12 72 -59.5 116t-128.5 44q-66 0 -112.5 -31.5t-70.5 -85.5t-24 -122t24 -122t70.5 -85.5t112.5 -31.5q81 0 128.5 44t59.5 116h33q-6 -51 -32 -95t-74 -72
t-115 -28q-81 0 -136 39.5z" />
    <glyph glyph-name="cacute" unicode="&#x107;" horiz-adv-x="579" 
d="M170 33.5q-55 39.5 -81.5 102t-26.5 132.5t26.5 132.5t81.5 102t136 39.5q67 0 115 -28t74 -72t32 -95h-33q-12 72 -59.5 116t-128.5 44q-66 0 -112.5 -31.5t-70.5 -85.5t-24 -122t24 -122t70.5 -85.5t112.5 -31.5q81 0 128.5 44t59.5 116h33q-6 -51 -32 -95t-74 -72
t-115 -28q-81 0 -136 39.5zM295 592l96 164h46l-113 -164h-29z" />
    <glyph glyph-name="ccaron" unicode="&#x10d;" horiz-adv-x="579" 
d="M170 33.5q-55 39.5 -81.5 102t-26.5 132.5t26.5 132.5t81.5 102t136 39.5q67 0 115 -28t74 -72t32 -95h-33q-12 72 -59.5 116t-128.5 44q-66 0 -112.5 -31.5t-70.5 -85.5t-24 -122t24 -122t70.5 -85.5t112.5 -31.5q81 0 128.5 44t59.5 116h33q-6 -51 -32 -95t-74 -72
t-115 -28q-81 0 -136 39.5zM208 728l96 -105h4l96 105h45l-120 -133h-46l-120 133h45z" />
    <glyph glyph-name="ccedilla" unicode="&#xe7;" horiz-adv-x="579" 
d="M434.5 73q47.5 44 59.5 116h33q-9 -75 -60.5 -131.5t-140.5 -62.5l-23 -66h36q47 0 70.5 -22t23.5 -58q0 -39 -29.5 -68.5t-85.5 -29.5q-24 0 -46 5l2 30q26 -4 47 -4q38 0 59 17.5t21 46.5q0 33 -21.5 42.5t-44.5 9.5h-76v4l33 92q-76 4 -128 44t-77 101t-25 129
q0 70 26.5 132.5t81.5 102t136 39.5q67 0 115 -28t74 -72t32 -95h-33q-12 72 -59.5 116t-128.5 44q-66 0 -112.5 -31.5t-70.5 -85.5t-24 -122t24 -122t70.5 -85.5t112.5 -31.5q81 0 128.5 44z" />
    <glyph glyph-name="cdotaccent" unicode="&#x10b;" horiz-adv-x="579" 
d="M170 33.5q-55 39.5 -81.5 102t-26.5 132.5t26.5 132.5t81.5 102t136 39.5q67 0 115 -28t74 -72t32 -95h-33q-12 72 -59.5 116t-128.5 44q-66 0 -112.5 -31.5t-70.5 -85.5t-24 -122t24 -122t70.5 -85.5t112.5 -31.5q81 0 128.5 44t59.5 116h33q-6 -51 -32 -95t-74 -72
t-115 -28q-81 0 -136 39.5zM280 640.5q-10 10.5 -10 25.5t10 25.5t25 10.5t25.5 -11t10.5 -25q0 -15 -10.5 -25.5t-25.5 -10.5t-25 10.5z" />
    <glyph glyph-name="d" unicode="d" 
d="M165.5 32q-52.5 37 -80 99t-27.5 137t27.5 137.5t81.5 99.5t128 37q132 0 196 -129h7v337h34v-750h-34v125h-7q-29 -58 -78.5 -94t-121.5 -36q-73 0 -125.5 37zM403 62q45 31 68 85t23 121q0 104 -52.5 171t-147.5 67q-97 0 -148.5 -67t-51.5 -170q0 -104 51.5 -171
t148.5 -67q64 0 109 31z" />
    <glyph glyph-name="eth" unicode="&#xf0;" horiz-adv-x="621" 
d="M531 416v-148q0 -75 -28 -137t-81.5 -99t-127.5 -37q-73 0 -126.5 37t-81 99t-27.5 137t27.5 137.5t81 99.5t126.5 37q136 0 198 -126h7v3q0 171 -97 255l-100 -58l-15 25l90 52q-37 25 -72.5 34t-53.5 9v29q26 0 69.5 -11.5t86.5 -43.5l93 54l15 -25l-84 -48
q100 -93 100 -275zM442.5 97.5q52.5 66.5 52.5 170.5t-52.5 171t-148.5 67t-147.5 -67.5t-51.5 -170.5q0 -104 51.5 -170.5t147.5 -66.5t148.5 66.5z" />
    <glyph glyph-name="dcaron" unicode="&#x10f;" horiz-adv-x="693" 
d="M165.5 32q-52.5 37 -80 99t-27.5 137t27.5 137.5t81.5 99.5t128 37q132 0 196 -129h7v337h34v-750h-34v125h-7q-29 -58 -78.5 -94t-121.5 -36q-73 0 -125.5 37zM403 62q45 31 68 85t23 121q0 104 -52.5 171t-147.5 67q-97 0 -148.5 -67t-51.5 -170q0 -104 51.5 -171
t148.5 -67q64 0 109 31zM588 571q53 25 53 76q0 21 -5.5 27.5t-16.5 6.5q-20 0 -29.5 7.5t-9.5 24.5q0 20 11 29.5t30 9.5q34 0 43 -15.5t9 -37.5v-30q0 -90 -85 -126v28z" />
    <glyph glyph-name="dcroat" unicode="&#x111;" horiz-adv-x="617" 
d="M616 626h-84v-626h-34v125h-7q-29 -58 -78.5 -94t-121.5 -36q-73 0 -125.5 37t-80 99t-27.5 137t27.5 137.5t81.5 99.5t128 37q132 0 196 -129h7v213h-194v30h194v94h34v-94h84v-30zM403 62q45 31 68 85t23 121q0 104 -52.5 171t-147.5 67q-97 0 -148.5 -67t-51.5 -170
q0 -104 51.5 -171t148.5 -67q64 0 109 31z" />
    <glyph glyph-name="e" unicode="e" horiz-adv-x="589" 
d="M169.5 34.5q-54.5 39.5 -81 102.5t-26.5 132q0 70 27 132.5t81 101.5t132 39q102 0 163.5 -71t61.5 -204v-10h-428v-7q0 -57 25.5 -108t71.5 -82t106 -31q65 0 111.5 33.5t69.5 91.5h35q-22 -68 -76 -113.5t-140 -45.5q-78 0 -132.5 39.5zM490 289q-6 117 -56.5 167.5
t-131.5 50.5q-90 0 -143.5 -61t-58.5 -157h390z" />
    <glyph glyph-name="eacute" unicode="&#xe9;" horiz-adv-x="589" 
d="M169.5 34.5q-54.5 39.5 -81 102.5t-26.5 132q0 70 27 132.5t81 101.5t132 39q102 0 163.5 -71t61.5 -204v-10h-428v-7q0 -57 25.5 -108t71.5 -82t106 -31q65 0 111.5 33.5t69.5 91.5h35q-22 -68 -76 -113.5t-140 -45.5q-78 0 -132.5 39.5zM490 289q-6 117 -56.5 167.5
t-131.5 50.5q-90 0 -143.5 -61t-58.5 -157h390zM291 592l96 164h46l-113 -164h-29z" />
    <glyph glyph-name="ecaron" unicode="&#x11b;" horiz-adv-x="589" 
d="M169.5 34.5q-54.5 39.5 -81 102.5t-26.5 132q0 70 27 132.5t81 101.5t132 39q102 0 163.5 -71t61.5 -204v-10h-428v-7q0 -57 25.5 -108t71.5 -82t106 -31q65 0 111.5 33.5t69.5 91.5h35q-22 -68 -76 -113.5t-140 -45.5q-78 0 -132.5 39.5zM490 289q-6 117 -56.5 167.5
t-131.5 50.5q-90 0 -143.5 -61t-58.5 -157h390zM204 728l96 -105h4l96 105h45l-120 -133h-46l-120 133h45z" />
    <glyph glyph-name="ecircumflex" unicode="&#xea;" horiz-adv-x="589" 
d="M169.5 34.5q-54.5 39.5 -81 102.5t-26.5 132q0 70 27 132.5t81 101.5t132 39q102 0 163.5 -71t61.5 -204v-10h-428v-7q0 -57 25.5 -108t71.5 -82t106 -31q65 0 111.5 33.5t69.5 91.5h35q-22 -68 -76 -113.5t-140 -45.5q-78 0 -132.5 39.5zM490 289q-6 117 -56.5 167.5
t-131.5 50.5q-90 0 -143.5 -61t-58.5 -157h390zM279 728h46l120 -133h-45l-96 105h-4l-96 -105h-45z" />
    <glyph glyph-name="uni1EBF" unicode="&#x1ebf;" horiz-adv-x="589" 
d="M169.5 34.5q-54.5 39.5 -81 102.5t-26.5 132q0 70 27 132.5t81 101.5t132 39q102 0 163.5 -71t61.5 -204v-10h-428v-7q0 -57 25.5 -108t71.5 -82t106 -31q65 0 111.5 33.5t69.5 91.5h35q-22 -68 -76 -113.5t-140 -45.5q-78 0 -132.5 39.5zM490 289q-6 117 -56.5 167.5
t-131.5 50.5q-90 0 -143.5 -61t-58.5 -157h390zM279 728h46l120 -133h-45l-96 105h-4l-96 -105h-45zM411 715l96 164h46l-113 -164h-29z" />
    <glyph glyph-name="uni1EC7" unicode="&#x1ec7;" horiz-adv-x="589" 
d="M169.5 34.5q-54.5 39.5 -81 102.5t-26.5 132q0 70 27 132.5t81 101.5t132 39q102 0 163.5 -71t61.5 -204v-10h-428v-7q0 -57 25.5 -108t71.5 -82t106 -31q65 0 111.5 33.5t69.5 91.5h35q-22 -68 -76 -113.5t-140 -45.5q-78 0 -132.5 39.5zM490 289q-6 117 -56.5 167.5
t-131.5 50.5q-90 0 -143.5 -61t-58.5 -157h390zM274.5 -191q-10.5 11 -10.5 27q0 15 10.5 26t26.5 11t27 -11t11 -26q0 -16 -11 -27t-27 -11t-26.5 11zM279 728h46l120 -133h-45l-96 105h-4l-96 -105h-45z" />
    <glyph glyph-name="uni1EC1" unicode="&#x1ec1;" horiz-adv-x="589" 
d="M169.5 34.5q-54.5 39.5 -81 102.5t-26.5 132q0 70 27 132.5t81 101.5t132 39q102 0 163.5 -71t61.5 -204v-10h-428v-7q0 -57 25.5 -108t71.5 -82t106 -31q65 0 111.5 33.5t69.5 91.5h35q-22 -68 -76 -113.5t-140 -45.5q-78 0 -132.5 39.5zM490 289q-6 117 -56.5 167.5
t-131.5 50.5q-90 0 -143.5 -61t-58.5 -157h390zM279 728h46l120 -133h-45l-96 105h-4l-96 -105h-45zM291 879h46l96 -164h-29z" />
    <glyph glyph-name="uni1EC3" unicode="&#x1ec3;" horiz-adv-x="589" 
d="M169.5 34.5q-54.5 39.5 -81 102.5t-26.5 132q0 70 27 132.5t81 101.5t132 39q102 0 163.5 -71t61.5 -204v-10h-428v-7q0 -57 25.5 -108t71.5 -82t106 -31q65 0 111.5 33.5t69.5 91.5h35q-22 -68 -76 -113.5t-140 -45.5q-78 0 -132.5 39.5zM490 289q-6 117 -56.5 167.5
t-131.5 50.5q-90 0 -143.5 -61t-58.5 -157h390zM279 728h46l120 -133h-45l-96 105h-4l-96 -105h-45zM438 750q19 15 28.5 26.5t9.5 27.5q0 18 -12 31.5t-40 13.5q-22 0 -34.5 -9.5t-16.5 -23.5h-34q19 63 85 63q38 0 61 -20t23 -52q0 -21 -9.5 -34t-27.5 -28
q-23 -17 -27 -30h-38q6 16 32 35z" />
    <glyph glyph-name="uni1EC5" unicode="&#x1ec5;" horiz-adv-x="589" 
d="M169.5 34.5q-54.5 39.5 -81 102.5t-26.5 132q0 70 27 132.5t81 101.5t132 39q102 0 163.5 -71t61.5 -204v-10h-428v-7q0 -57 25.5 -108t71.5 -82t106 -31q65 0 111.5 33.5t69.5 91.5h35q-22 -68 -76 -113.5t-140 -45.5q-78 0 -132.5 39.5zM490 289q-6 117 -56.5 167.5
t-131.5 50.5q-90 0 -143.5 -61t-58.5 -157h390zM279 728h46l120 -133h-45l-96 105h-4l-96 -105h-45zM197.5 822.5q17.5 28.5 54.5 28.5q19 0 33 -9t31 -26q15 -14 24 -20t20 -6q20 0 29.5 17t9.5 44h33q0 -33 -17.5 -61.5t-54.5 -28.5q-19 0 -32.5 8.5t-31.5 25.5
q-13 13 -22.5 19.5t-21.5 6.5q-20 0 -29.5 -16.5t-9.5 -43.5h-33q0 33 17.5 61.5z" />
    <glyph glyph-name="edieresis" unicode="&#xeb;" horiz-adv-x="589" 
d="M169.5 34.5q-54.5 39.5 -81 102.5t-26.5 132q0 70 27 132.5t81 101.5t132 39q102 0 163.5 -71t61.5 -204v-10h-428v-7q0 -57 25.5 -108t71.5 -82t106 -31q65 0 111.5 33.5t69.5 91.5h35q-22 -68 -76 -113.5t-140 -45.5q-78 0 -132.5 39.5zM490 289q-6 117 -56.5 167.5
t-131.5 50.5q-90 0 -143.5 -61t-58.5 -157h390zM344 640.5q-10 10.5 -10 25.5t10 25.5t25 10.5t25.5 -11t10.5 -25q0 -15 -10.5 -25.5t-25.5 -10.5t-25 10.5zM205 640.5q-10 10.5 -10 25.5t10 25.5t25 10.5t25.5 -11t10.5 -25q0 -15 -10.5 -25.5t-25.5 -10.5t-25 10.5z" />
    <glyph glyph-name="edotaccent" unicode="&#x117;" horiz-adv-x="589" 
d="M169.5 34.5q-54.5 39.5 -81 102.5t-26.5 132q0 70 27 132.5t81 101.5t132 39q102 0 163.5 -71t61.5 -204v-10h-428v-7q0 -57 25.5 -108t71.5 -82t106 -31q65 0 111.5 33.5t69.5 91.5h35q-22 -68 -76 -113.5t-140 -45.5q-78 0 -132.5 39.5zM490 289q-6 117 -56.5 167.5
t-131.5 50.5q-90 0 -143.5 -61t-58.5 -157h390zM276 640.5q-10 10.5 -10 25.5t10 25.5t25 10.5t25.5 -11t10.5 -25q0 -15 -10.5 -25.5t-25.5 -10.5t-25 10.5z" />
    <glyph glyph-name="uni1EB9" unicode="&#x1eb9;" horiz-adv-x="589" 
d="M169.5 34.5q-54.5 39.5 -81 102.5t-26.5 132q0 70 27 132.5t81 101.5t132 39q102 0 163.5 -71t61.5 -204v-10h-428v-7q0 -57 25.5 -108t71.5 -82t106 -31q65 0 111.5 33.5t69.5 91.5h35q-22 -68 -76 -113.5t-140 -45.5q-78 0 -132.5 39.5zM490 289q-6 117 -56.5 167.5
t-131.5 50.5q-90 0 -143.5 -61t-58.5 -157h390zM274.5 -191q-10.5 11 -10.5 27q0 15 10.5 26t26.5 11t27 -11t11 -26q0 -16 -11 -27t-27 -11t-26.5 11z" />
    <glyph glyph-name="egrave" unicode="&#xe8;" horiz-adv-x="589" 
d="M169.5 34.5q-54.5 39.5 -81 102.5t-26.5 132q0 70 27 132.5t81 101.5t132 39q102 0 163.5 -71t61.5 -204v-10h-428v-7q0 -57 25.5 -108t71.5 -82t106 -31q65 0 111.5 33.5t69.5 91.5h35q-22 -68 -76 -113.5t-140 -45.5q-78 0 -132.5 39.5zM490 289q-6 117 -56.5 167.5
t-131.5 50.5q-90 0 -143.5 -61t-58.5 -157h390zM171 756h46l96 -164h-29z" />
    <glyph glyph-name="uni1EBB" unicode="&#x1ebb;" horiz-adv-x="589" 
d="M169.5 34.5q-54.5 39.5 -81 102.5t-26.5 132q0 70 27 132.5t81 101.5t132 39q102 0 163.5 -71t61.5 -204v-10h-428v-7q0 -57 25.5 -108t71.5 -82t106 -31q65 0 111.5 33.5t69.5 91.5h35q-22 -68 -76 -113.5t-140 -45.5q-78 0 -132.5 39.5zM490 289q-6 117 -56.5 167.5
t-131.5 50.5q-90 0 -143.5 -61t-58.5 -157h390zM318 627q19 15 28.5 26.5t9.5 27.5q0 18 -12 31.5t-40 13.5q-22 0 -34.5 -9.5t-16.5 -23.5h-34q19 63 85 63q38 0 61 -20t23 -52q0 -21 -9.5 -34t-27.5 -28q-23 -17 -27 -30h-38q6 16 32 35z" />
    <glyph glyph-name="emacron" unicode="&#x113;" horiz-adv-x="589" 
d="M169.5 34.5q-54.5 39.5 -81 102.5t-26.5 132q0 70 27 132.5t81 101.5t132 39q102 0 163.5 -71t61.5 -204v-10h-428v-7q0 -57 25.5 -108t71.5 -82t106 -31q65 0 111.5 33.5t69.5 91.5h35q-22 -68 -76 -113.5t-140 -45.5q-78 0 -132.5 39.5zM490 289q-6 117 -56.5 167.5
t-131.5 50.5q-90 0 -143.5 -61t-58.5 -157h390zM162 661h280v-26h-280v26z" />
    <glyph glyph-name="eogonek" unicode="&#x119;" horiz-adv-x="589" 
d="M99 257v-7q0 -57 25.5 -108t71.5 -82t106 -31q65 0 111.5 33.5t69.5 91.5h35q-19 -60 -64.5 -103.5t-116.5 -53.5q-27 -18 -42.5 -34.5t-15.5 -40.5q0 -19 13.5 -32t42.5 -13q15 0 41 4v-28q-22 -5 -45 -5q-38 0 -61 20t-23 52q0 44 39 75q-73 4 -123.5 44.5t-75.5 101.5
t-25 128q0 70 27 132.5t81 101.5t132 39q102 0 163.5 -71t61.5 -204v-10h-428zM158.5 446q-53.5 -61 -58.5 -157h390q-6 117 -56.5 167.5t-131.5 50.5q-90 0 -143.5 -61z" />
    <glyph glyph-name="uni1EBD" unicode="&#x1ebd;" horiz-adv-x="589" 
d="M169.5 34.5q-54.5 39.5 -81 102.5t-26.5 132q0 70 27 132.5t81 101.5t132 39q102 0 163.5 -71t61.5 -204v-10h-428v-7q0 -57 25.5 -108t71.5 -82t106 -31q65 0 111.5 33.5t69.5 91.5h35q-22 -68 -76 -113.5t-140 -45.5q-78 0 -132.5 39.5zM490 289q-6 117 -56.5 167.5
t-131.5 50.5q-90 0 -143.5 -61t-58.5 -157h390zM193.5 687.5q17.5 28.5 54.5 28.5q19 0 33 -9t31 -26q15 -14 24 -20t20 -6q20 0 29.5 17t9.5 44h33q0 -33 -17.5 -61.5t-54.5 -28.5q-19 0 -32.5 8.5t-31.5 25.5q-13 13 -22.5 19.5t-21.5 6.5q-20 0 -29.5 -16.5t-9.5 -43.5
h-33q0 33 17.5 61.5z" />
    <glyph glyph-name="f" unicode="f" horiz-adv-x="356" 
d="M195.5 693.5q-18.5 -14.5 -22.5 -34t-4 -48.5v-86h132v-30h-132v-495h-34l-1 495h-79v30h79v86q0 57 24.5 91.5t90.5 34.5q33 0 52 -6v-28q-22 5 -49 5q-38 0 -56.5 -14.5z" />
    <glyph glyph-name="g" unicode="g" horiz-adv-x="628" 
d="M234 -187v34q39 -11 80 -11q88 0 138 48t50 136v120h-8q-27 -58 -79.5 -92t-119.5 -34t-120 34t-83 94.5t-30 136.5q0 75 29 135.5t82 95t121 34.5q72 0 124.5 -37.5t76.5 -97.5h7v115h34v-504q0 -62 -26.5 -112t-76.5 -78.5t-119 -28.5q-46 0 -80 12zM407.5 81
q44.5 31 67.5 84t23 116q0 62 -22.5 113.5t-67.5 82.5t-108 31q-64 0 -108.5 -31t-67.5 -82.5t-23 -113.5q0 -63 23 -116t68 -84t108 -31t107.5 31z" />
    <glyph glyph-name="gbreve" unicode="&#x11f;" horiz-adv-x="628" 
d="M234 -187v34q39 -11 80 -11q88 0 138 48t50 136v120h-8q-27 -58 -79.5 -92t-119.5 -34t-120 34t-83 94.5t-30 136.5q0 75 29 135.5t82 95t121 34.5q72 0 124.5 -37.5t76.5 -97.5h7v115h34v-504q0 -62 -26.5 -112t-76.5 -78.5t-119 -28.5q-46 0 -80 12zM407.5 81
q44.5 31 67.5 84t23 116q0 62 -22.5 113.5t-67.5 82.5t-108 31q-64 0 -108.5 -31t-67.5 -82.5t-23 -113.5q0 -63 23 -116t68 -84t108 -31t107.5 31zM216.5 633.5q-35.5 20.5 -64.5 66.5h38q36 -57 115 -57t115 57h38q-29 -46 -64.5 -66.5t-88.5 -20.5t-88.5 20.5z" />
    <glyph glyph-name="gdotaccent" unicode="&#x121;" horiz-adv-x="628" 
d="M234 -187v34q39 -11 80 -11q88 0 138 48t50 136v120h-8q-27 -58 -79.5 -92t-119.5 -34t-120 34t-83 94.5t-30 136.5q0 75 29 135.5t82 95t121 34.5q72 0 124.5 -37.5t76.5 -97.5h7v115h34v-504q0 -62 -26.5 -112t-76.5 -78.5t-119 -28.5q-46 0 -80 12zM407.5 81
q44.5 31 67.5 84t23 116q0 62 -22.5 113.5t-67.5 82.5t-108 31q-64 0 -108.5 -31t-67.5 -82.5t-23 -113.5q0 -63 23 -116t68 -84t108 -31t107.5 31zM279 640.5q-10 10.5 -10 25.5t10 25.5t25 10.5t25.5 -11t10.5 -25q0 -15 -10.5 -25.5t-25.5 -10.5t-25 10.5z" />
    <glyph glyph-name="h" unicode="h" horiz-adv-x="622" 
d="M92 750h34v-333h7q23 52 72.5 88.5t122.5 36.5q64 0 112 -30t74 -83.5t26 -122.5v-306h-34v306q0 99 -53.5 148t-136.5 49q-49 0 -92.5 -22.5t-70.5 -67t-27 -107.5v-306h-34v750z" />
    <glyph glyph-name="hbar" unicode="&#x127;" horiz-adv-x="600" 
d="M505 468.5q35 -73.5 35 -150.5v-318h-34v317q0 65 -30 126t-135 61q-66 0 -115 -30.5t-74.5 -83t-25.5 -118.5v-272h-34v626h-84v30h84v94h33v-94h195v-30h-195v-219h8q23 56 77 95.5t136 39.5q124 0 159 -73.5z" />
    <glyph glyph-name="i" unicode="i" horiz-adv-x="216" 
d="M91 525h34v-525h-34v525zM82 640.5q-10 10.5 -10 25.5t10 25.5t25 10.5t25.5 -11t10.5 -25q0 -15 -10.5 -25.5t-25.5 -10.5t-25 10.5z" />
    <glyph glyph-name="dotlessi" unicode="&#x131;" horiz-adv-x="216" 
d="M91 525h34v-525h-34v525z" />
    <glyph glyph-name="iacute" unicode="&#xed;" horiz-adv-x="216" 
d="M91 525h34v-525h-34v525zM97 592l96 164h46l-113 -164h-29z" />
    <glyph glyph-name="icircumflex" unicode="&#xee;" horiz-adv-x="216" 
d="M91 525h34v-525h-34v525zM85 728h46l120 -133h-45l-96 105h-4l-96 -105h-45z" />
    <glyph glyph-name="idieresis" unicode="&#xef;" horiz-adv-x="216" 
d="M91 525h34v-525h-34v525zM150 640.5q-10 10.5 -10 25.5t10 25.5t25 10.5t25.5 -11t10.5 -25q0 -15 -10.5 -25.5t-25.5 -10.5t-25 10.5zM11 640.5q-10 10.5 -10 25.5t10 25.5t25 10.5t25.5 -11t10.5 -25q0 -15 -10.5 -25.5t-25.5 -10.5t-25 10.5z" />
    <glyph glyph-name="i.loclTRK" horiz-adv-x="216" 
d="M91 525h34v-525h-34v525zM82 640.5q-10 10.5 -10 25.5t10 25.5t25 10.5t25.5 -11t10.5 -25q0 -15 -10.5 -25.5t-25.5 -10.5t-25 10.5z" />
    <glyph glyph-name="uni1ECB" unicode="&#x1ecb;" horiz-adv-x="216" 
d="M91 525h34v-525h-34v525zM82 640.5q-10 10.5 -10 25.5t10 25.5t25 10.5t25.5 -11t10.5 -25q0 -15 -10.5 -25.5t-25.5 -10.5t-25 10.5zM80.5 -191q-10.5 11 -10.5 27q0 15 10.5 26t26.5 11t27 -11t11 -26q0 -16 -11 -27t-27 -11t-26.5 11z" />
    <glyph glyph-name="igrave" unicode="&#xec;" horiz-adv-x="216" 
d="M91 525h34v-525h-34v525zM-23 756h46l96 -164h-29z" />
    <glyph glyph-name="uni1EC9" unicode="&#x1ec9;" horiz-adv-x="216" 
d="M91 525h34v-525h-34v525zM124 627q19 15 28.5 26.5t9.5 27.5q0 18 -12 31.5t-40 13.5q-22 0 -34.5 -9.5t-16.5 -23.5h-34q19 63 85 63q38 0 61 -20t23 -52q0 -21 -9.5 -34t-27.5 -28q-23 -17 -27 -30h-38q6 16 32 35z" />
    <glyph glyph-name="imacron" unicode="&#x12b;" horiz-adv-x="216" 
d="M91 525h34v-525h-34v525zM-32 661h280v-26h-280v26z" />
    <glyph glyph-name="iogonek" unicode="&#x12f;" horiz-adv-x="216" 
d="M82 640.5q-10 10.5 -10 25.5t10 25.5t25 10.5t25.5 -11t10.5 -25q0 -15 -10.5 -25.5t-25.5 -10.5t-25 10.5zM164 -116v-28q-22 -5 -45 -5q-38 0 -61 20t-23 52q0 53 56 87v515h34v-525q-27 -18 -42.5 -34.5t-15.5 -40.5q0 -19 13.5 -32t42.5 -13q15 0 41 4z" />
    <glyph glyph-name="itilde" unicode="&#x129;" horiz-adv-x="216" 
d="M91 525h34v-525h-34v525zM-0.5 687.5q17.5 28.5 54.5 28.5q19 0 33 -9t31 -26q15 -14 24 -20t20 -6q20 0 29.5 17t9.5 44h33q0 -33 -17.5 -61.5t-54.5 -28.5q-19 0 -32.5 8.5t-31.5 25.5q-13 13 -22.5 19.5t-21.5 6.5q-20 0 -29.5 -16.5t-9.5 -43.5h-33q0 33 17.5 61.5z
" />
    <glyph glyph-name="j" unicode="j" horiz-adv-x="224" 
d="M89 640.5q-10 10.5 -10 25.5t10 25.5t25 10.5t25.5 -11t10.5 -25q0 -15 -10.5 -25.5t-25.5 -10.5t-25 10.5zM-33 -206v28q22 -5 49 -5q38 0 56 14.5t22.5 34t4.5 48.5v611h34l1 -611q0 -57 -24 -91.5t-91 -34.5q-33 0 -52 6z" />
    <glyph glyph-name="k" unicode="k" horiz-adv-x="471" 
d="M92 750h34v-425h4l240 200h42l-274 -231l288 -294h-42l-254 260h-4v-260h-34v750z" />
    <glyph glyph-name="l" unicode="l" horiz-adv-x="286" 
d="M127.5 10.5q-22.5 15.5 -29 43t-6.5 73.5l1 623h34v-623q0 -40 3.5 -60t18.5 -31.5t48 -11.5q18 0 44 4v-28q-22 -5 -46 -5q-45 0 -67.5 15.5z" />
    <glyph glyph-name="lacute" unicode="&#x13a;" horiz-adv-x="286" 
d="M127.5 10.5q-22.5 15.5 -29 43t-6.5 73.5l1 623h34v-623q0 -40 3.5 -60t18.5 -31.5t48 -11.5q18 0 44 4v-28q-22 -5 -46 -5q-45 0 -67.5 15.5zM99 817l96 164h46l-113 -164h-29z" />
    <glyph glyph-name="lcaron" unicode="&#x13e;" horiz-adv-x="289" 
d="M127.5 10.5q-22.5 15.5 -29 43t-6.5 73.5l1 623h34v-623q0 -40 3.5 -60t18.5 -31.5t48 -11.5q18 0 44 4v-28q-22 -5 -46 -5q-45 0 -67.5 15.5zM184 571q53 25 53 76q0 21 -5.5 27.5t-16.5 6.5q-20 0 -29.5 7.5t-9.5 24.5q0 20 11 29.5t30 9.5q34 0 43 -15.5t9 -37.5v-30
q0 -90 -85 -126v28z" />
    <glyph glyph-name="m" unicode="m" horiz-adv-x="997" 
d="M92 525h33v-108h7q22 52 69.5 88.5t116.5 36.5q71 0 119.5 -39.5t70.5 -95.5h8q24 56 75 95.5t123 39.5q59 0 104.5 -29t71 -82.5t25.5 -124.5v-306h-33v306q0 98 -50.5 147.5t-125.5 49.5q-50 0 -92.5 -22.5t-68 -67t-25.5 -107.5v-306h-33v306q0 98 -50.5 147.5
t-125.5 49.5q-50 0 -92.5 -22.5t-68 -67t-25.5 -107.5v-306h-33v525z" />
    <glyph glyph-name="n" unicode="n" horiz-adv-x="622" 
d="M92 525h34v-108h7q23 52 72.5 88.5t122.5 36.5q64 0 112 -30t74 -83.5t26 -122.5v-306h-34v306q0 98 -53.5 147.5t-133.5 49.5q-56 0 -100 -24.5t-68.5 -69t-24.5 -103.5v-306h-34v525z" />
    <glyph glyph-name="nacute" unicode="&#x144;" horiz-adv-x="622" 
d="M92 525h34v-108h7q23 52 72.5 88.5t122.5 36.5q64 0 112 -30t74 -83.5t26 -122.5v-306h-34v306q0 98 -53.5 147.5t-133.5 49.5q-56 0 -100 -24.5t-68.5 -69t-24.5 -103.5v-306h-34v525zM300 592l96 164h46l-113 -164h-29z" />
    <glyph glyph-name="ncaron" unicode="&#x148;" horiz-adv-x="622" 
d="M92 525h34v-108h7q23 52 72.5 88.5t122.5 36.5q64 0 112 -30t74 -83.5t26 -122.5v-306h-34v306q0 98 -53.5 147.5t-133.5 49.5q-56 0 -100 -24.5t-68.5 -69t-24.5 -103.5v-306h-34v525zM213 728l96 -105h4l96 105h45l-120 -133h-46l-120 133h45z" />
    <glyph glyph-name="ntilde" unicode="&#xf1;" horiz-adv-x="622" 
d="M92 525h34v-108h7q23 52 72.5 88.5t122.5 36.5q64 0 112 -30t74 -83.5t26 -122.5v-306h-34v306q0 98 -53.5 147.5t-133.5 49.5q-56 0 -100 -24.5t-68.5 -69t-24.5 -103.5v-306h-34v525zM202.5 687.5q17.5 28.5 54.5 28.5q19 0 33 -9t31 -26q15 -14 24 -20t20 -6
q20 0 29.5 17t9.5 44h33q0 -33 -17.5 -61.5t-54.5 -28.5q-19 0 -32.5 8.5t-31.5 25.5q-13 13 -22.5 19.5t-21.5 6.5q-20 0 -29.5 -16.5t-9.5 -43.5h-33q0 33 17.5 61.5z" />
    <glyph glyph-name="o" unicode="o" horiz-adv-x="604" 
d="M171 34.5q-54 39.5 -81.5 102.5t-27.5 131q0 69 27.5 132t82 102t130.5 39q77 0 131 -39.5t81.5 -102.5t27.5 -131q0 -69 -27.5 -131.5t-82 -102t-130.5 -39.5q-77 0 -131 39.5zM408.5 61.5q46.5 31.5 72 86t25.5 120.5q0 68 -25.5 122.5t-72 85.5t-106.5 31
q-61 0 -107.5 -31.5t-71.5 -86t-25 -121.5t25 -121t71.5 -85.5t107.5 -31.5q60 0 106.5 31.5z" />
    <glyph glyph-name="oacute" unicode="&#xf3;" horiz-adv-x="604" 
d="M171 34.5q-54 39.5 -81.5 102.5t-27.5 131q0 69 27.5 132t82 102t130.5 39q77 0 131 -39.5t81.5 -102.5t27.5 -131q0 -69 -27.5 -131.5t-82 -102t-130.5 -39.5q-77 0 -131 39.5zM408.5 61.5q46.5 31.5 72 86t25.5 120.5q0 68 -25.5 122.5t-72 85.5t-106.5 31
q-61 0 -107.5 -31.5t-71.5 -86t-25 -121.5t25 -121t71.5 -85.5t107.5 -31.5q60 0 106.5 31.5zM291 592l96 164h46l-113 -164h-29z" />
    <glyph glyph-name="ocircumflex" unicode="&#xf4;" horiz-adv-x="604" 
d="M171 34.5q-54 39.5 -81.5 102.5t-27.5 131q0 69 27.5 132t82 102t130.5 39q77 0 131 -39.5t81.5 -102.5t27.5 -131q0 -69 -27.5 -131.5t-82 -102t-130.5 -39.5q-77 0 -131 39.5zM408.5 61.5q46.5 31.5 72 86t25.5 120.5q0 68 -25.5 122.5t-72 85.5t-106.5 31
q-61 0 -107.5 -31.5t-71.5 -86t-25 -121.5t25 -121t71.5 -85.5t107.5 -31.5q60 0 106.5 31.5zM279 728h46l120 -133h-45l-96 105h-4l-96 -105h-45z" />
    <glyph glyph-name="uni1ED1" unicode="&#x1ed1;" horiz-adv-x="604" 
d="M171 34.5q-54 39.5 -81.5 102.5t-27.5 131q0 69 27.5 132t82 102t130.5 39q77 0 131 -39.5t81.5 -102.5t27.5 -131q0 -69 -27.5 -131.5t-82 -102t-130.5 -39.5q-77 0 -131 39.5zM408.5 61.5q46.5 31.5 72 86t25.5 120.5q0 68 -25.5 122.5t-72 85.5t-106.5 31
q-61 0 -107.5 -31.5t-71.5 -86t-25 -121.5t25 -121t71.5 -85.5t107.5 -31.5q60 0 106.5 31.5zM279 728h46l120 -133h-45l-96 105h-4l-96 -105h-45zM411 715l96 164h46l-113 -164h-29z" />
    <glyph glyph-name="uni1ED9" unicode="&#x1ed9;" horiz-adv-x="604" 
d="M171 34.5q-54 39.5 -81.5 102.5t-27.5 131q0 69 27.5 132t82 102t130.5 39q77 0 131 -39.5t81.5 -102.5t27.5 -131q0 -69 -27.5 -131.5t-82 -102t-130.5 -39.5q-77 0 -131 39.5zM408.5 61.5q46.5 31.5 72 86t25.5 120.5q0 68 -25.5 122.5t-72 85.5t-106.5 31
q-61 0 -107.5 -31.5t-71.5 -86t-25 -121.5t25 -121t71.5 -85.5t107.5 -31.5q60 0 106.5 31.5zM274.5 -191q-10.5 11 -10.5 27q0 15 10.5 26t26.5 11t27 -11t11 -26q0 -16 -11 -27t-27 -11t-26.5 11zM279 728h46l120 -133h-45l-96 105h-4l-96 -105h-45z" />
    <glyph glyph-name="uni1ED3" unicode="&#x1ed3;" horiz-adv-x="604" 
d="M171 34.5q-54 39.5 -81.5 102.5t-27.5 131q0 69 27.5 132t82 102t130.5 39q77 0 131 -39.5t81.5 -102.5t27.5 -131q0 -69 -27.5 -131.5t-82 -102t-130.5 -39.5q-77 0 -131 39.5zM408.5 61.5q46.5 31.5 72 86t25.5 120.5q0 68 -25.5 122.5t-72 85.5t-106.5 31
q-61 0 -107.5 -31.5t-71.5 -86t-25 -121.5t25 -121t71.5 -85.5t107.5 -31.5q60 0 106.5 31.5zM279 728h46l120 -133h-45l-96 105h-4l-96 -105h-45zM291 879h46l96 -164h-29z" />
    <glyph glyph-name="uni1ED5" unicode="&#x1ed5;" horiz-adv-x="604" 
d="M171 34.5q-54 39.5 -81.5 102.5t-27.5 131q0 69 27.5 132t82 102t130.5 39q77 0 131 -39.5t81.5 -102.5t27.5 -131q0 -69 -27.5 -131.5t-82 -102t-130.5 -39.5q-77 0 -131 39.5zM408.5 61.5q46.5 31.5 72 86t25.5 120.5q0 68 -25.5 122.5t-72 85.5t-106.5 31
q-61 0 -107.5 -31.5t-71.5 -86t-25 -121.5t25 -121t71.5 -85.5t107.5 -31.5q60 0 106.5 31.5zM279 728h46l120 -133h-45l-96 105h-4l-96 -105h-45zM438 750q19 15 28.5 26.5t9.5 27.5q0 18 -12 31.5t-40 13.5q-22 0 -34.5 -9.5t-16.5 -23.5h-34q19 63 85 63q38 0 61 -20
t23 -52q0 -21 -9.5 -34t-27.5 -28q-23 -17 -27 -30h-38q6 16 32 35z" />
    <glyph glyph-name="uni1ED7" unicode="&#x1ed7;" horiz-adv-x="604" 
d="M171 34.5q-54 39.5 -81.5 102.5t-27.5 131q0 69 27.5 132t82 102t130.5 39q77 0 131 -39.5t81.5 -102.5t27.5 -131q0 -69 -27.5 -131.5t-82 -102t-130.5 -39.5q-77 0 -131 39.5zM408.5 61.5q46.5 31.5 72 86t25.5 120.5q0 68 -25.5 122.5t-72 85.5t-106.5 31
q-61 0 -107.5 -31.5t-71.5 -86t-25 -121.5t25 -121t71.5 -85.5t107.5 -31.5q60 0 106.5 31.5zM279 728h46l120 -133h-45l-96 105h-4l-96 -105h-45zM197.5 822.5q17.5 28.5 54.5 28.5q19 0 33 -9t31 -26q15 -14 24 -20t20 -6q20 0 29.5 17t9.5 44h33q0 -33 -17.5 -61.5
t-54.5 -28.5q-19 0 -32.5 8.5t-31.5 25.5q-13 13 -22.5 19.5t-21.5 6.5q-20 0 -29.5 -16.5t-9.5 -43.5h-33q0 33 17.5 61.5z" />
    <glyph glyph-name="odieresis" unicode="&#xf6;" horiz-adv-x="604" 
d="M171 34.5q-54 39.5 -81.5 102.5t-27.5 131q0 69 27.5 132t82 102t130.5 39q77 0 131 -39.5t81.5 -102.5t27.5 -131q0 -69 -27.5 -131.5t-82 -102t-130.5 -39.5q-77 0 -131 39.5zM408.5 61.5q46.5 31.5 72 86t25.5 120.5q0 68 -25.5 122.5t-72 85.5t-106.5 31
q-61 0 -107.5 -31.5t-71.5 -86t-25 -121.5t25 -121t71.5 -85.5t107.5 -31.5q60 0 106.5 31.5zM344 640.5q-10 10.5 -10 25.5t10 25.5t25 10.5t25.5 -11t10.5 -25q0 -15 -10.5 -25.5t-25.5 -10.5t-25 10.5zM205 640.5q-10 10.5 -10 25.5t10 25.5t25 10.5t25.5 -11t10.5 -25
q0 -15 -10.5 -25.5t-25.5 -10.5t-25 10.5z" />
    <glyph glyph-name="uni1ECD" unicode="&#x1ecd;" horiz-adv-x="604" 
d="M171 34.5q-54 39.5 -81.5 102.5t-27.5 131q0 69 27.5 132t82 102t130.5 39q77 0 131 -39.5t81.5 -102.5t27.5 -131q0 -69 -27.5 -131.5t-82 -102t-130.5 -39.5q-77 0 -131 39.5zM408.5 61.5q46.5 31.5 72 86t25.5 120.5q0 68 -25.5 122.5t-72 85.5t-106.5 31
q-61 0 -107.5 -31.5t-71.5 -86t-25 -121.5t25 -121t71.5 -85.5t107.5 -31.5q60 0 106.5 31.5zM274.5 -191q-10.5 11 -10.5 27q0 15 10.5 26t26.5 11t27 -11t11 -26q0 -16 -11 -27t-27 -11t-26.5 11z" />
    <glyph glyph-name="ograve" unicode="&#xf2;" horiz-adv-x="604" 
d="M171 34.5q-54 39.5 -81.5 102.5t-27.5 131q0 69 27.5 132t82 102t130.5 39q77 0 131 -39.5t81.5 -102.5t27.5 -131q0 -69 -27.5 -131.5t-82 -102t-130.5 -39.5q-77 0 -131 39.5zM408.5 61.5q46.5 31.5 72 86t25.5 120.5q0 68 -25.5 122.5t-72 85.5t-106.5 31
q-61 0 -107.5 -31.5t-71.5 -86t-25 -121.5t25 -121t71.5 -85.5t107.5 -31.5q60 0 106.5 31.5zM171 756h46l96 -164h-29z" />
    <glyph glyph-name="uni1ECF" unicode="&#x1ecf;" horiz-adv-x="604" 
d="M171 34.5q-54 39.5 -81.5 102.5t-27.5 131q0 69 27.5 132t82 102t130.5 39q77 0 131 -39.5t81.5 -102.5t27.5 -131q0 -69 -27.5 -131.5t-82 -102t-130.5 -39.5q-77 0 -131 39.5zM408.5 61.5q46.5 31.5 72 86t25.5 120.5q0 68 -25.5 122.5t-72 85.5t-106.5 31
q-61 0 -107.5 -31.5t-71.5 -86t-25 -121.5t25 -121t71.5 -85.5t107.5 -31.5q60 0 106.5 31.5zM318 627q19 15 28.5 26.5t9.5 27.5q0 18 -12 31.5t-40 13.5q-22 0 -34.5 -9.5t-16.5 -23.5h-34q19 63 85 63q38 0 61 -20t23 -52q0 -21 -9.5 -34t-27.5 -28q-23 -17 -27 -30h-38
q6 16 32 35z" />
    <glyph glyph-name="ohorn" unicode="&#x1a1;" horiz-adv-x="604" 
d="M516 396q26 -61 26 -128q0 -69 -27.5 -131.5t-82 -102t-130.5 -39.5q-77 0 -131 39.5t-81.5 102.5t-27.5 131q0 69 27.5 132t82 102t130.5 39q45 0 87 -16h51q25 0 35 12t10 51v16h39v-16q0 -93 -77 -93h-5q48 -38 74 -99zM408.5 61.5q46.5 31.5 72 86t25.5 120.5
q0 68 -25.5 122.5t-72 85.5t-106.5 31q-61 0 -107.5 -31.5t-71.5 -86t-25 -121.5t25 -121t71.5 -85.5t107.5 -31.5q60 0 106.5 31.5z" />
    <glyph glyph-name="uni1EDB" unicode="&#x1edb;" horiz-adv-x="604" 
d="M516 396q26 -61 26 -128q0 -69 -27.5 -131.5t-82 -102t-130.5 -39.5q-77 0 -131 39.5t-81.5 102.5t-27.5 131q0 69 27.5 132t82 102t130.5 39q45 0 87 -16h51q25 0 35 12t10 51v16h39v-16q0 -93 -77 -93h-5q48 -38 74 -99zM408.5 61.5q46.5 31.5 72 86t25.5 120.5
q0 68 -25.5 122.5t-72 85.5t-106.5 31q-61 0 -107.5 -31.5t-71.5 -86t-25 -121.5t25 -121t71.5 -85.5t107.5 -31.5q60 0 106.5 31.5zM291 592l96 164h46l-113 -164h-29z" />
    <glyph glyph-name="uni1EE3" unicode="&#x1ee3;" horiz-adv-x="604" 
d="M516 396q26 -61 26 -128q0 -69 -27.5 -131.5t-82 -102t-130.5 -39.5q-77 0 -131 39.5t-81.5 102.5t-27.5 131q0 69 27.5 132t82 102t130.5 39q45 0 87 -16h51q25 0 35 12t10 51v16h39v-16q0 -93 -77 -93h-5q48 -38 74 -99zM408.5 61.5q46.5 31.5 72 86t25.5 120.5
q0 68 -25.5 122.5t-72 85.5t-106.5 31q-61 0 -107.5 -31.5t-71.5 -86t-25 -121.5t25 -121t71.5 -85.5t107.5 -31.5q60 0 106.5 31.5zM274.5 -191q-10.5 11 -10.5 27q0 15 10.5 26t26.5 11t27 -11t11 -26q0 -16 -11 -27t-27 -11t-26.5 11z" />
    <glyph glyph-name="uni1EDD" unicode="&#x1edd;" horiz-adv-x="604" 
d="M516 396q26 -61 26 -128q0 -69 -27.5 -131.5t-82 -102t-130.5 -39.5q-77 0 -131 39.5t-81.5 102.5t-27.5 131q0 69 27.5 132t82 102t130.5 39q45 0 87 -16h51q25 0 35 12t10 51v16h39v-16q0 -93 -77 -93h-5q48 -38 74 -99zM408.5 61.5q46.5 31.5 72 86t25.5 120.5
q0 68 -25.5 122.5t-72 85.5t-106.5 31q-61 0 -107.5 -31.5t-71.5 -86t-25 -121.5t25 -121t71.5 -85.5t107.5 -31.5q60 0 106.5 31.5zM171 756h46l96 -164h-29z" />
    <glyph glyph-name="uni1EDF" unicode="&#x1edf;" horiz-adv-x="604" 
d="M516 396q26 -61 26 -128q0 -69 -27.5 -131.5t-82 -102t-130.5 -39.5q-77 0 -131 39.5t-81.5 102.5t-27.5 131q0 69 27.5 132t82 102t130.5 39q45 0 87 -16h51q25 0 35 12t10 51v16h39v-16q0 -93 -77 -93h-5q48 -38 74 -99zM408.5 61.5q46.5 31.5 72 86t25.5 120.5
q0 68 -25.5 122.5t-72 85.5t-106.5 31q-61 0 -107.5 -31.5t-71.5 -86t-25 -121.5t25 -121t71.5 -85.5t107.5 -31.5q60 0 106.5 31.5zM318 627q19 15 28.5 26.5t9.5 27.5q0 18 -12 31.5t-40 13.5q-22 0 -34.5 -9.5t-16.5 -23.5h-34q19 63 85 63q38 0 61 -20t23 -52
q0 -21 -9.5 -34t-27.5 -28q-23 -17 -27 -30h-38q6 16 32 35z" />
    <glyph glyph-name="uni1EE1" unicode="&#x1ee1;" horiz-adv-x="604" 
d="M516 396q26 -61 26 -128q0 -69 -27.5 -131.5t-82 -102t-130.5 -39.5q-77 0 -131 39.5t-81.5 102.5t-27.5 131q0 69 27.5 132t82 102t130.5 39q45 0 87 -16h51q25 0 35 12t10 51v16h39v-16q0 -93 -77 -93h-5q48 -38 74 -99zM408.5 61.5q46.5 31.5 72 86t25.5 120.5
q0 68 -25.5 122.5t-72 85.5t-106.5 31q-61 0 -107.5 -31.5t-71.5 -86t-25 -121.5t25 -121t71.5 -85.5t107.5 -31.5q60 0 106.5 31.5zM193.5 687.5q17.5 28.5 54.5 28.5q19 0 33 -9t31 -26q15 -14 24 -20t20 -6q20 0 29.5 17t9.5 44h33q0 -33 -17.5 -61.5t-54.5 -28.5
q-19 0 -32.5 8.5t-31.5 25.5q-13 13 -22.5 19.5t-21.5 6.5q-20 0 -29.5 -16.5t-9.5 -43.5h-33q0 33 17.5 61.5z" />
    <glyph glyph-name="omacron" unicode="&#x14d;" horiz-adv-x="604" 
d="M171 34.5q-54 39.5 -81.5 102.5t-27.5 131q0 69 27.5 132t82 102t130.5 39q77 0 131 -39.5t81.5 -102.5t27.5 -131q0 -69 -27.5 -131.5t-82 -102t-130.5 -39.5q-77 0 -131 39.5zM408.5 61.5q46.5 31.5 72 86t25.5 120.5q0 68 -25.5 122.5t-72 85.5t-106.5 31
q-61 0 -107.5 -31.5t-71.5 -86t-25 -121.5t25 -121t71.5 -85.5t107.5 -31.5q60 0 106.5 31.5zM162 661h280v-26h-280v26z" />
    <glyph glyph-name="oslash" unicode="&#xf8;" horiz-adv-x="604" 
d="M516.5 396.5q25.5 -61.5 25.5 -127.5q0 -69 -27.5 -131.5t-82 -102t-130.5 -39.5q-64 0 -115 30l-39 -72h-37l49 90q-48 38 -73 98.5t-25 126.5q0 69 27.5 132t82 102t130.5 39q63 0 113 -28l41 76h37l-51 -94q49 -38 74.5 -99.5zM118.5 158q20.5 -51 58.5 -83l221 408
q-44 25 -96 25q-61 0 -107.5 -31.5t-71.5 -86t-25 -121.5q0 -60 20.5 -111zM408.5 62.5q46.5 31.5 72 86t25.5 120.5q0 62 -21 112.5t-60 83.5l-221 -408q43 -26 98 -26q60 0 106.5 31.5z" />
    <glyph glyph-name="otilde" unicode="&#xf5;" horiz-adv-x="604" 
d="M171 34.5q-54 39.5 -81.5 102.5t-27.5 131q0 69 27.5 132t82 102t130.5 39q77 0 131 -39.5t81.5 -102.5t27.5 -131q0 -69 -27.5 -131.5t-82 -102t-130.5 -39.5q-77 0 -131 39.5zM408.5 61.5q46.5 31.5 72 86t25.5 120.5q0 68 -25.5 122.5t-72 85.5t-106.5 31
q-61 0 -107.5 -31.5t-71.5 -86t-25 -121.5t25 -121t71.5 -85.5t107.5 -31.5q60 0 106.5 31.5zM193.5 687.5q17.5 28.5 54.5 28.5q19 0 33 -9t31 -26q15 -14 24 -20t20 -6q20 0 29.5 17t9.5 44h33q0 -33 -17.5 -61.5t-54.5 -28.5q-19 0 -32.5 8.5t-31.5 25.5
q-13 13 -22.5 19.5t-21.5 6.5q-20 0 -29.5 -16.5t-9.5 -43.5h-33q0 33 17.5 61.5z" />
    <glyph glyph-name="oe" unicode="&#x153;" horiz-adv-x="1033" 
d="M170 34.5q-54 39.5 -81 102t-27 131.5t27.5 131.5t81 102t129.5 39.5q83 0 139.5 -47t81.5 -119h6q26 73 81 120t138 47q66 0 117 -31t79.5 -93t28.5 -151v-10h-426v-7q0 -58 27 -109t73 -81.5t101 -30.5q62 0 110 33.5t71 91.5h35q-22 -67 -77 -113t-139 -46t-138.5 46
t-80.5 119h-6q-26 -70 -81.5 -117.5t-139.5 -47.5q-76 0 -130 39.5zM403 59.5q47 30.5 74 84t27 121.5q0 69 -27.5 124t-75 86.5t-105.5 31.5t-103 -31.5t-70 -86.5t-25 -122q0 -69 26 -123t71.5 -84.5t102.5 -30.5q58 0 105 30.5zM934 289q-6 116 -57.5 167t-130.5 51
q-57 0 -101 -28t-70 -77.5t-30 -112.5h389z" />
    <glyph glyph-name="p" unicode="p" 
d="M210.5 31q-49.5 36 -78.5 94h-7v-324h-34v724h34v-112h7q64 129 196 129q74 0 128 -37t81.5 -99.5t27.5 -137.5t-27.5 -137t-80 -99t-125.5 -37q-72 0 -121.5 36zM477.5 98q51.5 67 51.5 171q0 103 -51.5 170t-148.5 67q-95 0 -147.5 -67t-52.5 -171q0 -67 23 -121
t68 -85t109 -31q97 0 148.5 67z" />
    <glyph glyph-name="thorn" unicode="&#xfe;" 
d="M210.5 29.5q-49.5 34.5 -78.5 92.5h-7v-347h-34v975h34v-334h7q62 126 196 126q74 0 128 -37t81.5 -99.5t27.5 -137.5t-27.5 -137t-80 -99t-125.5 -37q-72 0 -121.5 34.5zM477.5 98q51.5 67 51.5 171q0 103 -51.5 170t-148.5 67q-95 0 -147.5 -67t-52.5 -171
q0 -67 23 -121t68 -85t109 -31q97 0 148.5 67z" />
    <glyph glyph-name="q" unicode="q" 
d="M165.5 32q-52.5 37 -80 99t-27.5 137t27.5 137.5t81.5 99.5t128 37q132 0 196 -129h7v112h34v-724h-34v324h-7q-29 -58 -78.5 -94t-121.5 -36q-73 0 -125.5 37zM403 62q45 31 68 85t23 121q0 104 -52.5 171t-147.5 67q-97 0 -148.5 -67t-51.5 -170q0 -104 51.5 -171
t148.5 -67q64 0 109 31z" />
    <glyph glyph-name="r" unicode="r" horiz-adv-x="318" 
d="M82 525h33v-84h5q15 35 46.5 59.5t77.5 24.5q21 0 32 -2t27 -8v-39q-19 5 -30.5 7t-29.5 2q-54 0 -91 -35.5t-37 -118.5v-331h-33v525z" />
    <glyph glyph-name="racute" unicode="&#x155;" horiz-adv-x="318" 
d="M82 525h33v-84h5q15 35 46.5 59.5t77.5 24.5q21 0 32 -2t27 -8v-39q-19 5 -30.5 7t-29.5 2q-54 0 -91 -35.5t-37 -118.5v-331h-33v525zM139 592l96 164h46l-113 -164h-29z" />
    <glyph glyph-name="rcaron" unicode="&#x159;" horiz-adv-x="318" 
d="M82 525h33v-84h5q15 35 46.5 59.5t77.5 24.5q21 0 32 -2t27 -8v-39q-19 5 -30.5 7t-29.5 2q-54 0 -91 -35.5t-37 -118.5v-331h-33v525zM52 728l96 -105h4l96 105h45l-120 -133h-46l-120 133h45z" />
    <glyph glyph-name="s" unicode="s" horiz-adv-x="498" 
d="M150.5 20q-45.5 25 -69.5 65.5t-24 83.5v3h37v-2q0 -34 18.5 -66t56 -53t90.5 -21q63 0 105.5 30.5t42.5 86.5q0 45 -31.5 71t-77.5 32l-78 10q-150 20 -150 134q0 69 50.5 108.5t128.5 39.5q57 0 98.5 -22t63.5 -58.5t22 -79.5v-3h-37v2q0 26 -14 55t-47 50.5t-86 21.5
q-64 0 -103 -32.5t-39 -81.5q0 -38 26 -64.5t66 -31.5l85 -11q69 -9 115 -41t46 -99q0 -44 -24.5 -78.5t-67.5 -54t-96 -19.5q-61 0 -106.5 25z" />
    <glyph glyph-name="sacute" unicode="&#x15b;" horiz-adv-x="498" 
d="M150.5 20q-45.5 25 -69.5 65.5t-24 83.5v3h37v-2q0 -34 18.5 -66t56 -53t90.5 -21q63 0 105.5 30.5t42.5 86.5q0 45 -31.5 71t-77.5 32l-78 10q-150 20 -150 134q0 69 50.5 108.5t128.5 39.5q57 0 98.5 -22t63.5 -58.5t22 -79.5v-3h-37v2q0 26 -14 55t-47 50.5t-86 21.5
q-64 0 -103 -32.5t-39 -81.5q0 -38 26 -64.5t66 -31.5l85 -11q69 -9 115 -41t46 -99q0 -44 -24.5 -78.5t-67.5 -54t-96 -19.5q-61 0 -106.5 25zM240 592l96 164h46l-113 -164h-29z" />
    <glyph glyph-name="scaron" unicode="&#x161;" horiz-adv-x="498" 
d="M150.5 20q-45.5 25 -69.5 65.5t-24 83.5v3h37v-2q0 -34 18.5 -66t56 -53t90.5 -21q63 0 105.5 30.5t42.5 86.5q0 45 -31.5 71t-77.5 32l-78 10q-150 20 -150 134q0 69 50.5 108.5t128.5 39.5q57 0 98.5 -22t63.5 -58.5t22 -79.5v-3h-37v2q0 26 -14 55t-47 50.5t-86 21.5
q-64 0 -103 -32.5t-39 -81.5q0 -38 26 -64.5t66 -31.5l85 -11q69 -9 115 -41t46 -99q0 -44 -24.5 -78.5t-67.5 -54t-96 -19.5q-61 0 -106.5 25zM153 728l96 -105h4l96 105h45l-120 -133h-46l-120 133h45z" />
    <glyph glyph-name="scedilla" unicode="&#x15f;" horiz-adv-x="498" 
d="M398.5 43.5q-46.5 -41.5 -119.5 -47.5l-24 -67h36q47 0 70.5 -22t23.5 -58q0 -39 -29.5 -68.5t-85.5 -29.5q-24 0 -46 5l2 30q26 -4 47 -4q38 0 59 17.5t21 46.5q0 33 -21.5 42.5t-44.5 9.5h-76v4l33 93q-57 3 -99.5 28.5t-65 64.5t-22.5 81v3h37v-2q0 -34 18.5 -66
t56 -53t90.5 -21q63 0 105.5 30.5t42.5 86.5q0 45 -31.5 71t-77.5 32l-78 10q-150 20 -150 134q0 69 50.5 108.5t128.5 39.5q57 0 98.5 -22t63.5 -58.5t22 -79.5v-3h-37v2q0 26 -14 55t-47 50.5t-86 21.5q-64 0 -103 -32.5t-39 -81.5q0 -38 26 -64.5t66 -31.5l85 -11
q69 -9 115 -41t46 -99q0 -62 -46.5 -103.5z" />
    <glyph glyph-name="germandbls" unicode="&#xdf;" horiz-adv-x="543" 
d="M175 648q-33 -33 -41 -72.5t-8 -84.5v-495h-34v495q0 50 9.5 96.5t50.5 87t125 40.5q91 0 139 -49.5t48 -126.5q0 -58 -24.5 -96t-54.5 -55t-42 -17v-5q13 0 47 -15.5t63.5 -54.5t29.5 -105q0 -55 -23.5 -99.5t-71 -71.5t-118.5 -27q-33 0 -55 5v32q26 -4 55 -4
q83 0 131.5 44t48.5 121q0 83 -55 122t-139 39h-63v32h63q68 0 121.5 33.5t53.5 116.5q0 71 -42 109t-112 38q-69 0 -102 -33z" />
    <glyph glyph-name="t" unicode="t" horiz-adv-x="365" 
d="M178 495v-376q0 -39 3.5 -57t18 -28t48.5 -10q31 0 62 9v-28q-28 -10 -64 -10q-43 0 -65 12t-30 36.5t-8 67.5l1 384h-109v30h109v175h34v-175h132v-30h-132z" />
    <glyph glyph-name="tbar" unicode="&#x167;" horiz-adv-x="365" 
d="M179 495v-173h132v-26h-132v-169q0 -40 3.5 -60t18.5 -31.5t48 -11.5q31 0 62 9v-28q-28 -10 -64 -10q-45 0 -67.5 15.5t-29 43t-6.5 73.5v169h-108v26h108l1 173h-109v30h109v175h34v-175h132v-30h-132z" />
    <glyph glyph-name="tcaron" unicode="&#x165;" horiz-adv-x="441" 
d="M178 495v-376q0 -39 3.5 -57t18 -28t48.5 -10q31 0 62 9v-28q-28 -10 -64 -10q-43 0 -65 12t-30 36.5t-8 67.5l1 384h-109v30h109v175h34v-175h132v-30h-132zM336 571q53 25 53 76q0 21 -5.5 27.5t-16.5 6.5q-20 0 -29.5 7.5t-9.5 24.5q0 20 11 29.5t30 9.5
q34 0 43 -15.5t9 -37.5v-30q0 -90 -85 -126v28z" />
    <glyph glyph-name="uni0163" unicode="&#x163;" horiz-adv-x="365" 
d="M321.5 -93q23.5 -22 23.5 -58q0 -39 -29.5 -68.5t-85.5 -29.5q-24 0 -46 5l2 30q26 -4 47 -4q38 0 59 17.5t21 46.5q0 33 -21.5 42.5t-44.5 9.5h-76v4l34 96q-37 8 -49.5 34t-12.5 79l1 384h-109v30h109v175h34v-175h132v-30h-132v-376q0 -39 3.5 -57t18 -28t48.5 -10
q31 0 62 9v-28q-28 -10 -64 -10h-8l-23 -66h36q47 0 70.5 -22z" />
    <glyph glyph-name="u" unicode="u" horiz-adv-x="612" 
d="M530 0h-34v116h-6q-23 -52 -71.5 -88.5t-119.5 -36.5q-63 0 -109.5 30t-72 83.5t-25.5 122.5v298h34v-298q0 -98 52 -147.5t130 -49.5q54 0 97 24.5t67 69t24 103.5v298h34v-525z" />
    <glyph glyph-name="uacute" unicode="&#xfa;" horiz-adv-x="612" 
d="M530 0h-34v116h-6q-23 -52 -71.5 -88.5t-119.5 -36.5q-63 0 -109.5 30t-72 83.5t-25.5 122.5v298h34v-298q0 -98 52 -147.5t130 -49.5q54 0 97 24.5t67 69t24 103.5v298h34v-525zM279 592l96 164h46l-113 -164h-29z" />
    <glyph glyph-name="ucircumflex" unicode="&#xfb;" horiz-adv-x="612" 
d="M530 0h-34v116h-6q-23 -52 -71.5 -88.5t-119.5 -36.5q-63 0 -109.5 30t-72 83.5t-25.5 122.5v298h34v-298q0 -98 52 -147.5t130 -49.5q54 0 97 24.5t67 69t24 103.5v298h34v-525zM267 728h46l120 -133h-45l-96 105h-4l-96 -105h-45z" />
    <glyph glyph-name="udieresis" unicode="&#xfc;" horiz-adv-x="612" 
d="M530 0h-34v116h-6q-23 -52 -71.5 -88.5t-119.5 -36.5q-63 0 -109.5 30t-72 83.5t-25.5 122.5v298h34v-298q0 -98 52 -147.5t130 -49.5q54 0 97 24.5t67 69t24 103.5v298h34v-525zM332 640.5q-10 10.5 -10 25.5t10 25.5t25 10.5t25.5 -11t10.5 -25q0 -15 -10.5 -25.5
t-25.5 -10.5t-25 10.5zM193 640.5q-10 10.5 -10 25.5t10 25.5t25 10.5t25.5 -11t10.5 -25q0 -15 -10.5 -25.5t-25.5 -10.5t-25 10.5z" />
    <glyph glyph-name="uni1EE5" unicode="&#x1ee5;" horiz-adv-x="612" 
d="M530 0h-34v116h-6q-23 -52 -71.5 -88.5t-119.5 -36.5q-63 0 -109.5 30t-72 83.5t-25.5 122.5v298h34v-298q0 -98 52 -147.5t130 -49.5q54 0 97 24.5t67 69t24 103.5v298h34v-525zM262.5 -191q-10.5 11 -10.5 27q0 15 10.5 26t26.5 11t27 -11t11 -26q0 -16 -11 -27
t-27 -11t-26.5 11z" />
    <glyph glyph-name="ugrave" unicode="&#xf9;" horiz-adv-x="612" 
d="M530 0h-34v116h-6q-23 -52 -71.5 -88.5t-119.5 -36.5q-63 0 -109.5 30t-72 83.5t-25.5 122.5v298h34v-298q0 -98 52 -147.5t130 -49.5q54 0 97 24.5t67 69t24 103.5v298h34v-525zM159 756h46l96 -164h-29z" />
    <glyph glyph-name="uni1EE7" unicode="&#x1ee7;" horiz-adv-x="612" 
d="M530 0h-34v116h-6q-23 -52 -71.5 -88.5t-119.5 -36.5q-63 0 -109.5 30t-72 83.5t-25.5 122.5v298h34v-298q0 -98 52 -147.5t130 -49.5q54 0 97 24.5t67 69t24 103.5v298h34v-525zM306 627q19 15 28.5 26.5t9.5 27.5q0 18 -12 31.5t-40 13.5q-22 0 -34.5 -9.5t-16.5 -23.5
h-34q19 63 85 63q38 0 61 -20t23 -52q0 -21 -9.5 -34t-27.5 -28q-23 -17 -27 -30h-38q6 16 32 35z" />
    <glyph glyph-name="uhorn" unicode="&#x1b0;" horiz-adv-x="622" 
d="M632 604v-16q0 -93 -77 -93h-25v-495h-34v116h-6q-23 -52 -71.5 -88.5t-119.5 -36.5q-63 0 -109.5 30t-72 83.5t-25.5 122.5v298h34v-298q0 -98 52 -147.5t130 -49.5q54 0 97 24.5t67 69t24 103.5v298h52q25 0 35 12t10 51v16h39z" />
    <glyph glyph-name="uni1EE9" unicode="&#x1ee9;" horiz-adv-x="622" 
d="M632 604v-16q0 -93 -77 -93h-25v-495h-34v116h-6q-23 -52 -71.5 -88.5t-119.5 -36.5q-63 0 -109.5 30t-72 83.5t-25.5 122.5v298h34v-298q0 -98 52 -147.5t130 -49.5q54 0 97 24.5t67 69t24 103.5v298h52q25 0 35 12t10 51v16h39zM279 592l96 164h46l-113 -164h-29z" />
    <glyph glyph-name="uni1EF1" unicode="&#x1ef1;" horiz-adv-x="622" 
d="M632 604v-16q0 -93 -77 -93h-25v-495h-34v116h-6q-23 -52 -71.5 -88.5t-119.5 -36.5q-63 0 -109.5 30t-72 83.5t-25.5 122.5v298h34v-298q0 -98 52 -147.5t130 -49.5q54 0 97 24.5t67 69t24 103.5v298h52q25 0 35 12t10 51v16h39zM262.5 -191q-10.5 11 -10.5 27
q0 15 10.5 26t26.5 11t27 -11t11 -26q0 -16 -11 -27t-27 -11t-26.5 11z" />
    <glyph glyph-name="uni1EEB" unicode="&#x1eeb;" horiz-adv-x="622" 
d="M632 604v-16q0 -93 -77 -93h-25v-495h-34v116h-6q-23 -52 -71.5 -88.5t-119.5 -36.5q-63 0 -109.5 30t-72 83.5t-25.5 122.5v298h34v-298q0 -98 52 -147.5t130 -49.5q54 0 97 24.5t67 69t24 103.5v298h52q25 0 35 12t10 51v16h39zM159 756h46l96 -164h-29z" />
    <glyph glyph-name="uni1EED" unicode="&#x1eed;" horiz-adv-x="622" 
d="M632 604v-16q0 -93 -77 -93h-25v-495h-34v116h-6q-23 -52 -71.5 -88.5t-119.5 -36.5q-63 0 -109.5 30t-72 83.5t-25.5 122.5v298h34v-298q0 -98 52 -147.5t130 -49.5q54 0 97 24.5t67 69t24 103.5v298h52q25 0 35 12t10 51v16h39zM306 627q19 15 28.5 26.5t9.5 27.5
q0 18 -12 31.5t-40 13.5q-22 0 -34.5 -9.5t-16.5 -23.5h-34q19 63 85 63q38 0 61 -20t23 -52q0 -21 -9.5 -34t-27.5 -28q-23 -17 -27 -30h-38q6 16 32 35z" />
    <glyph glyph-name="uni1EEF" unicode="&#x1eef;" horiz-adv-x="600" 
d="M198.5 687.5q17.5 28.5 54.5 28.5q19 0 33 -9t31 -26q15 -14 24 -20t20 -6q20 0 29.5 17t9.5 44h33q0 -33 -17.5 -61.5t-54.5 -28.5q-19 0 -32.5 8.5t-31.5 25.5q-13 13 -22.5 19.5t-21.5 6.5q-20 0 -29.5 -16.5t-9.5 -43.5h-33q0 33 17.5 61.5zM632 604v-16
q0 -93 -77 -93h-25v-495h-34v116h-6q-23 -52 -71.5 -88.5t-119.5 -36.5q-63 0 -109.5 30t-72 83.5t-25.5 122.5v298h34v-298q0 -98 52 -147.5t130 -49.5q54 0 97 24.5t67 69t24 103.5v298h52q25 0 35 12t10 51v16h39z" />
    <glyph glyph-name="umacron" unicode="&#x16b;" horiz-adv-x="612" 
d="M530 0h-34v116h-6q-23 -52 -71.5 -88.5t-119.5 -36.5q-63 0 -109.5 30t-72 83.5t-25.5 122.5v298h34v-298q0 -98 52 -147.5t130 -49.5q54 0 97 24.5t67 69t24 103.5v298h34v-525zM150 661h280v-26h-280v26z" />
    <glyph glyph-name="uogonek" unicode="&#x173;" horiz-adv-x="612" 
d="M543 -116v-28q-22 -5 -45 -5q-38 0 -61 20t-23 52q0 58 70 95l12 -11v109h-6q-23 -52 -71.5 -88.5t-119.5 -36.5q-63 0 -109.5 30t-72 83.5t-25.5 122.5v298h34v-298q0 -98 52 -147.5t130 -49.5q54 0 97 24.5t67 69t24 103.5v298h34v-525h-26q-27 -18 -42.5 -34.5
t-15.5 -40.5q0 -19 13.5 -32t42.5 -13q15 0 41 4z" />
    <glyph glyph-name="uring" unicode="&#x16f;" horiz-adv-x="612" 
d="M530 0h-34v116h-6q-23 -52 -71.5 -88.5t-119.5 -36.5q-63 0 -109.5 30t-72 83.5t-25.5 122.5v298h34v-298q0 -98 52 -147.5t130 -49.5q54 0 97 24.5t67 69t24 103.5v298h34v-525zM236 646.5q-22 22.5 -22 53.5t22 53t53 22t53.5 -22t22.5 -53t-22.5 -53.5t-53.5 -22.5
t-53 22.5zM326.5 662.5q15.5 15.5 15.5 37.5t-15.5 37t-37.5 15t-37 -15t-15 -37t15 -37.5t37 -15.5t37.5 15.5z" />
    <glyph glyph-name="utilde" unicode="&#x169;" horiz-adv-x="612" 
d="M530 0h-34v116h-6q-23 -52 -71.5 -88.5t-119.5 -36.5q-63 0 -109.5 30t-72 83.5t-25.5 122.5v298h34v-298q0 -98 52 -147.5t130 -49.5q54 0 97 24.5t67 69t24 103.5v298h34v-525zM181.5 687.5q17.5 28.5 54.5 28.5q19 0 33 -9t31 -26q15 -14 24 -20t20 -6q20 0 29.5 17
t9.5 44h33q0 -33 -17.5 -61.5t-54.5 -28.5q-19 0 -32.5 8.5t-31.5 25.5q-13 13 -22.5 19.5t-21.5 6.5q-20 0 -29.5 -16.5t-9.5 -43.5h-33q0 33 17.5 61.5z" />
    <glyph glyph-name="v" unicode="v" horiz-adv-x="549" 
d="M45 525h37l190 -484h4l191 484h37l-207 -525h-46z" />
    <glyph glyph-name="w" unicode="w" horiz-adv-x="812" 
d="M46 525h36l144 -486h3l161 486h33l162 -486h3l143 486h36l-155 -525h-52l-151 453h-6l-150 -453h-52z" />
    <glyph glyph-name="wacute" unicode="&#x1e83;" horiz-adv-x="812" 
d="M46 525h36l144 -486h3l161 486h33l162 -486h3l143 486h36l-155 -525h-52l-151 453h-6l-150 -453h-52zM395 592l96 164h46l-113 -164h-29z" />
    <glyph glyph-name="wcircumflex" unicode="&#x175;" horiz-adv-x="812" 
d="M46 525h36l144 -486h3l161 486h33l162 -486h3l143 486h36l-155 -525h-52l-151 453h-6l-150 -453h-52zM383 728h46l120 -133h-45l-96 105h-4l-96 -105h-45z" />
    <glyph glyph-name="wdieresis" unicode="&#x1e85;" horiz-adv-x="812" 
d="M46 525h36l144 -486h3l161 486h33l162 -486h3l143 486h36l-155 -525h-52l-151 453h-6l-150 -453h-52zM448 640.5q-10 10.5 -10 25.5t10 25.5t25 10.5t25.5 -11t10.5 -25q0 -15 -10.5 -25.5t-25.5 -10.5t-25 10.5zM309 640.5q-10 10.5 -10 25.5t10 25.5t25 10.5t25.5 -11
t10.5 -25q0 -15 -10.5 -25.5t-25.5 -10.5t-25 10.5z" />
    <glyph glyph-name="wgrave" unicode="&#x1e81;" horiz-adv-x="812" 
d="M46 525h36l144 -486h3l161 486h33l162 -486h3l143 486h36l-155 -525h-52l-151 453h-6l-150 -453h-52zM275 756h46l96 -164h-29z" />
    <glyph glyph-name="x" unicode="x" horiz-adv-x="535" 
d="M228 264l-187 261h43l170 -245h2l167 245h43l-183 -261l182 -264h-43l-166 243h-2l-168 -243h-44z" />
    <glyph glyph-name="y" unicode="y" horiz-adv-x="530" 
d="M202 -127.5q-14 -22.5 -40 -39.5t-66 -17q-28 0 -47 6v31q22 -5 43 -5q33 0 52.5 13.5t31.5 35t31 67.5l31 75l-200 486h39l179 -447h6l190 447h39l-260 -595q-15 -35 -29 -57.5z" />
    <glyph glyph-name="yacute" unicode="&#xfd;" horiz-adv-x="530" 
d="M202 -127.5q-14 -22.5 -40 -39.5t-66 -17q-28 0 -47 6v31q22 -5 43 -5q33 0 52.5 13.5t31.5 35t31 67.5l31 75l-200 486h39l179 -447h6l190 447h39l-260 -595q-15 -35 -29 -57.5zM248 592l96 164h46l-113 -164h-29z" />
    <glyph glyph-name="ycircumflex" unicode="&#x177;" horiz-adv-x="530" 
d="M202 -127.5q-14 -22.5 -40 -39.5t-66 -17q-28 0 -47 6v31q22 -5 43 -5q33 0 52.5 13.5t31.5 35t31 67.5l31 75l-200 486h39l179 -447h6l190 447h39l-260 -595q-15 -35 -29 -57.5zM236 728h46l120 -133h-45l-96 105h-4l-96 -105h-45z" />
    <glyph glyph-name="ydieresis" unicode="&#xff;" horiz-adv-x="530" 
d="M202 -127.5q-14 -22.5 -40 -39.5t-66 -17q-28 0 -47 6v31q22 -5 43 -5q33 0 52.5 13.5t31.5 35t31 67.5l31 75l-200 486h39l179 -447h6l190 447h39l-260 -595q-15 -35 -29 -57.5zM301 640.5q-10 10.5 -10 25.5t10 25.5t25 10.5t25.5 -11t10.5 -25q0 -15 -10.5 -25.5
t-25.5 -10.5t-25 10.5zM162 640.5q-10 10.5 -10 25.5t10 25.5t25 10.5t25.5 -11t10.5 -25q0 -15 -10.5 -25.5t-25.5 -10.5t-25 10.5z" />
    <glyph glyph-name="uni1EF5" unicode="&#x1ef5;" horiz-adv-x="530" 
d="M202 -127.5q-14 -22.5 -40 -39.5t-66 -17q-28 0 -47 6v31q22 -5 43 -5q33 0 52.5 13.5t31.5 35t31 67.5l31 75l-200 486h39l179 -447h6l190 447h39l-260 -595q-15 -35 -29 -57.5zM354.5 -191q-10.5 11 -10.5 27q0 15 10.5 26t26.5 11t27 -11t11 -26q0 -16 -11 -27
t-27 -11t-26.5 11z" />
    <glyph glyph-name="ygrave" unicode="&#x1ef3;" horiz-adv-x="530" 
d="M202 -127.5q-14 -22.5 -40 -39.5t-66 -17q-28 0 -47 6v31q22 -5 43 -5q33 0 52.5 13.5t31.5 35t31 67.5l31 75l-200 486h39l179 -447h6l190 447h39l-260 -595q-15 -35 -29 -57.5zM128 756h46l96 -164h-29z" />
    <glyph glyph-name="uni1EF7" unicode="&#x1ef7;" horiz-adv-x="530" 
d="M202 -127.5q-14 -22.5 -40 -39.5t-66 -17q-28 0 -47 6v31q22 -5 43 -5q33 0 52.5 13.5t31.5 35t31 67.5l31 75l-200 486h39l179 -447h6l190 447h39l-260 -595q-15 -35 -29 -57.5zM275 627q19 15 28.5 26.5t9.5 27.5q0 18 -12 31.5t-40 13.5q-22 0 -34.5 -9.5t-16.5 -23.5
h-34q19 63 85 63q38 0 61 -20t23 -52q0 -21 -9.5 -34t-27.5 -28q-23 -17 -27 -30h-38q6 16 32 35z" />
    <glyph glyph-name="uni1EF9" unicode="&#x1ef9;" horiz-adv-x="530" 
d="M202 -127.5q-14 -22.5 -40 -39.5t-66 -17q-28 0 -47 6v31q22 -5 43 -5q33 0 52.5 13.5t31.5 35t31 67.5l31 75l-200 486h39l179 -447h6l190 447h39l-260 -595q-15 -35 -29 -57.5zM150.5 687.5q17.5 28.5 54.5 28.5q19 0 33 -9t31 -26q15 -14 24 -20t20 -6q20 0 29.5 17
t9.5 44h33q0 -33 -17.5 -61.5t-54.5 -28.5q-19 0 -32.5 8.5t-31.5 25.5q-13 13 -22.5 19.5t-21.5 6.5q-20 0 -29.5 -16.5t-9.5 -43.5h-33q0 33 17.5 61.5z" />
    <glyph glyph-name="z" unicode="z" horiz-adv-x="502" 
d="M52 30l358 459v2h-335v34h380v-30l-358 -459v-2h358v-34h-403v30z" />
    <glyph glyph-name="zacute" unicode="&#x17a;" horiz-adv-x="502" 
d="M52 30l358 459v2h-335v34h380v-30l-358 -459v-2h358v-34h-403v30zM245 592l96 164h46l-113 -164h-29z" />
    <glyph glyph-name="zcaron" unicode="&#x17e;" horiz-adv-x="502" 
d="M52 30l358 459v2h-335v34h380v-30l-358 -459v-2h358v-34h-403v30zM158 728l96 -105h4l96 105h45l-120 -133h-46l-120 133h45z" />
    <glyph glyph-name="zdotaccent" unicode="&#x17c;" horiz-adv-x="502" 
d="M52 30l358 459v2h-335v34h380v-30l-358 -459v-2h358v-34h-403v30zM230 640.5q-10 10.5 -10 25.5t10 25.5t25 10.5t25.5 -11t10.5 -25q0 -15 -10.5 -25.5t-25.5 -10.5t-25 10.5z" />
    <glyph glyph-name="a.ss01" horiz-adv-x="560" 
d="M107 37.5q-52 42.5 -52 114.5q0 88 61 112.5t128 24.5h200v60q0 59 -35 109.5t-134 50.5q-82 0 -123.5 -39.5t-41.5 -103.5v-2h-35v2q0 91 59 133.5t142 42.5q93 0 147.5 -51.5t54.5 -141.5v-349h-35v103h-8q-14 -31 -59 -69.5t-133 -38.5q-84 0 -136 42.5zM349 57.5
q46 24.5 70 63t24 79.5v56h-199q-39 0 -70 -5.5t-56.5 -28.5t-25.5 -70q0 -57 40.5 -88t108.5 -31q62 0 108 24.5z" />
    <glyph glyph-name="aacute.ss01" horiz-adv-x="560" 
d="M107 37.5q-52 42.5 -52 114.5q0 88 61 112.5t128 24.5h200v60q0 59 -35 109.5t-134 50.5q-82 0 -123.5 -39.5t-41.5 -103.5v-2h-35v2q0 91 59 133.5t142 42.5q93 0 147.5 -51.5t54.5 -141.5v-349h-35v103h-8q-14 -31 -59 -69.5t-133 -38.5q-84 0 -136 42.5zM349 57.5
q46 24.5 70 63t24 79.5v56h-199q-39 0 -70 -5.5t-56.5 -28.5t-25.5 -70q0 -57 40.5 -88t108.5 -31q62 0 108 24.5zM270 609l96 164h46l-113 -164h-29z" />
    <glyph glyph-name="abreve.ss01" horiz-adv-x="560" 
d="M107 37.5q-52 42.5 -52 114.5q0 88 61 112.5t128 24.5h200v60q0 59 -35 109.5t-134 50.5q-82 0 -123.5 -39.5t-41.5 -103.5v-2h-35v2q0 91 59 133.5t142 42.5q93 0 147.5 -51.5t54.5 -141.5v-349h-35v103h-8q-14 -31 -59 -69.5t-133 -38.5q-84 0 -136 42.5zM349 57.5
q46 24.5 70 63t24 79.5v56h-199q-39 0 -70 -5.5t-56.5 -28.5t-25.5 -70q0 -57 40.5 -88t108.5 -31q62 0 108 24.5zM192.5 650.5q-35.5 20.5 -64.5 66.5h38q36 -57 115 -57t115 57h38q-29 -46 -64.5 -66.5t-88.5 -20.5t-88.5 20.5z" />
    <glyph glyph-name="uni1EAF.ss01" horiz-adv-x="560" 
d="M107 37.5q-52 42.5 -52 114.5q0 88 61 112.5t128 24.5h200v60q0 59 -35 109.5t-134 50.5q-82 0 -123.5 -39.5t-41.5 -103.5v-2h-35v2q0 91 59 133.5t142 42.5q93 0 147.5 -51.5t54.5 -141.5v-349h-35v103h-8q-14 -31 -59 -69.5t-133 -38.5q-84 0 -136 42.5zM349 57.5
q46 24.5 70 63t24 79.5v56h-199q-39 0 -70 -5.5t-56.5 -28.5t-25.5 -70q0 -57 40.5 -88t108.5 -31q62 0 108 24.5zM192.5 650.5q-35.5 20.5 -64.5 66.5h38q36 -57 115 -57t115 57h38q-29 -46 -64.5 -66.5t-88.5 -20.5t-88.5 20.5zM270 727l96 164h46l-113 -164h-29z" />
    <glyph glyph-name="uni1EB7.ss01" horiz-adv-x="560" 
d="M107 37.5q-52 42.5 -52 114.5q0 88 61 112.5t128 24.5h200v60q0 59 -35 109.5t-134 50.5q-82 0 -123.5 -39.5t-41.5 -103.5v-2h-35v2q0 91 59 133.5t142 42.5q93 0 147.5 -51.5t54.5 -141.5v-349h-35v103h-8q-14 -31 -59 -69.5t-133 -38.5q-84 0 -136 42.5zM349 57.5
q46 24.5 70 63t24 79.5v56h-199q-39 0 -70 -5.5t-56.5 -28.5t-25.5 -70q0 -57 40.5 -88t108.5 -31q62 0 108 24.5zM192.5 650.5q-35.5 20.5 -64.5 66.5h38q36 -57 115 -57t115 57h38q-29 -46 -64.5 -66.5t-88.5 -20.5t-88.5 20.5zM252.5 -191q-10.5 11 -10.5 27
q0 15 10.5 26t26.5 11t27 -11t11 -26q0 -16 -11 -27t-27 -11t-26.5 11z" />
    <glyph glyph-name="uni1EB1.ss01" horiz-adv-x="560" 
d="M107 37.5q-52 42.5 -52 114.5q0 88 61 112.5t128 24.5h200v60q0 59 -35 109.5t-134 50.5q-82 0 -123.5 -39.5t-41.5 -103.5v-2h-35v2q0 91 59 133.5t142 42.5q93 0 147.5 -51.5t54.5 -141.5v-349h-35v103h-8q-14 -31 -59 -69.5t-133 -38.5q-84 0 -136 42.5zM349 57.5
q46 24.5 70 63t24 79.5v56h-199q-39 0 -70 -5.5t-56.5 -28.5t-25.5 -70q0 -57 40.5 -88t108.5 -31q62 0 108 24.5zM192.5 650.5q-35.5 20.5 -64.5 66.5h38q36 -57 115 -57t115 57h38q-29 -46 -64.5 -66.5t-88.5 -20.5t-88.5 20.5zM150 891h46l96 -164h-29z" />
    <glyph glyph-name="uni1EB3.ss01" horiz-adv-x="560" 
d="M107 37.5q-52 42.5 -52 114.5q0 88 61 112.5t128 24.5h200v60q0 59 -35 109.5t-134 50.5q-82 0 -123.5 -39.5t-41.5 -103.5v-2h-35v2q0 91 59 133.5t142 42.5q93 0 147.5 -51.5t54.5 -141.5v-349h-35v103h-8q-14 -31 -59 -69.5t-133 -38.5q-84 0 -136 42.5zM349 57.5
q46 24.5 70 63t24 79.5v56h-199q-39 0 -70 -5.5t-56.5 -28.5t-25.5 -70q0 -57 40.5 -88t108.5 -31q62 0 108 24.5zM192.5 650.5q-35.5 20.5 -64.5 66.5h38q36 -57 115 -57t115 57h38q-29 -46 -64.5 -66.5t-88.5 -20.5t-88.5 20.5zM297 762q19 15 28.5 26.5t9.5 27.5
q0 18 -12 31.5t-40 13.5q-22 0 -34.5 -9.5t-16.5 -23.5h-34q19 63 85 63q38 0 61 -20t23 -52q0 -21 -9.5 -34t-27.5 -28q-23 -17 -27 -30h-38q6 16 32 35z" />
    <glyph glyph-name="uni1EB5.ss01" horiz-adv-x="560" 
d="M107 37.5q-52 42.5 -52 114.5q0 88 61 112.5t128 24.5h200v60q0 59 -35 109.5t-134 50.5q-82 0 -123.5 -39.5t-41.5 -103.5v-2h-35v2q0 91 59 133.5t142 42.5q93 0 147.5 -51.5t54.5 -141.5v-349h-35v103h-8q-14 -31 -59 -69.5t-133 -38.5q-84 0 -136 42.5zM349 57.5
q46 24.5 70 63t24 79.5v56h-199q-39 0 -70 -5.5t-56.5 -28.5t-25.5 -70q0 -57 40.5 -88t108.5 -31q62 0 108 24.5zM192.5 650.5q-35.5 20.5 -64.5 66.5h38q36 -57 115 -57t115 57h38q-29 -46 -64.5 -66.5t-88.5 -20.5t-88.5 20.5zM172.5 822.5q17.5 28.5 54.5 28.5
q19 0 33 -9t31 -26q15 -14 24 -20t20 -6q20 0 29.5 17t9.5 44h33q0 -33 -17.5 -61.5t-54.5 -28.5q-19 0 -32.5 8.5t-31.5 25.5q-13 13 -22.5 19.5t-21.5 6.5q-20 0 -29.5 -16.5t-9.5 -43.5h-33q0 33 17.5 61.5z" />
    <glyph glyph-name="acircumflex.ss01" horiz-adv-x="560" 
d="M107 37.5q-52 42.5 -52 114.5q0 88 61 112.5t128 24.5h200v60q0 59 -35 109.5t-134 50.5q-82 0 -123.5 -39.5t-41.5 -103.5v-2h-35v2q0 91 59 133.5t142 42.5q93 0 147.5 -51.5t54.5 -141.5v-349h-35v103h-8q-14 -31 -59 -69.5t-133 -38.5q-84 0 -136 42.5zM349 57.5
q46 24.5 70 63t24 79.5v56h-199q-39 0 -70 -5.5t-56.5 -28.5t-25.5 -70q0 -57 40.5 -88t108.5 -31q62 0 108 24.5zM258 745h46l120 -133h-45l-96 105h-4l-96 -105h-45z" />
    <glyph glyph-name="uni1EA5.ss01" horiz-adv-x="560" 
d="M107 37.5q-52 42.5 -52 114.5q0 88 61 112.5t128 24.5h200v60q0 59 -35 109.5t-134 50.5q-82 0 -123.5 -39.5t-41.5 -103.5v-2h-35v2q0 91 59 133.5t142 42.5q93 0 147.5 -51.5t54.5 -141.5v-349h-35v103h-8q-14 -31 -59 -69.5t-133 -38.5q-84 0 -136 42.5zM349 57.5
q46 24.5 70 63t24 79.5v56h-199q-39 0 -70 -5.5t-56.5 -28.5t-25.5 -70q0 -57 40.5 -88t108.5 -31q62 0 108 24.5zM258 745h46l120 -133h-45l-96 105h-4l-96 -105h-45zM390 732l96 164h46l-113 -164h-29z" />
    <glyph glyph-name="uni1EAD.ss01" horiz-adv-x="560" 
d="M107 37.5q-52 42.5 -52 114.5q0 88 61 112.5t128 24.5h200v60q0 59 -35 109.5t-134 50.5q-82 0 -123.5 -39.5t-41.5 -103.5v-2h-35v2q0 91 59 133.5t142 42.5q93 0 147.5 -51.5t54.5 -141.5v-349h-35v103h-8q-14 -31 -59 -69.5t-133 -38.5q-84 0 -136 42.5zM349 57.5
q46 24.5 70 63t24 79.5v56h-199q-39 0 -70 -5.5t-56.5 -28.5t-25.5 -70q0 -57 40.5 -88t108.5 -31q62 0 108 24.5zM258 745h46l120 -133h-45l-96 105h-4l-96 -105h-45zM252.5 -191q-10.5 11 -10.5 27q0 15 10.5 26t26.5 11t27 -11t11 -26q0 -16 -11 -27t-27 -11t-26.5 11z
" />
    <glyph glyph-name="uni1EA7.ss01" horiz-adv-x="560" 
d="M107 37.5q-52 42.5 -52 114.5q0 88 61 112.5t128 24.5h200v60q0 59 -35 109.5t-134 50.5q-82 0 -123.5 -39.5t-41.5 -103.5v-2h-35v2q0 91 59 133.5t142 42.5q93 0 147.5 -51.5t54.5 -141.5v-349h-35v103h-8q-14 -31 -59 -69.5t-133 -38.5q-84 0 -136 42.5zM349 57.5
q46 24.5 70 63t24 79.5v56h-199q-39 0 -70 -5.5t-56.5 -28.5t-25.5 -70q0 -57 40.5 -88t108.5 -31q62 0 108 24.5zM258 745h46l120 -133h-45l-96 105h-4l-96 -105h-45zM270 896h46l96 -164h-29z" />
    <glyph glyph-name="uni1EA9.ss01" horiz-adv-x="560" 
d="M107 37.5q-52 42.5 -52 114.5q0 88 61 112.5t128 24.5h200v60q0 59 -35 109.5t-134 50.5q-82 0 -123.5 -39.5t-41.5 -103.5v-2h-35v2q0 91 59 133.5t142 42.5q93 0 147.5 -51.5t54.5 -141.5v-349h-35v103h-8q-14 -31 -59 -69.5t-133 -38.5q-84 0 -136 42.5zM349 57.5
q46 24.5 70 63t24 79.5v56h-199q-39 0 -70 -5.5t-56.5 -28.5t-25.5 -70q0 -57 40.5 -88t108.5 -31q62 0 108 24.5zM258 745h46l120 -133h-45l-96 105h-4l-96 -105h-45zM417 767q19 15 28.5 26.5t9.5 27.5q0 18 -12 31.5t-40 13.5q-22 0 -34.5 -9.5t-16.5 -23.5h-34
q19 63 85 63q38 0 61 -20t23 -52q0 -21 -9.5 -34t-27.5 -28q-23 -17 -27 -30h-38q6 16 32 35z" />
    <glyph glyph-name="uni1EAB.ss01" horiz-adv-x="560" 
d="M107 37.5q-52 42.5 -52 114.5q0 88 61 112.5t128 24.5h200v60q0 59 -35 109.5t-134 50.5q-82 0 -123.5 -39.5t-41.5 -103.5v-2h-35v2q0 91 59 133.5t142 42.5q93 0 147.5 -51.5t54.5 -141.5v-349h-35v103h-8q-14 -31 -59 -69.5t-133 -38.5q-84 0 -136 42.5zM349 57.5
q46 24.5 70 63t24 79.5v56h-199q-39 0 -70 -5.5t-56.5 -28.5t-25.5 -70q0 -57 40.5 -88t108.5 -31q62 0 108 24.5zM258 745h46l120 -133h-45l-96 105h-4l-96 -105h-45zM176.5 839.5q17.5 28.5 54.5 28.5q19 0 33 -9t31 -26q15 -14 24 -20t20 -6q20 0 29.5 17t9.5 44h33
q0 -33 -17.5 -61.5t-54.5 -28.5q-19 0 -32.5 8.5t-31.5 25.5q-13 13 -22.5 19.5t-21.5 6.5q-20 0 -29.5 -16.5t-9.5 -43.5h-33q0 33 17.5 61.5z" />
    <glyph glyph-name="adieresis.ss01" horiz-adv-x="560" 
d="M107 37.5q-52 42.5 -52 114.5q0 88 61 112.5t128 24.5h200v60q0 59 -35 109.5t-134 50.5q-82 0 -123.5 -39.5t-41.5 -103.5v-2h-35v2q0 91 59 133.5t142 42.5q93 0 147.5 -51.5t54.5 -141.5v-349h-35v103h-8q-14 -31 -59 -69.5t-133 -38.5q-84 0 -136 42.5zM349 57.5
q46 24.5 70 63t24 79.5v56h-199q-39 0 -70 -5.5t-56.5 -28.5t-25.5 -70q0 -57 40.5 -88t108.5 -31q62 0 108 24.5zM323 657.5q-10 10.5 -10 25.5t10 25.5t25 10.5t25.5 -11t10.5 -25q0 -15 -10.5 -25.5t-25.5 -10.5t-25 10.5zM184 657.5q-10 10.5 -10 25.5t10 25.5t25 10.5
t25.5 -11t10.5 -25q0 -15 -10.5 -25.5t-25.5 -10.5t-25 10.5z" />
    <glyph glyph-name="uni1EA1.ss01" horiz-adv-x="560" 
d="M107 37.5q-52 42.5 -52 114.5q0 88 61 112.5t128 24.5h200v60q0 59 -35 109.5t-134 50.5q-82 0 -123.5 -39.5t-41.5 -103.5v-2h-35v2q0 91 59 133.5t142 42.5q93 0 147.5 -51.5t54.5 -141.5v-349h-35v103h-8q-14 -31 -59 -69.5t-133 -38.5q-84 0 -136 42.5zM349 57.5
q46 24.5 70 63t24 79.5v56h-199q-39 0 -70 -5.5t-56.5 -28.5t-25.5 -70q0 -57 40.5 -88t108.5 -31q62 0 108 24.5zM252.5 -191q-10.5 11 -10.5 27q0 15 10.5 26t26.5 11t27 -11t11 -26q0 -16 -11 -27t-27 -11t-26.5 11z" />
    <glyph glyph-name="agrave.ss01" horiz-adv-x="560" 
d="M107 37.5q-52 42.5 -52 114.5q0 88 61 112.5t128 24.5h200v60q0 59 -35 109.5t-134 50.5q-82 0 -123.5 -39.5t-41.5 -103.5v-2h-35v2q0 91 59 133.5t142 42.5q93 0 147.5 -51.5t54.5 -141.5v-349h-35v103h-8q-14 -31 -59 -69.5t-133 -38.5q-84 0 -136 42.5zM349 57.5
q46 24.5 70 63t24 79.5v56h-199q-39 0 -70 -5.5t-56.5 -28.5t-25.5 -70q0 -57 40.5 -88t108.5 -31q62 0 108 24.5zM150 773h46l96 -164h-29z" />
    <glyph glyph-name="uni1EA3.ss01" horiz-adv-x="560" 
d="M107 37.5q-52 42.5 -52 114.5q0 88 61 112.5t128 24.5h200v60q0 59 -35 109.5t-134 50.5q-82 0 -123.5 -39.5t-41.5 -103.5v-2h-35v2q0 91 59 133.5t142 42.5q93 0 147.5 -51.5t54.5 -141.5v-349h-35v103h-8q-14 -31 -59 -69.5t-133 -38.5q-84 0 -136 42.5zM349 57.5
q46 24.5 70 63t24 79.5v56h-199q-39 0 -70 -5.5t-56.5 -28.5t-25.5 -70q0 -57 40.5 -88t108.5 -31q62 0 108 24.5zM297 644q19 15 28.5 26.5t9.5 27.5q0 18 -12 31.5t-40 13.5q-22 0 -34.5 -9.5t-16.5 -23.5h-34q19 63 85 63q38 0 61 -20t23 -52q0 -21 -9.5 -34t-27.5 -28
q-23 -17 -27 -30h-38q6 16 32 35z" />
    <glyph glyph-name="amacron.ss01" horiz-adv-x="560" 
d="M107 37.5q-52 42.5 -52 114.5q0 88 61 112.5t128 24.5h200v60q0 59 -35 109.5t-134 50.5q-82 0 -123.5 -39.5t-41.5 -103.5v-2h-35v2q0 91 59 133.5t142 42.5q93 0 147.5 -51.5t54.5 -141.5v-349h-35v103h-8q-14 -31 -59 -69.5t-133 -38.5q-84 0 -136 42.5zM349 57.5
q46 24.5 70 63t24 79.5v56h-199q-39 0 -70 -5.5t-56.5 -28.5t-25.5 -70q0 -57 40.5 -88t108.5 -31q62 0 108 24.5zM141 678h280v-26h-280v26z" />
    <glyph glyph-name="aring.ss01" horiz-adv-x="560" 
d="M107 37.5q-52 42.5 -52 114.5q0 88 61 112.5t128 24.5h200v60q0 59 -35 109.5t-134 50.5q-82 0 -123.5 -39.5t-41.5 -103.5v-2h-35v2q0 91 59 133.5t142 42.5q93 0 147.5 -51.5t54.5 -141.5v-349h-35v103h-8q-14 -31 -59 -69.5t-133 -38.5q-84 0 -136 42.5zM349 57.5
q46 24.5 70 63t24 79.5v56h-199q-39 0 -70 -5.5t-56.5 -28.5t-25.5 -70q0 -57 40.5 -88t108.5 -31q62 0 108 24.5zM227 663.5q-22 22.5 -22 53.5t22 53t53 22t53.5 -22t22.5 -53t-22.5 -53.5t-53.5 -22.5t-53 22.5zM317.5 679.5q15.5 15.5 15.5 37.5t-15.5 37t-37.5 15
t-37 -15t-15 -37t15 -37.5t37 -15.5t37.5 15.5z" />
    <glyph glyph-name="atilde.ss01" horiz-adv-x="560" 
d="M107 37.5q-52 42.5 -52 114.5q0 88 61 112.5t128 24.5h200v60q0 59 -35 109.5t-134 50.5q-82 0 -123.5 -39.5t-41.5 -103.5v-2h-35v2q0 91 59 133.5t142 42.5q93 0 147.5 -51.5t54.5 -141.5v-349h-35v103h-8q-14 -31 -59 -69.5t-133 -38.5q-84 0 -136 42.5zM349 57.5
q46 24.5 70 63t24 79.5v56h-199q-39 0 -70 -5.5t-56.5 -28.5t-25.5 -70q0 -57 40.5 -88t108.5 -31q62 0 108 24.5zM172.5 704.5q17.5 28.5 54.5 28.5q19 0 33 -9t31 -26q15 -14 24 -20t20 -6q20 0 29.5 17t9.5 44h33q0 -33 -17.5 -61.5t-54.5 -28.5q-19 0 -32.5 8.5
t-31.5 25.5q-13 13 -22.5 19.5t-21.5 6.5q-20 0 -29.5 -16.5t-9.5 -43.5h-33q0 33 17.5 61.5z" />
    <glyph glyph-name="ae.ss01" horiz-adv-x="971" 
d="M475 257v-23q0 -56 24 -102.5t69 -73.5t104 -27q83 0 131.5 43.5t58.5 114.5h33q-5 -50 -31.5 -94.5t-75 -72t-116.5 -27.5q-73 0 -129.5 37t-83.5 98q-30 -67 -89.5 -101t-129.5 -34q-80 0 -130 41.5t-50 111.5q0 141 219 141h160v21q0 15 1 22v10q0 30 -12.5 66.5
t-50 66t-106.5 29.5q-77 0 -116 -35.5t-51 -82.5h-35q15 71 70.5 111t133.5 40q69 0 118 -32t70 -94q28 60 84 95.5t127 35.5q62 0 113.5 -28t82.5 -86.5t31 -146.5v-24h-424zM475 289h388v13q0 56 -23 102.5t-66.5 74t-101.5 27.5q-61 0 -105.5 -27.5t-68 -74t-23.5 -102.5
v-13zM439 257h-160q-47 0 -84.5 -5.5t-67.5 -30t-30 -74.5q0 -56 39 -85t105 -29q62 0 107 24.5t68 62.5t23 80v57z" />
    <glyph glyph-name="b.ss01" 
d="M210.5 29.5q-49.5 34.5 -78.5 92.5h-7v-122h-34v750h34v-334h7q62 126 196 126q68 0 122 -31t84.5 -84t30.5 -117v-84q0 -64 -30 -117t-83.5 -83.5t-119.5 -30.5q-72 0 -121.5 34.5zM432.5 56.5q45.5 25.5 71 70t25.5 99.5v84q0 55 -25 100t-70.5 70.5t-104.5 25.5
t-104.5 -25.5t-70.5 -70.5t-25 -100v-84q0 -55 25.5 -99.5t71 -70t103.5 -25.5t103.5 25.5z" />
    <glyph glyph-name="c.ss01" horiz-adv-x="570" 
d="M176.5 25.5q-53.5 30.5 -84 83.5t-30.5 117v84q0 64 30.5 117t84 84t120.5 31t115.5 -28t74.5 -72.5t31 -94.5h-33q-10 71 -58.5 115t-129.5 44q-61 0 -106 -27.5t-69 -74t-24 -102.5v-68q0 -56 24 -102.5t69.5 -73.5t105.5 -27q81 0 129.5 43.5t58.5 114.5h33
q-5 -50 -31 -94.5t-74.5 -72t-115.5 -27.5t-120.5 30.5z" />
    <glyph glyph-name="cacute.ss01" horiz-adv-x="570" 
d="M176.5 25.5q-53.5 30.5 -84 83.5t-30.5 117v84q0 64 30.5 117t84 84t120.5 31t115.5 -28t74.5 -72.5t31 -94.5h-33q-10 71 -58.5 115t-129.5 44q-61 0 -106 -27.5t-69 -74t-24 -102.5v-68q0 -56 24 -102.5t69.5 -73.5t105.5 -27q81 0 129.5 43.5t58.5 114.5h33
q-5 -50 -31 -94.5t-74.5 -72t-115.5 -27.5t-120.5 30.5zM286 592l96 164h46l-113 -164h-29z" />
    <glyph glyph-name="ccaron.ss01" horiz-adv-x="570" 
d="M176.5 25.5q-53.5 30.5 -84 83.5t-30.5 117v84q0 64 30.5 117t84 84t120.5 31t115.5 -28t74.5 -72.5t31 -94.5h-33q-10 71 -58.5 115t-129.5 44q-61 0 -106 -27.5t-69 -74t-24 -102.5v-68q0 -56 24 -102.5t69.5 -73.5t105.5 -27q81 0 129.5 43.5t58.5 114.5h33
q-5 -50 -31 -94.5t-74.5 -72t-115.5 -27.5t-120.5 30.5zM199 728l96 -105h4l96 105h45l-120 -133h-46l-120 133h45z" />
    <glyph glyph-name="ccedilla.ss01" horiz-adv-x="570" 
d="M426.5 74.5q48.5 43.5 58.5 114.5h33q-7 -73 -57 -128.5t-136 -64.5l-23 -66h36q47 0 70.5 -22t23.5 -58q0 -39 -29.5 -68.5t-85.5 -29.5q-24 0 -46 5l2 30q26 -4 47 -4q38 0 59 17.5t21 46.5q0 33 -21.5 42.5t-44.5 9.5h-76v4l33 92q-66 1 -118 32t-81.5 83.5
t-29.5 115.5v84q0 64 30.5 117t84 84t120.5 31t115.5 -28t74.5 -72.5t31 -94.5h-33q-10 71 -58.5 115t-129.5 44q-61 0 -106 -27.5t-69 -74t-24 -102.5v-68q0 -56 24 -102.5t69.5 -73.5t105.5 -27q81 0 129.5 43.5z" />
    <glyph glyph-name="cdotaccent.ss01" horiz-adv-x="570" 
d="M176.5 25.5q-53.5 30.5 -84 83.5t-30.5 117v84q0 64 30.5 117t84 84t120.5 31t115.5 -28t74.5 -72.5t31 -94.5h-33q-10 71 -58.5 115t-129.5 44q-61 0 -106 -27.5t-69 -74t-24 -102.5v-68q0 -56 24 -102.5t69.5 -73.5t105.5 -27q81 0 129.5 43.5t58.5 114.5h33
q-5 -50 -31 -94.5t-74.5 -72t-115.5 -27.5t-120.5 30.5zM271 640.5q-10 10.5 -10 25.5t10 25.5t25 10.5t25.5 -11t10.5 -25q0 -15 -10.5 -25.5t-25.5 -10.5t-25 10.5z" />
    <glyph glyph-name="d.ss01" 
d="M171.5 25.5q-53.5 30.5 -83.5 83.5t-30 117v84q0 64 30.5 117t84.5 84t122 31q134 0 196 -126h7v334h34v-750h-34v122h-7q-29 -58 -78.5 -92.5t-121.5 -34.5q-66 0 -119.5 30.5zM397.5 56.5q45.5 25.5 71 70t25.5 99.5v84q0 55 -25 100t-70.5 70.5t-104.5 25.5
t-104.5 -25.5t-70.5 -70.5t-25 -100v-84q0 -55 25.5 -99.5t71 -70t103.5 -25.5t103.5 25.5z" />
    <glyph glyph-name="eth.ss01" horiz-adv-x="611" 
d="M174 25.5q-54 30.5 -84.5 83.5t-30.5 117v84q0 64 30.5 117t84.5 84t122 31q134 0 196 -126h7v3q0 171 -97 255l-100 -58l-15 25l90 52q-37 25 -72.5 34t-53.5 9v29q26 0 69.5 -11.5t86.5 -43.5l93 54l15 -25l-84 -48q100 -93 100 -275v-190q0 -64 -30.5 -117
t-84.5 -83.5t-121 -30.5t-121 30.5zM398.5 56.5q45.5 25.5 71 70t25.5 99.5v84q0 55 -25 100t-70.5 70.5t-104.5 25.5t-104.5 -25.5t-70.5 -70.5t-25 -100v-84q0 -55 25.5 -99.5t71 -70t103.5 -25.5t103.5 25.5z" />
    <glyph glyph-name="dcaron.ss01" horiz-adv-x="693" 
d="M171.5 25.5q-53.5 30.5 -83.5 83.5t-30 117v84q0 64 30.5 117t84.5 84t122 31q134 0 196 -126h7v334h34v-750h-34v122h-7q-29 -58 -78.5 -92.5t-121.5 -34.5q-66 0 -119.5 30.5zM397.5 56.5q45.5 25.5 71 70t25.5 99.5v84q0 55 -25 100t-70.5 70.5t-104.5 25.5
t-104.5 -25.5t-70.5 -70.5t-25 -100v-84q0 -55 25.5 -99.5t71 -70t103.5 -25.5t103.5 25.5zM588 571q53 25 53 76q0 21 -5.5 27.5t-16.5 6.5q-20 0 -29.5 7.5t-9.5 24.5q0 20 11 29.5t30 9.5q34 0 43 -15.5t9 -37.5v-30q0 -90 -85 -126v28z" />
    <glyph glyph-name="dcroat.ss01" horiz-adv-x="618" 
d="M617 626h-85v-626h-34v122h-7q-29 -58 -78.5 -92.5t-121.5 -34.5q-66 0 -119.5 30.5t-83.5 83.5t-30 117v84q0 64 30.5 117t84.5 84t122 31q134 0 196 -126h7v210h-193v30h193v94h34v-94h85v-30zM494 310q0 55 -25 100t-70.5 70.5t-104.5 25.5t-104.5 -25.5t-70.5 -70.5
t-25 -100v-84q0 -55 25.5 -99.5t71 -70t103.5 -25.5t103.5 25.5t71 70t25.5 99.5v84z" />
    <glyph glyph-name="e.ss01" horiz-adv-x="584" 
d="M175.5 25.5q-53.5 30.5 -83.5 83.5t-30 117v84q0 64 30 117t83.5 84t119.5 31q62 0 113.5 -28t82.5 -86.5t31 -146.5v-24h-424v-23q0 -56 24 -102.5t69 -73.5t104 -27q83 0 131.5 43.5t58.5 114.5h33q-5 -50 -31.5 -94.5t-75 -72t-116.5 -27.5q-66 0 -119.5 30.5z
M486 289v13q0 56 -23 102.5t-66.5 74t-101.5 27.5q-61 0 -105.5 -27.5t-68 -74t-23.5 -102.5v-13h388z" />
    <glyph glyph-name="eacute.ss01" horiz-adv-x="584" 
d="M175.5 25.5q-53.5 30.5 -83.5 83.5t-30 117v84q0 64 30 117t83.5 84t119.5 31q62 0 113.5 -28t82.5 -86.5t31 -146.5v-24h-424v-23q0 -56 24 -102.5t69 -73.5t104 -27q83 0 131.5 43.5t58.5 114.5h33q-5 -50 -31.5 -94.5t-75 -72t-116.5 -27.5q-66 0 -119.5 30.5z
M486 289v13q0 56 -23 102.5t-66.5 74t-101.5 27.5q-61 0 -105.5 -27.5t-68 -74t-23.5 -102.5v-13h388zM284 592l96 164h46l-113 -164h-29z" />
    <glyph glyph-name="ecaron.ss01" horiz-adv-x="584" 
d="M175.5 25.5q-53.5 30.5 -83.5 83.5t-30 117v84q0 64 30 117t83.5 84t119.5 31q62 0 113.5 -28t82.5 -86.5t31 -146.5v-24h-424v-23q0 -56 24 -102.5t69 -73.5t104 -27q83 0 131.5 43.5t58.5 114.5h33q-5 -50 -31.5 -94.5t-75 -72t-116.5 -27.5q-66 0 -119.5 30.5z
M486 289v13q0 56 -23 102.5t-66.5 74t-101.5 27.5q-61 0 -105.5 -27.5t-68 -74t-23.5 -102.5v-13h388zM197 728l96 -105h4l96 105h45l-120 -133h-46l-120 133h45z" />
    <glyph glyph-name="ecircumflex.ss01" horiz-adv-x="584" 
d="M175.5 25.5q-53.5 30.5 -83.5 83.5t-30 117v84q0 64 30 117t83.5 84t119.5 31q62 0 113.5 -28t82.5 -86.5t31 -146.5v-24h-424v-23q0 -56 24 -102.5t69 -73.5t104 -27q83 0 131.5 43.5t58.5 114.5h33q-5 -50 -31.5 -94.5t-75 -72t-116.5 -27.5q-66 0 -119.5 30.5z
M486 289v13q0 56 -23 102.5t-66.5 74t-101.5 27.5q-61 0 -105.5 -27.5t-68 -74t-23.5 -102.5v-13h388zM272 728h46l120 -133h-45l-96 105h-4l-96 -105h-45z" />
    <glyph glyph-name="uni1EBF.ss01" horiz-adv-x="584" 
d="M175.5 25.5q-53.5 30.5 -83.5 83.5t-30 117v84q0 64 30 117t83.5 84t119.5 31q62 0 113.5 -28t82.5 -86.5t31 -146.5v-24h-424v-23q0 -56 24 -102.5t69 -73.5t104 -27q83 0 131.5 43.5t58.5 114.5h33q-5 -50 -31.5 -94.5t-75 -72t-116.5 -27.5q-66 0 -119.5 30.5z
M486 289v13q0 56 -23 102.5t-66.5 74t-101.5 27.5q-61 0 -105.5 -27.5t-68 -74t-23.5 -102.5v-13h388zM272 728h46l120 -133h-45l-96 105h-4l-96 -105h-45zM404 715l96 164h46l-113 -164h-29z" />
    <glyph glyph-name="uni1EC7.ss01" horiz-adv-x="584" 
d="M175.5 25.5q-53.5 30.5 -83.5 83.5t-30 117v84q0 64 30 117t83.5 84t119.5 31q62 0 113.5 -28t82.5 -86.5t31 -146.5v-24h-424v-23q0 -56 24 -102.5t69 -73.5t104 -27q83 0 131.5 43.5t58.5 114.5h33q-5 -50 -31.5 -94.5t-75 -72t-116.5 -27.5q-66 0 -119.5 30.5z
M486 289v13q0 56 -23 102.5t-66.5 74t-101.5 27.5q-61 0 -105.5 -27.5t-68 -74t-23.5 -102.5v-13h388zM267.5 -191q-10.5 11 -10.5 27q0 15 10.5 26t26.5 11t27 -11t11 -26q0 -16 -11 -27t-27 -11t-26.5 11zM272 728h46l120 -133h-45l-96 105h-4l-96 -105h-45z" />
    <glyph glyph-name="uni1EC1.ss01" horiz-adv-x="584" 
d="M175.5 25.5q-53.5 30.5 -83.5 83.5t-30 117v84q0 64 30 117t83.5 84t119.5 31q62 0 113.5 -28t82.5 -86.5t31 -146.5v-24h-424v-23q0 -56 24 -102.5t69 -73.5t104 -27q83 0 131.5 43.5t58.5 114.5h33q-5 -50 -31.5 -94.5t-75 -72t-116.5 -27.5q-66 0 -119.5 30.5z
M486 289v13q0 56 -23 102.5t-66.5 74t-101.5 27.5q-61 0 -105.5 -27.5t-68 -74t-23.5 -102.5v-13h388zM272 728h46l120 -133h-45l-96 105h-4l-96 -105h-45zM284 879h46l96 -164h-29z" />
    <glyph glyph-name="uni1EC3.ss01" horiz-adv-x="584" 
d="M175.5 25.5q-53.5 30.5 -83.5 83.5t-30 117v84q0 64 30 117t83.5 84t119.5 31q62 0 113.5 -28t82.5 -86.5t31 -146.5v-24h-424v-23q0 -56 24 -102.5t69 -73.5t104 -27q83 0 131.5 43.5t58.5 114.5h33q-5 -50 -31.5 -94.5t-75 -72t-116.5 -27.5q-66 0 -119.5 30.5z
M486 289v13q0 56 -23 102.5t-66.5 74t-101.5 27.5q-61 0 -105.5 -27.5t-68 -74t-23.5 -102.5v-13h388zM272 728h46l120 -133h-45l-96 105h-4l-96 -105h-45zM431 750q19 15 28.5 26.5t9.5 27.5q0 18 -12 31.5t-40 13.5q-22 0 -34.5 -9.5t-16.5 -23.5h-34q19 63 85 63
q38 0 61 -20t23 -52q0 -21 -9.5 -34t-27.5 -28q-23 -17 -27 -30h-38q6 16 32 35z" />
    <glyph glyph-name="uni1EC5.ss01" horiz-adv-x="584" 
d="M175.5 25.5q-53.5 30.5 -83.5 83.5t-30 117v84q0 64 30 117t83.5 84t119.5 31q62 0 113.5 -28t82.5 -86.5t31 -146.5v-24h-424v-23q0 -56 24 -102.5t69 -73.5t104 -27q83 0 131.5 43.5t58.5 114.5h33q-5 -50 -31.5 -94.5t-75 -72t-116.5 -27.5q-66 0 -119.5 30.5z
M486 289v13q0 56 -23 102.5t-66.5 74t-101.5 27.5q-61 0 -105.5 -27.5t-68 -74t-23.5 -102.5v-13h388zM272 728h46l120 -133h-45l-96 105h-4l-96 -105h-45zM190.5 822.5q17.5 28.5 54.5 28.5q19 0 33 -9t31 -26q15 -14 24 -20t20 -6q20 0 29.5 17t9.5 44h33
q0 -33 -17.5 -61.5t-54.5 -28.5q-19 0 -32.5 8.5t-31.5 25.5q-13 13 -22.5 19.5t-21.5 6.5q-20 0 -29.5 -16.5t-9.5 -43.5h-33q0 33 17.5 61.5z" />
    <glyph glyph-name="edieresis.ss01" horiz-adv-x="584" 
d="M175.5 25.5q-53.5 30.5 -83.5 83.5t-30 117v84q0 64 30 117t83.5 84t119.5 31q62 0 113.5 -28t82.5 -86.5t31 -146.5v-24h-424v-23q0 -56 24 -102.5t69 -73.5t104 -27q83 0 131.5 43.5t58.5 114.5h33q-5 -50 -31.5 -94.5t-75 -72t-116.5 -27.5q-66 0 -119.5 30.5z
M486 289v13q0 56 -23 102.5t-66.5 74t-101.5 27.5q-61 0 -105.5 -27.5t-68 -74t-23.5 -102.5v-13h388zM337 640.5q-10 10.5 -10 25.5t10 25.5t25 10.5t25.5 -11t10.5 -25q0 -15 -10.5 -25.5t-25.5 -10.5t-25 10.5zM198 640.5q-10 10.5 -10 25.5t10 25.5t25 10.5t25.5 -11
t10.5 -25q0 -15 -10.5 -25.5t-25.5 -10.5t-25 10.5z" />
    <glyph glyph-name="edotaccent.ss01" horiz-adv-x="584" 
d="M175.5 25.5q-53.5 30.5 -83.5 83.5t-30 117v84q0 64 30 117t83.5 84t119.5 31q62 0 113.5 -28t82.5 -86.5t31 -146.5v-24h-424v-23q0 -56 24 -102.5t69 -73.5t104 -27q83 0 131.5 43.5t58.5 114.5h33q-5 -50 -31.5 -94.5t-75 -72t-116.5 -27.5q-66 0 -119.5 30.5z
M486 289v13q0 56 -23 102.5t-66.5 74t-101.5 27.5q-61 0 -105.5 -27.5t-68 -74t-23.5 -102.5v-13h388zM269 640.5q-10 10.5 -10 25.5t10 25.5t25 10.5t25.5 -11t10.5 -25q0 -15 -10.5 -25.5t-25.5 -10.5t-25 10.5z" />
    <glyph glyph-name="uni1EB9.ss01" horiz-adv-x="584" 
d="M175.5 25.5q-53.5 30.5 -83.5 83.5t-30 117v84q0 64 30 117t83.5 84t119.5 31q62 0 113.5 -28t82.5 -86.5t31 -146.5v-24h-424v-23q0 -56 24 -102.5t69 -73.5t104 -27q83 0 131.5 43.5t58.5 114.5h33q-5 -50 -31.5 -94.5t-75 -72t-116.5 -27.5q-66 0 -119.5 30.5z
M486 289v13q0 56 -23 102.5t-66.5 74t-101.5 27.5q-61 0 -105.5 -27.5t-68 -74t-23.5 -102.5v-13h388zM267.5 -191q-10.5 11 -10.5 27q0 15 10.5 26t26.5 11t27 -11t11 -26q0 -16 -11 -27t-27 -11t-26.5 11z" />
    <glyph glyph-name="egrave.ss01" horiz-adv-x="584" 
d="M175.5 25.5q-53.5 30.5 -83.5 83.5t-30 117v84q0 64 30 117t83.5 84t119.5 31q62 0 113.5 -28t82.5 -86.5t31 -146.5v-24h-424v-23q0 -56 24 -102.5t69 -73.5t104 -27q83 0 131.5 43.5t58.5 114.5h33q-5 -50 -31.5 -94.5t-75 -72t-116.5 -27.5q-66 0 -119.5 30.5z
M486 289v13q0 56 -23 102.5t-66.5 74t-101.5 27.5q-61 0 -105.5 -27.5t-68 -74t-23.5 -102.5v-13h388zM164 756h46l96 -164h-29z" />
    <glyph glyph-name="uni1EBB.ss01" horiz-adv-x="584" 
d="M175.5 25.5q-53.5 30.5 -83.5 83.5t-30 117v84q0 64 30 117t83.5 84t119.5 31q62 0 113.5 -28t82.5 -86.5t31 -146.5v-24h-424v-23q0 -56 24 -102.5t69 -73.5t104 -27q83 0 131.5 43.5t58.5 114.5h33q-5 -50 -31.5 -94.5t-75 -72t-116.5 -27.5q-66 0 -119.5 30.5z
M486 289v13q0 56 -23 102.5t-66.5 74t-101.5 27.5q-61 0 -105.5 -27.5t-68 -74t-23.5 -102.5v-13h388zM311 627q19 15 28.5 26.5t9.5 27.5q0 18 -12 31.5t-40 13.5q-22 0 -34.5 -9.5t-16.5 -23.5h-34q19 63 85 63q38 0 61 -20t23 -52q0 -21 -9.5 -34t-27.5 -28
q-23 -17 -27 -30h-38q6 16 32 35z" />
    <glyph glyph-name="emacron.ss01" horiz-adv-x="584" 
d="M175.5 25.5q-53.5 30.5 -83.5 83.5t-30 117v84q0 64 30 117t83.5 84t119.5 31q62 0 113.5 -28t82.5 -86.5t31 -146.5v-24h-424v-23q0 -56 24 -102.5t69 -73.5t104 -27q83 0 131.5 43.5t58.5 114.5h33q-5 -50 -31.5 -94.5t-75 -72t-116.5 -27.5q-66 0 -119.5 30.5z
M486 289v13q0 56 -23 102.5t-66.5 74t-101.5 27.5q-61 0 -105.5 -27.5t-68 -74t-23.5 -102.5v-13h388zM155 661h280v-26h-280v26z" />
    <glyph glyph-name="uni1EBD.ss01" horiz-adv-x="584" 
d="M175.5 25.5q-53.5 30.5 -83.5 83.5t-30 117v84q0 64 30 117t83.5 84t119.5 31q62 0 113.5 -28t82.5 -86.5t31 -146.5v-24h-424v-23q0 -56 24 -102.5t69 -73.5t104 -27q83 0 131.5 43.5t58.5 114.5h33q-5 -50 -31.5 -94.5t-75 -72t-116.5 -27.5q-66 0 -119.5 30.5z
M486 289v13q0 56 -23 102.5t-66.5 74t-101.5 27.5q-61 0 -105.5 -27.5t-68 -74t-23.5 -102.5v-13h388zM186.5 687.5q17.5 28.5 54.5 28.5q19 0 33 -9t31 -26q15 -14 24 -20t20 -6q20 0 29.5 17t9.5 44h33q0 -33 -17.5 -61.5t-54.5 -28.5q-19 0 -32.5 8.5t-31.5 25.5
q-13 13 -22.5 19.5t-21.5 6.5q-20 0 -29.5 -16.5t-9.5 -43.5h-33q0 33 17.5 61.5z" />
    <glyph glyph-name="f.ss01" horiz-adv-x="356" 
d="M195.5 690q-18.5 -13 -22.5 -31.5t-4 -47.5v-86h132v-30h-132v-495h-34l-1 495h-79v30h79v86q0 57 24.5 91.5t90.5 34.5h52v-34h-49q-38 0 -56.5 -13z" />
    <glyph glyph-name="g.ss01" horiz-adv-x="628" 
d="M157 -152.5q-63 46.5 -79 116.5h38q18 -59 71 -93.5t128 -34.5q87 0 137 48t50 136v122h-6q-29 -58 -76.5 -92.5t-117.5 -34.5q-66 0 -118.5 30.5t-82 83.5t-29.5 117v64q0 64 29.5 117t82 84t118.5 31q132 0 194 -126h6v109h34v-505q0 -62 -26.5 -112t-77 -78.5
t-120.5 -28.5q-92 0 -155 46.5zM406.5 78q44.5 27 68 73.5t23.5 102.5v48q0 56 -23.5 102.5t-68 74t-104.5 27.5q-59 0 -103 -27.5t-67.5 -74t-23.5 -102.5v-48q0 -56 23.5 -102.5t67.5 -73.5t103 -27q60 0 104.5 27z" />
    <glyph glyph-name="gbreve.ss01" horiz-adv-x="628" 
d="M157 -152.5q-63 46.5 -79 116.5h38q18 -59 71 -93.5t128 -34.5q87 0 137 48t50 136v122h-6q-29 -58 -76.5 -92.5t-117.5 -34.5q-66 0 -118.5 30.5t-82 83.5t-29.5 117v64q0 64 29.5 117t82 84t118.5 31q132 0 194 -126h6v109h34v-505q0 -62 -26.5 -112t-77 -78.5
t-120.5 -28.5q-92 0 -155 46.5zM406.5 78q44.5 27 68 73.5t23.5 102.5v48q0 56 -23.5 102.5t-68 74t-104.5 27.5q-59 0 -103 -27.5t-67.5 -74t-23.5 -102.5v-48q0 -56 23.5 -102.5t67.5 -73.5t103 -27q60 0 104.5 27zM216.5 633.5q-35.5 20.5 -64.5 66.5h38q36 -57 115 -57
t115 57h38q-29 -46 -64.5 -66.5t-88.5 -20.5t-88.5 20.5z" />
    <glyph glyph-name="gdotaccent.ss01" horiz-adv-x="628" 
d="M157 -152.5q-63 46.5 -79 116.5h38q18 -59 71 -93.5t128 -34.5q87 0 137 48t50 136v122h-6q-29 -58 -76.5 -92.5t-117.5 -34.5q-66 0 -118.5 30.5t-82 83.5t-29.5 117v64q0 64 29.5 117t82 84t118.5 31q132 0 194 -126h6v109h34v-505q0 -62 -26.5 -112t-77 -78.5
t-120.5 -28.5q-92 0 -155 46.5zM406.5 78q44.5 27 68 73.5t23.5 102.5v48q0 56 -23.5 102.5t-68 74t-104.5 27.5q-59 0 -103 -27.5t-67.5 -74t-23.5 -102.5v-48q0 -56 23.5 -102.5t67.5 -73.5t103 -27q60 0 104.5 27zM278 640.5q-10 10.5 -10 25.5t10 25.5t25 10.5t25.5 -11
t10.5 -25q0 -15 -10.5 -25.5t-25.5 -10.5t-25 10.5z" />
    <glyph glyph-name="j.ss01" horiz-adv-x="213" 
d="M78 640.5q-10 10.5 -10 25.5t10 25.5t25 10.5t25.5 -11t10.5 -25q0 -15 -10.5 -25.5t-25.5 -10.5t-25 10.5zM-33 -212v30h51q31 0 46 11.5t19.5 32t4.5 58.5v605h34l1 -605q0 -46 -6.5 -73.5t-29 -43t-67.5 -15.5h-53z" />
    <glyph glyph-name="l.ss01" horiz-adv-x="219" 
d="M93 750h34v-750h-35z" />
    <glyph glyph-name="o.ss01" horiz-adv-x="586" 
d="M171.5 25.5q-53.5 30.5 -83.5 85.5t-30 125v64q0 71 30 126t83.5 85.5t121.5 30.5t121.5 -30.5t83.5 -85.5t30 -126v-64q0 -70 -30 -125t-83.5 -85.5t-121.5 -30.5t-121.5 30.5zM438.5 90q53.5 59 53.5 154v48q0 95 -53.5 154.5t-145.5 59.5t-145.5 -59.5t-53.5 -154.5
v-48q0 -95 53.5 -154t145.5 -59t145.5 59z" />
    <glyph glyph-name="oacute.ss01" horiz-adv-x="586" 
d="M171.5 25.5q-53.5 30.5 -83.5 85.5t-30 125v64q0 71 30 126t83.5 85.5t121.5 30.5t121.5 -30.5t83.5 -85.5t30 -126v-64q0 -70 -30 -125t-83.5 -85.5t-121.5 -30.5t-121.5 30.5zM438.5 90q53.5 59 53.5 154v48q0 95 -53.5 154.5t-145.5 59.5t-145.5 -59.5t-53.5 -154.5
v-48q0 -95 53.5 -154t145.5 -59t145.5 59zM282 592l96 164h46l-113 -164h-29z" />
    <glyph glyph-name="ocircumflex.ss01" horiz-adv-x="586" 
d="M171.5 25.5q-53.5 30.5 -83.5 85.5t-30 125v64q0 71 30 126t83.5 85.5t121.5 30.5t121.5 -30.5t83.5 -85.5t30 -126v-64q0 -70 -30 -125t-83.5 -85.5t-121.5 -30.5t-121.5 30.5zM438.5 90q53.5 59 53.5 154v48q0 95 -53.5 154.5t-145.5 59.5t-145.5 -59.5t-53.5 -154.5
v-48q0 -95 53.5 -154t145.5 -59t145.5 59zM270 728h46l120 -133h-45l-96 105h-4l-96 -105h-45z" />
    <glyph glyph-name="uni1ED1.ss01" horiz-adv-x="586" 
d="M171.5 25.5q-53.5 30.5 -83.5 85.5t-30 125v64q0 71 30 126t83.5 85.5t121.5 30.5t121.5 -30.5t83.5 -85.5t30 -126v-64q0 -70 -30 -125t-83.5 -85.5t-121.5 -30.5t-121.5 30.5zM438.5 90q53.5 59 53.5 154v48q0 95 -53.5 154.5t-145.5 59.5t-145.5 -59.5t-53.5 -154.5
v-48q0 -95 53.5 -154t145.5 -59t145.5 59zM270 728h46l120 -133h-45l-96 105h-4l-96 -105h-45zM402 715l96 164h46l-113 -164h-29z" />
    <glyph glyph-name="uni1ED9.ss01" horiz-adv-x="586" 
d="M171.5 25.5q-53.5 30.5 -83.5 85.5t-30 125v64q0 71 30 126t83.5 85.5t121.5 30.5t121.5 -30.5t83.5 -85.5t30 -126v-64q0 -70 -30 -125t-83.5 -85.5t-121.5 -30.5t-121.5 30.5zM438.5 90q53.5 59 53.5 154v48q0 95 -53.5 154.5t-145.5 59.5t-145.5 -59.5t-53.5 -154.5
v-48q0 -95 53.5 -154t145.5 -59t145.5 59zM265.5 -191q-10.5 11 -10.5 27q0 15 10.5 26t26.5 11t27 -11t11 -26q0 -16 -11 -27t-27 -11t-26.5 11zM270 728h46l120 -133h-45l-96 105h-4l-96 -105h-45z" />
    <glyph glyph-name="uni1ED3.ss01" horiz-adv-x="586" 
d="M171.5 25.5q-53.5 30.5 -83.5 85.5t-30 125v64q0 71 30 126t83.5 85.5t121.5 30.5t121.5 -30.5t83.5 -85.5t30 -126v-64q0 -70 -30 -125t-83.5 -85.5t-121.5 -30.5t-121.5 30.5zM438.5 90q53.5 59 53.5 154v48q0 95 -53.5 154.5t-145.5 59.5t-145.5 -59.5t-53.5 -154.5
v-48q0 -95 53.5 -154t145.5 -59t145.5 59zM270 728h46l120 -133h-45l-96 105h-4l-96 -105h-45zM282 879h46l96 -164h-29z" />
    <glyph glyph-name="uni1ED5.ss01" horiz-adv-x="586" 
d="M171.5 25.5q-53.5 30.5 -83.5 85.5t-30 125v64q0 71 30 126t83.5 85.5t121.5 30.5t121.5 -30.5t83.5 -85.5t30 -126v-64q0 -70 -30 -125t-83.5 -85.5t-121.5 -30.5t-121.5 30.5zM438.5 90q53.5 59 53.5 154v48q0 95 -53.5 154.5t-145.5 59.5t-145.5 -59.5t-53.5 -154.5
v-48q0 -95 53.5 -154t145.5 -59t145.5 59zM270 728h46l120 -133h-45l-96 105h-4l-96 -105h-45zM429 750q19 15 28.5 26.5t9.5 27.5q0 18 -12 31.5t-40 13.5q-22 0 -34.5 -9.5t-16.5 -23.5h-34q19 63 85 63q38 0 61 -20t23 -52q0 -21 -9.5 -34t-27.5 -28q-23 -17 -27 -30h-38
q6 16 32 35z" />
    <glyph glyph-name="uni1ED7.ss01" horiz-adv-x="586" 
d="M171.5 25.5q-53.5 30.5 -83.5 85.5t-30 125v64q0 71 30 126t83.5 85.5t121.5 30.5t121.5 -30.5t83.5 -85.5t30 -126v-64q0 -70 -30 -125t-83.5 -85.5t-121.5 -30.5t-121.5 30.5zM438.5 90q53.5 59 53.5 154v48q0 95 -53.5 154.5t-145.5 59.5t-145.5 -59.5t-53.5 -154.5
v-48q0 -95 53.5 -154t145.5 -59t145.5 59zM270 728h46l120 -133h-45l-96 105h-4l-96 -105h-45zM188.5 822.5q17.5 28.5 54.5 28.5q19 0 33 -9t31 -26q15 -14 24 -20t20 -6q20 0 29.5 17t9.5 44h33q0 -33 -17.5 -61.5t-54.5 -28.5q-19 0 -32.5 8.5t-31.5 25.5
q-13 13 -22.5 19.5t-21.5 6.5q-20 0 -29.5 -16.5t-9.5 -43.5h-33q0 33 17.5 61.5z" />
    <glyph glyph-name="odieresis.ss01" horiz-adv-x="586" 
d="M171.5 25.5q-53.5 30.5 -83.5 85.5t-30 125v64q0 71 30 126t83.5 85.5t121.5 30.5t121.5 -30.5t83.5 -85.5t30 -126v-64q0 -70 -30 -125t-83.5 -85.5t-121.5 -30.5t-121.5 30.5zM438.5 90q53.5 59 53.5 154v48q0 95 -53.5 154.5t-145.5 59.5t-145.5 -59.5t-53.5 -154.5
v-48q0 -95 53.5 -154t145.5 -59t145.5 59zM335 640.5q-10 10.5 -10 25.5t10 25.5t25 10.5t25.5 -11t10.5 -25q0 -15 -10.5 -25.5t-25.5 -10.5t-25 10.5zM196 640.5q-10 10.5 -10 25.5t10 25.5t25 10.5t25.5 -11t10.5 -25q0 -15 -10.5 -25.5t-25.5 -10.5t-25 10.5z" />
    <glyph glyph-name="uni1ECD.ss01" horiz-adv-x="586" 
d="M171.5 25.5q-53.5 30.5 -83.5 85.5t-30 125v64q0 71 30 126t83.5 85.5t121.5 30.5t121.5 -30.5t83.5 -85.5t30 -126v-64q0 -70 -30 -125t-83.5 -85.5t-121.5 -30.5t-121.5 30.5zM438.5 90q53.5 59 53.5 154v48q0 95 -53.5 154.5t-145.5 59.5t-145.5 -59.5t-53.5 -154.5
v-48q0 -95 53.5 -154t145.5 -59t145.5 59zM265.5 -191q-10.5 11 -10.5 27q0 15 10.5 26t26.5 11t27 -11t11 -26q0 -16 -11 -27t-27 -11t-26.5 11z" />
    <glyph glyph-name="ograve.ss01" horiz-adv-x="586" 
d="M171.5 25.5q-53.5 30.5 -83.5 85.5t-30 125v64q0 71 30 126t83.5 85.5t121.5 30.5t121.5 -30.5t83.5 -85.5t30 -126v-64q0 -70 -30 -125t-83.5 -85.5t-121.5 -30.5t-121.5 30.5zM438.5 90q53.5 59 53.5 154v48q0 95 -53.5 154.5t-145.5 59.5t-145.5 -59.5t-53.5 -154.5
v-48q0 -95 53.5 -154t145.5 -59t145.5 59zM162 756h46l96 -164h-29z" />
    <glyph glyph-name="uni1ECF.ss01" horiz-adv-x="586" 
d="M171.5 25.5q-53.5 30.5 -83.5 85.5t-30 125v64q0 71 30 126t83.5 85.5t121.5 30.5t121.5 -30.5t83.5 -85.5t30 -126v-64q0 -70 -30 -125t-83.5 -85.5t-121.5 -30.5t-121.5 30.5zM438.5 90q53.5 59 53.5 154v48q0 95 -53.5 154.5t-145.5 59.5t-145.5 -59.5t-53.5 -154.5
v-48q0 -95 53.5 -154t145.5 -59t145.5 59zM309 627q19 15 28.5 26.5t9.5 27.5q0 18 -12 31.5t-40 13.5q-22 0 -34.5 -9.5t-16.5 -23.5h-34q19 63 85 63q38 0 61 -20t23 -52q0 -21 -9.5 -34t-27.5 -28q-23 -17 -27 -30h-38q6 16 32 35z" />
    <glyph glyph-name="ohorn.ss01" horiz-adv-x="586" 
d="M504.5 412.5q23.5 -50.5 23.5 -112.5v-64q0 -70 -30 -125t-83.5 -85.5t-121.5 -30.5t-121.5 30.5t-83.5 85.5t-30 125v64q0 71 30 126t83.5 85.5t121.5 30.5q50 0 93 -17h38q25 0 35 12t10 51v16h39v-16q0 -88 -69 -93q42 -32 65.5 -82.5zM492 292q0 95 -53.5 154.5
t-145.5 59.5t-145.5 -59.5t-53.5 -154.5v-48q0 -95 53.5 -154t145.5 -59t145.5 59t53.5 154v48z" />
    <glyph glyph-name="uni1EDB.ss01" horiz-adv-x="586" 
d="M504.5 412.5q23.5 -50.5 23.5 -112.5v-64q0 -70 -30 -125t-83.5 -85.5t-121.5 -30.5t-121.5 30.5t-83.5 85.5t-30 125v64q0 71 30 126t83.5 85.5t121.5 30.5q50 0 93 -17h38q25 0 35 12t10 51v16h39v-16q0 -88 -69 -93q42 -32 65.5 -82.5zM492 292q0 95 -53.5 154.5
t-145.5 59.5t-145.5 -59.5t-53.5 -154.5v-48q0 -95 53.5 -154t145.5 -59t145.5 59t53.5 154v48zM282 592l96 164h46l-113 -164h-29z" />
    <glyph glyph-name="uni1EE3.ss01" horiz-adv-x="586" 
d="M504.5 412.5q23.5 -50.5 23.5 -112.5v-64q0 -70 -30 -125t-83.5 -85.5t-121.5 -30.5t-121.5 30.5t-83.5 85.5t-30 125v64q0 71 30 126t83.5 85.5t121.5 30.5q50 0 93 -17h38q25 0 35 12t10 51v16h39v-16q0 -88 -69 -93q42 -32 65.5 -82.5zM492 292q0 95 -53.5 154.5
t-145.5 59.5t-145.5 -59.5t-53.5 -154.5v-48q0 -95 53.5 -154t145.5 -59t145.5 59t53.5 154v48zM265.5 -191q-10.5 11 -10.5 27q0 15 10.5 26t26.5 11t27 -11t11 -26q0 -16 -11 -27t-27 -11t-26.5 11z" />
    <glyph glyph-name="uni1EDD.ss01" horiz-adv-x="586" 
d="M504.5 412.5q23.5 -50.5 23.5 -112.5v-64q0 -70 -30 -125t-83.5 -85.5t-121.5 -30.5t-121.5 30.5t-83.5 85.5t-30 125v64q0 71 30 126t83.5 85.5t121.5 30.5q50 0 93 -17h38q25 0 35 12t10 51v16h39v-16q0 -88 -69 -93q42 -32 65.5 -82.5zM492 292q0 95 -53.5 154.5
t-145.5 59.5t-145.5 -59.5t-53.5 -154.5v-48q0 -95 53.5 -154t145.5 -59t145.5 59t53.5 154v48zM162 756h46l96 -164h-29z" />
    <glyph glyph-name="uni1EDF.ss01" horiz-adv-x="586" 
d="M504.5 412.5q23.5 -50.5 23.5 -112.5v-64q0 -70 -30 -125t-83.5 -85.5t-121.5 -30.5t-121.5 30.5t-83.5 85.5t-30 125v64q0 71 30 126t83.5 85.5t121.5 30.5q50 0 93 -17h38q25 0 35 12t10 51v16h39v-16q0 -88 -69 -93q42 -32 65.5 -82.5zM492 292q0 95 -53.5 154.5
t-145.5 59.5t-145.5 -59.5t-53.5 -154.5v-48q0 -95 53.5 -154t145.5 -59t145.5 59t53.5 154v48zM309 627q19 15 28.5 26.5t9.5 27.5q0 18 -12 31.5t-40 13.5q-22 0 -34.5 -9.5t-16.5 -23.5h-34q19 63 85 63q38 0 61 -20t23 -52q0 -21 -9.5 -34t-27.5 -28q-23 -17 -27 -30
h-38q6 16 32 35z" />
    <glyph glyph-name="uni1EE1.ss01" horiz-adv-x="586" 
d="M504.5 412.5q23.5 -50.5 23.5 -112.5v-64q0 -70 -30 -125t-83.5 -85.5t-121.5 -30.5t-121.5 30.5t-83.5 85.5t-30 125v64q0 71 30 126t83.5 85.5t121.5 30.5q50 0 93 -17h38q25 0 35 12t10 51v16h39v-16q0 -88 -69 -93q42 -32 65.5 -82.5zM492 292q0 95 -53.5 154.5
t-145.5 59.5t-145.5 -59.5t-53.5 -154.5v-48q0 -95 53.5 -154t145.5 -59t145.5 59t53.5 154v48zM184.5 687.5q17.5 28.5 54.5 28.5q19 0 33 -9t31 -26q15 -14 24 -20t20 -6q20 0 29.5 17t9.5 44h33q0 -33 -17.5 -61.5t-54.5 -28.5q-19 0 -32.5 8.5t-31.5 25.5
q-13 13 -22.5 19.5t-21.5 6.5q-20 0 -29.5 -16.5t-9.5 -43.5h-33q0 33 17.5 61.5z" />
    <glyph glyph-name="omacron.ss01" horiz-adv-x="586" 
d="M171.5 25.5q-53.5 30.5 -83.5 85.5t-30 125v64q0 71 30 126t83.5 85.5t121.5 30.5t121.5 -30.5t83.5 -85.5t30 -126v-64q0 -70 -30 -125t-83.5 -85.5t-121.5 -30.5t-121.5 30.5zM438.5 90q53.5 59 53.5 154v48q0 95 -53.5 154.5t-145.5 59.5t-145.5 -59.5t-53.5 -154.5
v-48q0 -95 53.5 -154t145.5 -59t145.5 59zM153 661h280v-26h-280v26z" />
    <glyph glyph-name="oslash.ss01" horiz-adv-x="604" 
d="M505 412q23 -50 23 -111v-64q0 -70 -30 -125t-83.5 -85.5t-121.5 -30.5q-61 0 -109 24l-36 -66h-37l45 82q-46 32 -72 84t-26 117v64q0 71 30 126t83.5 85.5t121.5 30.5q66 0 121 -30l42 77h37l-52 -96q41 -32 64 -82zM114.5 141.5q20.5 -45.5 58.5 -73.5l224 413
q-44 26 -104 26q-92 0 -145.5 -59.5t-53.5 -154.5v-48q0 -58 20.5 -103.5zM492 293q0 53 -17.5 97t-50.5 72l-223 -410q40 -20 92 -20q92 0 145.5 59t53.5 154v48z" />
    <glyph glyph-name="otilde.ss01" horiz-adv-x="586" 
d="M171.5 25.5q-53.5 30.5 -83.5 85.5t-30 125v64q0 71 30 126t83.5 85.5t121.5 30.5t121.5 -30.5t83.5 -85.5t30 -126v-64q0 -70 -30 -125t-83.5 -85.5t-121.5 -30.5t-121.5 30.5zM438.5 90q53.5 59 53.5 154v48q0 95 -53.5 154.5t-145.5 59.5t-145.5 -59.5t-53.5 -154.5
v-48q0 -95 53.5 -154t145.5 -59t145.5 59zM184.5 687.5q17.5 28.5 54.5 28.5q19 0 33 -9t31 -26q15 -14 24 -20t20 -6q20 0 29.5 17t9.5 44h33q0 -33 -17.5 -61.5t-54.5 -28.5q-19 0 -32.5 8.5t-31.5 25.5q-13 13 -22.5 19.5t-21.5 6.5q-20 0 -29.5 -16.5t-9.5 -43.5h-33
q0 33 17.5 61.5z" />
    <glyph glyph-name="oe.ss01" horiz-adv-x="1014" 
d="M528 234q0 -56 24 -102.5t69 -73.5t104 -27q83 0 131.5 43.5t58.5 114.5h33q-5 -50 -31.5 -94.5t-75 -72t-116.5 -27.5q-75 0 -132.5 38.5t-83.5 101.5q-26 -65 -83 -102.5t-133 -37.5q-68 0 -121.5 30.5t-83.5 85.5t-30 125v64q0 71 30 126t83.5 85.5t121.5 30.5
q76 0 133 -38t83 -103q26 64 84 102.5t132 38.5q62 0 113.5 -28t82.5 -86.5t31 -146.5v-24h-424v-23zM438.5 90q53.5 59 53.5 154v48q0 95 -53.5 154.5t-145.5 59.5t-145.5 -59.5t-53.5 -154.5v-48q0 -95 53.5 -154t145.5 -59t145.5 59zM528 289h388v13q0 56 -23 102.5
t-66.5 74t-101.5 27.5q-61 0 -105.5 -27.5t-68 -74t-23.5 -102.5v-13z" />
    <glyph glyph-name="p.ss01" 
d="M210.5 29.5q-49.5 34.5 -78.5 92.5h-7v-321h-34v724h34v-109h7q62 126 196 126q68 0 122 -31t84.5 -84t30.5 -117v-84q0 -64 -30 -117t-83.5 -83.5t-119.5 -30.5q-72 0 -121.5 34.5zM432.5 56.5q45.5 25.5 71 70t25.5 99.5v84q0 55 -25 100t-70.5 70.5t-104.5 25.5
t-104.5 -25.5t-70.5 -70.5t-25 -100v-84q0 -55 25.5 -99.5t71 -70t103.5 -25.5t103.5 25.5z" />
    <glyph glyph-name="thorn.ss01" 
d="M210.5 29.5q-49.5 34.5 -78.5 92.5h-7v-347h-34v975h34v-334h7q62 126 196 126q68 0 122 -31t84.5 -84t30.5 -117v-84q0 -64 -30 -117t-83.5 -83.5t-119.5 -30.5q-72 0 -121.5 34.5zM432.5 56.5q45.5 25.5 71 70t25.5 99.5v84q0 55 -25 100t-70.5 70.5t-104.5 25.5
t-104.5 -25.5t-70.5 -70.5t-25 -100v-84q0 -55 25.5 -99.5t71 -70t103.5 -25.5t103.5 25.5z" />
    <glyph glyph-name="q.ss01" 
d="M171.5 25.5q-53.5 30.5 -83.5 83.5t-30 117v84q0 64 30.5 117t84.5 84t122 31q134 0 196 -126h7v109h34v-724h-34v321h-7q-29 -58 -78.5 -92.5t-121.5 -34.5q-66 0 -119.5 30.5zM397.5 56.5q45.5 25.5 71 70t25.5 99.5v84q0 55 -25 100t-70.5 70.5t-104.5 25.5
t-104.5 -25.5t-70.5 -70.5t-25 -100v-84q0 -55 25.5 -99.5t71 -70t103.5 -25.5t103.5 25.5z" />
    <glyph glyph-name="r.ss01" horiz-adv-x="298" 
d="M82 525h33v-84h5q13 36 45 60t79 24h39v-40h-40q-54 0 -91 -35.5t-37 -118.5v-331h-33v525z" />
    <glyph glyph-name="t.ss01" horiz-adv-x="365" 
d="M178 495v-363q0 -38 4.5 -59t19.5 -32.5t46 -11.5h62v-29h-64q-45 0 -67.5 15.5t-29 43t-6.5 73.5l1 363h-109v30h109v175h34v-175h132v-30h-132z" />
    <glyph glyph-name="y.ss01" horiz-adv-x="534" 
d="M135 -206l103 245l-195 473v12h34l179 -446h6l191 446h32v-12l-317 -726h-33v8z" />
    <glyph glyph-name="yacute.ss01" horiz-adv-x="534" 
d="M135 -206l103 245l-195 473v12h34l179 -446h6l191 446h32v-12l-317 -726h-33v8zM248 592l96 164h46l-113 -164h-29z" />
    <glyph glyph-name="ycircumflex.ss01" horiz-adv-x="534" 
d="M135 -206l103 245l-195 473v12h34l179 -446h6l191 446h32v-12l-317 -726h-33v8zM236 728h46l120 -133h-45l-96 105h-4l-96 -105h-45z" />
    <glyph glyph-name="ydieresis.ss01" horiz-adv-x="534" 
d="M135 -206l103 245l-195 473v12h34l179 -446h6l191 446h32v-12l-317 -726h-33v8zM301 640.5q-10 10.5 -10 25.5t10 25.5t25 10.5t25.5 -11t10.5 -25q0 -15 -10.5 -25.5t-25.5 -10.5t-25 10.5zM162 640.5q-10 10.5 -10 25.5t10 25.5t25 10.5t25.5 -11t10.5 -25
q0 -15 -10.5 -25.5t-25.5 -10.5t-25 10.5z" />
    <glyph glyph-name="uni1EF5.ss01" horiz-adv-x="534" 
d="M135 -206l103 245l-195 473v12h34l179 -446h6l191 446h32v-12l-317 -726h-33v8zM354.5 -191q-10.5 11 -10.5 27q0 15 10.5 26t26.5 11t27 -11t11 -26q0 -16 -11 -27t-27 -11t-26.5 11z" />
    <glyph glyph-name="ygrave.ss01" horiz-adv-x="534" 
d="M135 -206l103 245l-195 473v12h34l179 -446h6l191 446h32v-12l-317 -726h-33v8zM128 756h46l96 -164h-29z" />
    <glyph glyph-name="uni1EF7.ss01" horiz-adv-x="534" 
d="M135 -206l103 245l-195 473v12h34l179 -446h6l191 446h32v-12l-317 -726h-33v8zM275 627q19 15 28.5 26.5t9.5 27.5q0 18 -12 31.5t-40 13.5q-22 0 -34.5 -9.5t-16.5 -23.5h-34q19 63 85 63q38 0 61 -20t23 -52q0 -21 -9.5 -34t-27.5 -28q-23 -17 -27 -30h-38q6 16 32 35
z" />
    <glyph glyph-name="uni1EF9.ss01" horiz-adv-x="534" 
d="M135 -206l103 245l-195 473v12h34l179 -446h6l191 446h32v-12l-317 -726h-33v8zM150.5 687.5q17.5 28.5 54.5 28.5q19 0 33 -9t31 -26q15 -14 24 -20t20 -6q20 0 29.5 17t9.5 44h33q0 -33 -17.5 -61.5t-54.5 -28.5q-19 0 -32.5 8.5t-31.5 25.5q-13 13 -22.5 19.5
t-21.5 6.5q-20 0 -29.5 -16.5t-9.5 -43.5h-33q0 33 17.5 61.5z" />
    <glyph glyph-name="a.ss02" horiz-adv-x="613" 
d="M169.5 25.5q-52.5 30.5 -82 83.5t-29.5 117v84q0 64 29.5 117t82 84t118.5 31q132 0 194 -126h6v109h34v-525h-34v122h-6q-29 -58 -76.5 -92.5t-117.5 -34.5q-66 0 -118.5 30.5zM392.5 58q44.5 27 68 73.5t23.5 102.5v68q0 56 -23.5 102.5t-68 74t-104.5 27.5
q-59 0 -103 -27.5t-67.5 -74t-23.5 -102.5v-68q0 -56 23.5 -102.5t67.5 -73.5t103 -27q60 0 104.5 27z" />
    <glyph glyph-name="aacute.ss02" horiz-adv-x="613" 
d="M169.5 25.5q-52.5 30.5 -82 83.5t-29.5 117v84q0 64 29.5 117t82 84t118.5 31q132 0 194 -126h6v109h34v-525h-34v122h-6q-29 -58 -76.5 -92.5t-117.5 -34.5q-66 0 -118.5 30.5zM392.5 58q44.5 27 68 73.5t23.5 102.5v68q0 56 -23.5 102.5t-68 74t-104.5 27.5
q-59 0 -103 -27.5t-67.5 -74t-23.5 -102.5v-68q0 -56 23.5 -102.5t67.5 -73.5t103 -27q60 0 104.5 27zM277 592l96 164h46l-113 -164h-29z" />
    <glyph glyph-name="abreve.ss02" horiz-adv-x="613" 
d="M169.5 25.5q-52.5 30.5 -82 83.5t-29.5 117v84q0 64 29.5 117t82 84t118.5 31q132 0 194 -126h6v109h34v-525h-34v122h-6q-29 -58 -76.5 -92.5t-117.5 -34.5q-66 0 -118.5 30.5zM392.5 58q44.5 27 68 73.5t23.5 102.5v68q0 56 -23.5 102.5t-68 74t-104.5 27.5
q-59 0 -103 -27.5t-67.5 -74t-23.5 -102.5v-68q0 -56 23.5 -102.5t67.5 -73.5t103 -27q60 0 104.5 27zM199.5 633.5q-35.5 20.5 -64.5 66.5h38q36 -57 115 -57t115 57h38q-29 -46 -64.5 -66.5t-88.5 -20.5t-88.5 20.5z" />
    <glyph glyph-name="uni1EAF.ss02" horiz-adv-x="613" 
d="M169.5 25.5q-52.5 30.5 -82 83.5t-29.5 117v84q0 64 29.5 117t82 84t118.5 31q132 0 194 -126h6v109h34v-525h-34v122h-6q-29 -58 -76.5 -92.5t-117.5 -34.5q-66 0 -118.5 30.5zM392.5 58q44.5 27 68 73.5t23.5 102.5v68q0 56 -23.5 102.5t-68 74t-104.5 27.5
q-59 0 -103 -27.5t-67.5 -74t-23.5 -102.5v-68q0 -56 23.5 -102.5t67.5 -73.5t103 -27q60 0 104.5 27zM199.5 633.5q-35.5 20.5 -64.5 66.5h38q36 -57 115 -57t115 57h38q-29 -46 -64.5 -66.5t-88.5 -20.5t-88.5 20.5zM277 710l96 164h46l-113 -164h-29z" />
    <glyph glyph-name="uni1EB7.ss02" horiz-adv-x="613" 
d="M169.5 25.5q-52.5 30.5 -82 83.5t-29.5 117v84q0 64 29.5 117t82 84t118.5 31q132 0 194 -126h6v109h34v-525h-34v122h-6q-29 -58 -76.5 -92.5t-117.5 -34.5q-66 0 -118.5 30.5zM392.5 58q44.5 27 68 73.5t23.5 102.5v68q0 56 -23.5 102.5t-68 74t-104.5 27.5
q-59 0 -103 -27.5t-67.5 -74t-23.5 -102.5v-68q0 -56 23.5 -102.5t67.5 -73.5t103 -27q60 0 104.5 27zM199.5 633.5q-35.5 20.5 -64.5 66.5h38q36 -57 115 -57t115 57h38q-29 -46 -64.5 -66.5t-88.5 -20.5t-88.5 20.5zM272.5 -191q-10.5 11 -10.5 27q0 15 10.5 26t26.5 11
t27 -11t11 -26q0 -16 -11 -27t-27 -11t-26.5 11z" />
    <glyph glyph-name="uni1EB1.ss02" horiz-adv-x="613" 
d="M169.5 25.5q-52.5 30.5 -82 83.5t-29.5 117v84q0 64 29.5 117t82 84t118.5 31q132 0 194 -126h6v109h34v-525h-34v122h-6q-29 -58 -76.5 -92.5t-117.5 -34.5q-66 0 -118.5 30.5zM392.5 58q44.5 27 68 73.5t23.5 102.5v68q0 56 -23.5 102.5t-68 74t-104.5 27.5
q-59 0 -103 -27.5t-67.5 -74t-23.5 -102.5v-68q0 -56 23.5 -102.5t67.5 -73.5t103 -27q60 0 104.5 27zM199.5 633.5q-35.5 20.5 -64.5 66.5h38q36 -57 115 -57t115 57h38q-29 -46 -64.5 -66.5t-88.5 -20.5t-88.5 20.5zM157 874h46l96 -164h-29z" />
    <glyph glyph-name="uni1EB3.ss02" horiz-adv-x="613" 
d="M169.5 25.5q-52.5 30.5 -82 83.5t-29.5 117v84q0 64 29.5 117t82 84t118.5 31q132 0 194 -126h6v109h34v-525h-34v122h-6q-29 -58 -76.5 -92.5t-117.5 -34.5q-66 0 -118.5 30.5zM392.5 58q44.5 27 68 73.5t23.5 102.5v68q0 56 -23.5 102.5t-68 74t-104.5 27.5
q-59 0 -103 -27.5t-67.5 -74t-23.5 -102.5v-68q0 -56 23.5 -102.5t67.5 -73.5t103 -27q60 0 104.5 27zM199.5 633.5q-35.5 20.5 -64.5 66.5h38q36 -57 115 -57t115 57h38q-29 -46 -64.5 -66.5t-88.5 -20.5t-88.5 20.5zM304 745q19 15 28.5 26.5t9.5 27.5q0 18 -12 31.5
t-40 13.5q-22 0 -34.5 -9.5t-16.5 -23.5h-34q19 63 85 63q38 0 61 -20t23 -52q0 -21 -9.5 -34t-27.5 -28q-23 -17 -27 -30h-38q6 16 32 35z" />
    <glyph glyph-name="uni1EB5.ss02" horiz-adv-x="613" 
d="M169.5 25.5q-52.5 30.5 -82 83.5t-29.5 117v84q0 64 29.5 117t82 84t118.5 31q132 0 194 -126h6v109h34v-525h-34v122h-6q-29 -58 -76.5 -92.5t-117.5 -34.5q-66 0 -118.5 30.5zM392.5 58q44.5 27 68 73.5t23.5 102.5v68q0 56 -23.5 102.5t-68 74t-104.5 27.5
q-59 0 -103 -27.5t-67.5 -74t-23.5 -102.5v-68q0 -56 23.5 -102.5t67.5 -73.5t103 -27q60 0 104.5 27zM199.5 633.5q-35.5 20.5 -64.5 66.5h38q36 -57 115 -57t115 57h38q-29 -46 -64.5 -66.5t-88.5 -20.5t-88.5 20.5zM179.5 805.5q17.5 28.5 54.5 28.5q19 0 33 -9t31 -26
q15 -14 24 -20t20 -6q20 0 29.5 17t9.5 44h33q0 -33 -17.5 -61.5t-54.5 -28.5q-19 0 -32.5 8.5t-31.5 25.5q-13 13 -22.5 19.5t-21.5 6.5q-20 0 -29.5 -16.5t-9.5 -43.5h-33q0 33 17.5 61.5z" />
    <glyph glyph-name="acircumflex.ss02" horiz-adv-x="613" 
d="M169.5 25.5q-52.5 30.5 -82 83.5t-29.5 117v84q0 64 29.5 117t82 84t118.5 31q132 0 194 -126h6v109h34v-525h-34v122h-6q-29 -58 -76.5 -92.5t-117.5 -34.5q-66 0 -118.5 30.5zM392.5 58q44.5 27 68 73.5t23.5 102.5v68q0 56 -23.5 102.5t-68 74t-104.5 27.5
q-59 0 -103 -27.5t-67.5 -74t-23.5 -102.5v-68q0 -56 23.5 -102.5t67.5 -73.5t103 -27q60 0 104.5 27zM265 728h46l120 -133h-45l-96 105h-4l-96 -105h-45z" />
    <glyph glyph-name="uni1EA5.ss02" horiz-adv-x="613" 
d="M169.5 25.5q-52.5 30.5 -82 83.5t-29.5 117v84q0 64 29.5 117t82 84t118.5 31q132 0 194 -126h6v109h34v-525h-34v122h-6q-29 -58 -76.5 -92.5t-117.5 -34.5q-66 0 -118.5 30.5zM392.5 58q44.5 27 68 73.5t23.5 102.5v68q0 56 -23.5 102.5t-68 74t-104.5 27.5
q-59 0 -103 -27.5t-67.5 -74t-23.5 -102.5v-68q0 -56 23.5 -102.5t67.5 -73.5t103 -27q60 0 104.5 27zM265 728h46l120 -133h-45l-96 105h-4l-96 -105h-45zM397 715l96 164h46l-113 -164h-29z" />
    <glyph glyph-name="uni1EAD.ss02" horiz-adv-x="613" 
d="M169.5 25.5q-52.5 30.5 -82 83.5t-29.5 117v84q0 64 29.5 117t82 84t118.5 31q132 0 194 -126h6v109h34v-525h-34v122h-6q-29 -58 -76.5 -92.5t-117.5 -34.5q-66 0 -118.5 30.5zM392.5 58q44.5 27 68 73.5t23.5 102.5v68q0 56 -23.5 102.5t-68 74t-104.5 27.5
q-59 0 -103 -27.5t-67.5 -74t-23.5 -102.5v-68q0 -56 23.5 -102.5t67.5 -73.5t103 -27q60 0 104.5 27zM265 728h46l120 -133h-45l-96 105h-4l-96 -105h-45zM272.5 -191q-10.5 11 -10.5 27q0 15 10.5 26t26.5 11t27 -11t11 -26q0 -16 -11 -27t-27 -11t-26.5 11z" />
    <glyph glyph-name="uni1EA7.ss02" horiz-adv-x="613" 
d="M169.5 25.5q-52.5 30.5 -82 83.5t-29.5 117v84q0 64 29.5 117t82 84t118.5 31q132 0 194 -126h6v109h34v-525h-34v122h-6q-29 -58 -76.5 -92.5t-117.5 -34.5q-66 0 -118.5 30.5zM392.5 58q44.5 27 68 73.5t23.5 102.5v68q0 56 -23.5 102.5t-68 74t-104.5 27.5
q-59 0 -103 -27.5t-67.5 -74t-23.5 -102.5v-68q0 -56 23.5 -102.5t67.5 -73.5t103 -27q60 0 104.5 27zM265 728h46l120 -133h-45l-96 105h-4l-96 -105h-45zM277 879h46l96 -164h-29z" />
    <glyph glyph-name="uni1EA9.ss02" horiz-adv-x="613" 
d="M169.5 25.5q-52.5 30.5 -82 83.5t-29.5 117v84q0 64 29.5 117t82 84t118.5 31q132 0 194 -126h6v109h34v-525h-34v122h-6q-29 -58 -76.5 -92.5t-117.5 -34.5q-66 0 -118.5 30.5zM392.5 58q44.5 27 68 73.5t23.5 102.5v68q0 56 -23.5 102.5t-68 74t-104.5 27.5
q-59 0 -103 -27.5t-67.5 -74t-23.5 -102.5v-68q0 -56 23.5 -102.5t67.5 -73.5t103 -27q60 0 104.5 27zM265 728h46l120 -133h-45l-96 105h-4l-96 -105h-45zM424 750q19 15 28.5 26.5t9.5 27.5q0 18 -12 31.5t-40 13.5q-22 0 -34.5 -9.5t-16.5 -23.5h-34q19 63 85 63
q38 0 61 -20t23 -52q0 -21 -9.5 -34t-27.5 -28q-23 -17 -27 -30h-38q6 16 32 35z" />
    <glyph glyph-name="uni1EAB.ss02" horiz-adv-x="613" 
d="M169.5 25.5q-52.5 30.5 -82 83.5t-29.5 117v84q0 64 29.5 117t82 84t118.5 31q132 0 194 -126h6v109h34v-525h-34v122h-6q-29 -58 -76.5 -92.5t-117.5 -34.5q-66 0 -118.5 30.5zM392.5 58q44.5 27 68 73.5t23.5 102.5v68q0 56 -23.5 102.5t-68 74t-104.5 27.5
q-59 0 -103 -27.5t-67.5 -74t-23.5 -102.5v-68q0 -56 23.5 -102.5t67.5 -73.5t103 -27q60 0 104.5 27zM265 728h46l120 -133h-45l-96 105h-4l-96 -105h-45zM183.5 822.5q17.5 28.5 54.5 28.5q19 0 33 -9t31 -26q15 -14 24 -20t20 -6q20 0 29.5 17t9.5 44h33
q0 -33 -17.5 -61.5t-54.5 -28.5q-19 0 -32.5 8.5t-31.5 25.5q-13 13 -22.5 19.5t-21.5 6.5q-20 0 -29.5 -16.5t-9.5 -43.5h-33q0 33 17.5 61.5z" />
    <glyph glyph-name="adieresis.ss02" horiz-adv-x="613" 
d="M169.5 25.5q-52.5 30.5 -82 83.5t-29.5 117v84q0 64 29.5 117t82 84t118.5 31q132 0 194 -126h6v109h34v-525h-34v122h-6q-29 -58 -76.5 -92.5t-117.5 -34.5q-66 0 -118.5 30.5zM392.5 58q44.5 27 68 73.5t23.5 102.5v68q0 56 -23.5 102.5t-68 74t-104.5 27.5
q-59 0 -103 -27.5t-67.5 -74t-23.5 -102.5v-68q0 -56 23.5 -102.5t67.5 -73.5t103 -27q60 0 104.5 27zM330 640.5q-10 10.5 -10 25.5t10 25.5t25 10.5t25.5 -11t10.5 -25q0 -15 -10.5 -25.5t-25.5 -10.5t-25 10.5zM191 640.5q-10 10.5 -10 25.5t10 25.5t25 10.5t25.5 -11
t10.5 -25q0 -15 -10.5 -25.5t-25.5 -10.5t-25 10.5z" />
    <glyph glyph-name="uni1EA1.ss02" horiz-adv-x="613" 
d="M169.5 25.5q-52.5 30.5 -82 83.5t-29.5 117v84q0 64 29.5 117t82 84t118.5 31q132 0 194 -126h6v109h34v-525h-34v122h-6q-29 -58 -76.5 -92.5t-117.5 -34.5q-66 0 -118.5 30.5zM392.5 58q44.5 27 68 73.5t23.5 102.5v68q0 56 -23.5 102.5t-68 74t-104.5 27.5
q-59 0 -103 -27.5t-67.5 -74t-23.5 -102.5v-68q0 -56 23.5 -102.5t67.5 -73.5t103 -27q60 0 104.5 27zM272.5 -191q-10.5 11 -10.5 27q0 15 10.5 26t26.5 11t27 -11t11 -26q0 -16 -11 -27t-27 -11t-26.5 11z" />
    <glyph glyph-name="agrave.ss02" horiz-adv-x="613" 
d="M169.5 25.5q-52.5 30.5 -82 83.5t-29.5 117v84q0 64 29.5 117t82 84t118.5 31q132 0 194 -126h6v109h34v-525h-34v122h-6q-29 -58 -76.5 -92.5t-117.5 -34.5q-66 0 -118.5 30.5zM392.5 58q44.5 27 68 73.5t23.5 102.5v68q0 56 -23.5 102.5t-68 74t-104.5 27.5
q-59 0 -103 -27.5t-67.5 -74t-23.5 -102.5v-68q0 -56 23.5 -102.5t67.5 -73.5t103 -27q60 0 104.5 27zM157 756h46l96 -164h-29z" />
    <glyph glyph-name="uni1EA3.ss02" horiz-adv-x="613" 
d="M169.5 25.5q-52.5 30.5 -82 83.5t-29.5 117v84q0 64 29.5 117t82 84t118.5 31q132 0 194 -126h6v109h34v-525h-34v122h-6q-29 -58 -76.5 -92.5t-117.5 -34.5q-66 0 -118.5 30.5zM392.5 58q44.5 27 68 73.5t23.5 102.5v68q0 56 -23.5 102.5t-68 74t-104.5 27.5
q-59 0 -103 -27.5t-67.5 -74t-23.5 -102.5v-68q0 -56 23.5 -102.5t67.5 -73.5t103 -27q60 0 104.5 27zM304 627q19 15 28.5 26.5t9.5 27.5q0 18 -12 31.5t-40 13.5q-22 0 -34.5 -9.5t-16.5 -23.5h-34q19 63 85 63q38 0 61 -20t23 -52q0 -21 -9.5 -34t-27.5 -28
q-23 -17 -27 -30h-38q6 16 32 35z" />
    <glyph glyph-name="amacron.ss02" horiz-adv-x="613" 
d="M169.5 25.5q-52.5 30.5 -82 83.5t-29.5 117v84q0 64 29.5 117t82 84t118.5 31q132 0 194 -126h6v109h34v-525h-34v122h-6q-29 -58 -76.5 -92.5t-117.5 -34.5q-66 0 -118.5 30.5zM392.5 58q44.5 27 68 73.5t23.5 102.5v68q0 56 -23.5 102.5t-68 74t-104.5 27.5
q-59 0 -103 -27.5t-67.5 -74t-23.5 -102.5v-68q0 -56 23.5 -102.5t67.5 -73.5t103 -27q60 0 104.5 27zM148 661h280v-26h-280v26z" />
    <glyph glyph-name="aring.ss02" horiz-adv-x="613" 
d="M169.5 25.5q-52.5 30.5 -82 83.5t-29.5 117v84q0 64 29.5 117t82 84t118.5 31q132 0 194 -126h6v109h34v-525h-34v122h-6q-29 -58 -76.5 -92.5t-117.5 -34.5q-66 0 -118.5 30.5zM392.5 58q44.5 27 68 73.5t23.5 102.5v68q0 56 -23.5 102.5t-68 74t-104.5 27.5
q-59 0 -103 -27.5t-67.5 -74t-23.5 -102.5v-68q0 -56 23.5 -102.5t67.5 -73.5t103 -27q60 0 104.5 27zM234 646.5q-22 22.5 -22 53.5t22 53t53 22t53.5 -22t22.5 -53t-22.5 -53.5t-53.5 -22.5t-53 22.5zM324.5 662.5q15.5 15.5 15.5 37.5t-15.5 37t-37.5 15t-37 -15t-15 -37
t15 -37.5t37 -15.5t37.5 15.5z" />
    <glyph glyph-name="atilde.ss02" horiz-adv-x="613" 
d="M169.5 25.5q-52.5 30.5 -82 83.5t-29.5 117v84q0 64 29.5 117t82 84t118.5 31q132 0 194 -126h6v109h34v-525h-34v122h-6q-29 -58 -76.5 -92.5t-117.5 -34.5q-66 0 -118.5 30.5zM392.5 58q44.5 27 68 73.5t23.5 102.5v68q0 56 -23.5 102.5t-68 74t-104.5 27.5
q-59 0 -103 -27.5t-67.5 -74t-23.5 -102.5v-68q0 -56 23.5 -102.5t67.5 -73.5t103 -27q60 0 104.5 27zM179.5 687.5q17.5 28.5 54.5 28.5q19 0 33 -9t31 -26q15 -14 24 -20t20 -6q20 0 29.5 17t9.5 44h33q0 -33 -17.5 -61.5t-54.5 -28.5q-19 0 -32.5 8.5t-31.5 25.5
q-13 13 -22.5 19.5t-21.5 6.5q-20 0 -29.5 -16.5t-9.5 -43.5h-33q0 33 17.5 61.5z" />
    <glyph glyph-name="f_h.dlig" horiz-adv-x="1041" 
d="M869 512q48 -30 74 -83.5t26 -122.5v-306h-34v306q0 99 -53.5 148t-136.5 49q-49 0 -92.5 -22.5t-70.5 -67t-27 -107.5v-306h-34v559q0 58 -13 91.5t-44 49t-86 15.5h-55q-81 0 -113 -35t-32 -121v-34h123v-30h-123v-495h-34v495h-89v30h89v34q0 101 46.5 145.5
t132.5 44.5h55q86 0 131.5 -44.5t45.5 -145.5v-142h7q23 52 72.5 88.5t122.5 36.5q64 0 112 -30z" />
    <glyph glyph-name="f_k.dlig" horiz-adv-x="905" 
d="M855 0h-42l-254 260h-4v-260h-34v559q0 58 -13 91.5t-44 49t-86 15.5h-55q-81 0 -113 -35t-32 -121v-34h123v-30h-123v-495h-34v495h-89v30h89v34q0 101 46.5 145.5t132.5 44.5h55q87 0 133 -44.5t44 -145.5v-234h4l240 200h42l-274 -231z" />
    <glyph glyph-name="f_l.dlig" horiz-adv-x="709" 
d="M669 28v-28q-22 -5 -46 -5q-45 0 -67.5 15.5t-29 43t-6.5 73.5l1 432q0 58 -13 91.5t-44 49t-86 15.5h-55q-81 0 -113 -35t-32 -121v-34h123v-30h-123v-495h-34v495h-89v30h89v34q0 101 46.5 145.5t132.5 44.5h55q86 0 131.5 -44.5t45.5 -145.5v-432q0 -40 3.5 -60
t18.5 -31.5t48 -11.5q18 0 44 4z" />
    <glyph glyph-name="f_t.dlig" horiz-adv-x="722" 
d="M535 495v-368q0 -40 3.5 -60t18.5 -31.5t48 -11.5q31 0 62 9v-28q-28 -10 -64 -10q-45 0 -67.5 15.5t-29 43t-6.5 73.5l1 368h-332v-495h-34l-1 495h-79v30h79v86q0 57 24.5 91.5t90.5 34.5q33 0 52 -6v-28q-22 5 -49 5q-38 0 -56.5 -14.5t-22.5 -34t-4 -48.5v-86h332
v175h34v-175h132v-30h-132z" />
    <glyph glyph-name="r_f.dlig" horiz-adv-x="640" 
d="M479.5 693.5q-18.5 -14.5 -22.5 -34t-4 -48.5v-86h132v-30h-132v-495h-34l-1 495h-165q-34 0 -65.5 -17.5t-52 -55t-20.5 -93.5v-329h-33v525h33v-86h5q19 36 53.5 61t80.5 25h164v86q0 57 24.5 91.5t90.5 34.5q33 0 52 -6v-28q-22 5 -49 5q-38 0 -56.5 -14.5z" />
    <glyph glyph-name="r_t.dlig" horiz-adv-x="660" 
d="M473 495v-368q0 -40 3.5 -60t18.5 -31.5t48 -11.5q31 0 62 9v-28q-28 -10 -64 -10q-45 0 -67.5 15.5t-29 43t-6.5 73.5l1 368h-176q-34 0 -65.5 -17.5t-52 -55t-20.5 -93.5v-329h-33v525h33v-86h5q19 36 53.5 61t80.5 25h175v175h34v-175h132v-30h-132z" />
    <glyph glyph-name="f_f.liga.ss01" horiz-adv-x="708" 
d="M547.5 690q-18.5 -13 -22.5 -31.5t-4 -47.5v-86h132v-30h-132v-495h-34l-1 495h-317v-495h-34l-1 495h-79v30h79v86q0 57 24.5 91.5t90.5 34.5h52v-34h-49q-38 0 -56.5 -13t-22.5 -31.5t-4 -47.5v-86h317v86q0 57 24.5 91.5t90.5 34.5h52v-34h-49q-38 0 -56.5 -13z" />
    <glyph glyph-name="f_i.liga.ss01" horiz-adv-x="581" 
d="M484 0h-34v495h-281v-495h-34l-1 495h-79v30h79v86q0 57 24.5 91.5t90.5 34.5h52v-34h-49q-38 0 -56.5 -13t-22.5 -31.5t-4 -47.5v-86h315v-525zM490.5 691q10.5 -11 10.5 -25q0 -15 -10.5 -25.5t-25.5 -10.5t-25 10.5t-10 25.5t10 25.5t25 10.5t25.5 -11z" />
    <glyph glyph-name="t_t.liga.ss01" horiz-adv-x="730" 
d="M543 495v-363q0 -38 4.5 -59t19.5 -32.5t46 -11.5h62v-29h-64q-45 0 -67.5 15.5t-29 43t-6.5 73.5l1 363h-331v-363q0 -38 4.5 -59t19.5 -32.5t46 -11.5h62v-29h-64q-45 0 -67.5 15.5t-29 43t-6.5 73.5l1 363h-109v30h109v175h34v-175h331v175h34v-175h132v-30h-132z" />
    <glyph glyph-name="ordfeminine" unicode="&#xaa;" horiz-adv-x="140" 
d="M14.5 413q-14.5 19 -14.5 49t14.5 49.5t40.5 19.5q17 0 28 -8t16 -19h2v23h24v-131h-24v25h-2q-15 -27 -44 -27q-26 0 -40.5 19zM90.5 428q9.5 14 9.5 34q0 21 -9.5 34.5t-27.5 13.5q-19 0 -28.5 -13.5t-9.5 -33.5q0 -21 9.5 -35t28.5 -14q18 0 27.5 14z" />
    <glyph glyph-name="ordmasculine" unicode="&#xba;" horiz-adv-x="154" 
d="M31 414q-16 20 -16 48q0 27 16.5 48t45.5 21q30 0 46.5 -20.5t16.5 -48.5q0 -27 -16.5 -47.5t-46.5 -20.5t-46 20zM105.5 427.5q10.5 14.5 10.5 34.5q0 21 -10.5 35.5t-28.5 14.5q-17 0 -27.5 -14.5t-10.5 -35.5q0 -20 10 -34.5t28 -14.5t28.5 14.5z" />
    <glyph glyph-name="zero" unicode="0" horiz-adv-x="588" 
d="M164.5 32.5q-52.5 39.5 -77.5 107t-25 151.5v126q0 84 25 151.5t77.5 107t129.5 39.5t129.5 -39.5t77.5 -107t25 -151.5v-126q0 -84 -25 -151.5t-77.5 -107t-129.5 -39.5t-129.5 39.5zM441 95.5q53 69.5 53 208.5v100q0 139 -53 208.5t-147 69.5t-147 -69.5t-53 -208.5
v-100q0 -139 53 -208.5t147 -69.5t147 69.5z" />
    <glyph glyph-name="one" unicode="1" horiz-adv-x="463" 
d="M407 34v-34h-291v34h133v624h-4l-131 -129v42l132 129h34v-666h127z" />
    <glyph glyph-name="two" unicode="2" horiz-adv-x="575" 
d="M82 33l225 204q56 51 91.5 89.5t59 85.5t23.5 101q0 71 -43.5 119.5t-129.5 48.5q-100 0 -138.5 -54.5t-38.5 -124.5v-4h-35q0 79 45.5 148t168.5 69q74 0 120.5 -30.5t66 -76.5t19.5 -96q0 -60 -26.5 -113t-69.5 -100t-113 -109l-170 -151v-5h387v-34h-441z" />
    <glyph glyph-name="three" unicode="3" horiz-adv-x="580" 
d="M155.5 37.5q-55.5 44.5 -69.5 105.5h34q16 -51 62.5 -84t122.5 -33q92 0 137 45.5t45 114.5q0 78 -54 117t-128 39h-71v32h61q75 0 129.5 33t54.5 115q0 74 -48.5 116.5t-128.5 42.5q-73 0 -115 -33.5t-52 -83.5h-34q11 59 58.5 105t143.5 46q69 0 116 -25.5t70 -69
t23 -95.5q0 -56 -24.5 -93t-54.5 -54t-42 -17v-5q17 -2 47 -17.5t56 -53t26 -99.5q0 -53 -23 -97t-71 -70t-119 -26q-96 0 -151.5 44.5z" />
    <glyph glyph-name="four" unicode="4" horiz-adv-x="589" 
d="M390 180l-335 1v52l325 467h44v-487h114v-33h-114v-180h-34v180zM391 213v445l-309 -445h309z" />
    <glyph glyph-name="five" unicode="5" horiz-adv-x="610" 
d="M213 22q-47 22 -76 57.5t-38 76.5h33q21 -63 72.5 -93t114.5 -30q92 0 142.5 56.5t50.5 152.5q0 106 -57.5 153.5t-135.5 47.5q-68 0 -109.5 -31.5t-56.5 -76.5l-43 8l21 357h362v-35h-332l-16 -277h2q20 37 64 63t108 26t115.5 -27t81 -80t29.5 -129q0 -74 -29 -128.5
t-80 -83.5t-117 -29q-59 0 -106 22z" />
    <glyph glyph-name="six" unicode="6" horiz-adv-x="588" 
d="M192 16.5q-52 23.5 -86.5 76t-34.5 135.5q0 62 18.5 117.5t48.5 105.5t80 120l93 129h40l-239 -350l4 1l18 21q20 24 60.5 44.5t96.5 20.5q59 0 111 -25.5t83.5 -75.5t31.5 -121q0 -68 -29.5 -118.5t-79 -77t-109.5 -26.5q-55 0 -107 23.5zM395 52q44 25 67.5 67t23.5 93
q0 50 -24 94t-68 70.5t-101 26.5q-55 0 -97.5 -24.5t-66 -67.5t-23.5 -97q0 -53 23.5 -95.5t66.5 -67t98 -24.5q57 0 101 25z" />
    <glyph glyph-name="seven" unicode="7" horiz-adv-x="500" 
d="M137 12l265 644v10h-368v34h413v-30l-279 -670h-31v12z" />
    <glyph glyph-name="eight" unicode="8" horiz-adv-x="614" 
d="M176 20q-55 27 -83 71.5t-28 96.5q0 62 37.5 114t92.5 70v4q-44 20 -70 60.5t-26 92.5q0 53 26.5 95t74.5 66.5t108 24.5q63 0 110 -25.5t72 -68t25 -92.5q0 -53 -27 -94t-69 -59v-4q55 -18 92.5 -70t37.5 -114q0 -52 -28 -96.5t-83 -71.5t-131 -27t-131 27zM437.5 427
q44.5 42 44.5 106q0 63 -45 106t-130 43t-130 -43t-45 -106q0 -64 44.5 -106t130.5 -42t130.5 42zM422.5 50.5q47.5 22.5 70.5 60t23 82.5q0 46 -23.5 83.5t-70.5 60t-115 22.5t-115.5 -22.5t-70.5 -60.5t-23 -84q0 -45 23 -82.5t70 -59.5t115 -22q69 0 116.5 22.5z" />
    <glyph glyph-name="nine" unicode="9" horiz-adv-x="588" 
d="M476 352l-4 -1l-18 -21q-22 -25 -61.5 -45.5t-95.5 -20.5q-59 0 -111 25.5t-83.5 76.5t-31.5 123q0 69 29.5 120t79 78.5t109.5 27.5q55 0 107 -23.5t86.5 -77.5t34.5 -138q0 -62 -18.5 -118.5t-48.5 -108t-80 -122.5l-89 -127l-40 -1zM392.5 323q42.5 25 66 69t23.5 98
t-23.5 97.5t-66.5 68.5t-98 25q-57 0 -101 -25.5t-67.5 -68.5t-23.5 -95q0 -51 24 -95.5t68 -71.5t101 -27q55 0 97.5 25z" />
    <glyph glyph-name="one.ss01" horiz-adv-x="461" 
d="M405 34v-34h-291v34h133v633h-133v33h164v-666h127z" />
    <glyph glyph-name="seven.ss01" horiz-adv-x="500" 
d="M447 670l-279 -670h-31v12l265 644v10h-333v-81h-34l-1 81v34h413v-30z" />
    <glyph glyph-name="uni2080" unicode="&#x2080;" horiz-adv-x="321" 
d="M62 -190q-33 58 -33 135q0 78 32.5 136t99.5 58q69 0 100 -57.5t31 -136.5q0 -78 -31.5 -135.5t-99.5 -57.5q-66 0 -99 58zM236 -174.5q25 47.5 25 120.5q0 75 -24.5 121.5t-75.5 46.5t-75.5 -47t-24.5 -121q0 -72 24.5 -120t75.5 -48q50 0 75 47.5z" />
    <glyph glyph-name="uni2081" unicode="&#x2081;" horiz-adv-x="233" 
d="M203 -220v-30h-171v30h73v308h-1l-74 -69v36l75 70h28v-345h70z" />
    <glyph glyph-name="uni2082" unicode="&#x2082;" horiz-adv-x="302" 
d="M30 -220l105 103l17 16q41 39 60.5 66.5t19.5 62.5q0 31 -19 54t-61 23q-49 0 -67 -29t-18 -63h-33q0 45 28 82t91 37q57 0 83.5 -30.5t26.5 -73.5q0 -30 -11.5 -54.5t-28.5 -43.5t-48 -49l-23 -22l-77 -76v-3h197v-30h-242v30z" />
    <glyph glyph-name="uni2083" unicode="&#x2083;" horiz-adv-x="303" 
d="M68.5 -222q-30.5 28 -38.5 61h30q8 -27 33 -43.5t60 -16.5q44 0 67.5 22t23.5 56q0 38 -28 58t-64 20h-38v27h35q36 0 62.5 17t26.5 55q0 36 -24.5 56.5t-61.5 20.5t-58 -17t-26 -42h-31q8 34 35 60t79 26q57 0 87.5 -30.5t30.5 -72.5q0 -29 -14 -48t-30.5 -29t-20.5 -10
v-1q15 -5 27.5 -11t27 -25.5t14.5 -51.5q0 -43 -31 -76t-88 -33q-55 0 -85.5 28z" />
    <glyph glyph-name="uni2084" unicode="&#x2084;" horiz-adv-x="324" 
d="M207 -156h-177v34l170 247h39v-255h55v-26h-55v-94h-32v94zM207 -131v218l-148 -218h148z" />
    <glyph glyph-name="uni2085" unicode="&#x2085;" horiz-adv-x="306" 
d="M71 -223.5q-33 26.5 -41 64.5h31q9 -32 35.5 -48.5t55.5 -16.5q45 0 70.5 29t25.5 75q0 51 -28 75t-68 24q-29 0 -47.5 -11t26.5 55t-63 -96l-31 2l10 196h210v-29h-184l-10 -135h2q-2 1 8.5 13t31 21.5t51.5 9.5q52 0 86 -33t34 -92q0 -57 -34 -93.5t-89 -36.5
q-49 0 -82 26.5z" />
    <glyph glyph-name="uni2086" unicode="&#x2086;" horiz-adv-x="306" 
d="M68 -218q-38 32 -38 96q0 46 18 82.5t57 95.5l50 74h34l-123 -182l3 1l9 9q34 34 80 34q49 0 83.5 -32.5t34.5 -87.5q0 -56 -35.5 -89t-85.5 -33q-49 0 -87 32zM221.5 -195.5q26.5 27.5 26.5 65.5q0 39 -26.5 66.5t-68.5 27.5q-41 0 -67.5 -26.5t-26.5 -65.5
q0 -40 26.5 -67.5t67.5 -27.5q42 0 68.5 27.5z" />
    <glyph glyph-name="uni2087" unicode="&#x2087;" horiz-adv-x="286" 
d="M79 -244l147 336v4h-196v29h226v-30l-147 -345h-30v6z" />
    <glyph glyph-name="uni2088" unicode="&#x2088;" horiz-adv-x="322" 
d="M65 -218q-35 32 -35 75q0 34 21 61t47 35v3q-22 10 -36 31t-14 50q0 42 31 71t83 29t83.5 -29.5t31.5 -70.5q0 -30 -16 -51.5t-37 -29.5v-3q28 -10 48 -36t20 -60q0 -43 -34.5 -75t-95.5 -32q-62 0 -97 32zM226 -14.5q23 21.5 23 52.5q0 30 -23 53t-64 23t-65 -23
t-24 -53q0 -31 23.5 -52.5t65.5 -21.5q41 0 64 21.5zM236 -198.5q26 24.5 26 59.5q0 34 -26 57.5t-74 23.5q-50 0 -75.5 -24t-25.5 -57q0 -35 25 -59.5t74 -24.5q50 0 76 24.5z" />
    <glyph glyph-name="uni2089" unicode="&#x2089;" horiz-adv-x="306" 
d="M238 100q38 -32 38 -96q0 -45 -18.5 -86.5t-54.5 -93.5l-51 -74h-34l117 178l-6 -6q-33 -33 -79 -33q-50 0 -85 32.5t-35 89.5q0 55 35.5 88t86.5 33q48 0 86 -32zM220.5 -56q25.5 28 25.5 67q0 38 -26 65.5t-67 27.5q-42 0 -68 -27.5t-26 -64.5q0 -38 26 -67t70 -29
q40 0 65.5 28z" />
    <glyph glyph-name="zero.dnom" horiz-adv-x="629" 
d="M164.5 32.5q-52.5 39.5 -77.5 107t-25 151.5v126q0 84 25 151.5t77.5 107t129.5 39.5t129.5 -39.5t77.5 -107t25 -151.5v-126q0 -84 -25 -151.5t-77.5 -107t-129.5 -39.5t-129.5 39.5zM441 95.5q53 69.5 53 208.5v100q0 139 -53 208.5t-147 69.5t-147 -69.5t-53 -208.5
v-100q0 -139 53 -208.5t147 -69.5t147 69.5z" />
    <glyph glyph-name="one.dnom" horiz-adv-x="473" 
d="M403 34v-34h-291v34h133v624h-4l-131 -129v42l132 129h34v-666h127z" />
    <glyph glyph-name="two.dnom" horiz-adv-x="575" 
d="M80 33l225 204q56 51 91.5 89.5t59 85.5t23.5 101q0 71 -43.5 119.5t-129.5 48.5q-100 0 -138.5 -54.5t-38.5 -124.5v-4h-35q0 79 45.5 148t168.5 69q74 0 120.5 -30.5t66 -76.5t19.5 -96q0 -60 -26.5 -113t-69.5 -100t-113 -109l-170 -151v-5h387v-34h-441z" />
    <glyph glyph-name="three.dnom" horiz-adv-x="580" 
d="M154.5 37.5q-55.5 44.5 -69.5 105.5h34q16 -51 62.5 -84t122.5 -33q92 0 137 45.5t45 114.5q0 78 -54 117t-128 39h-71v32h61q75 0 129.5 33t54.5 115q0 74 -48.5 116.5t-128.5 42.5q-73 0 -115 -33.5t-52 -83.5h-34q11 59 58.5 105t143.5 46q69 0 116 -25.5t70 -69
t23 -95.5q0 -56 -24.5 -93t-54.5 -54t-42 -17v-5q17 -2 47 -17.5t56 -53t26 -99.5q0 -53 -23 -97t-71 -70t-119 -26q-96 0 -151.5 44.5z" />
    <glyph glyph-name="four.dnom" horiz-adv-x="610" 
d="M389 180l-335 1v52l325 467h44v-487h114v-33h-114v-180h-34v180zM390 213v445l-309 -445h309z" />
    <glyph glyph-name="five.dnom" horiz-adv-x="610" 
d="M214 22q-47 22 -76 57.5t-38 76.5h33q21 -63 72.5 -93t114.5 -30q92 0 142.5 56.5t50.5 152.5q0 106 -57.5 153.5t-135.5 47.5q-68 0 -109.5 -31.5t-56.5 -76.5l-43 8l21 357h362v-35h-332l-16 -277h2q20 37 64 63t108 26t115.5 -27t81 -80t29.5 -129q0 -74 -29 -128.5
t-80 -83.5t-117 -29q-59 0 -106 22z" />
    <glyph glyph-name="six.dnom" horiz-adv-x="588" 
d="M192 16.5q-52 23.5 -86.5 76t-34.5 135.5q0 62 18.5 117.5t48.5 105.5t80 120l93 129h40l-239 -350l4 1l18 21q20 24 60.5 44.5t96.5 20.5q59 0 111 -25.5t83.5 -75.5t31.5 -121q0 -68 -29.5 -118.5t-79 -77t-109.5 -26.5q-55 0 -107 23.5zM395 52q44 25 67.5 67t23.5 93
q0 50 -24 94t-68 70.5t-101 26.5q-55 0 -97.5 -24.5t-66 -67.5t-23.5 -97q0 -53 23.5 -95.5t66.5 -67t98 -24.5q57 0 101 25z" />
    <glyph glyph-name="seven.dnom" horiz-adv-x="500" 
d="M135 12l265 644v10h-368v34h413v-30l-279 -670h-31v12z" />
    <glyph glyph-name="eight.dnom" horiz-adv-x="588" 
d="M175 20q-55 27 -83 71.5t-28 96.5q0 62 37.5 114t92.5 70v4q-44 20 -70 60.5t-26 92.5q0 53 26.5 95t74.5 66.5t108 24.5q63 0 110 -25.5t72 -68t25 -92.5q0 -53 -27 -94t-69 -59v-4q55 -18 92.5 -70t37.5 -114q0 -52 -28 -96.5t-83 -71.5t-131 -27t-131 27zM436.5 427
q44.5 42 44.5 106q0 63 -45 106t-130 43t-130 -43t-45 -106q0 -64 44.5 -106t130.5 -42t130.5 42zM421.5 50.5q47.5 22.5 70.5 60t23 82.5q0 46 -23.5 83.5t-70.5 60t-115 22.5t-115.5 -22.5t-70.5 -60.5t-23 -84q0 -45 23 -82.5t70 -59.5t115 -22q69 0 116.5 22.5z" />
    <glyph glyph-name="nine.dnom" horiz-adv-x="588" 
d="M476 352l-4 -1l-18 -21q-22 -25 -61.5 -45.5t-95.5 -20.5q-59 0 -111 25.5t-83.5 76.5t-31.5 123q0 69 29.5 120t79 78.5t109.5 27.5q55 0 107 -23.5t86.5 -77.5t34.5 -138q0 -62 -18.5 -118.5t-48.5 -108t-80 -122.5l-89 -127l-40 -1zM392.5 323q42.5 25 66 69t23.5 98
t-23.5 97.5t-66.5 68.5t-98 25q-57 0 -101 -25.5t-67.5 -68.5t-23.5 -95q0 -51 24 -95.5t68 -71.5t101 -27q55 0 97.5 25z" />
    <glyph glyph-name="zero.numr" horiz-adv-x="629" 
d="M164.5 32.5q-52.5 39.5 -77.5 107t-25 151.5v126q0 84 25 151.5t77.5 107t129.5 39.5t129.5 -39.5t77.5 -107t25 -151.5v-126q0 -84 -25 -151.5t-77.5 -107t-129.5 -39.5t-129.5 39.5zM441 95.5q53 69.5 53 208.5v100q0 139 -53 208.5t-147 69.5t-147 -69.5t-53 -208.5
v-100q0 -139 53 -208.5t147 -69.5t147 69.5z" />
    <glyph glyph-name="one.numr" horiz-adv-x="473" 
d="M403 34v-34h-291v34h133v624h-4l-131 -129v42l132 129h34v-666h127z" />
    <glyph glyph-name="two.numr" horiz-adv-x="575" 
d="M80 33l225 204q56 51 91.5 89.5t59 85.5t23.5 101q0 71 -43.5 119.5t-129.5 48.5q-100 0 -138.5 -54.5t-38.5 -124.5v-4h-35q0 79 45.5 148t168.5 69q74 0 120.5 -30.5t66 -76.5t19.5 -96q0 -60 -26.5 -113t-69.5 -100t-113 -109l-170 -151v-5h387v-34h-441z" />
    <glyph glyph-name="three.numr" horiz-adv-x="580" 
d="M154.5 37.5q-55.5 44.5 -69.5 105.5h34q16 -51 62.5 -84t122.5 -33q92 0 137 45.5t45 114.5q0 78 -54 117t-128 39h-71v32h61q75 0 129.5 33t54.5 115q0 74 -48.5 116.5t-128.5 42.5q-73 0 -115 -33.5t-52 -83.5h-34q11 59 58.5 105t143.5 46q69 0 116 -25.5t70 -69
t23 -95.5q0 -56 -24.5 -93t-54.5 -54t-42 -17v-5q17 -2 47 -17.5t56 -53t26 -99.5q0 -53 -23 -97t-71 -70t-119 -26q-96 0 -151.5 44.5z" />
    <glyph glyph-name="four.numr" horiz-adv-x="610" 
d="M389 180l-335 1v52l325 467h44v-487h114v-33h-114v-180h-34v180zM390 213v445l-309 -445h309z" />
    <glyph glyph-name="five.numr" horiz-adv-x="610" 
d="M214 22q-47 22 -76 57.5t-38 76.5h33q21 -63 72.5 -93t114.5 -30q92 0 142.5 56.5t50.5 152.5q0 106 -57.5 153.5t-135.5 47.5q-68 0 -109.5 -31.5t-56.5 -76.5l-43 8l21 357h362v-35h-332l-16 -277h2q20 37 64 63t108 26t115.5 -27t81 -80t29.5 -129q0 -74 -29 -128.5
t-80 -83.5t-117 -29q-59 0 -106 22z" />
    <glyph glyph-name="six.numr" horiz-adv-x="588" 
d="M192 16.5q-52 23.5 -86.5 76t-34.5 135.5q0 62 18.5 117.5t48.5 105.5t80 120l93 129h40l-239 -350l4 1l18 21q20 24 60.5 44.5t96.5 20.5q59 0 111 -25.5t83.5 -75.5t31.5 -121q0 -68 -29.5 -118.5t-79 -77t-109.5 -26.5q-55 0 -107 23.5zM395 52q44 25 67.5 67t23.5 93
q0 50 -24 94t-68 70.5t-101 26.5q-55 0 -97.5 -24.5t-66 -67.5t-23.5 -97q0 -53 23.5 -95.5t66.5 -67t98 -24.5q57 0 101 25z" />
    <glyph glyph-name="seven.numr" horiz-adv-x="500" 
d="M135 12l265 644v10h-368v34h413v-30l-279 -670h-31v12z" />
    <glyph glyph-name="eight.numr" horiz-adv-x="588" 
d="M175 20q-55 27 -83 71.5t-28 96.5q0 62 37.5 114t92.5 70v4q-44 20 -70 60.5t-26 92.5q0 53 26.5 95t74.5 66.5t108 24.5q63 0 110 -25.5t72 -68t25 -92.5q0 -53 -27 -94t-69 -59v-4q55 -18 92.5 -70t37.5 -114q0 -52 -28 -96.5t-83 -71.5t-131 -27t-131 27zM436.5 427
q44.5 42 44.5 106q0 63 -45 106t-130 43t-130 -43t-45 -106q0 -64 44.5 -106t130.5 -42t130.5 42zM421.5 50.5q47.5 22.5 70.5 60t23 82.5q0 46 -23.5 83.5t-70.5 60t-115 22.5t-115.5 -22.5t-70.5 -60.5t-23 -84q0 -45 23 -82.5t70 -59.5t115 -22q69 0 116.5 22.5z" />
    <glyph glyph-name="nine.numr" horiz-adv-x="588" 
d="M476 352l-4 -1l-18 -21q-22 -25 -61.5 -45.5t-95.5 -20.5q-59 0 -111 25.5t-83.5 76.5t-31.5 123q0 69 29.5 120t79 78.5t109.5 27.5q55 0 107 -23.5t86.5 -77.5t34.5 -138q0 -62 -18.5 -118.5t-48.5 -108t-80 -122.5l-89 -127l-40 -1zM392.5 323q42.5 25 66 69t23.5 98
t-23.5 97.5t-66.5 68.5t-98 25q-57 0 -101 -25.5t-67.5 -68.5t-23.5 -95q0 -51 24 -95.5t68 -71.5t101 -27q55 0 97.5 25z" />
    <glyph glyph-name="uni2070" unicode="&#x2070;" horiz-adv-x="323" 
d="M63 428.5q-33 58.5 -33 136.5q0 77 32.5 134.5t99.5 57.5q69 0 100 -57t31 -135t-31.5 -136.5t-99.5 -58.5q-66 0 -99 58.5zM237 443.5q25 47.5 25 120.5q0 75 -24.5 121.5t-75.5 46.5t-75.5 -47t-24.5 -121q0 -72 24.5 -120t75.5 -48q50 0 75 47.5z" />
    <glyph glyph-name="uni00B9" unicode="&#xb9;" horiz-adv-x="233" 
d="M203 411v-30h-171v30h73v308h-1l-74 -69v36l75 70h28v-345h70z" />
    <glyph glyph-name="uni00B2" unicode="&#xb2;" horiz-adv-x="302" 
d="M30 404l105 103l17 16q41 39 60.5 66.5t19.5 62.5q0 31 -19 54t-61 23q-49 0 -67 -29t-18 -63h-33q0 45 28 82t91 37q57 0 83.5 -30.5t26.5 -73.5q0 -30 -11.5 -54.5t-28.5 -43.5t-48 -49l-23 -22l-77 -76v-3h197v-30h-242v30z" />
    <glyph glyph-name="uni00B3" unicode="&#xb3;" horiz-adv-x="303" 
d="M68.5 397q-30.5 28 -38.5 61h30q8 -27 33 -43.5t60 -16.5q44 0 67.5 22t23.5 56q0 38 -28 58t-64 20h-38v27h35q36 0 62.5 17t26.5 55q0 36 -24.5 56.5t-61.5 20.5t-58 -17t-26 -42h-31q8 34 35 60t79 26q57 0 87.5 -30.5t30.5 -72.5q0 -29 -14 -48t-30.5 -29t-20.5 -10
v-1q15 -5 27.5 -11t27 -25.5t14.5 -51.5q0 -43 -31 -76t-88 -33q-55 0 -85.5 28z" />
    <glyph glyph-name="uni2074" unicode="&#x2074;" horiz-adv-x="324" 
d="M207 475h-177v34l170 247h39v-255h55v-26h-55v-94h-32v94zM207 500v218l-148 -218h148z" />
    <glyph glyph-name="uni2075" unicode="&#x2075;" horiz-adv-x="306" 
d="M71 407.5q-33 26.5 -41 64.5h31q9 -32 35.5 -48.5t55.5 -16.5q45 0 70.5 29t25.5 75q0 51 -28 75t-68 24q-29 0 -47.5 -11t26.5 55t-63 -96l-31 2l10 196h210v-29h-184l-10 -135h2q-2 1 8.5 13t31 21.5t51.5 9.5q52 0 86 -33t34 -92q0 -57 -34 -93.5t-89 -36.5
q-49 0 -82 26.5z" />
    <glyph glyph-name="uni2076" unicode="&#x2076;" horiz-adv-x="306" 
d="M68 409q-38 32 -38 96q0 46 18 82.5t57 95.5l50 74h34l-123 -182l3 1l9 9q34 34 80 34q49 0 83.5 -32.5t34.5 -87.5q0 -56 -35.5 -89t-85.5 -33q-49 0 -87 32zM221.5 431.5q26.5 27.5 26.5 65.5q0 39 -26.5 66.5t-68.5 27.5q-41 0 -67.5 -26.5t-26.5 -65.5
q0 -40 26.5 -67.5t67.5 -27.5q42 0 68.5 27.5z" />
    <glyph glyph-name="uni2077" unicode="&#x2077;" horiz-adv-x="286" 
d="M79 387l147 336v4h-196v29h226v-30l-147 -345h-30v6z" />
    <glyph glyph-name="uni2078" unicode="&#x2078;" horiz-adv-x="322" 
d="M65 402q-35 32 -35 75q0 34 21 61t47 35v3q-22 10 -36 31t-14 50q0 42 31 71t83 29t83.5 -29.5t31.5 -70.5q0 -30 -16 -51.5t-37 -29.5v-3q28 -10 48 -36t20 -60q0 -43 -34.5 -75t-95.5 -32q-62 0 -97 32zM226 605.5q23 21.5 23 52.5q0 30 -23 53t-64 23t-65 -23t-24 -53
q0 -31 23.5 -52.5t65.5 -21.5q41 0 64 21.5zM236 421.5q26 24.5 26 59.5q0 34 -26 57.5t-74 23.5q-50 0 -75.5 -24t-25.5 -57q0 -35 25 -59.5t74 -24.5q50 0 76 24.5z" />
    <glyph glyph-name="uni2079" unicode="&#x2079;" horiz-adv-x="306" 
d="M238 724q38 -32 38 -96q0 -45 -18.5 -86.5t-54.5 -93.5l-51 -74h-34l117 178l-6 -6q-33 -33 -79 -33q-50 0 -85 32.5t-35 89.5q0 55 35.5 88t86.5 33q48 0 86 -32zM220.5 568q25.5 28 25.5 67q0 38 -26 65.5t-67 27.5q-42 0 -68 -27.5t-26 -64.5q0 -38 26 -67t70 -29
q40 0 65.5 28z" />
    <glyph glyph-name="fraction" unicode="&#x2044;" horiz-adv-x="452" 
d="M410 700h38l-419 -700h-37z" />
    <glyph glyph-name="onehalf" unicode="&#xbd;" horiz-adv-x="797" 
d="M210 350h-164v30h69v281h-2l-68 -65v39l69 65h31v-320h65v-30zM619 688l-411 -688h-32v12l411 688h32v-12zM752 30v-30h-227v29l92 89l19 18q40 39 58 64t18 59q0 30 -17 49.5t-55 19.5q-45 0 -61.5 -25.5t-16.5 -58.5h-32q0 44 25.5 79t84.5 35q54 0 78.5 -29t24.5 -70
q0 -40 -21 -70t-65 -72l-15 -15l-71 -70v-2h181z" />
    <glyph glyph-name="onequarter" unicode="&#xbc;" horiz-adv-x="784" 
d="M210 350h-164v30h69v281h-2l-68 -65v39l69 65h31v-320h65v-30zM607 688l-412 -688h-31v12l411 688h32v-12zM739 115v-27h-53v-88h-32v88l-164 1v33l155 228h41v-235h53zM655 318l-140 -203h140v203z" />
    <glyph glyph-name="threequarters" unicode="&#xbe;" horiz-adv-x="841" 
d="M81 363.5q-30 24.5 -36 59.5h32q7 -24 28.5 -39t54.5 -15q41 0 61.5 20.5t20.5 50.5q0 34 -24 52t-58 18h-33v26h29q33 0 57.5 15t24.5 51q0 32 -22 51.5t-57 19.5q-33 0 -52 -15.5t-23 -37.5h-32q6 32 31 56.5t76 24.5q54 0 82 -27.5t28 -68.5q0 -28 -12 -46
t-26.5 -26.5t-19.5 -8.5v-3q6 0 21 -8t28 -26.5t13 -48.5q0 -41 -28.5 -70t-83.5 -29q-50 0 -80 24.5zM212 12l411 688h32v-12l-411 -688h-32v12zM711 88l-163 1v33l154 228h41v-235h53v-27h-53v-88h-32v88zM712 115v203l-139 -203h139z" />
    <glyph glyph-name="oneeighth" unicode="&#x215b;" horiz-adv-x="878" 
d="M210 350h-164v30h69v281h-2l-68 -65v39l69 65h31v-320h65v-30zM645 688l-411 -688h-30v12l411 688h30v-12zM814.5 150.5q18.5 -24.5 18.5 -56.5q0 -40 -32.5 -69t-90.5 -29q-59 0 -91.5 29t-32.5 69q0 32 19 57t44 33v2q-20 9 -33.5 29.5t-13.5 47.5q0 39 29 66.5
t79 27.5q51 0 79.5 -28t28.5 -66q0 -27 -14 -48t-33 -29v-2q25 -9 43.5 -33.5zM652 215q20 -19 58 -19t57.5 19t19.5 47t-20 48t-57 20q-38 0 -58 -20t-20 -48t20 -47zM778 46q24 22 24 52q0 32 -23.5 54t-68.5 22t-69 -22t-24 -54q0 -31 24 -52.5t69 -21.5q44 0 68 22z" />
    </font>
</defs>
</svg>
