<?xml version="1.0" standalone="no"?>
<!DOCTYPE svg PUBLIC "-//W3C//DTD SVG 1.1//EN" "http://www.w3.org/Graphics/SVG/1.1/DTD/svg11.dtd" >
<svg xmlns="http://www.w3.org/2000/svg" xmlns:xlink="http://www.w3.org/1999/xlink" version="1.1">
<metadata>
Created by FontForge 20170812 at Mon Aug  5 09:32:30 2019
 By www-data
Copyright 2019 The Bevietnam Project Authors (https://github.com/bettergui/beVietnam)
</metadata>
<defs>
<font id="BeVietnam-ExtraBoldItalic" horiz-adv-x="565" >
  <font-face 
    font-family="Be Vietnam ExtraBold"
    font-weight="800"
    font-style="italic"
    font-stretch="normal"
    units-per-em="1000"
    panose-1="0 0 9 0 0 0 0 0 0 0"
    ascent="800"
    descent="-200"
    x-height="529"
    cap-height="700"
    bbox="-547 -265 1115 1196"
    underline-thickness="50"
    underline-position="-100"
    slope="-9.778"
    unicode-range="U+000D-2265"
  />
<missing-glyph horiz-adv-x="731" 
d="M599 -265h-463v1461h463v-1461zM245 1098v-48h95v-54h-96v-48h243v48h-97v54h97v48h-242zM244 910v-152h243v49h-97v103h-146zM340 807h-48v53h48v-53zM244 718v-48h96v-54h-96v-48h146v102h97v48h-243zM438 631v-97h-194v-50h243v147h-49zM340 452v-81h50v33h48v-69
h-146v117h-48v-165h243v165h-147zM244 200v-165h243v165h-243zM438 83h-146v68h146v-68zM244 1v-48h102l-102 -69v-48h243v48h-150l103 69h47v48h-243z" />
    <glyph glyph-name="f_f.liga" unicode="ff" horiz-adv-x="782" 
d="M763.5 618.5q-15.5 -12.5 -21.5 -29.5t-11 -46l-2 -14h114l-19 -121h-115l-67 -408h-155l66 408h-231l-67 -408h-155l66 408h-64l20 121h63l10 61q9 50 52 99.5t148 49.5q25 0 55 -3.5t39 -6.5l-16 -102q-24 4 -51 4q-30 0 -45.5 -12.5t-21.5 -29.5t-11 -46l-2 -14h230
l10 61q9 51 52 100t148 49q25 0 55 -3.5t39 -6.5l-16 -102q-24 4 -51 4q-30 0 -45.5 -12.5z" />
    <glyph glyph-name="f_i.liga" unicode="fi" horiz-adv-x="684" 
d="M730.5 766.5q19.5 -19.5 19.5 -49.5q0 -40 -30.5 -70t-70.5 -30q-31 0 -50.5 20t-19.5 49q0 40 30 70t70 30q32 0 51.5 -19.5zM619 0h-156l66 408h-207l-67 -408h-155l66 408h-64l20 121h63l10 61q9 50 52 99.5t148 49.5q25 0 55 -3.5t39 -6.5l-16 -102q-24 4 -51 4
q-30 0 -45.5 -12.5t-21.5 -29.5t-11 -46l-2 -14h363z" />
    <glyph glyph-name="t_t.liga" unicode="tt" horiz-adv-x="859" 
d="M728 198q-5 -27 -5 -43q0 -24 14.5 -35.5t52.5 -11.5q18 0 40 4l-17 -108q-11 -2 -41.5 -4.5t-59.5 -2.5q-87 0 -119.5 28t-32.5 78q0 16 3 36.5t4 26.5l40 242h-273l-34 -210q-5 -28 -5 -44q0 -23 14 -34.5t52 -11.5q17 0 41 4l-18 -108q-11 -2 -41.5 -4.5t-59.5 -2.5
q-86 0 -118.5 28t-32.5 77q0 27 7 64l39 242h-84l19 121h85l28 171h155l-28 -171h274l28 171h155l-28 -171h116l-19 -121h-117z" />
    <glyph glyph-name="hyphen_greater.liga" unicode="&#x2d;&#x3e;" horiz-adv-x="752" 
d="M605 529l161 -220l-232 -220h-146l162 156h-474l20 127h474l-111 157h146z" />
    <glyph glyph-name="colon_b_e_colon.liga" unicode="&#x3a;be&#x3a;" horiz-adv-x="878" 
d="M248 629h160q59 0 89 33.5t31 81.5q42 -13 65 -44.5t23 -76.5q0 -80 -54 -125.5t-148 -45.5h-217zM142 261h229q61 0 102.5 21.5t61.5 56.5t20 77q0 12 -1 18q64 -14 103 -64.5t39 -117.5q0 -71 -39 -130.5t-106 -93.5t-148 -34h-340z" />
    <glyph glyph-name="colon_d_d_colon.liga" unicode="&#x3a;dd&#x3a;" horiz-adv-x="600" 
d="M689 676h-52l-82 -504h-157l9 53h-8q-19 -22 -54.5 -42t-95.5 -20q-77 0 -118 46.5t-41 128.5q0 87 31 157t84.5 110t120.5 40q62 0 92.5 -22.5t38.5 -43.5h7l16 97h-84l15 98h85l9 56h157l-9 -56h51zM383.5 306q26.5 21 41.5 55t15 71t-19 62t-59 25q-51 0 -83 -43
t-32 -105q0 -37 18 -61.5t58 -24.5q34 0 60.5 21zM107 97h443l-16 -97h-442z" />
    <glyph glyph-name="colon_d_o_w_n_colon.liga" unicode="&#x3a;down&#x3a;" horiz-adv-x="613" 
d="M560 197l-254 -197l-186 197l26 146l132 -136l85 493h127l-84 -493l180 136z" />
    <glyph glyph-name="colon_l_e_f_t_colon.liga" unicode="&#x3a;left&#x3a;" horiz-adv-x="721" 
d="M132 111h298q41 0 80.5 22.5t64.5 61t25 82.5q0 55 -35.5 90.5t-86.5 35.5l-203 1l123 -151h-152l-128 169l13 77l178 142h151l-162 -124h199q62 0 112 -29t79 -79.5t29 -111.5q0 -76 -43.5 -146.5t-114.5 -113.5t-147 -43h-298z" />
    <glyph glyph-name="colon_r_i_g_h_t_colon.liga" unicode="&#x3a;right&#x3a;" horiz-adv-x="721" 
d="M308 -6q-62 0 -112.5 29.5t-79 80t-28.5 111.5q0 76 43.5 146t114 113t147.5 43h199l-123 124h151l132 -142l-12 -77l-183 -169h-151l172 151l-204 -1q-41 0 -80.5 -23.5t-64.5 -63.5t-25 -86q0 -50 35 -84.5t88 -34.5h298l-19 -117h-298z" />
    <glyph glyph-name="colon_s_t_a_r_colon.liga" unicode="&#x3a;star&#x3a;" horiz-adv-x="831" 
d="M310 281l-145 153l232 29l133 209l63 -207l223 -30l-197 -151l7 -232l-180 117l-222 -118z" />
    <glyph glyph-name="colon_u_p_colon.liga" unicode="&#x3a;up&#x3a;" horiz-adv-x="613" 
d="M559 493l-85 -494h-127l85 494l-180 -136l26 146l254 197l186 -197l-26 -146z" />
    <glyph glyph-name="less_hyphen.liga" unicode="&#x3c;&#x2d;" horiz-adv-x="703" 
d="M133 372h473l20 -127h-473l161 -156h-146l-232 220l161 220h146z" />
    <glyph glyph-name=".notdef" horiz-adv-x="731" 
d="M599 -265h-463v1461h463v-1461zM245 1098v-48h95v-54h-96v-48h243v48h-97v54h97v48h-242zM244 910v-152h243v49h-97v103h-146zM340 807h-48v53h48v-53zM244 718v-48h96v-54h-96v-48h146v102h97v48h-243zM438 631v-97h-194v-50h243v147h-49zM340 452v-81h50v33h48v-69
h-146v117h-48v-165h243v165h-147zM244 200v-165h243v165h-243zM438 83h-146v68h146v-68zM244 1v-48h102l-102 -69v-48h243v48h-150l103 69h47v48h-243z" />
    <glyph glyph-name="nonmarkingreturn" unicode="&#xd;" horiz-adv-x="600" 
 />
    <glyph glyph-name="space" unicode=" " horiz-adv-x="230" 
 />
    <glyph glyph-name="A" unicode="A" horiz-adv-x="673" 
d="M476 162h-223l-77 -162h-158l363 700h145l133 -700h-158zM458 281l-34 226h-7l-107 -226h148z" />
    <glyph glyph-name="Aacute" unicode="&#xc1;" horiz-adv-x="673" 
d="M476 162h-223l-77 -162h-158l363 700h145l133 -700h-158zM458 281l-34 226h-7l-107 -226h148zM404 777l133 200h153l-163 -201z" />
    <glyph glyph-name="Abreve" unicode="&#x102;" horiz-adv-x="673" 
d="M476 162h-223l-77 -162h-158l363 700h145l133 -700h-158zM458 281l-34 226h-7l-107 -226h148zM292 901h124q5 -21 19.5 -33.5t39.5 -12.5t43.5 12.5t30.5 33.5h124q-83 -129 -211 -129q-129 0 -170 129z" />
    <glyph glyph-name="uni1EAE" unicode="&#x1eae;" horiz-adv-x="673" 
d="M476 162h-223l-77 -162h-158l363 700h145l133 -700h-158zM458 281l-34 226h-7l-107 -226h148zM292 901h124q5 -21 19.5 -33.5t39.5 -12.5t43.5 12.5t30.5 33.5h124q-83 -129 -211 -129q-129 0 -170 129zM432 951l133 200h153l-163 -201z" />
    <glyph glyph-name="uni1EB6" unicode="&#x1eb6;" horiz-adv-x="673" 
d="M476 162h-223l-77 -162h-158l363 700h145l133 -700h-158zM458 281l-34 226h-7l-107 -226h148zM249 -232.5q-18 18.5 -18 46.5q0 37 28 64.5t65 27.5q30 0 48.5 -18t18.5 -46q0 -37 -28.5 -65t-65.5 -28q-30 0 -48 18.5zM292 901h124q5 -21 19.5 -33.5t39.5 -12.5
t43.5 12.5t30.5 33.5h124q-83 -129 -211 -129q-129 0 -170 129z" />
    <glyph glyph-name="uni1EB0" unicode="&#x1eb0;" horiz-adv-x="673" 
d="M476 162h-223l-77 -162h-158l363 700h145l133 -700h-158zM458 281l-34 226h-7l-107 -226h148zM299 901h124q5 -21 19.5 -33.5t39.5 -12.5t43.5 12.5t30.5 33.5h124q-83 -129 -211 -129q-129 0 -170 129zM336 1151h153l69 -200l-123 -1z" />
    <glyph glyph-name="uni1EB2" unicode="&#x1eb2;" horiz-adv-x="673" 
d="M476 162h-223l-77 -162h-158l363 700h145l133 -700h-158zM458 281l-34 226h-7l-107 -226h148zM292 901h124q5 -21 19.5 -33.5t39.5 -12.5t43.5 12.5t30.5 33.5h124q-83 -129 -211 -129q-129 0 -170 129zM443 966q9 7 19.5 13.5t14.5 9.5q31 18 47 33.5t16 37.5
q0 10 -6.5 16t-18.5 6q-15 0 -24.5 -8.5t-12.5 -22.5h-109q8 45 47.5 78.5t110.5 33.5q57 0 87 -24t30 -62q0 -40 -18.5 -62t-49.5 -41q-24 -15 -28 -24h-117q3 9 12 16z" />
    <glyph glyph-name="uni1EB4" unicode="&#x1eb4;" horiz-adv-x="673" 
d="M476 162h-223l-77 -162h-158l363 700h145l133 -700h-158zM458 281l-34 226h-7l-107 -226h148zM292 901h124q5 -21 19.5 -33.5t39.5 -12.5t43.5 12.5t30.5 33.5h124q-83 -129 -211 -129q-129 0 -170 129zM359 1057.5q31 38.5 91 38.5q19 0 37 -5.5t40 -15.5q12 -5 25 -9.5
t22 -4.5q15 0 23.5 11t9.5 25h78q-6 -58 -36.5 -95.5t-90.5 -37.5q-20 0 -37.5 5.5t-39.5 15.5q-4 2 -19.5 8t-27.5 6q-16 0 -24 -11t-10 -26h-78q6 57 37 95.5z" />
    <glyph glyph-name="Acircumflex" unicode="&#xc2;" horiz-adv-x="673" 
d="M476 162h-223l-77 -162h-158l363 700h145l133 -700h-158zM458 281l-34 226h-7l-107 -226h148zM433 925h112l121 -163h-141l-50 69h-4l-72 -69h-139z" />
    <glyph glyph-name="uni1EA4" unicode="&#x1ea4;" horiz-adv-x="673" 
d="M476 162h-223l-77 -162h-158l363 700h145l133 -700h-158zM458 281l-34 226h-7l-107 -226h148zM431 925h112l121 -163h-141l-50 69h-4l-72 -69h-139zM603 893l133 200h153l-163 -201z" />
    <glyph glyph-name="uni1EAC" unicode="&#x1eac;" horiz-adv-x="673" 
d="M476 162h-223l-77 -162h-158l363 700h145l133 -700h-158zM458 281l-34 226h-7l-107 -226h148zM249 -232.5q-18 18.5 -18 46.5q0 37 28 64.5t65 27.5q30 0 48.5 -18t18.5 -46q0 -37 -28.5 -65t-65.5 -28q-30 0 -48 18.5zM433 925h112l121 -163h-141l-50 69h-4l-72 -69
h-139z" />
    <glyph glyph-name="uni1EA6" unicode="&#x1ea6;" horiz-adv-x="673" 
d="M476 162h-223l-77 -162h-158l363 700h145l133 -700h-158zM458 281l-34 226h-7l-107 -226h148zM432 925h112l121 -163h-141l-50 69h-4l-72 -69h-139zM521 1093h153l69 -200l-123 -1z" />
    <glyph glyph-name="uni1EA8" unicode="&#x1ea8;" horiz-adv-x="673" 
d="M476 162h-223l-77 -162h-158l363 700h145l133 -700h-158zM458 281l-34 226h-7l-107 -226h148zM431 925h112l121 -163h-141l-50 69h-4l-72 -69h-139zM617 920q9 7 19.5 13.5t14.5 9.5q31 18 47 33.5t16 37.5q0 10 -6.5 16t-18.5 6q-15 0 -24.5 -8.5t-12.5 -22.5h-109
q8 45 47.5 78.5t110.5 33.5q57 0 87 -24t30 -62q0 -40 -18.5 -62t-49.5 -41q-24 -15 -28 -24h-117q3 9 12 16z" />
    <glyph glyph-name="uni1EAA" unicode="&#x1eaa;" horiz-adv-x="673" 
d="M476 162h-223l-77 -162h-158l363 700h145l133 -700h-158zM458 281l-34 226h-7l-107 -226h148zM430 925h112l121 -163h-141l-50 69h-4l-72 -69h-139zM355 1066.5q31 38.5 91 38.5q19 0 37 -5.5t40 -15.5q12 -5 25 -9.5t22 -4.5q15 0 23.5 11t9.5 25h78q-6 -58 -36.5 -95.5
t-90.5 -37.5q-20 0 -37.5 5.5t-39.5 15.5q-4 2 -19.5 8t-27.5 6q-16 0 -24 -11t-10 -26h-78q6 57 37 95.5z" />
    <glyph glyph-name="Adieresis" unicode="&#xc4;" horiz-adv-x="673" 
d="M476 162h-223l-77 -162h-158l363 700h145l133 -700h-158zM458 281l-34 226h-7l-107 -226h148zM557.5 808q-19.5 20 -19.5 49q0 40 30 70t70 30q32 0 51.5 -19.5t19.5 -49.5q0 -40 -30.5 -70t-70.5 -30q-31 0 -50.5 20zM285.5 808q-19.5 20 -19.5 49q0 40 30 70t70 30
q32 0 51.5 -19.5t19.5 -49.5q0 -40 -30.5 -70t-70.5 -30q-31 0 -50.5 20z" />
    <glyph glyph-name="uni1EA0" unicode="&#x1ea0;" horiz-adv-x="673" 
d="M476 162h-223l-77 -162h-158l363 700h145l133 -700h-158zM458 281l-34 226h-7l-107 -226h148zM249 -232.5q-18 18.5 -18 46.5q0 37 28 64.5t65 27.5q30 0 48.5 -18t18.5 -46q0 -37 -28.5 -65t-65.5 -28q-30 0 -48 18.5z" />
    <glyph glyph-name="Agrave" unicode="&#xc0;" horiz-adv-x="673" 
d="M476 162h-223l-77 -162h-158l363 700h145l133 -700h-158zM458 281l-34 226h-7l-107 -226h148zM301 977h153l69 -200l-123 -1z" />
    <glyph glyph-name="uni1EA2" unicode="&#x1ea2;" horiz-adv-x="673" 
d="M476 162h-223l-77 -162h-158l363 700h145l133 -700h-158zM458 281l-34 226h-7l-107 -226h148zM415 792q9 7 19.5 13.5t14.5 9.5q31 18 47 33.5t16 37.5q0 10 -6.5 16t-18.5 6q-15 0 -24.5 -8.5t-12.5 -22.5h-109q8 45 47.5 78.5t110.5 33.5q57 0 87 -24t30 -62
q0 -40 -18.5 -62t-49.5 -41q-24 -15 -28 -24h-117q3 9 12 16z" />
    <glyph glyph-name="Amacron" unicode="&#x100;" horiz-adv-x="673" 
d="M476 162h-223l-77 -162h-158l363 700h145l133 -700h-158zM458 281l-34 226h-7l-107 -226h148zM312 855h327l-11 -70h-327z" />
    <glyph glyph-name="Aogonek" unicode="&#x104;" horiz-adv-x="673" 
d="M568.5 -90q11.5 -9 34.5 -9q19 0 36 7l-13 -80q-4 -1 -16.5 -3.5t-40.5 -2.5q-57 0 -87 24t-30 62q0 26 13 51t35 44l-24 159h-223l-77 -162h-158l363 700h145l133 -700h-41q-29 -15 -45 -29.5t-16 -37.5q0 -14 11.5 -23zM458 281l-34 226h-7l-107 -226h148z" />
    <glyph glyph-name="Aring" unicode="&#xc5;" horiz-adv-x="673" 
d="M476 162h-223l-77 -162h-158l363 700h145l133 -700h-158zM458 281l-34 226h-7l-107 -226h148zM400 793q-25 25 -25 62q0 30 17 57.5t45 44.5t59 17q38 0 63 -25t25 -62q0 -30 -17 -57.5t-45.5 -44.5t-58.5 -17q-38 0 -63 25zM505.5 845q14.5 14 14.5 33q0 14 -10 23.5
t-24 9.5q-19 0 -33 -14t-14 -33q0 -14 9.5 -23.5t24.5 -9.5q18 0 32.5 14z" />
    <glyph glyph-name="Atilde" unicode="&#xc3;" horiz-adv-x="673" 
d="M476 162h-223l-77 -162h-158l363 700h145l133 -700h-158zM458 281l-34 226h-7l-107 -226h148zM331 883.5q31 38.5 91 38.5q19 0 37 -5.5t40 -15.5q12 -5 25 -9.5t22 -4.5q15 0 23.5 11t9.5 25h78q-6 -58 -36.5 -95.5t-90.5 -37.5q-20 0 -37.5 5.5t-39.5 15.5
q-4 2 -19.5 8t-27.5 6q-16 0 -24 -11t-10 -26h-78q6 57 37 95.5z" />
    <glyph glyph-name="AE" unicode="&#xc6;" horiz-adv-x="969" 
d="M704 564l-24 -149h265l-20 -121h-265l-26 -158h316l-22 -136h-473l26 162h-200l-104 -162h-177l454 700h588l-21 -136h-317zM501 281l46 283h-9l-181 -283h144z" />
    <glyph glyph-name="B" unicode="B" horiz-adv-x="624" 
d="M165 700h300q85 0 128.5 -40.5t43.5 -105.5q0 -44 -18 -81.5t-46.5 -62t-60.5 -33.5l-2 -7q26 -3 52.5 -19t45 -45.5t18.5 -71.5q0 -59 -31.5 -113.5t-88.5 -88t-131 -33.5h-323zM373 415q51 0 82 26.5t31 70.5q0 35 -25.5 50t-60.5 15h-101l-27 -162h101zM360 123
q54 0 87 30t33 78q0 39 -27.5 56t-62.5 17h-135l-30 -181h135z" />
    <glyph glyph-name="C" unicode="C" horiz-adv-x="695" 
d="M209 29q-60 38 -90 103t-30 146q0 118 52 218.5t140.5 159t192.5 58.5q83 0 141 -33.5t87.5 -92t32.5 -132.5h-151q-2 52 -37 87t-92 35q-58 0 -104.5 -38t-73 -105t-26.5 -150q0 -73 32 -115.5t98 -42.5q57 0 100.5 33.5t65.5 81.5h150q-41 -110 -130 -180.5t-210 -70.5
q-88 0 -148 38z" />
    <glyph glyph-name="Cacute" unicode="&#x106;" horiz-adv-x="695" 
d="M209 29q-60 38 -90 103t-30 146q0 118 52 218.5t140.5 159t192.5 58.5q83 0 141 -33.5t87.5 -92t32.5 -132.5h-151q-2 52 -37 87t-92 35q-58 0 -104.5 -38t-73 -105t-26.5 -150q0 -73 32 -115.5t98 -42.5q57 0 100.5 33.5t65.5 81.5h150q-41 -110 -130 -180.5t-210 -70.5
q-88 0 -148 38zM422 777l133 200h153l-163 -201z" />
    <glyph glyph-name="Ccaron" unicode="&#x10c;" horiz-adv-x="695" 
d="M209 29q-60 38 -90 103t-30 146q0 118 52 218.5t140.5 159t192.5 58.5q83 0 141 -33.5t87.5 -92t32.5 -132.5h-151q-2 52 -37 87t-92 35q-58 0 -104.5 -38t-73 -105t-26.5 -150q0 -73 32 -115.5t98 -42.5q57 0 100.5 33.5t65.5 81.5h150q-41 -110 -130 -180.5t-210 -70.5
q-88 0 -148 38zM442 925l49 -69h4l73 69h141l-174 -163h-112l-120 163h139z" />
    <glyph glyph-name="Ccedilla" unicode="&#xc7;" horiz-adv-x="695" 
d="M481.5 160.5q43.5 33.5 65.5 81.5h150q-39 -105 -122 -174.5t-197 -75.5l-16 -33h12q43 0 65 -22.5t22 -57.5q0 -36 -19 -65.5t-51.5 -47t-72.5 -17.5q-44 0 -71 16l13 74q37 -10 69 -10q29 0 45 11.5t16 30.5q0 12 -10 18t-25 6h-92l1 3l40 97q-105 17 -160 94.5
t-55 188.5q0 118 52 218.5t140.5 159t192.5 58.5q83 0 141 -33.5t87.5 -92t32.5 -132.5h-151q-2 52 -37 87t-92 35q-58 0 -104.5 -38t-73 -105t-26.5 -150q0 -73 32 -115.5t98 -42.5q57 0 100.5 33.5z" />
    <glyph glyph-name="Cdotaccent" unicode="&#x10a;" horiz-adv-x="695" 
d="M209 29q-60 38 -90 103t-30 146q0 118 52 218.5t140.5 159t192.5 58.5q83 0 141 -33.5t87.5 -92t32.5 -132.5h-151q-2 52 -37 87t-92 35q-58 0 -104.5 -38t-73 -105t-26.5 -150q0 -73 32 -115.5t98 -42.5q57 0 100.5 33.5t65.5 81.5h150q-41 -110 -130 -180.5t-210 -70.5
q-88 0 -148 38zM431.5 808q-19.5 20 -19.5 49q0 40 30 70t70 30q32 0 51.5 -19.5t19.5 -49.5q0 -40 -30.5 -70t-70.5 -30q-31 0 -50.5 20z" />
    <glyph glyph-name="D" unicode="D" horiz-adv-x="677" 
d="M165 701h277q122 0 193 -71t71 -198q0 -122 -49.5 -220.5t-136 -154.5t-194.5 -56h-274zM320 141q100 0 159 72t59 204q0 81 -41 113.5t-108 32.5h-95l-69 -422h95z" />
    <glyph glyph-name="Eth" unicode="&#xd0;" horiz-adv-x="707" 
d="M662.5 631q73.5 -70 73.5 -199q0 -124 -50.5 -222.5t-139.5 -154t-201 -55.5h-264l50 306h-49l17 104h49l47 291h266q128 0 201.5 -70zM443.5 165.5q52.5 25.5 88.5 87.5t36 165q0 91 -46.5 118t-113.5 27h-84l-25 -153h93l-16 -104h-94l-27 -166h83q53 0 105.5 25.5z
" />
    <glyph glyph-name="Dcaron" unicode="&#x10e;" horiz-adv-x="677" 
d="M165 701h277q122 0 193 -71t71 -198q0 -122 -49.5 -220.5t-136 -154.5t-194.5 -56h-274zM320 141q100 0 159 72t59 204q0 81 -41 113.5t-108 32.5h-95l-69 -422h95zM415 926l49 -69h4l73 69h141l-174 -163h-112l-120 163h139z" />
    <glyph glyph-name="Dcroat" unicode="&#x110;" horiz-adv-x="707" 
d="M662.5 631q73.5 -70 73.5 -199q0 -124 -50.5 -222.5t-139.5 -154t-201 -55.5h-264l50 306h-49l17 104h49l47 291h266q128 0 201.5 -70zM443.5 165.5q52.5 25.5 88.5 87.5t36 165q0 91 -46.5 118t-113.5 27h-84l-25 -153h93l-16 -104h-94l-27 -166h83q53 0 105.5 25.5z
" />
    <glyph glyph-name="E" unicode="E" horiz-adv-x="566" 
d="M301 564l-24 -149h265l-20 -121h-265l-26 -158h316l-22 -136h-473l114 700h473l-21 -136h-317z" />
    <glyph glyph-name="Eacute" unicode="&#xc9;" horiz-adv-x="566" 
d="M301 564l-24 -149h265l-20 -121h-265l-26 -158h316l-22 -136h-473l114 700h473l-21 -136h-317zM353 777l133 200h153l-163 -201z" />
    <glyph glyph-name="Ecaron" unicode="&#x11a;" horiz-adv-x="566" 
d="M301 564l-24 -149h265l-20 -121h-265l-26 -158h316l-22 -136h-473l114 700h473l-21 -136h-317zM373 925l49 -69h4l73 69h141l-174 -163h-112l-120 163h139z" />
    <glyph glyph-name="Ecircumflex" unicode="&#xca;" horiz-adv-x="566" 
d="M301 564l-24 -149h265l-20 -121h-265l-26 -158h316l-22 -136h-473l114 700h473l-21 -136h-317zM382 925h112l121 -163h-141l-50 69h-4l-72 -69h-139z" />
    <glyph glyph-name="uni1EBE" unicode="&#x1ebe;" horiz-adv-x="566" 
d="M301 564l-24 -149h265l-20 -121h-265l-26 -158h316l-22 -136h-473l114 700h473l-21 -136h-317zM381 925h112l121 -163h-141l-50 69h-4l-72 -69h-139zM553 893l133 200h153l-163 -201z" />
    <glyph glyph-name="uni1EC6" unicode="&#x1ec6;" horiz-adv-x="566" 
d="M301 564l-24 -149h265l-20 -121h-265l-26 -158h316l-22 -136h-473l114 700h473l-21 -136h-317zM198 -232.5q-18 18.5 -18 46.5q0 37 28 64.5t65 27.5q30 0 48.5 -18t18.5 -46q0 -37 -28.5 -65t-65.5 -28q-30 0 -48 18.5zM382 925h112l121 -163h-141l-50 69h-4l-72 -69
h-139z" />
    <glyph glyph-name="uni1EC0" unicode="&#x1ec0;" horiz-adv-x="566" 
d="M301 564l-24 -149h265l-20 -121h-265l-26 -158h316l-22 -136h-473l114 700h473l-21 -136h-317zM381 925h112l121 -163h-141l-50 69h-4l-72 -69h-139zM470 1093h153l69 -200l-123 -1z" />
    <glyph glyph-name="uni1EC2" unicode="&#x1ec2;" horiz-adv-x="566" 
d="M301 564l-24 -149h265l-20 -121h-265l-26 -158h316l-22 -136h-473l114 700h473l-21 -136h-317zM381 925h112l121 -163h-141l-50 69h-4l-72 -69h-139zM567 920q9 7 19.5 13.5t14.5 9.5q31 18 47 33.5t16 37.5q0 10 -6.5 16t-18.5 6q-15 0 -24.5 -8.5t-12.5 -22.5h-109
q8 45 47.5 78.5t110.5 33.5q57 0 87 -24t30 -62q0 -40 -18.5 -62t-49.5 -41q-24 -15 -28 -24h-117q3 9 12 16z" />
    <glyph glyph-name="uni1EC4" unicode="&#x1ec4;" horiz-adv-x="566" 
d="M301 564l-24 -149h265l-20 -121h-265l-26 -158h316l-22 -136h-473l114 700h473l-21 -136h-317zM380 925h112l121 -163h-141l-50 69h-4l-72 -69h-139zM305 1066.5q31 38.5 91 38.5q19 0 37 -5.5t40 -15.5q12 -5 25 -9.5t22 -4.5q15 0 23.5 11t9.5 25h78
q-6 -58 -36.5 -95.5t-90.5 -37.5q-20 0 -37.5 5.5t-39.5 15.5q-4 2 -19.5 8t-27.5 6q-16 0 -24 -11t-10 -26h-78q6 57 37 95.5z" />
    <glyph glyph-name="Edieresis" unicode="&#xcb;" horiz-adv-x="566" 
d="M301 564l-24 -149h265l-20 -121h-265l-26 -158h316l-22 -136h-473l114 700h473l-21 -136h-317zM507.5 808q-19.5 20 -19.5 49q0 40 30 70t70 30q32 0 51.5 -19.5t19.5 -49.5q0 -40 -30.5 -70t-70.5 -30q-31 0 -50.5 20zM235.5 808q-19.5 20 -19.5 49q0 40 30 70t70 30
q32 0 51.5 -19.5t19.5 -49.5q0 -40 -30.5 -70t-70.5 -30q-31 0 -50.5 20z" />
    <glyph glyph-name="Edotaccent" unicode="&#x116;" horiz-adv-x="566" 
d="M301 564l-24 -149h265l-20 -121h-265l-26 -158h316l-22 -136h-473l114 700h473l-21 -136h-317zM362.5 808q-19.5 20 -19.5 49q0 40 30 70t70 30q32 0 51.5 -19.5t19.5 -49.5q0 -40 -30.5 -70t-70.5 -30q-31 0 -50.5 20z" />
    <glyph glyph-name="uni1EB8" unicode="&#x1eb8;" horiz-adv-x="566" 
d="M301 564l-24 -149h265l-20 -121h-265l-26 -158h316l-22 -136h-473l114 700h473l-21 -136h-317zM198 -232.5q-18 18.5 -18 46.5q0 37 28 64.5t65 27.5q30 0 48.5 -18t18.5 -46q0 -37 -28.5 -65t-65.5 -28q-30 0 -48 18.5z" />
    <glyph glyph-name="Egrave" unicode="&#xc8;" horiz-adv-x="566" 
d="M301 564l-24 -149h265l-20 -121h-265l-26 -158h316l-22 -136h-473l114 700h473l-21 -136h-317zM251 977h153l69 -200l-123 -1z" />
    <glyph glyph-name="uni1EBA" unicode="&#x1eba;" horiz-adv-x="566" 
d="M301 564l-24 -149h265l-20 -121h-265l-26 -158h316l-22 -136h-473l114 700h473l-21 -136h-317zM364 792q9 7 19.5 13.5t14.5 9.5q31 18 47 33.5t16 37.5q0 10 -6.5 16t-18.5 6q-15 0 -24.5 -8.5t-12.5 -22.5h-109q8 45 47.5 78.5t110.5 33.5q57 0 87 -24t30 -62
q0 -40 -18.5 -62t-49.5 -41q-24 -15 -28 -24h-117q3 9 12 16z" />
    <glyph glyph-name="Emacron" unicode="&#x112;" horiz-adv-x="566" 
d="M301 564l-24 -149h265l-20 -121h-265l-26 -158h316l-22 -136h-473l114 700h473l-21 -136h-317zM261 855h327l-11 -70h-327z" />
    <glyph glyph-name="Eogonek" unicode="&#x118;" horiz-adv-x="566" 
d="M301 564l-24 -149h265l-20 -121h-265l-26 -158h316l-22 -136q-29 -15 -45 -29.5t-16 -37.5q0 -14 11.5 -23t34.5 -9q18 0 36 7l-13 -80q-4 -1 -16.5 -3.5t-40.5 -2.5q-57 0 -87 24t-30 62q0 52 45 92h-352l114 700h473l-21 -136h-317z" />
    <glyph glyph-name="uni1EBC" unicode="&#x1ebc;" horiz-adv-x="566" 
d="M301 564l-24 -149h265l-20 -121h-265l-26 -158h316l-22 -136h-473l114 700h473l-21 -136h-317zM281 883.5q31 38.5 91 38.5q19 0 37 -5.5t40 -15.5q12 -5 25 -9.5t22 -4.5q15 0 23.5 11t9.5 25h78q-6 -58 -36.5 -95.5t-90.5 -37.5q-20 0 -37.5 5.5t-39.5 15.5
q-4 2 -19.5 8t-27.5 6q-16 0 -24 -11t-10 -26h-78q6 57 37 95.5z" />
    <glyph glyph-name="F" unicode="F" horiz-adv-x="510" 
d="M302 564l-24 -148h261l-19 -121h-262l-48 -295h-157l114 700h454l-22 -136h-297z" />
    <glyph glyph-name="G" unicode="G" horiz-adv-x="717" 
d="M201.5 29q-56.5 38 -83.5 101.5t-27 141.5q0 121 51.5 222.5t140 160.5t193.5 59q119 0 184.5 -66.5t79.5 -173.5h-164q-6 47 -36 75t-85 28q-58 0 -105 -39.5t-74 -108t-27 -152.5q0 -78 35.5 -120t102.5 -42q48 0 84 21t57 54t24 69l2 13h-128l18 111h284l-62 -383
h-115l16 99h-8q-79 -108 -217 -108q-84 0 -140.5 38z" />
    <glyph glyph-name="Gbreve" unicode="&#x11e;" horiz-adv-x="717" 
d="M201.5 29q-56.5 38 -83.5 101.5t-27 141.5q0 121 51.5 222.5t140 160.5t193.5 59q119 0 184.5 -66.5t79.5 -173.5h-164q-6 47 -36 75t-85 28q-58 0 -105 -39.5t-74 -108t-27 -152.5q0 -78 35.5 -120t102.5 -42q48 0 84 21t57 54t24 69l2 13h-128l18 111h284l-62 -383
h-115l16 99h-8q-79 -108 -217 -108q-84 0 -140.5 38zM316 901h124q5 -21 19.5 -33.5t39.5 -12.5t43.5 12.5t30.5 33.5h124q-83 -129 -211 -129q-129 0 -170 129z" />
    <glyph glyph-name="Gdotaccent" unicode="&#x120;" horiz-adv-x="717" 
d="M201.5 29q-56.5 38 -83.5 101.5t-27 141.5q0 121 51.5 222.5t140 160.5t193.5 59q119 0 184.5 -66.5t79.5 -173.5h-164q-6 47 -36 75t-85 28q-58 0 -105 -39.5t-74 -108t-27 -152.5q0 -78 35.5 -120t102.5 -42q48 0 84 21t57 54t24 69l2 13h-128l18 111h284l-62 -383
h-115l16 99h-8q-79 -108 -217 -108q-84 0 -140.5 38zM437.5 808q-19.5 20 -19.5 49q0 40 30 70t70 30q32 0 51.5 -19.5t19.5 -49.5q0 -40 -30.5 -70t-70.5 -30q-31 0 -50.5 20z" />
    <glyph glyph-name="H" unicode="H" horiz-adv-x="680" 
d="M742 700l-114 -700h-157l47 290h-263l-47 -290h-156l113 700h156l-46 -288h263l47 288h157z" />
    <glyph glyph-name="Hbar" unicode="&#x126;" horiz-adv-x="697" 
d="M767 499h-49l-81 -499h-157l47 290h-264l-47 -290h-156l81 499h-48l19 121h49l13 80h156l-13 -80h263l13 80h157l-13 -80h49zM561 499h-264l-14 -87h264z" />
    <glyph glyph-name="I" unicode="I" horiz-adv-x="276" 
d="M173 700h157l-114 -700h-157z" />
    <glyph glyph-name="Iacute" unicode="&#xcd;" horiz-adv-x="276" 
d="M173 700h157l-114 -700h-157zM205 777l133 200h153l-163 -201z" />
    <glyph glyph-name="Icircumflex" unicode="&#xce;" horiz-adv-x="276" 
d="M173 700h157l-114 -700h-157zM233 925h112l121 -163h-141l-50 69h-4l-72 -69h-139z" />
    <glyph glyph-name="Idieresis" unicode="&#xcf;" horiz-adv-x="276" 
d="M173 700h157l-114 -700h-157zM358.5 808q-19.5 20 -19.5 49q0 40 30 70t70 30q32 0 51.5 -19.5t19.5 -49.5q0 -40 -30.5 -70t-70.5 -30q-31 0 -50.5 20zM86.5 808q-19.5 20 -19.5 49q0 40 30 70t70 30q32 0 51.5 -19.5t19.5 -49.5q0 -40 -30.5 -70t-70.5 -30
q-31 0 -50.5 20z" />
    <glyph glyph-name="Idotaccent" unicode="&#x130;" horiz-adv-x="276" 
d="M173 700h157l-114 -700h-157zM214.5 808q-19.5 20 -19.5 49q0 40 30 70t70 30q32 0 51.5 -19.5t19.5 -49.5q0 -40 -30.5 -70t-70.5 -30q-31 0 -50.5 20z" />
    <glyph glyph-name="uni1ECA" unicode="&#x1eca;" horiz-adv-x="276" 
d="M173 700h157l-114 -700h-157zM50 -232.5q-18 18.5 -18 46.5q0 37 28 64.5t65 27.5q30 0 48.5 -18t18.5 -46q0 -37 -28.5 -65t-65.5 -28q-30 0 -48 18.5z" />
    <glyph glyph-name="Igrave" unicode="&#xcc;" horiz-adv-x="276" 
d="M173 700h157l-114 -700h-157zM102 977h153l69 -200l-123 -1z" />
    <glyph glyph-name="uni1EC8" unicode="&#x1ec8;" horiz-adv-x="276" 
d="M173 700h157l-114 -700h-157zM216 792q9 7 19.5 13.5t14.5 9.5q31 18 47 33.5t16 37.5q0 10 -6.5 16t-18.5 6q-15 0 -24.5 -8.5t-12.5 -22.5h-109q8 45 47.5 78.5t110.5 33.5q57 0 87 -24t30 -62q0 -40 -18.5 -62t-49.5 -41q-24 -15 -28 -24h-117q3 9 12 16z" />
    <glyph glyph-name="Imacron" unicode="&#x12a;" horiz-adv-x="276" 
d="M173 700h157l-114 -700h-157zM113 855h327l-11 -70h-327z" />
    <glyph glyph-name="Iogonek" unicode="&#x12e;" horiz-adv-x="276" 
d="M166.5 -90q11.5 -9 34.5 -9q19 0 36 7l-13 -80q-4 -1 -16.5 -3.5t-40.5 -2.5q-57 0 -87 24t-30 62q0 52 45 92h-36l114 700h157l-114 -700q-29 -15 -45 -29.5t-16 -37.5q0 -14 11.5 -23z" />
    <glyph glyph-name="Itilde" unicode="&#x128;" horiz-adv-x="276" 
d="M173 700h157l-114 -700h-157zM132 883.5q31 38.5 91 38.5q19 0 37 -5.5t40 -15.5q12 -5 25 -9.5t22 -4.5q15 0 23.5 11t9.5 25h78q-6 -58 -36.5 -95.5t-90.5 -37.5q-20 0 -37.5 5.5t-39.5 15.5q-4 2 -19.5 8t-27.5 6q-16 0 -24 -11t-10 -26h-78q6 57 37 95.5z" />
    <glyph glyph-name="J" unicode="J" horiz-adv-x="373" 
d="M41 5l17 111q24 -4 44 -4q33 0 51 12.5t24.5 30.5t11.5 47l81 498h155l-89 -546q-9 -56 -51.5 -106.5t-156.5 -50.5q-55 0 -87 8z" />
    <glyph glyph-name="K" unicode="K" horiz-adv-x="663" 
d="M165 700h154l-45 -275h5l279 275h177l-300 -296l186 -404h-175l-124 297l-81 -75l-36 -222h-154z" />
    <glyph glyph-name="L" unicode="L" horiz-adv-x="535" 
d="M525 136l-22 -136h-451l113 700h157l-92 -564h295z" />
    <glyph glyph-name="Lacute" unicode="&#x139;" horiz-adv-x="535" 
d="M525 136l-22 -136h-451l113 700h157l-92 -564h295zM195 777l133 200h153l-163 -201z" />
    <glyph glyph-name="Lcaron" unicode="&#x13d;" horiz-adv-x="535" 
d="M525 136l-22 -136h-451l113 700h157l-92 -564h295zM215 925l49 -69h4l73 69h141l-174 -163h-112l-120 163h139z" />
    <glyph glyph-name="M" unicode="M" horiz-adv-x="845" 
d="M165 700h233l72 -397h2l203 397h232l-114 -700h-153l79 480h-5l-242 -480h-99l-85 480h-5l-78 -480h-153z" />
    <glyph glyph-name="N" unicode="N" horiz-adv-x="698" 
d="M165 700h181l181 -461h3l75 461h155l-114 -701h-183l-181 444h-4l-72 -444h-154z" />
    <glyph glyph-name="Nacute" unicode="&#x143;" horiz-adv-x="698" 
d="M165 700h181l181 -461h3l75 461h155l-114 -701h-183l-181 444h-4l-72 -444h-154zM416 777l133 200h153l-163 -201z" />
    <glyph glyph-name="Ncaron" unicode="&#x147;" horiz-adv-x="698" 
d="M165 700h181l181 -461h3l75 461h155l-114 -701h-183l-181 444h-4l-72 -444h-154zM436 925l49 -69h4l73 69h141l-174 -163h-112l-120 163h139z" />
    <glyph glyph-name="Ntilde" unicode="&#xd1;" horiz-adv-x="698" 
d="M165 700h181l181 -461h3l75 461h155l-114 -701h-183l-181 444h-4l-72 -444h-154zM344 883.5q31 38.5 91 38.5q19 0 37 -5.5t40 -15.5q12 -5 25 -9.5t22 -4.5q15 0 23.5 11t9.5 25h78q-6 -58 -36.5 -95.5t-90.5 -37.5q-20 0 -37.5 5.5t-39.5 15.5q-4 2 -19.5 8t-27.5 6
q-16 0 -24 -11t-10 -26h-78q6 57 37 95.5z" />
    <glyph glyph-name="O" unicode="O" horiz-adv-x="722" 
d="M207.5 27.5q-61.5 36.5 -91 100t-29.5 143.5q0 122 51.5 223.5t141 160.5t196.5 59q89 0 149 -37t90 -101.5t30 -146.5q0 -122 -51 -222.5t-139.5 -158t-195.5 -57.5q-90 0 -151.5 36.5zM479 168q45 38 71.5 103.5t26.5 142.5q0 72 -31 116.5t-93 44.5q-53 0 -98.5 -39
t-72.5 -104.5t-27 -142.5q0 -70 31.5 -114.5t93.5 -44.5q54 0 99 38z" />
    <glyph glyph-name="Oacute" unicode="&#xd3;" horiz-adv-x="722" 
d="M207.5 27.5q-61.5 36.5 -91 100t-29.5 143.5q0 122 51.5 223.5t141 160.5t196.5 59q89 0 149 -37t90 -101.5t30 -146.5q0 -122 -51 -222.5t-139.5 -158t-195.5 -57.5q-90 0 -151.5 36.5zM479 168q45 38 71.5 103.5t26.5 142.5q0 72 -31 116.5t-93 44.5q-53 0 -98.5 -39
t-72.5 -104.5t-27 -142.5q0 -70 31.5 -114.5t93.5 -44.5q54 0 99 38zM427 777l133 200h153l-163 -201z" />
    <glyph glyph-name="Ocircumflex" unicode="&#xd4;" horiz-adv-x="722" 
d="M207.5 27.5q-61.5 36.5 -91 100t-29.5 143.5q0 122 51.5 223.5t141 160.5t196.5 59q89 0 149 -37t90 -101.5t30 -146.5q0 -122 -51 -222.5t-139.5 -158t-195.5 -57.5q-90 0 -151.5 36.5zM479 168q45 38 71.5 103.5t26.5 142.5q0 72 -31 116.5t-93 44.5q-53 0 -98.5 -39
t-72.5 -104.5t-27 -142.5q0 -70 31.5 -114.5t93.5 -44.5q54 0 99 38zM456 925h112l121 -163h-141l-50 69h-4l-72 -69h-139z" />
    <glyph glyph-name="uni1ED0" unicode="&#x1ed0;" horiz-adv-x="722" 
d="M207.5 27.5q-61.5 36.5 -91 100t-29.5 143.5q0 122 51.5 223.5t141 160.5t196.5 59q89 0 149 -37t90 -101.5t30 -146.5q0 -122 -51 -222.5t-139.5 -158t-195.5 -57.5q-90 0 -151.5 36.5zM479 168q45 38 71.5 103.5t26.5 142.5q0 72 -31 116.5t-93 44.5q-53 0 -98.5 -39
t-72.5 -104.5t-27 -142.5q0 -70 31.5 -114.5t93.5 -44.5q54 0 99 38zM455 925h112l121 -163h-141l-50 69h-4l-72 -69h-139zM627 893l133 200h153l-163 -201z" />
    <glyph glyph-name="uni1ED8" unicode="&#x1ed8;" horiz-adv-x="722" 
d="M207.5 27.5q-61.5 36.5 -91 100t-29.5 143.5q0 122 51.5 223.5t141 160.5t196.5 59q89 0 149 -37t90 -101.5t30 -146.5q0 -122 -51 -222.5t-139.5 -158t-195.5 -57.5q-90 0 -151.5 36.5zM479 168q45 38 71.5 103.5t26.5 142.5q0 72 -31 116.5t-93 44.5q-53 0 -98.5 -39
t-72.5 -104.5t-27 -142.5q0 -70 31.5 -114.5t93.5 -44.5q54 0 99 38zM272 -232.5q-18 18.5 -18 46.5q0 37 28 64.5t65 27.5q30 0 48.5 -18t18.5 -46q0 -37 -28.5 -65t-65.5 -28q-30 0 -48 18.5zM456 925h112l121 -163h-141l-50 69h-4l-72 -69h-139z" />
    <glyph glyph-name="uni1ED2" unicode="&#x1ed2;" horiz-adv-x="722" 
d="M207.5 27.5q-61.5 36.5 -91 100t-29.5 143.5q0 122 51.5 223.5t141 160.5t196.5 59q89 0 149 -37t90 -101.5t30 -146.5q0 -122 -51 -222.5t-139.5 -158t-195.5 -57.5q-90 0 -151.5 36.5zM479 168q45 38 71.5 103.5t26.5 142.5q0 72 -31 116.5t-93 44.5q-53 0 -98.5 -39
t-72.5 -104.5t-27 -142.5q0 -70 31.5 -114.5t93.5 -44.5q54 0 99 38zM455 925h112l121 -163h-141l-50 69h-4l-72 -69h-139zM544 1093h153l69 -200l-123 -1z" />
    <glyph glyph-name="uni1ED4" unicode="&#x1ed4;" horiz-adv-x="722" 
d="M207.5 27.5q-61.5 36.5 -91 100t-29.5 143.5q0 122 51.5 223.5t141 160.5t196.5 59q89 0 149 -37t90 -101.5t30 -146.5q0 -122 -51 -222.5t-139.5 -158t-195.5 -57.5q-90 0 -151.5 36.5zM479 168q45 38 71.5 103.5t26.5 142.5q0 72 -31 116.5t-93 44.5q-53 0 -98.5 -39
t-72.5 -104.5t-27 -142.5q0 -70 31.5 -114.5t93.5 -44.5q54 0 99 38zM455 925h112l121 -163h-141l-50 69h-4l-72 -69h-139zM641 920q9 7 19.5 13.5t14.5 9.5q31 18 47 33.5t16 37.5q0 10 -6.5 16t-18.5 6q-15 0 -24.5 -8.5t-12.5 -22.5h-109q8 45 47.5 78.5t110.5 33.5
q57 0 87 -24t30 -62q0 -40 -18.5 -62t-49.5 -41q-24 -15 -28 -24h-117q3 9 12 16z" />
    <glyph glyph-name="uni1ED6" unicode="&#x1ed6;" horiz-adv-x="722" 
d="M207.5 27.5q-61.5 36.5 -91 100t-29.5 143.5q0 122 51.5 223.5t141 160.5t196.5 59q89 0 149 -37t90 -101.5t30 -146.5q0 -122 -51 -222.5t-139.5 -158t-195.5 -57.5q-90 0 -151.5 36.5zM479 168q45 38 71.5 103.5t26.5 142.5q0 72 -31 116.5t-93 44.5q-53 0 -98.5 -39
t-72.5 -104.5t-27 -142.5q0 -70 31.5 -114.5t93.5 -44.5q54 0 99 38zM454 925h112l121 -163h-141l-50 69h-4l-72 -69h-139zM379 1066.5q31 38.5 91 38.5q19 0 37 -5.5t40 -15.5q12 -5 25 -9.5t22 -4.5q15 0 23.5 11t9.5 25h78q-6 -58 -36.5 -95.5t-90.5 -37.5
q-20 0 -37.5 5.5t-39.5 15.5q-4 2 -19.5 8t-27.5 6q-16 0 -24 -11t-10 -26h-78q6 57 37 95.5z" />
    <glyph glyph-name="Odieresis" unicode="&#xd6;" horiz-adv-x="722" 
d="M207.5 27.5q-61.5 36.5 -91 100t-29.5 143.5q0 122 51.5 223.5t141 160.5t196.5 59q89 0 149 -37t90 -101.5t30 -146.5q0 -122 -51 -222.5t-139.5 -158t-195.5 -57.5q-90 0 -151.5 36.5zM479 168q45 38 71.5 103.5t26.5 142.5q0 72 -31 116.5t-93 44.5q-53 0 -98.5 -39
t-72.5 -104.5t-27 -142.5q0 -70 31.5 -114.5t93.5 -44.5q54 0 99 38zM581.5 808q-19.5 20 -19.5 49q0 40 30 70t70 30q32 0 51.5 -19.5t19.5 -49.5q0 -40 -30.5 -70t-70.5 -30q-31 0 -50.5 20zM309.5 808q-19.5 20 -19.5 49q0 40 30 70t70 30q32 0 51.5 -19.5t19.5 -49.5
q0 -40 -30.5 -70t-70.5 -30q-31 0 -50.5 20z" />
    <glyph glyph-name="uni1ECC" unicode="&#x1ecc;" horiz-adv-x="722" 
d="M207.5 27.5q-61.5 36.5 -91 100t-29.5 143.5q0 122 51.5 223.5t141 160.5t196.5 59q89 0 149 -37t90 -101.5t30 -146.5q0 -122 -51 -222.5t-139.5 -158t-195.5 -57.5q-90 0 -151.5 36.5zM479 168q45 38 71.5 103.5t26.5 142.5q0 72 -31 116.5t-93 44.5q-53 0 -98.5 -39
t-72.5 -104.5t-27 -142.5q0 -70 31.5 -114.5t93.5 -44.5q54 0 99 38zM272 -232.5q-18 18.5 -18 46.5q0 37 28 64.5t65 27.5q30 0 48.5 -18t18.5 -46q0 -37 -28.5 -65t-65.5 -28q-30 0 -48 18.5z" />
    <glyph glyph-name="Ograve" unicode="&#xd2;" horiz-adv-x="722" 
d="M207.5 27.5q-61.5 36.5 -91 100t-29.5 143.5q0 122 51.5 223.5t141 160.5t196.5 59q89 0 149 -37t90 -101.5t30 -146.5q0 -122 -51 -222.5t-139.5 -158t-195.5 -57.5q-90 0 -151.5 36.5zM479 168q45 38 71.5 103.5t26.5 142.5q0 72 -31 116.5t-93 44.5q-53 0 -98.5 -39
t-72.5 -104.5t-27 -142.5q0 -70 31.5 -114.5t93.5 -44.5q54 0 99 38zM325 977h153l69 -200l-123 -1z" />
    <glyph glyph-name="uni1ECE" unicode="&#x1ece;" horiz-adv-x="722" 
d="M207.5 27.5q-61.5 36.5 -91 100t-29.5 143.5q0 122 51.5 223.5t141 160.5t196.5 59q89 0 149 -37t90 -101.5t30 -146.5q0 -122 -51 -222.5t-139.5 -158t-195.5 -57.5q-90 0 -151.5 36.5zM479 168q45 38 71.5 103.5t26.5 142.5q0 72 -31 116.5t-93 44.5q-53 0 -98.5 -39
t-72.5 -104.5t-27 -142.5q0 -70 31.5 -114.5t93.5 -44.5q54 0 99 38zM438 792q9 7 19.5 13.5t14.5 9.5q31 18 47 33.5t16 37.5q0 10 -6.5 16t-18.5 6q-15 0 -24.5 -8.5t-12.5 -22.5h-109q8 45 47.5 78.5t110.5 33.5q57 0 87 -24t30 -62q0 -40 -18.5 -62t-49.5 -41
q-24 -15 -28 -24h-117q3 9 12 16z" />
    <glyph glyph-name="Ohorn" unicode="&#x1a0;" horiz-adv-x="722" 
d="M799 810l-10 -61q-9 -52 -40.5 -78t-74.5 -33q35 -38 53 -92t18 -117q0 -122 -51 -222.5t-139.5 -158t-195.5 -57.5q-90 0 -151.5 36.5t-91 100t-29.5 143.5q0 122 51.5 223.5t141 160.5t196.5 59q49 0 94 -13h38q22 0 36 3.5t24.5 18.5t15.5 46l7 41h108zM479 168
q45 38 71.5 103.5t26.5 142.5q0 72 -31 116.5t-93 44.5q-53 0 -98.5 -39t-72.5 -104.5t-27 -142.5q0 -70 31.5 -114.5t93.5 -44.5q54 0 99 38z" />
    <glyph glyph-name="uni1EDA" unicode="&#x1eda;" horiz-adv-x="722" 
d="M799 810l-10 -61q-9 -52 -40.5 -78t-74.5 -33q35 -38 53 -92t18 -117q0 -122 -51 -222.5t-139.5 -158t-195.5 -57.5q-90 0 -151.5 36.5t-91 100t-29.5 143.5q0 122 51.5 223.5t141 160.5t196.5 59q49 0 94 -13h38q22 0 36 3.5t24.5 18.5t15.5 46l7 41h108zM479 168
q45 38 71.5 103.5t26.5 142.5q0 72 -31 116.5t-93 44.5q-53 0 -98.5 -39t-72.5 -104.5t-27 -142.5q0 -70 31.5 -114.5t93.5 -44.5q54 0 99 38zM427 777l133 200h153l-163 -201z" />
    <glyph glyph-name="uni1EE2" unicode="&#x1ee2;" horiz-adv-x="722" 
d="M799 810l-10 -61q-9 -52 -40.5 -78t-74.5 -33q35 -38 53 -92t18 -117q0 -122 -51 -222.5t-139.5 -158t-195.5 -57.5q-90 0 -151.5 36.5t-91 100t-29.5 143.5q0 122 51.5 223.5t141 160.5t196.5 59q49 0 94 -13h38q22 0 36 3.5t24.5 18.5t15.5 46l7 41h108zM479 168
q45 38 71.5 103.5t26.5 142.5q0 72 -31 116.5t-93 44.5q-53 0 -98.5 -39t-72.5 -104.5t-27 -142.5q0 -70 31.5 -114.5t93.5 -44.5q54 0 99 38zM272 -232.5q-18 18.5 -18 46.5q0 37 28 64.5t65 27.5q30 0 48.5 -18t18.5 -46q0 -37 -28.5 -65t-65.5 -28q-30 0 -48 18.5z" />
    <glyph glyph-name="uni1EDC" unicode="&#x1edc;" horiz-adv-x="722" 
d="M799 810l-10 -61q-9 -52 -40.5 -78t-74.5 -33q35 -38 53 -92t18 -117q0 -122 -51 -222.5t-139.5 -158t-195.5 -57.5q-90 0 -151.5 36.5t-91 100t-29.5 143.5q0 122 51.5 223.5t141 160.5t196.5 59q49 0 94 -13h38q22 0 36 3.5t24.5 18.5t15.5 46l7 41h108zM479 168
q45 38 71.5 103.5t26.5 142.5q0 72 -31 116.5t-93 44.5q-53 0 -98.5 -39t-72.5 -104.5t-27 -142.5q0 -70 31.5 -114.5t93.5 -44.5q54 0 99 38zM325 977h153l69 -200l-123 -1z" />
    <glyph glyph-name="uni1EDE" unicode="&#x1ede;" horiz-adv-x="722" 
d="M799 810l-10 -61q-9 -52 -40.5 -78t-74.5 -33q35 -38 53 -92t18 -117q0 -122 -51 -222.5t-139.5 -158t-195.5 -57.5q-90 0 -151.5 36.5t-91 100t-29.5 143.5q0 122 51.5 223.5t141 160.5t196.5 59q49 0 94 -13h38q22 0 36 3.5t24.5 18.5t15.5 46l7 41h108zM479 168
q45 38 71.5 103.5t26.5 142.5q0 72 -31 116.5t-93 44.5q-53 0 -98.5 -39t-72.5 -104.5t-27 -142.5q0 -70 31.5 -114.5t93.5 -44.5q54 0 99 38zM438 792q9 7 19.5 13.5t14.5 9.5q31 18 47 33.5t16 37.5q0 10 -6.5 16t-18.5 6q-15 0 -24.5 -8.5t-12.5 -22.5h-109
q8 45 47.5 78.5t110.5 33.5q57 0 87 -24t30 -62q0 -40 -18.5 -62t-49.5 -41q-24 -15 -28 -24h-117q3 9 12 16z" />
    <glyph glyph-name="uni1EE0" unicode="&#x1ee0;" horiz-adv-x="722" 
d="M799 810l-10 -61q-9 -52 -40.5 -78t-74.5 -33q35 -38 53 -92t18 -117q0 -122 -51 -222.5t-139.5 -158t-195.5 -57.5q-90 0 -151.5 36.5t-91 100t-29.5 143.5q0 122 51.5 223.5t141 160.5t196.5 59q49 0 94 -13h38q22 0 36 3.5t24.5 18.5t15.5 46l7 41h108zM479 168
q45 38 71.5 103.5t26.5 142.5q0 72 -31 116.5t-93 44.5q-53 0 -98.5 -39t-72.5 -104.5t-27 -142.5q0 -70 31.5 -114.5t93.5 -44.5q54 0 99 38zM355 883.5q31 38.5 91 38.5q19 0 37 -5.5t40 -15.5q12 -5 25 -9.5t22 -4.5q15 0 23.5 11t9.5 25h78q-6 -58 -36.5 -95.5
t-90.5 -37.5q-20 0 -37.5 5.5t-39.5 15.5q-4 2 -19.5 8t-27.5 6q-16 0 -24 -11t-10 -26h-78q6 57 37 95.5z" />
    <glyph glyph-name="Omacron" unicode="&#x14c;" horiz-adv-x="722" 
d="M207.5 27.5q-61.5 36.5 -91 100t-29.5 143.5q0 122 51.5 223.5t141 160.5t196.5 59q89 0 149 -37t90 -101.5t30 -146.5q0 -122 -51 -222.5t-139.5 -158t-195.5 -57.5q-90 0 -151.5 36.5zM479 168q45 38 71.5 103.5t26.5 142.5q0 72 -31 116.5t-93 44.5q-53 0 -98.5 -39
t-72.5 -104.5t-27 -142.5q0 -70 31.5 -114.5t93.5 -44.5q54 0 99 38zM335 855h327l-11 -70h-327z" />
    <glyph glyph-name="Oslash" unicode="&#xd8;" horiz-adv-x="742" 
d="M705 610q50 -72 50 -181q0 -122 -51 -222.5t-139.5 -158t-195.5 -57.5q-81 0 -137 29l-51 -63h-141l108 134q-51 71 -51 180q0 122 51.5 223.5t141 160.5t196.5 59q79 0 137 -30l48 59h141zM269 242l255 318q-25 15 -61 15q-54 0 -99.5 -39t-72 -104.5t-26.5 -142.5
q0 -27 4 -47zM584 458l-253 -314q25 -14 59 -14q54 0 99 38t71.5 103.5t26.5 142.5q0 23 -3 44z" />
    <glyph glyph-name="Otilde" unicode="&#xd5;" horiz-adv-x="722" 
d="M207.5 27.5q-61.5 36.5 -91 100t-29.5 143.5q0 122 51.5 223.5t141 160.5t196.5 59q89 0 149 -37t90 -101.5t30 -146.5q0 -122 -51 -222.5t-139.5 -158t-195.5 -57.5q-90 0 -151.5 36.5zM479 168q45 38 71.5 103.5t26.5 142.5q0 72 -31 116.5t-93 44.5q-53 0 -98.5 -39
t-72.5 -104.5t-27 -142.5q0 -70 31.5 -114.5t93.5 -44.5q54 0 99 38zM355 883.5q31 38.5 91 38.5q19 0 37 -5.5t40 -15.5q12 -5 25 -9.5t22 -4.5q15 0 23.5 11t9.5 25h78q-6 -58 -36.5 -95.5t-90.5 -37.5q-20 0 -37.5 5.5t-39.5 15.5q-4 2 -19.5 8t-27.5 6q-16 0 -24 -11
t-10 -26h-78q6 57 37 95.5z" />
    <glyph glyph-name="OE" unicode="&#x152;" horiz-adv-x="972" 
d="M154 75q-69 75 -69 198q0 120 51 217.5t139.5 153.5t196.5 56h573l-23 -136h-316l-25 -149h266l-19 -121h-266l-26 -158h316l-21 -136h-573q-135 0 -204 75zM480 140l69 423h-100q-54 0 -99 -36t-71 -98.5t-26 -137.5q0 -68 32 -109.5t95 -41.5h100z" />
    <glyph glyph-name="P" unicode="P" horiz-adv-x="586" 
d="M595 643.5q55 -56.5 55 -142.5q0 -80 -37.5 -145t-105 -102.5t-154.5 -37.5h-113l-35 -216h-153l113 700h266q109 0 164 -56.5zM457 380.5q40 36.5 40 98.5q0 46 -31.5 65t-80.5 19h-88l-36 -219h88q68 0 108 36.5z" />
    <glyph glyph-name="Thorn" unicode="&#xde;" horiz-adv-x="605" 
d="M577.5 535.5q55.5 -56.5 55.5 -142.5q0 -79 -38 -144t-105.5 -103t-154.5 -38h-112l-18 -108h-153l113 700h154l-18 -108h113q108 0 163.5 -56.5zM439 273.5q40 36.5 40 98.5q0 46 -31.5 65t-80.5 19h-88l-35 -219h87q68 0 108 36.5z" />
    <glyph glyph-name="Q" unicode="Q" horiz-adv-x="718" 
d="M703.5 226q-41.5 -93 -114.5 -153l66 -114h-135l-32 56q-60 -24 -129 -24q-90 0 -151.5 36.5t-91 100t-29.5 143.5q0 122 51.5 223.5t141 160.5t196.5 59q89 0 149 -37t90 -101.5t30 -146.5q0 -110 -41.5 -203zM418 135l-83 143h135l43 -74q30 40 47 94.5t17 115.5
q0 72 -31 116.5t-93 44.5q-53 0 -98.5 -39t-72.5 -104.5t-27 -142.5q0 -70 31.5 -114.5t93.5 -44.5q18 0 38 5z" />
    <glyph glyph-name="R" unicode="R" horiz-adv-x="608" 
d="M606 362q-46 -65 -125 -95l107 -267h-163l-97 245h-81l-40 -245h-155l113 700h266q110 0 165.5 -53.5t55.5 -136.5t-46 -148zM268 372h85q67 0 106.5 31.5t39.5 84.5q0 41 -32 58.5t-82 17.5h-86z" />
    <glyph glyph-name="Racute" unicode="&#x154;" horiz-adv-x="608" 
d="M606 362q-46 -65 -125 -95l107 -267h-163l-97 245h-81l-40 -245h-155l113 700h266q110 0 165.5 -53.5t55.5 -136.5t-46 -148zM268 372h85q67 0 106.5 31.5t39.5 84.5q0 41 -32 58.5t-82 17.5h-86zM361 777l133 200h153l-163 -201z" />
    <glyph glyph-name="Rcaron" unicode="&#x158;" horiz-adv-x="608" 
d="M606 362q-46 -65 -125 -95l107 -267h-163l-97 245h-81l-40 -245h-155l113 700h266q110 0 165.5 -53.5t55.5 -136.5t-46 -148zM268 372h85q67 0 106.5 31.5t39.5 84.5q0 41 -32 58.5t-82 17.5h-86zM381 925l49 -69h4l73 69h141l-174 -163h-112l-120 163h139z" />
    <glyph glyph-name="S" unicode="S" horiz-adv-x="605" 
d="M177 20q-53 29 -78.5 76.5t-25.5 103.5q0 15 1 22l1 8h169v-7q0 -39 20.5 -67.5t69.5 -28.5q46 0 77.5 26.5t31.5 65.5q0 27 -19.5 43.5t-47.5 22.5l-77 16q-59 13 -110.5 50t-51.5 118q0 70 36.5 126t101 87.5t145.5 31.5q80 0 132 -30.5t76 -79.5t24 -105v-5h-177v3
q0 34 -17 60.5t-65 26.5q-41 0 -69 -25.5t-28 -63.5q0 -49 74 -65l78 -18q68 -16 114.5 -55.5t46.5 -110.5t-39.5 -129.5t-108.5 -92t-152 -33.5q-79 0 -132 29z" />
    <glyph glyph-name="Sacute" unicode="&#x15a;" horiz-adv-x="605" 
d="M177 20q-53 29 -78.5 76.5t-25.5 103.5q0 15 1 22l1 8h169v-7q0 -39 20.5 -67.5t69.5 -28.5q46 0 77.5 26.5t31.5 65.5q0 27 -19.5 43.5t-47.5 22.5l-77 16q-59 13 -110.5 50t-51.5 118q0 70 36.5 126t101 87.5t145.5 31.5q80 0 132 -30.5t76 -79.5t24 -105v-5h-177v3
q0 34 -17 60.5t-65 26.5q-41 0 -69 -25.5t-28 -63.5q0 -49 74 -65l78 -18q68 -16 114.5 -55.5t46.5 -110.5t-39.5 -129.5t-108.5 -92t-152 -33.5q-79 0 -132 29zM408 776l133 200h153l-163 -201z" />
    <glyph glyph-name="Scaron" unicode="&#x160;" horiz-adv-x="605" 
d="M177 20q-53 29 -78.5 76.5t-25.5 103.5q0 15 1 22l1 8h169v-7q0 -39 20.5 -67.5t69.5 -28.5q46 0 77.5 26.5t31.5 65.5q0 27 -19.5 43.5t-47.5 22.5l-77 16q-59 13 -110.5 50t-51.5 118q0 70 36.5 126t101 87.5t145.5 31.5q80 0 132 -30.5t76 -79.5t24 -105v-5h-177v3
q0 34 -17 60.5t-65 26.5q-41 0 -69 -25.5t-28 -63.5q0 -49 74 -65l78 -18q68 -16 114.5 -55.5t46.5 -110.5t-39.5 -129.5t-108.5 -92t-152 -33.5q-79 0 -132 29zM428 924l49 -69h4l73 69h141l-174 -163h-112l-120 163h139z" />
    <glyph glyph-name="Scedilla" unicode="&#x15e;" horiz-adv-x="605" 
d="M475 494v3q0 34 -17 60.5t-65 26.5q-41 0 -69 -25.5t-28 -63.5q0 -49 74 -65l78 -18q68 -16 114.5 -55.5t46.5 -110.5q0 -66 -35 -122t-96 -91t-137 -41l-15 -31h12q43 0 65 -22.5t22 -57.5q0 -36 -19 -65.5t-51.5 -47t-72.5 -17.5q-44 0 -71 16l13 74q37 -10 69 -10
q29 0 45 11.5t16 30.5q0 12 -10 18t-25 6h-92l1 3l38 93q-96 12 -144.5 70.5t-48.5 137.5q0 14 1 21l1 8h169v-7q0 -39 20.5 -67.5t69.5 -28.5q46 0 77.5 26.5t31.5 65.5q0 27 -19.5 43.5t-47.5 22.5l-77 16q-59 13 -110.5 50t-51.5 118q0 70 36.5 126t101 87.5t145.5 31.5
q80 0 132 -30.5t76 -79.5t24 -105v-5h-177z" />
    <glyph glyph-name="T" unicode="T" horiz-adv-x="594" 
d="M651 564h-185l-92 -564h-155l92 564h-184l22 136h523z" />
    <glyph glyph-name="Tbar" unicode="&#x166;" horiz-adv-x="593" 
d="M466 564l-26 -157h145l-16 -101h-145l-50 -306h-155l50 306h-144l16 101h144l26 157h-184l22 136h523l-21 -136h-185z" />
    <glyph glyph-name="Tcaron" unicode="&#x164;" horiz-adv-x="594" 
d="M651 564h-185l-92 -564h-155l92 564h-184l22 136h523zM383 925l49 -69h4l73 69h141l-174 -163h-112l-120 163h139z" />
    <glyph glyph-name="uni0162" unicode="&#x162;" horiz-adv-x="594" 
d="M651 564h-185l-92 -564h-155l92 564h-184l22 136h523zM309 -157.5q16 11.5 16 30.5q0 12 -10 18t-25 6h-92l1 3l41 100h76l-19 -39h12q43 0 65 -22.5t22 -57.5q0 -36 -19 -65.5t-51.5 -47t-72.5 -17.5q-44 0 -71 16l13 74q37 -10 69 -10q29 0 45 11.5z" />
    <glyph glyph-name="U" unicode="U" horiz-adv-x="685" 
d="M162 46.5q-68 56.5 -68 179.5q0 39 7 80l65 394h155l-63 -383q-5 -33 -5 -58q0 -120 112 -120q74 0 112.5 49t51.5 129l63 383h155l-65 -394q-27 -165 -120 -240.5t-221 -75.5q-111 0 -179 56.5z" />
    <glyph glyph-name="Uacute" unicode="&#xda;" horiz-adv-x="685" 
d="M162 46.5q-68 56.5 -68 179.5q0 39 7 80l65 394h155l-63 -383q-5 -33 -5 -58q0 -120 112 -120q74 0 112.5 49t51.5 129l63 383h155l-65 -394q-27 -165 -120 -240.5t-221 -75.5q-111 0 -179 56.5zM409 777l133 200h153l-163 -201z" />
    <glyph glyph-name="Ucircumflex" unicode="&#xdb;" horiz-adv-x="685" 
d="M162 46.5q-68 56.5 -68 179.5q0 39 7 80l65 394h155l-63 -383q-5 -33 -5 -58q0 -120 112 -120q74 0 112.5 49t51.5 129l63 383h155l-65 -394q-27 -165 -120 -240.5t-221 -75.5q-111 0 -179 56.5zM438 925h112l121 -163h-141l-50 69h-4l-72 -69h-139z" />
    <glyph glyph-name="Udieresis" unicode="&#xdc;" horiz-adv-x="685" 
d="M162 46.5q-68 56.5 -68 179.5q0 39 7 80l65 394h155l-63 -383q-5 -33 -5 -58q0 -120 112 -120q74 0 112.5 49t51.5 129l63 383h155l-65 -394q-27 -165 -120 -240.5t-221 -75.5q-111 0 -179 56.5zM563.5 808q-19.5 20 -19.5 49q0 40 30 70t70 30q32 0 51.5 -19.5
t19.5 -49.5q0 -40 -30.5 -70t-70.5 -30q-31 0 -50.5 20zM291.5 808q-19.5 20 -19.5 49q0 40 30 70t70 30q32 0 51.5 -19.5t19.5 -49.5q0 -40 -30.5 -70t-70.5 -30q-31 0 -50.5 20z" />
    <glyph glyph-name="uni1EE4" unicode="&#x1ee4;" horiz-adv-x="685" 
d="M162 46.5q-68 56.5 -68 179.5q0 39 7 80l65 394h155l-63 -383q-5 -33 -5 -58q0 -120 112 -120q74 0 112.5 49t51.5 129l63 383h155l-65 -394q-27 -165 -120 -240.5t-221 -75.5q-111 0 -179 56.5zM254 -232.5q-18 18.5 -18 46.5q0 37 28 64.5t65 27.5q30 0 48.5 -18
t18.5 -46q0 -37 -28.5 -65t-65.5 -28q-30 0 -48 18.5z" />
    <glyph glyph-name="Ugrave" unicode="&#xd9;" horiz-adv-x="685" 
d="M162 46.5q-68 56.5 -68 179.5q0 39 7 80l65 394h155l-63 -383q-5 -33 -5 -58q0 -120 112 -120q74 0 112.5 49t51.5 129l63 383h155l-65 -394q-27 -165 -120 -240.5t-221 -75.5q-111 0 -179 56.5zM307 977h153l69 -200l-123 -1z" />
    <glyph glyph-name="uni1EE6" unicode="&#x1ee6;" horiz-adv-x="685" 
d="M162 46.5q-68 56.5 -68 179.5q0 39 7 80l65 394h155l-63 -383q-5 -33 -5 -58q0 -120 112 -120q74 0 112.5 49t51.5 129l63 383h155l-65 -394q-27 -165 -120 -240.5t-221 -75.5q-111 0 -179 56.5zM420 792q9 7 19.5 13.5t14.5 9.5q31 18 47 33.5t16 37.5q0 10 -6.5 16
t-18.5 6q-15 0 -24.5 -8.5t-12.5 -22.5h-109q8 45 47.5 78.5t110.5 33.5q57 0 87 -24t30 -62q0 -40 -18.5 -62t-49.5 -41q-24 -15 -28 -24h-117q3 9 12 16z" />
    <glyph glyph-name="Uhorn" unicode="&#x1af;" horiz-adv-x="685" 
d="M879 810l-10 -61q-17 -101 -133 -114l-54 -329q-27 -165 -120 -240.5t-221 -75.5q-111 0 -179 56.5t-68 179.5q0 39 7 80l65 394h155l-63 -383q-5 -33 -5 -58q0 -120 112 -120q74 0 112.5 49t51.5 129l63 383h54v1h42q22 0 36 3.5t24.5 18.5t15.5 46l7 41h108z" />
    <glyph glyph-name="uni1EE8" unicode="&#x1ee8;" horiz-adv-x="685" 
d="M879 810l-10 -61q-17 -101 -133 -114l-54 -329q-27 -165 -120 -240.5t-221 -75.5q-111 0 -179 56.5t-68 179.5q0 39 7 80l65 394h155l-63 -383q-5 -33 -5 -58q0 -120 112 -120q74 0 112.5 49t51.5 129l63 383h54v1h42q22 0 36 3.5t24.5 18.5t15.5 46l7 41h108zM409 777
l133 200h153l-163 -201z" />
    <glyph glyph-name="uni1EF0" unicode="&#x1ef0;" horiz-adv-x="685" 
d="M879 810l-10 -61q-17 -101 -133 -114l-54 -329q-27 -165 -120 -240.5t-221 -75.5q-111 0 -179 56.5t-68 179.5q0 39 7 80l65 394h155l-63 -383q-5 -33 -5 -58q0 -120 112 -120q74 0 112.5 49t51.5 129l63 383h54v1h42q22 0 36 3.5t24.5 18.5t15.5 46l7 41h108z
M254 -232.5q-18 18.5 -18 46.5q0 37 28 64.5t65 27.5q30 0 48.5 -18t18.5 -46q0 -37 -28.5 -65t-65.5 -28q-30 0 -48 18.5z" />
    <glyph glyph-name="uni1EEA" unicode="&#x1eea;" horiz-adv-x="685" 
d="M879 810l-10 -61q-17 -101 -133 -114l-54 -329q-27 -165 -120 -240.5t-221 -75.5q-111 0 -179 56.5t-68 179.5q0 39 7 80l65 394h155l-63 -383q-5 -33 -5 -58q0 -120 112 -120q74 0 112.5 49t51.5 129l63 383h54v1h42q22 0 36 3.5t24.5 18.5t15.5 46l7 41h108zM307 977
h153l69 -200l-123 -1z" />
    <glyph glyph-name="uni1EEC" unicode="&#x1eec;" horiz-adv-x="685" 
d="M879 810l-10 -61q-17 -101 -133 -114l-54 -329q-27 -165 -120 -240.5t-221 -75.5q-111 0 -179 56.5t-68 179.5q0 39 7 80l65 394h155l-63 -383q-5 -33 -5 -58q0 -120 112 -120q74 0 112.5 49t51.5 129l63 383h54v1h42q22 0 36 3.5t24.5 18.5t15.5 46l7 41h108zM420 792
q9 7 19.5 13.5t14.5 9.5q31 18 47 33.5t16 37.5q0 10 -6.5 16t-18.5 6q-15 0 -24.5 -8.5t-12.5 -22.5h-109q8 45 47.5 78.5t110.5 33.5q57 0 87 -24t30 -62q0 -40 -18.5 -62t-49.5 -41q-24 -15 -28 -24h-117q3 9 12 16z" />
    <glyph glyph-name="uni1EEE" unicode="&#x1eee;" horiz-adv-x="685" 
d="M879 810l-10 -61q-17 -101 -133 -114l-54 -329q-27 -165 -120 -240.5t-221 -75.5q-111 0 -179 56.5t-68 179.5q0 39 7 80l65 394h155l-63 -383q-5 -33 -5 -58q0 -120 112 -120q74 0 112.5 49t51.5 129l63 383h54v1h42q22 0 36 3.5t24.5 18.5t15.5 46l7 41h108zM337 883.5
q31 38.5 91 38.5q19 0 37 -5.5t40 -15.5q12 -5 25 -9.5t22 -4.5q15 0 23.5 11t9.5 25h78q-6 -58 -36.5 -95.5t-90.5 -37.5q-20 0 -37.5 5.5t-39.5 15.5q-4 2 -19.5 8t-27.5 6q-16 0 -24 -11t-10 -26h-78q6 57 37 95.5z" />
    <glyph glyph-name="Umacron" unicode="&#x16a;" horiz-adv-x="685" 
d="M162 46.5q-68 56.5 -68 179.5q0 39 7 80l65 394h155l-63 -383q-5 -33 -5 -58q0 -120 112 -120q74 0 112.5 49t51.5 129l63 383h155l-65 -394q-27 -165 -120 -240.5t-221 -75.5q-111 0 -179 56.5zM317 855h327l-11 -70h-327z" />
    <glyph glyph-name="Uogonek" unicode="&#x172;" horiz-adv-x="685" 
d="M747 700l-65 -394q-23 -142 -97 -218t-179 -93q-28 -15 -43.5 -29.5t-15.5 -36.5q0 -14 11.5 -23t34.5 -9q19 0 36 7l-13 -80q-4 -1 -16.5 -3.5t-40.5 -2.5q-57 0 -87 24t-30 62q0 50 42 90q-87 13 -138.5 70t-51.5 162q0 39 7 80l65 394h155l-63 -383q-5 -33 -5 -58
q0 -120 112 -120q74 0 112.5 49t51.5 129l63 383h155z" />
    <glyph glyph-name="Uring" unicode="&#x16e;" horiz-adv-x="685" 
d="M162 46.5q-68 56.5 -68 179.5q0 39 7 80l65 394h155l-63 -383q-5 -33 -5 -58q0 -120 112 -120q74 0 112.5 49t51.5 129l63 383h155l-65 -394q-27 -165 -120 -240.5t-221 -75.5q-111 0 -179 56.5zM405 793q-25 25 -25 62q0 30 17 57.5t45 44.5t59 17q38 0 63 -25t25 -62
q0 -30 -17 -57.5t-45.5 -44.5t-58.5 -17q-38 0 -63 25zM510.5 845q14.5 14 14.5 33q0 14 -10 23.5t-24 9.5q-19 0 -33 -14t-14 -33q0 -14 9.5 -23.5t24.5 -9.5q18 0 32.5 14z" />
    <glyph glyph-name="Utilde" unicode="&#x168;" horiz-adv-x="685" 
d="M162 46.5q-68 56.5 -68 179.5q0 39 7 80l65 394h155l-63 -383q-5 -33 -5 -58q0 -120 112 -120q74 0 112.5 49t51.5 129l63 383h155l-65 -394q-27 -165 -120 -240.5t-221 -75.5q-111 0 -179 56.5zM337 883.5q31 38.5 91 38.5q19 0 37 -5.5t40 -15.5q12 -5 25 -9.5t22 -4.5
q15 0 23.5 11t9.5 25h78q-6 -58 -36.5 -95.5t-90.5 -37.5q-20 0 -37.5 5.5t-39.5 15.5q-4 2 -19.5 8t-27.5 6q-16 0 -24 -11t-10 -26h-78q6 57 37 95.5z" />
    <glyph glyph-name="V" unicode="V" horiz-adv-x="664" 
d="M123 700h156l78 -533h6l251 533h155l-337 -701h-199z" />
    <glyph glyph-name="W" unicode="W" horiz-adv-x="997" 
d="M124 700h155l29 -494h6l229 494h137l67 -494h6l192 494h156l-292 -701h-184l-55 420h-6l-193 -420h-184z" />
    <glyph glyph-name="Wacute" unicode="&#x1e82;" horiz-adv-x="997" 
d="M124 700h155l29 -494h6l229 494h137l67 -494h6l192 494h156l-292 -701h-184l-55 420h-6l-193 -420h-184zM565 777l133 200h153l-163 -201z" />
    <glyph glyph-name="Wcircumflex" unicode="&#x174;" horiz-adv-x="997" 
d="M124 700h155l29 -494h6l229 494h137l67 -494h6l192 494h156l-292 -701h-184l-55 420h-6l-193 -420h-184zM594 925h112l121 -163h-141l-50 69h-4l-72 -69h-139z" />
    <glyph glyph-name="Wdieresis" unicode="&#x1e84;" horiz-adv-x="997" 
d="M124 700h155l29 -494h6l229 494h137l67 -494h6l192 494h156l-292 -701h-184l-55 420h-6l-193 -420h-184zM718.5 808q-19.5 20 -19.5 49q0 40 30 70t70 30q32 0 51.5 -19.5t19.5 -49.5q0 -40 -30.5 -70t-70.5 -30q-31 0 -50.5 20zM446.5 808q-19.5 20 -19.5 49q0 40 30 70
t70 30q32 0 51.5 -19.5t19.5 -49.5q0 -40 -30.5 -70t-70.5 -30q-31 0 -50.5 20z" />
    <glyph glyph-name="Wgrave" unicode="&#x1e80;" horiz-adv-x="997" 
d="M124 700h155l29 -494h6l229 494h137l67 -494h6l192 494h156l-292 -701h-184l-55 420h-6l-193 -420h-184zM462 977h153l69 -200l-123 -1z" />
    <glyph glyph-name="X" unicode="X" horiz-adv-x="681" 
d="M306 350l-168 350h169l107 -240h6l185 240h170l-285 -350l172 -350h-170l-108 241h-6l-184 -241h-171z" />
    <glyph glyph-name="Y" unicode="Y" horiz-adv-x="653" 
d="M252 0l39 239l-155 461h162l92 -305h6l192 305h163l-305 -461l-39 -239h-155z" />
    <glyph glyph-name="Yacute" unicode="&#xdd;" horiz-adv-x="653" 
d="M252 0l39 239l-155 461h162l92 -305h6l192 305h163l-305 -461l-39 -239h-155zM394 777l133 200h153l-163 -201z" />
    <glyph glyph-name="Ycircumflex" unicode="&#x176;" horiz-adv-x="653" 
d="M252 0l39 239l-155 461h162l92 -305h6l192 305h163l-305 -461l-39 -239h-155zM423 925h112l121 -163h-141l-50 69h-4l-72 -69h-139z" />
    <glyph glyph-name="Ydieresis" unicode="&#x178;" horiz-adv-x="653" 
d="M252 0l39 239l-155 461h162l92 -305h6l192 305h163l-305 -461l-39 -239h-155zM548.5 808q-19.5 20 -19.5 49q0 40 30 70t70 30q32 0 51.5 -19.5t19.5 -49.5q0 -40 -30.5 -70t-70.5 -30q-31 0 -50.5 20zM276.5 808q-19.5 20 -19.5 49q0 40 30 70t70 30q32 0 51.5 -19.5
t19.5 -49.5q0 -40 -30.5 -70t-70.5 -30q-31 0 -50.5 20z" />
    <glyph glyph-name="uni1EF4" unicode="&#x1ef4;" horiz-adv-x="653" 
d="M252 0l39 239l-155 461h162l92 -305h6l192 305h163l-305 -461l-39 -239h-155zM239 -232.5q-18 18.5 -18 46.5q0 37 28 64.5t65 27.5q30 0 48.5 -18t18.5 -46q0 -37 -28.5 -65t-65.5 -28q-30 0 -48 18.5z" />
    <glyph glyph-name="Ygrave" unicode="&#x1ef2;" horiz-adv-x="653" 
d="M252 0l39 239l-155 461h162l92 -305h6l192 305h163l-305 -461l-39 -239h-155zM292 977h153l69 -200l-123 -1z" />
    <glyph glyph-name="uni1EF6" unicode="&#x1ef6;" horiz-adv-x="653" 
d="M252 0l39 239l-155 461h162l92 -305h6l192 305h163l-305 -461l-39 -239h-155zM405 792q9 7 19.5 13.5t14.5 9.5q31 18 47 33.5t16 37.5q0 10 -6.5 16t-18.5 6q-15 0 -24.5 -8.5t-12.5 -22.5h-109q8 45 47.5 78.5t110.5 33.5q57 0 87 -24t30 -62q0 -40 -18.5 -62
t-49.5 -41q-24 -15 -28 -24h-117q3 9 12 16z" />
    <glyph glyph-name="uni1EF8" unicode="&#x1ef8;" horiz-adv-x="653" 
d="M252 0l39 239l-155 461h162l92 -305h6l192 305h163l-305 -461l-39 -239h-155zM322 883.5q31 38.5 91 38.5q19 0 37 -5.5t40 -15.5q12 -5 25 -9.5t22 -4.5q15 0 23.5 11t9.5 25h78q-6 -58 -36.5 -95.5t-90.5 -37.5q-20 0 -37.5 5.5t-39.5 15.5q-4 2 -19.5 8t-27.5 6
q-16 0 -24 -11t-10 -26h-78q6 57 37 95.5z" />
    <glyph glyph-name="Z" unicode="Z" horiz-adv-x="629" 
d="M66 141l417 417v2h-348l22 140h533l-22 -140l-419 -417v-2h350l-23 -141h-533z" />
    <glyph glyph-name="Zacute" unicode="&#x179;" horiz-adv-x="629" 
d="M66 141l417 417v2h-348l22 140h533l-22 -140l-419 -417v-2h350l-23 -141h-533zM382 777l133 200h153l-163 -201z" />
    <glyph glyph-name="Zcaron" unicode="&#x17d;" horiz-adv-x="629" 
d="M66 141l417 417v2h-348l22 140h533l-22 -140l-419 -417v-2h350l-23 -141h-533zM401 925l49 -69h4l73 69h141l-174 -163h-112l-120 163h139z" />
    <glyph glyph-name="Zdotaccent" unicode="&#x17b;" horiz-adv-x="629" 
d="M66 141l417 417v2h-348l22 140h533l-22 -140l-419 -417v-2h350l-23 -141h-533zM390.5 808q-19.5 20 -19.5 49q0 40 30 70t70 30q32 0 51.5 -19.5t19.5 -49.5q0 -40 -30.5 -70t-70.5 -30q-31 0 -50.5 20z" />
    <glyph glyph-name="B.ss01" horiz-adv-x="616" 
d="M165 700h313q79 0 117.5 -33t38.5 -89q0 -8 -2 -28l-7 -43q-9 -55 -44.5 -88t-71.5 -42l-1 -7q40 -6 76.5 -36.5t36.5 -84.5q0 -17 -2 -26l-8 -44q-8 -46 -37 -87t-79.5 -67t-119.5 -26h-323zM388 415q41 0 64.5 19.5t27.5 47.5l5 28q1 4 1 13q0 24 -15.5 39.5
t-52.5 15.5h-118l-28 -163h116zM371 123q48 0 73 22t30 53l5 32q1 5 1 14q0 26 -18 43t-59 17h-148l-30 -181h146z" />
    <glyph glyph-name="C.ss01" horiz-adv-x="678" 
d="M200.5 23q-57.5 32 -88 89.5t-30.5 133.5q0 33 6 69l12 76q15 93 64 166.5t124 115t167 41.5q126 0 192 -71.5t68 -186.5h-155q-1 53 -31 89.5t-91 36.5q-74 0 -121 -52t-62 -144l-11 -67q-5 -33 -5 -56q0 -66 30.5 -102.5t93.5 -36.5q60 0 99.5 34t59.5 84h155
q-39 -111 -127 -181t-211 -70q-81 0 -138.5 32z" />
    <glyph glyph-name="D.ss01" horiz-adv-x="654" 
d="M165 702l261 -2q129 -1 195.5 -69.5t66.5 -178.5q0 -36 -5 -64l-12 -73q-15 -89 -62.5 -160.5t-123.5 -113t-172 -41.5h-261zM334 137q76 0 122.5 49t60.5 132l11 66q4 21 4 47q0 62 -32 97.5t-95 35.5h-110l-70 -427h109z" />
    <glyph glyph-name="Eth.ss01" horiz-adv-x="684" 
d="M651 630q67 -68 67 -179q0 -26 -5 -63l-12 -73q-15 -89 -62.5 -160.5t-123.5 -112.5t-172 -41h-262l50 305h-49l17 104h49l47 291l261 -2q128 -1 195 -69zM562 431q0 62 -32 97.5t-96 35.5h-110l-25 -154h93l-16 -104h-94l-28 -168h110q76 0 122.5 49t60.5 131l11 66
q4 21 4 47z" />
    <glyph glyph-name="Dcaron.ss01" horiz-adv-x="654" 
d="M165 702l261 -2q129 -1 195.5 -69.5t66.5 -178.5q0 -36 -5 -64l-12 -73q-15 -89 -62.5 -160.5t-123.5 -113t-172 -41.5h-261zM334 137q76 0 122.5 49t60.5 132l11 66q4 21 4 47q0 62 -32 97.5t-95 35.5h-110l-70 -427h109zM387 926l49 -69h4l73 69h141l-174 -163h-112
l-120 163h139z" />
    <glyph glyph-name="Dcroat.ss01" horiz-adv-x="684" 
d="M651 630q67 -68 67 -179q0 -26 -5 -63l-12 -73q-15 -89 -62.5 -160.5t-123.5 -112.5t-172 -41h-262l50 305h-49l17 104h49l47 291l261 -2q128 -1 195 -69zM562 431q0 62 -32 97.5t-96 35.5h-110l-25 -154h93l-16 -104h-94l-28 -168h110q76 0 122.5 49t60.5 131l11 66
q4 21 4 47z" />
    <glyph glyph-name="G.ss01" horiz-adv-x="699" 
d="M150 59.5q-64 68.5 -64 183.5q0 35 6 72l12 76q15 93 64 166.5t125 115t168 41.5q122 0 188 -69.5t70 -180.5h-155q-3 51 -34 84.5t-88 33.5q-75 0 -121.5 -52t-61.5 -144l-11 -67q-6 -34 -6 -64q0 -140 130 -140q65 0 110 39.5t55 97.5l3 20h-139l17 111h292l-61 -383
h-115l16 99h-8q-20 -27 -36.5 -45.5t-62.5 -40.5t-114 -22q-115 0 -179 68.5z" />
    <glyph glyph-name="Gbreve.ss01" horiz-adv-x="699" 
d="M150 59.5q-64 68.5 -64 183.5q0 35 6 72l12 76q15 93 64 166.5t125 115t168 41.5q122 0 188 -69.5t70 -180.5h-155q-3 51 -34 84.5t-88 33.5q-75 0 -121.5 -52t-61.5 -144l-11 -67q-6 -34 -6 -64q0 -140 130 -140q65 0 110 39.5t55 97.5l3 20h-139l17 111h292l-61 -383
h-115l16 99h-8q-20 -27 -36.5 -45.5t-62.5 -40.5t-114 -22q-115 0 -179 68.5zM303 901h124q5 -21 19.5 -33.5t39.5 -12.5t43.5 12.5t30.5 33.5h124q-83 -129 -211 -129q-129 0 -170 129z" />
    <glyph glyph-name="Gdotaccent.ss01" horiz-adv-x="699" 
d="M150 59.5q-64 68.5 -64 183.5q0 35 6 72l12 76q15 93 64 166.5t125 115t168 41.5q122 0 188 -69.5t70 -180.5h-155q-3 51 -34 84.5t-88 33.5q-75 0 -121.5 -52t-61.5 -144l-11 -67q-6 -34 -6 -64q0 -140 130 -140q65 0 110 39.5t55 97.5l3 20h-139l17 111h292l-61 -383
h-115l16 99h-8q-20 -27 -36.5 -45.5t-62.5 -40.5t-114 -22q-115 0 -179 68.5zM423.5 808q-19.5 20 -19.5 49q0 40 30 70t70 30q32 0 51.5 -19.5t19.5 -49.5q0 -40 -30.5 -70t-70.5 -30q-31 0 -50.5 20z" />
    <glyph glyph-name="J.ss01" horiz-adv-x="558" 
d="M224 201q0 -45 18.5 -61t42.5 -16q76 0 93 94l78 481l156 3l-80 -484q-12 -72 -50.5 -123.5t-95.5 -77.5t-122 -26q-86 0 -141 48.5t-55 142.5q0 33 5 59h155q-4 -30 -4 -40z" />
    <glyph glyph-name="O.ss01" horiz-adv-x="692" 
d="M149 61.5q-67 70.5 -67 185.5q0 34 6 68l12 76q15 91 62.5 164t123.5 116t173 43q127 0 193.5 -71t66.5 -186q0 -37 -5 -66l-12 -76q-15 -92 -62.5 -165.5t-124 -116t-173.5 -42.5q-126 0 -193 70.5zM485 176q47 52 62 143l12 67q5 35 5 58q0 65 -31.5 101.5t-93.5 36.5
q-76 0 -122.5 -52t-61.5 -144l-11 -67q-5 -33 -5 -56q0 -66 30.5 -102.5t93.5 -36.5q75 0 122 52z" />
    <glyph glyph-name="Oacute.ss01" horiz-adv-x="692" 
d="M149 61.5q-67 70.5 -67 185.5q0 34 6 68l12 76q15 91 62.5 164t123.5 116t173 43q127 0 193.5 -71t66.5 -186q0 -37 -5 -66l-12 -76q-15 -92 -62.5 -165.5t-124 -116t-173.5 -42.5q-126 0 -193 70.5zM485 176q47 52 62 143l12 67q5 35 5 58q0 65 -31.5 101.5t-93.5 36.5
q-76 0 -122.5 -52t-61.5 -144l-11 -67q-5 -33 -5 -56q0 -66 30.5 -102.5t93.5 -36.5q75 0 122 52zM410 777l133 200h153l-163 -201z" />
    <glyph glyph-name="Ocircumflex.ss01" horiz-adv-x="692" 
d="M149 61.5q-67 70.5 -67 185.5q0 34 6 68l12 76q15 91 62.5 164t123.5 116t173 43q127 0 193.5 -71t66.5 -186q0 -37 -5 -66l-12 -76q-15 -92 -62.5 -165.5t-124 -116t-173.5 -42.5q-126 0 -193 70.5zM485 176q47 52 62 143l12 67q5 35 5 58q0 65 -31.5 101.5t-93.5 36.5
q-76 0 -122.5 -52t-61.5 -144l-11 -67q-5 -33 -5 -56q0 -66 30.5 -102.5t93.5 -36.5q75 0 122 52zM439 925h112l121 -163h-141l-50 69h-4l-72 -69h-139z" />
    <glyph glyph-name="uni1ED0.ss01" horiz-adv-x="692" 
d="M149 61.5q-67 70.5 -67 185.5q0 34 6 68l12 76q15 91 62.5 164t123.5 116t173 43q127 0 193.5 -71t66.5 -186q0 -37 -5 -66l-12 -76q-15 -92 -62.5 -165.5t-124 -116t-173.5 -42.5q-126 0 -193 70.5zM485 176q47 52 62 143l12 67q5 35 5 58q0 65 -31.5 101.5t-93.5 36.5
q-76 0 -122.5 -52t-61.5 -144l-11 -67q-5 -33 -5 -56q0 -66 30.5 -102.5t93.5 -36.5q75 0 122 52zM438 925h112l121 -163h-141l-50 69h-4l-72 -69h-139zM610 893l133 200h153l-163 -201z" />
    <glyph glyph-name="uni1ED8.ss01" horiz-adv-x="692" 
d="M149 61.5q-67 70.5 -67 185.5q0 34 6 68l12 76q15 91 62.5 164t123.5 116t173 43q127 0 193.5 -71t66.5 -186q0 -37 -5 -66l-12 -76q-15 -92 -62.5 -165.5t-124 -116t-173.5 -42.5q-126 0 -193 70.5zM485 176q47 52 62 143l12 67q5 35 5 58q0 65 -31.5 101.5t-93.5 36.5
q-76 0 -122.5 -52t-61.5 -144l-11 -67q-5 -33 -5 -56q0 -66 30.5 -102.5t93.5 -36.5q75 0 122 52zM255 -232.5q-18 18.5 -18 46.5q0 37 28 64.5t65 27.5q30 0 48.5 -18t18.5 -46q0 -37 -28.5 -65t-65.5 -28q-30 0 -48 18.5zM439 925h112l121 -163h-141l-50 69h-4l-72 -69
h-139z" />
    <glyph glyph-name="uni1ED2.ss01" horiz-adv-x="692" 
d="M149 61.5q-67 70.5 -67 185.5q0 34 6 68l12 76q15 91 62.5 164t123.5 116t173 43q127 0 193.5 -71t66.5 -186q0 -37 -5 -66l-12 -76q-15 -92 -62.5 -165.5t-124 -116t-173.5 -42.5q-126 0 -193 70.5zM485 176q47 52 62 143l12 67q5 35 5 58q0 65 -31.5 101.5t-93.5 36.5
q-76 0 -122.5 -52t-61.5 -144l-11 -67q-5 -33 -5 -56q0 -66 30.5 -102.5t93.5 -36.5q75 0 122 52zM438 925h112l121 -163h-141l-50 69h-4l-72 -69h-139zM527 1093h153l69 -200l-123 -1z" />
    <glyph glyph-name="uni1ED4.ss01" horiz-adv-x="692" 
d="M149 61.5q-67 70.5 -67 185.5q0 34 6 68l12 76q15 91 62.5 164t123.5 116t173 43q127 0 193.5 -71t66.5 -186q0 -37 -5 -66l-12 -76q-15 -92 -62.5 -165.5t-124 -116t-173.5 -42.5q-126 0 -193 70.5zM485 176q47 52 62 143l12 67q5 35 5 58q0 65 -31.5 101.5t-93.5 36.5
q-76 0 -122.5 -52t-61.5 -144l-11 -67q-5 -33 -5 -56q0 -66 30.5 -102.5t93.5 -36.5q75 0 122 52zM438 925h112l121 -163h-141l-50 69h-4l-72 -69h-139zM624 920q9 7 19.5 13.5t14.5 9.5q31 18 47 33.5t16 37.5q0 10 -6.5 16t-18.5 6q-15 0 -24.5 -8.5t-12.5 -22.5h-109
q8 45 47.5 78.5t110.5 33.5q57 0 87 -24t30 -62q0 -40 -18.5 -62t-49.5 -41q-24 -15 -28 -24h-117q3 9 12 16z" />
    <glyph glyph-name="uni1ED6.ss01" horiz-adv-x="692" 
d="M149 61.5q-67 70.5 -67 185.5q0 34 6 68l12 76q15 91 62.5 164t123.5 116t173 43q127 0 193.5 -71t66.5 -186q0 -37 -5 -66l-12 -76q-15 -92 -62.5 -165.5t-124 -116t-173.5 -42.5q-126 0 -193 70.5zM485 176q47 52 62 143l12 67q5 35 5 58q0 65 -31.5 101.5t-93.5 36.5
q-76 0 -122.5 -52t-61.5 -144l-11 -67q-5 -33 -5 -56q0 -66 30.5 -102.5t93.5 -36.5q75 0 122 52zM437 925h112l121 -163h-141l-50 69h-4l-72 -69h-139zM362 1066.5q31 38.5 91 38.5q19 0 37 -5.5t40 -15.5q12 -5 25 -9.5t22 -4.5q15 0 23.5 11t9.5 25h78
q-6 -58 -36.5 -95.5t-90.5 -37.5q-20 0 -37.5 5.5t-39.5 15.5q-4 2 -19.5 8t-27.5 6q-16 0 -24 -11t-10 -26h-78q6 57 37 95.5z" />
    <glyph glyph-name="Odieresis.ss01" horiz-adv-x="692" 
d="M149 61.5q-67 70.5 -67 185.5q0 34 6 68l12 76q15 91 62.5 164t123.5 116t173 43q127 0 193.5 -71t66.5 -186q0 -37 -5 -66l-12 -76q-15 -92 -62.5 -165.5t-124 -116t-173.5 -42.5q-126 0 -193 70.5zM485 176q47 52 62 143l12 67q5 35 5 58q0 65 -31.5 101.5t-93.5 36.5
q-76 0 -122.5 -52t-61.5 -144l-11 -67q-5 -33 -5 -56q0 -66 30.5 -102.5t93.5 -36.5q75 0 122 52zM564.5 808q-19.5 20 -19.5 49q0 40 30 70t70 30q32 0 51.5 -19.5t19.5 -49.5q0 -40 -30.5 -70t-70.5 -30q-31 0 -50.5 20zM292.5 808q-19.5 20 -19.5 49q0 40 30 70t70 30
q32 0 51.5 -19.5t19.5 -49.5q0 -40 -30.5 -70t-70.5 -30q-31 0 -50.5 20z" />
    <glyph glyph-name="uni1ECC.ss01" horiz-adv-x="692" 
d="M149 61.5q-67 70.5 -67 185.5q0 34 6 68l12 76q15 91 62.5 164t123.5 116t173 43q127 0 193.5 -71t66.5 -186q0 -37 -5 -66l-12 -76q-15 -92 -62.5 -165.5t-124 -116t-173.5 -42.5q-126 0 -193 70.5zM485 176q47 52 62 143l12 67q5 35 5 58q0 65 -31.5 101.5t-93.5 36.5
q-76 0 -122.5 -52t-61.5 -144l-11 -67q-5 -33 -5 -56q0 -66 30.5 -102.5t93.5 -36.5q75 0 122 52zM255 -232.5q-18 18.5 -18 46.5q0 37 28 64.5t65 27.5q30 0 48.5 -18t18.5 -46q0 -37 -28.5 -65t-65.5 -28q-30 0 -48 18.5z" />
    <glyph glyph-name="Ograve.ss01" horiz-adv-x="692" 
d="M149 61.5q-67 70.5 -67 185.5q0 34 6 68l12 76q15 91 62.5 164t123.5 116t173 43q127 0 193.5 -71t66.5 -186q0 -37 -5 -66l-12 -76q-15 -92 -62.5 -165.5t-124 -116t-173.5 -42.5q-126 0 -193 70.5zM485 176q47 52 62 143l12 67q5 35 5 58q0 65 -31.5 101.5t-93.5 36.5
q-76 0 -122.5 -52t-61.5 -144l-11 -67q-5 -33 -5 -56q0 -66 30.5 -102.5t93.5 -36.5q75 0 122 52zM308 977h153l69 -200l-123 -1z" />
    <glyph glyph-name="uni1ECE.ss01" horiz-adv-x="692" 
d="M149 61.5q-67 70.5 -67 185.5q0 34 6 68l12 76q15 91 62.5 164t123.5 116t173 43q127 0 193.5 -71t66.5 -186q0 -37 -5 -66l-12 -76q-15 -92 -62.5 -165.5t-124 -116t-173.5 -42.5q-126 0 -193 70.5zM485 176q47 52 62 143l12 67q5 35 5 58q0 65 -31.5 101.5t-93.5 36.5
q-76 0 -122.5 -52t-61.5 -144l-11 -67q-5 -33 -5 -56q0 -66 30.5 -102.5t93.5 -36.5q75 0 122 52zM421 792q9 7 19.5 13.5t14.5 9.5q31 18 47 33.5t16 37.5q0 10 -6.5 16t-18.5 6q-15 0 -24.5 -8.5t-12.5 -22.5h-109q8 45 47.5 78.5t110.5 33.5q57 0 87 -24t30 -62
q0 -40 -18.5 -62t-49.5 -41q-24 -15 -28 -24h-117q3 9 12 16z" />
    <glyph glyph-name="Ohorn.ss01" horiz-adv-x="692" 
d="M788 809l-10 -61q-9 -53 -42 -79t-77 -33q60 -66 60 -179q0 -28 -5 -66l-12 -76q-15 -92 -62.5 -165.5t-124 -116t-173.5 -42.5q-126 0 -193 70.5t-67 185.5q0 34 6 68l12 76q15 91 62.5 164t123.5 116t173 43q54 0 99 -14h39q22 0 36 3.5t24.5 18.5t15.5 46l7 41h108z
M564 444q0 65 -31.5 101.5t-93.5 36.5q-76 0 -122.5 -52t-61.5 -144l-11 -67q-5 -33 -5 -56q0 -66 30.5 -102.5t93.5 -36.5q75 0 122 52t62 143l12 67q5 35 5 58z" />
    <glyph glyph-name="uni1EDA.ss01" horiz-adv-x="692" 
d="M788 809l-10 -61q-9 -53 -42 -79t-77 -33q60 -66 60 -179q0 -28 -5 -66l-12 -76q-15 -92 -62.5 -165.5t-124 -116t-173.5 -42.5q-126 0 -193 70.5t-67 185.5q0 34 6 68l12 76q15 91 62.5 164t123.5 116t173 43q54 0 99 -14h39q22 0 36 3.5t24.5 18.5t15.5 46l7 41h108z
M564 444q0 65 -31.5 101.5t-93.5 36.5q-76 0 -122.5 -52t-61.5 -144l-11 -67q-5 -33 -5 -56q0 -66 30.5 -102.5t93.5 -36.5q75 0 122 52t62 143l12 67q5 35 5 58zM410 777l133 200h153l-163 -201z" />
    <glyph glyph-name="uni1EE2.ss01" horiz-adv-x="692" 
d="M788 809l-10 -61q-9 -53 -42 -79t-77 -33q60 -66 60 -179q0 -28 -5 -66l-12 -76q-15 -92 -62.5 -165.5t-124 -116t-173.5 -42.5q-126 0 -193 70.5t-67 185.5q0 34 6 68l12 76q15 91 62.5 164t123.5 116t173 43q54 0 99 -14h39q22 0 36 3.5t24.5 18.5t15.5 46l7 41h108z
M564 444q0 65 -31.5 101.5t-93.5 36.5q-76 0 -122.5 -52t-61.5 -144l-11 -67q-5 -33 -5 -56q0 -66 30.5 -102.5t93.5 -36.5q75 0 122 52t62 143l12 67q5 35 5 58zM255 -232.5q-18 18.5 -18 46.5q0 37 28 64.5t65 27.5q30 0 48.5 -18t18.5 -46q0 -37 -28.5 -65t-65.5 -28
q-30 0 -48 18.5z" />
    <glyph glyph-name="uni1EDC.ss01" horiz-adv-x="692" 
d="M788 809l-10 -61q-9 -53 -42 -79t-77 -33q60 -66 60 -179q0 -28 -5 -66l-12 -76q-15 -92 -62.5 -165.5t-124 -116t-173.5 -42.5q-126 0 -193 70.5t-67 185.5q0 34 6 68l12 76q15 91 62.5 164t123.5 116t173 43q54 0 99 -14h39q22 0 36 3.5t24.5 18.5t15.5 46l7 41h108z
M564 444q0 65 -31.5 101.5t-93.5 36.5q-76 0 -122.5 -52t-61.5 -144l-11 -67q-5 -33 -5 -56q0 -66 30.5 -102.5t93.5 -36.5q75 0 122 52t62 143l12 67q5 35 5 58zM308 977h153l69 -200l-123 -1z" />
    <glyph glyph-name="uni1EDE.ss01" horiz-adv-x="692" 
d="M788 809l-10 -61q-9 -53 -42 -79t-77 -33q60 -66 60 -179q0 -28 -5 -66l-12 -76q-15 -92 -62.5 -165.5t-124 -116t-173.5 -42.5q-126 0 -193 70.5t-67 185.5q0 34 6 68l12 76q15 91 62.5 164t123.5 116t173 43q54 0 99 -14h39q22 0 36 3.5t24.5 18.5t15.5 46l7 41h108z
M564 444q0 65 -31.5 101.5t-93.5 36.5q-76 0 -122.5 -52t-61.5 -144l-11 -67q-5 -33 -5 -56q0 -66 30.5 -102.5t93.5 -36.5q75 0 122 52t62 143l12 67q5 35 5 58zM421 792q9 7 19.5 13.5t14.5 9.5q31 18 47 33.5t16 37.5q0 10 -6.5 16t-18.5 6q-15 0 -24.5 -8.5t-12.5 -22.5
h-109q8 45 47.5 78.5t110.5 33.5q57 0 87 -24t30 -62q0 -40 -18.5 -62t-49.5 -41q-24 -15 -28 -24h-117q3 9 12 16z" />
    <glyph glyph-name="uni1EE0.ss01" horiz-adv-x="692" 
d="M788 809l-10 -61q-9 -53 -42 -79t-77 -33q60 -66 60 -179q0 -28 -5 -66l-12 -76q-15 -92 -62.5 -165.5t-124 -116t-173.5 -42.5q-126 0 -193 70.5t-67 185.5q0 34 6 68l12 76q15 91 62.5 164t123.5 116t173 43q54 0 99 -14h39q22 0 36 3.5t24.5 18.5t15.5 46l7 41h108z
M564 444q0 65 -31.5 101.5t-93.5 36.5q-76 0 -122.5 -52t-61.5 -144l-11 -67q-5 -33 -5 -56q0 -66 30.5 -102.5t93.5 -36.5q75 0 122 52t62 143l12 67q5 35 5 58zM338 883.5q31 38.5 91 38.5q19 0 37 -5.5t40 -15.5q12 -5 25 -9.5t22 -4.5q15 0 23.5 11t9.5 25h78
q-6 -58 -36.5 -95.5t-90.5 -37.5q-20 0 -37.5 5.5t-39.5 15.5q-4 2 -19.5 8t-27.5 6q-16 0 -24 -11t-10 -26h-78q6 57 37 95.5z" />
    <glyph glyph-name="Omacron.ss01" horiz-adv-x="692" 
d="M149 61.5q-67 70.5 -67 185.5q0 34 6 68l12 76q15 91 62.5 164t123.5 116t173 43q127 0 193.5 -71t66.5 -186q0 -37 -5 -66l-12 -76q-15 -92 -62.5 -165.5t-124 -116t-173.5 -42.5q-126 0 -193 70.5zM485 176q47 52 62 143l12 67q5 35 5 58q0 65 -31.5 101.5t-93.5 36.5
q-76 0 -122.5 -52t-61.5 -144l-11 -67q-5 -33 -5 -56q0 -66 30.5 -102.5t93.5 -36.5q75 0 122 52zM318 855h327l-11 -70h-327z" />
    <glyph glyph-name="Oslash.ss01" horiz-adv-x="731" 
d="M696 598q33 -60 33 -142q0 -28 -5 -65l-12 -76q-15 -92 -62.5 -165.5t-124 -116t-173.5 -42.5q-72 0 -125 24l-46 -58h-141l101 126q-49 64 -49 163q0 33 6 69l12 76q15 91 62.5 164t123.5 116t173 43q87 0 150 -36l52 65h141zM249 260q0 -20 3 -38l273 339
q-28 21 -76 21q-76 0 -122.5 -52t-61.5 -144l-11 -67q-5 -35 -5 -59zM574 447l-252 -315q22 -8 51 -8q75 0 122 52t62 143l12 67q5 28 5 61z" />
    <glyph glyph-name="Otilde.ss01" horiz-adv-x="692" 
d="M149 61.5q-67 70.5 -67 185.5q0 34 6 68l12 76q15 91 62.5 164t123.5 116t173 43q127 0 193.5 -71t66.5 -186q0 -37 -5 -66l-12 -76q-15 -92 -62.5 -165.5t-124 -116t-173.5 -42.5q-126 0 -193 70.5zM485 176q47 52 62 143l12 67q5 35 5 58q0 65 -31.5 101.5t-93.5 36.5
q-76 0 -122.5 -52t-61.5 -144l-11 -67q-5 -33 -5 -56q0 -66 30.5 -102.5t93.5 -36.5q75 0 122 52zM338 883.5q31 38.5 91 38.5q19 0 37 -5.5t40 -15.5q12 -5 25 -9.5t22 -4.5q15 0 23.5 11t9.5 25h78q-6 -58 -36.5 -95.5t-90.5 -37.5q-20 0 -37.5 5.5t-39.5 15.5
q-4 2 -19.5 8t-27.5 6q-16 0 -24 -11t-10 -26h-78q6 57 37 95.5z" />
    <glyph glyph-name="OE.ss01" horiz-adv-x="955" 
d="M197 32.5q-59 32.5 -88 89.5t-29 129q0 37 5 64l12 73q14 88 60.5 158.5t122.5 111.5t175 41h573l-22 -135h-316l-25 -149h266l-20 -121h-265l-26 -158h316l-22 -136h-572q-86 0 -145 32.5zM463 140l70 423h-100q-75 0 -121.5 -48t-60.5 -131l-11 -66q-4 -21 -4 -46
q0 -62 32 -97t96 -35h99z" />
    <glyph glyph-name="P.ss01" horiz-adv-x="588" 
d="M598.5 649.5q57.5 -50.5 57.5 -131.5q0 -18 -3 -38l-8 -51q-10 -62 -47.5 -112.5t-101 -80t-146.5 -29.5h-111l-34 -207h-153l33 207l80 493h265q111 0 168.5 -50.5zM499 490q0 32 -22 53t-68 21h-112l-36 -221h110q51 0 82.5 26.5t36.5 60.5l8 47q1 4 1 13z" />
    <glyph glyph-name="Q.ss01" horiz-adv-x="688" 
d="M652.5 643q66.5 -71 66.5 -186q0 -37 -5 -66l-12 -76q-12 -73 -45 -135t-84 -106l67 -115h-135l-32 55q-60 -23 -131 -23q-126 0 -193 70.5t-67 185.5q0 34 6 68l12 76q15 91 62.5 164t123.5 116t173 43q127 0 193.5 -71zM501 197q34 47 46 122l12 67q5 35 5 58
q0 65 -31.5 101.5t-93.5 36.5q-76 0 -122.5 -52t-61.5 -144l-11 -67q-5 -33 -5 -56q0 -66 30.5 -102.5t93.5 -36.5q21 0 43 5l-87 149h135z" />
    <glyph glyph-name="R.ss01" horiz-adv-x="608" 
d="M605 654q53 -46 53 -123q0 -18 -3 -38l-7 -44q-10 -67 -52 -118t-113 -74l105 -257h-163l-97 240h-84l-39 -240h-153l39 240h-1l75 460h278q109 0 162 -46zM501 506q0 26 -18 42.5t-62 16.5h-124l-31 -190h124q49 0 74.5 22.5t29.5 53.5l6 40q1 5 1 15z" />
    <glyph glyph-name="G.ss02" horiz-adv-x="697" 
d="M216.5 27.5q-62.5 36.5 -94 101t-31.5 146.5q0 119 51.5 220t140 160t194.5 59q80 0 137 -32t86 -86t31 -122h-155q-6 47 -35 75t-84 28q-59 0 -106.5 -39.5t-74.5 -108t-27 -151.5q0 -79 36.5 -121t104.5 -42q70 0 115 41.5t55 102.5l6 31h-145l17 111h282l-24 -148
q-12 -78 -59 -137.5t-117.5 -92t-152.5 -32.5q-88 0 -150.5 36.5z" />
    <glyph glyph-name="a" unicode="a" horiz-adv-x="609" 
d="M112 44q-43 53 -43 145q0 98 34 178.5t93 126.5t131 46q67 0 99 -29.5t40 -59.5h8l13 78h156l-85 -529h-157l14 85h-8q-22 -34 -63.5 -64t-107.5 -30q-81 0 -124 53zM381.5 142q30.5 26 48.5 70.5t18 97.5q0 46 -20 75.5t-64 29.5q-37 0 -67.5 -25.5t-48 -70t-17.5 -98.5
q0 -47 20 -76t64 -29q36 0 66.5 26z" />
    <glyph glyph-name="aacute" unicode="&#xe1;" horiz-adv-x="609" 
d="M112 44q-43 53 -43 145q0 98 34 178.5t93 126.5t131 46q67 0 99 -29.5t40 -59.5h8l13 78h156l-85 -529h-157l14 85h-8q-22 -34 -63.5 -64t-107.5 -30q-81 0 -124 53zM381.5 142q30.5 26 48.5 70.5t18 97.5q0 46 -20 75.5t-64 29.5q-37 0 -67.5 -25.5t-48 -70t-17.5 -98.5
q0 -47 20 -76t64 -29q36 0 66.5 26zM347 606l133 200h153l-163 -201z" />
    <glyph glyph-name="abreve" unicode="&#x103;" horiz-adv-x="609" 
d="M112 44q-43 53 -43 145q0 98 34 178.5t93 126.5t131 46q67 0 99 -29.5t40 -59.5h8l13 78h156l-85 -529h-157l14 85h-8q-22 -34 -63.5 -64t-107.5 -30q-81 0 -124 53zM381.5 142q30.5 26 48.5 70.5t18 97.5q0 46 -20 75.5t-64 29.5q-37 0 -67.5 -25.5t-48 -70t-17.5 -98.5
q0 -47 20 -76t64 -29q36 0 66.5 26zM236 730h124q5 -21 19.5 -33.5t39.5 -12.5t43.5 12.5t30.5 33.5h124q-83 -129 -211 -129q-129 0 -170 129z" />
    <glyph glyph-name="uni1EAF" unicode="&#x1eaf;" horiz-adv-x="609" 
d="M112 44q-43 53 -43 145q0 98 34 178.5t93 126.5t131 46q67 0 99 -29.5t40 -59.5h8l13 78h156l-85 -529h-157l14 85h-8q-22 -34 -63.5 -64t-107.5 -30q-81 0 -124 53zM381.5 142q30.5 26 48.5 70.5t18 97.5q0 46 -20 75.5t-64 29.5q-37 0 -67.5 -25.5t-48 -70t-17.5 -98.5
q0 -47 20 -76t64 -29q36 0 66.5 26zM236 730h124q5 -21 19.5 -33.5t39.5 -12.5t43.5 12.5t30.5 33.5h124q-83 -129 -211 -129q-129 0 -170 129zM376 780l133 200h153l-163 -201z" />
    <glyph glyph-name="uni1EB7" unicode="&#x1eb7;" horiz-adv-x="609" 
d="M112 44q-43 53 -43 145q0 98 34 178.5t93 126.5t131 46q67 0 99 -29.5t40 -59.5h8l13 78h156l-85 -529h-157l14 85h-8q-22 -34 -63.5 -64t-107.5 -30q-81 0 -124 53zM381.5 142q30.5 26 48.5 70.5t18 97.5q0 46 -20 75.5t-64 29.5q-37 0 -67.5 -25.5t-48 -70t-17.5 -98.5
q0 -47 20 -76t64 -29q36 0 66.5 26zM236 730h124q5 -21 19.5 -33.5t39.5 -12.5t43.5 12.5t30.5 33.5h124q-83 -129 -211 -129q-129 0 -170 129zM216 -232.5q-18 18.5 -18 46.5q0 37 28 64.5t65 27.5q30 0 48.5 -18t18.5 -46q0 -37 -28.5 -65t-65.5 -28q-30 0 -48 18.5z" />
    <glyph glyph-name="uni1EB1" unicode="&#x1eb1;" horiz-adv-x="609" 
d="M112 44q-43 53 -43 145q0 98 34 178.5t93 126.5t131 46q67 0 99 -29.5t40 -59.5h8l13 78h156l-85 -529h-157l14 85h-8q-22 -34 -63.5 -64t-107.5 -30q-81 0 -124 53zM381.5 142q30.5 26 48.5 70.5t18 97.5q0 46 -20 75.5t-64 29.5q-37 0 -67.5 -25.5t-48 -70t-17.5 -98.5
q0 -47 20 -76t64 -29q36 0 66.5 26zM242 730h124q5 -21 19.5 -33.5t39.5 -12.5t43.5 12.5t30.5 33.5h124q-83 -129 -211 -129q-129 0 -170 129zM279 980h153l69 -200l-123 -1z" />
    <glyph glyph-name="uni1EB3" unicode="&#x1eb3;" horiz-adv-x="609" 
d="M112 44q-43 53 -43 145q0 98 34 178.5t93 126.5t131 46q67 0 99 -29.5t40 -59.5h8l13 78h156l-85 -529h-157l14 85h-8q-22 -34 -63.5 -64t-107.5 -30q-81 0 -124 53zM381.5 142q30.5 26 48.5 70.5t18 97.5q0 46 -20 75.5t-64 29.5q-37 0 -67.5 -25.5t-48 -70t-17.5 -98.5
q0 -47 20 -76t64 -29q36 0 66.5 26zM236 730h124q5 -21 19.5 -33.5t39.5 -12.5t43.5 12.5t30.5 33.5h124q-83 -129 -211 -129q-129 0 -170 129zM387 795q9 7 19.5 13.5t14.5 9.5q31 18 47 33.5t16 37.5q0 10 -6.5 16t-18.5 6q-15 0 -24.5 -8.5t-12.5 -22.5h-109
q8 45 47.5 78.5t110.5 33.5q57 0 87 -24t30 -62q0 -40 -18.5 -62t-49.5 -41q-24 -15 -28 -24h-117q3 9 12 16z" />
    <glyph glyph-name="uni1EB5" unicode="&#x1eb5;" horiz-adv-x="609" 
d="M112 44q-43 53 -43 145q0 98 34 178.5t93 126.5t131 46q67 0 99 -29.5t40 -59.5h8l13 78h156l-85 -529h-157l14 85h-8q-22 -34 -63.5 -64t-107.5 -30q-81 0 -124 53zM381.5 142q30.5 26 48.5 70.5t18 97.5q0 46 -20 75.5t-64 29.5q-37 0 -67.5 -25.5t-48 -70t-17.5 -98.5
q0 -47 20 -76t64 -29q36 0 66.5 26zM235 730h124q5 -21 19.5 -33.5t39.5 -12.5t43.5 12.5t30.5 33.5h124q-83 -129 -211 -129q-129 0 -170 129zM302 886.5q31 38.5 91 38.5q19 0 37 -5.5t40 -15.5q12 -5 25 -9.5t22 -4.5q15 0 23.5 11t9.5 25h78q-6 -58 -36.5 -95.5
t-90.5 -37.5q-20 0 -37.5 5.5t-39.5 15.5q-4 2 -19.5 8t-27.5 6q-16 0 -24 -11t-10 -26h-78q6 57 37 95.5z" />
    <glyph glyph-name="acircumflex" unicode="&#xe2;" horiz-adv-x="609" 
d="M112 44q-43 53 -43 145q0 98 34 178.5t93 126.5t131 46q67 0 99 -29.5t40 -59.5h8l13 78h156l-85 -529h-157l14 85h-8q-22 -34 -63.5 -64t-107.5 -30q-81 0 -124 53zM381.5 142q30.5 26 48.5 70.5t18 97.5q0 46 -20 75.5t-64 29.5q-37 0 -67.5 -25.5t-48 -70t-17.5 -98.5
q0 -47 20 -76t64 -29q36 0 66.5 26zM376 754h112l121 -163h-141l-50 69h-4l-72 -69h-139z" />
    <glyph glyph-name="uni1EA5" unicode="&#x1ea5;" horiz-adv-x="609" 
d="M112 44q-43 53 -43 145q0 98 34 178.5t93 126.5t131 46q67 0 99 -29.5t40 -59.5h8l13 78h156l-85 -529h-157l14 85h-8q-22 -34 -63.5 -64t-107.5 -30q-81 0 -124 53zM381.5 142q30.5 26 48.5 70.5t18 97.5q0 46 -20 75.5t-64 29.5q-37 0 -67.5 -25.5t-48 -70t-17.5 -98.5
q0 -47 20 -76t64 -29q36 0 66.5 26zM375 754h112l121 -163h-141l-50 69h-4l-72 -69h-139zM547 722l133 200h153l-163 -201z" />
    <glyph glyph-name="uni1EAD" unicode="&#x1ead;" horiz-adv-x="609" 
d="M112 44q-43 53 -43 145q0 98 34 178.5t93 126.5t131 46q67 0 99 -29.5t40 -59.5h8l13 78h156l-85 -529h-157l14 85h-8q-22 -34 -63.5 -64t-107.5 -30q-81 0 -124 53zM381.5 142q30.5 26 48.5 70.5t18 97.5q0 46 -20 75.5t-64 29.5q-37 0 -67.5 -25.5t-48 -70t-17.5 -98.5
q0 -47 20 -76t64 -29q36 0 66.5 26zM376 754h112l121 -163h-141l-50 69h-4l-72 -69h-139zM216 -232.5q-18 18.5 -18 46.5q0 37 28 64.5t65 27.5q30 0 48.5 -18t18.5 -46q0 -37 -28.5 -65t-65.5 -28q-30 0 -48 18.5z" />
    <glyph glyph-name="uni1EA7" unicode="&#x1ea7;" horiz-adv-x="609" 
d="M112 44q-43 53 -43 145q0 98 34 178.5t93 126.5t131 46q67 0 99 -29.5t40 -59.5h8l13 78h156l-85 -529h-157l14 85h-8q-22 -34 -63.5 -64t-107.5 -30q-81 0 -124 53zM381.5 142q30.5 26 48.5 70.5t18 97.5q0 46 -20 75.5t-64 29.5q-37 0 -67.5 -25.5t-48 -70t-17.5 -98.5
q0 -47 20 -76t64 -29q36 0 66.5 26zM375 754h112l121 -163h-141l-50 69h-4l-72 -69h-139zM464 922h153l69 -200l-123 -1z" />
    <glyph glyph-name="uni1EA9" unicode="&#x1ea9;" horiz-adv-x="609" 
d="M112 44q-43 53 -43 145q0 98 34 178.5t93 126.5t131 46q67 0 99 -29.5t40 -59.5h8l13 78h156l-85 -529h-157l14 85h-8q-22 -34 -63.5 -64t-107.5 -30q-81 0 -124 53zM381.5 142q30.5 26 48.5 70.5t18 97.5q0 46 -20 75.5t-64 29.5q-37 0 -67.5 -25.5t-48 -70t-17.5 -98.5
q0 -47 20 -76t64 -29q36 0 66.5 26zM375 754h112l121 -163h-141l-50 69h-4l-72 -69h-139zM561 749q9 7 19.5 13.5t14.5 9.5q31 18 47 33.5t16 37.5q0 10 -6.5 16t-18.5 6q-15 0 -24.5 -8.5t-12.5 -22.5h-109q8 45 47.5 78.5t110.5 33.5q57 0 87 -24t30 -62q0 -40 -18.5 -62
t-49.5 -41q-24 -15 -28 -24h-117q3 9 12 16z" />
    <glyph glyph-name="uni1EAB" unicode="&#x1eab;" horiz-adv-x="609" 
d="M112 44q-43 53 -43 145q0 98 34 178.5t93 126.5t131 46q67 0 99 -29.5t40 -59.5h8l13 78h156l-85 -529h-157l14 85h-8q-22 -34 -63.5 -64t-107.5 -30q-81 0 -124 53zM381.5 142q30.5 26 48.5 70.5t18 97.5q0 46 -20 75.5t-64 29.5q-37 0 -67.5 -25.5t-48 -70t-17.5 -98.5
q0 -47 20 -76t64 -29q36 0 66.5 26zM373 754h112l121 -163h-141l-50 69h-4l-72 -69h-139zM298 895.5q31 38.5 91 38.5q19 0 37 -5.5t40 -15.5q12 -5 25 -9.5t22 -4.5q15 0 23.5 11t9.5 25h78q-6 -58 -36.5 -95.5t-90.5 -37.5q-20 0 -37.5 5.5t-39.5 15.5q-4 2 -19.5 8
t-27.5 6q-16 0 -24 -11t-10 -26h-78q6 57 37 95.5z" />
    <glyph glyph-name="adieresis" unicode="&#xe4;" horiz-adv-x="609" 
d="M112 44q-43 53 -43 145q0 98 34 178.5t93 126.5t131 46q67 0 99 -29.5t40 -59.5h8l13 78h156l-85 -529h-157l14 85h-8q-22 -34 -63.5 -64t-107.5 -30q-81 0 -124 53zM381.5 142q30.5 26 48.5 70.5t18 97.5q0 46 -20 75.5t-64 29.5q-37 0 -67.5 -25.5t-48 -70t-17.5 -98.5
q0 -47 20 -76t64 -29q36 0 66.5 26zM500.5 637q-19.5 20 -19.5 49q0 40 30 70t70 30q32 0 51.5 -19.5t19.5 -49.5q0 -40 -30.5 -70t-70.5 -30q-31 0 -50.5 20zM228.5 637q-19.5 20 -19.5 49q0 40 30 70t70 30q32 0 51.5 -19.5t19.5 -49.5q0 -40 -30.5 -70t-70.5 -30
q-31 0 -50.5 20z" />
    <glyph glyph-name="uni1EA1" unicode="&#x1ea1;" horiz-adv-x="609" 
d="M112 44q-43 53 -43 145q0 98 34 178.5t93 126.5t131 46q67 0 99 -29.5t40 -59.5h8l13 78h156l-85 -529h-157l14 85h-8q-22 -34 -63.5 -64t-107.5 -30q-81 0 -124 53zM381.5 142q30.5 26 48.5 70.5t18 97.5q0 46 -20 75.5t-64 29.5q-37 0 -67.5 -25.5t-48 -70t-17.5 -98.5
q0 -47 20 -76t64 -29q36 0 66.5 26zM216 -232.5q-18 18.5 -18 46.5q0 37 28 64.5t65 27.5q30 0 48.5 -18t18.5 -46q0 -37 -28.5 -65t-65.5 -28q-30 0 -48 18.5z" />
    <glyph glyph-name="agrave" unicode="&#xe0;" horiz-adv-x="609" 
d="M112 44q-43 53 -43 145q0 98 34 178.5t93 126.5t131 46q67 0 99 -29.5t40 -59.5h8l13 78h156l-85 -529h-157l14 85h-8q-22 -34 -63.5 -64t-107.5 -30q-81 0 -124 53zM381.5 142q30.5 26 48.5 70.5t18 97.5q0 46 -20 75.5t-64 29.5q-37 0 -67.5 -25.5t-48 -70t-17.5 -98.5
q0 -47 20 -76t64 -29q36 0 66.5 26zM244 806h153l69 -200l-123 -1z" />
    <glyph glyph-name="uni1EA3" unicode="&#x1ea3;" horiz-adv-x="609" 
d="M112 44q-43 53 -43 145q0 98 34 178.5t93 126.5t131 46q67 0 99 -29.5t40 -59.5h8l13 78h156l-85 -529h-157l14 85h-8q-22 -34 -63.5 -64t-107.5 -30q-81 0 -124 53zM381.5 142q30.5 26 48.5 70.5t18 97.5q0 46 -20 75.5t-64 29.5q-37 0 -67.5 -25.5t-48 -70t-17.5 -98.5
q0 -47 20 -76t64 -29q36 0 66.5 26zM358 621q9 7 19.5 13.5t14.5 9.5q31 18 47 33.5t16 37.5q0 10 -6.5 16t-18.5 6q-15 0 -24.5 -8.5t-12.5 -22.5h-109q8 45 47.5 78.5t110.5 33.5q57 0 87 -24t30 -62q0 -40 -18.5 -62t-49.5 -41q-24 -15 -28 -24h-117q3 9 12 16z" />
    <glyph glyph-name="amacron" unicode="&#x101;" horiz-adv-x="609" 
d="M112 44q-43 53 -43 145q0 98 34 178.5t93 126.5t131 46q67 0 99 -29.5t40 -59.5h8l13 78h156l-85 -529h-157l14 85h-8q-22 -34 -63.5 -64t-107.5 -30q-81 0 -124 53zM381.5 142q30.5 26 48.5 70.5t18 97.5q0 46 -20 75.5t-64 29.5q-37 0 -67.5 -25.5t-48 -70t-17.5 -98.5
q0 -47 20 -76t64 -29q36 0 66.5 26zM255 684h327l-11 -70h-327z" />
    <glyph glyph-name="aogonek" unicode="&#x105;" horiz-adv-x="609" 
d="M507.5 -90q11.5 -9 34.5 -9q19 0 36 7l-13 -80q-4 -1 -16.5 -3.5t-40.5 -2.5q-57 0 -87 24t-30 62q0 52 45 92h-35l14 85h-8q-22 -34 -63.5 -64t-107.5 -30q-81 0 -124 53t-43 145q0 98 34 178.5t93 126.5t131 46q67 0 99 -29.5t40 -59.5h8l13 78h156l-85 -529h-1
q-29 -15 -45 -29.5t-16 -37.5q0 -14 11.5 -23zM381.5 142q30.5 26 48.5 70.5t18 97.5q0 46 -20 75.5t-64 29.5q-37 0 -67.5 -25.5t-48 -70t-17.5 -98.5q0 -47 20 -76t64 -29q36 0 66.5 26z" />
    <glyph glyph-name="aring" unicode="&#xe5;" horiz-adv-x="609" 
d="M112 44q-43 53 -43 145q0 98 34 178.5t93 126.5t131 46q67 0 99 -29.5t40 -59.5h8l13 78h156l-85 -529h-157l14 85h-8q-22 -34 -63.5 -64t-107.5 -30q-81 0 -124 53zM381.5 142q30.5 26 48.5 70.5t18 97.5q0 46 -20 75.5t-64 29.5q-37 0 -67.5 -25.5t-48 -70t-17.5 -98.5
q0 -47 20 -76t64 -29q36 0 66.5 26zM343 622q-25 25 -25 62q0 30 17 57.5t45 44.5t59 17q38 0 63 -25t25 -62q0 -30 -17 -57.5t-45.5 -44.5t-58.5 -17q-38 0 -63 25zM448.5 674q14.5 14 14.5 33q0 14 -10 23.5t-24 9.5q-19 0 -33 -14t-14 -33q0 -14 9.5 -23.5t24.5 -9.5
q18 0 32.5 14z" />
    <glyph glyph-name="atilde" unicode="&#xe3;" horiz-adv-x="609" 
d="M112 44q-43 53 -43 145q0 98 34 178.5t93 126.5t131 46q67 0 99 -29.5t40 -59.5h8l13 78h156l-85 -529h-157l14 85h-8q-22 -34 -63.5 -64t-107.5 -30q-81 0 -124 53zM381.5 142q30.5 26 48.5 70.5t18 97.5q0 46 -20 75.5t-64 29.5q-37 0 -67.5 -25.5t-48 -70t-17.5 -98.5
q0 -47 20 -76t64 -29q36 0 66.5 26zM274 712.5q31 38.5 91 38.5q19 0 37 -5.5t40 -15.5q12 -5 25 -9.5t22 -4.5q15 0 23.5 11t9.5 25h78q-6 -58 -36.5 -95.5t-90.5 -37.5q-20 0 -37.5 5.5t-39.5 15.5q-4 2 -19.5 8t-27.5 6q-16 0 -24 -11t-10 -26h-78q6 57 37 95.5z" />
    <glyph glyph-name="ae" unicode="&#xe6;" horiz-adv-x="901" 
d="M105 27.5q-42 36.5 -42 96.5q0 92 70.5 140t190.5 49l90 1l4 24q1 5 1 17q0 65 -67 65q-33 0 -59.5 -17.5t-35.5 -49.5h-145q9 38 36 80t79.5 74t132.5 32q115 0 157 -75h7q76 76 186 76q100 0 150.5 -58.5t50.5 -154.5q0 -27 -5 -62l-6 -43h-349l-1 -9q-1 -5 -1 -15
q0 -38 22.5 -61t61.5 -23q34 0 60 15.5t42 41.5h152q-33 -79 -103.5 -129.5t-167.5 -50.5q-66 0 -110.5 25.5t-67.5 70.5h-7q-34 -44 -88 -70t-118 -26q-78 0 -120 36.5zM766 314q2 18 2 25q0 42 -22.5 62t-59.5 20q-45 0 -76.5 -28t-41.5 -79h198zM356 127q32 28 38 66
l4 28h-81q-42 0 -71.5 -16.5t-29.5 -54.5q0 -24 17 -37.5t46 -13.5q45 0 77 28z" />
    <glyph glyph-name="b" unicode="b" horiz-adv-x="613" 
d="M272 21.5q-31 30.5 -42 63.5h-8l-14 -85h-157l122 751h157l-49 -300h8q19 31 60.5 60t108.5 29q82 0 125 -52t43 -145q0 -99 -33.5 -179.5t-92.5 -126.5t-131 -46q-66 0 -97 30.5zM398.5 140q30.5 26 48.5 70.5t18 98.5q0 46 -20.5 75t-64.5 29q-37 0 -67.5 -25.5
t-48 -69.5t-17.5 -97q0 -47 20.5 -77t63.5 -30q37 0 67.5 26z" />
    <glyph glyph-name="c" unicode="c" horiz-adv-x="567" 
d="M125 53q-53 62 -53 156q0 90 39 165.5t108 120.5t156 45q106 0 159 -61t51 -155h-152q1 41 -18 66t-58 25q-38 0 -68.5 -26t-47.5 -71.5t-17 -102.5q0 -44 20 -71.5t64 -27.5q38 0 65.5 25.5t40.5 65.5h152q-28 -94 -100.5 -155t-179.5 -61q-108 0 -161 62z" />
    <glyph glyph-name="cacute" unicode="&#x107;" horiz-adv-x="567" 
d="M125 53q-53 62 -53 156q0 90 39 165.5t108 120.5t156 45q106 0 159 -61t51 -155h-152q1 41 -18 66t-58 25q-38 0 -68.5 -26t-47.5 -71.5t-17 -102.5q0 -44 20 -71.5t64 -27.5q38 0 65.5 25.5t40.5 65.5h152q-28 -94 -100.5 -155t-179.5 -61q-108 0 -161 62zM326 606
l133 200h153l-163 -201z" />
    <glyph glyph-name="ccaron" unicode="&#x10d;" horiz-adv-x="567" 
d="M125 53q-53 62 -53 156q0 90 39 165.5t108 120.5t156 45q106 0 159 -61t51 -155h-152q1 41 -18 66t-58 25q-38 0 -68.5 -26t-47.5 -71.5t-17 -102.5q0 -44 20 -71.5t64 -27.5q38 0 65.5 25.5t40.5 65.5h152q-28 -94 -100.5 -155t-179.5 -61q-108 0 -161 62zM346 754
l49 -69h4l73 69h141l-174 -163h-112l-120 163h139z" />
    <glyph glyph-name="ccedilla" unicode="&#xe7;" horiz-adv-x="567" 
d="M433 324q1 41 -18 66t-58 25q-38 0 -68.5 -26t-47.5 -71.5t-17 -102.5q0 -44 20 -71.5t64 -27.5q38 0 65.5 25.5t40.5 65.5h152q-26 -85 -89 -144t-155 -70l-13 -27h12q43 0 65 -22.5t22 -57.5q0 -36 -19 -65.5t-51.5 -47t-72.5 -17.5q-44 0 -71 16l13 74q37 -10 69 -10
q29 0 45 11.5t16 30.5q0 12 -10 18t-25 6h-92l1 3l36 88q-89 11 -132 70.5t-43 144.5q0 90 39 166t108 121t156 45q106 0 159 -61t51 -155h-152z" />
    <glyph glyph-name="cdotaccent" unicode="&#x10b;" horiz-adv-x="567" 
d="M125 53q-53 62 -53 156q0 90 39 165.5t108 120.5t156 45q106 0 159 -61t51 -155h-152q1 41 -18 66t-58 25q-38 0 -68.5 -26t-47.5 -71.5t-17 -102.5q0 -44 20 -71.5t64 -27.5q38 0 65.5 25.5t40.5 65.5h152q-28 -94 -100.5 -155t-179.5 -61q-108 0 -161 62zM335.5 637
q-19.5 20 -19.5 49q0 40 30 70t70 30q32 0 51.5 -19.5t19.5 -49.5q0 -40 -30.5 -70t-70.5 -30q-31 0 -50.5 20z" />
    <glyph glyph-name="d" unicode="d" horiz-adv-x="610" 
d="M113 44q-43 53 -43 145q0 99 33.5 179t92.5 126t131 46q67 0 99.5 -30t40.5 -59h7l49 300h157l-122 -751h-156l14 85h-8q-22 -34 -63.5 -64t-107.5 -30q-81 0 -124 53zM382 140q31 26 49 70.5t18 97.5q0 45 -20.5 75t-64.5 30q-37 0 -67.5 -25.5t-48 -70t-17.5 -98.5
q0 -46 20.5 -75.5t63.5 -29.5q36 0 67 26z" />
    <glyph glyph-name="eth" unicode="&#xf0;" horiz-adv-x="605" 
d="M585 699q39 -62 39 -150q0 -33 -6 -74l-31 -195q-12 -73 -50.5 -139t-104 -108t-155.5 -42q-113 0 -166.5 65t-53.5 162q0 87 34.5 161t93 117.5t128.5 43.5q66 0 97 -29t40 -58h14l4 31q2 24 2 35q0 61 -24 106l-88 -46l-30 74l59 31q-45 26 -98 24l18 116q51 1 112 -14
t109 -51l98 52l31 -74zM365 142q31 26 49 70.5t18 97.5q0 47 -20 77t-64 30q-37 0 -67.5 -26t-48 -71t-17.5 -99q0 -46 19.5 -75.5t62.5 -29.5q37 0 68 26z" />
    <glyph glyph-name="dcaron" unicode="&#x10f;" horiz-adv-x="800" 
d="M113 44q-43 53 -43 145q0 99 33.5 179t92.5 126t131 46q67 0 99.5 -30t40.5 -59h7l49 300h157l-122 -751h-156l14 85h-8q-22 -34 -63.5 -64t-107.5 -30q-81 0 -124 53zM382 140q31 26 49 70.5t18 97.5q0 45 -20.5 75t-64.5 30q-37 0 -67.5 -25.5t-48 -70t-17.5 -98.5
q0 -46 20.5 -75.5t63.5 -29.5q36 0 67 26zM730 538q42 15 64.5 40.5t22.5 58.5q0 20 -10 25t-32 6q-31 1 -43.5 16.5t-12.5 36.5q0 44 30.5 73.5t77.5 29.5q81 0 81 -80q0 -19 -2 -28l-8 -45q-27 -147 -177 -181z" />
    <glyph glyph-name="dcroat" unicode="&#x111;" horiz-adv-x="640" 
d="M714 583h-61l-95 -583h-156l14 85h-8q-22 -34 -63.5 -64t-107.5 -30q-81 0 -124 53t-43 145q0 99 33.5 179t92.5 126t131 46q67 0 99.5 -30t40.5 -59h7l22 132h-96l16 100h96l11 68h157l-11 -68h61zM382 140q31 26 49 70.5t18 97.5q0 45 -20.5 75t-64.5 30
q-37 0 -67.5 -25.5t-48 -70t-17.5 -98.5q0 -46 20.5 -75.5t63.5 -29.5q36 0 67 26z" />
    <glyph glyph-name="e" unicode="e" horiz-adv-x="568" 
d="M128.5 61.5q-54.5 62.5 -54.5 160.5q0 91 39 165.5t110 117.5t163 43q71 0 117 -21.5t66.5 -55.5t20.5 -73q0 -42 -22.5 -80t-73 -63t-129.5 -25h-144l-1 -8q-1 -5 -1 -14q0 -36 24 -61t64 -25q33 0 59.5 15.5t40.5 41.5h153q-32 -80 -101 -130t-167 -50
q-109 0 -163.5 62.5zM360 329q44 0 64.5 17t20.5 40q0 21 -18.5 35.5t-55.5 14.5q-50 0 -86.5 -28.5t-44.5 -78.5h120z" />
    <glyph glyph-name="eacute" unicode="&#xe9;" horiz-adv-x="568" 
d="M128.5 61.5q-54.5 62.5 -54.5 160.5q0 91 39 165.5t110 117.5t163 43q71 0 117 -21.5t66.5 -55.5t20.5 -73q0 -42 -22.5 -80t-73 -63t-129.5 -25h-144l-1 -8q-1 -5 -1 -14q0 -36 24 -61t64 -25q33 0 59.5 15.5t40.5 41.5h153q-32 -80 -101 -130t-167 -50
q-109 0 -163.5 62.5zM360 329q44 0 64.5 17t20.5 40q0 21 -18.5 35.5t-55.5 14.5q-50 0 -86.5 -28.5t-44.5 -78.5h120zM344 606l133 200h153l-163 -201z" />
    <glyph glyph-name="ecaron" unicode="&#x11b;" horiz-adv-x="568" 
d="M128.5 61.5q-54.5 62.5 -54.5 160.5q0 91 39 165.5t110 117.5t163 43q71 0 117 -21.5t66.5 -55.5t20.5 -73q0 -42 -22.5 -80t-73 -63t-129.5 -25h-144l-1 -8q-1 -5 -1 -14q0 -36 24 -61t64 -25q33 0 59.5 15.5t40.5 41.5h153q-32 -80 -101 -130t-167 -50
q-109 0 -163.5 62.5zM360 329q44 0 64.5 17t20.5 40q0 21 -18.5 35.5t-55.5 14.5q-50 0 -86.5 -28.5t-44.5 -78.5h120zM364 754l49 -69h4l73 69h141l-174 -163h-112l-120 163h139z" />
    <glyph glyph-name="ecircumflex" unicode="&#xea;" horiz-adv-x="568" 
d="M128.5 61.5q-54.5 62.5 -54.5 160.5q0 91 39 165.5t110 117.5t163 43q71 0 117 -21.5t66.5 -55.5t20.5 -73q0 -42 -22.5 -80t-73 -63t-129.5 -25h-144l-1 -8q-1 -5 -1 -14q0 -36 24 -61t64 -25q33 0 59.5 15.5t40.5 41.5h153q-32 -80 -101 -130t-167 -50
q-109 0 -163.5 62.5zM360 329q44 0 64.5 17t20.5 40q0 21 -18.5 35.5t-55.5 14.5q-50 0 -86.5 -28.5t-44.5 -78.5h120zM373 754h112l121 -163h-141l-50 69h-4l-72 -69h-139z" />
    <glyph glyph-name="uni1EBF" unicode="&#x1ebf;" horiz-adv-x="568" 
d="M128.5 61.5q-54.5 62.5 -54.5 160.5q0 91 39 165.5t110 117.5t163 43q71 0 117 -21.5t66.5 -55.5t20.5 -73q0 -42 -22.5 -80t-73 -63t-129.5 -25h-144l-1 -8q-1 -5 -1 -14q0 -36 24 -61t64 -25q33 0 59.5 15.5t40.5 41.5h153q-32 -80 -101 -130t-167 -50
q-109 0 -163.5 62.5zM360 329q44 0 64.5 17t20.5 40q0 21 -18.5 35.5t-55.5 14.5q-50 0 -86.5 -28.5t-44.5 -78.5h120zM372 754h112l121 -163h-141l-50 69h-4l-72 -69h-139zM544 722l133 200h153l-163 -201z" />
    <glyph glyph-name="uni1EC7" unicode="&#x1ec7;" horiz-adv-x="568" 
d="M128.5 61.5q-54.5 62.5 -54.5 160.5q0 91 39 165.5t110 117.5t163 43q71 0 117 -21.5t66.5 -55.5t20.5 -73q0 -42 -22.5 -80t-73 -63t-129.5 -25h-144l-1 -8q-1 -5 -1 -14q0 -36 24 -61t64 -25q33 0 59.5 15.5t40.5 41.5h153q-32 -80 -101 -130t-167 -50
q-109 0 -163.5 62.5zM360 329q44 0 64.5 17t20.5 40q0 21 -18.5 35.5t-55.5 14.5q-50 0 -86.5 -28.5t-44.5 -78.5h120zM238 -232.5q-18 18.5 -18 46.5q0 37 28 64.5t65 27.5q30 0 48.5 -18t18.5 -46q0 -37 -28.5 -65t-65.5 -28q-30 0 -48 18.5zM373 754h112l121 -163h-141
l-50 69h-4l-72 -69h-139z" />
    <glyph glyph-name="uni1EC1" unicode="&#x1ec1;" horiz-adv-x="568" 
d="M128.5 61.5q-54.5 62.5 -54.5 160.5q0 91 39 165.5t110 117.5t163 43q71 0 117 -21.5t66.5 -55.5t20.5 -73q0 -42 -22.5 -80t-73 -63t-129.5 -25h-144l-1 -8q-1 -5 -1 -14q0 -36 24 -61t64 -25q33 0 59.5 15.5t40.5 41.5h153q-32 -80 -101 -130t-167 -50
q-109 0 -163.5 62.5zM360 329q44 0 64.5 17t20.5 40q0 21 -18.5 35.5t-55.5 14.5q-50 0 -86.5 -28.5t-44.5 -78.5h120zM372 754h112l121 -163h-141l-50 69h-4l-72 -69h-139zM461 922h153l69 -200l-123 -1z" />
    <glyph glyph-name="uni1EC3" unicode="&#x1ec3;" horiz-adv-x="568" 
d="M128.5 61.5q-54.5 62.5 -54.5 160.5q0 91 39 165.5t110 117.5t163 43q71 0 117 -21.5t66.5 -55.5t20.5 -73q0 -42 -22.5 -80t-73 -63t-129.5 -25h-144l-1 -8q-1 -5 -1 -14q0 -36 24 -61t64 -25q33 0 59.5 15.5t40.5 41.5h153q-32 -80 -101 -130t-167 -50
q-109 0 -163.5 62.5zM360 329q44 0 64.5 17t20.5 40q0 21 -18.5 35.5t-55.5 14.5q-50 0 -86.5 -28.5t-44.5 -78.5h120zM372 754h112l121 -163h-141l-50 69h-4l-72 -69h-139zM558 749q9 7 19.5 13.5t14.5 9.5q31 18 47 33.5t16 37.5q0 10 -6.5 16t-18.5 6q-15 0 -24.5 -8.5
t-12.5 -22.5h-109q8 45 47.5 78.5t110.5 33.5q57 0 87 -24t30 -62q0 -40 -18.5 -62t-49.5 -41q-24 -15 -28 -24h-117q3 9 12 16z" />
    <glyph glyph-name="uni1EC5" unicode="&#x1ec5;" horiz-adv-x="568" 
d="M128.5 61.5q-54.5 62.5 -54.5 160.5q0 91 39 165.5t110 117.5t163 43q71 0 117 -21.5t66.5 -55.5t20.5 -73q0 -42 -22.5 -80t-73 -63t-129.5 -25h-144l-1 -8q-1 -5 -1 -14q0 -36 24 -61t64 -25q33 0 59.5 15.5t40.5 41.5h153q-32 -80 -101 -130t-167 -50
q-109 0 -163.5 62.5zM360 329q44 0 64.5 17t20.5 40q0 21 -18.5 35.5t-55.5 14.5q-50 0 -86.5 -28.5t-44.5 -78.5h120zM370 754h112l121 -163h-141l-50 69h-4l-72 -69h-139zM295 895.5q31 38.5 91 38.5q19 0 37 -5.5t40 -15.5q12 -5 25 -9.5t22 -4.5q15 0 23.5 11t9.5 25h78
q-6 -58 -36.5 -95.5t-90.5 -37.5q-20 0 -37.5 5.5t-39.5 15.5q-4 2 -19.5 8t-27.5 6q-16 0 -24 -11t-10 -26h-78q6 57 37 95.5z" />
    <glyph glyph-name="edieresis" unicode="&#xeb;" horiz-adv-x="568" 
d="M128.5 61.5q-54.5 62.5 -54.5 160.5q0 91 39 165.5t110 117.5t163 43q71 0 117 -21.5t66.5 -55.5t20.5 -73q0 -42 -22.5 -80t-73 -63t-129.5 -25h-144l-1 -8q-1 -5 -1 -14q0 -36 24 -61t64 -25q33 0 59.5 15.5t40.5 41.5h153q-32 -80 -101 -130t-167 -50
q-109 0 -163.5 62.5zM360 329q44 0 64.5 17t20.5 40q0 21 -18.5 35.5t-55.5 14.5q-50 0 -86.5 -28.5t-44.5 -78.5h120zM497.5 637q-19.5 20 -19.5 49q0 40 30 70t70 30q32 0 51.5 -19.5t19.5 -49.5q0 -40 -30.5 -70t-70.5 -30q-31 0 -50.5 20zM225.5 637q-19.5 20 -19.5 49
q0 40 30 70t70 30q32 0 51.5 -19.5t19.5 -49.5q0 -40 -30.5 -70t-70.5 -30q-31 0 -50.5 20z" />
    <glyph glyph-name="edotaccent" unicode="&#x117;" horiz-adv-x="568" 
d="M128.5 61.5q-54.5 62.5 -54.5 160.5q0 91 39 165.5t110 117.5t163 43q71 0 117 -21.5t66.5 -55.5t20.5 -73q0 -42 -22.5 -80t-73 -63t-129.5 -25h-144l-1 -8q-1 -5 -1 -14q0 -36 24 -61t64 -25q33 0 59.5 15.5t40.5 41.5h153q-32 -80 -101 -130t-167 -50
q-109 0 -163.5 62.5zM360 329q44 0 64.5 17t20.5 40q0 21 -18.5 35.5t-55.5 14.5q-50 0 -86.5 -28.5t-44.5 -78.5h120zM353.5 637q-19.5 20 -19.5 49q0 40 30 70t70 30q32 0 51.5 -19.5t19.5 -49.5q0 -40 -30.5 -70t-70.5 -30q-31 0 -50.5 20z" />
    <glyph glyph-name="uni1EB9" unicode="&#x1eb9;" horiz-adv-x="568" 
d="M128.5 61.5q-54.5 62.5 -54.5 160.5q0 91 39 165.5t110 117.5t163 43q71 0 117 -21.5t66.5 -55.5t20.5 -73q0 -42 -22.5 -80t-73 -63t-129.5 -25h-144l-1 -8q-1 -5 -1 -14q0 -36 24 -61t64 -25q33 0 59.5 15.5t40.5 41.5h153q-32 -80 -101 -130t-167 -50
q-109 0 -163.5 62.5zM360 329q44 0 64.5 17t20.5 40q0 21 -18.5 35.5t-55.5 14.5q-50 0 -86.5 -28.5t-44.5 -78.5h120zM238 -232.5q-18 18.5 -18 46.5q0 37 28 64.5t65 27.5q30 0 48.5 -18t18.5 -46q0 -37 -28.5 -65t-65.5 -28q-30 0 -48 18.5z" />
    <glyph glyph-name="egrave" unicode="&#xe8;" horiz-adv-x="568" 
d="M128.5 61.5q-54.5 62.5 -54.5 160.5q0 91 39 165.5t110 117.5t163 43q71 0 117 -21.5t66.5 -55.5t20.5 -73q0 -42 -22.5 -80t-73 -63t-129.5 -25h-144l-1 -8q-1 -5 -1 -14q0 -36 24 -61t64 -25q33 0 59.5 15.5t40.5 41.5h153q-32 -80 -101 -130t-167 -50
q-109 0 -163.5 62.5zM360 329q44 0 64.5 17t20.5 40q0 21 -18.5 35.5t-55.5 14.5q-50 0 -86.5 -28.5t-44.5 -78.5h120zM241 806h153l69 -200l-123 -1z" />
    <glyph glyph-name="uni1EBB" unicode="&#x1ebb;" horiz-adv-x="568" 
d="M128.5 61.5q-54.5 62.5 -54.5 160.5q0 91 39 165.5t110 117.5t163 43q71 0 117 -21.5t66.5 -55.5t20.5 -73q0 -42 -22.5 -80t-73 -63t-129.5 -25h-144l-1 -8q-1 -5 -1 -14q0 -36 24 -61t64 -25q33 0 59.5 15.5t40.5 41.5h153q-32 -80 -101 -130t-167 -50
q-109 0 -163.5 62.5zM360 329q44 0 64.5 17t20.5 40q0 21 -18.5 35.5t-55.5 14.5q-50 0 -86.5 -28.5t-44.5 -78.5h120zM355 621q9 7 19.5 13.5t14.5 9.5q31 18 47 33.5t16 37.5q0 10 -6.5 16t-18.5 6q-15 0 -24.5 -8.5t-12.5 -22.5h-109q8 45 47.5 78.5t110.5 33.5
q57 0 87 -24t30 -62q0 -40 -18.5 -62t-49.5 -41q-24 -15 -28 -24h-117q3 9 12 16z" />
    <glyph glyph-name="emacron" unicode="&#x113;" horiz-adv-x="568" 
d="M128.5 61.5q-54.5 62.5 -54.5 160.5q0 91 39 165.5t110 117.5t163 43q71 0 117 -21.5t66.5 -55.5t20.5 -73q0 -42 -22.5 -80t-73 -63t-129.5 -25h-144l-1 -8q-1 -5 -1 -14q0 -36 24 -61t64 -25q33 0 59.5 15.5t40.5 41.5h153q-32 -80 -101 -130t-167 -50
q-109 0 -163.5 62.5zM360 329q44 0 64.5 17t20.5 40q0 21 -18.5 35.5t-55.5 14.5q-50 0 -86.5 -28.5t-44.5 -78.5h120zM252 684h327l-11 -70h-327z" />
    <glyph glyph-name="eogonek" unicode="&#x119;" horiz-adv-x="568" 
d="M366.5 137.5q26.5 15.5 40.5 41.5h153q-27 -66 -79.5 -113t-126.5 -61l18 -11q-29 -15 -45 -29.5t-16 -37.5q0 -14 11.5 -23t34.5 -9q19 0 36 7l-13 -80q-4 -1 -16.5 -3.5t-40.5 -2.5q-57 0 -87 24t-30 62q0 28 14 53.5t39 45.5q-93 10 -139 70.5t-46 150.5
q0 91 39 165.5t110 117.5t163 43q71 0 117 -21.5t66.5 -55.5t20.5 -73q0 -42 -22.5 -80t-73 -63t-129.5 -25h-144l-1 -8q-1 -5 -1 -14q0 -36 24 -61t64 -25q33 0 59.5 15.5zM284.5 407.5q-36.5 -28.5 -44.5 -78.5h120q44 0 64.5 17t20.5 40q0 21 -18.5 35.5t-55.5 14.5
q-50 0 -86.5 -28.5z" />
    <glyph glyph-name="uni1EBD" unicode="&#x1ebd;" horiz-adv-x="568" 
d="M128.5 61.5q-54.5 62.5 -54.5 160.5q0 91 39 165.5t110 117.5t163 43q71 0 117 -21.5t66.5 -55.5t20.5 -73q0 -42 -22.5 -80t-73 -63t-129.5 -25h-144l-1 -8q-1 -5 -1 -14q0 -36 24 -61t64 -25q33 0 59.5 15.5t40.5 41.5h153q-32 -80 -101 -130t-167 -50
q-109 0 -163.5 62.5zM360 329q44 0 64.5 17t20.5 40q0 21 -18.5 35.5t-55.5 14.5q-50 0 -86.5 -28.5t-44.5 -78.5h120zM271 712.5q31 38.5 91 38.5q19 0 37 -5.5t40 -15.5q12 -5 25 -9.5t22 -4.5q15 0 23.5 11t9.5 25h78q-6 -58 -36.5 -95.5t-90.5 -37.5q-20 0 -37.5 5.5
t-39.5 15.5q-4 2 -19.5 8t-27.5 6q-16 0 -24 -11t-10 -26h-78q6 57 37 95.5z" />
    <glyph glyph-name="f" unicode="f" horiz-adv-x="395" 
d="M376.5 618.5q-15.5 -12.5 -21.5 -29.5t-11 -46l-2 -14h115l-19 -121h-116l-79 -482q-9 -61 -51.5 -112.5t-149.5 -51.5q-26 0 -56 3.5t-38 7.5l17 107q24 -4 51 -4q30 0 45.5 12.5t21.5 29.5t11 46l73 444h-65l20 121h64l8 47q10 62 52 112.5t149 50.5q25 0 55 -3.5
t39 -6.5l-16 -102q-24 4 -51 4q-30 0 -45.5 -12.5z" />
    <glyph glyph-name="g" unicode="g" horiz-adv-x="609" 
d="M213 -221.5q-19 4.5 -27.5 8t-10.5 4.5l19 124q11 -4 33 -7.5t41 -3.5q67 0 98 38.5t40 92.5l10 61h-8q-21 -33 -62.5 -63t-107.5 -30q-80 0 -123.5 52.5t-43.5 143.5q0 95 33.5 173.5t92 123.5t129.5 45q65 0 98 -32t41 -63h8l14 83h156l-80 -494q-15 -91 -79.5 -176
t-216.5 -85q-35 0 -54 4.5zM384 154q30 26 47 68t17 89q0 45 -20 74.5t-64 29.5q-37 0 -67 -25t-47 -67t-17 -90q0 -46 20 -75.5t64 -29.5q37 0 67 26z" />
    <glyph glyph-name="gbreve" unicode="&#x11f;" horiz-adv-x="609" 
d="M213 -221.5q-19 4.5 -27.5 8t-10.5 4.5l19 124q11 -4 33 -7.5t41 -3.5q67 0 98 38.5t40 92.5l10 61h-8q-21 -33 -62.5 -63t-107.5 -30q-80 0 -123.5 52.5t-43.5 143.5q0 95 33.5 173.5t92 123.5t129.5 45q65 0 98 -32t41 -63h8l14 83h156l-80 -494q-15 -91 -79.5 -176
t-216.5 -85q-35 0 -54 4.5zM384 154q30 26 47 68t17 89q0 45 -20 74.5t-64 29.5q-37 0 -67 -25t-47 -67t-17 -90q0 -46 20 -75.5t64 -29.5q37 0 67 26zM228 730h124q5 -21 19.5 -33.5t39.5 -12.5t43.5 12.5t30.5 33.5h124q-83 -129 -211 -129q-129 0 -170 129z" />
    <glyph glyph-name="gdotaccent" unicode="&#x121;" horiz-adv-x="609" 
d="M213 -221.5q-19 4.5 -27.5 8t-10.5 4.5l19 124q11 -4 33 -7.5t41 -3.5q67 0 98 38.5t40 92.5l10 61h-8q-21 -33 -62.5 -63t-107.5 -30q-80 0 -123.5 52.5t-43.5 143.5q0 95 33.5 173.5t92 123.5t129.5 45q65 0 98 -32t41 -63h8l14 83h156l-80 -494q-15 -91 -79.5 -176
t-216.5 -85q-35 0 -54 4.5zM384 154q30 26 47 68t17 89q0 45 -20 74.5t-64 29.5q-37 0 -67 -25t-47 -67t-17 -90q0 -46 20 -75.5t64 -29.5q37 0 67 26zM349.5 637q-19.5 20 -19.5 49q0 40 30 70t70 30q32 0 51.5 -19.5t19.5 -49.5q0 -40 -30.5 -70t-70.5 -30q-31 0 -50.5 20
z" />
    <glyph glyph-name="h" unicode="h" horiz-adv-x="598" 
d="M172 742h157l-47 -290h7q24 37 66.5 62.5t97.5 25.5q85 0 119.5 -46t34.5 -113q0 -26 -5 -53l-53 -328h-156l50 301q2 10 2 30q0 39 -19 60.5t-58 21.5q-45 0 -73.5 -31t-36.5 -81l-50 -301h-156z" />
    <glyph glyph-name="hbar" unicode="&#x127;" horiz-adv-x="613" 
d="M596.5 495q30.5 -45 30.5 -107q0 -33 -5 -58l-53 -330h-156l50 304q3 17 3 35q0 74 -72 74q-51 0 -80 -33.5t-37 -85.5l-48 -294h-157l95 583h-63l16 100h63l11 68h156l-11 -68h95l-16 -100h-95l-23 -138h8q66 95 178 95q80 0 110.5 -45z" />
    <glyph glyph-name="i" unicode="i" horiz-adv-x="295" 
d="M156 529h155l-86 -529h-155zM196.5 637q-19.5 20 -19.5 49q0 40 30 70t70 30q32 0 51.5 -19.5t19.5 -49.5q0 -40 -30.5 -70t-70.5 -30q-31 0 -50.5 20z" />
    <glyph glyph-name="dotlessi" unicode="&#x131;" horiz-adv-x="295" 
d="M156 529h155l-86 -529h-155z" />
    <glyph glyph-name="iacute" unicode="&#xed;" horiz-adv-x="295" 
d="M156 529h155l-86 -529h-155zM187 606l133 200h153l-163 -201z" />
    <glyph glyph-name="icircumflex" unicode="&#xee;" horiz-adv-x="295" 
d="M156 529h155l-86 -529h-155zM215 754h112l121 -163h-141l-50 69h-4l-72 -69h-139z" />
    <glyph glyph-name="idieresis" unicode="&#xef;" horiz-adv-x="295" 
d="M156 529h155l-86 -529h-155zM340.5 637q-19.5 20 -19.5 49q0 40 30 70t70 30q32 0 51.5 -19.5t19.5 -49.5q0 -40 -30.5 -70t-70.5 -30q-31 0 -50.5 20zM68.5 637q-19.5 20 -19.5 49q0 40 30 70t70 30q32 0 51.5 -19.5t19.5 -49.5q0 -40 -30.5 -70t-70.5 -30
q-31 0 -50.5 20z" />
    <glyph glyph-name="i.loclTRK" horiz-adv-x="295" 
d="M156 529h155l-86 -529h-155zM196.5 637q-19.5 20 -19.5 49q0 40 30 70t70 30q32 0 51.5 -19.5t19.5 -49.5q0 -40 -30.5 -70t-70.5 -30q-31 0 -50.5 20z" />
    <glyph glyph-name="uni1ECB" unicode="&#x1ecb;" horiz-adv-x="295" 
d="M156 529h155l-86 -529h-155zM196.5 637q-19.5 20 -19.5 49q0 40 30 70t70 30q32 0 51.5 -19.5t19.5 -49.5q0 -40 -30.5 -70t-70.5 -30q-31 0 -50.5 20zM59 -232.5q-18 18.5 -18 46.5q0 37 28 64.5t65 27.5q30 0 48.5 -18t18.5 -46q0 -37 -28.5 -65t-65.5 -28
q-30 0 -48 18.5z" />
    <glyph glyph-name="igrave" unicode="&#xec;" horiz-adv-x="295" 
d="M156 529h155l-86 -529h-155zM84 806h153l69 -200l-123 -1z" />
    <glyph glyph-name="uni1EC9" unicode="&#x1ec9;" horiz-adv-x="295" 
d="M156 529h155l-86 -529h-155zM198 621q9 7 19.5 13.5t14.5 9.5q31 18 47 33.5t16 37.5q0 10 -6.5 16t-18.5 6q-15 0 -24.5 -8.5t-12.5 -22.5h-109q8 45 47.5 78.5t110.5 33.5q57 0 87 -24t30 -62q0 -40 -18.5 -62t-49.5 -41q-24 -15 -28 -24h-117q3 9 12 16z" />
    <glyph glyph-name="imacron" unicode="&#x12b;" horiz-adv-x="295" 
d="M156 529h155l-86 -529h-155zM95 684h327l-11 -70h-327z" />
    <glyph glyph-name="iogonek" unicode="&#x12f;" horiz-adv-x="295" 
d="M328.5 766.5q19.5 -19.5 19.5 -49.5q0 -40 -30.5 -70t-70.5 -30q-31 0 -50.5 20t-19.5 49q0 40 30 70t70 30q32 0 51.5 -19.5zM180 -29.5q-16 -14.5 -16 -37.5q0 -14 11.5 -23t34.5 -9q19 0 36 7l-13 -80q-4 -1 -16.5 -3.5t-40.5 -2.5q-57 0 -87 24t-30 62q0 52 45 92
h-34l86 529h155l-86 -529q-29 -15 -45 -29.5z" />
    <glyph glyph-name="itilde" unicode="&#x129;" horiz-adv-x="295" 
d="M156 529h155l-86 -529h-155zM114 712.5q31 38.5 91 38.5q19 0 37 -5.5t40 -15.5q12 -5 25 -9.5t22 -4.5q15 0 23.5 11t9.5 25h78q-6 -58 -36.5 -95.5t-90.5 -37.5q-20 0 -37.5 5.5t-39.5 15.5q-4 2 -19.5 8t-27.5 6q-16 0 -24 -11t-10 -26h-78q6 57 37 95.5z" />
    <glyph glyph-name="j" unicode="j" horiz-adv-x="292" 
d="M204.5 637q-19.5 20 -19.5 49q0 40 30 70t70 30q32 0 51.5 -19.5t19.5 -49.5q0 -40 -30.5 -70t-69.5 -30q-32 0 -51.5 20zM-81 -218l17 108q13 -4 43 -4q33 0 50.5 12t24 30t11.5 47l93 570h155l-100 -617q-8 -54 -49.5 -105.5t-153.5 -51.5q-50 0 -91 11z" />
    <glyph glyph-name="k" unicode="k" horiz-adv-x="576" 
d="M180 742h157l-67 -411h5l177 198h174l-217 -244l135 -285h-173l-108 253h-5l-42 -253h-157z" />
    <glyph glyph-name="l" unicode="l" horiz-adv-x="351" 
d="M111.5 25q-32.5 28 -32.5 78q0 16 3 36.5t4 26.5l95 584h156l-90 -552q-5 -28 -5 -45q0 -23 14 -34t52 -11q19 0 27 2l-18 -108q-45 -5 -87 -5q-86 0 -118.5 28z" />
    <glyph glyph-name="lacute" unicode="&#x13a;" horiz-adv-x="351" 
d="M111.5 25q-32.5 28 -32.5 78q0 16 3 36.5t4 26.5l95 584h156l-90 -552q-5 -28 -5 -45q0 -23 14 -34t52 -11q19 0 27 2l-18 -108q-45 -5 -87 -5q-86 0 -118.5 28zM209 819l133 200h153l-163 -201z" />
    <glyph glyph-name="lcaron" unicode="&#x13e;" horiz-adv-x="452" 
d="M449 744q0 -19 -2 -28l-8 -45q-24 -129 -143 -171l-49 -302q-5 -28 -5 -45q0 -23 14 -34t52 -11q19 0 27 2l-18 -108q-45 -5 -87 -5q-86 0 -118.5 28t-32.5 78q0 16 3 36.5t4 26.5l95 584h83q9 33 37.5 53.5t66.5 20.5q81 0 81 -80zM358 637q0 18 -9 24t-25 7l-19 -114
q53 31 53 83z" />
    <glyph glyph-name="m" unicode="m" horiz-adv-x="907" 
d="M138 529h155l-13 -82h8q6 13 25 34.5t53 40t79 18.5q50 0 79.5 -23t41.5 -49t12 -37h8q15 31 59 70t121 39q83 0 116 -49t33 -116q0 -20 -4 -46l-54 -329h-155l50 311q2 16 2 23q0 36 -19.5 54.5t-49.5 18.5q-35 0 -64.5 -25t-37.5 -71l-51 -311h-155l50 311q2 16 2 23
q0 36 -19.5 54.5t-49.5 18.5q-35 0 -64.5 -25t-37.5 -71l-51 -311h-155z" />
    <glyph glyph-name="n" unicode="n" horiz-adv-x="598" 
d="M138 529h156l-12 -77h7q24 37 66.5 62.5t97.5 25.5q85 0 119.5 -46t34.5 -113q0 -26 -5 -53l-53 -328h-156l50 301q2 11 2 30q0 39 -18.5 60.5t-57.5 21.5q-47 0 -75 -31t-36 -81l-50 -301h-156z" />
    <glyph glyph-name="nacute" unicode="&#x144;" horiz-adv-x="598" 
d="M138 529h156l-12 -77h7q24 37 66.5 62.5t97.5 25.5q85 0 119.5 -46t34.5 -113q0 -26 -5 -53l-53 -328h-156l50 301q2 11 2 30q0 39 -18.5 60.5t-57.5 21.5q-47 0 -75 -31t-36 -81l-50 -301h-156zM338 606l133 200h153l-163 -201z" />
    <glyph glyph-name="ncaron" unicode="&#x148;" horiz-adv-x="598" 
d="M138 529h156l-12 -77h7q24 37 66.5 62.5t97.5 25.5q85 0 119.5 -46t34.5 -113q0 -26 -5 -53l-53 -328h-156l50 301q2 11 2 30q0 39 -18.5 60.5t-57.5 21.5q-47 0 -75 -31t-36 -81l-50 -301h-156zM358 754l49 -69h4l73 69h141l-174 -163h-112l-120 163h139z" />
    <glyph glyph-name="ntilde" unicode="&#xf1;" horiz-adv-x="598" 
d="M138 529h156l-12 -77h7q24 37 66.5 62.5t97.5 25.5q85 0 119.5 -46t34.5 -113q0 -26 -5 -53l-53 -328h-156l50 301q2 11 2 30q0 39 -18.5 60.5t-57.5 21.5q-47 0 -75 -31t-36 -81l-50 -301h-156zM266 712.5q31 38.5 91 38.5q19 0 37 -5.5t40 -15.5q12 -5 25 -9.5t22 -4.5
q15 0 23.5 11t9.5 25h78q-6 -58 -36.5 -95.5t-90.5 -37.5q-20 0 -37.5 5.5t-39.5 15.5q-4 2 -19.5 8t-27.5 6q-16 0 -24 -11t-10 -26h-78q6 57 37 95.5z" />
    <glyph glyph-name="o" unicode="o" horiz-adv-x="580" 
d="M125 50.5q-54 59.5 -54 154.5t40 171.5t109.5 120t155.5 43.5q107 0 161 -60t54 -155q0 -94 -40 -170t-109.5 -120t-154.5 -44q-108 0 -162 59.5zM372.5 142.5q30.5 26.5 48 72t17.5 101.5q0 44 -20.5 71.5t-61.5 27.5q-37 0 -67 -25.5t-47.5 -70.5t-17.5 -101
q0 -45 20.5 -73.5t61.5 -28.5q36 0 66.5 26.5z" />
    <glyph glyph-name="oacute" unicode="&#xf3;" horiz-adv-x="580" 
d="M125 50.5q-54 59.5 -54 154.5t40 171.5t109.5 120t155.5 43.5q107 0 161 -60t54 -155q0 -94 -40 -170t-109.5 -120t-154.5 -44q-108 0 -162 59.5zM372.5 142.5q30.5 26.5 48 72t17.5 101.5q0 44 -20.5 71.5t-61.5 27.5q-37 0 -67 -25.5t-47.5 -70.5t-17.5 -101
q0 -45 20.5 -73.5t61.5 -28.5q36 0 66.5 26.5zM327 606l133 200h153l-163 -201z" />
    <glyph glyph-name="ocircumflex" unicode="&#xf4;" horiz-adv-x="580" 
d="M125 50.5q-54 59.5 -54 154.5t40 171.5t109.5 120t155.5 43.5q107 0 161 -60t54 -155q0 -94 -40 -170t-109.5 -120t-154.5 -44q-108 0 -162 59.5zM372.5 142.5q30.5 26.5 48 72t17.5 101.5q0 44 -20.5 71.5t-61.5 27.5q-37 0 -67 -25.5t-47.5 -70.5t-17.5 -101
q0 -45 20.5 -73.5t61.5 -28.5q36 0 66.5 26.5zM355 754h112l121 -163h-141l-50 69h-4l-72 -69h-139z" />
    <glyph glyph-name="uni1ED1" unicode="&#x1ed1;" horiz-adv-x="580" 
d="M125 50.5q-54 59.5 -54 154.5t40 171.5t109.5 120t155.5 43.5q107 0 161 -60t54 -155q0 -94 -40 -170t-109.5 -120t-154.5 -44q-108 0 -162 59.5zM372.5 142.5q30.5 26.5 48 72t17.5 101.5q0 44 -20.5 71.5t-61.5 27.5q-37 0 -67 -25.5t-47.5 -70.5t-17.5 -101
q0 -45 20.5 -73.5t61.5 -28.5q36 0 66.5 26.5zM354 754h112l121 -163h-141l-50 69h-4l-72 -69h-139zM526 722l133 200h153l-163 -201z" />
    <glyph glyph-name="uni1ED9" unicode="&#x1ed9;" horiz-adv-x="580" 
d="M125 50.5q-54 59.5 -54 154.5t40 171.5t109.5 120t155.5 43.5q107 0 161 -60t54 -155q0 -94 -40 -170t-109.5 -120t-154.5 -44q-108 0 -162 59.5zM372.5 142.5q30.5 26.5 48 72t17.5 101.5q0 44 -20.5 71.5t-61.5 27.5q-37 0 -67 -25.5t-47.5 -70.5t-17.5 -101
q0 -45 20.5 -73.5t61.5 -28.5q36 0 66.5 26.5zM199 -232.5q-18 18.5 -18 46.5q0 37 28 64.5t65 27.5q30 0 48.5 -18t18.5 -46q0 -37 -28.5 -65t-65.5 -28q-30 0 -48 18.5zM355 754h112l121 -163h-141l-50 69h-4l-72 -69h-139z" />
    <glyph glyph-name="uni1ED3" unicode="&#x1ed3;" horiz-adv-x="580" 
d="M125 50.5q-54 59.5 -54 154.5t40 171.5t109.5 120t155.5 43.5q107 0 161 -60t54 -155q0 -94 -40 -170t-109.5 -120t-154.5 -44q-108 0 -162 59.5zM372.5 142.5q30.5 26.5 48 72t17.5 101.5q0 44 -20.5 71.5t-61.5 27.5q-37 0 -67 -25.5t-47.5 -70.5t-17.5 -101
q0 -45 20.5 -73.5t61.5 -28.5q36 0 66.5 26.5zM355 754h112l121 -163h-141l-50 69h-4l-72 -69h-139zM444 922h153l69 -200l-123 -1z" />
    <glyph glyph-name="uni1ED5" unicode="&#x1ed5;" horiz-adv-x="580" 
d="M125 50.5q-54 59.5 -54 154.5t40 171.5t109.5 120t155.5 43.5q107 0 161 -60t54 -155q0 -94 -40 -170t-109.5 -120t-154.5 -44q-108 0 -162 59.5zM372.5 142.5q30.5 26.5 48 72t17.5 101.5q0 44 -20.5 71.5t-61.5 27.5q-37 0 -67 -25.5t-47.5 -70.5t-17.5 -101
q0 -45 20.5 -73.5t61.5 -28.5q36 0 66.5 26.5zM354 754h112l121 -163h-141l-50 69h-4l-72 -69h-139zM540 749q9 7 19.5 13.5t14.5 9.5q31 18 47 33.5t16 37.5q0 10 -6.5 16t-18.5 6q-15 0 -24.5 -8.5t-12.5 -22.5h-109q8 45 47.5 78.5t110.5 33.5q57 0 87 -24t30 -62
q0 -40 -18.5 -62t-49.5 -41q-24 -15 -28 -24h-117q3 9 12 16z" />
    <glyph glyph-name="uni1ED7" unicode="&#x1ed7;" horiz-adv-x="580" 
d="M125 50.5q-54 59.5 -54 154.5t40 171.5t109.5 120t155.5 43.5q107 0 161 -60t54 -155q0 -94 -40 -170t-109.5 -120t-154.5 -44q-108 0 -162 59.5zM372.5 142.5q30.5 26.5 48 72t17.5 101.5q0 44 -20.5 71.5t-61.5 27.5q-37 0 -67 -25.5t-47.5 -70.5t-17.5 -101
q0 -45 20.5 -73.5t61.5 -28.5q36 0 66.5 26.5zM353 754h112l121 -163h-141l-50 69h-4l-72 -69h-139zM278 895.5q31 38.5 91 38.5q19 0 37 -5.5t40 -15.5q12 -5 25 -9.5t22 -4.5q15 0 23.5 11t9.5 25h78q-6 -58 -36.5 -95.5t-90.5 -37.5q-20 0 -37.5 5.5t-39.5 15.5
q-4 2 -19.5 8t-27.5 6q-16 0 -24 -11t-10 -26h-78q6 57 37 95.5z" />
    <glyph glyph-name="odieresis" unicode="&#xf6;" horiz-adv-x="580" 
d="M125 50.5q-54 59.5 -54 154.5t40 171.5t109.5 120t155.5 43.5q107 0 161 -60t54 -155q0 -94 -40 -170t-109.5 -120t-154.5 -44q-108 0 -162 59.5zM372.5 142.5q30.5 26.5 48 72t17.5 101.5q0 44 -20.5 71.5t-61.5 27.5q-37 0 -67 -25.5t-47.5 -70.5t-17.5 -101
q0 -45 20.5 -73.5t61.5 -28.5q36 0 66.5 26.5zM480.5 637q-19.5 20 -19.5 49q0 40 30 70t70 30q32 0 51.5 -19.5t19.5 -49.5q0 -40 -30.5 -70t-70.5 -30q-31 0 -50.5 20zM208.5 637q-19.5 20 -19.5 49q0 40 30 70t70 30q32 0 51.5 -19.5t19.5 -49.5q0 -40 -30.5 -70
t-70.5 -30q-31 0 -50.5 20z" />
    <glyph glyph-name="uni1ECD" unicode="&#x1ecd;" horiz-adv-x="580" 
d="M125 50.5q-54 59.5 -54 154.5t40 171.5t109.5 120t155.5 43.5q107 0 161 -60t54 -155q0 -94 -40 -170t-109.5 -120t-154.5 -44q-108 0 -162 59.5zM372.5 142.5q30.5 26.5 48 72t17.5 101.5q0 44 -20.5 71.5t-61.5 27.5q-37 0 -67 -25.5t-47.5 -70.5t-17.5 -101
q0 -45 20.5 -73.5t61.5 -28.5q36 0 66.5 26.5zM199 -232.5q-18 18.5 -18 46.5q0 37 28 64.5t65 27.5q30 0 48.5 -18t18.5 -46q0 -37 -28.5 -65t-65.5 -28q-30 0 -48 18.5z" />
    <glyph glyph-name="ograve" unicode="&#xf2;" horiz-adv-x="580" 
d="M125 50.5q-54 59.5 -54 154.5t40 171.5t109.5 120t155.5 43.5q107 0 161 -60t54 -155q0 -94 -40 -170t-109.5 -120t-154.5 -44q-108 0 -162 59.5zM372.5 142.5q30.5 26.5 48 72t17.5 101.5q0 44 -20.5 71.5t-61.5 27.5q-37 0 -67 -25.5t-47.5 -70.5t-17.5 -101
q0 -45 20.5 -73.5t61.5 -28.5q36 0 66.5 26.5zM224 806h153l69 -200l-123 -1z" />
    <glyph glyph-name="uni1ECF" unicode="&#x1ecf;" horiz-adv-x="580" 
d="M125 50.5q-54 59.5 -54 154.5t40 171.5t109.5 120t155.5 43.5q107 0 161 -60t54 -155q0 -94 -40 -170t-109.5 -120t-154.5 -44q-108 0 -162 59.5zM372.5 142.5q30.5 26.5 48 72t17.5 101.5q0 44 -20.5 71.5t-61.5 27.5q-37 0 -67 -25.5t-47.5 -70.5t-17.5 -101
q0 -45 20.5 -73.5t61.5 -28.5q36 0 66.5 26.5zM338 621q9 7 19.5 13.5t14.5 9.5q31 18 47 33.5t16 37.5q0 10 -6.5 16t-18.5 6q-15 0 -24.5 -8.5t-12.5 -22.5h-109q8 45 47.5 78.5t110.5 33.5q57 0 87 -24t30 -62q0 -40 -18.5 -62t-49.5 -41q-24 -15 -28 -24h-117q3 9 12 16
z" />
    <glyph glyph-name="ohorn" unicode="&#x1a1;" horiz-adv-x="607" 
d="M702 638l-10 -61q-10 -60 -50.5 -85.5t-90.5 -28.5q40 -56 40 -138q0 -94 -40 -170t-109.5 -120t-154.5 -44q-108 0 -162 59.5t-54 154.5t40 171.5t109.5 120t155.5 43.5q53 0 92 -15l1 4h42q22 0 36 3.5t25 18.5t16 46l7 41h107zM372.5 142.5q30.5 26.5 48 72
t17.5 101.5q0 44 -20.5 71.5t-61.5 27.5q-37 0 -67 -25.5t-47.5 -70.5t-17.5 -101q0 -45 20.5 -73.5t61.5 -28.5q36 0 66.5 26.5z" />
    <glyph glyph-name="uni1EDB" unicode="&#x1edb;" horiz-adv-x="607" 
d="M702 638l-10 -61q-10 -60 -50.5 -85.5t-90.5 -28.5q40 -56 40 -138q0 -94 -40 -170t-109.5 -120t-154.5 -44q-108 0 -162 59.5t-54 154.5t40 171.5t109.5 120t155.5 43.5q53 0 92 -15l1 4h42q22 0 36 3.5t25 18.5t16 46l7 41h107zM372.5 142.5q30.5 26.5 48 72
t17.5 101.5q0 44 -20.5 71.5t-61.5 27.5q-37 0 -67 -25.5t-47.5 -70.5t-17.5 -101q0 -45 20.5 -73.5t61.5 -28.5q36 0 66.5 26.5zM327 606l133 200h153l-163 -201z" />
    <glyph glyph-name="uni1EE3" unicode="&#x1ee3;" horiz-adv-x="607" 
d="M702 638l-10 -61q-10 -60 -50.5 -85.5t-90.5 -28.5q40 -56 40 -138q0 -94 -40 -170t-109.5 -120t-154.5 -44q-108 0 -162 59.5t-54 154.5t40 171.5t109.5 120t155.5 43.5q53 0 92 -15l1 4h42q22 0 36 3.5t25 18.5t16 46l7 41h107zM372.5 142.5q30.5 26.5 48 72
t17.5 101.5q0 44 -20.5 71.5t-61.5 27.5q-37 0 -67 -25.5t-47.5 -70.5t-17.5 -101q0 -45 20.5 -73.5t61.5 -28.5q36 0 66.5 26.5zM199 -232.5q-18 18.5 -18 46.5q0 37 28 64.5t65 27.5q30 0 48.5 -18t18.5 -46q0 -37 -28.5 -65t-65.5 -28q-30 0 -48 18.5z" />
    <glyph glyph-name="uni1EDD" unicode="&#x1edd;" horiz-adv-x="607" 
d="M702 638l-10 -61q-10 -60 -50.5 -85.5t-90.5 -28.5q40 -56 40 -138q0 -94 -40 -170t-109.5 -120t-154.5 -44q-108 0 -162 59.5t-54 154.5t40 171.5t109.5 120t155.5 43.5q53 0 92 -15l1 4h42q22 0 36 3.5t25 18.5t16 46l7 41h107zM372.5 142.5q30.5 26.5 48 72
t17.5 101.5q0 44 -20.5 71.5t-61.5 27.5q-37 0 -67 -25.5t-47.5 -70.5t-17.5 -101q0 -45 20.5 -73.5t61.5 -28.5q36 0 66.5 26.5zM224 806h153l69 -200l-123 -1z" />
    <glyph glyph-name="uni1EDF" unicode="&#x1edf;" horiz-adv-x="607" 
d="M702 638l-10 -61q-10 -60 -50.5 -85.5t-90.5 -28.5q40 -56 40 -138q0 -94 -40 -170t-109.5 -120t-154.5 -44q-108 0 -162 59.5t-54 154.5t40 171.5t109.5 120t155.5 43.5q53 0 92 -15l1 4h42q22 0 36 3.5t25 18.5t16 46l7 41h107zM372.5 142.5q30.5 26.5 48 72
t17.5 101.5q0 44 -20.5 71.5t-61.5 27.5q-37 0 -67 -25.5t-47.5 -70.5t-17.5 -101q0 -45 20.5 -73.5t61.5 -28.5q36 0 66.5 26.5zM338 621q9 7 19.5 13.5t14.5 9.5q31 18 47 33.5t16 37.5q0 10 -6.5 16t-18.5 6q-15 0 -24.5 -8.5t-12.5 -22.5h-109q8 45 47.5 78.5
t110.5 33.5q57 0 87 -24t30 -62q0 -40 -18.5 -62t-49.5 -41q-24 -15 -28 -24h-117q3 9 12 16z" />
    <glyph glyph-name="uni1EE1" unicode="&#x1ee1;" horiz-adv-x="607" 
d="M702 638l-10 -61q-10 -60 -50.5 -85.5t-90.5 -28.5q40 -56 40 -138q0 -94 -40 -170t-109.5 -120t-154.5 -44q-108 0 -162 59.5t-54 154.5t40 171.5t109.5 120t155.5 43.5q53 0 92 -15l1 4h42q22 0 36 3.5t25 18.5t16 46l7 41h107zM372.5 142.5q30.5 26.5 48 72
t17.5 101.5q0 44 -20.5 71.5t-61.5 27.5q-37 0 -67 -25.5t-47.5 -70.5t-17.5 -101q0 -45 20.5 -73.5t61.5 -28.5q36 0 66.5 26.5zM254 712.5q31 38.5 91 38.5q19 0 37 -5.5t40 -15.5q12 -5 25 -9.5t22 -4.5q15 0 23.5 11t9.5 25h78q-6 -58 -36.5 -95.5t-90.5 -37.5
q-20 0 -37.5 5.5t-39.5 15.5q-4 2 -19.5 8t-27.5 6q-16 0 -24 -11t-10 -26h-78q6 57 37 95.5z" />
    <glyph glyph-name="omacron" unicode="&#x14d;" horiz-adv-x="580" 
d="M125 50.5q-54 59.5 -54 154.5t40 171.5t109.5 120t155.5 43.5q107 0 161 -60t54 -155q0 -94 -40 -170t-109.5 -120t-154.5 -44q-108 0 -162 59.5zM372.5 142.5q30.5 26.5 48 72t17.5 101.5q0 44 -20.5 71.5t-61.5 27.5q-37 0 -67 -25.5t-47.5 -70.5t-17.5 -101
q0 -45 20.5 -73.5t61.5 -28.5q36 0 66.5 26.5zM235 684h327l-11 -70h-327z" />
    <glyph glyph-name="oslash" unicode="&#xf8;" horiz-adv-x="584" 
d="M540 477q51 -57 51 -152q0 -94 -40 -170t-109.5 -120t-154.5 -44q-53 0 -92 15l-29 -40h-107l64 87q-52 56 -52 153q0 95 40 171t109.5 119.5t155.5 43.5q53 0 92 -15l38 52h107zM226 194l158 217q-11 4 -28 4q-37 0 -67 -25.5t-47.5 -70.5t-17.5 -100q0 -9 2 -25z
M437 336l-158 -215q11 -4 27 -4q37 0 67 26t47.5 71.5t17.5 101.5q0 14 -1 20z" />
    <glyph glyph-name="otilde" unicode="&#xf5;" horiz-adv-x="580" 
d="M125 50.5q-54 59.5 -54 154.5t40 171.5t109.5 120t155.5 43.5q107 0 161 -60t54 -155q0 -94 -40 -170t-109.5 -120t-154.5 -44q-108 0 -162 59.5zM372.5 142.5q30.5 26.5 48 72t17.5 101.5q0 44 -20.5 71.5t-61.5 27.5q-37 0 -67 -25.5t-47.5 -70.5t-17.5 -101
q0 -45 20.5 -73.5t61.5 -28.5q36 0 66.5 26.5zM254 712.5q31 38.5 91 38.5q19 0 37 -5.5t40 -15.5q12 -5 25 -9.5t22 -4.5q15 0 23.5 11t9.5 25h78q-6 -58 -36.5 -95.5t-90.5 -37.5q-20 0 -37.5 5.5t-39.5 15.5q-4 2 -19.5 8t-27.5 6q-16 0 -24 -11t-10 -26h-78
q6 57 37 95.5z" />
    <glyph glyph-name="oe" unicode="&#x153;" horiz-adv-x="931" 
d="M127 49q-53 60 -53 155q0 93 39.5 169.5t108 120.5t151.5 44q62 0 105.5 -23.5t61.5 -61.5h8q29 38 79 62.5t114 24.5q93 0 147 -53t54 -153q0 -31 -6 -69l-6 -43h-342l-1 -8q-1 -6 -1 -17q0 -36 22 -59.5t61 -23.5q32 0 58 15.5t41 41.5h149q-32 -78 -103 -129t-164 -51
q-61 0 -103 23.5t-60 59.5h-8q-29 -36 -81 -60.5t-115 -24.5q-103 0 -156 60zM801 322q2 18 2 25q0 41 -22 61t-60 20q-44 0 -75.5 -28t-41.5 -78h197zM371.5 140.5q30.5 26.5 48 72t17.5 100.5q0 45 -20.5 72.5t-61.5 27.5q-36 0 -66 -26t-47.5 -71t-17.5 -100
q0 -46 20.5 -74t60.5 -28q36 0 66.5 26.5z" />
    <glyph glyph-name="p" unicode="p" horiz-adv-x="612" 
d="M229 85h-7l-48 -294h-157l120 738h157l-13 -78h8q17 29 59.5 59t108.5 30q82 0 125 -52t43 -145q0 -99 -33.5 -179.5t-92 -126.5t-130.5 -46q-105 0 -140 94zM398 140q31 26 49 70.5t18 98.5q0 46 -20.5 75t-64.5 29q-37 0 -67.5 -25.5t-48.5 -69.5t-18 -97
q0 -46 20.5 -76.5t63.5 -30.5q37 0 68 26z" />
    <glyph glyph-name="thorn" unicode="&#xfe;" horiz-adv-x="620" 
d="M271.5 21.5q-31.5 30.5 -42.5 63.5h-8l-53 -329h-157l162 995h157l-49 -299h8q17 29 59 58.5t109 29.5q82 0 125 -52t43 -145q0 -99 -33.5 -179.5t-92 -126.5t-130.5 -46q-66 0 -97.5 30.5zM398 140q31 26 49 70.5t18 98.5q0 46 -20.5 75t-64.5 29q-37 0 -67.5 -25.5
t-48.5 -69.5t-18 -97q0 -46 20.5 -76.5t63.5 -30.5q37 0 68 26z" />
    <glyph glyph-name="q" unicode="q" horiz-adv-x="610" 
d="M113 44q-43 53 -43 145q0 99 33.5 179t92.5 126t131 46q67 0 99.5 -30t40.5 -59h7l13 78h157l-120 -738h-157l49 294h-8q-22 -34 -63.5 -64t-107.5 -30q-81 0 -124 53zM382 140q31 26 49 70.5t18 97.5q0 45 -20.5 75t-64.5 30q-37 0 -67.5 -25.5t-48 -70t-17.5 -98.5
q0 -46 20.5 -75.5t63.5 -29.5q36 0 67 26z" />
    <glyph glyph-name="r" unicode="r" horiz-adv-x="399" 
d="M143 529h155l-13 -84h7q18 35 57.5 59.5t96.5 24.5q18 0 31 -3l-29 -143q-13 5 -23.5 6.5t-27.5 1.5q-65 0 -98.5 -32.5t-44.5 -105.5l-42 -253h-155z" />
    <glyph glyph-name="racute" unicode="&#x155;" horiz-adv-x="399" 
d="M143 529h155l-13 -84h7q18 35 57.5 59.5t96.5 24.5q18 0 31 -3l-29 -143q-13 5 -23.5 6.5t-27.5 1.5q-65 0 -98.5 -32.5t-44.5 -105.5l-42 -253h-155zM259 606l133 200h153l-163 -201z" />
    <glyph glyph-name="rcaron" unicode="&#x159;" horiz-adv-x="399" 
d="M143 529h155l-13 -84h7q18 35 57.5 59.5t96.5 24.5q18 0 31 -3l-29 -143q-13 5 -23.5 6.5t-27.5 1.5q-65 0 -98.5 -32.5t-44.5 -105.5l-42 -253h-155zM279 754l49 -69h4l73 69h141l-174 -163h-112l-120 163h139z" />
    <glyph glyph-name="s" unicode="s" horiz-adv-x="493" 
d="M147 12q-43 21 -64.5 55.5t-21.5 74.5q0 9 2 25l1 7h150l-1 -6q-1 -24 13.5 -41t46.5 -17q31 0 51 16t20 40q0 17 -14 27.5t-34 13.5l-56 12q-49 9 -91 39.5t-42 92.5q0 55 29.5 98t81.5 67t117 24q59 0 100.5 -20t62 -53t20.5 -72q0 -12 -1 -18l-1 -5h-151v3
q0 22 -11.5 38t-41.5 16q-29 0 -47.5 -15.5t-18.5 -39.5q0 -18 15.5 -28t41.5 -15l60 -14q55 -12 91 -43.5t36 -85.5q0 -55 -31.5 -100t-86 -71t-121.5 -26q-61 0 -104 21z" />
    <glyph glyph-name="sacute" unicode="&#x15b;" horiz-adv-x="493" 
d="M147 12q-43 21 -64.5 55.5t-21.5 74.5q0 9 2 25l1 7h150l-1 -6q-1 -24 13.5 -41t46.5 -17q31 0 51 16t20 40q0 17 -14 27.5t-34 13.5l-56 12q-49 9 -91 39.5t-42 92.5q0 55 29.5 98t81.5 67t117 24q59 0 100.5 -20t62 -53t20.5 -72q0 -12 -1 -18l-1 -5h-151v3
q0 22 -11.5 38t-41.5 16q-29 0 -47.5 -15.5t-18.5 -39.5q0 -18 15.5 -28t41.5 -15l60 -14q55 -12 91 -43.5t36 -85.5q0 -55 -31.5 -100t-86 -71t-121.5 -26q-61 0 -104 21zM296 622l133 200h153l-163 -201z" />
    <glyph glyph-name="scaron" unicode="&#x161;" horiz-adv-x="493" 
d="M147 12q-43 21 -64.5 55.5t-21.5 74.5q0 9 2 25l1 7h150l-1 -6q-1 -24 13.5 -41t46.5 -17q31 0 51 16t20 40q0 17 -14 27.5t-34 13.5l-56 12q-49 9 -91 39.5t-42 92.5q0 55 29.5 98t81.5 67t117 24q59 0 100.5 -20t62 -53t20.5 -72q0 -12 -1 -18l-1 -5h-151v3
q0 22 -11.5 38t-41.5 16q-29 0 -47.5 -15.5t-18.5 -39.5q0 -18 15.5 -28t41.5 -15l60 -14q55 -12 91 -43.5t36 -85.5q0 -55 -31.5 -100t-86 -71t-121.5 -26q-61 0 -104 21zM315 770l49 -69h4l73 69h141l-174 -163h-112l-120 163h139z" />
    <glyph glyph-name="scedilla" unicode="&#x15f;" horiz-adv-x="493" 
d="M435.5 520q41.5 -20 62 -53t20.5 -72q0 -12 -1 -18l-1 -5h-151v3q0 22 -11.5 38t-41.5 16q-29 0 -47.5 -15.5t-18.5 -39.5q0 -18 15.5 -28t41.5 -15l60 -14q55 -12 91 -43.5t36 -85.5q0 -74 -54 -127.5t-139 -66.5l-16 -32h12q43 0 65 -22.5t22 -57.5q0 -36 -19 -65.5
t-51.5 -47t-72.5 -17.5q-44 0 -71 16l13 74q37 -10 69 -10q29 0 45 11.5t16 30.5q0 12 -10 18t-25 6h-92l1 3l38 91q-77 8 -118.5 50.5t-41.5 99.5q0 9 2 25l1 7h150l-1 -6q-1 -24 13.5 -41t46.5 -17q31 0 51 16t20 40q0 17 -14 27.5t-34 13.5l-56 12q-49 9 -91 39.5
t-42 92.5q0 55 29.5 98t81.5 67t117 24q59 0 100.5 -20z" />
    <glyph glyph-name="germandbls" unicode="&#xdf;" horiz-adv-x="604" 
d="M286 494l-80 -495h-155l78 480q17 112 86.5 175.5t193.5 63.5q117 0 168.5 -49t51.5 -119q0 -61 -28 -99.5t-59.5 -56t-39.5 -17.5l-1 -6q6 0 29 -14t43 -44t20 -77q0 -66 -36.5 -122.5t-99 -90t-135.5 -33.5q-25 0 -67 6l21 128q16 -4 38 -4q64 0 102.5 34t38.5 90
q0 45 -32 61t-69 16h-51l18 113h56q50 0 78.5 26t28.5 71q0 33 -22.5 48.5t-61.5 15.5q-99 0 -114 -101z" />
    <glyph glyph-name="t" unicode="t" horiz-adv-x="434" 
d="M299 196q-1 -8 -3 -21.5t-2 -22.5q0 -23 14.5 -33.5t52.5 -10.5q17 0 41 4l-18 -108q-11 -2 -41.5 -4.5t-59.5 -2.5q-86 0 -118.5 27.5t-32.5 76.5q0 21 6 61l40 246h-84l19 121h85l28 171h155l-28 -171h116l-19 -121h-117z" />
    <glyph glyph-name="tbar" unicode="&#x167;" horiz-adv-x="430" 
d="M334 408l-13 -78h116l-13 -84h-116l-8 -48q-5 -28 -5 -44q0 -23 14 -34.5t52 -11.5q20 0 40 4l-17 -108q-11 -2 -41.5 -4.5t-59.5 -2.5q-86 0 -118.5 28.5t-32.5 78.5q0 16 3 36t4 26l13 80h-84l13 84h85l12 78h-84l19 121h85l28 171h155l-28 -171h116l-19 -121h-116z
" />
    <glyph glyph-name="tcaron" unicode="&#x165;" horiz-adv-x="579" 
d="M558 801.5q19 -22.5 19 -56.5q0 -15 -3 -29l-8 -45q-19 -102 -98 -150l-18 -113h-117l-34 -212q-1 -8 -3 -21.5t-2 -22.5q0 -23 14.5 -33.5t52.5 -10.5q17 0 41 4l-18 -108q-11 -2 -41.5 -4.5t-59.5 -2.5q-86 0 -118.5 27.5t-32.5 76.5q0 21 6 61l40 246h-84l19 121h85
l28 171h155l-28 -171h43l2 9q42 15 64.5 40.5t22.5 58.5q0 20 -10 25t-32 6q-31 1 -43.5 16.5t-12.5 36.5q0 44 31 73.5t77 29.5q44 0 63 -22.5z" />
    <glyph glyph-name="uni0163" unicode="&#x163;" horiz-adv-x="434" 
d="M299 196q-1 -8 -3 -21.5t-2 -22.5q0 -23 14.5 -33.5t52.5 -10.5q17 0 41 4l-18 -108q-11 -2 -41.5 -4.5t-59.5 -2.5h-2l-15 -31h12q43 0 65 -22.5t22 -57.5q0 -36 -19 -65.5t-51.5 -47t-72.5 -17.5q-44 0 -71 16l13 74q37 -10 69 -10q29 0 45 11.5t16 30.5q0 12 -10 18
t-25 6h-92l1 3l41 100q-43 10 -60.5 35t-17.5 61q0 16 3 36t4 25l40 246h-84l19 121h85l28 171h155l-28 -171h116l-19 -121h-117z" />
    <glyph glyph-name="u" unicode="u" horiz-adv-x="588" 
d="M538 0h-157l13 79h-7q-24 -37 -65 -63t-94 -26q-83 0 -116 45t-33 111q0 29 5 57l53 326h155l-49 -300q-3 -16 -3 -33q0 -36 17.5 -57t53.5 -21q46 0 72.5 31.5t34.5 79.5l49 300h157z" />
    <glyph glyph-name="uacute" unicode="&#xfa;" horiz-adv-x="588" 
d="M538 0h-157l13 79h-7q-24 -37 -65 -63t-94 -26q-83 0 -116 45t-33 111q0 29 5 57l53 326h155l-49 -300q-3 -16 -3 -33q0 -36 17.5 -57t53.5 -21q46 0 72.5 31.5t34.5 79.5l49 300h157zM326 606l133 200h153l-163 -201z" />
    <glyph glyph-name="ucircumflex" unicode="&#xfb;" horiz-adv-x="588" 
d="M538 0h-157l13 79h-7q-24 -37 -65 -63t-94 -26q-83 0 -116 45t-33 111q0 29 5 57l53 326h155l-49 -300q-3 -16 -3 -33q0 -36 17.5 -57t53.5 -21q46 0 72.5 31.5t34.5 79.5l49 300h157zM355 754h112l121 -163h-141l-50 69h-4l-72 -69h-139z" />
    <glyph glyph-name="udieresis" unicode="&#xfc;" horiz-adv-x="588" 
d="M538 0h-157l13 79h-7q-24 -37 -65 -63t-94 -26q-83 0 -116 45t-33 111q0 29 5 57l53 326h155l-49 -300q-3 -16 -3 -33q0 -36 17.5 -57t53.5 -21q46 0 72.5 31.5t34.5 79.5l49 300h157zM479.5 637q-19.5 20 -19.5 49q0 40 30 70t70 30q32 0 51.5 -19.5t19.5 -49.5
q0 -40 -30.5 -70t-70.5 -30q-31 0 -50.5 20zM207.5 637q-19.5 20 -19.5 49q0 40 30 70t70 30q32 0 51.5 -19.5t19.5 -49.5q0 -40 -30.5 -70t-70.5 -30q-31 0 -50.5 20z" />
    <glyph glyph-name="uni1EE5" unicode="&#x1ee5;" horiz-adv-x="588" 
d="M538 0h-157l13 79h-7q-24 -37 -65 -63t-94 -26q-83 0 -116 45t-33 111q0 29 5 57l53 326h155l-49 -300q-3 -16 -3 -33q0 -36 17.5 -57t53.5 -21q46 0 72.5 31.5t34.5 79.5l49 300h157zM202 -232.5q-18 18.5 -18 46.5q0 37 28 64.5t65 27.5q30 0 48.5 -18t18.5 -46
q0 -37 -28.5 -65t-65.5 -28q-30 0 -48 18.5z" />
    <glyph glyph-name="ugrave" unicode="&#xf9;" horiz-adv-x="588" 
d="M538 0h-157l13 79h-7q-24 -37 -65 -63t-94 -26q-83 0 -116 45t-33 111q0 29 5 57l53 326h155l-49 -300q-3 -16 -3 -33q0 -36 17.5 -57t53.5 -21q46 0 72.5 31.5t34.5 79.5l49 300h157zM223 806h153l69 -200l-123 -1z" />
    <glyph glyph-name="uni1EE7" unicode="&#x1ee7;" horiz-adv-x="588" 
d="M538 0h-157l13 79h-7q-24 -37 -65 -63t-94 -26q-83 0 -116 45t-33 111q0 29 5 57l53 326h155l-49 -300q-3 -16 -3 -33q0 -36 17.5 -57t53.5 -21q46 0 72.5 31.5t34.5 79.5l49 300h157zM337 621q9 7 19.5 13.5t14.5 9.5q31 18 47 33.5t16 37.5q0 10 -6.5 16t-18.5 6
q-15 0 -24.5 -8.5t-12.5 -22.5h-109q8 45 47.5 78.5t110.5 33.5q57 0 87 -24t30 -62q0 -40 -18.5 -62t-49.5 -41q-24 -15 -28 -24h-117q3 9 12 16z" />
    <glyph glyph-name="uhorn" unicode="&#x1b0;" horiz-adv-x="588" 
d="M760 638l-10 -61q-10 -59 -49 -84.5t-88 -29.5l-75 -463h-157l13 79h-7q-24 -37 -65 -63t-94 -26q-83 0 -116 45t-33 111q0 29 5 57l53 326h155l-49 -300q-3 -16 -3 -33q0 -36 17.5 -57t53.5 -21q46 0 72.5 31.5t34.5 79.5l49 300h102q22 0 36 3.5t25 18.5t16 46l6 41
h108z" />
    <glyph glyph-name="uni1EE9" unicode="&#x1ee9;" horiz-adv-x="588" 
d="M760 638l-10 -61q-10 -59 -49 -84.5t-88 -29.5l-75 -463h-157l13 79h-7q-24 -37 -65 -63t-94 -26q-83 0 -116 45t-33 111q0 29 5 57l53 326h155l-49 -300q-3 -16 -3 -33q0 -36 17.5 -57t53.5 -21q46 0 72.5 31.5t34.5 79.5l49 300h102q22 0 36 3.5t25 18.5t16 46l6 41
h108zM326 606l133 200h153l-163 -201z" />
    <glyph glyph-name="uni1EF1" unicode="&#x1ef1;" horiz-adv-x="588" 
d="M174 -232.5q-18 18.5 -18 46.5q0 37 28 64.5t65 27.5q30 0 48.5 -18t18.5 -46q0 -37 -28.5 -65t-65.5 -28q-30 0 -48 18.5zM760 638l-10 -61q-10 -59 -49 -84.5t-88 -29.5l-75 -463h-157l13 79h-7q-24 -37 -65 -63t-94 -26q-83 0 -116 45t-33 111q0 29 5 57l53 326h155
l-49 -300q-3 -16 -3 -33q0 -36 17.5 -57t53.5 -21q46 0 72.5 31.5t34.5 79.5l49 300h102q22 0 36 3.5t25 18.5t16 46l6 41h108z" />
    <glyph glyph-name="uni1EEB" unicode="&#x1eeb;" horiz-adv-x="588" 
d="M196 806h153l69 -200l-123 -1zM760 638l-10 -61q-10 -59 -49 -84.5t-88 -29.5l-75 -463h-157l13 79h-7q-24 -37 -65 -63t-94 -26q-83 0 -116 45t-33 111q0 29 5 57l53 326h155l-49 -300q-3 -16 -3 -33q0 -36 17.5 -57t53.5 -21q46 0 72.5 31.5t34.5 79.5l49 300h102
q22 0 36 3.5t25 18.5t16 46l6 41h108z" />
    <glyph glyph-name="uni1EED" unicode="&#x1eed;" horiz-adv-x="588" 
d="M760 638l-10 -61q-10 -59 -49 -84.5t-88 -29.5l-75 -463h-157l13 79h-7q-24 -37 -65 -63t-94 -26q-83 0 -116 45t-33 111q0 29 5 57l53 326h155l-49 -300q-3 -16 -3 -33q0 -36 17.5 -57t53.5 -21q46 0 72.5 31.5t34.5 79.5l49 300h102q22 0 36 3.5t25 18.5t16 46l6 41
h108zM337 621q9 7 19.5 13.5t14.5 9.5q31 18 47 33.5t16 37.5q0 10 -6.5 16t-18.5 6q-15 0 -24.5 -8.5t-12.5 -22.5h-109q8 45 47.5 78.5t110.5 33.5q57 0 87 -24t30 -62q0 -40 -18.5 -62t-49.5 -41q-24 -15 -28 -24h-117q3 9 12 16z" />
    <glyph glyph-name="uni1EEF" unicode="&#x1eef;" horiz-adv-x="588" 
d="M760 638l-10 -61q-10 -59 -49 -84.5t-88 -29.5l-75 -463h-157l13 79h-7q-24 -37 -65 -63t-94 -26q-83 0 -116 45t-33 111q0 29 5 57l53 326h155l-49 -300q-3 -16 -3 -33q0 -36 17.5 -57t53.5 -21q46 0 72.5 31.5t34.5 79.5l49 300h102q22 0 36 3.5t25 18.5t16 46l6 41
h108zM253 712.5q31 38.5 91 38.5q19 0 37 -5.5t40 -15.5q12 -5 25 -9.5t22 -4.5q15 0 23.5 11t9.5 25h78q-6 -58 -36.5 -95.5t-90.5 -37.5q-20 0 -37.5 5.5t-39.5 15.5q-4 2 -19.5 8t-27.5 6q-16 0 -24 -11t-10 -26h-78q6 57 37 95.5z" />
    <glyph glyph-name="umacron" unicode="&#x16b;" horiz-adv-x="588" 
d="M538 0h-157l13 79h-7q-24 -37 -65 -63t-94 -26q-83 0 -116 45t-33 111q0 29 5 57l53 326h155l-49 -300q-3 -16 -3 -33q0 -36 17.5 -57t53.5 -21q46 0 72.5 31.5t34.5 79.5l49 300h157zM234 684h327l-11 -70h-327z" />
    <glyph glyph-name="uogonek" unicode="&#x173;" horiz-adv-x="588" 
d="M485.5 -90q11.5 -9 34.5 -9q18 0 36 7l-13 -80q-4 -1 -16.5 -3.5t-40.5 -2.5q-57 0 -87 24t-30 62q0 52 45 92h-33l13 79h-7q-24 -37 -65 -63t-94 -26q-83 0 -116 45t-33 111q0 29 5 57l53 326h155l-49 -300q-3 -16 -3 -33q0 -36 17.5 -57t53.5 -21q46 0 72.5 31.5
t34.5 79.5l49 300h157l-86 -529h-3q-29 -15 -45 -29.5t-16 -37.5q0 -14 11.5 -23z" />
    <glyph glyph-name="uring" unicode="&#x16f;" horiz-adv-x="588" 
d="M538 0h-157l13 79h-7q-24 -37 -65 -63t-94 -26q-83 0 -116 45t-33 111q0 29 5 57l53 326h155l-49 -300q-3 -16 -3 -33q0 -36 17.5 -57t53.5 -21q46 0 72.5 31.5t34.5 79.5l49 300h157zM322 622q-25 25 -25 62q0 30 17 57.5t45 44.5t59 17q38 0 63 -25t25 -62
q0 -30 -17 -57.5t-45.5 -44.5t-58.5 -17q-38 0 -63 25zM427.5 674q14.5 14 14.5 33q0 14 -10 23.5t-24 9.5q-19 0 -33 -14t-14 -33q0 -14 9.5 -23.5t24.5 -9.5q18 0 32.5 14z" />
    <glyph glyph-name="utilde" unicode="&#x169;" horiz-adv-x="588" 
d="M538 0h-157l13 79h-7q-24 -37 -65 -63t-94 -26q-83 0 -116 45t-33 111q0 29 5 57l53 326h155l-49 -300q-3 -16 -3 -33q0 -36 17.5 -57t53.5 -21q46 0 72.5 31.5t34.5 79.5l49 300h157zM253 712.5q31 38.5 91 38.5q19 0 37 -5.5t40 -15.5q12 -5 25 -9.5t22 -4.5
q15 0 23.5 11t9.5 25h78q-6 -58 -36.5 -95.5t-90.5 -37.5q-20 0 -37.5 5.5t-39.5 15.5q-4 2 -19.5 8t-27.5 6q-16 0 -24 -11t-10 -26h-78q6 57 37 95.5z" />
    <glyph glyph-name="v" unicode="v" horiz-adv-x="558" 
d="M101 529h146l55 -372h6l174 372h147l-257 -529h-187z" />
    <glyph glyph-name="w" unicode="w" horiz-adv-x="824" 
d="M102 529h144l22 -361h6l156 361h137l41 -361h6l137 361h144l-218 -529h-186l-25 295h-7l-122 -295h-187z" />
    <glyph glyph-name="wacute" unicode="&#x1e83;" horiz-adv-x="824" 
d="M102 529h144l22 -361h6l156 361h137l41 -361h6l137 361h144l-218 -529h-186l-25 295h-7l-122 -295h-187zM453 606l133 200h153l-163 -201z" />
    <glyph glyph-name="wcircumflex" unicode="&#x175;" horiz-adv-x="824" 
d="M102 529h144l22 -361h6l156 361h137l41 -361h6l137 361h144l-218 -529h-186l-25 295h-7l-122 -295h-187zM482 754h112l121 -163h-141l-50 69h-4l-72 -69h-139z" />
    <glyph glyph-name="wdieresis" unicode="&#x1e85;" horiz-adv-x="824" 
d="M102 529h144l22 -361h6l156 361h137l41 -361h6l137 361h144l-218 -529h-186l-25 295h-7l-122 -295h-187zM606.5 637q-19.5 20 -19.5 49q0 40 30 70t70 30q32 0 51.5 -19.5t19.5 -49.5q0 -40 -30.5 -70t-70.5 -30q-31 0 -50.5 20zM334.5 637q-19.5 20 -19.5 49q0 40 30 70
t70 30q32 0 51.5 -19.5t19.5 -49.5q0 -40 -30.5 -70t-70.5 -30q-31 0 -50.5 20z" />
    <glyph glyph-name="wgrave" unicode="&#x1e81;" horiz-adv-x="824" 
d="M102 529h144l22 -361h6l156 361h137l41 -361h6l137 361h144l-218 -529h-186l-25 295h-7l-122 -295h-187zM350 806h153l69 -200l-123 -1z" />
    <glyph glyph-name="x" unicode="x" horiz-adv-x="582" 
d="M224 264l-114 265h170l60 -171h4l118 171h169l-204 -265l117 -264h-169l-60 171h-5l-116 -171h-170z" />
    <glyph glyph-name="y" unicode="y" horiz-adv-x="532" 
d="M260 -143q-21 -30 -68.5 -58.5t-117.5 -28.5q-29 0 -49.5 5t-26.5 6l18 108q20 -4 41 -4q47 0 72.5 21t49.5 65l21 37l-104 521h158l46 -350h6l165 350h157l-327 -605q-20 -37 -41 -67z" />
    <glyph glyph-name="yacute" unicode="&#xfd;" horiz-adv-x="532" 
d="M260 -143q-21 -30 -68.5 -58.5t-117.5 -28.5q-29 0 -49.5 5t-26.5 6l18 108q20 -4 41 -4q47 0 72.5 21t49.5 65l21 37l-104 521h158l46 -350h6l165 350h157l-327 -605q-20 -37 -41 -67zM313 606l133 200h153l-163 -201z" />
    <glyph glyph-name="ycircumflex" unicode="&#x177;" horiz-adv-x="532" 
d="M260 -143q-21 -30 -68.5 -58.5t-117.5 -28.5q-29 0 -49.5 5t-26.5 6l18 108q20 -4 41 -4q47 0 72.5 21t49.5 65l21 37l-104 521h158l46 -350h6l165 350h157l-327 -605q-20 -37 -41 -67zM342 754h112l121 -163h-141l-50 69h-4l-72 -69h-139z" />
    <glyph glyph-name="ydieresis" unicode="&#xff;" horiz-adv-x="532" 
d="M260 -143q-21 -30 -68.5 -58.5t-117.5 -28.5q-29 0 -49.5 5t-26.5 6l18 108q20 -4 41 -4q47 0 72.5 21t49.5 65l21 37l-104 521h158l46 -350h6l165 350h157l-327 -605q-20 -37 -41 -67zM467.5 637q-19.5 20 -19.5 49q0 40 30 70t70 30q32 0 51.5 -19.5t19.5 -49.5
q0 -40 -30.5 -70t-70.5 -30q-31 0 -50.5 20zM195.5 637q-19.5 20 -19.5 49q0 40 30 70t70 30q32 0 51.5 -19.5t19.5 -49.5q0 -40 -30.5 -70t-70.5 -30q-31 0 -50.5 20z" />
    <glyph glyph-name="uni1EF5" unicode="&#x1ef5;" horiz-adv-x="532" 
d="M260 -143q-21 -30 -68.5 -58.5t-117.5 -28.5q-29 0 -49.5 5t-26.5 6l18 108q20 -4 41 -4q47 0 72.5 21t49.5 65l21 37l-104 521h158l46 -350h6l165 350h157l-327 -605q-20 -37 -41 -67zM363 -232.5q-18 18.5 -18 46.5q0 37 28 64.5t65 27.5q30 0 48.5 -18t18.5 -46
q0 -37 -28.5 -65t-65.5 -28q-30 0 -48 18.5z" />
    <glyph glyph-name="ygrave" unicode="&#x1ef3;" horiz-adv-x="532" 
d="M260 -143q-21 -30 -68.5 -58.5t-117.5 -28.5q-29 0 -49.5 5t-26.5 6l18 108q20 -4 41 -4q47 0 72.5 21t49.5 65l21 37l-104 521h158l46 -350h6l165 350h157l-327 -605q-20 -37 -41 -67zM211 806h153l69 -200l-123 -1z" />
    <glyph glyph-name="uni1EF7" unicode="&#x1ef7;" horiz-adv-x="532" 
d="M260 -143q-21 -30 -68.5 -58.5t-117.5 -28.5q-29 0 -49.5 5t-26.5 6l18 108q20 -4 41 -4q47 0 72.5 21t49.5 65l21 37l-104 521h158l46 -350h6l165 350h157l-327 -605q-20 -37 -41 -67zM324 621q9 7 19.5 13.5t14.5 9.5q31 18 47 33.5t16 37.5q0 10 -6.5 16t-18.5 6
q-15 0 -24.5 -8.5t-12.5 -22.5h-109q8 45 47.5 78.5t110.5 33.5q57 0 87 -24t30 -62q0 -40 -18.5 -62t-49.5 -41q-24 -15 -28 -24h-117q3 9 12 16z" />
    <glyph glyph-name="uni1EF9" unicode="&#x1ef9;" horiz-adv-x="532" 
d="M260 -143q-21 -30 -68.5 -58.5t-117.5 -28.5q-29 0 -49.5 5t-26.5 6l18 108q20 -4 41 -4q47 0 72.5 21t49.5 65l21 37l-104 521h158l46 -350h6l165 350h157l-327 -605q-20 -37 -41 -67zM241 712.5q31 38.5 91 38.5q19 0 37 -5.5t40 -15.5q12 -5 25 -9.5t22 -4.5
q15 0 23.5 11t9.5 25h78q-6 -58 -36.5 -95.5t-90.5 -37.5q-20 0 -37.5 5.5t-39.5 15.5q-4 2 -19.5 8t-27.5 6q-16 0 -24 -11t-10 -26h-78q6 57 37 95.5z" />
    <glyph glyph-name="z" unicode="z" horiz-adv-x="495" 
d="M71 123l285 284v2h-229l19 122h394l-19 -122l-285 -284l-1 -3h238l-19 -122h-403z" />
    <glyph glyph-name="zacute" unicode="&#x17a;" horiz-adv-x="495" 
d="M71 123l285 284v2h-229l19 122h394l-19 -122l-285 -284l-1 -3h238l-19 -122h-403zM294 606l133 200h153l-163 -201z" />
    <glyph glyph-name="zcaron" unicode="&#x17e;" horiz-adv-x="495" 
d="M71 123l285 284v2h-229l19 122h394l-19 -122l-285 -284l-1 -3h238l-19 -122h-403zM314 754l49 -69h4l73 69h141l-174 -163h-112l-120 163h139z" />
    <glyph glyph-name="zdotaccent" unicode="&#x17c;" horiz-adv-x="495" 
d="M71 123l285 284v2h-229l19 122h394l-19 -122l-285 -284l-1 -3h238l-19 -122h-403zM303.5 637q-19.5 20 -19.5 49q0 40 30 70t70 30q32 0 51.5 -19.5t19.5 -49.5q0 -40 -30.5 -70t-70.5 -30q-31 0 -50.5 20z" />
    <glyph glyph-name="a.ss01" 
d="M98 25q-38 34 -38 91q0 90 66.5 143t179.5 53h108l5 33q2 12 2 19q0 27 -17 43.5t-54 16.5q-41 0 -65 -19.5t-24 -52.5v-3h-142v3q0 41 27 84.5t83.5 73.5t141.5 30q111 0 157 -44.5t46 -111.5q0 -20 -3 -38l-56 -346h-151l11 70h-8q-19 -29 -62 -54t-103 -25
q-66 0 -104 34zM356.5 127q32.5 28 38.5 66l4 28h-90q-40 0 -67 -17t-27 -53q0 -24 17 -38t47 -14q45 0 77.5 28z" />
    <glyph glyph-name="aacute.ss01" 
d="M98 25q-38 34 -38 91q0 90 66.5 143t179.5 53h108l5 33q2 12 2 19q0 27 -17 43.5t-54 16.5q-41 0 -65 -19.5t-24 -52.5v-3h-142v3q0 41 27 84.5t83.5 73.5t141.5 30q111 0 157 -44.5t46 -111.5q0 -20 -3 -38l-56 -346h-151l11 70h-8q-19 -29 -62 -54t-103 -25
q-66 0 -104 34zM356.5 127q32.5 28 38.5 66l4 28h-90q-40 0 -67 -17t-27 -53q0 -24 17 -38t47 -14q45 0 77.5 28zM328 610l133 200h153l-163 -201z" />
    <glyph glyph-name="abreve.ss01" 
d="M98 25q-38 34 -38 91q0 90 66.5 143t179.5 53h108l5 33q2 12 2 19q0 27 -17 43.5t-54 16.5q-41 0 -65 -19.5t-24 -52.5v-3h-142v3q0 41 27 84.5t83.5 73.5t141.5 30q111 0 157 -44.5t46 -111.5q0 -20 -3 -38l-56 -346h-151l11 70h-8q-19 -29 -62 -54t-103 -25
q-66 0 -104 34zM356.5 127q32.5 28 38.5 66l4 28h-90q-40 0 -67 -17t-27 -53q0 -24 17 -38t47 -14q45 0 77.5 28zM217 734h124q5 -21 19.5 -33.5t39.5 -12.5t43.5 12.5t30.5 33.5h124q-83 -129 -211 -129q-129 0 -170 129z" />
    <glyph glyph-name="uni1EAF.ss01" 
d="M98 25q-38 34 -38 91q0 90 66.5 143t179.5 53h108l5 33q2 12 2 19q0 27 -17 43.5t-54 16.5q-41 0 -65 -19.5t-24 -52.5v-3h-142v3q0 41 27 84.5t83.5 73.5t141.5 30q111 0 157 -44.5t46 -111.5q0 -20 -3 -38l-56 -346h-151l11 70h-8q-19 -29 -62 -54t-103 -25
q-66 0 -104 34zM356.5 127q32.5 28 38.5 66l4 28h-90q-40 0 -67 -17t-27 -53q0 -24 17 -38t47 -14q45 0 77.5 28zM217 734h124q5 -21 19.5 -33.5t39.5 -12.5t43.5 12.5t30.5 33.5h124q-83 -129 -211 -129q-129 0 -170 129zM357 784l133 200h153l-163 -201z" />
    <glyph glyph-name="uni1EB7.ss01" 
d="M98 25q-38 34 -38 91q0 90 66.5 143t179.5 53h108l5 33q2 12 2 19q0 27 -17 43.5t-54 16.5q-41 0 -65 -19.5t-24 -52.5v-3h-142v3q0 41 27 84.5t83.5 73.5t141.5 30q111 0 157 -44.5t46 -111.5q0 -20 -3 -38l-56 -346h-151l11 70h-8q-19 -29 -62 -54t-103 -25
q-66 0 -104 34zM356.5 127q32.5 28 38.5 66l4 28h-90q-40 0 -67 -17t-27 -53q0 -24 17 -38t47 -14q45 0 77.5 28zM217 734h124q5 -21 19.5 -33.5t39.5 -12.5t43.5 12.5t30.5 33.5h124q-83 -129 -211 -129q-129 0 -170 129zM201 -232.5q-18 18.5 -18 46.5q0 37 28 64.5
t65 27.5q30 0 48.5 -18t18.5 -46q0 -37 -28.5 -65t-65.5 -28q-30 0 -48 18.5z" />
    <glyph glyph-name="uni1EB1.ss01" 
d="M98 25q-38 34 -38 91q0 90 66.5 143t179.5 53h108l5 33q2 12 2 19q0 27 -17 43.5t-54 16.5q-41 0 -65 -19.5t-24 -52.5v-3h-142v3q0 41 27 84.5t83.5 73.5t141.5 30q111 0 157 -44.5t46 -111.5q0 -20 -3 -38l-56 -346h-151l11 70h-8q-19 -29 -62 -54t-103 -25
q-66 0 -104 34zM356.5 127q32.5 28 38.5 66l4 28h-90q-40 0 -67 -17t-27 -53q0 -24 17 -38t47 -14q45 0 77.5 28zM223 734h124q5 -21 19.5 -33.5t39.5 -12.5t43.5 12.5t30.5 33.5h124q-83 -129 -211 -129q-129 0 -170 129zM260 984h153l69 -200l-123 -1z" />
    <glyph glyph-name="uni1EB3.ss01" 
d="M98 25q-38 34 -38 91q0 90 66.5 143t179.5 53h108l5 33q2 12 2 19q0 27 -17 43.5t-54 16.5q-41 0 -65 -19.5t-24 -52.5v-3h-142v3q0 41 27 84.5t83.5 73.5t141.5 30q111 0 157 -44.5t46 -111.5q0 -20 -3 -38l-56 -346h-151l11 70h-8q-19 -29 -62 -54t-103 -25
q-66 0 -104 34zM356.5 127q32.5 28 38.5 66l4 28h-90q-40 0 -67 -17t-27 -53q0 -24 17 -38t47 -14q45 0 77.5 28zM217 734h124q5 -21 19.5 -33.5t39.5 -12.5t43.5 12.5t30.5 33.5h124q-83 -129 -211 -129q-129 0 -170 129zM368 799q9 7 19.5 13.5t14.5 9.5q31 18 47 33.5
t16 37.5q0 10 -6.5 16t-18.5 6q-15 0 -24.5 -8.5t-12.5 -22.5h-109q8 45 47.5 78.5t110.5 33.5q57 0 87 -24t30 -62q0 -40 -18.5 -62t-49.5 -41q-24 -15 -28 -24h-117q3 9 12 16z" />
    <glyph glyph-name="uni1EB5.ss01" 
d="M98 25q-38 34 -38 91q0 90 66.5 143t179.5 53h108l5 33q2 12 2 19q0 27 -17 43.5t-54 16.5q-41 0 -65 -19.5t-24 -52.5v-3h-142v3q0 41 27 84.5t83.5 73.5t141.5 30q111 0 157 -44.5t46 -111.5q0 -20 -3 -38l-56 -346h-151l11 70h-8q-19 -29 -62 -54t-103 -25
q-66 0 -104 34zM356.5 127q32.5 28 38.5 66l4 28h-90q-40 0 -67 -17t-27 -53q0 -24 17 -38t47 -14q45 0 77.5 28zM217 734h124q5 -21 19.5 -33.5t39.5 -12.5t43.5 12.5t30.5 33.5h124q-83 -129 -211 -129q-129 0 -170 129zM284 890.5q31 38.5 91 38.5q19 0 37 -5.5t40 -15.5
q12 -5 25 -9.5t22 -4.5q15 0 23.5 11t9.5 25h78q-6 -58 -36.5 -95.5t-90.5 -37.5q-20 0 -37.5 5.5t-39.5 15.5q-4 2 -19.5 8t-27.5 6q-16 0 -24 -11t-10 -26h-78q6 57 37 95.5z" />
    <glyph glyph-name="acircumflex.ss01" 
d="M98 25q-38 34 -38 91q0 90 66.5 143t179.5 53h108l5 33q2 12 2 19q0 27 -17 43.5t-54 16.5q-41 0 -65 -19.5t-24 -52.5v-3h-142v3q0 41 27 84.5t83.5 73.5t141.5 30q111 0 157 -44.5t46 -111.5q0 -20 -3 -38l-56 -346h-151l11 70h-8q-19 -29 -62 -54t-103 -25
q-66 0 -104 34zM356.5 127q32.5 28 38.5 66l4 28h-90q-40 0 -67 -17t-27 -53q0 -24 17 -38t47 -14q45 0 77.5 28zM357 758h112l121 -163h-141l-50 69h-4l-72 -69h-139z" />
    <glyph glyph-name="uni1EA5.ss01" 
d="M98 25q-38 34 -38 91q0 90 66.5 143t179.5 53h108l5 33q2 12 2 19q0 27 -17 43.5t-54 16.5q-41 0 -65 -19.5t-24 -52.5v-3h-142v3q0 41 27 84.5t83.5 73.5t141.5 30q111 0 157 -44.5t46 -111.5q0 -20 -3 -38l-56 -346h-151l11 70h-8q-19 -29 -62 -54t-103 -25
q-66 0 -104 34zM356.5 127q32.5 28 38.5 66l4 28h-90q-40 0 -67 -17t-27 -53q0 -24 17 -38t47 -14q45 0 77.5 28zM356 758h112l121 -163h-141l-50 69h-4l-72 -69h-139zM528 726l133 200h153l-163 -201z" />
    <glyph glyph-name="uni1EAD.ss01" 
d="M98 25q-38 34 -38 91q0 90 66.5 143t179.5 53h108l5 33q2 12 2 19q0 27 -17 43.5t-54 16.5q-41 0 -65 -19.5t-24 -52.5v-3h-142v3q0 41 27 84.5t83.5 73.5t141.5 30q111 0 157 -44.5t46 -111.5q0 -20 -3 -38l-56 -346h-151l11 70h-8q-19 -29 -62 -54t-103 -25
q-66 0 -104 34zM356.5 127q32.5 28 38.5 66l4 28h-90q-40 0 -67 -17t-27 -53q0 -24 17 -38t47 -14q45 0 77.5 28zM357 758h112l121 -163h-141l-50 69h-4l-72 -69h-139zM201 -232.5q-18 18.5 -18 46.5q0 37 28 64.5t65 27.5q30 0 48.5 -18t18.5 -46q0 -37 -28.5 -65
t-65.5 -28q-30 0 -48 18.5z" />
    <glyph glyph-name="uni1EA7.ss01" 
d="M98 25q-38 34 -38 91q0 90 66.5 143t179.5 53h108l5 33q2 12 2 19q0 27 -17 43.5t-54 16.5q-41 0 -65 -19.5t-24 -52.5v-3h-142v3q0 41 27 84.5t83.5 73.5t141.5 30q111 0 157 -44.5t46 -111.5q0 -20 -3 -38l-56 -346h-151l11 70h-8q-19 -29 -62 -54t-103 -25
q-66 0 -104 34zM356.5 127q32.5 28 38.5 66l4 28h-90q-40 0 -67 -17t-27 -53q0 -24 17 -38t47 -14q45 0 77.5 28zM356 758h112l121 -163h-141l-50 69h-4l-72 -69h-139zM445 926h153l69 -200l-123 -1z" />
    <glyph glyph-name="uni1EA9.ss01" 
d="M98 25q-38 34 -38 91q0 90 66.5 143t179.5 53h108l5 33q2 12 2 19q0 27 -17 43.5t-54 16.5q-41 0 -65 -19.5t-24 -52.5v-3h-142v3q0 41 27 84.5t83.5 73.5t141.5 30q111 0 157 -44.5t46 -111.5q0 -20 -3 -38l-56 -346h-151l11 70h-8q-19 -29 -62 -54t-103 -25
q-66 0 -104 34zM356.5 127q32.5 28 38.5 66l4 28h-90q-40 0 -67 -17t-27 -53q0 -24 17 -38t47 -14q45 0 77.5 28zM356 758h112l121 -163h-141l-50 69h-4l-72 -69h-139zM542 753q9 7 19.5 13.5t14.5 9.5q31 18 47 33.5t16 37.5q0 10 -6.5 16t-18.5 6q-15 0 -24.5 -8.5
t-12.5 -22.5h-109q8 45 47.5 78.5t110.5 33.5q57 0 87 -24t30 -62q0 -40 -18.5 -62t-49.5 -41q-24 -15 -28 -24h-117q3 9 12 16z" />
    <glyph glyph-name="uni1EAB.ss01" 
d="M98 25q-38 34 -38 91q0 90 66.5 143t179.5 53h108l5 33q2 12 2 19q0 27 -17 43.5t-54 16.5q-41 0 -65 -19.5t-24 -52.5v-3h-142v3q0 41 27 84.5t83.5 73.5t141.5 30q111 0 157 -44.5t46 -111.5q0 -20 -3 -38l-56 -346h-151l11 70h-8q-19 -29 -62 -54t-103 -25
q-66 0 -104 34zM356.5 127q32.5 28 38.5 66l4 28h-90q-40 0 -67 -17t-27 -53q0 -24 17 -38t47 -14q45 0 77.5 28zM355 758h112l121 -163h-141l-50 69h-4l-72 -69h-139zM280 899.5q31 38.5 91 38.5q19 0 37 -5.5t40 -15.5q12 -5 25 -9.5t22 -4.5q15 0 23.5 11t9.5 25h78
q-6 -58 -36.5 -95.5t-90.5 -37.5q-20 0 -37.5 5.5t-39.5 15.5q-4 2 -19.5 8t-27.5 6q-16 0 -24 -11t-10 -26h-78q6 57 37 95.5z" />
    <glyph glyph-name="adieresis.ss01" 
d="M98 25q-38 34 -38 91q0 90 66.5 143t179.5 53h108l5 33q2 12 2 19q0 27 -17 43.5t-54 16.5q-41 0 -65 -19.5t-24 -52.5v-3h-142v3q0 41 27 84.5t83.5 73.5t141.5 30q111 0 157 -44.5t46 -111.5q0 -20 -3 -38l-56 -346h-151l11 70h-8q-19 -29 -62 -54t-103 -25
q-66 0 -104 34zM356.5 127q32.5 28 38.5 66l4 28h-90q-40 0 -67 -17t-27 -53q0 -24 17 -38t47 -14q45 0 77.5 28zM482.5 641q-19.5 20 -19.5 49q0 40 30 70t70 30q32 0 51.5 -19.5t19.5 -49.5q0 -40 -30.5 -70t-70.5 -30q-31 0 -50.5 20zM210.5 641q-19.5 20 -19.5 49
q0 40 30 70t70 30q32 0 51.5 -19.5t19.5 -49.5q0 -40 -30.5 -70t-70.5 -30q-31 0 -50.5 20z" />
    <glyph glyph-name="uni1EA1.ss01" 
d="M98 25q-38 34 -38 91q0 90 66.5 143t179.5 53h108l5 33q2 12 2 19q0 27 -17 43.5t-54 16.5q-41 0 -65 -19.5t-24 -52.5v-3h-142v3q0 41 27 84.5t83.5 73.5t141.5 30q111 0 157 -44.5t46 -111.5q0 -20 -3 -38l-56 -346h-151l11 70h-8q-19 -29 -62 -54t-103 -25
q-66 0 -104 34zM356.5 127q32.5 28 38.5 66l4 28h-90q-40 0 -67 -17t-27 -53q0 -24 17 -38t47 -14q45 0 77.5 28zM201 -232.5q-18 18.5 -18 46.5q0 37 28 64.5t65 27.5q30 0 48.5 -18t18.5 -46q0 -37 -28.5 -65t-65.5 -28q-30 0 -48 18.5z" />
    <glyph glyph-name="agrave.ss01" 
d="M98 25q-38 34 -38 91q0 90 66.5 143t179.5 53h108l5 33q2 12 2 19q0 27 -17 43.5t-54 16.5q-41 0 -65 -19.5t-24 -52.5v-3h-142v3q0 41 27 84.5t83.5 73.5t141.5 30q111 0 157 -44.5t46 -111.5q0 -20 -3 -38l-56 -346h-151l11 70h-8q-19 -29 -62 -54t-103 -25
q-66 0 -104 34zM356.5 127q32.5 28 38.5 66l4 28h-90q-40 0 -67 -17t-27 -53q0 -24 17 -38t47 -14q45 0 77.5 28zM226 810h153l69 -200l-123 -1z" />
    <glyph glyph-name="uni1EA3.ss01" 
d="M98 25q-38 34 -38 91q0 90 66.5 143t179.5 53h108l5 33q2 12 2 19q0 27 -17 43.5t-54 16.5q-41 0 -65 -19.5t-24 -52.5v-3h-142v3q0 41 27 84.5t83.5 73.5t141.5 30q111 0 157 -44.5t46 -111.5q0 -20 -3 -38l-56 -346h-151l11 70h-8q-19 -29 -62 -54t-103 -25
q-66 0 -104 34zM356.5 127q32.5 28 38.5 66l4 28h-90q-40 0 -67 -17t-27 -53q0 -24 17 -38t47 -14q45 0 77.5 28zM339 625q9 7 19.5 13.5t14.5 9.5q31 18 47 33.5t16 37.5q0 10 -6.5 16t-18.5 6q-15 0 -24.5 -8.5t-12.5 -22.5h-109q8 45 47.5 78.5t110.5 33.5q57 0 87 -24
t30 -62q0 -40 -18.5 -62t-49.5 -41q-24 -15 -28 -24h-117q3 9 12 16z" />
    <glyph glyph-name="amacron.ss01" 
d="M98 25q-38 34 -38 91q0 90 66.5 143t179.5 53h108l5 33q2 12 2 19q0 27 -17 43.5t-54 16.5q-41 0 -65 -19.5t-24 -52.5v-3h-142v3q0 41 27 84.5t83.5 73.5t141.5 30q111 0 157 -44.5t46 -111.5q0 -20 -3 -38l-56 -346h-151l11 70h-8q-19 -29 -62 -54t-103 -25
q-66 0 -104 34zM356.5 127q32.5 28 38.5 66l4 28h-90q-40 0 -67 -17t-27 -53q0 -24 17 -38t47 -14q45 0 77.5 28zM236 688h327l-11 -70h-327z" />
    <glyph glyph-name="aring.ss01" 
d="M98 25q-38 34 -38 91q0 90 66.5 143t179.5 53h108l5 33q2 12 2 19q0 27 -17 43.5t-54 16.5q-41 0 -65 -19.5t-24 -52.5v-3h-142v3q0 41 27 84.5t83.5 73.5t141.5 30q111 0 157 -44.5t46 -111.5q0 -20 -3 -38l-56 -346h-151l11 70h-8q-19 -29 -62 -54t-103 -25
q-66 0 -104 34zM356.5 127q32.5 28 38.5 66l4 28h-90q-40 0 -67 -17t-27 -53q0 -24 17 -38t47 -14q45 0 77.5 28zM324 626q-25 25 -25 62q0 30 17 57.5t45 44.5t59 17q38 0 63 -25t25 -62q0 -30 -17 -57.5t-45.5 -44.5t-58.5 -17q-38 0 -63 25zM429.5 678q14.5 14 14.5 33
q0 14 -10 23.5t-24 9.5q-19 0 -33 -14t-14 -33q0 -14 9.5 -23.5t24.5 -9.5q18 0 32.5 14z" />
    <glyph glyph-name="atilde.ss01" 
d="M98 25q-38 34 -38 91q0 90 66.5 143t179.5 53h108l5 33q2 12 2 19q0 27 -17 43.5t-54 16.5q-41 0 -65 -19.5t-24 -52.5v-3h-142v3q0 41 27 84.5t83.5 73.5t141.5 30q111 0 157 -44.5t46 -111.5q0 -20 -3 -38l-56 -346h-151l11 70h-8q-19 -29 -62 -54t-103 -25
q-66 0 -104 34zM356.5 127q32.5 28 38.5 66l4 28h-90q-40 0 -67 -17t-27 -53q0 -24 17 -38t47 -14q45 0 77.5 28zM256 716.5q31 38.5 91 38.5q19 0 37 -5.5t40 -15.5q12 -5 25 -9.5t22 -4.5q15 0 23.5 11t9.5 25h78q-6 -58 -36.5 -95.5t-90.5 -37.5q-20 0 -37.5 5.5
t-39.5 15.5q-4 2 -19.5 8t-27.5 6q-16 0 -24 -11t-10 -26h-78q6 57 37 95.5z" />
    <glyph glyph-name="ae.ss01" horiz-adv-x="896" 
d="M849.5 487.5q55.5 -52.5 55.5 -154.5q0 -27 -5 -65l-7 -46h-346l-1 -11q-3 -42 18 -70t66 -28q35 0 61.5 17t40.5 49h152q-33 -84 -103 -136t-170 -52q-63 0 -108.5 22t-71.5 62q-29 -36 -82 -60t-118 -24q-75 0 -121.5 35t-46.5 98q0 92 70.5 141t190.5 49h90l4 24
q1 5 1 17q0 65 -67 65q-33 0 -59.5 -17.5t-35.5 -49.5h-145q19 71 77.5 128.5t181.5 57.5q105 0 158 -51q72 52 170 52q95 0 150.5 -52.5zM761 341q0 37 -21.5 58t-59.5 21q-43 0 -75 -26t-38 -70l-2 -10h194l1 10q1 6 1 17zM398 221h-81q-42 0 -71.5 -16.5t-29.5 -54.5
q0 -24 17 -37.5t46 -13.5q45 0 77 28t38 66z" />
    <glyph glyph-name="b.ss01" horiz-adv-x="613" 
d="M271 22q-32 31 -41 63h-8l-14 -85h-157l122 750h157l-49 -298h8q19 30 60.5 59t107.5 29q78 0 126.5 -49.5t48.5 -131.5q0 -24 -4 -45l-16 -98q-10 -65 -45 -116.5t-86.5 -80t-110.5 -28.5q-67 0 -99 31zM415 149.5q34 33.5 43 87.5l9 56q3 15 3 30q0 42 -23.5 67
t-65.5 25q-50 0 -84 -34t-43 -88l-10 -56q-3 -15 -3 -29q0 -42 23.5 -67t66.5 -25q50 0 84 33.5z" />
    <glyph glyph-name="c.ss01" horiz-adv-x="567" 
d="M127 45.5q-55 54.5 -55 142.5q0 26 4 49l9 56q12 69 50.5 125.5t100.5 89t140 32.5q103 0 156 -55.5t53 -141.5l-1 -19h-147q2 40 -18 65.5t-63 25.5q-49 0 -81.5 -34.5t-41.5 -89.5l-9 -52q-3 -16 -3 -31q0 -42 22 -67t63 -25q43 0 72 25.5t40 65.5h148
q-25 -94 -97.5 -155t-182.5 -61q-104 0 -159 54.5z" />
    <glyph glyph-name="cacute.ss01" horiz-adv-x="567" 
d="M127 45.5q-55 54.5 -55 142.5q0 26 4 49l9 56q12 69 50.5 125.5t100.5 89t140 32.5q103 0 156 -55.5t53 -141.5l-1 -19h-147q2 40 -18 65.5t-63 25.5q-49 0 -81.5 -34.5t-41.5 -89.5l-9 -52q-3 -16 -3 -31q0 -42 22 -67t63 -25q43 0 72 25.5t40 65.5h148
q-25 -94 -97.5 -155t-182.5 -61q-104 0 -159 54.5zM327 606l133 200h153l-163 -201z" />
    <glyph glyph-name="ccaron.ss01" horiz-adv-x="567" 
d="M127 45.5q-55 54.5 -55 142.5q0 26 4 49l9 56q12 69 50.5 125.5t100.5 89t140 32.5q103 0 156 -55.5t53 -141.5l-1 -19h-147q2 40 -18 65.5t-63 25.5q-49 0 -81.5 -34.5t-41.5 -89.5l-9 -52q-3 -16 -3 -31q0 -42 22 -67t63 -25q43 0 72 25.5t40 65.5h148
q-25 -94 -97.5 -155t-182.5 -61q-104 0 -159 54.5zM347 754l49 -69h4l73 69h141l-174 -163h-112l-120 163h139z" />
    <glyph glyph-name="ccedilla.ss01" horiz-adv-x="567" 
d="M437 324q2 40 -18 65.5t-63 25.5q-49 0 -81.5 -34.5t-41.5 -89.5l-9 -52q-3 -16 -3 -31q0 -42 22 -67t63 -25q43 0 72 25.5t40 65.5h148q-23 -86 -86.5 -145.5t-160.5 -68.5l-13 -27h12q43 0 65 -22.5t22 -57.5q0 -36 -19 -65.5t-51.5 -47t-72.5 -17.5q-44 0 -71 16
l13 74q37 -10 69 -10q29 0 45 11.5t16 30.5q0 12 -10 18t-25 6h-92l1 3l36 89q-84 11 -128 63.5t-44 130.5q0 26 4 49l9 56q12 69 50.5 125.5t100.5 89t140 32.5q103 0 156 -55.5t53 -141.5l-1 -19h-147z" />
    <glyph glyph-name="cdotaccent.ss01" horiz-adv-x="567" 
d="M127 45.5q-55 54.5 -55 142.5q0 26 4 49l9 56q12 69 50.5 125.5t100.5 89t140 32.5q103 0 156 -55.5t53 -141.5l-1 -19h-147q2 40 -18 65.5t-63 25.5q-49 0 -81.5 -34.5t-41.5 -89.5l-9 -52q-3 -16 -3 -31q0 -42 22 -67t63 -25q43 0 72 25.5t40 65.5h148
q-25 -94 -97.5 -155t-182.5 -61q-104 0 -159 54.5zM336.5 637q-19.5 20 -19.5 49q0 40 30 70t70 30q32 0 51.5 -19.5t19.5 -49.5q0 -40 -30.5 -70t-70.5 -30q-31 0 -50.5 20z" />
    <glyph glyph-name="d.ss01" horiz-adv-x="613" 
d="M115.5 40q-47.5 49 -47.5 130q0 25 4 46l15 98q11 67 47 118t88 79.5t110 28.5q66 0 98 -29.5t40 -58.5h8l49 298h156l-121 -750h-157l14 85h-8q-22 -34 -63.5 -64t-107.5 -30q-77 0 -124.5 49zM402.5 149q33.5 33 42.5 88l10 56q3 15 3 28q0 43 -23.5 68.5t-66.5 25.5
q-50 0 -83.5 -34t-42.5 -88l-10 -56q-3 -15 -3 -29q0 -42 23.5 -67t66.5 -25q50 0 83.5 33z" />
    <glyph glyph-name="eth.ss01" horiz-adv-x="623" 
d="M130 48q-58 57 -58 146q0 25 4 46l12 74q10 66 46 117.5t88 80t110 28.5q67 0 98 -29t41 -59h11l4 32q2 26 2 37q0 66 -23 104l-87 -46l-30 74l59 31q-24 13 -50 19t-48 5l19 116q51 1 112 -14t110 -51l97 52l31 -74l-74 -38q41 -61 41 -148q0 -37 -7 -76l-34 -213
q-12 -73 -51.5 -134.5t-104.5 -99t-149 -37.5q-111 0 -169 57zM402.5 149q33.5 33 43.5 88l9 56q3 15 3 28q0 43 -23.5 68.5t-66.5 25.5q-50 0 -83.5 -34t-42.5 -88l-10 -56q-3 -15 -3 -29q0 -42 24 -67t67 -25q49 0 82.5 33z" />
    <glyph glyph-name="dcaron.ss01" horiz-adv-x="800" 
d="M115.5 40q-47.5 49 -47.5 130q0 25 4 46l15 98q11 67 47 118t88 79.5t110 28.5q66 0 98 -29.5t40 -58.5h8l49 298h156l-121 -750h-157l14 85h-8q-22 -34 -63.5 -64t-107.5 -30q-77 0 -124.5 49zM402.5 149q33.5 33 42.5 88l10 56q3 15 3 28q0 43 -23.5 68.5t-66.5 25.5
q-50 0 -83.5 -34t-42.5 -88l-10 -56q-3 -15 -3 -29q0 -42 23.5 -67t66.5 -25q50 0 83.5 33zM727 538q42 15 64.5 40.5t22.5 58.5q0 20 -10 25t-32 6q-31 1 -43.5 16.5t-12.5 36.5q0 44 30.5 73.5t77.5 29.5q81 0 81 -80q0 -19 -2 -28l-8 -45q-27 -147 -177 -181z" />
    <glyph glyph-name="dcroat.ss01" horiz-adv-x="628" 
d="M715 583h-59l-94 -583h-157l14 85h-8q-22 -34 -63.5 -64t-107.5 -30q-77 0 -124.5 49t-47.5 130q0 25 4 46l15 98q11 67 47 118t88 79.5t110 28.5q66 0 98 -29.5t40 -58.5h8l22 131h-100l16 100h100l11 67h156l-11 -67h58zM458 321q0 43 -23.5 68.5t-66.5 25.5
q-50 0 -83.5 -34t-42.5 -88l-10 -56q-3 -15 -3 -29q0 -42 23.5 -67t66.5 -25q50 0 83.5 33t42.5 88l10 56q3 15 3 28z" />
    <glyph glyph-name="e.ss01" 
d="M126.5 45.5q-54.5 54.5 -54.5 142.5q0 26 4 49l9 56q12 70 50 126t99 88.5t138 32.5q95 0 150 -52.5t55 -154.5q0 -36 -5 -65l-7 -46h-343l-2 -11q-1 -6 -1 -17q0 -36 20.5 -58.5t62.5 -22.5q35 0 61 17t40 49h152q-33 -84 -103 -136t-170 -52q-101 0 -155.5 54.5z
M431 322l2 10q2 8 2 22q0 34 -22.5 54t-60.5 20q-43 0 -73.5 -26t-38.5 -70l-2 -10h193z" />
    <glyph glyph-name="eacute.ss01" 
d="M126.5 45.5q-54.5 54.5 -54.5 142.5q0 26 4 49l9 56q12 70 50 126t99 88.5t138 32.5q95 0 150 -52.5t55 -154.5q0 -36 -5 -65l-7 -46h-343l-2 -11q-1 -6 -1 -17q0 -36 20.5 -58.5t62.5 -22.5q35 0 61 17t40 49h152q-33 -84 -103 -136t-170 -52q-101 0 -155.5 54.5z
M431 322l2 10q2 8 2 22q0 34 -22.5 54t-60.5 20q-43 0 -73.5 -26t-38.5 -70l-2 -10h193zM322 606l133 200h153l-163 -201z" />
    <glyph glyph-name="ecaron.ss01" 
d="M126.5 45.5q-54.5 54.5 -54.5 142.5q0 26 4 49l9 56q12 70 50 126t99 88.5t138 32.5q95 0 150 -52.5t55 -154.5q0 -36 -5 -65l-7 -46h-343l-2 -11q-1 -6 -1 -17q0 -36 20.5 -58.5t62.5 -22.5q35 0 61 17t40 49h152q-33 -84 -103 -136t-170 -52q-101 0 -155.5 54.5z
M431 322l2 10q2 8 2 22q0 34 -22.5 54t-60.5 20q-43 0 -73.5 -26t-38.5 -70l-2 -10h193zM342 754l49 -69h4l73 69h141l-174 -163h-112l-120 163h139z" />
    <glyph glyph-name="ecircumflex.ss01" 
d="M126.5 45.5q-54.5 54.5 -54.5 142.5q0 26 4 49l9 56q12 70 50 126t99 88.5t138 32.5q95 0 150 -52.5t55 -154.5q0 -36 -5 -65l-7 -46h-343l-2 -11q-1 -6 -1 -17q0 -36 20.5 -58.5t62.5 -22.5q35 0 61 17t40 49h152q-33 -84 -103 -136t-170 -52q-101 0 -155.5 54.5z
M431 322l2 10q2 8 2 22q0 34 -22.5 54t-60.5 20q-43 0 -73.5 -26t-38.5 -70l-2 -10h193zM351 754h112l121 -163h-141l-50 69h-4l-72 -69h-139z" />
    <glyph glyph-name="uni1EBF.ss01" 
d="M126.5 45.5q-54.5 54.5 -54.5 142.5q0 26 4 49l9 56q12 70 50 126t99 88.5t138 32.5q95 0 150 -52.5t55 -154.5q0 -36 -5 -65l-7 -46h-343l-2 -11q-1 -6 -1 -17q0 -36 20.5 -58.5t62.5 -22.5q35 0 61 17t40 49h152q-33 -84 -103 -136t-170 -52q-101 0 -155.5 54.5z
M431 322l2 10q2 8 2 22q0 34 -22.5 54t-60.5 20q-43 0 -73.5 -26t-38.5 -70l-2 -10h193zM350 754h112l121 -163h-141l-50 69h-4l-72 -69h-139zM522 722l133 200h153l-163 -201z" />
    <glyph glyph-name="uni1EC7.ss01" 
d="M126.5 45.5q-54.5 54.5 -54.5 142.5q0 26 4 49l9 56q12 70 50 126t99 88.5t138 32.5q95 0 150 -52.5t55 -154.5q0 -36 -5 -65l-7 -46h-343l-2 -11q-1 -6 -1 -17q0 -36 20.5 -58.5t62.5 -22.5q35 0 61 17t40 49h152q-33 -84 -103 -136t-170 -52q-101 0 -155.5 54.5z
M431 322l2 10q2 8 2 22q0 34 -22.5 54t-60.5 20q-43 0 -73.5 -26t-38.5 -70l-2 -10h193zM196 -232.5q-18 18.5 -18 46.5q0 37 28 64.5t65 27.5q30 0 48.5 -18t18.5 -46q0 -37 -28.5 -65t-65.5 -28q-30 0 -48 18.5zM351 754h112l121 -163h-141l-50 69h-4l-72 -69h-139z" />
    <glyph glyph-name="uni1EC1.ss01" 
d="M126.5 45.5q-54.5 54.5 -54.5 142.5q0 26 4 49l9 56q12 70 50 126t99 88.5t138 32.5q95 0 150 -52.5t55 -154.5q0 -36 -5 -65l-7 -46h-343l-2 -11q-1 -6 -1 -17q0 -36 20.5 -58.5t62.5 -22.5q35 0 61 17t40 49h152q-33 -84 -103 -136t-170 -52q-101 0 -155.5 54.5z
M431 322l2 10q2 8 2 22q0 34 -22.5 54t-60.5 20q-43 0 -73.5 -26t-38.5 -70l-2 -10h193zM351 754h112l121 -163h-141l-50 69h-4l-72 -69h-139zM440 922h153l69 -200l-123 -1z" />
    <glyph glyph-name="uni1EC3.ss01" 
d="M126.5 45.5q-54.5 54.5 -54.5 142.5q0 26 4 49l9 56q12 70 50 126t99 88.5t138 32.5q95 0 150 -52.5t55 -154.5q0 -36 -5 -65l-7 -46h-343l-2 -11q-1 -6 -1 -17q0 -36 20.5 -58.5t62.5 -22.5q35 0 61 17t40 49h152q-33 -84 -103 -136t-170 -52q-101 0 -155.5 54.5z
M431 322l2 10q2 8 2 22q0 34 -22.5 54t-60.5 20q-43 0 -73.5 -26t-38.5 -70l-2 -10h193zM350 754h112l121 -163h-141l-50 69h-4l-72 -69h-139zM536 749q9 7 19.5 13.5t14.5 9.5q31 18 47 33.5t16 37.5q0 10 -6.5 16t-18.5 6q-15 0 -24.5 -8.5t-12.5 -22.5h-109
q8 45 47.5 78.5t110.5 33.5q57 0 87 -24t30 -62q0 -40 -18.5 -62t-49.5 -41q-24 -15 -28 -24h-117q3 9 12 16z" />
    <glyph glyph-name="uni1EC5.ss01" 
d="M126.5 45.5q-54.5 54.5 -54.5 142.5q0 26 4 49l9 56q12 70 50 126t99 88.5t138 32.5q95 0 150 -52.5t55 -154.5q0 -36 -5 -65l-7 -46h-343l-2 -11q-1 -6 -1 -17q0 -36 20.5 -58.5t62.5 -22.5q35 0 61 17t40 49h152q-33 -84 -103 -136t-170 -52q-101 0 -155.5 54.5z
M431 322l2 10q2 8 2 22q0 34 -22.5 54t-60.5 20q-43 0 -73.5 -26t-38.5 -70l-2 -10h193zM349 754h112l121 -163h-141l-50 69h-4l-72 -69h-139zM274 895.5q31 38.5 91 38.5q19 0 37 -5.5t40 -15.5q12 -5 25 -9.5t22 -4.5q15 0 23.5 11t9.5 25h78q-6 -58 -36.5 -95.5
t-90.5 -37.5q-20 0 -37.5 5.5t-39.5 15.5q-4 2 -19.5 8t-27.5 6q-16 0 -24 -11t-10 -26h-78q6 57 37 95.5z" />
    <glyph glyph-name="edieresis.ss01" 
d="M126.5 45.5q-54.5 54.5 -54.5 142.5q0 26 4 49l9 56q12 70 50 126t99 88.5t138 32.5q95 0 150 -52.5t55 -154.5q0 -36 -5 -65l-7 -46h-343l-2 -11q-1 -6 -1 -17q0 -36 20.5 -58.5t62.5 -22.5q35 0 61 17t40 49h152q-33 -84 -103 -136t-170 -52q-101 0 -155.5 54.5z
M431 322l2 10q2 8 2 22q0 34 -22.5 54t-60.5 20q-43 0 -73.5 -26t-38.5 -70l-2 -10h193zM476.5 637q-19.5 20 -19.5 49q0 40 30 70t70 30q32 0 51.5 -19.5t19.5 -49.5q0 -40 -30.5 -70t-70.5 -30q-31 0 -50.5 20zM204.5 637q-19.5 20 -19.5 49q0 40 30 70t70 30
q32 0 51.5 -19.5t19.5 -49.5q0 -40 -30.5 -70t-70.5 -30q-31 0 -50.5 20z" />
    <glyph glyph-name="edotaccent.ss01" 
d="M126.5 45.5q-54.5 54.5 -54.5 142.5q0 26 4 49l9 56q12 70 50 126t99 88.5t138 32.5q95 0 150 -52.5t55 -154.5q0 -36 -5 -65l-7 -46h-343l-2 -11q-1 -6 -1 -17q0 -36 20.5 -58.5t62.5 -22.5q35 0 61 17t40 49h152q-33 -84 -103 -136t-170 -52q-101 0 -155.5 54.5z
M431 322l2 10q2 8 2 22q0 34 -22.5 54t-60.5 20q-43 0 -73.5 -26t-38.5 -70l-2 -10h193zM331.5 637q-19.5 20 -19.5 49q0 40 30 70t70 30q32 0 51.5 -19.5t19.5 -49.5q0 -40 -30.5 -70t-70.5 -30q-31 0 -50.5 20z" />
    <glyph glyph-name="uni1EB9.ss01" 
d="M126.5 45.5q-54.5 54.5 -54.5 142.5q0 26 4 49l9 56q12 70 50 126t99 88.5t138 32.5q95 0 150 -52.5t55 -154.5q0 -36 -5 -65l-7 -46h-343l-2 -11q-1 -6 -1 -17q0 -36 20.5 -58.5t62.5 -22.5q35 0 61 17t40 49h152q-33 -84 -103 -136t-170 -52q-101 0 -155.5 54.5z
M431 322l2 10q2 8 2 22q0 34 -22.5 54t-60.5 20q-43 0 -73.5 -26t-38.5 -70l-2 -10h193zM196 -232.5q-18 18.5 -18 46.5q0 37 28 64.5t65 27.5q30 0 48.5 -18t18.5 -46q0 -37 -28.5 -65t-65.5 -28q-30 0 -48 18.5z" />
    <glyph glyph-name="egrave.ss01" 
d="M126.5 45.5q-54.5 54.5 -54.5 142.5q0 26 4 49l9 56q12 70 50 126t99 88.5t138 32.5q95 0 150 -52.5t55 -154.5q0 -36 -5 -65l-7 -46h-343l-2 -11q-1 -6 -1 -17q0 -36 20.5 -58.5t62.5 -22.5q35 0 61 17t40 49h152q-33 -84 -103 -136t-170 -52q-101 0 -155.5 54.5z
M431 322l2 10q2 8 2 22q0 34 -22.5 54t-60.5 20q-43 0 -73.5 -26t-38.5 -70l-2 -10h193zM220 806h153l69 -200l-123 -1z" />
    <glyph glyph-name="uni1EBB.ss01" 
d="M126.5 45.5q-54.5 54.5 -54.5 142.5q0 26 4 49l9 56q12 70 50 126t99 88.5t138 32.5q95 0 150 -52.5t55 -154.5q0 -36 -5 -65l-7 -46h-343l-2 -11q-1 -6 -1 -17q0 -36 20.5 -58.5t62.5 -22.5q35 0 61 17t40 49h152q-33 -84 -103 -136t-170 -52q-101 0 -155.5 54.5z
M431 322l2 10q2 8 2 22q0 34 -22.5 54t-60.5 20q-43 0 -73.5 -26t-38.5 -70l-2 -10h193zM333 621q9 7 19.5 13.5t14.5 9.5q31 18 47 33.5t16 37.5q0 10 -6.5 16t-18.5 6q-15 0 -24.5 -8.5t-12.5 -22.5h-109q8 45 47.5 78.5t110.5 33.5q57 0 87 -24t30 -62q0 -40 -18.5 -62
t-49.5 -41q-24 -15 -28 -24h-117q3 9 12 16z" />
    <glyph glyph-name="emacron.ss01" 
d="M126.5 45.5q-54.5 54.5 -54.5 142.5q0 26 4 49l9 56q12 70 50 126t99 88.5t138 32.5q95 0 150 -52.5t55 -154.5q0 -36 -5 -65l-7 -46h-343l-2 -11q-1 -6 -1 -17q0 -36 20.5 -58.5t62.5 -22.5q35 0 61 17t40 49h152q-33 -84 -103 -136t-170 -52q-101 0 -155.5 54.5z
M431 322l2 10q2 8 2 22q0 34 -22.5 54t-60.5 20q-43 0 -73.5 -26t-38.5 -70l-2 -10h193zM231 684h327l-11 -70h-327z" />
    <glyph glyph-name="uni1EBD.ss01" 
d="M126.5 45.5q-54.5 54.5 -54.5 142.5q0 26 4 49l9 56q12 70 50 126t99 88.5t138 32.5q95 0 150 -52.5t55 -154.5q0 -36 -5 -65l-7 -46h-343l-2 -11q-1 -6 -1 -17q0 -36 20.5 -58.5t62.5 -22.5q35 0 61 17t40 49h152q-33 -84 -103 -136t-170 -52q-101 0 -155.5 54.5z
M431 322l2 10q2 8 2 22q0 34 -22.5 54t-60.5 20q-43 0 -73.5 -26t-38.5 -70l-2 -10h193zM250 712.5q31 38.5 91 38.5q19 0 37 -5.5t40 -15.5q12 -5 25 -9.5t22 -4.5q15 0 23.5 11t9.5 25h78q-6 -58 -36.5 -95.5t-90.5 -37.5q-20 0 -37.5 5.5t-39.5 15.5q-4 2 -19.5 8
t-27.5 6q-16 0 -24 -11t-10 -26h-78q6 57 37 95.5z" />
    <glyph glyph-name="f.ss01" horiz-adv-x="395" 
d="M374 607q-15 -9 -20 -23t-10 -41l-2 -14h115l-19 -121h-116l-67 -408h-155l67 408h-65l20 121h64l8 47q10 63 56.5 113t153.5 50h87l-19 -123h-52q-31 0 -46 -9z" />
    <glyph glyph-name="g.ss01" horiz-adv-x="613" 
d="M100.5 -189.5q-55.5 51.5 -54.5 149.5h150q-1 -43 21.5 -66t66.5 -23q99 0 121 128l15 90h-7q-21 -33 -62 -63t-107 -30q-77 0 -124.5 49t-47.5 129q0 25 4 46l14 94q11 67 46.5 118t87 79.5t109.5 28.5q66 0 97 -28t42 -60h8l12 77h156l-86 -530q-8 -47 -35.5 -100.5
t-91.5 -96.5t-170 -43q-109 0 -164.5 51.5zM404.5 154.5q33.5 34.5 42.5 88.5l9 48q3 15 3 30q0 43 -23 68.5t-66 25.5q-50 0 -83.5 -34.5t-42.5 -89.5l-7 -48q-3 -15 -3 -30q0 -42 23 -67.5t65 -25.5q49 0 82.5 34.5z" />
    <glyph glyph-name="gbreve.ss01" horiz-adv-x="613" 
d="M100.5 -189.5q-55.5 51.5 -54.5 149.5h150q-1 -43 21.5 -66t66.5 -23q99 0 121 128l15 90h-7q-21 -33 -62 -63t-107 -30q-77 0 -124.5 49t-47.5 129q0 25 4 46l14 94q11 67 46.5 118t87 79.5t109.5 28.5q66 0 97 -28t42 -60h8l12 77h156l-86 -530q-8 -47 -35.5 -100.5
t-91.5 -96.5t-170 -43q-109 0 -164.5 51.5zM404.5 154.5q33.5 34.5 42.5 88.5l9 48q3 15 3 30q0 43 -23 68.5t-66 25.5q-50 0 -83.5 -34.5t-42.5 -89.5l-7 -48q-3 -15 -3 -30q0 -42 23 -67.5t65 -25.5q49 0 82.5 34.5zM232 730h124q5 -21 19.5 -33.5t39.5 -12.5t43.5 12.5
t30.5 33.5h124q-83 -129 -211 -129q-129 0 -170 129z" />
    <glyph glyph-name="gdotaccent.ss01" horiz-adv-x="613" 
d="M100.5 -189.5q-55.5 51.5 -54.5 149.5h150q-1 -43 21.5 -66t66.5 -23q99 0 121 128l15 90h-7q-21 -33 -62 -63t-107 -30q-77 0 -124.5 49t-47.5 129q0 25 4 46l14 94q11 67 46.5 118t87 79.5t109.5 28.5q66 0 97 -28t42 -60h8l12 77h156l-86 -530q-8 -47 -35.5 -100.5
t-91.5 -96.5t-170 -43q-109 0 -164.5 51.5zM404.5 154.5q33.5 34.5 42.5 88.5l9 48q3 15 3 30q0 43 -23 68.5t-66 25.5q-50 0 -83.5 -34.5t-42.5 -89.5l-7 -48q-3 -15 -3 -30q0 -42 23 -67.5t65 -25.5q49 0 82.5 34.5zM353.5 637q-19.5 20 -19.5 49q0 40 30 70t70 30
q32 0 51.5 -19.5t19.5 -49.5q0 -40 -30.5 -70t-70.5 -30q-31 0 -50.5 20z" />
    <glyph glyph-name="j.ss01" horiz-adv-x="278" 
d="M189.5 637q-19.5 20 -19.5 49q0 40 30 70t70 30q32 0 51.5 -19.5t19.5 -49.5q0 -40 -30.5 -70t-69.5 -30q-32 0 -51.5 20zM-86 -242l20 123h24q35 0 52.5 9.5t25 29.5t14.5 60l90 549h155l-93 -569q-10 -61 -25 -102t-57.5 -70.5t-120.5 -29.5h-85z" />
    <glyph glyph-name="l.ss01" horiz-adv-x="274" 
d="M181 750h156l-122 -750h-156z" />
    <glyph glyph-name="o.ss01" horiz-adv-x="574" 
d="M126.5 46q-55.5 55 -55.5 144q0 26 4 49l9 52q12 71 50.5 127.5t100.5 89t140 32.5q103 0 158.5 -55t55.5 -144q0 -27 -4 -50l-9 -52q-12 -71 -50 -127t-100 -88.5t-141 -32.5q-103 0 -158.5 55zM386 150q32 34 42 91l9 48q3 18 3 33q0 43 -22 68t-63 25q-49 0 -81 -34.5
t-42 -91.5l-9 -48q-3 -18 -3 -33q0 -42 22 -67t63 -25q49 0 81 34z" />
    <glyph glyph-name="oacute.ss01" horiz-adv-x="574" 
d="M126.5 46q-55.5 55 -55.5 144q0 26 4 49l9 52q12 71 50.5 127.5t100.5 89t140 32.5q103 0 158.5 -55t55.5 -144q0 -27 -4 -50l-9 -52q-12 -71 -50 -127t-100 -88.5t-141 -32.5q-103 0 -158.5 55zM386 150q32 34 42 91l9 48q3 18 3 33q0 43 -22 68t-63 25q-49 0 -81 -34.5
t-42 -91.5l-9 -48q-3 -18 -3 -33q0 -42 22 -67t63 -25q49 0 81 34zM326 606l133 200h153l-163 -201z" />
    <glyph glyph-name="ocircumflex.ss01" horiz-adv-x="574" 
d="M126.5 46q-55.5 55 -55.5 144q0 26 4 49l9 52q12 71 50.5 127.5t100.5 89t140 32.5q103 0 158.5 -55t55.5 -144q0 -27 -4 -50l-9 -52q-12 -71 -50 -127t-100 -88.5t-141 -32.5q-103 0 -158.5 55zM386 150q32 34 42 91l9 48q3 18 3 33q0 43 -22 68t-63 25q-49 0 -81 -34.5
t-42 -91.5l-9 -48q-3 -18 -3 -33q0 -42 22 -67t63 -25q49 0 81 34zM355 754h112l121 -163h-141l-50 69h-4l-72 -69h-139z" />
    <glyph glyph-name="uni1ED1.ss01" horiz-adv-x="574" 
d="M126.5 46q-55.5 55 -55.5 144q0 26 4 49l9 52q12 71 50.5 127.5t100.5 89t140 32.5q103 0 158.5 -55t55.5 -144q0 -27 -4 -50l-9 -52q-12 -71 -50 -127t-100 -88.5t-141 -32.5q-103 0 -158.5 55zM386 150q32 34 42 91l9 48q3 18 3 33q0 43 -22 68t-63 25q-49 0 -81 -34.5
t-42 -91.5l-9 -48q-3 -18 -3 -33q0 -42 22 -67t63 -25q49 0 81 34zM353 754h112l121 -163h-141l-50 69h-4l-72 -69h-139zM525 722l133 200h153l-163 -201z" />
    <glyph glyph-name="uni1ED9.ss01" horiz-adv-x="574" 
d="M126.5 46q-55.5 55 -55.5 144q0 26 4 49l9 52q12 71 50.5 127.5t100.5 89t140 32.5q103 0 158.5 -55t55.5 -144q0 -27 -4 -50l-9 -52q-12 -71 -50 -127t-100 -88.5t-141 -32.5q-103 0 -158.5 55zM386 150q32 34 42 91l9 48q3 18 3 33q0 43 -22 68t-63 25q-49 0 -81 -34.5
t-42 -91.5l-9 -48q-3 -18 -3 -33q0 -42 22 -67t63 -25q49 0 81 34zM198 -232.5q-18 18.5 -18 46.5q0 37 28 64.5t65 27.5q30 0 48.5 -18t18.5 -46q0 -37 -28.5 -65t-65.5 -28q-30 0 -48 18.5zM355 754h112l121 -163h-141l-50 69h-4l-72 -69h-139z" />
    <glyph glyph-name="uni1ED3.ss01" horiz-adv-x="574" 
d="M126.5 46q-55.5 55 -55.5 144q0 26 4 49l9 52q12 71 50.5 127.5t100.5 89t140 32.5q103 0 158.5 -55t55.5 -144q0 -27 -4 -50l-9 -52q-12 -71 -50 -127t-100 -88.5t-141 -32.5q-103 0 -158.5 55zM386 150q32 34 42 91l9 48q3 18 3 33q0 43 -22 68t-63 25q-49 0 -81 -34.5
t-42 -91.5l-9 -48q-3 -18 -3 -33q0 -42 22 -67t63 -25q49 0 81 34zM354 754h112l121 -163h-141l-50 69h-4l-72 -69h-139zM443 922h153l69 -200l-123 -1z" />
    <glyph glyph-name="uni1ED5.ss01" horiz-adv-x="574" 
d="M126.5 46q-55.5 55 -55.5 144q0 26 4 49l9 52q12 71 50.5 127.5t100.5 89t140 32.5q103 0 158.5 -55t55.5 -144q0 -27 -4 -50l-9 -52q-12 -71 -50 -127t-100 -88.5t-141 -32.5q-103 0 -158.5 55zM386 150q32 34 42 91l9 48q3 18 3 33q0 43 -22 68t-63 25q-49 0 -81 -34.5
t-42 -91.5l-9 -48q-3 -18 -3 -33q0 -42 22 -67t63 -25q49 0 81 34zM353 754h112l121 -163h-141l-50 69h-4l-72 -69h-139zM539 749q9 7 19.5 13.5t14.5 9.5q31 18 47 33.5t16 37.5q0 10 -6.5 16t-18.5 6q-15 0 -24.5 -8.5t-12.5 -22.5h-109q8 45 47.5 78.5t110.5 33.5
q57 0 87 -24t30 -62q0 -40 -18.5 -62t-49.5 -41q-24 -15 -28 -24h-117q3 9 12 16z" />
    <glyph glyph-name="uni1ED7.ss01" horiz-adv-x="574" 
d="M126.5 46q-55.5 55 -55.5 144q0 26 4 49l9 52q12 71 50.5 127.5t100.5 89t140 32.5q103 0 158.5 -55t55.5 -144q0 -27 -4 -50l-9 -52q-12 -71 -50 -127t-100 -88.5t-141 -32.5q-103 0 -158.5 55zM386 150q32 34 42 91l9 48q3 18 3 33q0 43 -22 68t-63 25q-49 0 -81 -34.5
t-42 -91.5l-9 -48q-3 -18 -3 -33q0 -42 22 -67t63 -25q49 0 81 34zM352 754h112l121 -163h-141l-50 69h-4l-72 -69h-139zM277 895.5q31 38.5 91 38.5q19 0 37 -5.5t40 -15.5q12 -5 25 -9.5t22 -4.5q15 0 23.5 11t9.5 25h78q-6 -58 -36.5 -95.5t-90.5 -37.5q-20 0 -37.5 5.5
t-39.5 15.5q-4 2 -19.5 8t-27.5 6q-16 0 -24 -11t-10 -26h-78q6 57 37 95.5z" />
    <glyph glyph-name="odieresis.ss01" horiz-adv-x="574" 
d="M126.5 46q-55.5 55 -55.5 144q0 26 4 49l9 52q12 71 50.5 127.5t100.5 89t140 32.5q103 0 158.5 -55t55.5 -144q0 -27 -4 -50l-9 -52q-12 -71 -50 -127t-100 -88.5t-141 -32.5q-103 0 -158.5 55zM386 150q32 34 42 91l9 48q3 18 3 33q0 43 -22 68t-63 25q-49 0 -81 -34.5
t-42 -91.5l-9 -48q-3 -18 -3 -33q0 -42 22 -67t63 -25q49 0 81 34zM479.5 637q-19.5 20 -19.5 49q0 40 30 70t70 30q32 0 51.5 -19.5t19.5 -49.5q0 -40 -30.5 -70t-70.5 -30q-31 0 -50.5 20zM207.5 637q-19.5 20 -19.5 49q0 40 30 70t70 30q32 0 51.5 -19.5t19.5 -49.5
q0 -40 -30.5 -70t-70.5 -30q-31 0 -50.5 20z" />
    <glyph glyph-name="uni1ECD.ss01" horiz-adv-x="574" 
d="M126.5 46q-55.5 55 -55.5 144q0 26 4 49l9 52q12 71 50.5 127.5t100.5 89t140 32.5q103 0 158.5 -55t55.5 -144q0 -27 -4 -50l-9 -52q-12 -71 -50 -127t-100 -88.5t-141 -32.5q-103 0 -158.5 55zM386 150q32 34 42 91l9 48q3 18 3 33q0 43 -22 68t-63 25q-49 0 -81 -34.5
t-42 -91.5l-9 -48q-3 -18 -3 -33q0 -42 22 -67t63 -25q49 0 81 34zM198 -232.5q-18 18.5 -18 46.5q0 37 28 64.5t65 27.5q30 0 48.5 -18t18.5 -46q0 -37 -28.5 -65t-65.5 -28q-30 0 -48 18.5z" />
    <glyph glyph-name="ograve.ss01" horiz-adv-x="574" 
d="M126.5 46q-55.5 55 -55.5 144q0 26 4 49l9 52q12 71 50.5 127.5t100.5 89t140 32.5q103 0 158.5 -55t55.5 -144q0 -27 -4 -50l-9 -52q-12 -71 -50 -127t-100 -88.5t-141 -32.5q-103 0 -158.5 55zM386 150q32 34 42 91l9 48q3 18 3 33q0 43 -22 68t-63 25q-49 0 -81 -34.5
t-42 -91.5l-9 -48q-3 -18 -3 -33q0 -42 22 -67t63 -25q49 0 81 34zM223 806h153l69 -200l-123 -1z" />
    <glyph glyph-name="uni1ECF.ss01" horiz-adv-x="574" 
d="M126.5 46q-55.5 55 -55.5 144q0 26 4 49l9 52q12 71 50.5 127.5t100.5 89t140 32.5q103 0 158.5 -55t55.5 -144q0 -27 -4 -50l-9 -52q-12 -71 -50 -127t-100 -88.5t-141 -32.5q-103 0 -158.5 55zM386 150q32 34 42 91l9 48q3 18 3 33q0 43 -22 68t-63 25q-49 0 -81 -34.5
t-42 -91.5l-9 -48q-3 -18 -3 -33q0 -42 22 -67t63 -25q49 0 81 34zM337 621q9 7 19.5 13.5t14.5 9.5q31 18 47 33.5t16 37.5q0 10 -6.5 16t-18.5 6q-15 0 -24.5 -8.5t-12.5 -22.5h-109q8 45 47.5 78.5t110.5 33.5q57 0 87 -24t30 -62q0 -40 -18.5 -62t-49.5 -41
q-24 -15 -28 -24h-117q3 9 12 16z" />
    <glyph glyph-name="ohorn.ss01" horiz-adv-x="607" 
d="M703 638l-10 -61q-10 -60 -50 -85.5t-90 -28.5q36 -51 36 -123q0 -26 -4 -49l-9 -52q-12 -71 -50 -127t-100 -88.5t-141 -32.5q-103 0 -158.5 55t-55.5 144q0 26 4 49l9 52q12 71 50.5 127.5t100.5 89t140 32.5q54 0 94 -15l1 4h42q22 0 36 3.5t25 18.5t16 46l6 41h108z
M440 322q0 43 -22 68t-63 25q-49 0 -81 -34.5t-42 -91.5l-9 -48q-3 -18 -3 -33q0 -42 22 -67t63 -25q49 0 81 34t42 91l9 48q3 18 3 33z" />
    <glyph glyph-name="uni1EDB.ss01" horiz-adv-x="607" 
d="M703 638l-10 -61q-10 -60 -50 -85.5t-90 -28.5q36 -51 36 -123q0 -26 -4 -49l-9 -52q-12 -71 -50 -127t-100 -88.5t-141 -32.5q-103 0 -158.5 55t-55.5 144q0 26 4 49l9 52q12 71 50.5 127.5t100.5 89t140 32.5q54 0 94 -15l1 4h42q22 0 36 3.5t25 18.5t16 46l6 41h108z
M440 322q0 43 -22 68t-63 25q-49 0 -81 -34.5t-42 -91.5l-9 -48q-3 -18 -3 -33q0 -42 22 -67t63 -25q49 0 81 34t42 91l9 48q3 18 3 33zM326 606l133 200h153l-163 -201z" />
    <glyph glyph-name="uni1EE3.ss01" horiz-adv-x="607" 
d="M703 638l-10 -61q-10 -60 -50 -85.5t-90 -28.5q36 -51 36 -123q0 -26 -4 -49l-9 -52q-12 -71 -50 -127t-100 -88.5t-141 -32.5q-103 0 -158.5 55t-55.5 144q0 26 4 49l9 52q12 71 50.5 127.5t100.5 89t140 32.5q54 0 94 -15l1 4h42q22 0 36 3.5t25 18.5t16 46l6 41h108z
M440 322q0 43 -22 68t-63 25q-49 0 -81 -34.5t-42 -91.5l-9 -48q-3 -18 -3 -33q0 -42 22 -67t63 -25q49 0 81 34t42 91l9 48q3 18 3 33zM198 -232.5q-18 18.5 -18 46.5q0 37 28 64.5t65 27.5q30 0 48.5 -18t18.5 -46q0 -37 -28.5 -65t-65.5 -28q-30 0 -48 18.5z" />
    <glyph glyph-name="uni1EDD.ss01" horiz-adv-x="607" 
d="M703 638l-10 -61q-10 -60 -50 -85.5t-90 -28.5q36 -51 36 -123q0 -26 -4 -49l-9 -52q-12 -71 -50 -127t-100 -88.5t-141 -32.5q-103 0 -158.5 55t-55.5 144q0 26 4 49l9 52q12 71 50.5 127.5t100.5 89t140 32.5q54 0 94 -15l1 4h42q22 0 36 3.5t25 18.5t16 46l6 41h108z
M440 322q0 43 -22 68t-63 25q-49 0 -81 -34.5t-42 -91.5l-9 -48q-3 -18 -3 -33q0 -42 22 -67t63 -25q49 0 81 34t42 91l9 48q3 18 3 33zM223 806h153l69 -200l-123 -1z" />
    <glyph glyph-name="uni1EDF.ss01" horiz-adv-x="607" 
d="M703 638l-10 -61q-10 -60 -50 -85.5t-90 -28.5q36 -51 36 -123q0 -26 -4 -49l-9 -52q-12 -71 -50 -127t-100 -88.5t-141 -32.5q-103 0 -158.5 55t-55.5 144q0 26 4 49l9 52q12 71 50.5 127.5t100.5 89t140 32.5q54 0 94 -15l1 4h42q22 0 36 3.5t25 18.5t16 46l6 41h108z
M440 322q0 43 -22 68t-63 25q-49 0 -81 -34.5t-42 -91.5l-9 -48q-3 -18 -3 -33q0 -42 22 -67t63 -25q49 0 81 34t42 91l9 48q3 18 3 33zM337 621q9 7 19.5 13.5t14.5 9.5q31 18 47 33.5t16 37.5q0 10 -6.5 16t-18.5 6q-15 0 -24.5 -8.5t-12.5 -22.5h-109q8 45 47.5 78.5
t110.5 33.5q57 0 87 -24t30 -62q0 -40 -18.5 -62t-49.5 -41q-24 -15 -28 -24h-117q3 9 12 16z" />
    <glyph glyph-name="uni1EE1.ss01" horiz-adv-x="607" 
d="M703 638l-10 -61q-10 -60 -50 -85.5t-90 -28.5q36 -51 36 -123q0 -26 -4 -49l-9 -52q-12 -71 -50 -127t-100 -88.5t-141 -32.5q-103 0 -158.5 55t-55.5 144q0 26 4 49l9 52q12 71 50.5 127.5t100.5 89t140 32.5q54 0 94 -15l1 4h42q22 0 36 3.5t25 18.5t16 46l6 41h108z
M440 322q0 43 -22 68t-63 25q-49 0 -81 -34.5t-42 -91.5l-9 -48q-3 -18 -3 -33q0 -42 22 -67t63 -25q49 0 81 34t42 91l9 48q3 18 3 33zM253 712.5q31 38.5 91 38.5q19 0 37 -5.5t40 -15.5q12 -5 25 -9.5t22 -4.5q15 0 23.5 11t9.5 25h78q-6 -58 -36.5 -95.5t-90.5 -37.5
q-20 0 -37.5 5.5t-39.5 15.5q-4 2 -19.5 8t-27.5 6q-16 0 -24 -11t-10 -26h-78q6 57 37 95.5z" />
    <glyph glyph-name="omacron.ss01" horiz-adv-x="574" 
d="M126.5 46q-55.5 55 -55.5 144q0 26 4 49l9 52q12 71 50.5 127.5t100.5 89t140 32.5q103 0 158.5 -55t55.5 -144q0 -27 -4 -50l-9 -52q-12 -71 -50 -127t-100 -88.5t-141 -32.5q-103 0 -158.5 55zM386 150q32 34 42 91l9 48q3 18 3 33q0 43 -22 68t-63 25q-49 0 -81 -34.5
t-42 -91.5l-9 -48q-3 -18 -3 -33q0 -42 22 -67t63 -25q49 0 81 34zM234 684h327l-11 -70h-327z" />
    <glyph glyph-name="oslash.ss01" horiz-adv-x="584" 
d="M541 478q48 -52 48 -138q0 -26 -4 -49l-9 -52q-12 -71 -50 -127t-100 -88.5t-141 -32.5q-50 0 -90 14l-29 -39h-107l62 85q-50 53 -50 138q0 27 4 50l9 52q12 71 50.5 128t100.5 89.5t140 32.5q54 0 94 -15l37 51h107zM220 206q0 -12 1 -18l164 223q-12 4 -30 4
q-49 0 -81 -34.5t-42 -91.5l-9 -48q-3 -18 -3 -35zM440 322q0 12 -1 17l-161 -220q12 -3 27 -3q49 0 81 34t42 91l9 48q3 18 3 33z" />
    <glyph glyph-name="otilde.ss01" horiz-adv-x="574" 
d="M126.5 46q-55.5 55 -55.5 144q0 26 4 49l9 52q12 71 50.5 127.5t100.5 89t140 32.5q103 0 158.5 -55t55.5 -144q0 -27 -4 -50l-9 -52q-12 -71 -50 -127t-100 -88.5t-141 -32.5q-103 0 -158.5 55zM386 150q32 34 42 91l9 48q3 18 3 33q0 43 -22 68t-63 25q-49 0 -81 -34.5
t-42 -91.5l-9 -48q-3 -18 -3 -33q0 -42 22 -67t63 -25q49 0 81 34zM253 712.5q31 38.5 91 38.5q19 0 37 -5.5t40 -15.5q12 -5 25 -9.5t22 -4.5q15 0 23.5 11t9.5 25h78q-6 -58 -36.5 -95.5t-90.5 -37.5q-20 0 -37.5 5.5t-39.5 15.5q-4 2 -19.5 8t-27.5 6q-16 0 -24 -11
t-10 -26h-78q6 57 37 95.5z" />
    <glyph glyph-name="oe.ss01" horiz-adv-x="927" 
d="M874.5 487.5q55.5 -52.5 55.5 -153.5q0 -30 -6 -66l-7 -46h-343l-2 -11q-1 -6 -1 -17q0 -36 20.5 -58.5t62.5 -22.5q35 0 61 17t40 49h152q-33 -84 -103 -136t-169 -52q-107 0 -164 62q-76 -62 -186 -62q-103 0 -158.5 55t-55.5 144q0 26 4 49l9 52q12 71 50.5 127.5
t100.5 89t140 32.5q109 0 166 -63q78 63 183 63q95 0 150.5 -52.5zM787 354q0 34 -22.5 54t-59.5 20q-44 0 -74.5 -26t-38.5 -70l-2 -10h193l2 10q2 8 2 22zM386 150q32 34 42 91l5 24l4 28l2 12q1 6 1 18q0 42 -22 67t-63 25q-49 0 -81 -34.5t-42 -91.5l-9 -48
q-3 -18 -3 -33q0 -42 22 -67t63 -25q49 0 81 34z" />
    <glyph glyph-name="p.ss01" horiz-adv-x="621" 
d="M279 22q-32 31 -41 63h-8l-50 -307h-157l122 751h157l-13 -77h8q19 30 60 59t108 29q78 0 126.5 -49.5t48.5 -131.5q0 -24 -4 -45l-16 -98q-11 -65 -46 -116.5t-86.5 -80t-109.5 -28.5q-67 0 -99 31zM422.5 149q33.5 33 43.5 88l9 56q3 15 3 28q0 43 -23.5 68.5
t-66.5 25.5q-50 0 -83.5 -34t-42.5 -88l-10 -56q-3 -15 -3 -29q0 -42 23.5 -67t66.5 -25q50 0 83.5 33z" />
    <glyph glyph-name="thorn.ss01" horiz-adv-x="617" 
d="M275 21q-31 30 -42 64h-8l-53 -329h-157l162 995h156l-48 -299h7q19 30 60 59t108 29q77 0 125.5 -49t48.5 -130q0 -26 -4 -47l-15 -98q-11 -65 -46 -116.5t-86.5 -80t-109.5 -28.5q-67 0 -98 30zM418.5 149q33.5 33 42.5 88l9 56q2 18 2 27q0 43 -23 69t-66 26
q-50 0 -84 -34t-42 -88l-9 -56q-3 -15 -3 -29q0 -42 23 -67t66 -25q51 0 84.5 33z" />
    <glyph glyph-name="q.ss01" horiz-adv-x="621" 
d="M115.5 40q-47.5 49 -47.5 130q0 25 4 46l15 98q11 67 47 118t88 79.5t110 28.5q66 0 98 -29.5t40 -58.5h8l13 77h157l-122 -751h-157l50 307h-8q-22 -34 -63.5 -64t-107.5 -30q-77 0 -124.5 49zM402.5 149q33.5 33 42.5 88l10 56q3 15 3 28q0 43 -23.5 68.5t-66.5 25.5
q-50 0 -83.5 -34t-42.5 -88l-10 -56q-3 -15 -3 -29q0 -42 23.5 -67t66.5 -25q50 0 83.5 33z" />
    <glyph glyph-name="r.ss01" horiz-adv-x="382" 
d="M143 529h155l-13 -84h7q13 25 27 42t41 29.5t70 12.5h31l-22 -138h-31q-66 0 -103.5 -29.5t-50.5 -108.5l-42 -253h-155z" />
    <glyph glyph-name="t.ss01" horiz-adv-x="430" 
d="M303 221q-6 -40 -6 -50q0 -26 14 -37.5t52 -11.5h27l-20 -122h-87q-83 0 -115 31.5t-32 88.5q0 32 6 65l36 223h-84l19 121h85l28 171h155l-28 -171h116l-19 -121h-117z" />
    <glyph glyph-name="y.ss01" horiz-adv-x="548" 
d="M72 -234l136 242l-102 509l2 12h153l46 -350h6l165 350h153l-2 -12l-413 -766h-147z" />
    <glyph glyph-name="yacute.ss01" horiz-adv-x="548" 
d="M72 -234l136 242l-102 509l2 12h153l46 -350h6l165 350h153l-2 -12l-413 -766h-147zM320 606l133 200h153l-163 -201z" />
    <glyph glyph-name="ycircumflex.ss01" horiz-adv-x="548" 
d="M72 -234l136 242l-102 509l2 12h153l46 -350h6l165 350h153l-2 -12l-413 -766h-147zM349 754h112l121 -163h-141l-50 69h-4l-72 -69h-139z" />
    <glyph glyph-name="ydieresis.ss01" horiz-adv-x="548" 
d="M72 -234l136 242l-102 509l2 12h153l46 -350h6l165 350h153l-2 -12l-413 -766h-147zM474.5 637q-19.5 20 -19.5 49q0 40 30 70t70 30q32 0 51.5 -19.5t19.5 -49.5q0 -40 -30.5 -70t-70.5 -30q-31 0 -50.5 20zM202.5 637q-19.5 20 -19.5 49q0 40 30 70t70 30
q32 0 51.5 -19.5t19.5 -49.5q0 -40 -30.5 -70t-70.5 -30q-31 0 -50.5 20z" />
    <glyph glyph-name="uni1EF5.ss01" horiz-adv-x="548" 
d="M72 -234l136 242l-102 509l2 12h153l46 -350h6l165 350h153l-2 -12l-413 -766h-147zM371 -232.5q-18 18.5 -18 46.5q0 37 28 64.5t65 27.5q30 0 48.5 -18t18.5 -46q0 -37 -28.5 -65t-65.5 -28q-30 0 -48 18.5z" />
    <glyph glyph-name="ygrave.ss01" horiz-adv-x="548" 
d="M72 -234l136 242l-102 509l2 12h153l46 -350h6l165 350h153l-2 -12l-413 -766h-147zM218 806h153l69 -200l-123 -1z" />
    <glyph glyph-name="uni1EF7.ss01" horiz-adv-x="548" 
d="M72 -234l136 242l-102 509l2 12h153l46 -350h6l165 350h153l-2 -12l-413 -766h-147zM331 621q9 7 19.5 13.5t14.5 9.5q31 18 47 33.5t16 37.5q0 10 -6.5 16t-18.5 6q-15 0 -24.5 -8.5t-12.5 -22.5h-109q8 45 47.5 78.5t110.5 33.5q57 0 87 -24t30 -62q0 -40 -18.5 -62
t-49.5 -41q-24 -15 -28 -24h-117q3 9 12 16z" />
    <glyph glyph-name="uni1EF9.ss01" horiz-adv-x="548" 
d="M72 -234l136 242l-102 509l2 12h153l46 -350h6l165 350h153l-2 -12l-413 -766h-147zM248 712.5q31 38.5 91 38.5q19 0 37 -5.5t40 -15.5q12 -5 25 -9.5t22 -4.5q15 0 23.5 11t9.5 25h78q-6 -58 -36.5 -95.5t-90.5 -37.5q-20 0 -37.5 5.5t-39.5 15.5q-4 2 -19.5 8t-27.5 6
q-16 0 -24 -11t-10 -26h-78q6 57 37 95.5z" />
    <glyph glyph-name="a.ss02" horiz-adv-x="618" 
d="M115.5 40q-47.5 49 -47.5 130q0 25 4 46l15 98q11 67 46.5 118t87 79.5t109.5 28.5q66 0 97 -29t41 -59h8l12 77h157l-86 -529h-157l15 85h-8q-23 -34 -63 -64t-106 -30q-77 0 -124.5 49zM401 150q33 34 42 89l9 52q3 15 3 30q0 43 -23 68.5t-65 25.5q-50 0 -83.5 -34.5
t-42.5 -89.5l-9 -52q-3 -15 -3 -30q0 -42 23 -67.5t65 -25.5q51 0 84 34z" />
    <glyph glyph-name="aacute.ss02" horiz-adv-x="618" 
d="M115.5 40q-47.5 49 -47.5 130q0 25 4 46l15 98q11 67 46.5 118t87 79.5t109.5 28.5q66 0 97 -29t41 -59h8l12 77h157l-86 -529h-157l15 85h-8q-23 -34 -63 -64t-106 -30q-77 0 -124.5 49zM401 150q33 34 42 89l9 52q3 15 3 30q0 43 -23 68.5t-65 25.5q-50 0 -83.5 -34.5
t-42.5 -89.5l-9 -52q-3 -15 -3 -30q0 -42 23 -67.5t65 -25.5q51 0 84 34zM347 606l133 200h153l-163 -201z" />
    <glyph glyph-name="abreve.ss02" horiz-adv-x="618" 
d="M115.5 40q-47.5 49 -47.5 130q0 25 4 46l15 98q11 67 46.5 118t87 79.5t109.5 28.5q66 0 97 -29t41 -59h8l12 77h157l-86 -529h-157l15 85h-8q-23 -34 -63 -64t-106 -30q-77 0 -124.5 49zM401 150q33 34 42 89l9 52q3 15 3 30q0 43 -23 68.5t-65 25.5q-50 0 -83.5 -34.5
t-42.5 -89.5l-9 -52q-3 -15 -3 -30q0 -42 23 -67.5t65 -25.5q51 0 84 34zM236 730h124q5 -21 19.5 -33.5t39.5 -12.5t43.5 12.5t30.5 33.5h124q-83 -129 -211 -129q-129 0 -170 129z" />
    <glyph glyph-name="uni1EAF.ss02" horiz-adv-x="618" 
d="M115.5 40q-47.5 49 -47.5 130q0 25 4 46l15 98q11 67 46.5 118t87 79.5t109.5 28.5q66 0 97 -29t41 -59h8l12 77h157l-86 -529h-157l15 85h-8q-23 -34 -63 -64t-106 -30q-77 0 -124.5 49zM401 150q33 34 42 89l9 52q3 15 3 30q0 43 -23 68.5t-65 25.5q-50 0 -83.5 -34.5
t-42.5 -89.5l-9 -52q-3 -15 -3 -30q0 -42 23 -67.5t65 -25.5q51 0 84 34zM236 730h124q5 -21 19.5 -33.5t39.5 -12.5t43.5 12.5t30.5 33.5h124q-83 -129 -211 -129q-129 0 -170 129zM376 780l133 200h153l-163 -201z" />
    <glyph glyph-name="uni1EB7.ss02" horiz-adv-x="618" 
d="M115.5 40q-47.5 49 -47.5 130q0 25 4 46l15 98q11 67 46.5 118t87 79.5t109.5 28.5q66 0 97 -29t41 -59h8l12 77h157l-86 -529h-157l15 85h-8q-23 -34 -63 -64t-106 -30q-77 0 -124.5 49zM401 150q33 34 42 89l9 52q3 15 3 30q0 43 -23 68.5t-65 25.5q-50 0 -83.5 -34.5
t-42.5 -89.5l-9 -52q-3 -15 -3 -30q0 -42 23 -67.5t65 -25.5q51 0 84 34zM236 730h124q5 -21 19.5 -33.5t39.5 -12.5t43.5 12.5t30.5 33.5h124q-83 -129 -211 -129q-129 0 -170 129zM202 -232.5q-18 18.5 -18 46.5q0 37 28 64.5t65 27.5q30 0 48.5 -18t18.5 -46
q0 -37 -28.5 -65t-65.5 -28q-30 0 -48 18.5z" />
    <glyph glyph-name="uni1EB1.ss02" horiz-adv-x="618" 
d="M115.5 40q-47.5 49 -47.5 130q0 25 4 46l15 98q11 67 46.5 118t87 79.5t109.5 28.5q66 0 97 -29t41 -59h8l12 77h157l-86 -529h-157l15 85h-8q-23 -34 -63 -64t-106 -30q-77 0 -124.5 49zM401 150q33 34 42 89l9 52q3 15 3 30q0 43 -23 68.5t-65 25.5q-50 0 -83.5 -34.5
t-42.5 -89.5l-9 -52q-3 -15 -3 -30q0 -42 23 -67.5t65 -25.5q51 0 84 34zM242 730h124q5 -21 19.5 -33.5t39.5 -12.5t43.5 12.5t30.5 33.5h124q-83 -129 -211 -129q-129 0 -170 129zM279 980h153l69 -200l-123 -1z" />
    <glyph glyph-name="uni1EB3.ss02" horiz-adv-x="618" 
d="M115.5 40q-47.5 49 -47.5 130q0 25 4 46l15 98q11 67 46.5 118t87 79.5t109.5 28.5q66 0 97 -29t41 -59h8l12 77h157l-86 -529h-157l15 85h-8q-23 -34 -63 -64t-106 -30q-77 0 -124.5 49zM401 150q33 34 42 89l9 52q3 15 3 30q0 43 -23 68.5t-65 25.5q-50 0 -83.5 -34.5
t-42.5 -89.5l-9 -52q-3 -15 -3 -30q0 -42 23 -67.5t65 -25.5q51 0 84 34zM236 730h124q5 -21 19.5 -33.5t39.5 -12.5t43.5 12.5t30.5 33.5h124q-83 -129 -211 -129q-129 0 -170 129zM387 795q9 7 19.5 13.5t14.5 9.5q31 18 47 33.5t16 37.5q0 10 -6.5 16t-18.5 6
q-15 0 -24.5 -8.5t-12.5 -22.5h-109q8 45 47.5 78.5t110.5 33.5q57 0 87 -24t30 -62q0 -40 -18.5 -62t-49.5 -41q-24 -15 -28 -24h-117q3 9 12 16z" />
    <glyph glyph-name="uni1EB5.ss02" horiz-adv-x="618" 
d="M115.5 40q-47.5 49 -47.5 130q0 25 4 46l15 98q11 67 46.5 118t87 79.5t109.5 28.5q66 0 97 -29t41 -59h8l12 77h157l-86 -529h-157l15 85h-8q-23 -34 -63 -64t-106 -30q-77 0 -124.5 49zM401 150q33 34 42 89l9 52q3 15 3 30q0 43 -23 68.5t-65 25.5q-50 0 -83.5 -34.5
t-42.5 -89.5l-9 -52q-3 -15 -3 -30q0 -42 23 -67.5t65 -25.5q51 0 84 34zM236 730h124q5 -21 19.5 -33.5t39.5 -12.5t43.5 12.5t30.5 33.5h124q-83 -129 -211 -129q-129 0 -170 129zM303 886.5q31 38.5 91 38.5q19 0 37 -5.5t40 -15.5q12 -5 25 -9.5t22 -4.5q15 0 23.5 11
t9.5 25h78q-6 -58 -36.5 -95.5t-90.5 -37.5q-20 0 -37.5 5.5t-39.5 15.5q-4 2 -19.5 8t-27.5 6q-16 0 -24 -11t-10 -26h-78q6 57 37 95.5z" />
    <glyph glyph-name="acircumflex.ss02" horiz-adv-x="618" 
d="M115.5 40q-47.5 49 -47.5 130q0 25 4 46l15 98q11 67 46.5 118t87 79.5t109.5 28.5q66 0 97 -29t41 -59h8l12 77h157l-86 -529h-157l15 85h-8q-23 -34 -63 -64t-106 -30q-77 0 -124.5 49zM401 150q33 34 42 89l9 52q3 15 3 30q0 43 -23 68.5t-65 25.5q-50 0 -83.5 -34.5
t-42.5 -89.5l-9 -52q-3 -15 -3 -30q0 -42 23 -67.5t65 -25.5q51 0 84 34zM376 754h112l121 -163h-141l-50 69h-4l-72 -69h-139z" />
    <glyph glyph-name="uni1EA5.ss02" horiz-adv-x="618" 
d="M115.5 40q-47.5 49 -47.5 130q0 25 4 46l15 98q11 67 46.5 118t87 79.5t109.5 28.5q66 0 97 -29t41 -59h8l12 77h157l-86 -529h-157l15 85h-8q-23 -34 -63 -64t-106 -30q-77 0 -124.5 49zM401 150q33 34 42 89l9 52q3 15 3 30q0 43 -23 68.5t-65 25.5q-50 0 -83.5 -34.5
t-42.5 -89.5l-9 -52q-3 -15 -3 -30q0 -42 23 -67.5t65 -25.5q51 0 84 34zM375 754h112l121 -163h-141l-50 69h-4l-72 -69h-139zM547 722l133 200h153l-163 -201z" />
    <glyph glyph-name="uni1EAD.ss02" horiz-adv-x="618" 
d="M115.5 40q-47.5 49 -47.5 130q0 25 4 46l15 98q11 67 46.5 118t87 79.5t109.5 28.5q66 0 97 -29t41 -59h8l12 77h157l-86 -529h-157l15 85h-8q-23 -34 -63 -64t-106 -30q-77 0 -124.5 49zM401 150q33 34 42 89l9 52q3 15 3 30q0 43 -23 68.5t-65 25.5q-50 0 -83.5 -34.5
t-42.5 -89.5l-9 -52q-3 -15 -3 -30q0 -42 23 -67.5t65 -25.5q51 0 84 34zM376 754h112l121 -163h-141l-50 69h-4l-72 -69h-139zM202 -232.5q-18 18.5 -18 46.5q0 37 28 64.5t65 27.5q30 0 48.5 -18t18.5 -46q0 -37 -28.5 -65t-65.5 -28q-30 0 -48 18.5z" />
    <glyph glyph-name="uni1EA7.ss02" horiz-adv-x="618" 
d="M115.5 40q-47.5 49 -47.5 130q0 25 4 46l15 98q11 67 46.5 118t87 79.5t109.5 28.5q66 0 97 -29t41 -59h8l12 77h157l-86 -529h-157l15 85h-8q-23 -34 -63 -64t-106 -30q-77 0 -124.5 49zM401 150q33 34 42 89l9 52q3 15 3 30q0 43 -23 68.5t-65 25.5q-50 0 -83.5 -34.5
t-42.5 -89.5l-9 -52q-3 -15 -3 -30q0 -42 23 -67.5t65 -25.5q51 0 84 34zM375 754h112l121 -163h-141l-50 69h-4l-72 -69h-139zM464 922h153l69 -200l-123 -1z" />
    <glyph glyph-name="uni1EA9.ss02" horiz-adv-x="618" 
d="M115.5 40q-47.5 49 -47.5 130q0 25 4 46l15 98q11 67 46.5 118t87 79.5t109.5 28.5q66 0 97 -29t41 -59h8l12 77h157l-86 -529h-157l15 85h-8q-23 -34 -63 -64t-106 -30q-77 0 -124.5 49zM401 150q33 34 42 89l9 52q3 15 3 30q0 43 -23 68.5t-65 25.5q-50 0 -83.5 -34.5
t-42.5 -89.5l-9 -52q-3 -15 -3 -30q0 -42 23 -67.5t65 -25.5q51 0 84 34zM375 754h112l121 -163h-141l-50 69h-4l-72 -69h-139zM561 749q9 7 19.5 13.5t14.5 9.5q31 18 47 33.5t16 37.5q0 10 -6.5 16t-18.5 6q-15 0 -24.5 -8.5t-12.5 -22.5h-109q8 45 47.5 78.5t110.5 33.5
q57 0 87 -24t30 -62q0 -40 -18.5 -62t-49.5 -41q-24 -15 -28 -24h-117q3 9 12 16z" />
    <glyph glyph-name="uni1EAB.ss02" horiz-adv-x="618" 
d="M115.5 40q-47.5 49 -47.5 130q0 25 4 46l15 98q11 67 46.5 118t87 79.5t109.5 28.5q66 0 97 -29t41 -59h8l12 77h157l-86 -529h-157l15 85h-8q-23 -34 -63 -64t-106 -30q-77 0 -124.5 49zM401 150q33 34 42 89l9 52q3 15 3 30q0 43 -23 68.5t-65 25.5q-50 0 -83.5 -34.5
t-42.5 -89.5l-9 -52q-3 -15 -3 -30q0 -42 23 -67.5t65 -25.5q51 0 84 34zM374 754h112l121 -163h-141l-50 69h-4l-72 -69h-139zM299 895.5q31 38.5 91 38.5q19 0 37 -5.5t40 -15.5q12 -5 25 -9.5t22 -4.5q15 0 23.5 11t9.5 25h78q-6 -58 -36.5 -95.5t-90.5 -37.5
q-20 0 -37.5 5.5t-39.5 15.5q-4 2 -19.5 8t-27.5 6q-16 0 -24 -11t-10 -26h-78q6 57 37 95.5z" />
    <glyph glyph-name="adieresis.ss02" horiz-adv-x="618" 
d="M115.5 40q-47.5 49 -47.5 130q0 25 4 46l15 98q11 67 46.5 118t87 79.5t109.5 28.5q66 0 97 -29t41 -59h8l12 77h157l-86 -529h-157l15 85h-8q-23 -34 -63 -64t-106 -30q-77 0 -124.5 49zM401 150q33 34 42 89l9 52q3 15 3 30q0 43 -23 68.5t-65 25.5q-50 0 -83.5 -34.5
t-42.5 -89.5l-9 -52q-3 -15 -3 -30q0 -42 23 -67.5t65 -25.5q51 0 84 34zM501.5 637q-19.5 20 -19.5 49q0 40 30 70t70 30q32 0 51.5 -19.5t19.5 -49.5q0 -40 -30.5 -70t-70.5 -30q-31 0 -50.5 20zM229.5 637q-19.5 20 -19.5 49q0 40 30 70t70 30q32 0 51.5 -19.5
t19.5 -49.5q0 -40 -30.5 -70t-70.5 -30q-31 0 -50.5 20z" />
    <glyph glyph-name="uni1EA1.ss02" horiz-adv-x="618" 
d="M115.5 40q-47.5 49 -47.5 130q0 25 4 46l15 98q11 67 46.5 118t87 79.5t109.5 28.5q66 0 97 -29t41 -59h8l12 77h157l-86 -529h-157l15 85h-8q-23 -34 -63 -64t-106 -30q-77 0 -124.5 49zM401 150q33 34 42 89l9 52q3 15 3 30q0 43 -23 68.5t-65 25.5q-50 0 -83.5 -34.5
t-42.5 -89.5l-9 -52q-3 -15 -3 -30q0 -42 23 -67.5t65 -25.5q51 0 84 34zM202 -232.5q-18 18.5 -18 46.5q0 37 28 64.5t65 27.5q30 0 48.5 -18t18.5 -46q0 -37 -28.5 -65t-65.5 -28q-30 0 -48 18.5z" />
    <glyph glyph-name="agrave.ss02" horiz-adv-x="618" 
d="M115.5 40q-47.5 49 -47.5 130q0 25 4 46l15 98q11 67 46.5 118t87 79.5t109.5 28.5q66 0 97 -29t41 -59h8l12 77h157l-86 -529h-157l15 85h-8q-23 -34 -63 -64t-106 -30q-77 0 -124.5 49zM401 150q33 34 42 89l9 52q3 15 3 30q0 43 -23 68.5t-65 25.5q-50 0 -83.5 -34.5
t-42.5 -89.5l-9 -52q-3 -15 -3 -30q0 -42 23 -67.5t65 -25.5q51 0 84 34zM245 806h153l69 -200l-123 -1z" />
    <glyph glyph-name="uni1EA3.ss02" horiz-adv-x="618" 
d="M115.5 40q-47.5 49 -47.5 130q0 25 4 46l15 98q11 67 46.5 118t87 79.5t109.5 28.5q66 0 97 -29t41 -59h8l12 77h157l-86 -529h-157l15 85h-8q-23 -34 -63 -64t-106 -30q-77 0 -124.5 49zM401 150q33 34 42 89l9 52q3 15 3 30q0 43 -23 68.5t-65 25.5q-50 0 -83.5 -34.5
t-42.5 -89.5l-9 -52q-3 -15 -3 -30q0 -42 23 -67.5t65 -25.5q51 0 84 34zM358 621q9 7 19.5 13.5t14.5 9.5q31 18 47 33.5t16 37.5q0 10 -6.5 16t-18.5 6q-15 0 -24.5 -8.5t-12.5 -22.5h-109q8 45 47.5 78.5t110.5 33.5q57 0 87 -24t30 -62q0 -40 -18.5 -62t-49.5 -41
q-24 -15 -28 -24h-117q3 9 12 16z" />
    <glyph glyph-name="amacron.ss02" horiz-adv-x="618" 
d="M115.5 40q-47.5 49 -47.5 130q0 25 4 46l15 98q11 67 46.5 118t87 79.5t109.5 28.5q66 0 97 -29t41 -59h8l12 77h157l-86 -529h-157l15 85h-8q-23 -34 -63 -64t-106 -30q-77 0 -124.5 49zM401 150q33 34 42 89l9 52q3 15 3 30q0 43 -23 68.5t-65 25.5q-50 0 -83.5 -34.5
t-42.5 -89.5l-9 -52q-3 -15 -3 -30q0 -42 23 -67.5t65 -25.5q51 0 84 34zM255 684h327l-11 -70h-327z" />
    <glyph glyph-name="aring.ss02" horiz-adv-x="618" 
d="M115.5 40q-47.5 49 -47.5 130q0 25 4 46l15 98q11 67 46.5 118t87 79.5t109.5 28.5q66 0 97 -29t41 -59h8l12 77h157l-86 -529h-157l15 85h-8q-23 -34 -63 -64t-106 -30q-77 0 -124.5 49zM401 150q33 34 42 89l9 52q3 15 3 30q0 43 -23 68.5t-65 25.5q-50 0 -83.5 -34.5
t-42.5 -89.5l-9 -52q-3 -15 -3 -30q0 -42 23 -67.5t65 -25.5q51 0 84 34zM343 622q-25 25 -25 62q0 30 17 57.5t45 44.5t59 17q38 0 63 -25t25 -62q0 -30 -17 -57.5t-45.5 -44.5t-58.5 -17q-38 0 -63 25zM448.5 674q14.5 14 14.5 33q0 14 -10 23.5t-24 9.5q-19 0 -33 -14
t-14 -33q0 -14 9.5 -23.5t24.5 -9.5q18 0 32.5 14z" />
    <glyph glyph-name="atilde.ss02" horiz-adv-x="618" 
d="M115.5 40q-47.5 49 -47.5 130q0 25 4 46l15 98q11 67 46.5 118t87 79.5t109.5 28.5q66 0 97 -29t41 -59h8l12 77h157l-86 -529h-157l15 85h-8q-23 -34 -63 -64t-106 -30q-77 0 -124.5 49zM401 150q33 34 42 89l9 52q3 15 3 30q0 43 -23 68.5t-65 25.5q-50 0 -83.5 -34.5
t-42.5 -89.5l-9 -52q-3 -15 -3 -30q0 -42 23 -67.5t65 -25.5q51 0 84 34zM275 712.5q31 38.5 91 38.5q19 0 37 -5.5t40 -15.5q12 -5 25 -9.5t22 -4.5q15 0 23.5 11t9.5 25h78q-6 -58 -36.5 -95.5t-90.5 -37.5q-20 0 -37.5 5.5t-39.5 15.5q-4 2 -19.5 8t-27.5 6
q-16 0 -24 -11t-10 -26h-78q6 57 37 95.5z" />
    <glyph glyph-name="f_h.dlig" horiz-adv-x="1022" 
d="M997.5 494q34.5 -46 34.5 -114q0 -31 -4 -52l-54 -328h-155l49 301q3 17 3 31q0 39 -19 60t-58 21q-45 0 -73.5 -31t-36.5 -81l-50 -301h-157l88 536q5 28 5 45q0 30 -15.5 44t-55.5 14h-59q-39 0 -62.5 -24.5t-30.5 -69.5l-3 -16h113l-19 -121h-113l-67 -408h-157
l67 408h-66l19 121h66l3 16q17 106 85.5 164.5t170.5 58.5h74q106 0 155.5 -41t49.5 -131q0 -28 -7 -77l-11 -67h8q24 37 66 62.5t97 25.5q85 0 119.5 -46z" />
    <glyph glyph-name="f_k.dlig" horiz-adv-x="992" 
d="M827 285l135 -285h-173l-108 253h-5l-42 -253h-157l88 536q5 28 5 45q0 30 -15.5 44t-55.5 14h-59q-39 0 -62.5 -24.5t-30.5 -69.5l-3 -16h113l-19 -121h-113l-67 -408h-157l67 408h-66l19 121h66l3 16q17 106 85.5 164.5t170.5 58.5h74q104 0 155 -39.5t51 -133.5
q0 -27 -7 -76l-31 -189h5l179 199h172z" />
    <glyph glyph-name="f_l.dlig" horiz-adv-x="767" 
d="M753 110l-18 -108q-47 -5 -87 -5q-86 0 -118.5 28t-32.5 78q0 16 3 36.5t4 26.5l61 370q5 28 5 45q0 30 -15.5 44t-55.5 14h-59q-39 0 -62.5 -24.5t-30.5 -69.5l-3 -16h120l-19 -121h-120l-67 -408h-157l67 408h-66l19 121h66l3 16q17 106 85.5 164.5t170.5 58.5h74
q105 0 154.5 -40t49.5 -132q0 -28 -7 -77l-52 -321q-5 -28 -5 -45q0 -23 14 -34t52 -11q19 0 27 2z" />
    <glyph glyph-name="f_t.dlig" horiz-adv-x="822" 
d="M694 198q-5 -28 -5 -45q0 -23 14 -34t52 -11q20 0 40 4l-17 -108q-11 -2 -41 -4.5t-60 -2.5q-86 0 -118.5 28t-32.5 78q0 16 3 36.5t4 26.5l39 242h-250l-67 -408h-155l66 408h-64l20 121h63l10 61q9 50 52 99.5t148 49.5q25 0 55 -3.5t39 -6.5l-16 -102q-24 4 -51 4
q-30 0 -45.5 -12.5t-21.5 -29.5t-11 -46l-2 -14h250l28 171h155l-28 -171h116l-19 -121h-116z" />
    <glyph glyph-name="r_f.dlig" horiz-adv-x="728" 
d="M703.5 618.5q-15.5 -12.5 -21.5 -29.5t-11 -46l-2 -14h115l-19 -121h-116l-67 -408h-155l66 408h-108q-56 0 -90 -30t-47 -110l-44 -268h-155l86 529h155l-13 -85h7q21 36 59 60.5t90 24.5h79l10 61q7 49 51 99t149 50q25 0 55 -3.5t39 -6.5l-16 -102q-24 4 -51 4
q-30 0 -45.5 -12.5z" />
    <glyph glyph-name="r_t.dlig" horiz-adv-x="795" 
d="M665 198q-5 -28 -5 -45q0 -23 14 -34t52 -11q18 0 40 4l-17 -108q-11 -2 -41.5 -4.5t-59.5 -2.5q-86 0 -118.5 28t-32.5 77q0 27 7 64l39 242h-156q-113 0 -139 -155l-41 -253h-155l86 529h155l-14 -85h7q21 36 59.5 60.5t90.5 24.5h127l28 171h155l-28 -171h116
l-19 -121h-116z" />
    <glyph glyph-name="f_f.liga.ss01" horiz-adv-x="781" 
d="M760.5 607q-15.5 -9 -21 -23t-9.5 -41l-2 -14h115l-19 -121h-116l-66 -408h-156l67 408h-231l-67 -408h-155l67 408h-65l20 121h64l8 47q10 63 56.5 113t153.5 50h87l-19 -123h-52q-31 0 -46 -9t-20 -23t-10 -41l-2 -14h230l8 47q10 63 56 113t154 50h87l-19 -123h-51
q-31 0 -46.5 -9z" />
    <glyph glyph-name="f_i.liga.ss01" horiz-adv-x="684" 
d="M730.5 766.5q19.5 -19.5 19.5 -49.5q0 -40 -30.5 -70t-70.5 -30q-31 0 -50.5 20t-19.5 49q0 40 30 70t70 30q32 0 51.5 -19.5zM619 0h-156l66 408h-207l-67 -408h-155l67 408h-65l20 121h64l8 47q10 63 56.5 113t153.5 50h87l-19 -123h-52q-31 0 -46 -9t-20 -23t-10 -41
l-2 -14h363z" />
    <glyph glyph-name="t_t.liga.ss01" horiz-adv-x="859" 
d="M732 221q-6 -40 -6 -51q0 -25 14.5 -36.5t51.5 -11.5h26l-19 -122h-87q-83 0 -115 31.5t-32 88.5q0 32 6 65l36 223h-274l-30 -187q-6 -40 -6 -50q0 -26 14 -37.5t52 -11.5h27l-20 -122h-87q-83 0 -115 31.5t-32 88.5q0 32 6 65l36 223h-84l19 121h85l28 171h155
l-28 -171h274l28 171h155l-28 -171h116l-19 -121h-117z" />
    <glyph glyph-name="ordfeminine" unicode="&#xaa;" horiz-adv-x="173" 
d="M92 392.5q-12 14.5 -12 39.5q0 42 20 70.5t50 28.5q23 0 33 -20h2l2 18h61l-23 -149h-62l3 19h-2q-14 -21 -39 -21q-21 0 -33 14.5zM173.5 437q7.5 13 7.5 28q0 8 -4 14t-12 6q-12 0 -19 -13t-7 -28q0 -20 16 -20q11 0 18.5 13z" />
    <glyph glyph-name="ordmasculine" unicode="&#xba;" horiz-adv-x="170" 
d="M100 395q-16 17 -16 44q0 42 25.5 69.5t63.5 27.5q31 0 47 -17.5t16 -44.5q0 -41 -25.5 -68.5t-63.5 -27.5q-31 0 -47 17zM176 435.5q9 14.5 9 34.5q0 10 -5 16.5t-14 6.5q-13 0 -22 -13.5t-9 -34.5q0 -10 5 -17t14 -7q13 0 22 14.5z" />
    <glyph glyph-name="zero" unicode="0" horiz-adv-x="627" 
d="M136 49.5q-57 64.5 -57 175.5q0 39 8 89l13 74q25 148 106.5 236.5t221.5 88.5q118 0 174.5 -63.5t56.5 -173.5q0 -38 -8 -88l-13 -74q-25 -149 -107 -239t-221 -90q-117 0 -174 64.5zM416.5 166q30.5 47 45.5 139l15 92q7 42 7 79q0 51 -18.5 77t-59.5 26
q-54 0 -84.5 -45.5t-45.5 -136.5l-15 -92q-8 -48 -8 -81q0 -52 18.5 -78.5t59.5 -26.5q55 0 85.5 47z" />
    <glyph glyph-name="one" unicode="1" horiz-adv-x="534" 
d="M530 135l-21 -135h-440l22 135h154l62 380h-4l-173 -135l30 185l172 135h153l-91 -565h136z" />
    <glyph glyph-name="two" unicode="2" horiz-adv-x="598" 
d="M76 132l106 79l68 49q77 54 121.5 90.5t73.5 76.5t29 82q0 31 -19.5 52t-60.5 21q-60 0 -85.5 -36.5t-28.5 -70.5l-1 -13h-154q13 80 53.5 137t101.5 86.5t132 29.5q101 0 155.5 -49t54.5 -129q0 -68 -33 -124.5t-76.5 -95t-104.5 -83.5q-8 -5 -13 -9t-9 -7l-105 -78
l-1 -5h286l-22 -135h-488z" />
    <glyph glyph-name="three" unicode="3" horiz-adv-x="599" 
d="M117.5 52.5q-56.5 61.5 -53.5 157.5h157q4 -39 29 -60.5t68 -21.5q53 0 87.5 30.5t34.5 77.5q0 34 -25 53.5t-66 19.5h-61l19 118h64q47 0 75.5 27t28.5 68q0 32 -22.5 50.5t-60.5 18.5q-40 0 -69.5 -21.5t-43.5 -59.5h-152q29 91 99 149.5t188 58.5q77 0 126 -25.5
t70.5 -65t21.5 -84.5q0 -63 -30 -102t-63 -56.5t-39 -17.5l-1 -6l21.5 -7.5t45 -40t23.5 -77.5q0 -70 -38 -125.5t-104.5 -87.5t-149.5 -32q-123 0 -179.5 61.5z" />
    <glyph glyph-name="four" unicode="4" horiz-adv-x="619" 
d="M364 164l-304 1l18 113l331 422h196l-69 -418h82l-18 -118h-83l-26 -164h-153zM384 285l38 231l-185 -231h147z" />
    <glyph glyph-name="five" unicode="5" horiz-adv-x="596" 
d="M172 22q-51 31 -74 81.5t-21 108.5h158q1 -41 25 -62t60 -21q52 0 87 41t35 103q0 39 -22 61.5t-64 22.5q-69 0 -104 -61l-153 2l84 402h446l-23 -141h-318l-34 -155h7q17 21 55 41.5t99 20.5q88 0 136 -47t48 -128q0 -80 -38 -148.5t-106.5 -110t-154.5 -41.5
q-77 0 -128 31z" />
    <glyph glyph-name="six" unicode="6" horiz-adv-x="592" 
d="M136.5 43q-63.5 52 -63.5 151q0 92 44.5 172.5t112.5 164.5l136 169h151l-243 -294l4 -3l16 13q26 21 55 34t73 13q83 0 128.5 -50t45.5 -131q0 -83 -38.5 -149.5t-107 -104t-152.5 -37.5q-98 0 -161.5 52zM381 134.5q30 20.5 46 53.5t16 70q0 39 -22.5 66.5t-69.5 27.5
q-38 0 -67.5 -20.5t-45.5 -53.5t-16 -69q0 -40 22.5 -67.5t67.5 -27.5q39 0 69 20.5z" />
    <glyph glyph-name="seven" unicode="7" horiz-adv-x="529" 
d="M92 12l358 541l1 6h-342l22 141h486l-25 -159l-338 -541h-164z" />
    <glyph glyph-name="eight" unicode="8" horiz-adv-x="607" 
d="M132.5 33.5q-55.5 49.5 -55.5 124.5q0 63 27 106t60 64.5t52 25.5l1 5q-22 9 -46.5 40t-24.5 82q0 58 32 111t95 86.5t152 33.5q113 0 164 -49t51 -119q0 -53 -23 -92.5t-51.5 -62.5t-46.5 -30l-1 -5q13 -4 33 -17t37 -41t17 -70q0 -66 -35.5 -121.5t-103 -88
t-159.5 -32.5q-119 0 -174.5 49.5zM457.5 438q31.5 32 31.5 74q0 31 -20.5 53t-63.5 22q-52 0 -82.5 -32t-30.5 -76q0 -31 20 -52t63 -21q51 0 82.5 32zM392 127q28 17 43 45t15 59q0 35 -21.5 58.5t-67.5 23.5q-56 0 -90 -36.5t-34 -86.5q0 -34 21.5 -57t68.5 -23
q37 0 65 17z" />
    <glyph glyph-name="nine" unicode="9" horiz-adv-x="592" 
d="M432 298l-2 4l-18 -14q-25 -21 -54 -33t-72 -12q-84 0 -130 50t-46 130q0 83 39 149t108 103.5t156 37.5q60 0 110.5 -22.5t80.5 -68.5t30 -111q0 -69 -28 -135t-59 -109.5t-71 -92.5l-140 -174h-167zM423.5 373.5q29.5 20.5 45.5 53.5t16 69q0 39 -22.5 66.5t-67.5 27.5
q-39 0 -69 -20.5t-46 -53.5t-16 -69q0 -40 22.5 -67t69.5 -27q38 0 67.5 20.5z" />
    <glyph glyph-name="one.ss01" horiz-adv-x="527" 
d="M523 135l-21 -135h-440l22 135h154l70 429h-146l22 136h294l-91 -565h136z" />
    <glyph glyph-name="seven.ss01" horiz-adv-x="529" 
d="M592 541l-338 -541h-164l2 12l358 541l1 6h-207l-14 -83h-135l36 224h486z" />
    <glyph glyph-name="uni2080" unicode="&#x2080;" horiz-adv-x="349" 
d="M37.5 -215.5q-29.5 40.5 -29.5 102.5q0 69 24.5 125t67.5 87.5t96 31.5q65 0 95 -41.5t30 -103.5q0 -65 -24 -120.5t-67 -88.5t-97 -33q-66 0 -95.5 40.5zM179.5 -154.5q16.5 25.5 26.5 66t10 82.5q0 28 -8 44.5t-25 16.5q-18 0 -34.5 -26t-27 -66.5t-10.5 -82.5
q0 -60 34 -60q18 0 34.5 25.5z" />
    <glyph glyph-name="uni2081" unicode="&#x2081;" horiz-adv-x="290" 
d="M239 -176l-13 -79h-245l13 79h84l31 187h-3l-94 -73l17 108l94 74h90l-48 -296h74z" />
    <glyph glyph-name="uni2082" unicode="&#x2082;" horiz-adv-x="308" 
d="M-7 -175l50 37q55 36 83 56.5t50.5 46t22.5 50.5q0 33 -36 33q-46 0 -57 -60h-85q11 68 54 103t100 35q51 0 81 -26.5t30 -68.5t-22 -75t-40.5 -48t-61.5 -45l-50 -36l-1 -3h146l-13 -79h-263z" />
    <glyph glyph-name="uni2083" unicode="&#x2083;" horiz-adv-x="331" 
d="M32 -228.5q-33 28.5 -33 77.5q0 12 1 18h95q1 -19 13.5 -29t31.5 -10q23 0 39.5 14t16.5 34q0 14 -11 23.5t-30 9.5h-32l11 70h29q22 0 37.5 13t15.5 32q0 15 -10.5 24t-29.5 9t-32.5 -10.5t-19.5 -27.5h-92q17 51 56 82.5t103 31.5q61 0 89.5 -27.5t28.5 -67.5
q0 -32 -14.5 -53t-31.5 -31.5t-21 -10.5l-1 -4q4 0 15 -6.5t21 -21t10 -36.5q0 -31 -19 -61.5t-55.5 -50.5t-86.5 -20q-61 0 -94 28.5z" />
    <glyph glyph-name="uni2084" unicode="&#x2084;" horiz-adv-x="340" 
d="M155 -169h-160l11 68l169 220h115l-36 -216h47l-11 -72h-47l-14 -86h-88zM167 -95l22 130l-105 -130h83z" />
    <glyph glyph-name="uni2085" unicode="&#x2085;" horiz-adv-x="324" 
d="M28.5 -221q-31.5 34 -28.5 87h94q1 -19 12 -29t26 -10q23 0 39.5 19t16.5 46q0 18 -11 28.5t-29 10.5q-16 0 -27.5 -9t-16.5 -18l-95 1l44 219h249l-13 -84h-169l-17 -74h5q8 9 29 19.5t50 10.5q47 0 72 -25t25 -66t-20.5 -78t-58 -59.5t-84.5 -22.5q-61 0 -92.5 34z" />
    <glyph glyph-name="uni2086" unicode="&#x2086;" horiz-adv-x="325" 
d="M32 -228q-32 27 -32 77q0 53 24 93.5t58 83.5l76 99h98l-138 -157h1l8 6q29 20 63 20q43 0 66 -26.5t23 -68.5q0 -67 -45.5 -110.5t-116.5 -43.5q-53 0 -85 27zM178 -163q18 21 18 48q0 19 -11 33t-33 14q-28 0 -46 -21.5t-18 -48.5q0 -19 10.5 -32.5t33.5 -13.5
q28 0 46 21z" />
    <glyph glyph-name="uni2087" unicode="&#x2087;" horiz-adv-x="309" 
d="M26 -248l183 282l1 4l-181 -1l13 83h264l-15 -94l-177 -281l-89 1z" />
    <glyph glyph-name="uni2088" unicode="&#x2088;" horiz-adv-x="327" 
d="M26.5 -230.5q-29.5 26.5 -29.5 65.5q0 49 25.5 74t46.5 32v3q-10 3 -23.5 19t-13.5 44q0 30 17 59t51.5 47.5t84.5 18.5q62 0 89.5 -27t27.5 -65q0 -28 -12.5 -49t-27.5 -33t-23 -14l-1 -3q17 -8 30.5 -23t13.5 -46q0 -55 -43 -92t-117 -37q-66 0 -95.5 26.5zM195 -13.5
q14 15.5 14 32.5q0 14 -8.5 25.5t-27.5 11.5q-23 0 -38 -15.5t-15 -34.5q0 -14 9 -24.5t30 -10.5q22 0 36 15.5zM174.5 -162.5q16.5 16.5 16.5 37.5q0 15 -10 27t-31 12q-25 0 -41 -17.5t-16 -38.5q0 -15 9.5 -26t30.5 -11q25 0 41.5 16.5z" />
    <glyph glyph-name="uni2089" unicode="&#x2089;" horiz-adv-x="325" 
d="M186 -99l-1 1l-7 -6q-23 -21 -63 -21q-43 0 -66.5 26.5t-23.5 68.5q0 68 46 111.5t117 43.5q53 0 85 -27t32 -77q0 -38 -15 -73t-29.5 -55.5t-37.5 -49.5l-76 -98h-98zM200.5 -39.5q17.5 21.5 17.5 47.5q0 19 -10.5 33t-33.5 14q-28 0 -45.5 -22t-17.5 -48
q0 -19 10.5 -32.5t34.5 -13.5q27 0 44.5 21.5z" />
    <glyph glyph-name="zero.dnom" horiz-adv-x="636" 
d="M134 49.5q-57 64.5 -57 175.5q0 39 8 89l13 74q25 148 106.5 236.5t221.5 88.5q118 0 174.5 -63.5t56.5 -173.5q0 -38 -8 -88l-13 -74q-25 -149 -107 -239t-221 -90q-117 0 -174 64.5zM414.5 166q30.5 47 45.5 139l15 92q7 42 7 79q0 51 -18.5 77t-59.5 26
q-54 0 -84.5 -45.5t-45.5 -136.5l-15 -92q-8 -48 -8 -81q0 -52 18.5 -78.5t59.5 -26.5q55 0 85.5 47z" />
    <glyph glyph-name="one.dnom" horiz-adv-x="536" 
d="M521 135l-21 -135h-440l22 135h154l62 380h-4l-173 -135l30 185l172 135h153l-91 -565h136z" />
    <glyph glyph-name="two.dnom" horiz-adv-x="598" 
d="M72 132l106 79l68 49q77 54 121.5 90.5t73.5 76.5t29 82q0 31 -19.5 52t-60.5 21q-60 0 -85.5 -36.5t-28.5 -70.5l-1 -13h-154q13 80 53.5 137t101.5 86.5t132 29.5q101 0 155.5 -49t54.5 -129q0 -68 -33 -124.5t-76.5 -95t-104.5 -83.5q-8 -5 -13 -9t-9 -7l-105 -78
l-1 -5h286l-22 -135h-488z" />
    <glyph glyph-name="three.dnom" horiz-adv-x="599" 
d="M114.5 52.5q-56.5 61.5 -53.5 157.5h157q4 -39 29 -60.5t68 -21.5q53 0 87.5 30.5t34.5 77.5q0 34 -25 53.5t-66 19.5h-61l19 118h64q47 0 75.5 27t28.5 68q0 32 -22.5 50.5t-60.5 18.5q-40 0 -69.5 -21.5t-43.5 -59.5h-152q29 91 99 149.5t188 58.5q77 0 126 -25.5
t70.5 -65t21.5 -84.5q0 -63 -30 -102t-63 -56.5t-39 -17.5l-1 -6l21.5 -7.5t45 -40t23.5 -77.5q0 -70 -38 -125.5t-104.5 -87.5t-149.5 -32q-123 0 -179.5 61.5z" />
    <glyph glyph-name="four.dnom" horiz-adv-x="623" 
d="M362 164l-304 1l18 113l331 422h196l-69 -418h82l-18 -118h-83l-26 -164h-153zM382 285l38 231l-185 -231h147z" />
    <glyph glyph-name="five.dnom" horiz-adv-x="596" 
d="M174 22q-51 31 -74 81.5t-21 108.5h158q1 -41 25 -62t60 -21q52 0 87 41t35 103q0 39 -22 61.5t-64 22.5q-69 0 -104 -61l-153 2l84 402h446l-23 -141h-318l-34 -155h7q17 21 55 41.5t99 20.5q88 0 136 -47t48 -128q0 -80 -38 -148.5t-106.5 -110t-154.5 -41.5
q-77 0 -128 31z" />
    <glyph glyph-name="six.dnom" horiz-adv-x="592" 
d="M136.5 43q-63.5 52 -63.5 151q0 92 44.5 172.5t112.5 164.5l136 169h151l-243 -294l4 -3l16 13q26 21 55 34t73 13q83 0 128.5 -50t45.5 -131q0 -83 -38.5 -149.5t-107 -104t-152.5 -37.5q-98 0 -161.5 52zM381 134.5q30 20.5 46 53.5t16 70q0 39 -22.5 66.5t-69.5 27.5
q-38 0 -67.5 -20.5t-45.5 -53.5t-16 -69q0 -40 22.5 -67.5t67.5 -27.5q39 0 69 20.5z" />
    <glyph glyph-name="seven.dnom" horiz-adv-x="529" 
d="M88 12l358 541l1 6h-342l22 141h486l-25 -159l-338 -541h-164z" />
    <glyph glyph-name="eight.dnom" horiz-adv-x="601" 
d="M130.5 33.5q-55.5 49.5 -55.5 124.5q0 63 27 106t60 64.5t52 25.5l1 5q-22 9 -46.5 40t-24.5 82q0 58 32 111t95 86.5t152 33.5q113 0 164 -49t51 -119q0 -53 -23 -92.5t-51.5 -62.5t-46.5 -30l-1 -5q13 -4 33 -17t37 -41t17 -70q0 -66 -35.5 -121.5t-103 -88
t-159.5 -32.5q-119 0 -174.5 49.5zM455.5 438q31.5 32 31.5 74q0 31 -20.5 53t-63.5 22q-52 0 -82.5 -32t-30.5 -76q0 -31 20 -52t63 -21q51 0 82.5 32zM390 127q28 17 43 45t15 59q0 35 -21.5 58.5t-67.5 23.5q-56 0 -90 -36.5t-34 -86.5q0 -34 21.5 -57t68.5 -23
q37 0 65 17z" />
    <glyph glyph-name="nine.dnom" horiz-adv-x="592" 
d="M432 298l-2 4l-18 -14q-25 -21 -54 -33t-72 -12q-84 0 -130 50t-46 130q0 83 39 149t108 103.5t156 37.5q60 0 110.5 -22.5t80.5 -68.5t30 -111q0 -69 -28 -135t-59 -109.5t-71 -92.5l-140 -174h-167zM423.5 373.5q29.5 20.5 45.5 53.5t16 69q0 39 -22.5 66.5t-67.5 27.5
q-39 0 -69 -20.5t-46 -53.5t-16 -69q0 -40 22.5 -67t69.5 -27q38 0 67.5 20.5z" />
    <glyph glyph-name="zero.numr" horiz-adv-x="636" 
d="M134 49.5q-57 64.5 -57 175.5q0 39 8 89l13 74q25 148 106.5 236.5t221.5 88.5q118 0 174.5 -63.5t56.5 -173.5q0 -38 -8 -88l-13 -74q-25 -149 -107 -239t-221 -90q-117 0 -174 64.5zM414.5 166q30.5 47 45.5 139l15 92q7 42 7 79q0 51 -18.5 77t-59.5 26
q-54 0 -84.5 -45.5t-45.5 -136.5l-15 -92q-8 -48 -8 -81q0 -52 18.5 -78.5t59.5 -26.5q55 0 85.5 47z" />
    <glyph glyph-name="one.numr" horiz-adv-x="536" 
d="M521 135l-21 -135h-440l22 135h154l62 380h-4l-173 -135l30 185l172 135h153l-91 -565h136z" />
    </font>
</defs>
</svg>
