<?xml version="1.0" standalone="no"?>
<!DOCTYPE svg PUBLIC "-//W3C//DTD SVG 1.1//EN" "http://www.w3.org/Graphics/SVG/1.1/DTD/svg11.dtd" >
<svg xmlns="http://www.w3.org/2000/svg" xmlns:xlink="http://www.w3.org/1999/xlink" version="1.1">
<metadata>
Created by FontForge 20170812 at Mon Aug  5 09:33:40 2019
 By www-data
Copyright 2019 The Bevietnam Project Authors (https://github.com/bettergui/beVietnam)
</metadata>
<defs>
<font id="BeVietnam-ThinItalic" horiz-adv-x="585" >
  <font-face 
    font-family="Be Vietnam Thin"
    font-weight="250"
    font-style="italic"
    font-stretch="normal"
    units-per-em="1000"
    panose-1="0 0 3 0 0 0 0 0 0 0"
    ascent="800"
    descent="-200"
    x-height="525"
    cap-height="700"
    bbox="-349 -265 1234 1196"
    underline-thickness="50"
    underline-position="-100"
    slope="-9"
    unicode-range="U+000D-2265"
  />
<missing-glyph horiz-adv-x="731" 
d="M599 -265h-463v1461h463v-1461zM245 1098v-48h95v-54h-96v-48h243v48h-97v54h97v48h-242zM244 910v-152h243v49h-97v103h-146zM340 807h-48v53h48v-53zM244 718v-48h96v-54h-96v-48h146v102h97v48h-243zM438 631v-97h-194v-50h243v147h-49zM340 452v-81h50v33h48v-69
h-146v117h-48v-165h243v165h-147zM244 200v-165h243v165h-243zM438 83h-146v68h146v-68zM244 1v-48h102l-102 -69v-48h243v48h-150l103 69h47v48h-243z" />
    <glyph glyph-name="f_f.liga" unicode="ff" horiz-adv-x="708" 
d="M670 693.5q-21 -14.5 -28.5 -34t-12.5 -48.5l-15 -86h132l-6 -30h-132l-87 -495h-34l87 495h-318l-87 -495h-34l87 495h-80l6 30h79l15 86q10 57 40.5 91.5t96.5 34.5q33 0 51 -6l-5 -28q-20 5 -48 5q-38 0 -59 -14.5t-28.5 -34t-12.5 -48.5l-15 -86h317l15 86
q10 55 39 90.5t98 35.5q33 0 51 -6l-5 -28q-22 5 -48 5q-38 0 -59 -14.5z" />
    <glyph glyph-name="f_i.liga" unicode="fi" horiz-adv-x="581" 
d="M484 0h-34l88 495h-282l-87 -495h-34l87 495h-80l6 30h79l15 86q10 57 40.5 91.5t96.5 34.5q33 0 51 -6l-5 -28q-20 5 -48 5q-38 0 -59 -14.5t-28.5 -34t-12.5 -48.5l-15 -86h315zM610 693q9 -9 9 -21q0 -16 -13 -29t-30 -13q-13 0 -21 9t-8 22q0 16 12.5 28.5t28.5 12.5
q13 0 22 -9z" />
    <glyph glyph-name="t_t.liga" unicode="tt" horiz-adv-x="730" 
d="M565 127q-7 -38 -7 -56q0 -24 13 -35.5t46 -11.5q30 0 64 9l-5 -28q-30 -10 -66 -10q-49 0 -68 18t-19 54q0 22 7 60l66 368h-331l-65 -368q-7 -38 -7 -56q0 -24 13 -35.5t46 -11.5q30 0 64 9l-5 -28q-30 -10 -66 -10q-49 0 -68 18t-19 54q0 22 7 60l66 368h-109l5 30
h109l31 175h34l-31 -175h331l31 175h34l-31 -175h132l-5 -30h-132z" />
    <glyph glyph-name="hyphen_greater.liga" unicode="&#x2d;&#x3e;" horiz-adv-x="670" 
d="M522 525l165 -203l-236 -202h-47l215 184h-524l6 36h524l-150 185h47z" />
    <glyph glyph-name="colon_b_e_colon.liga" unicode="&#x3a;be&#x3a;" horiz-adv-x="878" 
d="M253 609h160q59 0 89 33t32 82q42 -12 64.5 -43.5t22.5 -75.5q0 -81 -55 -127t-150 -46h-217zM142 241h229q61 0 103 21.5t62.5 57.5t20.5 78l-1 16q63 -13 101.5 -63t38.5 -116q0 -72 -39.5 -132t-107.5 -94.5t-150 -34.5h-340z" />
    <glyph glyph-name="colon_d_d_colon.liga" unicode="&#x3a;dd&#x3a;" horiz-adv-x="599" 
d="M701 700h-66l-94 -536h-34l18 102h-7q-37 -47 -91.5 -77t-126.5 -30q-93 0 -144 52.5t-51 135.5q0 78 37.5 143.5t101.5 104t140 38.5q75 0 120.5 -33t59.5 -81h6l32 181h-192l5 27h191l15 85h34l-15 -85h66zM432.5 226.5q54.5 32.5 86 89t31.5 124.5q0 71 -42.5 115
t-124.5 44q-67 0 -121.5 -32.5t-86 -89t-31.5 -125.5q0 -70 42.5 -114t124.5 -44q67 0 121.5 32.5zM98 34h429l-7 -34h-428z" />
    <glyph glyph-name="colon_d_o_w_n_colon.liga" unicode="&#x3a;down&#x3a;" horiz-adv-x="485" 
d="M477 204l-234 -201l-171 201l7 47l155 -182l100 633h37l-100 -633l213 182z" />
    <glyph glyph-name="colon_l_e_f_t_colon.liga" unicode="&#x3a;left&#x3a;" horiz-adv-x="642" 
d="M118 69h298q52 0 99.5 28t76 74.5t28.5 97.5q0 59 -40.5 98.5t-103.5 39.5h-316l184 -169h-58l-179 169l5 31l236 151h58l-242 -151h317q50 0 89 -21.5t61 -58.5t22 -83q0 -61 -34 -115.5t-90 -88t-118 -33.5h-298z" />
    <glyph glyph-name="colon_r_i_g_h_t_colon.liga" unicode="&#x3a;right&#x3a;" horiz-adv-x="642" 
d="M244 38q-49 0 -87.5 21.5t-60.5 59.5t-22 86q0 60 33.5 114t89.5 86.5t118 32.5h317l-188 151h58l182 -151l-6 -31l-238 -169h-58l243 169h-316q-52 0 -99 -27.5t-75.5 -73t-28.5 -96.5q0 -62 40.5 -101.5t103.5 -39.5h298l-6 -31h-298z" />
    <glyph glyph-name="colon_s_t_a_r_colon.liga" unicode="&#x3a;star&#x3a;" horiz-adv-x="831" 
d="M350 305l-191 130h243l119 237l43 -237h243l-233 -131l47 -253l-173 162l-225 -162z" />
    <glyph glyph-name="colon_u_p_colon.liga" unicode="&#x3a;up&#x3a;" horiz-adv-x="485" 
d="M485 634l-100 -633h-37l100 633l-212 -182l7 47l235 201l170 -201l-7 -47z" />
    <glyph glyph-name="less_hyphen.liga" unicode="&#x3c;&#x2d;" horiz-adv-x="670" 
d="M45 340h524l6 -36h-524l215 -184h-47l-236 202l165 203h47z" />
    <glyph glyph-name=".notdef" horiz-adv-x="731" 
d="M599 -265h-463v1461h463v-1461zM245 1098v-48h95v-54h-96v-48h243v48h-97v54h97v48h-242zM244 910v-152h243v49h-97v103h-146zM340 807h-48v53h48v-53zM244 718v-48h96v-54h-96v-48h146v102h97v48h-243zM438 631v-97h-194v-50h243v147h-49zM340 452v-81h50v33h48v-69
h-146v117h-48v-165h243v165h-147zM244 200v-165h243v165h-243zM438 83h-146v68h146v-68zM244 1v-48h102l-102 -69v-48h243v48h-150l103 69h47v48h-243z" />
    <glyph glyph-name="nonmarkingreturn" unicode="&#xd;" horiz-adv-x="600" 
 />
    <glyph glyph-name="space" unicode=" " horiz-adv-x="230" 
 />
    <glyph glyph-name="A" unicode="A" horiz-adv-x="686" 
d="M549 235h-331l-133 -235h-35l396 700h35l155 -700h-35zM542 267l-85 386h-2l-219 -386h306z" />
    <glyph glyph-name="Aacute" unicode="&#xc1;" horiz-adv-x="686" 
d="M549 235h-331l-133 -235h-35l396 700h35l155 -700h-35zM542 267l-85 386h-2l-219 -386h306zM465 767l125 164h46l-142 -164h-29z" />
    <glyph glyph-name="Abreve" unicode="&#x102;" horiz-adv-x="686" 
d="M549 235h-331l-133 -235h-35l396 700h35l155 -700h-35zM542 267l-85 386h-2l-219 -386h306zM395 809q-33 21 -53 66h38q27 -57 105 -57q79 0 125 57h38q-37 -46 -76.5 -66.5t-91.5 -20.5t-85 21z" />
    <glyph glyph-name="uni1EAE" unicode="&#x1eae;" horiz-adv-x="686" 
d="M549 235h-331l-133 -235h-35l396 700h35l155 -700h-35zM542 267l-85 386h-2l-219 -386h306zM394 809q-33 21 -53 66h38q27 -57 105 -57q79 0 125 57h38q-37 -46 -76.5 -66.5t-91.5 -20.5t-85 21zM485 885l125 164h46l-142 -164h-29z" />
    <glyph glyph-name="uni1EB6" unicode="&#x1eb6;" horiz-adv-x="686" 
d="M549 235h-331l-133 -235h-35l396 700h35l155 -700h-35zM542 267l-85 386h-2l-219 -386h306zM282 -193q-9 9 -9 23q0 17 13 30t30 13q14 0 23.5 -9t9.5 -22q0 -17 -14 -30.5t-31 -13.5q-13 0 -22 9zM395 809q-33 21 -53 66h38q27 -57 105 -57q79 0 125 57h38
q-37 -46 -76.5 -66.5t-91.5 -20.5t-85 21z" />
    <glyph glyph-name="uni1EB0" unicode="&#x1eb0;" horiz-adv-x="686" 
d="M549 235h-331l-133 -235h-35l396 700h35l155 -700h-35zM542 267l-85 386h-2l-219 -386h306zM394 809q-33 21 -53 66h38q27 -57 105 -57q79 0 125 57h38q-37 -46 -76.5 -66.5t-91.5 -20.5t-85 21zM394 1049h46l67 -164h-29z" />
    <glyph glyph-name="uni1EB2" unicode="&#x1eb2;" horiz-adv-x="686" 
d="M549 235h-331l-133 -235h-35l396 700h35l155 -700h-35zM542 267l-85 386h-2l-219 -386h306zM394 809q-33 21 -53 66h38q27 -57 105 -57q79 0 125 57h38q-37 -46 -76.5 -66.5t-91.5 -20.5t-85 21zM494 902.5q9 7.5 25 18.5q24 15 36 28t12 34q0 15 -11 25.5t-34 10.5
q-22 0 -36 -9.5t-21 -23.5h-34q13 28 37 45.5t59 17.5q33 0 53 -16.5t20 -42.5q0 -28 -12 -42.5t-36 -31.5q-14 -9 -21.5 -15.5t-12.5 -15.5h-38q5 10 14 17.5z" />
    <glyph glyph-name="uni1EB4" unicode="&#x1eb4;" horiz-adv-x="686" 
d="M549 235h-331l-133 -235h-35l396 700h35l155 -700h-35zM542 267l-85 386h-2l-219 -386h306zM394 809q-33 21 -53 66h38q27 -57 105 -57q79 0 125 57h38q-37 -46 -76.5 -66.5t-91.5 -20.5t-85 21zM459 1009q18 0 31 -5.5t29 -16.5q16 -10 26 -15t24 -5q38 0 66 42h38
q-45 -73 -109 -73q-18 0 -31 5.5t-29 16.5q-15 10 -26 15t-25 5q-37 0 -65 -42h-38q45 73 109 73z" />
    <glyph glyph-name="Acircumflex" unicode="&#xc2;" horiz-adv-x="686" 
d="M549 235h-331l-133 -235h-35l396 700h35l155 -700h-35zM542 267l-85 386h-2l-219 -386h306zM476 903h46l97 -133h-45l-77 105h-4l-115 -105h-45z" />
    <glyph glyph-name="uni1EA4" unicode="&#x1ea4;" horiz-adv-x="686" 
d="M549 235h-331l-133 -235h-35l396 700h35l155 -700h-35zM542 267l-85 386h-2l-219 -386h306zM476 903h46l97 -133h-45l-77 105h-4l-115 -105h-45zM606 890l125 164h46l-142 -164h-29z" />
    <glyph glyph-name="uni1EAC" unicode="&#x1eac;" horiz-adv-x="686" 
d="M549 235h-331l-133 -235h-35l396 700h35l155 -700h-35zM542 267l-85 386h-2l-219 -386h306zM282 -193q-9 9 -9 23q0 17 13 30t30 13q14 0 23.5 -9t9.5 -22q0 -17 -14 -30.5t-31 -13.5q-13 0 -22 9zM476 903h46l97 -133h-45l-77 105h-4l-115 -105h-45z" />
    <glyph glyph-name="uni1EA6" unicode="&#x1ea6;" horiz-adv-x="686" 
d="M549 235h-331l-133 -235h-35l396 700h35l155 -700h-35zM542 267l-85 386h-2l-219 -386h306zM476 903h46l97 -133h-45l-77 105h-4l-115 -105h-45zM515 1054h46l67 -164h-29z" />
    <glyph glyph-name="uni1EA8" unicode="&#x1ea8;" horiz-adv-x="686" 
d="M549 235h-331l-133 -235h-35l396 700h35l155 -700h-35zM542 267l-85 386h-2l-219 -386h306zM476 903h46l97 -133h-45l-77 105h-4l-115 -105h-45zM615 907.5q9 7.5 25 18.5q24 15 36 28t12 34q0 15 -11 25.5t-34 10.5q-22 0 -36 -9.5t-21 -23.5h-34q13 28 37 45.5t59 17.5
q33 0 53 -16.5t20 -42.5q0 -28 -12 -42.5t-36 -31.5q-14 -9 -21.5 -15.5t-12.5 -15.5h-38q5 10 14 17.5z" />
    <glyph glyph-name="uni1EAA" unicode="&#x1eaa;" horiz-adv-x="686" 
d="M549 235h-331l-133 -235h-35l396 700h35l155 -700h-35zM542 267l-85 386h-2l-219 -386h306zM476 903h46l97 -133h-45l-77 105h-4l-115 -105h-45zM442 1026q18 0 31 -5.5t29 -16.5q16 -10 26 -15t24 -5q38 0 66 42h38q-45 -73 -109 -73q-18 0 -31 5.5t-29 16.5
q-15 10 -26 15t-25 5q-37 0 -65 -42h-38q45 73 109 73z" />
    <glyph glyph-name="Adieresis" unicode="&#xc4;" horiz-adv-x="686" 
d="M549 235h-331l-133 -235h-35l396 700h35l155 -700h-35zM542 267l-85 386h-2l-219 -386h306zM528 814q-8 9 -8 22q0 16 12.5 28.5t28.5 12.5q13 0 22 -9t9 -21q0 -16 -13 -29t-30 -13q-13 0 -21 9zM389 814q-8 9 -8 22q0 16 12.5 28.5t28.5 12.5q13 0 22 -9t9 -21
q0 -16 -13 -29t-30 -13q-13 0 -21 9z" />
    <glyph glyph-name="uni1EA0" unicode="&#x1ea0;" horiz-adv-x="686" 
d="M549 235h-331l-133 -235h-35l396 700h35l155 -700h-35zM542 267l-85 386h-2l-219 -386h306zM282 -193q-9 9 -9 23q0 17 13 30t30 13q14 0 23.5 -9t9.5 -22q0 -17 -14 -30.5t-31 -13.5q-13 0 -22 9z" />
    <glyph glyph-name="Agrave" unicode="&#xc0;" horiz-adv-x="686" 
d="M549 235h-331l-133 -235h-35l396 700h35l155 -700h-35zM542 267l-85 386h-2l-219 -386h306zM374 931h46l67 -164h-29z" />
    <glyph glyph-name="uni1EA2" unicode="&#x1ea2;" horiz-adv-x="686" 
d="M549 235h-331l-133 -235h-35l396 700h35l155 -700h-35zM542 267l-85 386h-2l-219 -386h306zM474 784.5q9 7.5 25 18.5q24 15 36 28t12 34q0 15 -11 25.5t-34 10.5q-22 0 -36 -9.5t-21 -23.5h-34q13 28 37 45.5t59 17.5q33 0 53 -16.5t20 -42.5q0 -28 -12 -42.5t-36 -31.5
q-14 -9 -21.5 -15.5t-12.5 -15.5h-38q5 10 14 17.5z" />
    <glyph glyph-name="Amacron" unicode="&#x100;" horiz-adv-x="686" 
d="M549 235h-331l-133 -235h-35l396 700h35l155 -700h-35zM542 267l-85 386h-2l-219 -386h306zM348 836h280l-5 -26h-280z" />
    <glyph glyph-name="Aogonek" unicode="&#x104;" horiz-adv-x="686" 
d="M655 -116l-5 -28q-22 -5 -46 -5q-33 0 -52.5 16t-19.5 43q0 55 67 97l-50 228h-331l-133 -235h-35l396 700h35l155 -699l1 -1q-32 -19 -52 -38t-20 -46q0 -15 11.5 -25.5t37.5 -10.5q15 0 41 4zM542 267l-85 386h-2l-219 -386h306z" />
    <glyph glyph-name="Aring" unicode="&#xc5;" horiz-adv-x="686" 
d="M549 235h-331l-133 -235h-35l396 700h35l155 -700h-35zM542 267l-85 386h-2l-219 -386h306zM436 817q-18 18 -18 45q0 34 27.5 61t61.5 27q28 0 46 -18t18 -44q0 -35 -27.5 -62t-62.5 -27q-27 0 -45 18zM528.5 841q19.5 19 19.5 43q0 18 -13 30.5t-32 12.5
q-24 0 -43 -18.5t-19 -42.5q0 -19 12.5 -31.5t31.5 -12.5q24 0 43.5 19z" />
    <glyph glyph-name="Atilde" unicode="&#xc3;" horiz-adv-x="686" 
d="M549 235h-331l-133 -235h-35l396 700h35l155 -700h-35zM542 267l-85 386h-2l-219 -386h306zM439 891q18 0 31 -5.5t29 -16.5q16 -10 26 -15t24 -5q38 0 66 42h38q-45 -73 -109 -73q-18 0 -31 5.5t-29 16.5q-15 10 -26 15t-25 5q-37 0 -65 -42h-38q45 73 109 73z" />
    <glyph glyph-name="AE" unicode="&#xc6;" horiz-adv-x="946" 
d="M618 666l-51 -291h331l-6 -32h-331l-54 -309h366l-6 -34h-400l41 235h-260l-178 -235h-35l524 700h431l-6 -34h-366zM514 267l70 399h-9l-303 -399h242z" />
    <glyph glyph-name="B" unicode="B" horiz-adv-x="624" 
d="M215 700h266q92 0 130 -42.5t38 -101.5q0 -60 -29.5 -102t-67.5 -64.5t-63 -25.5l-1 -4q21 -1 51 -13.5t54 -41.5t24 -76q0 -59 -32 -112t-89 -85t-128 -32h-276zM414 376q56 0 102 23.5t72 65t26 91.5q0 56 -41 82.5t-108 26.5h-224l-51 -289h224zM362 35q100 0 159 52
t59 138q0 63 -45.5 89.5t-118.5 26.5h-232l-54 -306h232z" />
    <glyph glyph-name="C" unicode="C" horiz-adv-x="724" 
d="M188 66.5q-67 71.5 -67 195.5q0 127 50 230.5t138 163t195 59.5q114 0 180 -62t74 -174h-36q-10 95 -69 148.5t-155 53.5t-173.5 -54t-121.5 -148.5t-44 -212.5q0 -112 57.5 -174t166.5 -62q89 0 163 46t119 129h37q-49 -99 -133.5 -154.5t-191.5 -55.5q-122 0 -189 71.5
z" />
    <glyph glyph-name="Cacute" unicode="&#x106;" horiz-adv-x="724" 
d="M188 66.5q-67 71.5 -67 195.5q0 127 50 230.5t138 163t195 59.5q114 0 180 -62t74 -174h-36q-10 95 -69 148.5t-155 53.5t-173.5 -54t-121.5 -148.5t-44 -212.5q0 -112 57.5 -174t166.5 -62q89 0 163 46t119 129h37q-49 -99 -133.5 -154.5t-191.5 -55.5q-122 0 -189 71.5
zM486 767l125 164h46l-142 -164h-29z" />
    <glyph glyph-name="Ccaron" unicode="&#x10c;" horiz-adv-x="724" 
d="M188 66.5q-67 71.5 -67 195.5q0 127 50 230.5t138 163t195 59.5q114 0 180 -62t74 -174h-36q-10 95 -69 148.5t-155 53.5t-173.5 -54t-121.5 -148.5t-44 -212.5q0 -112 57.5 -174t166.5 -62q89 0 163 46t119 129h37q-49 -99 -133.5 -154.5t-191.5 -55.5q-122 0 -189 71.5
zM423 903l77 -105h4l115 105h45l-143 -133h-46l-97 133h45z" />
    <glyph glyph-name="Ccedilla" unicode="&#xc7;" horiz-adv-x="724" 
d="M324.5 627q-77.5 -54 -121.5 -148.5t-44 -212.5q0 -112 57.5 -174t166.5 -62q89 0 163 46t119 129h37q-45 -91 -119 -145t-169 -63l-32 -62h36q40 0 60.5 -17.5t20.5 -46.5q0 -30 -17 -56t-48 -42t-69 -16q-25 0 -45 5l7 30q26 -4 47 -4q40 0 66 21t26 54q0 41 -58 41
h-76l1 4l46 87h-2q-122 0 -189 71.5t-67 195.5q0 127 50 230.5t138 163t195 59.5q114 0 180 -62t74 -174h-36q-10 95 -69 148.5t-155 53.5t-173.5 -54z" />
    <glyph glyph-name="Cdotaccent" unicode="&#x10a;" horiz-adv-x="724" 
d="M188 66.5q-67 71.5 -67 195.5q0 127 50 230.5t138 163t195 59.5q114 0 180 -62t74 -174h-36q-10 95 -69 148.5t-155 53.5t-173.5 -54t-121.5 -148.5t-44 -212.5q0 -112 57.5 -174t166.5 -62q89 0 163 46t119 129h37q-49 -99 -133.5 -154.5t-191.5 -55.5q-122 0 -189 71.5
zM481 814q-8 9 -8 22q0 16 12.5 28.5t28.5 12.5q13 0 22 -9t9 -21q0 -16 -13 -29t-30 -13q-13 0 -21 9z" />
    <glyph glyph-name="D" unicode="D" horiz-adv-x="694" 
d="M215 700h241q122 0 190 -70.5t68 -192.5t-50 -222t-137.5 -157.5t-193.5 -57.5h-241zM339 34q94 0 171.5 52.5t123 142.5t45.5 199q0 110 -61 174t-168 64h-207l-111 -632h207z" />
    <glyph glyph-name="Eth" unicode="&#xd0;" horiz-adv-x="720" 
d="M660.5 631.5q78.5 -68.5 78.5 -196.5q0 -130 -53.5 -229t-151 -153.5t-225.5 -54.5h-192l61 344h-61l5 28h61l58 330h192q149 0 227.5 -68.5zM454 51q83 19 167.5 108.5t84.5 273.5q0 106 -51.5 157.5t-110 63.5t-117.5 12h-158l-52 -296h166l-5 -28h-166l-55 -310h158
q56 0 139 19z" />
    <glyph glyph-name="Dcaron" unicode="&#x10e;" horiz-adv-x="694" 
d="M215 700h241q122 0 190 -70.5t68 -192.5t-50 -222t-137.5 -157.5t-193.5 -57.5h-241zM339 34q94 0 171.5 52.5t123 142.5t45.5 199q0 110 -61 174t-168 64h-207l-111 -632h207zM395 903l77 -105h4l115 105h45l-143 -133h-46l-97 133h45z" />
    <glyph glyph-name="Dcroat" unicode="&#x110;" horiz-adv-x="720" 
d="M660.5 631.5q78.5 -68.5 78.5 -196.5q0 -130 -53.5 -229t-151 -153.5t-225.5 -54.5h-192l61 344h-61l5 28h61l58 330h192q149 0 227.5 -68.5zM454 51q83 19 167.5 108.5t84.5 273.5q0 106 -51.5 157.5t-110 63.5t-117.5 12h-158l-52 -296h166l-5 -28h-166l-55 -310h158
q56 0 139 19z" />
    <glyph glyph-name="E" unicode="E" horiz-adv-x="571" 
d="M243 666l-51 -291h331l-6 -32h-331l-54 -309h366l-6 -34h-400l123 700h400l-6 -34h-366z" />
    <glyph glyph-name="Eacute" unicode="&#xc9;" horiz-adv-x="571" 
d="M243 666l-51 -291h331l-6 -32h-331l-54 -309h366l-6 -34h-400l123 700h400l-6 -34h-366zM416 767l125 164h46l-142 -164h-29z" />
    <glyph glyph-name="Ecaron" unicode="&#x11a;" horiz-adv-x="571" 
d="M243 666l-51 -291h331l-6 -32h-331l-54 -309h366l-6 -34h-400l123 700h400l-6 -34h-366zM353 903l77 -105h4l115 105h45l-143 -133h-46l-97 133h45z" />
    <glyph glyph-name="Ecircumflex" unicode="&#xca;" horiz-adv-x="571" 
d="M243 666l-51 -291h331l-6 -32h-331l-54 -309h366l-6 -34h-400l123 700h400l-6 -34h-366zM427 903h46l97 -133h-45l-77 105h-4l-115 -105h-45z" />
    <glyph glyph-name="uni1EBE" unicode="&#x1ebe;" horiz-adv-x="571" 
d="M243 666l-51 -291h331l-6 -32h-331l-54 -309h366l-6 -34h-400l123 700h400l-6 -34h-366zM427 903h46l97 -133h-45l-77 105h-4l-115 -105h-45zM557 890l125 164h46l-142 -164h-29z" />
    <glyph glyph-name="uni1EC6" unicode="&#x1ec6;" horiz-adv-x="571" 
d="M243 666l-51 -291h331l-6 -32h-331l-54 -309h366l-6 -34h-400l123 700h400l-6 -34h-366zM233 -193q-9 9 -9 23q0 17 13 30t30 13q14 0 23.5 -9t9.5 -22q0 -17 -14 -30.5t-31 -13.5q-13 0 -22 9zM427 903h46l97 -133h-45l-77 105h-4l-115 -105h-45z" />
    <glyph glyph-name="uni1EC0" unicode="&#x1ec0;" horiz-adv-x="571" 
d="M243 666l-51 -291h331l-6 -32h-331l-54 -309h366l-6 -34h-400l123 700h400l-6 -34h-366zM427 903h46l97 -133h-45l-77 105h-4l-115 -105h-45zM466 1054h46l67 -164h-29z" />
    <glyph glyph-name="uni1EC2" unicode="&#x1ec2;" horiz-adv-x="571" 
d="M243 666l-51 -291h331l-6 -32h-331l-54 -309h366l-6 -34h-400l123 700h400l-6 -34h-366zM427 903h46l97 -133h-45l-77 105h-4l-115 -105h-45zM566 907.5q9 7.5 25 18.5q24 15 36 28t12 34q0 15 -11 25.5t-34 10.5q-22 0 -36 -9.5t-21 -23.5h-34q13 28 37 45.5t59 17.5
q33 0 53 -16.5t20 -42.5q0 -28 -12 -42.5t-36 -31.5q-14 -9 -21.5 -15.5t-12.5 -15.5h-38q5 10 14 17.5z" />
    <glyph glyph-name="uni1EC4" unicode="&#x1ec4;" horiz-adv-x="571" 
d="M243 666l-51 -291h331l-6 -32h-331l-54 -309h366l-6 -34h-400l123 700h400l-6 -34h-366zM427 903h46l97 -133h-45l-77 105h-4l-115 -105h-45zM393 1026q18 0 31 -5.5t29 -16.5q16 -10 26 -15t24 -5q38 0 66 42h38q-45 -73 -109 -73q-18 0 -31 5.5t-29 16.5q-15 10 -26 15
t-25 5q-37 0 -65 -42h-38q45 73 109 73z" />
    <glyph glyph-name="Edieresis" unicode="&#xcb;" horiz-adv-x="571" 
d="M243 666l-51 -291h331l-6 -32h-331l-54 -309h366l-6 -34h-400l123 700h400l-6 -34h-366zM479 814q-8 9 -8 22q0 16 12.5 28.5t28.5 12.5q13 0 22 -9t9 -21q0 -16 -13 -29t-30 -13q-13 0 -21 9zM340 814q-8 9 -8 22q0 16 12.5 28.5t28.5 12.5q13 0 22 -9t9 -21
q0 -16 -13 -29t-30 -13q-13 0 -21 9z" />
    <glyph glyph-name="Edotaccent" unicode="&#x116;" horiz-adv-x="571" 
d="M243 666l-51 -291h331l-6 -32h-331l-54 -309h366l-6 -34h-400l123 700h400l-6 -34h-366zM411 814q-8 9 -8 22q0 16 12.5 28.5t28.5 12.5q13 0 22 -9t9 -21q0 -16 -13 -29t-30 -13q-13 0 -21 9z" />
    <glyph glyph-name="uni1EB8" unicode="&#x1eb8;" horiz-adv-x="571" 
d="M243 666l-51 -291h331l-6 -32h-331l-54 -309h366l-6 -34h-400l123 700h400l-6 -34h-366zM233 -193q-9 9 -9 23q0 17 13 30t30 13q14 0 23.5 -9t9.5 -22q0 -17 -14 -30.5t-31 -13.5q-13 0 -22 9z" />
    <glyph glyph-name="Egrave" unicode="&#xc8;" horiz-adv-x="571" 
d="M243 666l-51 -291h331l-6 -32h-331l-54 -309h366l-6 -34h-400l123 700h400l-6 -34h-366zM325 931h46l67 -164h-29z" />
    <glyph glyph-name="uni1EBA" unicode="&#x1eba;" horiz-adv-x="571" 
d="M243 666l-51 -291h331l-6 -32h-331l-54 -309h366l-6 -34h-400l123 700h400l-6 -34h-366zM425 784.5q9 7.5 25 18.5q24 15 36 28t12 34q0 15 -11 25.5t-34 10.5q-22 0 -36 -9.5t-21 -23.5h-34q13 28 37 45.5t59 17.5q33 0 53 -16.5t20 -42.5q0 -28 -12 -42.5t-36 -31.5
q-14 -9 -21.5 -15.5t-12.5 -15.5h-38q5 10 14 17.5z" />
    <glyph glyph-name="Emacron" unicode="&#x112;" horiz-adv-x="571" 
d="M243 666l-51 -291h331l-6 -32h-331l-54 -309h366l-6 -34h-400l123 700h400l-6 -34h-366zM299 836h280l-5 -26h-280z" />
    <glyph glyph-name="Eogonek" unicode="&#x118;" horiz-adv-x="571" 
d="M243 666l-51 -291h331l-6 -32h-331l-54 -309h366l-6 -34q-32 -19 -52 -38t-20 -46q0 -15 11.5 -25.5t37.5 -10.5q15 0 41 4l-5 -28q-22 -5 -46 -5q-33 0 -52.5 16t-19.5 43q0 51 57 90h-352l123 700h400l-6 -34h-366z" />
    <glyph glyph-name="uni1EBC" unicode="&#x1ebc;" horiz-adv-x="571" 
d="M243 666l-51 -291h331l-6 -32h-331l-54 -309h366l-6 -34h-400l123 700h400l-6 -34h-366zM390 891q18 0 31 -5.5t29 -16.5q16 -10 26 -15t24 -5q38 0 66 42h38q-45 -73 -109 -73q-18 0 -31 5.5t-29 16.5q-15 10 -26 15t-25 5q-37 0 -65 -42h-38q45 73 109 73z" />
    <glyph glyph-name="F" unicode="F" horiz-adv-x="520" 
d="M243 666l-51 -293l316 2l-6 -32h-316l-60 -343h-34l123 700h390l-6 -34h-356z" />
    <glyph glyph-name="G" unicode="G" horiz-adv-x="715" 
d="M176.5 73.5q-59.5 78.5 -59.5 195.5q0 122 50.5 224.5t136.5 162t189 59.5q116 0 175 -60.5t69 -149.5h-37q-10 84 -63.5 129.5t-149.5 45.5q-94 0 -170.5 -54t-120 -148.5t-43.5 -210.5q0 -112 57.5 -174.5t161.5 -62.5q74 0 135.5 31t102.5 86.5t56 129.5l8 39h-244
l5 30h271l-61 -346h-34l23 129h-8q-36 -56 -103 -95t-157 -39q-130 0 -189.5 78.5z" />
    <glyph glyph-name="Gbreve" unicode="&#x11e;" horiz-adv-x="715" 
d="M176.5 73.5q-59.5 78.5 -59.5 195.5q0 122 50.5 224.5t136.5 162t189 59.5q116 0 175 -60.5t69 -149.5h-37q-10 84 -63.5 129.5t-149.5 45.5q-94 0 -170.5 -54t-120 -148.5t-43.5 -210.5q0 -112 57.5 -174.5t161.5 -62.5q74 0 135.5 31t102.5 86.5t56 129.5l8 39h-244
l5 30h271l-61 -346h-34l23 129h-8q-36 -56 -103 -95t-157 -39q-130 0 -189.5 78.5zM422 809q-33 21 -53 66h38q27 -57 105 -57q79 0 125 57h38q-37 -46 -76.5 -66.5t-91.5 -20.5t-85 21z" />
    <glyph glyph-name="Gdotaccent" unicode="&#x120;" horiz-adv-x="715" 
d="M176.5 73.5q-59.5 78.5 -59.5 195.5q0 122 50.5 224.5t136.5 162t189 59.5q116 0 175 -60.5t69 -149.5h-37q-10 84 -63.5 129.5t-149.5 45.5q-94 0 -170.5 -54t-120 -148.5t-43.5 -210.5q0 -112 57.5 -174.5t161.5 -62.5q74 0 135.5 31t102.5 86.5t56 129.5l8 39h-244
l5 30h271l-61 -346h-34l23 129h-8q-36 -56 -103 -95t-157 -39q-130 0 -189.5 78.5zM487 814q-8 9 -8 22q0 16 12.5 28.5t28.5 12.5q13 0 22 -9t9 -21q0 -16 -13 -29t-30 -13q-13 0 -21 9z" />
    <glyph glyph-name="H" unicode="H" horiz-adv-x="678" 
d="M709 700l-123 -700h-34l59 337h-426l-59 -337h-34l123 700h34l-58 -331h426l58 331h34z" />
    <glyph glyph-name="Hbar" unicode="&#x126;" horiz-adv-x="692" 
d="M750 525h-65l-92 -525h-34l59 337h-426l-59 -337h-34l92 525h-63l5 32h64l25 143h34l-25 -143h426l25 143h34l-25 -143h64zM651 525h-426l-27 -156h426z" />
    <glyph glyph-name="I" unicode="I" horiz-adv-x="219" 
d="M215 700h35l-123 -700h-35z" />
    <glyph glyph-name="Iacute" unicode="&#xcd;" horiz-adv-x="219" 
d="M215 700h35l-123 -700h-35zM234 767l125 164h46l-142 -164h-29z" />
    <glyph glyph-name="Icircumflex" unicode="&#xce;" horiz-adv-x="219" 
d="M215 700h35l-123 -700h-35zM245 903h46l97 -133h-45l-77 105h-4l-115 -105h-45z" />
    <glyph glyph-name="Idieresis" unicode="&#xcf;" horiz-adv-x="219" 
d="M215 700h35l-123 -700h-35zM297 814q-8 9 -8 22q0 16 12.5 28.5t28.5 12.5q13 0 22 -9t9 -21q0 -16 -13 -29t-30 -13q-13 0 -21 9zM158 814q-8 9 -8 22q0 16 12.5 28.5t28.5 12.5q13 0 22 -9t9 -21q0 -16 -13 -29t-30 -13q-13 0 -21 9z" />
    <glyph glyph-name="Idotaccent" unicode="&#x130;" horiz-adv-x="219" 
d="M215 700h35l-123 -700h-35zM229 814q-8 9 -8 22q0 16 12.5 28.5t28.5 12.5q13 0 22 -9t9 -21q0 -16 -13 -29t-30 -13q-13 0 -21 9z" />
    <glyph glyph-name="uni1ECA" unicode="&#x1eca;" horiz-adv-x="219" 
d="M215 700h35l-123 -700h-35zM51 -193q-9 9 -9 23q0 17 13 30t30 13q14 0 23.5 -9t9.5 -22q0 -17 -14 -30.5t-31 -13.5q-13 0 -22 9z" />
    <glyph glyph-name="Igrave" unicode="&#xcc;" horiz-adv-x="219" 
d="M215 700h35l-123 -700h-35zM143 931h46l67 -164h-29z" />
    <glyph glyph-name="uni1EC8" unicode="&#x1ec8;" horiz-adv-x="219" 
d="M215 700h35l-123 -700h-35zM243 784.5q9 7.5 25 18.5q24 15 36 28t12 34q0 15 -11 25.5t-34 10.5q-22 0 -36 -9.5t-21 -23.5h-34q13 28 37 45.5t59 17.5q33 0 53 -16.5t20 -42.5q0 -28 -12 -42.5t-36 -31.5q-14 -9 -21.5 -15.5t-12.5 -15.5h-38q5 10 14 17.5z" />
    <glyph glyph-name="Imacron" unicode="&#x12a;" horiz-adv-x="219" 
d="M215 700h35l-123 -700h-35zM117 836h280l-5 -26h-280z" />
    <glyph glyph-name="Iogonek" unicode="&#x12e;" horiz-adv-x="219" 
d="M66.5 -109.5q11.5 -10.5 37.5 -10.5q15 0 41 4l-5 -28q-22 -5 -46 -5q-33 0 -52.5 16t-19.5 43q0 31 20 56t52 43l121 691h35l-123 -700q-32 -19 -52 -38t-20 -46q0 -15 11.5 -25.5z" />
    <glyph glyph-name="Itilde" unicode="&#x128;" horiz-adv-x="219" 
d="M215 700h35l-123 -700h-35zM208 891q18 0 31 -5.5t29 -16.5q16 -10 26 -15t24 -5q38 0 66 42h38q-45 -73 -109 -73q-18 0 -31 5.5t-29 16.5q-15 10 -26 15t-25 5q-37 0 -65 -42h-38q45 73 109 73z" />
    <glyph glyph-name="J" unicode="J" horiz-adv-x="327" 
d="M58 3l5 28q20 -5 48 -5q54 0 74 26.5t27 70.5l102 577h32l-101 -577q-10 -57 -40 -91.5t-96 -34.5q-33 0 -51 6z" />
    <glyph glyph-name="K" unicode="K" horiz-adv-x="594" 
d="M213 700h35l-59 -336h5l369 336h52l-348 -305l262 -395h-46l-243 365l-60 -53l-55 -312h-35z" />
    <glyph glyph-name="L" unicode="L" horiz-adv-x="524" 
d="M483 34l-6 -34h-384l122 700h35l-119 -666h352z" />
    <glyph glyph-name="Lacute" unicode="&#x139;" horiz-adv-x="524" 
d="M483 34l-6 -34h-384l122 700h35l-119 -666h352zM234 767l125 164h46l-142 -164h-29z" />
    <glyph glyph-name="Lcaron" unicode="&#x13d;" horiz-adv-x="524" 
d="M483 34l-6 -34h-384l122 700h35l-119 -666h352zM171 903l77 -105h4l115 105h45l-143 -133h-46l-97 133h45z" />
    <glyph glyph-name="M" unicode="M" horiz-adv-x="806" 
d="M215 700h48l149 -640h4l373 640h48l-123 -700h-34l111 632h-4l-367 -632h-34l-145 632h-4l-111 -632h-34z" />
    <glyph glyph-name="N" unicode="N" horiz-adv-x="721" 
d="M215 700h35l352 -638h4l112 638h34l-123 -700h-35l-352 638h-4l-112 -638h-34z" />
    <glyph glyph-name="Nacute" unicode="&#x143;" horiz-adv-x="721" 
d="M215 700h35l352 -638h4l112 638h34l-123 -700h-35l-352 638h-4l-112 -638h-34zM485 767l125 164h46l-142 -164h-29z" />
    <glyph glyph-name="Ncaron" unicode="&#x147;" horiz-adv-x="721" 
d="M215 700h35l352 -638h4l112 638h34l-123 -700h-35l-352 638h-4l-112 -638h-34zM422 903l77 -105h4l115 105h45l-143 -133h-46l-97 133h45z" />
    <glyph glyph-name="Ntilde" unicode="&#xd1;" horiz-adv-x="721" 
d="M215 700h35l352 -638h4l112 638h34l-123 -700h-35l-352 638h-4l-112 -638h-34zM459 891q18 0 31 -5.5t29 -16.5q16 -10 26 -15t24 -5q38 0 66 42h38q-45 -73 -109 -73q-18 0 -31 5.5t-29 16.5q-15 10 -26 15t-25 5q-37 0 -65 -42h-38q45 73 109 73z" />
    <glyph glyph-name="O" unicode="O" horiz-adv-x="745" 
d="M183 66.5q-67 71.5 -67 195.5q0 127 50 230.5t138 163t195 59.5q122 0 188.5 -71t66.5 -196q0 -127 -50 -230.5t-137.5 -163t-194.5 -59.5q-122 0 -189 71.5zM550.5 84.5q78.5 54.5 123.5 148t45 206.5t-60 177.5t-166 64.5q-95 0 -173 -54t-123.5 -147.5t-45.5 -206.5
t60 -178t167 -65q94 0 172.5 54.5z" />
    <glyph glyph-name="Oacute" unicode="&#xd3;" horiz-adv-x="745" 
d="M183 66.5q-67 71.5 -67 195.5q0 127 50 230.5t138 163t195 59.5q122 0 188.5 -71t66.5 -196q0 -127 -50 -230.5t-137.5 -163t-194.5 -59.5q-122 0 -189 71.5zM550.5 84.5q78.5 54.5 123.5 148t45 206.5t-60 177.5t-166 64.5q-95 0 -173 -54t-123.5 -147.5t-45.5 -206.5
t60 -178t167 -65q94 0 172.5 54.5zM497 767l125 164h46l-142 -164h-29z" />
    <glyph glyph-name="Ocircumflex" unicode="&#xd4;" horiz-adv-x="745" 
d="M183 66.5q-67 71.5 -67 195.5q0 127 50 230.5t138 163t195 59.5q122 0 188.5 -71t66.5 -196q0 -127 -50 -230.5t-137.5 -163t-194.5 -59.5q-122 0 -189 71.5zM550.5 84.5q78.5 54.5 123.5 148t45 206.5t-60 177.5t-166 64.5q-95 0 -173 -54t-123.5 -147.5t-45.5 -206.5
t60 -178t167 -65q94 0 172.5 54.5zM508 903h46l97 -133h-45l-77 105h-4l-115 -105h-45z" />
    <glyph glyph-name="uni1ED0" unicode="&#x1ed0;" horiz-adv-x="745" 
d="M183 66.5q-67 71.5 -67 195.5q0 127 50 230.5t138 163t195 59.5q122 0 188.5 -71t66.5 -196q0 -127 -50 -230.5t-137.5 -163t-194.5 -59.5q-122 0 -189 71.5zM550.5 84.5q78.5 54.5 123.5 148t45 206.5t-60 177.5t-166 64.5q-95 0 -173 -54t-123.5 -147.5t-45.5 -206.5
t60 -178t167 -65q94 0 172.5 54.5zM508 903h46l97 -133h-45l-77 105h-4l-115 -105h-45zM638 890l125 164h46l-142 -164h-29z" />
    <glyph glyph-name="uni1ED8" unicode="&#x1ed8;" horiz-adv-x="745" 
d="M183 66.5q-67 71.5 -67 195.5q0 127 50 230.5t138 163t195 59.5q122 0 188.5 -71t66.5 -196q0 -127 -50 -230.5t-137.5 -163t-194.5 -59.5q-122 0 -189 71.5zM550.5 84.5q78.5 54.5 123.5 148t45 206.5t-60 177.5t-166 64.5q-95 0 -173 -54t-123.5 -147.5t-45.5 -206.5
t60 -178t167 -65q94 0 172.5 54.5zM314 -193q-9 9 -9 23q0 17 13 30t30 13q14 0 23.5 -9t9.5 -22q0 -17 -14 -30.5t-31 -13.5q-13 0 -22 9zM508 903h46l97 -133h-45l-77 105h-4l-115 -105h-45z" />
    <glyph glyph-name="uni1ED2" unicode="&#x1ed2;" horiz-adv-x="745" 
d="M183 66.5q-67 71.5 -67 195.5q0 127 50 230.5t138 163t195 59.5q122 0 188.5 -71t66.5 -196q0 -127 -50 -230.5t-137.5 -163t-194.5 -59.5q-122 0 -189 71.5zM550.5 84.5q78.5 54.5 123.5 148t45 206.5t-60 177.5t-166 64.5q-95 0 -173 -54t-123.5 -147.5t-45.5 -206.5
t60 -178t167 -65q94 0 172.5 54.5zM508 903h46l97 -133h-45l-77 105h-4l-115 -105h-45zM547 1054h46l67 -164h-29z" />
    <glyph glyph-name="uni1ED4" unicode="&#x1ed4;" horiz-adv-x="745" 
d="M183 66.5q-67 71.5 -67 195.5q0 127 50 230.5t138 163t195 59.5q122 0 188.5 -71t66.5 -196q0 -127 -50 -230.5t-137.5 -163t-194.5 -59.5q-122 0 -189 71.5zM550.5 84.5q78.5 54.5 123.5 148t45 206.5t-60 177.5t-166 64.5q-95 0 -173 -54t-123.5 -147.5t-45.5 -206.5
t60 -178t167 -65q94 0 172.5 54.5zM508 903h46l97 -133h-45l-77 105h-4l-115 -105h-45zM647 907.5q9 7.5 25 18.5q24 15 36 28t12 34q0 15 -11 25.5t-34 10.5q-22 0 -36 -9.5t-21 -23.5h-34q13 28 37 45.5t59 17.5q33 0 53 -16.5t20 -42.5q0 -28 -12 -42.5t-36 -31.5
q-14 -9 -21.5 -15.5t-12.5 -15.5h-38q5 10 14 17.5z" />
    <glyph glyph-name="uni1ED6" unicode="&#x1ed6;" horiz-adv-x="745" 
d="M183 66.5q-67 71.5 -67 195.5q0 127 50 230.5t138 163t195 59.5q122 0 188.5 -71t66.5 -196q0 -127 -50 -230.5t-137.5 -163t-194.5 -59.5q-122 0 -189 71.5zM550.5 84.5q78.5 54.5 123.5 148t45 206.5t-60 177.5t-166 64.5q-95 0 -173 -54t-123.5 -147.5t-45.5 -206.5
t60 -178t167 -65q94 0 172.5 54.5zM508 903h46l97 -133h-45l-77 105h-4l-115 -105h-45zM474 1026q18 0 31 -5.5t29 -16.5q16 -10 26 -15t24 -5q38 0 66 42h38q-45 -73 -109 -73q-18 0 -31 5.5t-29 16.5q-15 10 -26 15t-25 5q-37 0 -65 -42h-38q45 73 109 73z" />
    <glyph glyph-name="Odieresis" unicode="&#xd6;" horiz-adv-x="745" 
d="M183 66.5q-67 71.5 -67 195.5q0 127 50 230.5t138 163t195 59.5q122 0 188.5 -71t66.5 -196q0 -127 -50 -230.5t-137.5 -163t-194.5 -59.5q-122 0 -189 71.5zM550.5 84.5q78.5 54.5 123.5 148t45 206.5t-60 177.5t-166 64.5q-95 0 -173 -54t-123.5 -147.5t-45.5 -206.5
t60 -178t167 -65q94 0 172.5 54.5zM560 814q-8 9 -8 22q0 16 12.5 28.5t28.5 12.5q13 0 22 -9t9 -21q0 -16 -13 -29t-30 -13q-13 0 -21 9zM421 814q-8 9 -8 22q0 16 12.5 28.5t28.5 12.5q13 0 22 -9t9 -21q0 -16 -13 -29t-30 -13q-13 0 -21 9z" />
    <glyph glyph-name="uni1ECC" unicode="&#x1ecc;" horiz-adv-x="745" 
d="M183 66.5q-67 71.5 -67 195.5q0 127 50 230.5t138 163t195 59.5q122 0 188.5 -71t66.5 -196q0 -127 -50 -230.5t-137.5 -163t-194.5 -59.5q-122 0 -189 71.5zM550.5 84.5q78.5 54.5 123.5 148t45 206.5t-60 177.5t-166 64.5q-95 0 -173 -54t-123.5 -147.5t-45.5 -206.5
t60 -178t167 -65q94 0 172.5 54.5zM314 -193q-9 9 -9 23q0 17 13 30t30 13q14 0 23.5 -9t9.5 -22q0 -17 -14 -30.5t-31 -13.5q-13 0 -22 9z" />
    <glyph glyph-name="Ograve" unicode="&#xd2;" horiz-adv-x="745" 
d="M183 66.5q-67 71.5 -67 195.5q0 127 50 230.5t138 163t195 59.5q122 0 188.5 -71t66.5 -196q0 -127 -50 -230.5t-137.5 -163t-194.5 -59.5q-122 0 -189 71.5zM550.5 84.5q78.5 54.5 123.5 148t45 206.5t-60 177.5t-166 64.5q-95 0 -173 -54t-123.5 -147.5t-45.5 -206.5
t60 -178t167 -65q94 0 172.5 54.5zM406 931h46l67 -164h-29z" />
    <glyph glyph-name="uni1ECE" unicode="&#x1ece;" horiz-adv-x="745" 
d="M183 66.5q-67 71.5 -67 195.5q0 127 50 230.5t138 163t195 59.5q122 0 188.5 -71t66.5 -196q0 -127 -50 -230.5t-137.5 -163t-194.5 -59.5q-122 0 -189 71.5zM550.5 84.5q78.5 54.5 123.5 148t45 206.5t-60 177.5t-166 64.5q-95 0 -173 -54t-123.5 -147.5t-45.5 -206.5
t60 -178t167 -65q94 0 172.5 54.5zM506 784.5q9 7.5 25 18.5q24 15 36 28t12 34q0 15 -11 25.5t-34 10.5q-22 0 -36 -9.5t-21 -23.5h-34q13 28 37 45.5t59 17.5q33 0 53 -16.5t20 -42.5q0 -28 -12 -42.5t-36 -31.5q-14 -9 -21.5 -15.5t-12.5 -15.5h-38q5 10 14 17.5z" />
    <glyph glyph-name="Ohorn" unicode="&#x1a0;" horiz-adv-x="745" 
d="M729 580q25 -57 25 -132q0 -127 -50 -230.5t-137.5 -163t-194.5 -59.5q-122 0 -189 71.5t-67 195.5q0 127 50 230.5t138 163t195 59.5q56 0 99 -15h46q24 0 36.5 12t19.5 51l3 16h39l-3 -16q-16 -86 -82 -93q47 -33 72 -90zM550.5 84.5q78.5 54.5 123.5 148t45 206.5
t-60 177.5t-166 64.5q-95 0 -173 -54t-123.5 -147.5t-45.5 -206.5t60 -178t167 -65q94 0 172.5 54.5z" />
    <glyph glyph-name="uni1EDA" unicode="&#x1eda;" horiz-adv-x="745" 
d="M729 580q25 -57 25 -132q0 -127 -50 -230.5t-137.5 -163t-194.5 -59.5q-122 0 -189 71.5t-67 195.5q0 127 50 230.5t138 163t195 59.5q56 0 99 -15h46q24 0 36.5 12t19.5 51l3 16h39l-3 -16q-16 -86 -82 -93q47 -33 72 -90zM550.5 84.5q78.5 54.5 123.5 148t45 206.5
t-60 177.5t-166 64.5q-95 0 -173 -54t-123.5 -147.5t-45.5 -206.5t60 -178t167 -65q94 0 172.5 54.5zM497 767l125 164h46l-142 -164h-29z" />
    <glyph glyph-name="uni1EE2" unicode="&#x1ee2;" horiz-adv-x="745" 
d="M729 580q25 -57 25 -132q0 -127 -50 -230.5t-137.5 -163t-194.5 -59.5q-122 0 -189 71.5t-67 195.5q0 127 50 230.5t138 163t195 59.5q56 0 99 -15h46q24 0 36.5 12t19.5 51l3 16h39l-3 -16q-16 -86 -82 -93q47 -33 72 -90zM550.5 84.5q78.5 54.5 123.5 148t45 206.5
t-60 177.5t-166 64.5q-95 0 -173 -54t-123.5 -147.5t-45.5 -206.5t60 -178t167 -65q94 0 172.5 54.5zM314 -193q-9 9 -9 23q0 17 13 30t30 13q14 0 23.5 -9t9.5 -22q0 -17 -14 -30.5t-31 -13.5q-13 0 -22 9z" />
    <glyph glyph-name="uni1EDC" unicode="&#x1edc;" horiz-adv-x="745" 
d="M729 580q25 -57 25 -132q0 -127 -50 -230.5t-137.5 -163t-194.5 -59.5q-122 0 -189 71.5t-67 195.5q0 127 50 230.5t138 163t195 59.5q56 0 99 -15h46q24 0 36.5 12t19.5 51l3 16h39l-3 -16q-16 -86 -82 -93q47 -33 72 -90zM550.5 84.5q78.5 54.5 123.5 148t45 206.5
t-60 177.5t-166 64.5q-95 0 -173 -54t-123.5 -147.5t-45.5 -206.5t60 -178t167 -65q94 0 172.5 54.5zM406 931h46l67 -164h-29z" />
    <glyph glyph-name="uni1EDE" unicode="&#x1ede;" horiz-adv-x="745" 
d="M729 580q25 -57 25 -132q0 -127 -50 -230.5t-137.5 -163t-194.5 -59.5q-122 0 -189 71.5t-67 195.5q0 127 50 230.5t138 163t195 59.5q56 0 99 -15h46q24 0 36.5 12t19.5 51l3 16h39l-3 -16q-16 -86 -82 -93q47 -33 72 -90zM550.5 84.5q78.5 54.5 123.5 148t45 206.5
t-60 177.5t-166 64.5q-95 0 -173 -54t-123.5 -147.5t-45.5 -206.5t60 -178t167 -65q94 0 172.5 54.5zM506 784.5q9 7.5 25 18.5q24 15 36 28t12 34q0 15 -11 25.5t-34 10.5q-22 0 -36 -9.5t-21 -23.5h-34q13 28 37 45.5t59 17.5q33 0 53 -16.5t20 -42.5q0 -28 -12 -42.5
t-36 -31.5q-14 -9 -21.5 -15.5t-12.5 -15.5h-38q5 10 14 17.5z" />
    <glyph glyph-name="uni1EE0" unicode="&#x1ee0;" horiz-adv-x="745" 
d="M729 580q25 -57 25 -132q0 -127 -50 -230.5t-137.5 -163t-194.5 -59.5q-122 0 -189 71.5t-67 195.5q0 127 50 230.5t138 163t195 59.5q56 0 99 -15h46q24 0 36.5 12t19.5 51l3 16h39l-3 -16q-16 -86 -82 -93q47 -33 72 -90zM550.5 84.5q78.5 54.5 123.5 148t45 206.5
t-60 177.5t-166 64.5q-95 0 -173 -54t-123.5 -147.5t-45.5 -206.5t60 -178t167 -65q94 0 172.5 54.5zM471 891q18 0 31 -5.5t29 -16.5q16 -10 26 -15t24 -5q38 0 66 42h38q-45 -73 -109 -73q-18 0 -31 5.5t-29 16.5q-15 10 -26 15t-25 5q-37 0 -65 -42h-38q45 73 109 73z
" />
    <glyph glyph-name="Omacron" unicode="&#x14c;" horiz-adv-x="745" 
d="M183 66.5q-67 71.5 -67 195.5q0 127 50 230.5t138 163t195 59.5q122 0 188.5 -71t66.5 -196q0 -127 -50 -230.5t-137.5 -163t-194.5 -59.5q-122 0 -189 71.5zM550.5 84.5q78.5 54.5 123.5 148t45 206.5t-60 177.5t-166 64.5q-95 0 -173 -54t-123.5 -147.5t-45.5 -206.5
t60 -178t167 -65q94 0 172.5 54.5zM380 836h280l-5 -26h-280z" />
    <glyph glyph-name="Oslash" unicode="&#xd8;" horiz-adv-x="744" 
d="M690 640q63 -71 63 -192q0 -127 -50 -230.5t-137.5 -163t-194.5 -59.5q-102 0 -167 51l-73 -89h-37l89 108q-68 71 -68 197q0 127 50 230.5t138 163t195 59.5t171 -55l68 83h37zM208 97l436 533q-59 51 -152 51q-95 0 -173 -54t-123.5 -147.5t-45.5 -206.5
q0 -112 58 -176zM665 609l-436 -532q60 -47 148 -47q94 0 172.5 54.5t123.5 148t45 206.5q0 106 -53 170z" />
    <glyph glyph-name="Otilde" unicode="&#xd5;" horiz-adv-x="745" 
d="M183 66.5q-67 71.5 -67 195.5q0 127 50 230.5t138 163t195 59.5q122 0 188.5 -71t66.5 -196q0 -127 -50 -230.5t-137.5 -163t-194.5 -59.5q-122 0 -189 71.5zM550.5 84.5q78.5 54.5 123.5 148t45 206.5t-60 177.5t-166 64.5q-95 0 -173 -54t-123.5 -147.5t-45.5 -206.5
t60 -178t167 -65q94 0 172.5 54.5zM471 891q18 0 31 -5.5t29 -16.5q16 -10 26 -15t24 -5q38 0 66 42h38q-45 -73 -109 -73q-18 0 -31 5.5t-29 16.5q-15 10 -26 15t-25 5q-37 0 -65 -42h-38q45 73 109 73z" />
    <glyph glyph-name="OE" unicode="&#x152;" horiz-adv-x="956" 
d="M171.5 70q-67.5 70 -67.5 192q0 123 50 223t137 157.5t194 57.5h516l-6 -34h-366l-51 -291h331l-6 -32h-331l-55 -309h366l-6 -34h-516q-122 0 -189.5 70zM483 33l112 634h-116q-94 0 -172 -52t-123 -142.5t-45 -200.5q0 -111 60.5 -175t167.5 -64h116z" />
    <glyph glyph-name="P" unicode="P" horiz-adv-x="584" 
d="M585.5 650q45.5 -50 45.5 -123q0 -68 -31.5 -129t-94 -98.5t-150.5 -37.5h-185l-46 -262h-32l123 700h217q108 0 153.5 -50zM486 324.5q54 28.5 83 80.5t29 121q0 76 -49.5 108t-122.5 32h-185l-65 -370h185q71 0 125 28.5z" />
    <glyph glyph-name="Thorn" unicode="&#xde;" horiz-adv-x="584" 
d="M562.5 519q45.5 -50 45.5 -123q0 -68 -31.5 -129t-94 -98.5t-150.5 -37.5h-185l-23 -131h-32l123 700h32l-23 -131h185q108 0 153.5 -50zM463 193.5q54 28.5 83 80.5t29 121q0 76 -49.5 108t-122.5 32h-185l-65 -370h185q71 0 125 28.5z" />
    <glyph glyph-name="Q" unicode="Q" horiz-adv-x="743" 
d="M705.5 220.5q-48.5 -102.5 -133.5 -161.5l82 -126h-44l-69 106q-79 -44 -169 -44q-122 0 -189 71.5t-67 195.5q0 127 50 230.5t138 163t195 59.5q122 0 188.5 -71t66.5 -196t-48.5 -227.5zM523 67l-127 196h44l114 -176q76 54 120.5 147t44.5 205q0 113 -60 177.5
t-166 64.5q-95 0 -173 -54t-123.5 -147.5t-45.5 -206.5t60 -178t167 -65q77 0 145 37z" />
    <glyph glyph-name="R" unicode="R" horiz-adv-x="603" 
d="M605.5 429.5q-28.5 -52.5 -86 -87t-140.5 -37.5l162 -305h-44l-160 305h-157l-54 -305h-34l123 700h217q109 0 155.5 -46.5t46.5 -113.5q0 -58 -28.5 -110.5zM538 393q63 54 63 145q0 70 -50.5 99t-124.5 29h-183l-57 -327h183q106 0 169 54z" />
    <glyph glyph-name="Racute" unicode="&#x154;" horiz-adv-x="603" 
d="M605.5 429.5q-28.5 -52.5 -86 -87t-140.5 -37.5l162 -305h-44l-160 305h-157l-54 -305h-34l123 700h217q109 0 155.5 -46.5t46.5 -113.5q0 -58 -28.5 -110.5zM538 393q63 54 63 145q0 70 -50.5 99t-124.5 29h-183l-57 -327h183q106 0 169 54zM401 767l125 164h46
l-142 -164h-29z" />
    <glyph glyph-name="Rcaron" unicode="&#x158;" horiz-adv-x="603" 
d="M605.5 429.5q-28.5 -52.5 -86 -87t-140.5 -37.5l162 -305h-44l-160 305h-157l-54 -305h-34l123 700h217q109 0 155.5 -46.5t46.5 -113.5q0 -58 -28.5 -110.5zM538 393q63 54 63 145q0 70 -50.5 99t-124.5 29h-183l-57 -327h183q106 0 169 54zM338 903l77 -105h4l115 105
h45l-143 -133h-46l-97 133h45z" />
    <glyph glyph-name="S" unicode="S" horiz-adv-x="595" 
d="M138 60.5q-49 67.5 -49 163.5v2h41v-3q0 -78 37.5 -136t140.5 -58q63 0 114.5 25t81.5 68t30 95q0 48 -31.5 76.5t-83.5 38.5l-114 22q-49 10 -93 37.5t-44 99.5q0 62 33.5 113.5t91.5 81t128 29.5q107 0 154.5 -62.5t47.5 -150.5v-2h-41v2q0 68 -33 123t-135 55
q-57 0 -105.5 -24.5t-76.5 -66.5t-28 -92q0 -42 26.5 -69.5t78.5 -37.5l97 -19q65 -13 115 -44t50 -102q0 -64 -36 -117t-98 -84t-136 -31q-114 0 -163 67.5z" />
    <glyph glyph-name="Sacute" unicode="&#x15a;" horiz-adv-x="595" 
d="M138 60.5q-49 67.5 -49 163.5v2h41v-3q0 -78 37.5 -136t140.5 -58q63 0 114.5 25t81.5 68t30 95q0 48 -31.5 76.5t-83.5 38.5l-114 22q-49 10 -93 37.5t-44 99.5q0 62 33.5 113.5t91.5 81t128 29.5q107 0 154.5 -62.5t47.5 -150.5v-2h-41v2q0 68 -33 123t-135 55
q-57 0 -105.5 -24.5t-76.5 -66.5t-28 -92q0 -42 26.5 -69.5t78.5 -37.5l97 -19q65 -13 115 -44t50 -102q0 -64 -36 -117t-98 -84t-136 -31q-114 0 -163 67.5zM422 767l125 164h46l-142 -164h-29z" />
    <glyph glyph-name="Scaron" unicode="&#x160;" horiz-adv-x="595" 
d="M138 60.5q-49 67.5 -49 163.5v2h41v-3q0 -78 37.5 -136t140.5 -58q63 0 114.5 25t81.5 68t30 95q0 48 -31.5 76.5t-83.5 38.5l-114 22q-49 10 -93 37.5t-44 99.5q0 62 33.5 113.5t91.5 81t128 29.5q107 0 154.5 -62.5t47.5 -150.5v-2h-41v2q0 68 -33 123t-135 55
q-57 0 -105.5 -24.5t-76.5 -66.5t-28 -92q0 -42 26.5 -69.5t78.5 -37.5l97 -19q65 -13 115 -44t50 -102q0 -64 -36 -117t-98 -84t-136 -31q-114 0 -163 67.5zM359 903l77 -105h4l115 105h45l-143 -133h-46l-97 133h45z" />
    <glyph glyph-name="Scedilla" unicode="&#x15e;" horiz-adv-x="595" 
d="M575.5 652.5q47.5 -62.5 47.5 -150.5v-2h-41v2q0 68 -33 123t-135 55q-57 0 -105.5 -24.5t-76.5 -66.5t-28 -92q0 -42 26.5 -69.5t78.5 -37.5l97 -19q65 -13 115 -44t50 -102q0 -62 -34 -114.5t-93 -84t-131 -33.5l-34 -65h36q40 0 60.5 -17.5t20.5 -46.5q0 -30 -17 -56
t-48 -42t-69 -16q-25 0 -45 5l7 30q26 -4 47 -4q40 0 66 21t26 54q0 41 -58 41h-76l1 4l49 93q-102 7 -146 73t-44 157v2h41v-3q0 -78 37.5 -136t140.5 -58q63 0 114.5 25t81.5 68t30 95q0 48 -31.5 76.5t-83.5 38.5l-114 22q-49 10 -93 37.5t-44 99.5q0 62 33.5 113.5
t91.5 81t128 29.5q107 0 154.5 -62.5z" />
    <glyph glyph-name="T" unicode="T" 
d="M649 666h-223l-117 -666h-34l117 666h-223l6 34h480z" />
    <glyph glyph-name="Tbar" unicode="&#x166;" horiz-adv-x="584" 
d="M426 666l-42 -241h183l-6 -34h-183l-69 -391h-34l69 391h-183l6 34h183l42 241h-223l6 34h480l-6 -34h-223z" />
    <glyph glyph-name="Tcaron" unicode="&#x164;" 
d="M649 666h-223l-117 -666h-34l117 666h-223l6 34h480zM354 903l77 -105h4l115 105h45l-143 -133h-46l-97 133h45z" />
    <glyph glyph-name="uni0162" unicode="&#x162;" 
d="M649 666h-223l-117 -666h-34l117 666h-223l6 34h480zM330 -197q26 21 26 54q0 41 -58 41h-76l1 4l52 98h34l-37 -71h36q40 0 60.5 -17.5t20.5 -46.5q0 -30 -17 -56t-48 -42t-69 -16q-25 0 -45 5l7 30q26 -4 47 -4q40 0 66 21z" />
    <glyph glyph-name="U" unicode="U" horiz-adv-x="683" 
d="M174 50.5q-53 59.5 -53 163.5q0 47 9 96l69 390h33l-70 -394q-8 -40 -8 -81q0 -82 42 -141t152 -59q145 0 204 92t76 189l70 394h33l-69 -390q-26 -145 -104.5 -232t-215.5 -87q-115 0 -168 59.5z" />
    <glyph glyph-name="Uacute" unicode="&#xda;" horiz-adv-x="683" 
d="M174 50.5q-53 59.5 -53 163.5q0 47 9 96l69 390h33l-70 -394q-8 -40 -8 -81q0 -82 42 -141t152 -59q145 0 204 92t76 189l70 394h33l-69 -390q-26 -145 -104.5 -232t-215.5 -87q-115 0 -168 59.5zM468 767l125 164h46l-142 -164h-29z" />
    <glyph glyph-name="Ucircumflex" unicode="&#xdb;" horiz-adv-x="683" 
d="M174 50.5q-53 59.5 -53 163.5q0 47 9 96l69 390h33l-70 -394q-8 -40 -8 -81q0 -82 42 -141t152 -59q145 0 204 92t76 189l70 394h33l-69 -390q-26 -145 -104.5 -232t-215.5 -87q-115 0 -168 59.5zM479 903h46l97 -133h-45l-77 105h-4l-115 -105h-45z" />
    <glyph glyph-name="Udieresis" unicode="&#xdc;" horiz-adv-x="683" 
d="M174 50.5q-53 59.5 -53 163.5q0 47 9 96l69 390h33l-70 -394q-8 -40 -8 -81q0 -82 42 -141t152 -59q145 0 204 92t76 189l70 394h33l-69 -390q-26 -145 -104.5 -232t-215.5 -87q-115 0 -168 59.5zM531 814q-8 9 -8 22q0 16 12.5 28.5t28.5 12.5q13 0 22 -9t9 -21
q0 -16 -13 -29t-30 -13q-13 0 -21 9zM392 814q-8 9 -8 22q0 16 12.5 28.5t28.5 12.5q13 0 22 -9t9 -21q0 -16 -13 -29t-30 -13q-13 0 -21 9z" />
    <glyph glyph-name="uni1EE4" unicode="&#x1ee4;" horiz-adv-x="683" 
d="M174 50.5q-53 59.5 -53 163.5q0 47 9 96l69 390h33l-70 -394q-8 -40 -8 -81q0 -82 42 -141t152 -59q145 0 204 92t76 189l70 394h33l-69 -390q-26 -145 -104.5 -232t-215.5 -87q-115 0 -168 59.5zM285 -193q-9 9 -9 23q0 17 13 30t30 13q14 0 23.5 -9t9.5 -22
q0 -17 -14 -30.5t-31 -13.5q-13 0 -22 9z" />
    <glyph glyph-name="Ugrave" unicode="&#xd9;" horiz-adv-x="683" 
d="M174 50.5q-53 59.5 -53 163.5q0 47 9 96l69 390h33l-70 -394q-8 -40 -8 -81q0 -82 42 -141t152 -59q145 0 204 92t76 189l70 394h33l-69 -390q-26 -145 -104.5 -232t-215.5 -87q-115 0 -168 59.5zM377 931h46l67 -164h-29z" />
    <glyph glyph-name="uni1EE6" unicode="&#x1ee6;" horiz-adv-x="683" 
d="M174 50.5q-53 59.5 -53 163.5q0 47 9 96l69 390h33l-70 -394q-8 -40 -8 -81q0 -82 42 -141t152 -59q145 0 204 92t76 189l70 394h33l-69 -390q-26 -145 -104.5 -232t-215.5 -87q-115 0 -168 59.5zM477 784.5q9 7.5 25 18.5q24 15 36 28t12 34q0 15 -11 25.5t-34 10.5
q-22 0 -36 -9.5t-21 -23.5h-34q13 28 37 45.5t59 17.5q33 0 53 -16.5t20 -42.5q0 -28 -12 -42.5t-36 -31.5q-14 -9 -21.5 -15.5t-12.5 -15.5h-38q5 10 14 17.5z" />
    <glyph glyph-name="Uhorn" unicode="&#x1af;" horiz-adv-x="683" 
d="M848 779l-3 -16q-18 -93 -93 -93h-26l-64 -360q-26 -145 -104.5 -232t-215.5 -87q-115 0 -168 59.5t-53 163.5q0 47 9 96l69 390h33l-70 -394q-8 -40 -8 -81q0 -82 42 -141t152 -59q145 0 204 92t76 189l70 394h52q24 0 36.5 12t19.5 51l3 16h39z" />
    <glyph glyph-name="uni1EE8" unicode="&#x1ee8;" horiz-adv-x="683" 
d="M848 779l-3 -16q-18 -93 -93 -93h-26l-64 -360q-26 -145 -104.5 -232t-215.5 -87q-115 0 -168 59.5t-53 163.5q0 47 9 96l69 390h33l-70 -394q-8 -40 -8 -81q0 -82 42 -141t152 -59q145 0 204 92t76 189l70 394h52q24 0 36.5 12t19.5 51l3 16h39zM468 767l125 164h46
l-142 -164h-29z" />
    <glyph glyph-name="uni1EF0" unicode="&#x1ef0;" horiz-adv-x="683" 
d="M848 779l-3 -16q-18 -93 -93 -93h-26l-64 -360q-26 -145 -104.5 -232t-215.5 -87q-115 0 -168 59.5t-53 163.5q0 47 9 96l69 390h33l-70 -394q-8 -40 -8 -81q0 -82 42 -141t152 -59q145 0 204 92t76 189l70 394h52q24 0 36.5 12t19.5 51l3 16h39zM285 -193q-9 9 -9 23
q0 17 13 30t30 13q14 0 23.5 -9t9.5 -22q0 -17 -14 -30.5t-31 -13.5q-13 0 -22 9z" />
    <glyph glyph-name="uni1EEA" unicode="&#x1eea;" horiz-adv-x="683" 
d="M848 779l-3 -16q-18 -93 -93 -93h-26l-64 -360q-26 -145 -104.5 -232t-215.5 -87q-115 0 -168 59.5t-53 163.5q0 47 9 96l69 390h33l-70 -394q-8 -40 -8 -81q0 -82 42 -141t152 -59q145 0 204 92t76 189l70 394h52q24 0 36.5 12t19.5 51l3 16h39zM377 931h46l67 -164h-29
z" />
    <glyph glyph-name="uni1EEC" unicode="&#x1eec;" horiz-adv-x="683" 
d="M848 779l-3 -16q-18 -93 -93 -93h-26l-64 -360q-26 -145 -104.5 -232t-215.5 -87q-115 0 -168 59.5t-53 163.5q0 47 9 96l69 390h33l-70 -394q-8 -40 -8 -81q0 -82 42 -141t152 -59q145 0 204 92t76 189l70 394h52q24 0 36.5 12t19.5 51l3 16h39zM477 784.5
q9 7.5 25 18.5q24 15 36 28t12 34q0 15 -11 25.5t-34 10.5q-22 0 -36 -9.5t-21 -23.5h-34q13 28 37 45.5t59 17.5q33 0 53 -16.5t20 -42.5q0 -28 -12 -42.5t-36 -31.5q-14 -9 -21.5 -15.5t-12.5 -15.5h-38q5 10 14 17.5z" />
    <glyph glyph-name="uni1EEE" unicode="&#x1eee;" horiz-adv-x="683" 
d="M848 779l-3 -16q-18 -93 -93 -93h-26l-64 -360q-26 -145 -104.5 -232t-215.5 -87q-115 0 -168 59.5t-53 163.5q0 47 9 96l69 390h33l-70 -394q-8 -40 -8 -81q0 -82 42 -141t152 -59q145 0 204 92t76 189l70 394h52q24 0 36.5 12t19.5 51l3 16h39zM442 891q18 0 31 -5.5
t29 -16.5q16 -10 26 -15t24 -5q38 0 66 42h38q-45 -73 -109 -73q-18 0 -31 5.5t-29 16.5q-15 10 -26 15t-25 5q-37 0 -65 -42h-38q45 73 109 73z" />
    <glyph glyph-name="Umacron" unicode="&#x16a;" horiz-adv-x="683" 
d="M174 50.5q-53 59.5 -53 163.5q0 47 9 96l69 390h33l-70 -394q-8 -40 -8 -81q0 -82 42 -141t152 -59q145 0 204 92t76 189l70 394h33l-69 -390q-26 -145 -104.5 -232t-215.5 -87q-115 0 -168 59.5zM351 836h280l-5 -26h-280z" />
    <glyph glyph-name="Uogonek" unicode="&#x172;" horiz-adv-x="683" 
d="M731 700l-69 -390q-25 -139 -97.5 -224.5t-199.5 -93.5l1 -1q-32 -19 -52 -38t-20 -46q0 -15 11.5 -25.5t37.5 -10.5q15 0 41 4l-5 -28q-22 -5 -46 -5q-33 0 -52.5 16t-19.5 43q0 51 58 91q-103 6 -150.5 65t-47.5 157q0 47 9 96l69 390h33l-70 -394q-8 -40 -8 -81
q0 -82 42 -141t152 -59q145 0 204 92t76 189l70 394h33z" />
    <glyph glyph-name="Uring" unicode="&#x16e;" horiz-adv-x="683" 
d="M174 50.5q-53 59.5 -53 163.5q0 47 9 96l69 390h33l-70 -394q-8 -40 -8 -81q0 -82 42 -141t152 -59q145 0 204 92t76 189l70 394h33l-69 -390q-26 -145 -104.5 -232t-215.5 -87q-115 0 -168 59.5zM439 817q-18 18 -18 45q0 34 27.5 61t61.5 27q28 0 46 -18t18 -44
q0 -35 -27.5 -62t-62.5 -27q-27 0 -45 18zM531.5 841q19.5 19 19.5 43q0 18 -13 30.5t-32 12.5q-24 0 -43 -18.5t-19 -42.5q0 -19 12.5 -31.5t31.5 -12.5q24 0 43.5 19z" />
    <glyph glyph-name="Utilde" unicode="&#x168;" horiz-adv-x="683" 
d="M174 50.5q-53 59.5 -53 163.5q0 47 9 96l69 390h33l-70 -394q-8 -40 -8 -81q0 -82 42 -141t152 -59q145 0 204 92t76 189l70 394h33l-69 -390q-26 -145 -104.5 -232t-215.5 -87q-115 0 -168 59.5zM442 891q18 0 31 -5.5t29 -16.5q16 -10 26 -15t24 -5q38 0 66 42h38
q-45 -73 -109 -73q-18 0 -31 5.5t-29 16.5q-15 10 -26 15t-25 5q-37 0 -65 -42h-38q45 73 109 73z" />
    <glyph glyph-name="V" unicode="V" horiz-adv-x="610" 
d="M141 700h36l129 -673h6l367 673h36l-380 -700h-60z" />
    <glyph glyph-name="W" unicode="W" horiz-adv-x="990" 
d="M141 700h35l71 -674h6l348 674h35l109 -674h6l309 674h34l-318 -700h-61l-103 647h-6l-331 -647h-61z" />
    <glyph glyph-name="Wacute" unicode="&#x1e82;" horiz-adv-x="990" 
d="M141 700h35l71 -674h6l348 674h35l109 -674h6l309 674h34l-318 -700h-61l-103 647h-6l-331 -647h-61zM619 767l125 164h46l-142 -164h-29z" />
    <glyph glyph-name="Wcircumflex" unicode="&#x174;" horiz-adv-x="990" 
d="M141 700h35l71 -674h6l348 674h35l109 -674h6l309 674h34l-318 -700h-61l-103 647h-6l-331 -647h-61zM630 903h46l97 -133h-45l-77 105h-4l-115 -105h-45z" />
    <glyph glyph-name="Wdieresis" unicode="&#x1e84;" horiz-adv-x="990" 
d="M141 700h35l71 -674h6l348 674h35l109 -674h6l309 674h34l-318 -700h-61l-103 647h-6l-331 -647h-61zM682 814q-8 9 -8 22q0 16 12.5 28.5t28.5 12.5q13 0 22 -9t9 -21q0 -16 -13 -29t-30 -13q-13 0 -21 9zM543 814q-8 9 -8 22q0 16 12.5 28.5t28.5 12.5q13 0 22 -9
t9 -21q0 -16 -13 -29t-30 -13q-13 0 -21 9z" />
    <glyph glyph-name="Wgrave" unicode="&#x1e80;" horiz-adv-x="990" 
d="M141 700h35l71 -674h6l348 674h35l109 -674h6l309 674h34l-318 -700h-61l-103 647h-6l-331 -647h-61zM528 931h46l67 -164h-29z" />
    <glyph glyph-name="X" unicode="X" horiz-adv-x="640" 
d="M353 350l-177 350h41l168 -326h6l278 326h43l-297 -350l174 -350h-43l-164 325h-6l-282 -325h-42z" />
    <glyph glyph-name="Y" unicode="Y" 
d="M269 -1l47 265l-150 436h43l130 -383h8l263 383h43l-302 -436l-46 -264z" />
    <glyph glyph-name="Yacute" unicode="&#xdd;" 
d="M269 -1l47 265l-150 436h43l130 -383h8l263 383h43l-302 -436l-46 -264zM412 767l125 164h46l-142 -164h-29z" />
    <glyph glyph-name="Ycircumflex" unicode="&#x176;" 
d="M269 -1l47 265l-150 436h43l130 -383h8l263 383h43l-302 -436l-46 -264zM423 903h46l97 -133h-45l-77 105h-4l-115 -105h-45z" />
    <glyph glyph-name="Ydieresis" unicode="&#x178;" 
d="M269 -1l47 265l-150 436h43l130 -383h8l263 383h43l-302 -436l-46 -264zM475 814q-8 9 -8 22q0 16 12.5 28.5t28.5 12.5q13 0 22 -9t9 -21q0 -16 -13 -29t-30 -13q-13 0 -21 9zM336 814q-8 9 -8 22q0 16 12.5 28.5t28.5 12.5q13 0 22 -9t9 -21q0 -16 -13 -29t-30 -13
q-13 0 -21 9z" />
    <glyph glyph-name="uni1EF4" unicode="&#x1ef4;" 
d="M269 -1l47 265l-150 436h43l130 -383h8l263 383h43l-302 -436l-46 -264zM229 -193q-9 9 -9 23q0 17 13 30t30 13q14 0 23.5 -9t9.5 -22q0 -17 -14 -30.5t-31 -13.5q-13 0 -22 9z" />
    <glyph glyph-name="Ygrave" unicode="&#x1ef2;" 
d="M269 -1l47 265l-150 436h43l130 -383h8l263 383h43l-302 -436l-46 -264zM321 931h46l67 -164h-29z" />
    <glyph glyph-name="uni1EF6" unicode="&#x1ef6;" 
d="M269 -1l47 265l-150 436h43l130 -383h8l263 383h43l-302 -436l-46 -264zM421 784.5q9 7.5 25 18.5q24 15 36 28t12 34q0 15 -11 25.5t-34 10.5q-22 0 -36 -9.5t-21 -23.5h-34q13 28 37 45.5t59 17.5q33 0 53 -16.5t20 -42.5q0 -28 -12 -42.5t-36 -31.5
q-14 -9 -21.5 -15.5t-12.5 -15.5h-38q5 10 14 17.5z" />
    <glyph glyph-name="uni1EF8" unicode="&#x1ef8;" 
d="M269 -1l47 265l-150 436h43l130 -383h8l263 383h43l-302 -436l-46 -264zM386 891q18 0 31 -5.5t29 -16.5q16 -10 26 -15t24 -5q38 0 66 42h38q-45 -73 -109 -73q-18 0 -31 5.5t-29 16.5q-15 10 -26 15t-25 5q-37 0 -65 -42h-38q45 73 109 73z" />
    <glyph glyph-name="Z" unicode="Z" horiz-adv-x="600" 
d="M65 35l532 628v2h-421l6 35h466l-6 -35l-531 -628l-1 -2h421l-6 -35h-466z" />
    <glyph glyph-name="Zacute" unicode="&#x179;" horiz-adv-x="600" 
d="M65 35l532 628v2h-421l6 35h466l-6 -35l-531 -628l-1 -2h421l-6 -35h-466zM424 767l125 164h46l-142 -164h-29z" />
    <glyph glyph-name="Zcaron" unicode="&#x17d;" horiz-adv-x="600" 
d="M65 35l532 628v2h-421l6 35h466l-6 -35l-531 -628l-1 -2h421l-6 -35h-466zM361 903l77 -105h4l115 105h45l-143 -133h-46l-97 133h45z" />
    <glyph glyph-name="Zdotaccent" unicode="&#x17b;" horiz-adv-x="600" 
d="M65 35l532 628v2h-421l6 35h466l-6 -35l-531 -628l-1 -2h421l-6 -35h-466zM419 814q-8 9 -8 22q0 16 12.5 28.5t28.5 12.5q13 0 22 -9t9 -21q0 -16 -13 -29t-30 -13q-13 0 -21 9z" />
    <glyph glyph-name="B.ss01" horiz-adv-x="615" 
d="M215 700h268q84 0 122.5 -36t38.5 -89q0 -9 -2 -25l-9 -51q-8 -42 -36.5 -72t-62 -45.5t-55.5 -18.5l-1 -4q22 -2 52 -12.5t55 -36.5t25 -69q0 -18 -2 -27l-9 -51q-13 -70 -69 -116.5t-160 -46.5h-278zM414 375q74 0 124 36t59 92l6 36q2 18 2 26q0 47 -31.5 74.5
t-95.5 27.5h-236l-52 -292h224zM376 35q166 0 187 134l6 38q2 18 2 27q0 50 -33 78.5t-102 28.5h-252l-54 -306h246z" />
    <glyph glyph-name="C.ss01" horiz-adv-x="699" 
d="M173 62.5q-63 67.5 -63 175.5q0 33 6 69l17 96q15 87 62 158t121 112.5t166 41.5q115 0 178 -62.5t61 -173.5h-36q0 94 -56.5 148t-155.5 54q-84 0 -148.5 -38t-104.5 -103.5t-54 -146.5l-13 -76q-6 -36 -6 -70q0 -99 52.5 -158.5t158.5 -59.5q97 0 165.5 46t104.5 130
h37q-39 -99 -120.5 -154.5t-189.5 -55.5q-119 0 -182 67.5z" />
    <glyph glyph-name="D.ss01" horiz-adv-x="677" 
d="M215 700h241q81 0 136.5 -31t83 -84.5t27.5 -121.5q0 -32 -6 -67l-17 -93q-15 -84 -61.5 -153t-120 -109.5t-165.5 -40.5h-241zM339 33q85 0 149.5 37t104.5 100.5t54 142.5l13 74q6 35 6 67q0 96 -54 154.5t-161 58.5h-207l-112 -634h207z" />
    <glyph glyph-name="Eth.ss01" horiz-adv-x="703" 
d="M664.5 634q63.5 -66 63.5 -173q0 -32 -6 -65l-16 -93q-15 -84 -61 -153t-120 -109.5t-166 -40.5h-241l60 342h-61l5 28h61l58 330h241q119 0 182.5 -66zM692 454q0 96 -54 154.5t-162 58.5h-207l-52 -297h166l-5 -28h-166l-54 -309h207q85 0 149.5 37t104.5 100.5
t54 142.5l13 74q6 35 6 67z" />
    <glyph glyph-name="Dcaron.ss01" horiz-adv-x="677" 
d="M215 700h241q81 0 136.5 -31t83 -84.5t27.5 -121.5q0 -32 -6 -67l-17 -93q-15 -84 -61.5 -153t-120 -109.5t-165.5 -40.5h-241zM339 33q85 0 149.5 37t104.5 100.5t54 142.5l13 74q6 35 6 67q0 96 -54 154.5t-161 58.5h-207l-112 -634h207zM364 903l77 -105h4l115 105h45
l-143 -133h-46l-97 133h45z" />
    <glyph glyph-name="Dcroat.ss01" horiz-adv-x="703" 
d="M664.5 634q63.5 -66 63.5 -173q0 -32 -6 -65l-16 -93q-15 -84 -61 -153t-120 -109.5t-166 -40.5h-241l60 342h-61l5 28h61l58 330h241q119 0 182.5 -66zM692 454q0 96 -54 154.5t-162 58.5h-207l-52 -297h166l-5 -28h-166l-54 -309h207q85 0 149.5 37t104.5 100.5
t54 142.5l13 74q6 35 6 67z" />
    <glyph glyph-name="G.ss01" horiz-adv-x="704" 
d="M172.5 62.5q-62.5 67.5 -62.5 175.5q0 33 6 69l17 96q15 87 62 158t120.5 112.5t165.5 41.5q116 0 179 -62.5t61 -173.5h-36q0 94 -56 148t-154 54q-85 0 -150 -38t-105 -103.5t-54 -146.5l-13 -76q-6 -36 -6 -71q0 -98 53 -157.5t160 -59.5q74 0 135 31t102.5 87
t56.5 130l8 39h-244l5 30h271l-61 -346h-34l23 129h-8q-36 -56 -103.5 -95t-156.5 -39q-119 0 -181.5 67.5z" />
    <glyph glyph-name="Gbreve.ss01" horiz-adv-x="704" 
d="M172.5 62.5q-62.5 67.5 -62.5 175.5q0 33 6 69l17 96q15 87 62 158t120.5 112.5t165.5 41.5q116 0 179 -62.5t61 -173.5h-36q0 94 -56 148t-154 54q-85 0 -150 -38t-105 -103.5t-54 -146.5l-13 -76q-6 -36 -6 -71q0 -98 53 -157.5t160 -59.5q74 0 135 31t102.5 87
t56.5 130l8 39h-244l5 30h271l-61 -346h-34l23 129h-8q-36 -56 -103.5 -95t-156.5 -39q-119 0 -181.5 67.5zM409 809q-33 21 -53 66h38q27 -57 105 -57q79 0 125 57h38q-37 -46 -76.5 -66.5t-91.5 -20.5t-85 21z" />
    <glyph glyph-name="Gdotaccent.ss01" horiz-adv-x="704" 
d="M172.5 62.5q-62.5 67.5 -62.5 175.5q0 33 6 69l17 96q15 87 62 158t120.5 112.5t165.5 41.5q116 0 179 -62.5t61 -173.5h-36q0 94 -56 148t-154 54q-85 0 -150 -38t-105 -103.5t-54 -146.5l-13 -76q-6 -36 -6 -71q0 -98 53 -157.5t160 -59.5q74 0 135 31t102.5 87
t56.5 130l8 39h-244l5 30h271l-61 -346h-34l23 129h-8q-36 -56 -103.5 -95t-156.5 -39q-119 0 -181.5 67.5zM474 814q-8 9 -8 22q0 16 12.5 28.5t28.5 12.5q13 0 22 -9t9 -21q0 -16 -13 -29t-30 -13q-13 0 -21 9z" />
    <glyph glyph-name="J.ss01" horiz-adv-x="477" 
d="M110 129q0 -58 33.5 -79t77.5 -21q52 0 96 28.5t59 109.5l94 533h35l-94 -533q-17 -97 -74.5 -134.5t-121.5 -37.5q-55 0 -97.5 28.5t-42.5 99.5q0 23 4 44h35q-4 -19 -4 -38z" />
    <glyph glyph-name="O.ss01" horiz-adv-x="712" 
d="M173 62.5q-63 67.5 -63 175.5q0 33 6 69l17 96q15 87 62 158t121 112.5t166 41.5q119 0 182 -67.5t63 -175.5q0 -33 -6 -69l-17 -96q-15 -87 -62 -158t-121 -112.5t-166 -41.5q-119 0 -182 67.5zM511.5 67q65.5 38 105.5 103.5t54 146.5l13 76q6 36 6 71q0 98 -53 157.5
t-161 59.5q-86 0 -151 -38t-105 -103.5t-54 -146.5l-13 -76q-6 -36 -6 -71q0 -98 53 -157.5t161 -59.5q85 0 150.5 38z" />
    <glyph glyph-name="Oacute.ss01" horiz-adv-x="712" 
d="M173 62.5q-63 67.5 -63 175.5q0 33 6 69l17 96q15 87 62 158t121 112.5t166 41.5q119 0 182 -67.5t63 -175.5q0 -33 -6 -69l-17 -96q-15 -87 -62 -158t-121 -112.5t-166 -41.5q-119 0 -182 67.5zM511.5 67q65.5 38 105.5 103.5t54 146.5l13 76q6 36 6 71q0 98 -53 157.5
t-161 59.5q-86 0 -151 -38t-105 -103.5t-54 -146.5l-13 -76q-6 -36 -6 -71q0 -98 53 -157.5t161 -59.5q85 0 150.5 38zM480 767l125 164h46l-142 -164h-29z" />
    <glyph glyph-name="Ocircumflex.ss01" horiz-adv-x="712" 
d="M173 62.5q-63 67.5 -63 175.5q0 33 6 69l17 96q15 87 62 158t121 112.5t166 41.5q119 0 182 -67.5t63 -175.5q0 -33 -6 -69l-17 -96q-15 -87 -62 -158t-121 -112.5t-166 -41.5q-119 0 -182 67.5zM511.5 67q65.5 38 105.5 103.5t54 146.5l13 76q6 36 6 71q0 98 -53 157.5
t-161 59.5q-86 0 -151 -38t-105 -103.5t-54 -146.5l-13 -76q-6 -36 -6 -71q0 -98 53 -157.5t161 -59.5q85 0 150.5 38zM491 903h46l97 -133h-45l-77 105h-4l-115 -105h-45z" />
    <glyph glyph-name="uni1ED0.ss01" horiz-adv-x="712" 
d="M173 62.5q-63 67.5 -63 175.5q0 33 6 69l17 96q15 87 62 158t121 112.5t166 41.5q119 0 182 -67.5t63 -175.5q0 -33 -6 -69l-17 -96q-15 -87 -62 -158t-121 -112.5t-166 -41.5q-119 0 -182 67.5zM511.5 67q65.5 38 105.5 103.5t54 146.5l13 76q6 36 6 71q0 98 -53 157.5
t-161 59.5q-86 0 -151 -38t-105 -103.5t-54 -146.5l-13 -76q-6 -36 -6 -71q0 -98 53 -157.5t161 -59.5q85 0 150.5 38zM491 903h46l97 -133h-45l-77 105h-4l-115 -105h-45zM621 890l125 164h46l-142 -164h-29z" />
    <glyph glyph-name="uni1ED8.ss01" horiz-adv-x="712" 
d="M173 62.5q-63 67.5 -63 175.5q0 33 6 69l17 96q15 87 62 158t121 112.5t166 41.5q119 0 182 -67.5t63 -175.5q0 -33 -6 -69l-17 -96q-15 -87 -62 -158t-121 -112.5t-166 -41.5q-119 0 -182 67.5zM511.5 67q65.5 38 105.5 103.5t54 146.5l13 76q6 36 6 71q0 98 -53 157.5
t-161 59.5q-86 0 -151 -38t-105 -103.5t-54 -146.5l-13 -76q-6 -36 -6 -71q0 -98 53 -157.5t161 -59.5q85 0 150.5 38zM297 -193q-9 9 -9 23q0 17 13 30t30 13q14 0 23.5 -9t9.5 -22q0 -17 -14 -30.5t-31 -13.5q-13 0 -22 9zM491 903h46l97 -133h-45l-77 105h-4l-115 -105
h-45z" />
    <glyph glyph-name="uni1ED2.ss01" horiz-adv-x="712" 
d="M173 62.5q-63 67.5 -63 175.5q0 33 6 69l17 96q15 87 62 158t121 112.5t166 41.5q119 0 182 -67.5t63 -175.5q0 -33 -6 -69l-17 -96q-15 -87 -62 -158t-121 -112.5t-166 -41.5q-119 0 -182 67.5zM511.5 67q65.5 38 105.5 103.5t54 146.5l13 76q6 36 6 71q0 98 -53 157.5
t-161 59.5q-86 0 -151 -38t-105 -103.5t-54 -146.5l-13 -76q-6 -36 -6 -71q0 -98 53 -157.5t161 -59.5q85 0 150.5 38zM491 903h46l97 -133h-45l-77 105h-4l-115 -105h-45zM530 1054h46l67 -164h-29z" />
    <glyph glyph-name="uni1ED4.ss01" horiz-adv-x="712" 
d="M173 62.5q-63 67.5 -63 175.5q0 33 6 69l17 96q15 87 62 158t121 112.5t166 41.5q119 0 182 -67.5t63 -175.5q0 -33 -6 -69l-17 -96q-15 -87 -62 -158t-121 -112.5t-166 -41.5q-119 0 -182 67.5zM511.5 67q65.5 38 105.5 103.5t54 146.5l13 76q6 36 6 71q0 98 -53 157.5
t-161 59.5q-86 0 -151 -38t-105 -103.5t-54 -146.5l-13 -76q-6 -36 -6 -71q0 -98 53 -157.5t161 -59.5q85 0 150.5 38zM491 903h46l97 -133h-45l-77 105h-4l-115 -105h-45zM630 907.5q9 7.5 25 18.5q24 15 36 28t12 34q0 15 -11 25.5t-34 10.5q-22 0 -36 -9.5t-21 -23.5h-34
q13 28 37 45.5t59 17.5q33 0 53 -16.5t20 -42.5q0 -28 -12 -42.5t-36 -31.5q-14 -9 -21.5 -15.5t-12.5 -15.5h-38q5 10 14 17.5z" />
    <glyph glyph-name="uni1ED6.ss01" horiz-adv-x="712" 
d="M173 62.5q-63 67.5 -63 175.5q0 33 6 69l17 96q15 87 62 158t121 112.5t166 41.5q119 0 182 -67.5t63 -175.5q0 -33 -6 -69l-17 -96q-15 -87 -62 -158t-121 -112.5t-166 -41.5q-119 0 -182 67.5zM511.5 67q65.5 38 105.5 103.5t54 146.5l13 76q6 36 6 71q0 98 -53 157.5
t-161 59.5q-86 0 -151 -38t-105 -103.5t-54 -146.5l-13 -76q-6 -36 -6 -71q0 -98 53 -157.5t161 -59.5q85 0 150.5 38zM491 903h46l97 -133h-45l-77 105h-4l-115 -105h-45zM457 1026q18 0 31 -5.5t29 -16.5q16 -10 26 -15t24 -5q38 0 66 42h38q-45 -73 -109 -73
q-18 0 -31 5.5t-29 16.5q-15 10 -26 15t-25 5q-37 0 -65 -42h-38q45 73 109 73z" />
    <glyph glyph-name="Odieresis.ss01" horiz-adv-x="712" 
d="M173 62.5q-63 67.5 -63 175.5q0 33 6 69l17 96q15 87 62 158t121 112.5t166 41.5q119 0 182 -67.5t63 -175.5q0 -33 -6 -69l-17 -96q-15 -87 -62 -158t-121 -112.5t-166 -41.5q-119 0 -182 67.5zM511.5 67q65.5 38 105.5 103.5t54 146.5l13 76q6 36 6 71q0 98 -53 157.5
t-161 59.5q-86 0 -151 -38t-105 -103.5t-54 -146.5l-13 -76q-6 -36 -6 -71q0 -98 53 -157.5t161 -59.5q85 0 150.5 38zM543 814q-8 9 -8 22q0 16 12.5 28.5t28.5 12.5q13 0 22 -9t9 -21q0 -16 -13 -29t-30 -13q-13 0 -21 9zM404 814q-8 9 -8 22q0 16 12.5 28.5t28.5 12.5
q13 0 22 -9t9 -21q0 -16 -13 -29t-30 -13q-13 0 -21 9z" />
    <glyph glyph-name="uni1ECC.ss01" horiz-adv-x="712" 
d="M173 62.5q-63 67.5 -63 175.5q0 33 6 69l17 96q15 87 62 158t121 112.5t166 41.5q119 0 182 -67.5t63 -175.5q0 -33 -6 -69l-17 -96q-15 -87 -62 -158t-121 -112.5t-166 -41.5q-119 0 -182 67.5zM511.5 67q65.5 38 105.5 103.5t54 146.5l13 76q6 36 6 71q0 98 -53 157.5
t-161 59.5q-86 0 -151 -38t-105 -103.5t-54 -146.5l-13 -76q-6 -36 -6 -71q0 -98 53 -157.5t161 -59.5q85 0 150.5 38zM297 -193q-9 9 -9 23q0 17 13 30t30 13q14 0 23.5 -9t9.5 -22q0 -17 -14 -30.5t-31 -13.5q-13 0 -22 9z" />
    <glyph glyph-name="Ograve.ss01" horiz-adv-x="712" 
d="M173 62.5q-63 67.5 -63 175.5q0 33 6 69l17 96q15 87 62 158t121 112.5t166 41.5q119 0 182 -67.5t63 -175.5q0 -33 -6 -69l-17 -96q-15 -87 -62 -158t-121 -112.5t-166 -41.5q-119 0 -182 67.5zM511.5 67q65.5 38 105.5 103.5t54 146.5l13 76q6 36 6 71q0 98 -53 157.5
t-161 59.5q-86 0 -151 -38t-105 -103.5t-54 -146.5l-13 -76q-6 -36 -6 -71q0 -98 53 -157.5t161 -59.5q85 0 150.5 38zM389 931h46l67 -164h-29z" />
    <glyph glyph-name="uni1ECE.ss01" horiz-adv-x="712" 
d="M173 62.5q-63 67.5 -63 175.5q0 33 6 69l17 96q15 87 62 158t121 112.5t166 41.5q119 0 182 -67.5t63 -175.5q0 -33 -6 -69l-17 -96q-15 -87 -62 -158t-121 -112.5t-166 -41.5q-119 0 -182 67.5zM511.5 67q65.5 38 105.5 103.5t54 146.5l13 76q6 36 6 71q0 98 -53 157.5
t-161 59.5q-86 0 -151 -38t-105 -103.5t-54 -146.5l-13 -76q-6 -36 -6 -71q0 -98 53 -157.5t161 -59.5q85 0 150.5 38zM489 784.5q9 7.5 25 18.5q24 15 36 28t12 34q0 15 -11 25.5t-34 10.5q-22 0 -36 -9.5t-21 -23.5h-34q13 28 37 45.5t59 17.5q33 0 53 -16.5t20 -42.5
q0 -28 -12 -42.5t-36 -31.5q-14 -9 -21.5 -15.5t-12.5 -15.5h-38q5 10 14 17.5z" />
    <glyph glyph-name="Ohorn.ss01" horiz-adv-x="712" 
d="M638 670q44 -32 66.5 -82.5t22.5 -114.5q0 -34 -6 -70l-17 -96q-15 -87 -62 -158t-121 -112.5t-166 -41.5q-119 0 -182 67.5t-63 175.5q0 33 6 69l17 96q15 87 62 158t121 112.5t166 41.5q58 0 100 -16v1h52q24 0 36.5 12t19.5 51l3 16h39l-3 -16q-17 -91 -91 -93z
M690 464q0 98 -53 157.5t-161 59.5q-86 0 -151 -38t-105 -103.5t-54 -146.5l-13 -76q-6 -36 -6 -71q0 -98 53 -157.5t161 -59.5q85 0 150.5 38t105.5 103.5t54 146.5l13 76q6 36 6 71z" />
    <glyph glyph-name="uni1EDA.ss01" horiz-adv-x="712" 
d="M638 670q44 -32 66.5 -82.5t22.5 -114.5q0 -34 -6 -70l-17 -96q-15 -87 -62 -158t-121 -112.5t-166 -41.5q-119 0 -182 67.5t-63 175.5q0 33 6 69l17 96q15 87 62 158t121 112.5t166 41.5q58 0 100 -16v1h52q24 0 36.5 12t19.5 51l3 16h39l-3 -16q-17 -91 -91 -93z
M690 464q0 98 -53 157.5t-161 59.5q-86 0 -151 -38t-105 -103.5t-54 -146.5l-13 -76q-6 -36 -6 -71q0 -98 53 -157.5t161 -59.5q85 0 150.5 38t105.5 103.5t54 146.5l13 76q6 36 6 71zM480 767l125 164h46l-142 -164h-29z" />
    <glyph glyph-name="uni1EE2.ss01" horiz-adv-x="712" 
d="M638 670q44 -32 66.5 -82.5t22.5 -114.5q0 -34 -6 -70l-17 -96q-15 -87 -62 -158t-121 -112.5t-166 -41.5q-119 0 -182 67.5t-63 175.5q0 33 6 69l17 96q15 87 62 158t121 112.5t166 41.5q58 0 100 -16v1h52q24 0 36.5 12t19.5 51l3 16h39l-3 -16q-17 -91 -91 -93z
M690 464q0 98 -53 157.5t-161 59.5q-86 0 -151 -38t-105 -103.5t-54 -146.5l-13 -76q-6 -36 -6 -71q0 -98 53 -157.5t161 -59.5q85 0 150.5 38t105.5 103.5t54 146.5l13 76q6 36 6 71zM297 -193q-9 9 -9 23q0 17 13 30t30 13q14 0 23.5 -9t9.5 -22q0 -17 -14 -30.5
t-31 -13.5q-13 0 -22 9z" />
    <glyph glyph-name="uni1EDC.ss01" horiz-adv-x="712" 
d="M638 670q44 -32 66.5 -82.5t22.5 -114.5q0 -34 -6 -70l-17 -96q-15 -87 -62 -158t-121 -112.5t-166 -41.5q-119 0 -182 67.5t-63 175.5q0 33 6 69l17 96q15 87 62 158t121 112.5t166 41.5q58 0 100 -16v1h52q24 0 36.5 12t19.5 51l3 16h39l-3 -16q-17 -91 -91 -93z
M690 464q0 98 -53 157.5t-161 59.5q-86 0 -151 -38t-105 -103.5t-54 -146.5l-13 -76q-6 -36 -6 -71q0 -98 53 -157.5t161 -59.5q85 0 150.5 38t105.5 103.5t54 146.5l13 76q6 36 6 71zM389 931h46l67 -164h-29z" />
    <glyph glyph-name="uni1EDE.ss01" horiz-adv-x="712" 
d="M638 670q44 -32 66.5 -82.5t22.5 -114.5q0 -34 -6 -70l-17 -96q-15 -87 -62 -158t-121 -112.5t-166 -41.5q-119 0 -182 67.5t-63 175.5q0 33 6 69l17 96q15 87 62 158t121 112.5t166 41.5q58 0 100 -16v1h52q24 0 36.5 12t19.5 51l3 16h39l-3 -16q-17 -91 -91 -93z
M690 464q0 98 -53 157.5t-161 59.5q-86 0 -151 -38t-105 -103.5t-54 -146.5l-13 -76q-6 -36 -6 -71q0 -98 53 -157.5t161 -59.5q85 0 150.5 38t105.5 103.5t54 146.5l13 76q6 36 6 71zM489 784.5q9 7.5 25 18.5q24 15 36 28t12 34q0 15 -11 25.5t-34 10.5q-22 0 -36 -9.5
t-21 -23.5h-34q13 28 37 45.5t59 17.5q33 0 53 -16.5t20 -42.5q0 -28 -12 -42.5t-36 -31.5q-14 -9 -21.5 -15.5t-12.5 -15.5h-38q5 10 14 17.5z" />
    <glyph glyph-name="uni1EE0.ss01" horiz-adv-x="712" 
d="M638 670q44 -32 66.5 -82.5t22.5 -114.5q0 -34 -6 -70l-17 -96q-15 -87 -62 -158t-121 -112.5t-166 -41.5q-119 0 -182 67.5t-63 175.5q0 33 6 69l17 96q15 87 62 158t121 112.5t166 41.5q58 0 100 -16v1h52q24 0 36.5 12t19.5 51l3 16h39l-3 -16q-17 -91 -91 -93z
M690 464q0 98 -53 157.5t-161 59.5q-86 0 -151 -38t-105 -103.5t-54 -146.5l-13 -76q-6 -36 -6 -71q0 -98 53 -157.5t161 -59.5q85 0 150.5 38t105.5 103.5t54 146.5l13 76q6 36 6 71zM454 891q18 0 31 -5.5t29 -16.5q16 -10 26 -15t24 -5q38 0 66 42h38q-45 -73 -109 -73
q-18 0 -31 5.5t-29 16.5q-15 10 -26 15t-25 5q-37 0 -65 -42h-38q45 73 109 73z" />
    <glyph glyph-name="Omacron.ss01" horiz-adv-x="712" 
d="M173 62.5q-63 67.5 -63 175.5q0 33 6 69l17 96q15 87 62 158t121 112.5t166 41.5q119 0 182 -67.5t63 -175.5q0 -33 -6 -69l-17 -96q-15 -87 -62 -158t-121 -112.5t-166 -41.5q-119 0 -182 67.5zM511.5 67q65.5 38 105.5 103.5t54 146.5l13 76q6 36 6 71q0 98 -53 157.5
t-161 59.5q-86 0 -151 -38t-105 -103.5t-54 -146.5l-13 -76q-6 -36 -6 -71q0 -98 53 -157.5t161 -59.5q85 0 150.5 38zM363 836h280l-5 -26h-280z" />
    <glyph glyph-name="Oslash.ss01" horiz-adv-x="710" 
d="M680 628q46 -62 46 -157q0 -33 -6 -68l-17 -96q-15 -87 -62 -158t-121 -112.5t-166 -41.5q-95 0 -156 44l-67 -82h-37l82 101q-33 33 -50 78.5t-17 100.5q0 34 6 70l17 96q15 87 62 158t121 112.5t166 41.5q115 0 180 -65l76 93h37zM146 247q0 -103 54 -160l437 534
q-57 60 -162 60q-86 0 -151 -38t-105 -103.5t-54 -146.5l-13 -76q-6 -36 -6 -70zM690 465q0 77 -35 132l-433 -529q53 -39 138 -39t150.5 38t105.5 103.5t54 146.5l13 76q7 44 7 72z" />
    <glyph glyph-name="Otilde.ss01" horiz-adv-x="712" 
d="M173 62.5q-63 67.5 -63 175.5q0 33 6 69l17 96q15 87 62 158t121 112.5t166 41.5q119 0 182 -67.5t63 -175.5q0 -33 -6 -69l-17 -96q-15 -87 -62 -158t-121 -112.5t-166 -41.5q-119 0 -182 67.5zM511.5 67q65.5 38 105.5 103.5t54 146.5l13 76q6 36 6 71q0 98 -53 157.5
t-161 59.5q-86 0 -151 -38t-105 -103.5t-54 -146.5l-13 -76q-6 -36 -6 -71q0 -98 53 -157.5t161 -59.5q85 0 150.5 38zM454 891q18 0 31 -5.5t29 -16.5q16 -10 26 -15t24 -5q38 0 66 42h38q-45 -73 -109 -73q-18 0 -31 5.5t-29 16.5q-15 10 -26 15t-25 5q-37 0 -65 -42h-38
q45 73 109 73z" />
    <glyph glyph-name="OE.ss01" horiz-adv-x="939" 
d="M208.5 31q-55.5 31 -83.5 85t-28 123q0 31 6 64l16 93q15 85 61.5 154t120 109.5t166.5 40.5h516l-6 -34h-366l-51 -291h331l-6 -32h-331l-54 -309h366l-6 -34h-516q-80 0 -135.5 31zM465 33l112 634h-116q-85 0 -149.5 -37t-104.5 -100.5t-54 -142.5l-13 -74
q-6 -34 -6 -67q0 -96 54 -154.5t161 -58.5h116z" />
    <glyph glyph-name="P.ss01" horiz-adv-x="579" 
d="M580 658q51 -42 51 -113q0 -13 -4 -39l-16 -93q-14 -86 -82.5 -139.5t-186.5 -53.5h-179l-39 -220h-32l123 700h211q103 0 154 -42zM595 539q0 58 -41.5 93t-132.5 35h-177l-73 -414h177q103 0 159.5 45t68.5 115l16 93q3 17 3 33z" />
    <glyph glyph-name="Q.ss01" horiz-adv-x="712" 
d="M664 647.5q63 -67.5 63 -175.5q0 -33 -6 -69l-17 -96q-14 -77 -52 -141.5t-96 -106.5l82 -126h-44l-69 106q-77 -44 -170 -44q-119 0 -182 67.5t-63 175.5q0 33 6 69l17 96q15 87 62 158t121 112.5t166 41.5q119 0 182 -67.5zM690 464q0 98 -53 157.5t-161 59.5
q-86 0 -151 -38t-105 -103.5t-54 -146.5l-13 -76q-6 -36 -6 -71q0 -98 53 -157.5t161 -59.5q83 0 147 36l-128 198h44l115 -178q52 39 86 99t46 133l13 76q6 36 6 71z" />
    <glyph glyph-name="R.ss01" horiz-adv-x="599" 
d="M586.5 663q47.5 -37 47.5 -101q0 -16 -3 -34l-14 -82q-12 -72 -70 -118.5t-163 -51.5l157 -276h-44l-156 275h-169l-48 -275h-32l48 275l75 425h220q104 0 151.5 -37zM599 557q0 51 -39.5 81.5t-129.5 30.5h-186l-64 -363h186q102 0 153.5 38.5t62.5 101.5l14 82
q3 15 3 29z" />
    <glyph glyph-name="G.ss02" horiz-adv-x="701" 
d="M178 73.5q-61 78.5 -61 196.5q0 119 49 221t136 163t197 61q112 0 170 -60.5t68 -149.5h-37q-9 82 -60 128.5t-147 46.5q-95 0 -172.5 -54t-122.5 -148t-45 -207t60 -177t165 -64q109 0 188 60.5t101 186.5l10 57h-244l5 30h277l-15 -87q-15 -87 -61.5 -151t-115.5 -97.5
t-151 -33.5q-133 0 -194 78.5z" />
    <glyph glyph-name="a" unicode="a" horiz-adv-x="609" 
d="M134.5 53.5q-49.5 58.5 -49.5 150.5q0 91 39.5 169t106 123.5t145.5 45.5q72 0 114 -36.5t59 -92.5h7l20 112h34l-92 -525h-34l22 125h-7q-40 -59 -95.5 -94.5t-127.5 -35.5q-92 0 -141.5 58.5zM410 70.5q57 39.5 89.5 107.5t32.5 151q0 80 -41.5 128.5t-121.5 48.5
q-69 0 -126 -39.5t-89.5 -108t-32.5 -151.5q0 -79 41.5 -127.5t122.5 -48.5q68 0 125 39.5z" />
    <glyph glyph-name="aacute" unicode="&#xe1;" horiz-adv-x="609" 
d="M134.5 53.5q-49.5 58.5 -49.5 150.5q0 91 39.5 169t106 123.5t145.5 45.5q72 0 114 -36.5t59 -92.5h7l20 112h34l-92 -525h-34l22 125h-7q-40 -59 -95.5 -94.5t-127.5 -35.5q-92 0 -141.5 58.5zM410 70.5q57 39.5 89.5 107.5t32.5 151q0 80 -41.5 128.5t-121.5 48.5
q-69 0 -126 -39.5t-89.5 -108t-32.5 -151.5q0 -79 41.5 -127.5t122.5 -48.5q68 0 125 39.5zM384 592l125 164h46l-142 -164h-29z" />
    <glyph glyph-name="abreve" unicode="&#x103;" horiz-adv-x="609" 
d="M134.5 53.5q-49.5 58.5 -49.5 150.5q0 91 39.5 169t106 123.5t145.5 45.5q72 0 114 -36.5t59 -92.5h7l20 112h34l-92 -525h-34l22 125h-7q-40 -59 -95.5 -94.5t-127.5 -35.5q-92 0 -141.5 58.5zM410 70.5q57 39.5 89.5 107.5t32.5 151q0 80 -41.5 128.5t-121.5 48.5
q-69 0 -126 -39.5t-89.5 -108t-32.5 -151.5q0 -79 41.5 -127.5t122.5 -48.5q68 0 125 39.5zM314 634q-33 21 -53 66h38q27 -57 105 -57q79 0 125 57h38q-37 -46 -76.5 -66.5t-91.5 -20.5t-85 21z" />
    <glyph glyph-name="uni1EAF" unicode="&#x1eaf;" horiz-adv-x="609" 
d="M134.5 53.5q-49.5 58.5 -49.5 150.5q0 91 39.5 169t106 123.5t145.5 45.5q72 0 114 -36.5t59 -92.5h7l20 112h34l-92 -525h-34l22 125h-7q-40 -59 -95.5 -94.5t-127.5 -35.5q-92 0 -141.5 58.5zM410 70.5q57 39.5 89.5 107.5t32.5 151q0 80 -41.5 128.5t-121.5 48.5
q-69 0 -126 -39.5t-89.5 -108t-32.5 -151.5q0 -79 41.5 -127.5t122.5 -48.5q68 0 125 39.5zM313 634q-33 21 -53 66h38q27 -57 105 -57q79 0 125 57h38q-37 -46 -76.5 -66.5t-91.5 -20.5t-85 21zM404 710l125 164h46l-142 -164h-29z" />
    <glyph glyph-name="uni1EB7" unicode="&#x1eb7;" horiz-adv-x="609" 
d="M134.5 53.5q-49.5 58.5 -49.5 150.5q0 91 39.5 169t106 123.5t145.5 45.5q72 0 114 -36.5t59 -92.5h7l20 112h34l-92 -525h-34l22 125h-7q-40 -59 -95.5 -94.5t-127.5 -35.5q-92 0 -141.5 58.5zM410 70.5q57 39.5 89.5 107.5t32.5 151q0 80 -41.5 128.5t-121.5 48.5
q-69 0 -126 -39.5t-89.5 -108t-32.5 -151.5q0 -79 41.5 -127.5t122.5 -48.5q68 0 125 39.5zM314 634q-33 21 -53 66h38q27 -57 105 -57q79 0 125 57h38q-37 -46 -76.5 -66.5t-91.5 -20.5t-85 21zM239 -193q-9 9 -9 23q0 17 13 30t30 13q14 0 23.5 -9t9.5 -22
q0 -17 -14 -30.5t-31 -13.5q-13 0 -22 9z" />
    <glyph glyph-name="uni1EB1" unicode="&#x1eb1;" horiz-adv-x="609" 
d="M134.5 53.5q-49.5 58.5 -49.5 150.5q0 91 39.5 169t106 123.5t145.5 45.5q72 0 114 -36.5t59 -92.5h7l20 112h34l-92 -525h-34l22 125h-7q-40 -59 -95.5 -94.5t-127.5 -35.5q-92 0 -141.5 58.5zM410 70.5q57 39.5 89.5 107.5t32.5 151q0 80 -41.5 128.5t-121.5 48.5
q-69 0 -126 -39.5t-89.5 -108t-32.5 -151.5q0 -79 41.5 -127.5t122.5 -48.5q68 0 125 39.5zM313 634q-33 21 -53 66h38q27 -57 105 -57q79 0 125 57h38q-37 -46 -76.5 -66.5t-91.5 -20.5t-85 21zM313 874h46l67 -164h-29z" />
    <glyph glyph-name="uni1EB3" unicode="&#x1eb3;" horiz-adv-x="609" 
d="M134.5 53.5q-49.5 58.5 -49.5 150.5q0 91 39.5 169t106 123.5t145.5 45.5q72 0 114 -36.5t59 -92.5h7l20 112h34l-92 -525h-34l22 125h-7q-40 -59 -95.5 -94.5t-127.5 -35.5q-92 0 -141.5 58.5zM410 70.5q57 39.5 89.5 107.5t32.5 151q0 80 -41.5 128.5t-121.5 48.5
q-69 0 -126 -39.5t-89.5 -108t-32.5 -151.5q0 -79 41.5 -127.5t122.5 -48.5q68 0 125 39.5zM313 634q-33 21 -53 66h38q27 -57 105 -57q79 0 125 57h38q-37 -46 -76.5 -66.5t-91.5 -20.5t-85 21zM413 727.5q9 7.5 25 18.5q24 15 36 28t12 34q0 15 -11 25.5t-34 10.5
q-22 0 -36 -9.5t-21 -23.5h-34q13 28 37 45.5t59 17.5q33 0 53 -16.5t20 -42.5q0 -28 -12 -42.5t-36 -31.5q-14 -9 -21.5 -15.5t-12.5 -15.5h-38q5 10 14 17.5z" />
    <glyph glyph-name="uni1EB5" unicode="&#x1eb5;" horiz-adv-x="609" 
d="M134.5 53.5q-49.5 58.5 -49.5 150.5q0 91 39.5 169t106 123.5t145.5 45.5q72 0 114 -36.5t59 -92.5h7l20 112h34l-92 -525h-34l22 125h-7q-40 -59 -95.5 -94.5t-127.5 -35.5q-92 0 -141.5 58.5zM410 70.5q57 39.5 89.5 107.5t32.5 151q0 80 -41.5 128.5t-121.5 48.5
q-69 0 -126 -39.5t-89.5 -108t-32.5 -151.5q0 -79 41.5 -127.5t122.5 -48.5q68 0 125 39.5zM313 634q-33 21 -53 66h38q27 -57 105 -57q79 0 125 57h38q-37 -46 -76.5 -66.5t-91.5 -20.5t-85 21zM378 834q18 0 31 -5.5t29 -16.5q16 -10 26 -15t24 -5q38 0 66 42h38
q-45 -73 -109 -73q-18 0 -31 5.5t-29 16.5q-15 10 -26 15t-25 5q-37 0 -65 -42h-38q45 73 109 73z" />
    <glyph glyph-name="acircumflex" unicode="&#xe2;" horiz-adv-x="609" 
d="M134.5 53.5q-49.5 58.5 -49.5 150.5q0 91 39.5 169t106 123.5t145.5 45.5q72 0 114 -36.5t59 -92.5h7l20 112h34l-92 -525h-34l22 125h-7q-40 -59 -95.5 -94.5t-127.5 -35.5q-92 0 -141.5 58.5zM410 70.5q57 39.5 89.5 107.5t32.5 151q0 80 -41.5 128.5t-121.5 48.5
q-69 0 -126 -39.5t-89.5 -108t-32.5 -151.5q0 -79 41.5 -127.5t122.5 -48.5q68 0 125 39.5zM395 728h46l97 -133h-45l-77 105h-4l-115 -105h-45z" />
    <glyph glyph-name="uni1EA5" unicode="&#x1ea5;" horiz-adv-x="609" 
d="M134.5 53.5q-49.5 58.5 -49.5 150.5q0 91 39.5 169t106 123.5t145.5 45.5q72 0 114 -36.5t59 -92.5h7l20 112h34l-92 -525h-34l22 125h-7q-40 -59 -95.5 -94.5t-127.5 -35.5q-92 0 -141.5 58.5zM410 70.5q57 39.5 89.5 107.5t32.5 151q0 80 -41.5 128.5t-121.5 48.5
q-69 0 -126 -39.5t-89.5 -108t-32.5 -151.5q0 -79 41.5 -127.5t122.5 -48.5q68 0 125 39.5zM395 728h46l97 -133h-45l-77 105h-4l-115 -105h-45zM525 715l125 164h46l-142 -164h-29z" />
    <glyph glyph-name="uni1EAD" unicode="&#x1ead;" horiz-adv-x="609" 
d="M134.5 53.5q-49.5 58.5 -49.5 150.5q0 91 39.5 169t106 123.5t145.5 45.5q72 0 114 -36.5t59 -92.5h7l20 112h34l-92 -525h-34l22 125h-7q-40 -59 -95.5 -94.5t-127.5 -35.5q-92 0 -141.5 58.5zM410 70.5q57 39.5 89.5 107.5t32.5 151q0 80 -41.5 128.5t-121.5 48.5
q-69 0 -126 -39.5t-89.5 -108t-32.5 -151.5q0 -79 41.5 -127.5t122.5 -48.5q68 0 125 39.5zM395 728h46l97 -133h-45l-77 105h-4l-115 -105h-45zM239 -193q-9 9 -9 23q0 17 13 30t30 13q14 0 23.5 -9t9.5 -22q0 -17 -14 -30.5t-31 -13.5q-13 0 -22 9z" />
    <glyph glyph-name="uni1EA7" unicode="&#x1ea7;" horiz-adv-x="609" 
d="M134.5 53.5q-49.5 58.5 -49.5 150.5q0 91 39.5 169t106 123.5t145.5 45.5q72 0 114 -36.5t59 -92.5h7l20 112h34l-92 -525h-34l22 125h-7q-40 -59 -95.5 -94.5t-127.5 -35.5q-92 0 -141.5 58.5zM410 70.5q57 39.5 89.5 107.5t32.5 151q0 80 -41.5 128.5t-121.5 48.5
q-69 0 -126 -39.5t-89.5 -108t-32.5 -151.5q0 -79 41.5 -127.5t122.5 -48.5q68 0 125 39.5zM395 728h46l97 -133h-45l-77 105h-4l-115 -105h-45zM434 879h46l67 -164h-29z" />
    <glyph glyph-name="uni1EA9" unicode="&#x1ea9;" horiz-adv-x="609" 
d="M134.5 53.5q-49.5 58.5 -49.5 150.5q0 91 39.5 169t106 123.5t145.5 45.5q72 0 114 -36.5t59 -92.5h7l20 112h34l-92 -525h-34l22 125h-7q-40 -59 -95.5 -94.5t-127.5 -35.5q-92 0 -141.5 58.5zM410 70.5q57 39.5 89.5 107.5t32.5 151q0 80 -41.5 128.5t-121.5 48.5
q-69 0 -126 -39.5t-89.5 -108t-32.5 -151.5q0 -79 41.5 -127.5t122.5 -48.5q68 0 125 39.5zM395 728h46l97 -133h-45l-77 105h-4l-115 -105h-45zM534 732.5q9 7.5 25 18.5q24 15 36 28t12 34q0 15 -11 25.5t-34 10.5q-22 0 -36 -9.5t-21 -23.5h-34q13 28 37 45.5t59 17.5
q33 0 53 -16.5t20 -42.5q0 -28 -12 -42.5t-36 -31.5q-14 -9 -21.5 -15.5t-12.5 -15.5h-38q5 10 14 17.5z" />
    <glyph glyph-name="uni1EAB" unicode="&#x1eab;" horiz-adv-x="609" 
d="M134.5 53.5q-49.5 58.5 -49.5 150.5q0 91 39.5 169t106 123.5t145.5 45.5q72 0 114 -36.5t59 -92.5h7l20 112h34l-92 -525h-34l22 125h-7q-40 -59 -95.5 -94.5t-127.5 -35.5q-92 0 -141.5 58.5zM410 70.5q57 39.5 89.5 107.5t32.5 151q0 80 -41.5 128.5t-121.5 48.5
q-69 0 -126 -39.5t-89.5 -108t-32.5 -151.5q0 -79 41.5 -127.5t122.5 -48.5q68 0 125 39.5zM395 728h46l97 -133h-45l-77 105h-4l-115 -105h-45zM361 851q18 0 31 -5.5t29 -16.5q16 -10 26 -15t24 -5q38 0 66 42h38q-45 -73 -109 -73q-18 0 -31 5.5t-29 16.5q-15 10 -26 15
t-25 5q-37 0 -65 -42h-38q45 73 109 73z" />
    <glyph glyph-name="adieresis" unicode="&#xe4;" horiz-adv-x="609" 
d="M134.5 53.5q-49.5 58.5 -49.5 150.5q0 91 39.5 169t106 123.5t145.5 45.5q72 0 114 -36.5t59 -92.5h7l20 112h34l-92 -525h-34l22 125h-7q-40 -59 -95.5 -94.5t-127.5 -35.5q-92 0 -141.5 58.5zM410 70.5q57 39.5 89.5 107.5t32.5 151q0 80 -41.5 128.5t-121.5 48.5
q-69 0 -126 -39.5t-89.5 -108t-32.5 -151.5q0 -79 41.5 -127.5t122.5 -48.5q68 0 125 39.5zM447 639q-8 9 -8 22q0 16 12.5 28.5t28.5 12.5q13 0 22 -9t9 -21q0 -16 -13 -29t-30 -13q-13 0 -21 9zM308 639q-8 9 -8 22q0 16 12.5 28.5t28.5 12.5q13 0 22 -9t9 -21
q0 -16 -13 -29t-30 -13q-13 0 -21 9z" />
    <glyph glyph-name="uni1EA1" unicode="&#x1ea1;" horiz-adv-x="609" 
d="M134.5 53.5q-49.5 58.5 -49.5 150.5q0 91 39.5 169t106 123.5t145.5 45.5q72 0 114 -36.5t59 -92.5h7l20 112h34l-92 -525h-34l22 125h-7q-40 -59 -95.5 -94.5t-127.5 -35.5q-92 0 -141.5 58.5zM410 70.5q57 39.5 89.5 107.5t32.5 151q0 80 -41.5 128.5t-121.5 48.5
q-69 0 -126 -39.5t-89.5 -108t-32.5 -151.5q0 -79 41.5 -127.5t122.5 -48.5q68 0 125 39.5zM239 -193q-9 9 -9 23q0 17 13 30t30 13q14 0 23.5 -9t9.5 -22q0 -17 -14 -30.5t-31 -13.5q-13 0 -22 9z" />
    <glyph glyph-name="agrave" unicode="&#xe0;" horiz-adv-x="609" 
d="M134.5 53.5q-49.5 58.5 -49.5 150.5q0 91 39.5 169t106 123.5t145.5 45.5q72 0 114 -36.5t59 -92.5h7l20 112h34l-92 -525h-34l22 125h-7q-40 -59 -95.5 -94.5t-127.5 -35.5q-92 0 -141.5 58.5zM410 70.5q57 39.5 89.5 107.5t32.5 151q0 80 -41.5 128.5t-121.5 48.5
q-69 0 -126 -39.5t-89.5 -108t-32.5 -151.5q0 -79 41.5 -127.5t122.5 -48.5q68 0 125 39.5zM293 756h46l67 -164h-29z" />
    <glyph glyph-name="uni1EA3" unicode="&#x1ea3;" horiz-adv-x="609" 
d="M134.5 53.5q-49.5 58.5 -49.5 150.5q0 91 39.5 169t106 123.5t145.5 45.5q72 0 114 -36.5t59 -92.5h7l20 112h34l-92 -525h-34l22 125h-7q-40 -59 -95.5 -94.5t-127.5 -35.5q-92 0 -141.5 58.5zM410 70.5q57 39.5 89.5 107.5t32.5 151q0 80 -41.5 128.5t-121.5 48.5
q-69 0 -126 -39.5t-89.5 -108t-32.5 -151.5q0 -79 41.5 -127.5t122.5 -48.5q68 0 125 39.5zM393 609.5q9 7.5 25 18.5q24 15 36 28t12 34q0 15 -11 25.5t-34 10.5q-22 0 -36 -9.5t-21 -23.5h-34q13 28 37 45.5t59 17.5q33 0 53 -16.5t20 -42.5q0 -28 -12 -42.5t-36 -31.5
q-14 -9 -21.5 -15.5t-12.5 -15.5h-38q5 10 14 17.5z" />
    <glyph glyph-name="amacron" unicode="&#x101;" horiz-adv-x="609" 
d="M134.5 53.5q-49.5 58.5 -49.5 150.5q0 91 39.5 169t106 123.5t145.5 45.5q72 0 114 -36.5t59 -92.5h7l20 112h34l-92 -525h-34l22 125h-7q-40 -59 -95.5 -94.5t-127.5 -35.5q-92 0 -141.5 58.5zM410 70.5q57 39.5 89.5 107.5t32.5 151q0 80 -41.5 128.5t-121.5 48.5
q-69 0 -126 -39.5t-89.5 -108t-32.5 -151.5q0 -79 41.5 -127.5t122.5 -48.5q68 0 125 39.5zM267 661h280l-5 -26h-280z" />
    <glyph glyph-name="aogonek" unicode="&#x105;" horiz-adv-x="609" 
d="M456.5 -109.5q11.5 -10.5 37.5 -10.5q15 0 41 4l-5 -28q-22 -5 -46 -5q-33 0 -52.5 16t-19.5 43q0 58 74 101l20 114h-7q-40 -59 -95.5 -94.5t-127.5 -35.5q-92 0 -141.5 58.5t-49.5 150.5q0 91 39.5 169t106 123.5t145.5 45.5q72 0 114 -36.5t59 -92.5h7l20 112h34
l-92 -525h-1q-32 -19 -52 -38t-20 -46q0 -15 11.5 -25.5zM410 70.5q57 39.5 89.5 107.5t32.5 151q0 80 -41.5 128.5t-121.5 48.5q-69 0 -126 -39.5t-89.5 -108t-32.5 -151.5q0 -79 41.5 -127.5t122.5 -48.5q68 0 125 39.5z" />
    <glyph glyph-name="aring" unicode="&#xe5;" horiz-adv-x="609" 
d="M134.5 53.5q-49.5 58.5 -49.5 150.5q0 91 39.5 169t106 123.5t145.5 45.5q72 0 114 -36.5t59 -92.5h7l20 112h34l-92 -525h-34l22 125h-7q-40 -59 -95.5 -94.5t-127.5 -35.5q-92 0 -141.5 58.5zM410 70.5q57 39.5 89.5 107.5t32.5 151q0 80 -41.5 128.5t-121.5 48.5
q-69 0 -126 -39.5t-89.5 -108t-32.5 -151.5q0 -79 41.5 -127.5t122.5 -48.5q68 0 125 39.5zM355 642q-18 18 -18 45q0 34 27.5 61t61.5 27q28 0 46 -18t18 -44q0 -35 -27.5 -62t-62.5 -27q-27 0 -45 18zM447.5 666q19.5 19 19.5 43q0 18 -13 30.5t-32 12.5q-24 0 -43 -18.5
t-19 -42.5q0 -19 12.5 -31.5t31.5 -12.5q24 0 43.5 19z" />
    <glyph glyph-name="atilde" unicode="&#xe3;" horiz-adv-x="609" 
d="M134.5 53.5q-49.5 58.5 -49.5 150.5q0 91 39.5 169t106 123.5t145.5 45.5q72 0 114 -36.5t59 -92.5h7l20 112h34l-92 -525h-34l22 125h-7q-40 -59 -95.5 -94.5t-127.5 -35.5q-92 0 -141.5 58.5zM410 70.5q57 39.5 89.5 107.5t32.5 151q0 80 -41.5 128.5t-121.5 48.5
q-69 0 -126 -39.5t-89.5 -108t-32.5 -151.5q0 -79 41.5 -127.5t122.5 -48.5q68 0 125 39.5zM358 716q18 0 31 -5.5t29 -16.5q16 -10 26 -15t24 -5q38 0 66 42h38q-45 -73 -109 -73q-18 0 -31 5.5t-29 16.5q-15 10 -26 15t-25 5q-37 0 -65 -42h-38q45 73 109 73z" />
    <glyph glyph-name="ae" unicode="&#xe6;" horiz-adv-x="971" 
d="M125.5 28q-42.5 33 -42.5 91q0 95 71.5 132.5t174.5 37.5h161l10 53q3 24 3 31q0 51 -31.5 91t-112.5 40q-76 0 -122 -35.5t-65 -82.5h-35q27 71 89.5 111t140.5 40q74 0 119 -38.5t47 -112.5h4q37 72 101 114t141 42q105 0 144.5 -59.5t39.5 -140.5q0 -40 -7 -75l-2 -10
h-430l-1 -7q-3 -19 -3 -39q0 -79 45 -130.5t124 -51.5q65 0 117 33t86 92h35q-34 -68 -96 -113.5t-148 -45.5q-80 0 -129.5 42.5t-60.5 110.5h-4q-41 -76 -108 -114.5t-142 -38.5q-71 0 -113.5 33zM922 289q4 27 4 55q0 87 -41.5 125t-111.5 38q-91 0 -156 -61t-87 -157h392
zM357.5 57.5q49.5 24.5 79.5 62.5t37 80l10 57h-160q-78 0 -141 -24t-63 -109q0 -44 33.5 -67.5t92.5 -23.5q62 0 111.5 24.5z" />
    <glyph glyph-name="b" unicode="b" horiz-adv-x="628" 
d="M216 30.5q-43 35.5 -62 94.5h-7l-22 -125h-34l132 750h34l-59 -337h7q85 129 219 129q94 0 144 -58.5t50 -151.5q0 -91 -39 -168.5t-105 -123t-143 -45.5q-72 0 -115 35.5zM460 70.5q57 39.5 89.5 108t32.5 151.5q0 80 -41.5 128t-122.5 48q-68 0 -125 -39.5t-89.5 -108
t-32.5 -150.5q0 -80 41.5 -128.5t121.5 -48.5q69 0 126 39.5z" />
    <glyph glyph-name="c" unicode="c" horiz-adv-x="560" 
d="M134 55q-50 61 -50 152q0 31 6 61q12 69 49.5 132t99.5 102.5t143 39.5q67 0 110 -28t61.5 -72t15.5 -95h-33q1 71 -39.5 115.5t-120.5 44.5q-70 0 -128.5 -39.5t-92 -108t-33.5 -150.5q0 -81 43.5 -130.5t126.5 -49.5q81 0 136 44t80 116h33q-25 -80 -90.5 -137.5
t-164.5 -57.5q-102 0 -152 61z" />
    <glyph glyph-name="cacute" unicode="&#x107;" horiz-adv-x="560" 
d="M134 55q-50 61 -50 152q0 31 6 61q12 69 49.5 132t99.5 102.5t143 39.5q67 0 110 -28t61.5 -72t15.5 -95h-33q1 71 -39.5 115.5t-120.5 44.5q-70 0 -128.5 -39.5t-92 -108t-33.5 -150.5q0 -81 43.5 -130.5t126.5 -49.5q81 0 136 44t80 116h33q-25 -80 -90.5 -137.5
t-164.5 -57.5q-102 0 -152 61zM380 592l125 164h46l-142 -164h-29z" />
    <glyph glyph-name="ccaron" unicode="&#x10d;" horiz-adv-x="560" 
d="M134 55q-50 61 -50 152q0 31 6 61q12 69 49.5 132t99.5 102.5t143 39.5q67 0 110 -28t61.5 -72t15.5 -95h-33q1 71 -39.5 115.5t-120.5 44.5q-70 0 -128.5 -39.5t-92 -108t-33.5 -150.5q0 -81 43.5 -130.5t126.5 -49.5q81 0 136 44t80 116h33q-25 -80 -90.5 -137.5
t-164.5 -57.5q-102 0 -152 61zM317 728l77 -105h4l115 105h45l-143 -133h-46l-97 133h45z" />
    <glyph glyph-name="ccedilla" unicode="&#xe7;" horiz-adv-x="560" 
d="M536 347q1 71 -39.5 115.5t-120.5 44.5q-70 0 -128.5 -39.5t-92 -108t-33.5 -150.5q0 -81 43.5 -130.5t126.5 -49.5q81 0 136 44t80 116h33q-24 -76 -84 -132t-151 -62l-34 -66h36q40 0 60.5 -17.5t20.5 -46.5q0 -30 -17 -56t-48 -42t-69 -16q-25 0 -45 5l7 30
q26 -4 47 -4q40 0 66 21t26 54q0 41 -58 41h-76l1 4l49 92q-95 5 -141 65.5t-46 148.5q0 27 5 60q12 69 49.5 132t99.5 102.5t143 39.5q67 0 110 -28t61.5 -72t15.5 -95h-33z" />
    <glyph glyph-name="cdotaccent" unicode="&#x10b;" horiz-adv-x="560" 
d="M134 55q-50 61 -50 152q0 31 6 61q12 69 49.5 132t99.5 102.5t143 39.5q67 0 110 -28t61.5 -72t15.5 -95h-33q1 71 -39.5 115.5t-120.5 44.5q-70 0 -128.5 -39.5t-92 -108t-33.5 -150.5q0 -81 43.5 -130.5t126.5 -49.5q81 0 136 44t80 116h33q-25 -80 -90.5 -137.5
t-164.5 -57.5q-102 0 -152 61zM375 639q-8 9 -8 22q0 16 12.5 28.5t28.5 12.5q13 0 22 -9t9 -21q0 -16 -13 -29t-30 -13q-13 0 -21 9z" />
    <glyph glyph-name="d" unicode="d" horiz-adv-x="609" 
d="M134.5 53.5q-49.5 58.5 -49.5 150.5q0 91 39.5 169t106 123.5t145.5 45.5q72 0 114 -36.5t59 -92.5h7l60 337h34l-132 -750h-34l22 125h-7q-40 -59 -95.5 -94.5t-127.5 -35.5q-92 0 -141.5 58.5zM410 70.5q57 39.5 89.5 107.5t32.5 151q0 80 -41.5 128.5t-121.5 48.5
q-69 0 -126 -39.5t-89.5 -108t-32.5 -151.5q0 -79 41.5 -127.5t122.5 -48.5q68 0 125 39.5z" />
    <glyph glyph-name="eth" unicode="&#xf0;" horiz-adv-x="621" 
d="M552 691q61 -66 61 -182q0 -42 -9 -93l-26 -148q-13 -75 -52 -137t-99.5 -99t-133.5 -37q-93 0 -143 58t-50 151q0 91 39 168.5t105.5 123.5t144.5 46q135 0 176 -126h34v3q0 167 -82 253l-107 -56l-10 25l95 50q-33 26 -65.5 35.5t-49.5 9.5l5 29q26 0 68 -11.5
t79 -43.5l102 54l11 -25zM425 70.5q57 39.5 89.5 107.5t32.5 151q0 80 -41.5 128.5t-122.5 48.5q-68 0 -125 -39.5t-89.5 -108.5t-32.5 -152q0 -79 41.5 -127t121.5 -48q69 0 126 39.5z" />
    <glyph glyph-name="dcaron" unicode="&#x10f;" horiz-adv-x="693" 
d="M134.5 53.5q-49.5 58.5 -49.5 150.5q0 91 39.5 169t106 123.5t145.5 45.5q72 0 114 -36.5t59 -92.5h7l60 337h34l-132 -750h-34l22 125h-7q-40 -59 -95.5 -94.5t-127.5 -35.5q-92 0 -141.5 58.5zM410 70.5q57 39.5 89.5 107.5t32.5 151q0 80 -41.5 128.5t-121.5 48.5
q-69 0 -126 -39.5t-89.5 -108t-32.5 -151.5q0 -79 41.5 -127.5t122.5 -48.5q68 0 125 39.5zM680 571q32 14 49.5 37.5t17.5 52.5q0 13 -5 16.5t-14 3.5q-34 0 -34 24q0 21 13 34t35 13q46 0 46 -38q0 -7 -2 -15l-5 -30q-15 -90 -105 -126z" />
    <glyph glyph-name="dcroat" unicode="&#x111;" horiz-adv-x="671" 
d="M726 626h-98l-110 -626h-34l22 125h-7q-40 -59 -95.5 -94.5t-127.5 -35.5q-92 0 -141.5 58.5t-49.5 150.5q0 91 39.5 169t106 123.5t145.5 45.5q72 0 114 -36.5t59 -92.5h7l38 213h-180l5 30h180l17 94h34l-17 -94h98zM410 70.5q57 39.5 89.5 107.5t32.5 151
q0 80 -41.5 128.5t-121.5 48.5q-69 0 -126 -39.5t-89.5 -108t-32.5 -151.5q0 -79 41.5 -127.5t122.5 -48.5q68 0 125 39.5z" />
    <glyph glyph-name="e" unicode="e" horiz-adv-x="563" 
d="M140 57q-53 62 -53 160q0 88 37 162t105.5 118.5t157.5 44.5q88 0 129.5 -40.5t41.5 -98.5q0 -66 -51 -106t-140 -40h-240l-1 -7q-3 -18 -3 -36q0 -50 20 -92t59.5 -67.5t94.5 -25.5q63 0 114.5 34t83.5 91h35q-34 -69 -92.5 -114t-144.5 -45q-100 0 -153 62zM372 289
q77 0 113 32.5t36 79.5q0 42 -31.5 74t-109.5 32q-100 0 -162.5 -58.5t-84.5 -159.5h239z" />
    <glyph glyph-name="eacute" unicode="&#xe9;" horiz-adv-x="563" 
d="M140 57q-53 62 -53 160q0 88 37 162t105.5 118.5t157.5 44.5q88 0 129.5 -40.5t41.5 -98.5q0 -66 -51 -106t-140 -40h-240l-1 -7q-3 -18 -3 -36q0 -50 20 -92t59.5 -67.5t94.5 -25.5q63 0 114.5 34t83.5 91h35q-34 -69 -92.5 -114t-144.5 -45q-100 0 -153 62zM372 289
q77 0 113 32.5t36 79.5q0 42 -31.5 74t-109.5 32q-100 0 -162.5 -58.5t-84.5 -159.5h239zM388 592l125 164h46l-142 -164h-29z" />
    <glyph glyph-name="ecaron" unicode="&#x11b;" horiz-adv-x="563" 
d="M140 57q-53 62 -53 160q0 88 37 162t105.5 118.5t157.5 44.5q88 0 129.5 -40.5t41.5 -98.5q0 -66 -51 -106t-140 -40h-240l-1 -7q-3 -18 -3 -36q0 -50 20 -92t59.5 -67.5t94.5 -25.5q63 0 114.5 34t83.5 91h35q-34 -69 -92.5 -114t-144.5 -45q-100 0 -153 62zM372 289
q77 0 113 32.5t36 79.5q0 42 -31.5 74t-109.5 32q-100 0 -162.5 -58.5t-84.5 -159.5h239zM325 728l77 -105h4l115 105h45l-143 -133h-46l-97 133h45z" />
    <glyph glyph-name="ecircumflex" unicode="&#xea;" horiz-adv-x="563" 
d="M140 57q-53 62 -53 160q0 88 37 162t105.5 118.5t157.5 44.5q88 0 129.5 -40.5t41.5 -98.5q0 -66 -51 -106t-140 -40h-240l-1 -7q-3 -18 -3 -36q0 -50 20 -92t59.5 -67.5t94.5 -25.5q63 0 114.5 34t83.5 91h35q-34 -69 -92.5 -114t-144.5 -45q-100 0 -153 62zM372 289
q77 0 113 32.5t36 79.5q0 42 -31.5 74t-109.5 32q-100 0 -162.5 -58.5t-84.5 -159.5h239zM399 728h46l97 -133h-45l-77 105h-4l-115 -105h-45z" />
    <glyph glyph-name="uni1EBF" unicode="&#x1ebf;" horiz-adv-x="563" 
d="M140 57q-53 62 -53 160q0 88 37 162t105.5 118.5t157.5 44.5q88 0 129.5 -40.5t41.5 -98.5q0 -66 -51 -106t-140 -40h-240l-1 -7q-3 -18 -3 -36q0 -50 20 -92t59.5 -67.5t94.5 -25.5q63 0 114.5 34t83.5 91h35q-34 -69 -92.5 -114t-144.5 -45q-100 0 -153 62zM372 289
q77 0 113 32.5t36 79.5q0 42 -31.5 74t-109.5 32q-100 0 -162.5 -58.5t-84.5 -159.5h239zM399 728h46l97 -133h-45l-77 105h-4l-115 -105h-45zM529 715l125 164h46l-142 -164h-29z" />
    <glyph glyph-name="uni1EC7" unicode="&#x1ec7;" horiz-adv-x="563" 
d="M140 57q-53 62 -53 160q0 88 37 162t105.5 118.5t157.5 44.5q88 0 129.5 -40.5t41.5 -98.5q0 -66 -51 -106t-140 -40h-240l-1 -7q-3 -18 -3 -36q0 -50 20 -92t59.5 -67.5t94.5 -25.5q63 0 114.5 34t83.5 91h35q-34 -69 -92.5 -114t-144.5 -45q-100 0 -153 62zM372 289
q77 0 113 32.5t36 79.5q0 42 -31.5 74t-109.5 32q-100 0 -162.5 -58.5t-84.5 -159.5h239zM273 -193q-9 9 -9 23q0 17 13 30t30 13q14 0 23.5 -9t9.5 -22q0 -17 -14 -30.5t-31 -13.5q-13 0 -22 9zM399 728h46l97 -133h-45l-77 105h-4l-115 -105h-45z" />
    <glyph glyph-name="uni1EC1" unicode="&#x1ec1;" horiz-adv-x="563" 
d="M140 57q-53 62 -53 160q0 88 37 162t105.5 118.5t157.5 44.5q88 0 129.5 -40.5t41.5 -98.5q0 -66 -51 -106t-140 -40h-240l-1 -7q-3 -18 -3 -36q0 -50 20 -92t59.5 -67.5t94.5 -25.5q63 0 114.5 34t83.5 91h35q-34 -69 -92.5 -114t-144.5 -45q-100 0 -153 62zM372 289
q77 0 113 32.5t36 79.5q0 42 -31.5 74t-109.5 32q-100 0 -162.5 -58.5t-84.5 -159.5h239zM399 728h46l97 -133h-45l-77 105h-4l-115 -105h-45zM438 879h46l67 -164h-29z" />
    <glyph glyph-name="uni1EC3" unicode="&#x1ec3;" horiz-adv-x="563" 
d="M140 57q-53 62 -53 160q0 88 37 162t105.5 118.5t157.5 44.5q88 0 129.5 -40.5t41.5 -98.5q0 -66 -51 -106t-140 -40h-240l-1 -7q-3 -18 -3 -36q0 -50 20 -92t59.5 -67.5t94.5 -25.5q63 0 114.5 34t83.5 91h35q-34 -69 -92.5 -114t-144.5 -45q-100 0 -153 62zM372 289
q77 0 113 32.5t36 79.5q0 42 -31.5 74t-109.5 32q-100 0 -162.5 -58.5t-84.5 -159.5h239zM399 728h46l97 -133h-45l-77 105h-4l-115 -105h-45zM538 732.5q9 7.5 25 18.5q24 15 36 28t12 34q0 15 -11 25.5t-34 10.5q-22 0 -36 -9.5t-21 -23.5h-34q13 28 37 45.5t59 17.5
q33 0 53 -16.5t20 -42.5q0 -28 -12 -42.5t-36 -31.5q-14 -9 -21.5 -15.5t-12.5 -15.5h-38q5 10 14 17.5z" />
    <glyph glyph-name="uni1EC5" unicode="&#x1ec5;" horiz-adv-x="563" 
d="M140 57q-53 62 -53 160q0 88 37 162t105.5 118.5t157.5 44.5q88 0 129.5 -40.5t41.5 -98.5q0 -66 -51 -106t-140 -40h-240l-1 -7q-3 -18 -3 -36q0 -50 20 -92t59.5 -67.5t94.5 -25.5q63 0 114.5 34t83.5 91h35q-34 -69 -92.5 -114t-144.5 -45q-100 0 -153 62zM372 289
q77 0 113 32.5t36 79.5q0 42 -31.5 74t-109.5 32q-100 0 -162.5 -58.5t-84.5 -159.5h239zM399 728h46l97 -133h-45l-77 105h-4l-115 -105h-45zM365 851q18 0 31 -5.5t29 -16.5q16 -10 26 -15t24 -5q38 0 66 42h38q-45 -73 -109 -73q-18 0 -31 5.5t-29 16.5q-15 10 -26 15
t-25 5q-37 0 -65 -42h-38q45 73 109 73z" />
    <glyph glyph-name="edieresis" unicode="&#xeb;" horiz-adv-x="563" 
d="M140 57q-53 62 -53 160q0 88 37 162t105.5 118.5t157.5 44.5q88 0 129.5 -40.5t41.5 -98.5q0 -66 -51 -106t-140 -40h-240l-1 -7q-3 -18 -3 -36q0 -50 20 -92t59.5 -67.5t94.5 -25.5q63 0 114.5 34t83.5 91h35q-34 -69 -92.5 -114t-144.5 -45q-100 0 -153 62zM372 289
q77 0 113 32.5t36 79.5q0 42 -31.5 74t-109.5 32q-100 0 -162.5 -58.5t-84.5 -159.5h239zM451 639q-8 9 -8 22q0 16 12.5 28.5t28.5 12.5q13 0 22 -9t9 -21q0 -16 -13 -29t-30 -13q-13 0 -21 9zM312 639q-8 9 -8 22q0 16 12.5 28.5t28.5 12.5q13 0 22 -9t9 -21
q0 -16 -13 -29t-30 -13q-13 0 -21 9z" />
    <glyph glyph-name="edotaccent" unicode="&#x117;" horiz-adv-x="563" 
d="M140 57q-53 62 -53 160q0 88 37 162t105.5 118.5t157.5 44.5q88 0 129.5 -40.5t41.5 -98.5q0 -66 -51 -106t-140 -40h-240l-1 -7q-3 -18 -3 -36q0 -50 20 -92t59.5 -67.5t94.5 -25.5q63 0 114.5 34t83.5 91h35q-34 -69 -92.5 -114t-144.5 -45q-100 0 -153 62zM372 289
q77 0 113 32.5t36 79.5q0 42 -31.5 74t-109.5 32q-100 0 -162.5 -58.5t-84.5 -159.5h239zM383 639q-8 9 -8 22q0 16 12.5 28.5t28.5 12.5q13 0 22 -9t9 -21q0 -16 -13 -29t-30 -13q-13 0 -21 9z" />
    <glyph glyph-name="uni1EB9" unicode="&#x1eb9;" horiz-adv-x="563" 
d="M140 57q-53 62 -53 160q0 88 37 162t105.5 118.5t157.5 44.5q88 0 129.5 -40.5t41.5 -98.5q0 -66 -51 -106t-140 -40h-240l-1 -7q-3 -18 -3 -36q0 -50 20 -92t59.5 -67.5t94.5 -25.5q63 0 114.5 34t83.5 91h35q-34 -69 -92.5 -114t-144.5 -45q-100 0 -153 62zM372 289
q77 0 113 32.5t36 79.5q0 42 -31.5 74t-109.5 32q-100 0 -162.5 -58.5t-84.5 -159.5h239zM273 -193q-9 9 -9 23q0 17 13 30t30 13q14 0 23.5 -9t9.5 -22q0 -17 -14 -30.5t-31 -13.5q-13 0 -22 9z" />
    <glyph glyph-name="egrave" unicode="&#xe8;" horiz-adv-x="563" 
d="M140 57q-53 62 -53 160q0 88 37 162t105.5 118.5t157.5 44.5q88 0 129.5 -40.5t41.5 -98.5q0 -66 -51 -106t-140 -40h-240l-1 -7q-3 -18 -3 -36q0 -50 20 -92t59.5 -67.5t94.5 -25.5q63 0 114.5 34t83.5 91h35q-34 -69 -92.5 -114t-144.5 -45q-100 0 -153 62zM372 289
q77 0 113 32.5t36 79.5q0 42 -31.5 74t-109.5 32q-100 0 -162.5 -58.5t-84.5 -159.5h239zM297 756h46l67 -164h-29z" />
    <glyph glyph-name="uni1EBB" unicode="&#x1ebb;" horiz-adv-x="563" 
d="M140 57q-53 62 -53 160q0 88 37 162t105.5 118.5t157.5 44.5q88 0 129.5 -40.5t41.5 -98.5q0 -66 -51 -106t-140 -40h-240l-1 -7q-3 -18 -3 -36q0 -50 20 -92t59.5 -67.5t94.5 -25.5q63 0 114.5 34t83.5 91h35q-34 -69 -92.5 -114t-144.5 -45q-100 0 -153 62zM372 289
q77 0 113 32.5t36 79.5q0 42 -31.5 74t-109.5 32q-100 0 -162.5 -58.5t-84.5 -159.5h239zM397 609.5q9 7.5 25 18.5q24 15 36 28t12 34q0 15 -11 25.5t-34 10.5q-22 0 -36 -9.5t-21 -23.5h-34q13 28 37 45.5t59 17.5q33 0 53 -16.5t20 -42.5q0 -28 -12 -42.5t-36 -31.5
q-14 -9 -21.5 -15.5t-12.5 -15.5h-38q5 10 14 17.5z" />
    <glyph glyph-name="emacron" unicode="&#x113;" horiz-adv-x="563" 
d="M140 57q-53 62 -53 160q0 88 37 162t105.5 118.5t157.5 44.5q88 0 129.5 -40.5t41.5 -98.5q0 -66 -51 -106t-140 -40h-240l-1 -7q-3 -18 -3 -36q0 -50 20 -92t59.5 -67.5t94.5 -25.5q63 0 114.5 34t83.5 91h35q-34 -69 -92.5 -114t-144.5 -45q-100 0 -153 62zM372 289
q77 0 113 32.5t36 79.5q0 42 -31.5 74t-109.5 32q-100 0 -162.5 -58.5t-84.5 -159.5h239zM271 661h280l-5 -26h-280z" />
    <glyph glyph-name="eogonek" unicode="&#x119;" horiz-adv-x="563" 
d="M411.5 63q51.5 34 83.5 91h35q-26 -54 -67.5 -94t-99.5 -56l7 -7q-32 -19 -52 -38t-20 -46q0 -15 11.5 -25.5t37.5 -10.5q15 0 41 4l-5 -28q-22 -5 -46 -5q-33 0 -52.5 16t-19.5 43q0 51 56 89q-9 -1 -28 -1q-100 0 -153 62t-53 160q0 88 37 162t105.5 118.5t157.5 44.5
q88 0 129.5 -40.5t41.5 -98.5q0 -66 -51 -106t-140 -40h-240l-1 -7q-3 -18 -3 -36q0 -50 20 -92t59.5 -67.5t94.5 -25.5q63 0 114.5 34zM217.5 448.5q-62.5 -58.5 -84.5 -159.5h239q77 0 113 32.5t36 79.5q0 42 -31.5 74t-109.5 32q-100 0 -162.5 -58.5z" />
    <glyph glyph-name="uni1EBD" unicode="&#x1ebd;" horiz-adv-x="563" 
d="M140 57q-53 62 -53 160q0 88 37 162t105.5 118.5t157.5 44.5q88 0 129.5 -40.5t41.5 -98.5q0 -66 -51 -106t-140 -40h-240l-1 -7q-3 -18 -3 -36q0 -50 20 -92t59.5 -67.5t94.5 -25.5q63 0 114.5 34t83.5 91h35q-34 -69 -92.5 -114t-144.5 -45q-100 0 -153 62zM372 289
q77 0 113 32.5t36 79.5q0 42 -31.5 74t-109.5 32q-100 0 -162.5 -58.5t-84.5 -159.5h239zM362 716q18 0 31 -5.5t29 -16.5q16 -10 26 -15t24 -5q38 0 66 42h38q-45 -73 -109 -73q-18 0 -31 5.5t-29 16.5q-15 10 -26 15t-25 5q-37 0 -65 -42h-38q45 73 109 73z" />
    <glyph glyph-name="f" unicode="f" horiz-adv-x="356" 
d="M318 693.5q-21 -14.5 -28.5 -34t-12.5 -48.5l-15 -86h132l-6 -30h-132l-109 -619q-10 -57 -40.5 -91.5t-96.5 -34.5q-33 0 -51 6l5 28q20 -5 48 -5q38 0 59 14.5t28.5 34t12.5 48.5l109 619h-79l6 30h79l15 86q10 57 40.5 91.5t96.5 34.5q33 0 51 -6l-5 -28q-20 5 -48 5
q-38 0 -59 -14.5z" />
    <glyph glyph-name="g" unicode="g" horiz-adv-x="610" 
d="M182 -187l6 34q36 -11 78 -11q89 0 147 48t74 136l21 120h-8q-37 -59 -95 -92.5t-126 -33.5q-88 0 -140 57t-52 149q0 86 39 161t104 119t141 44q71 0 117.5 -37.5t59.5 -97.5h7l21 115h34l-89 -504q-11 -62 -46.5 -112t-90.5 -78.5t-124 -28.5q-47 0 -78 12zM412 88.5
q56 38.5 89 103.5t33 142q0 76 -41.5 125t-121.5 49q-67 0 -123 -37.5t-88.5 -102.5t-32.5 -142q0 -78 41.5 -127t121.5 -49q66 0 122 38.5z" />
    <glyph glyph-name="gbreve" unicode="&#x11f;" horiz-adv-x="610" 
d="M182 -187l6 34q36 -11 78 -11q89 0 147 48t74 136l21 120h-8q-37 -59 -95 -92.5t-126 -33.5q-88 0 -140 57t-52 149q0 86 39 161t104 119t141 44q71 0 117.5 -37.5t59.5 -97.5h7l21 115h34l-89 -504q-11 -62 -46.5 -112t-90.5 -78.5t-124 -28.5q-47 0 -78 12zM412 88.5
q56 38.5 89 103.5t33 142q0 76 -41.5 125t-121.5 49q-67 0 -123 -37.5t-88.5 -102.5t-32.5 -142q0 -78 41.5 -127t121.5 -49q66 0 122 38.5zM310 634q-33 21 -53 66h38q27 -57 105 -57q79 0 125 57h38q-37 -46 -76.5 -66.5t-91.5 -20.5t-85 21z" />
    <glyph glyph-name="gdotaccent" unicode="&#x121;" horiz-adv-x="610" 
d="M182 -187l6 34q36 -11 78 -11q89 0 147 48t74 136l21 120h-8q-37 -59 -95 -92.5t-126 -33.5q-88 0 -140 57t-52 149q0 86 39 161t104 119t141 44q71 0 117.5 -37.5t59.5 -97.5h7l21 115h34l-89 -504q-11 -62 -46.5 -112t-90.5 -78.5t-124 -28.5q-47 0 -78 12zM412 88.5
q56 38.5 89 103.5t33 142q0 76 -41.5 125t-121.5 49q-67 0 -123 -37.5t-88.5 -102.5t-32.5 -142q0 -78 41.5 -127t121.5 -49q66 0 122 38.5zM375 639q-8 9 -8 22q0 16 12.5 28.5t28.5 12.5q13 0 22 -9t9 -21q0 -16 -13 -29t-30 -13q-13 0 -21 9z" />
    <glyph glyph-name="h" unicode="h" horiz-adv-x="622" 
d="M224 750h34l-58 -333h7q32 52 88 88.5t129 36.5q83 0 129 -49.5t46 -131.5q0 -23 -5 -55l-54 -306h-34l54 306q4 23 4 48q0 74 -43.5 111.5t-115.5 37.5q-49 0 -96.5 -22.5t-82.5 -67t-46 -107.5l-54 -306h-34z" />
    <glyph glyph-name="hbar" unicode="&#x127;" horiz-adv-x="600" 
d="M567.5 495.5q34.5 -46.5 34.5 -111.5q0 -27 -6 -66l-56 -318h-34l56 317q6 30 6 55q0 55 -29.5 93.5t-108.5 38.5q-66 0 -120 -30.5t-89 -83t-47 -118.5l-48 -272h-34l110 626h-84l6 30h83l17 94h33l-16 -94h195l-6 -30h-195l-38 -219h8q33 56 94 95.5t143 39.5
q91 0 125.5 -46.5z" />
    <glyph glyph-name="i" unicode="i" horiz-adv-x="216" 
d="M184 525h34l-93 -525h-34zM197 639q-8 9 -8 22q0 16 12.5 28.5t28.5 12.5q13 0 22 -9t9 -21q0 -16 -13 -29t-30 -13q-13 0 -21 9z" />
    <glyph glyph-name="dotlessi" unicode="&#x131;" horiz-adv-x="216" 
d="M184 525h34l-93 -525h-34z" />
    <glyph glyph-name="iacute" unicode="&#xed;" horiz-adv-x="216" 
d="M184 525h34l-93 -525h-34zM202 592l125 164h46l-142 -164h-29z" />
    <glyph glyph-name="icircumflex" unicode="&#xee;" horiz-adv-x="216" 
d="M184 525h34l-93 -525h-34zM213 728h46l97 -133h-45l-77 105h-4l-115 -105h-45z" />
    <glyph glyph-name="idieresis" unicode="&#xef;" horiz-adv-x="216" 
d="M184 525h34l-93 -525h-34zM265 639q-8 9 -8 22q0 16 12.5 28.5t28.5 12.5q13 0 22 -9t9 -21q0 -16 -13 -29t-30 -13q-13 0 -21 9zM126 639q-8 9 -8 22q0 16 12.5 28.5t28.5 12.5q13 0 22 -9t9 -21q0 -16 -13 -29t-30 -13q-13 0 -21 9z" />
    <glyph glyph-name="i.loclTRK" horiz-adv-x="216" 
d="M184 525h34l-93 -525h-34zM197 639q-8 9 -8 22q0 16 12.5 28.5t28.5 12.5q13 0 22 -9t9 -21q0 -16 -13 -29t-30 -13q-13 0 -21 9z" />
    <glyph glyph-name="uni1ECB" unicode="&#x1ecb;" horiz-adv-x="216" 
d="M184 525h34l-93 -525h-34zM197 639q-8 9 -8 22q0 16 12.5 28.5t28.5 12.5q13 0 22 -9t9 -21q0 -16 -13 -29t-30 -13q-13 0 -21 9zM49 -193q-9 9 -9 23q0 17 13 30t30 13q14 0 23.5 -9t9.5 -22q0 -17 -14 -30.5t-31 -13.5q-13 0 -22 9z" />
    <glyph glyph-name="igrave" unicode="&#xec;" horiz-adv-x="216" 
d="M184 525h34l-93 -525h-34zM111 756h46l67 -164h-29z" />
    <glyph glyph-name="uni1EC9" unicode="&#x1ec9;" horiz-adv-x="216" 
d="M184 525h34l-93 -525h-34zM211 609.5q9 7.5 25 18.5q24 15 36 28t12 34q0 15 -11 25.5t-34 10.5q-22 0 -36 -9.5t-21 -23.5h-34q13 28 37 45.5t59 17.5q33 0 53 -16.5t20 -42.5q0 -28 -12 -42.5t-36 -31.5q-14 -9 -21.5 -15.5t-12.5 -15.5h-38q5 10 14 17.5z" />
    <glyph glyph-name="imacron" unicode="&#x12b;" horiz-adv-x="216" 
d="M184 525h34l-93 -525h-34zM85 661h280l-5 -26h-280z" />
    <glyph glyph-name="iogonek" unicode="&#x12f;" horiz-adv-x="216" 
d="M252 693q9 -9 9 -21q0 -16 -13 -29t-30 -13q-13 0 -21 9t-8 22q0 16 12.5 28.5t28.5 12.5q13 0 22 -9zM73 -38q-20 -19 -20 -46q0 -15 11.5 -25.5t37.5 -10.5q15 0 41 4l-5 -28q-22 -5 -46 -5q-33 0 -52.5 16t-19.5 43q0 32 20.5 57t52.5 43l91 515h34l-93 -525
q-32 -19 -52 -38z" />
    <glyph glyph-name="itilde" unicode="&#x129;" horiz-adv-x="216" 
d="M184 525h34l-93 -525h-34zM176 716q18 0 31 -5.5t29 -16.5q16 -10 26 -15t24 -5q38 0 66 42h38q-45 -73 -109 -73q-18 0 -31 5.5t-29 16.5q-15 10 -26 15t-25 5q-37 0 -65 -42h-38q45 73 109 73z" />
    <glyph glyph-name="j" unicode="j" horiz-adv-x="224" 
d="M204 639q-8 9 -8 22q0 16 12.5 28.5t28.5 12.5q13 0 22 -9t9 -21q0 -16 -13 -29t-30 -13q-13 0 -21 9zM-69 -206l5 28q20 -5 48 -5q54 0 73.5 26.5t26.5 70.5l108 611h34l-107 -611q-10 -57 -40 -91.5t-97 -34.5q-33 0 -51 6z" />
    <glyph glyph-name="k" unicode="k" horiz-adv-x="471" 
d="M224 750h34l-74 -422h4l268 197h49l-315 -231l236 -294h-42l-208 260h-4l-46 -260h-34z" />
    <glyph glyph-name="l" unicode="l" horiz-adv-x="286" 
d="M126 13q-19 18 -19 54q0 22 7 60l111 623h34l-110 -623q-7 -38 -7 -56q0 -24 12.5 -35.5t46.5 -11.5q17 0 45 4l-5 -28q-23 -5 -47 -5q-49 0 -68 18z" />
    <glyph glyph-name="lacute" unicode="&#x13a;" horiz-adv-x="286" 
d="M126 13q-19 18 -19 54q0 22 7 60l111 623h34l-110 -623q-7 -38 -7 -56q0 -24 12.5 -35.5t46.5 -11.5q17 0 45 4l-5 -28q-23 -5 -47 -5q-49 0 -68 18zM243 817l125 164h46l-142 -164h-29z" />
    <glyph glyph-name="lcaron" unicode="&#x13e;" horiz-adv-x="289" 
d="M273 714q0 -11 -1 -15l-5 -30q-9 -48 -36 -79l-82 -463q-7 -38 -7 -56q0 -24 12.5 -35.5t46.5 -11.5q17 0 45 4l-5 -28q-23 -5 -47 -5q-49 0 -68 18t-19 54q0 22 7 60l77 430q-7 -4 -29 -14l4 28q18 7 30 18l17 92h-4q-29 0 -29 24q0 21 13 34t35 13q8 0 18 -2h13l-1 -5
q15 -8 15 -31z" />
    <glyph glyph-name="m" unicode="m" horiz-adv-x="997" 
d="M185 525h33l-19 -108h7q31 52 85 88.5t123 36.5q71 0 112.5 -39.5t53.5 -95.5h8q34 56 92 95.5t130 39.5q76 0 120 -47.5t44 -130.5q0 -32 -5 -58l-54 -306h-33l54 306q5 30 5 50q0 74 -41.5 110.5t-104.5 36.5q-50 0 -96.5 -22.5t-80 -67t-44.5 -107.5l-54 -306h-33
l54 306q5 30 5 50q0 74 -41.5 110.5t-104.5 36.5q-50 0 -96.5 -22.5t-80 -67t-44.5 -107.5l-54 -306h-33z" />
    <glyph glyph-name="n" unicode="n" horiz-adv-x="622" 
d="M185 525h34l-19 -108h7q32 52 88 88.5t129 36.5q83 0 129 -49.5t46 -131.5q0 -23 -5 -55l-54 -306h-34l54 306q4 23 4 48q0 74 -43.5 111.5t-112.5 37.5q-56 0 -104 -24.5t-81 -69t-43 -103.5l-54 -306h-34z" />
    <glyph glyph-name="nacute" unicode="&#x144;" horiz-adv-x="622" 
d="M185 525h34l-19 -108h7q32 52 88 88.5t129 36.5q83 0 129 -49.5t46 -131.5q0 -23 -5 -55l-54 -306h-34l54 306q4 23 4 48q0 74 -43.5 111.5t-112.5 37.5q-56 0 -104 -24.5t-81 -69t-43 -103.5l-54 -306h-34zM405 592l125 164h46l-142 -164h-29z" />
    <glyph glyph-name="ncaron" unicode="&#x148;" horiz-adv-x="622" 
d="M185 525h34l-19 -108h7q32 52 88 88.5t129 36.5q83 0 129 -49.5t46 -131.5q0 -23 -5 -55l-54 -306h-34l54 306q4 23 4 48q0 74 -43.5 111.5t-112.5 37.5q-56 0 -104 -24.5t-81 -69t-43 -103.5l-54 -306h-34zM342 728l77 -105h4l115 105h45l-143 -133h-46l-97 133h45z" />
    <glyph glyph-name="ntilde" unicode="&#xf1;" horiz-adv-x="622" 
d="M185 525h34l-19 -108h7q32 52 88 88.5t129 36.5q83 0 129 -49.5t46 -131.5q0 -23 -5 -55l-54 -306h-34l54 306q4 23 4 48q0 74 -43.5 111.5t-112.5 37.5q-56 0 -104 -24.5t-81 -69t-43 -103.5l-54 -306h-34zM379 716q18 0 31 -5.5t29 -16.5q16 -10 26 -15t24 -5
q38 0 66 42h38q-45 -73 -109 -73q-18 0 -31 5.5t-29 16.5q-15 10 -26 15t-25 5q-37 0 -65 -42h-38q45 73 109 73z" />
    <glyph glyph-name="o" unicode="o" 
d="M171.5 25q-44.5 30 -65.5 78.5t-21 106.5q0 87 40.5 163.5t108 122t144.5 45.5q66 0 110.5 -29.5t65.5 -78.5t21 -107q0 -87 -40.5 -163.5t-108 -122t-144.5 -45.5q-66 0 -110.5 30zM412.5 70q57.5 40 92 107.5t34.5 145.5q0 82 -44.5 133t-122.5 51q-67 0 -124.5 -40
t-92 -107.5t-34.5 -146.5q0 -82 44.5 -132.5t122.5 -50.5q67 0 124.5 40z" />
    <glyph glyph-name="oacute" unicode="&#xf3;" 
d="M171.5 25q-44.5 30 -65.5 78.5t-21 106.5q0 87 40.5 163.5t108 122t144.5 45.5q66 0 110.5 -29.5t65.5 -78.5t21 -107q0 -87 -40.5 -163.5t-108 -122t-144.5 -45.5q-66 0 -110.5 30zM412.5 70q57.5 40 92 107.5t34.5 145.5q0 82 -44.5 133t-122.5 51q-67 0 -124.5 -40
t-92 -107.5t-34.5 -146.5q0 -82 44.5 -132.5t122.5 -50.5q67 0 124.5 40zM376 592l125 164h46l-142 -164h-29z" />
    <glyph glyph-name="ocircumflex" unicode="&#xf4;" 
d="M171.5 25q-44.5 30 -65.5 78.5t-21 106.5q0 87 40.5 163.5t108 122t144.5 45.5q66 0 110.5 -29.5t65.5 -78.5t21 -107q0 -87 -40.5 -163.5t-108 -122t-144.5 -45.5q-66 0 -110.5 30zM412.5 70q57.5 40 92 107.5t34.5 145.5q0 82 -44.5 133t-122.5 51q-67 0 -124.5 -40
t-92 -107.5t-34.5 -146.5q0 -82 44.5 -132.5t122.5 -50.5q67 0 124.5 40zM387 728h46l97 -133h-45l-77 105h-4l-115 -105h-45z" />
    <glyph glyph-name="uni1ED1" unicode="&#x1ed1;" 
d="M171.5 25q-44.5 30 -65.5 78.5t-21 106.5q0 87 40.5 163.5t108 122t144.5 45.5q66 0 110.5 -29.5t65.5 -78.5t21 -107q0 -87 -40.5 -163.5t-108 -122t-144.5 -45.5q-66 0 -110.5 30zM412.5 70q57.5 40 92 107.5t34.5 145.5q0 82 -44.5 133t-122.5 51q-67 0 -124.5 -40
t-92 -107.5t-34.5 -146.5q0 -82 44.5 -132.5t122.5 -50.5q67 0 124.5 40zM387 728h46l97 -133h-45l-77 105h-4l-115 -105h-45zM517 715l125 164h46l-142 -164h-29z" />
    <glyph glyph-name="uni1ED9" unicode="&#x1ed9;" 
d="M171.5 25q-44.5 30 -65.5 78.5t-21 106.5q0 87 40.5 163.5t108 122t144.5 45.5q66 0 110.5 -29.5t65.5 -78.5t21 -107q0 -87 -40.5 -163.5t-108 -122t-144.5 -45.5q-66 0 -110.5 30zM412.5 70q57.5 40 92 107.5t34.5 145.5q0 82 -44.5 133t-122.5 51q-67 0 -124.5 -40
t-92 -107.5t-34.5 -146.5q0 -82 44.5 -132.5t122.5 -50.5q67 0 124.5 40zM224 -193q-9 9 -9 23q0 17 13 30t30 13q14 0 23.5 -9t9.5 -22q0 -17 -14 -30.5t-31 -13.5q-13 0 -22 9zM387 728h46l97 -133h-45l-77 105h-4l-115 -105h-45z" />
    <glyph glyph-name="uni1ED3" unicode="&#x1ed3;" 
d="M171.5 25q-44.5 30 -65.5 78.5t-21 106.5q0 87 40.5 163.5t108 122t144.5 45.5q66 0 110.5 -29.5t65.5 -78.5t21 -107q0 -87 -40.5 -163.5t-108 -122t-144.5 -45.5q-66 0 -110.5 30zM412.5 70q57.5 40 92 107.5t34.5 145.5q0 82 -44.5 133t-122.5 51q-67 0 -124.5 -40
t-92 -107.5t-34.5 -146.5q0 -82 44.5 -132.5t122.5 -50.5q67 0 124.5 40zM387 728h46l97 -133h-45l-77 105h-4l-115 -105h-45zM426 879h46l67 -164h-29z" />
    <glyph glyph-name="uni1ED5" unicode="&#x1ed5;" 
d="M171.5 25q-44.5 30 -65.5 78.5t-21 106.5q0 87 40.5 163.5t108 122t144.5 45.5q66 0 110.5 -29.5t65.5 -78.5t21 -107q0 -87 -40.5 -163.5t-108 -122t-144.5 -45.5q-66 0 -110.5 30zM412.5 70q57.5 40 92 107.5t34.5 145.5q0 82 -44.5 133t-122.5 51q-67 0 -124.5 -40
t-92 -107.5t-34.5 -146.5q0 -82 44.5 -132.5t122.5 -50.5q67 0 124.5 40zM387 728h46l97 -133h-45l-77 105h-4l-115 -105h-45zM526 732.5q9 7.5 25 18.5q24 15 36 28t12 34q0 15 -11 25.5t-34 10.5q-22 0 -36 -9.5t-21 -23.5h-34q13 28 37 45.5t59 17.5q33 0 53 -16.5
t20 -42.5q0 -28 -12 -42.5t-36 -31.5q-14 -9 -21.5 -15.5t-12.5 -15.5h-38q5 10 14 17.5z" />
    <glyph glyph-name="uni1ED7" unicode="&#x1ed7;" 
d="M171.5 25q-44.5 30 -65.5 78.5t-21 106.5q0 87 40.5 163.5t108 122t144.5 45.5q66 0 110.5 -29.5t65.5 -78.5t21 -107q0 -87 -40.5 -163.5t-108 -122t-144.5 -45.5q-66 0 -110.5 30zM412.5 70q57.5 40 92 107.5t34.5 145.5q0 82 -44.5 133t-122.5 51q-67 0 -124.5 -40
t-92 -107.5t-34.5 -146.5q0 -82 44.5 -132.5t122.5 -50.5q67 0 124.5 40zM387 728h46l97 -133h-45l-77 105h-4l-115 -105h-45zM353 851q18 0 31 -5.5t29 -16.5q16 -10 26 -15t24 -5q38 0 66 42h38q-45 -73 -109 -73q-18 0 -31 5.5t-29 16.5q-15 10 -26 15t-25 5
q-37 0 -65 -42h-38q45 73 109 73z" />
    <glyph glyph-name="odieresis" unicode="&#xf6;" 
d="M171.5 25q-44.5 30 -65.5 78.5t-21 106.5q0 87 40.5 163.5t108 122t144.5 45.5q66 0 110.5 -29.5t65.5 -78.5t21 -107q0 -87 -40.5 -163.5t-108 -122t-144.5 -45.5q-66 0 -110.5 30zM412.5 70q57.5 40 92 107.5t34.5 145.5q0 82 -44.5 133t-122.5 51q-67 0 -124.5 -40
t-92 -107.5t-34.5 -146.5q0 -82 44.5 -132.5t122.5 -50.5q67 0 124.5 40zM439 639q-8 9 -8 22q0 16 12.5 28.5t28.5 12.5q13 0 22 -9t9 -21q0 -16 -13 -29t-30 -13q-13 0 -21 9zM300 639q-8 9 -8 22q0 16 12.5 28.5t28.5 12.5q13 0 22 -9t9 -21q0 -16 -13 -29t-30 -13
q-13 0 -21 9z" />
    <glyph glyph-name="uni1ECD" unicode="&#x1ecd;" 
d="M171.5 25q-44.5 30 -65.5 78.5t-21 106.5q0 87 40.5 163.5t108 122t144.5 45.5q66 0 110.5 -29.5t65.5 -78.5t21 -107q0 -87 -40.5 -163.5t-108 -122t-144.5 -45.5q-66 0 -110.5 30zM412.5 70q57.5 40 92 107.5t34.5 145.5q0 82 -44.5 133t-122.5 51q-67 0 -124.5 -40
t-92 -107.5t-34.5 -146.5q0 -82 44.5 -132.5t122.5 -50.5q67 0 124.5 40zM224 -193q-9 9 -9 23q0 17 13 30t30 13q14 0 23.5 -9t9.5 -22q0 -17 -14 -30.5t-31 -13.5q-13 0 -22 9z" />
    <glyph glyph-name="ograve" unicode="&#xf2;" 
d="M171.5 25q-44.5 30 -65.5 78.5t-21 106.5q0 87 40.5 163.5t108 122t144.5 45.5q66 0 110.5 -29.5t65.5 -78.5t21 -107q0 -87 -40.5 -163.5t-108 -122t-144.5 -45.5q-66 0 -110.5 30zM412.5 70q57.5 40 92 107.5t34.5 145.5q0 82 -44.5 133t-122.5 51q-67 0 -124.5 -40
t-92 -107.5t-34.5 -146.5q0 -82 44.5 -132.5t122.5 -50.5q67 0 124.5 40zM285 756h46l67 -164h-29z" />
    <glyph glyph-name="uni1ECF" unicode="&#x1ecf;" 
d="M171.5 25q-44.5 30 -65.5 78.5t-21 106.5q0 87 40.5 163.5t108 122t144.5 45.5q66 0 110.5 -29.5t65.5 -78.5t21 -107q0 -87 -40.5 -163.5t-108 -122t-144.5 -45.5q-66 0 -110.5 30zM412.5 70q57.5 40 92 107.5t34.5 145.5q0 82 -44.5 133t-122.5 51q-67 0 -124.5 -40
t-92 -107.5t-34.5 -146.5q0 -82 44.5 -132.5t122.5 -50.5q67 0 124.5 40zM385 609.5q9 7.5 25 18.5q24 15 36 28t12 34q0 15 -11 25.5t-34 10.5q-22 0 -36 -9.5t-21 -23.5h-34q13 28 37 45.5t59 17.5q33 0 53 -16.5t20 -42.5q0 -28 -12 -42.5t-36 -31.5q-14 -9 -21.5 -15.5
t-12.5 -15.5h-38q5 10 14 17.5z" />
    <glyph glyph-name="ohorn" unicode="&#x1a1;" 
d="M611 604l-3 -16q-18 -93 -93 -93h-5q33 -30 49 -74t16 -95q0 -87 -40.5 -163.5t-108 -122t-144.5 -45.5q-66 0 -110.5 30t-65.5 78.5t-21 106.5q0 87 40.5 163.5t108 122t144.5 45.5q47 0 85 -16h50q24 0 36.5 12t19.5 51l3 16h39zM494.5 456q-44.5 51 -122.5 51
q-67 0 -124.5 -40t-92 -107.5t-34.5 -146.5q0 -82 44.5 -132.5t122.5 -50.5q67 0 124.5 40t92 107.5t34.5 145.5q0 82 -44.5 133z" />
    <glyph glyph-name="uni1EDB" unicode="&#x1edb;" 
d="M611 604l-3 -16q-18 -93 -93 -93h-5q33 -30 49 -74t16 -95q0 -87 -40.5 -163.5t-108 -122t-144.5 -45.5q-66 0 -110.5 30t-65.5 78.5t-21 106.5q0 87 40.5 163.5t108 122t144.5 45.5q47 0 85 -16h50q24 0 36.5 12t19.5 51l3 16h39zM494.5 456q-44.5 51 -122.5 51
q-67 0 -124.5 -40t-92 -107.5t-34.5 -146.5q0 -82 44.5 -132.5t122.5 -50.5q67 0 124.5 40t92 107.5t34.5 145.5q0 82 -44.5 133zM376 592l125 164h46l-142 -164h-29z" />
    <glyph glyph-name="uni1EE3" unicode="&#x1ee3;" 
d="M611 604l-3 -16q-18 -93 -93 -93h-5q33 -30 49 -74t16 -95q0 -87 -40.5 -163.5t-108 -122t-144.5 -45.5q-66 0 -110.5 30t-65.5 78.5t-21 106.5q0 87 40.5 163.5t108 122t144.5 45.5q47 0 85 -16h50q24 0 36.5 12t19.5 51l3 16h39zM494.5 456q-44.5 51 -122.5 51
q-67 0 -124.5 -40t-92 -107.5t-34.5 -146.5q0 -82 44.5 -132.5t122.5 -50.5q67 0 124.5 40t92 107.5t34.5 145.5q0 82 -44.5 133zM224 -193q-9 9 -9 23q0 17 13 30t30 13q14 0 23.5 -9t9.5 -22q0 -17 -14 -30.5t-31 -13.5q-13 0 -22 9z" />
    <glyph glyph-name="uni1EDD" unicode="&#x1edd;" 
d="M611 604l-3 -16q-18 -93 -93 -93h-5q33 -30 49 -74t16 -95q0 -87 -40.5 -163.5t-108 -122t-144.5 -45.5q-66 0 -110.5 30t-65.5 78.5t-21 106.5q0 87 40.5 163.5t108 122t144.5 45.5q47 0 85 -16h50q24 0 36.5 12t19.5 51l3 16h39zM494.5 456q-44.5 51 -122.5 51
q-67 0 -124.5 -40t-92 -107.5t-34.5 -146.5q0 -82 44.5 -132.5t122.5 -50.5q67 0 124.5 40t92 107.5t34.5 145.5q0 82 -44.5 133zM285 756h46l67 -164h-29z" />
    <glyph glyph-name="uni1EDF" unicode="&#x1edf;" 
d="M611 604l-3 -16q-18 -93 -93 -93h-5q33 -30 49 -74t16 -95q0 -87 -40.5 -163.5t-108 -122t-144.5 -45.5q-66 0 -110.5 30t-65.5 78.5t-21 106.5q0 87 40.5 163.5t108 122t144.5 45.5q47 0 85 -16h50q24 0 36.5 12t19.5 51l3 16h39zM494.5 456q-44.5 51 -122.5 51
q-67 0 -124.5 -40t-92 -107.5t-34.5 -146.5q0 -82 44.5 -132.5t122.5 -50.5q67 0 124.5 40t92 107.5t34.5 145.5q0 82 -44.5 133zM385 609.5q9 7.5 25 18.5q24 15 36 28t12 34q0 15 -11 25.5t-34 10.5q-22 0 -36 -9.5t-21 -23.5h-34q13 28 37 45.5t59 17.5q33 0 53 -16.5
t20 -42.5q0 -28 -12 -42.5t-36 -31.5q-14 -9 -21.5 -15.5t-12.5 -15.5h-38q5 10 14 17.5z" />
    <glyph glyph-name="uni1EE1" unicode="&#x1ee1;" 
d="M611 604l-3 -16q-18 -93 -93 -93h-5q33 -30 49 -74t16 -95q0 -87 -40.5 -163.5t-108 -122t-144.5 -45.5q-66 0 -110.5 30t-65.5 78.5t-21 106.5q0 87 40.5 163.5t108 122t144.5 45.5q47 0 85 -16h50q24 0 36.5 12t19.5 51l3 16h39zM494.5 456q-44.5 51 -122.5 51
q-67 0 -124.5 -40t-92 -107.5t-34.5 -146.5q0 -82 44.5 -132.5t122.5 -50.5q67 0 124.5 40t92 107.5t34.5 145.5q0 82 -44.5 133zM350 716q18 0 31 -5.5t29 -16.5q16 -10 26 -15t24 -5q38 0 66 42h38q-45 -73 -109 -73q-18 0 -31 5.5t-29 16.5q-15 10 -26 15t-25 5
q-37 0 -65 -42h-38q45 73 109 73z" />
    <glyph glyph-name="omacron" unicode="&#x14d;" 
d="M171.5 25q-44.5 30 -65.5 78.5t-21 106.5q0 87 40.5 163.5t108 122t144.5 45.5q66 0 110.5 -29.5t65.5 -78.5t21 -107q0 -87 -40.5 -163.5t-108 -122t-144.5 -45.5q-66 0 -110.5 30zM412.5 70q57.5 40 92 107.5t34.5 145.5q0 82 -44.5 133t-122.5 51q-67 0 -124.5 -40
t-92 -107.5t-34.5 -146.5q0 -82 44.5 -132.5t122.5 -50.5q67 0 124.5 40zM259 661h280l-5 -26h-280z" />
    <glyph glyph-name="oslash" unicode="&#xf8;" horiz-adv-x="604" 
d="M521 484q27 -29 40.5 -70t13.5 -87q0 -87 -40.5 -163.5t-108 -122t-144.5 -45.5q-55 0 -96 22l-46 -64h-37l57 80q-37 29 -56 76t-19 101q0 87 40.5 163.5t108 122t144.5 45.5q73 0 121 -37l61 85h37zM137 128q16 -39 46 -63l294 409q-42 34 -105 34q-67 0 -124.5 -40
t-92 -107.5t-34.5 -146.5q0 -47 16 -86zM498 453l-290 -404q35 -18 80 -18q67 0 124.5 40t92 107.5t34.5 145.5q0 79 -41 129z" />
    <glyph glyph-name="otilde" unicode="&#xf5;" 
d="M171.5 25q-44.5 30 -65.5 78.5t-21 106.5q0 87 40.5 163.5t108 122t144.5 45.5q66 0 110.5 -29.5t65.5 -78.5t21 -107q0 -87 -40.5 -163.5t-108 -122t-144.5 -45.5q-66 0 -110.5 30zM412.5 70q57.5 40 92 107.5t34.5 145.5q0 82 -44.5 133t-122.5 51q-67 0 -124.5 -40
t-92 -107.5t-34.5 -146.5q0 -82 44.5 -132.5t122.5 -50.5q67 0 124.5 40zM350 716q18 0 31 -5.5t29 -16.5q16 -10 26 -15t24 -5q38 0 66 42h38q-45 -73 -109 -73q-18 0 -31 5.5t-29 16.5q-15 10 -26 15t-25 5q-37 0 -65 -42h-38q45 73 109 73z" />
    <glyph glyph-name="oe" unicode="&#x153;" horiz-adv-x="1033" 
d="M190 24.5q-44 29.5 -65 78t-21 107.5q0 87 40 163.5t107 122t144 45.5q81 0 130 -46t62 -120h6q39 73 102.5 120t145.5 47q85 0 135.5 -50.5t50.5 -143.5q0 -37 -9 -81l-2 -10h-426l-1 -7q-3 -18 -3 -36q0 -52 20.5 -94t58 -66.5t86.5 -24.5q62 0 116 33.5t87 91.5h35
q-34 -67 -97 -113t-147 -46t-130.5 46t-59.5 119h-6q-37 -70 -101.5 -117.5t-148.5 -47.5q-65 0 -109 29.5zM427.5 68.5q58.5 39.5 93 106t34.5 143.5q0 84 -47 136.5t-123 52.5q-64 0 -120.5 -40.5t-90.5 -108.5t-34 -146q0 -83 44.5 -133t118.5 -50q66 0 124.5 39.5z
M985 289q4 38 4 52q0 88 -42.5 127t-111.5 39q-85 0 -150.5 -61.5t-88.5 -156.5h389z" />
    <glyph glyph-name="p" unicode="p" horiz-adv-x="628" 
d="M216 30.5q-43 35.5 -62 94.5h-7l-57 -324h-34l128 724h34l-20 -112h7q37 56 92 92.5t127 36.5q94 0 144 -58.5t50 -151.5q0 -91 -39 -168.5t-105 -123t-143 -45.5q-72 0 -115 35.5zM460.5 70.5q56.5 39.5 89 108t32.5 151.5q0 80 -41.5 128t-122.5 48q-68 0 -125 -39.5
t-89.5 -108t-32.5 -150.5q0 -80 41.5 -128.5t122.5 -48.5q69 0 125.5 39.5z" />
    <glyph glyph-name="thorn" unicode="&#xfe;" horiz-adv-x="623" 
d="M215.5 29.5q-43.5 34.5 -62.5 92.5h-7l-61 -347h-34l172 975h34l-59 -334h7q85 126 218 126q95 0 145 -58.5t50 -151.5q0 -91 -39 -168.5t-105 -123t-143 -45.5q-72 0 -115.5 34.5zM459.5 70.5q56.5 39.5 89.5 108t33 151.5q0 79 -41.5 127.5t-122.5 48.5
q-68 0 -125 -39.5t-90 -108t-33 -150.5q0 -80 42 -128.5t122 -48.5q69 0 125.5 39.5z" />
    <glyph glyph-name="q" unicode="q" horiz-adv-x="609" 
d="M134.5 53.5q-49.5 58.5 -49.5 150.5q0 91 39.5 169t106 123.5t145.5 45.5q72 0 114 -36.5t59 -92.5h7l20 112h34l-128 -724h-34l58 324h-7q-40 -59 -95.5 -94.5t-127.5 -35.5q-92 0 -141.5 58.5zM410 70.5q57 39.5 89.5 107.5t32.5 151q0 80 -41.5 128.5t-121.5 48.5
q-69 0 -126 -39.5t-89.5 -108t-32.5 -151.5q0 -79 41.5 -127.5t122.5 -48.5q68 0 125 39.5z" />
    <glyph glyph-name="r" unicode="r" horiz-adv-x="318" 
d="M175 525h33l-15 -84h5q21 35 57 59.5t82 24.5q20 0 31 -2t26 -8l-7 -39q-18 5 -29 7t-29 2q-54 0 -98 -36t-58 -118l-58 -331h-33z" />
    <glyph glyph-name="racute" unicode="&#x155;" horiz-adv-x="318" 
d="M175 525h33l-15 -84h5q21 35 57 59.5t82 24.5q20 0 31 -2t26 -8l-7 -39q-18 5 -29 7t-29 2q-54 0 -98 -36t-58 -118l-58 -331h-33zM244 592l125 164h46l-142 -164h-29z" />
    <glyph glyph-name="rcaron" unicode="&#x159;" horiz-adv-x="318" 
d="M175 525h33l-15 -84h5q21 35 57 59.5t82 24.5q20 0 31 -2t26 -8l-7 -39q-18 5 -29 7t-29 2q-54 0 -98 -36t-58 -118l-58 -331h-33zM181 728l77 -105h4l115 105h45l-143 -133h-46l-97 133h45z" />
    <glyph glyph-name="s" unicode="s" horiz-adv-x="498" 
d="M164 14.5q-40 19.5 -61.5 51.5t-21.5 67q0 18 6 36l1 3h31v-2q0 -57 34 -98.5t111 -41.5q48 0 87 17.5t61.5 48.5t22.5 69t-27 59t-66 26l-76 10q-60 8 -94.5 34.5t-34.5 73.5q0 49 27 88.5t74.5 62.5t106.5 23q83 0 123 -45t40 -115v-3h-41v2q0 48 -26.5 87.5
t-101.5 39.5q-45 0 -82.5 -17.5t-59.5 -47.5t-22 -66q0 -32 21 -53t56 -26l83 -11q139 -19 139 -114q0 -49 -29 -89.5t-79 -64.5t-110 -24q-52 0 -92 19.5z" />
    <glyph glyph-name="sacute" unicode="&#x15b;" horiz-adv-x="498" 
d="M164 14.5q-40 19.5 -61.5 51.5t-21.5 67q0 18 6 36l1 3h31v-2q0 -57 34 -98.5t111 -41.5q48 0 87 17.5t61.5 48.5t22.5 69t-27 59t-66 26l-76 10q-60 8 -94.5 34.5t-34.5 73.5q0 49 27 88.5t74.5 62.5t106.5 23q83 0 123 -45t40 -115v-3h-41v2q0 48 -26.5 87.5
t-101.5 39.5q-45 0 -82.5 -17.5t-59.5 -47.5t-22 -66q0 -32 21 -53t56 -26l83 -11q139 -19 139 -114q0 -49 -29 -89.5t-79 -64.5t-110 -24q-52 0 -92 19.5zM345 592l125 164h46l-142 -164h-29z" />
    <glyph glyph-name="scaron" unicode="&#x161;" horiz-adv-x="498" 
d="M164 14.5q-40 19.5 -61.5 51.5t-21.5 67q0 18 6 36l1 3h31v-2q0 -57 34 -98.5t111 -41.5q48 0 87 17.5t61.5 48.5t22.5 69t-27 59t-66 26l-76 10q-60 8 -94.5 34.5t-34.5 73.5q0 49 27 88.5t74.5 62.5t106.5 23q83 0 123 -45t40 -115v-3h-41v2q0 48 -26.5 87.5
t-101.5 39.5q-45 0 -82.5 -17.5t-59.5 -47.5t-22 -66q0 -32 21 -53t56 -26l83 -11q139 -19 139 -114q0 -49 -29 -89.5t-79 -64.5t-110 -24q-52 0 -92 19.5zM282 728l77 -105h4l115 105h45l-143 -133h-46l-97 133h45z" />
    <glyph glyph-name="scedilla" unicode="&#x15f;" horiz-adv-x="498" 
d="M467 379v2q0 48 -26.5 87.5t-101.5 39.5q-45 0 -82.5 -17.5t-59.5 -47.5t-22 -66q0 -32 21 -53t56 -26l83 -11q139 -19 139 -114q0 -46 -26 -84.5t-71 -63.5t-99 -29l-35 -67h36q40 0 60.5 -17.5t20.5 -46.5q0 -30 -17 -56t-48 -42t-69 -16q-25 0 -45 5l7 30q26 -4 47 -4
q40 0 66 21t26 54q0 41 -58 41h-76l1 4l50 93q-49 2 -86 22.5t-57 51.5t-20 65q0 17 6 35l1 3h31v-2q0 -57 34 -98.5t111 -41.5q48 0 87 17.5t61.5 48.5t22.5 69t-27 59t-66 26l-76 10q-60 8 -94.5 34.5t-34.5 73.5q0 49 27 88.5t74.5 62.5t106.5 23q83 0 123 -45t40 -115
v-3h-41z" />
    <glyph glyph-name="germandbls" unicode="&#xdf;" horiz-adv-x="543" 
d="M288.5 647.5q-39.5 -33.5 -54 -73t-22.5 -83.5l-87 -495h-34l87 495q9 50 27 96.5t66 87t132 40.5q79 0 119 -38t40 -100q0 -69 -32 -115.5t-70 -68.5t-52 -22l-1 -5q11 0 38 -12.5t51 -43t24 -81.5q0 -67 -32.5 -120.5t-90.5 -84.5t-129 -31q-32 0 -54 5l6 32
q26 -4 54 -4q61 0 109.5 25.5t76 71t27.5 102.5q0 65 -47.5 96t-121.5 31h-63l5 32h63q92 0 148.5 50.5t56.5 133.5q0 55 -35 84t-96 29q-69 0 -108.5 -33.5z" />
    <glyph glyph-name="t" unicode="t" horiz-adv-x="382" 
d="M199 119q-7 -38 -7 -54q0 -22 13 -31.5t47 -9.5q30 0 64 9l-5 -28q-30 -10 -66 -10q-49 0 -68.5 15.5t-19.5 51.5q0 17 5 49l68 384h-108l5 30h109l31 175h34l-31 -175h132l-5 -30h-132z" />
    <glyph glyph-name="tbar" unicode="&#x167;" horiz-adv-x="365" 
d="M266 495l-31 -173h133l-5 -26h-132l-30 -169q-7 -38 -7 -56q0 -24 12.5 -35.5t46.5 -11.5q30 0 64 9l-5 -28q-30 -10 -66 -10q-49 0 -68 18t-19 54q0 22 7 60l30 169h-108l5 26h108l31 173h-109l5 30h109l31 175h34l-31 -175h132l-5 -30h-132z" />
    <glyph glyph-name="tcaron" unicode="&#x165;" horiz-adv-x="441" 
d="M199 119q-7 -38 -7 -54q0 -22 13 -31.5t47 -9.5q30 0 64 9l-5 -28q-30 -10 -66 -10q-49 0 -68.5 15.5t-19.5 51.5q0 17 5 49l68 384h-108l5 30h109l31 175h34l-31 -175h132l-5 -30h-132zM318 571q32 14 49.5 37.5t17.5 52.5q0 13 -5 16.5t-14 3.5q-34 0 -34 24
q0 21 13 34t35 13q46 0 46 -38q0 -7 -2 -15l-5 -30q-15 -90 -105 -126z" />
    <glyph glyph-name="uni0163" unicode="&#x163;" horiz-adv-x="382" 
d="M199 119q-7 -38 -7 -54q0 -22 13 -31.5t47 -9.5q30 0 64 9l-5 -28q-30 -10 -66 -10h-8l-34 -66h36q40 0 60.5 -17.5t20.5 -46.5q0 -30 -17 -56t-48 -42t-69 -16q-25 0 -45 5l7 30q26 -4 47 -4q40 0 66 21t26 54q0 41 -58 41h-76l1 4l51 96q-26 6 -37 21t-11 43q0 17 5 49
l68 384h-108l5 30h109l31 175h34l-31 -175h132l-5 -30h-132z" />
    <glyph glyph-name="u" unicode="u" horiz-adv-x="612" 
d="M526 0h-34l20 116h-6q-32 -52 -87 -88.5t-126 -36.5q-80 0 -125 48.5t-45 130.5q0 32 5 57l53 298h34l-53 -298q-5 -30 -5 -50q0 -73 43 -110t109 -37q54 0 101 24.5t79.5 69t42.5 103.5l53 298h34z" />
    <glyph glyph-name="uacute" unicode="&#xfa;" horiz-adv-x="612" 
d="M526 0h-34l20 116h-6q-32 -52 -87 -88.5t-126 -36.5q-80 0 -125 48.5t-45 130.5q0 32 5 57l53 298h34l-53 -298q-5 -30 -5 -50q0 -73 43 -110t109 -37q54 0 101 24.5t79.5 69t42.5 103.5l53 298h34zM380 592l125 164h46l-142 -164h-29z" />
    <glyph glyph-name="ucircumflex" unicode="&#xfb;" horiz-adv-x="612" 
d="M526 0h-34l20 116h-6q-32 -52 -87 -88.5t-126 -36.5q-80 0 -125 48.5t-45 130.5q0 32 5 57l53 298h34l-53 -298q-5 -30 -5 -50q0 -73 43 -110t109 -37q54 0 101 24.5t79.5 69t42.5 103.5l53 298h34zM391 728h46l97 -133h-45l-77 105h-4l-115 -105h-45z" />
    <glyph glyph-name="udieresis" unicode="&#xfc;" horiz-adv-x="612" 
d="M526 0h-34l20 116h-6q-32 -52 -87 -88.5t-126 -36.5q-80 0 -125 48.5t-45 130.5q0 32 5 57l53 298h34l-53 -298q-5 -30 -5 -50q0 -73 43 -110t109 -37q54 0 101 24.5t79.5 69t42.5 103.5l53 298h34zM443 639q-8 9 -8 22q0 16 12.5 28.5t28.5 12.5q13 0 22 -9t9 -21
q0 -16 -13 -29t-30 -13q-13 0 -21 9zM304 639q-8 9 -8 22q0 16 12.5 28.5t28.5 12.5q13 0 22 -9t9 -21q0 -16 -13 -29t-30 -13q-13 0 -21 9z" />
    <glyph glyph-name="uni1EE5" unicode="&#x1ee5;" horiz-adv-x="612" 
d="M526 0h-34l20 116h-6q-32 -52 -87 -88.5t-126 -36.5q-80 0 -125 48.5t-45 130.5q0 32 5 57l53 298h34l-53 -298q-5 -30 -5 -50q0 -73 43 -110t109 -37q54 0 101 24.5t79.5 69t42.5 103.5l53 298h34zM227 -193q-9 9 -9 23q0 17 13 30t30 13q14 0 23.5 -9t9.5 -22
q0 -17 -14 -30.5t-31 -13.5q-13 0 -22 9z" />
    <glyph glyph-name="ugrave" unicode="&#xf9;" horiz-adv-x="612" 
d="M526 0h-34l20 116h-6q-32 -52 -87 -88.5t-126 -36.5q-80 0 -125 48.5t-45 130.5q0 32 5 57l53 298h34l-53 -298q-5 -30 -5 -50q0 -73 43 -110t109 -37q54 0 101 24.5t79.5 69t42.5 103.5l53 298h34zM289 756h46l67 -164h-29z" />
    <glyph glyph-name="uni1EE7" unicode="&#x1ee7;" horiz-adv-x="612" 
d="M526 0h-34l20 116h-6q-32 -52 -87 -88.5t-126 -36.5q-80 0 -125 48.5t-45 130.5q0 32 5 57l53 298h34l-53 -298q-5 -30 -5 -50q0 -73 43 -110t109 -37q54 0 101 24.5t79.5 69t42.5 103.5l53 298h34zM389 609.5q9 7.5 25 18.5q24 15 36 28t12 34q0 15 -11 25.5t-34 10.5
q-22 0 -36 -9.5t-21 -23.5h-34q13 28 37 45.5t59 17.5q33 0 53 -16.5t20 -42.5q0 -28 -12 -42.5t-36 -31.5q-14 -9 -21.5 -15.5t-12.5 -15.5h-38q5 10 14 17.5z" />
    <glyph glyph-name="uhorn" unicode="&#x1b0;" horiz-adv-x="612" 
d="M735 604l-3 -16q-18 -93 -93 -93h-25l-88 -495h-34l20 116h-6q-32 -52 -87 -88.5t-126 -36.5q-80 0 -125 48.5t-45 130.5q0 32 5 57l53 298h34l-53 -298q-5 -30 -5 -50q0 -73 43 -110t109 -37q54 0 101 24.5t79.5 69t42.5 103.5l53 298h52q24 0 36.5 12t19.5 51l3 16h39z
" />
    <glyph glyph-name="uni1EE9" unicode="&#x1ee9;" horiz-adv-x="612" 
d="M735 604l-3 -16q-18 -93 -93 -93h-25l-88 -495h-34l20 116h-6q-32 -52 -87 -88.5t-126 -36.5q-80 0 -125 48.5t-45 130.5q0 32 5 57l53 298h34l-53 -298q-5 -30 -5 -50q0 -73 43 -110t109 -37q54 0 101 24.5t79.5 69t42.5 103.5l53 298h52q24 0 36.5 12t19.5 51l3 16h39z
M380 592l125 164h46l-142 -164h-29z" />
    <glyph glyph-name="uni1EF1" unicode="&#x1ef1;" horiz-adv-x="612" 
d="M196 -193q-9 9 -9 23q0 17 13 30t30 13q14 0 23.5 -9t9.5 -22q0 -17 -14 -30.5t-31 -13.5q-13 0 -22 9zM735 604l-3 -16q-18 -93 -93 -93h-25l-88 -495h-34l20 116h-6q-32 -52 -87 -88.5t-126 -36.5q-80 0 -125 48.5t-45 130.5q0 32 5 57l53 298h34l-53 -298
q-5 -30 -5 -50q0 -73 43 -110t109 -37q54 0 101 24.5t79.5 69t42.5 103.5l53 298h52q24 0 36.5 12t19.5 51l3 16h39z" />
    <glyph glyph-name="uni1EEB" unicode="&#x1eeb;" horiz-adv-x="612" 
d="M258 756h46l67 -164h-29zM735 604l-3 -16q-18 -93 -93 -93h-25l-88 -495h-34l20 116h-6q-32 -52 -87 -88.5t-126 -36.5q-80 0 -125 48.5t-45 130.5q0 32 5 57l53 298h34l-53 -298q-5 -30 -5 -50q0 -73 43 -110t109 -37q54 0 101 24.5t79.5 69t42.5 103.5l53 298h52
q24 0 36.5 12t19.5 51l3 16h39z" />
    <glyph glyph-name="uni1EED" unicode="&#x1eed;" horiz-adv-x="612" 
d="M735 604l-3 -16q-18 -93 -93 -93h-25l-88 -495h-34l20 116h-6q-32 -52 -87 -88.5t-126 -36.5q-80 0 -125 48.5t-45 130.5q0 32 5 57l53 298h34l-53 -298q-5 -30 -5 -50q0 -73 43 -110t109 -37q54 0 101 24.5t79.5 69t42.5 103.5l53 298h52q24 0 36.5 12t19.5 51l3 16h39z
M389 609.5q9 7.5 25 18.5q24 15 36 28t12 34q0 15 -11 25.5t-34 10.5q-22 0 -36 -9.5t-21 -23.5h-34q13 28 37 45.5t59 17.5q33 0 53 -16.5t20 -42.5q0 -28 -12 -42.5t-36 -31.5q-14 -9 -21.5 -15.5t-12.5 -15.5h-38q5 10 14 17.5z" />
    <glyph glyph-name="uni1EEF" unicode="&#x1eef;" horiz-adv-x="612" 
d="M735 604l-3 -16q-18 -93 -93 -93h-25l-88 -495h-34l20 116h-6q-32 -52 -87 -88.5t-126 -36.5q-80 0 -125 48.5t-45 130.5q0 32 5 57l53 298h34l-53 -298q-5 -30 -5 -50q0 -73 43 -110t109 -37q54 0 101 24.5t79.5 69t42.5 103.5l53 298h52q24 0 36.5 12t19.5 51l3 16h39z
M354 716q18 0 31 -5.5t29 -16.5q16 -10 26 -15t24 -5q38 0 66 42h38q-45 -73 -109 -73q-18 0 -31 5.5t-29 16.5q-15 10 -26 15t-25 5q-37 0 -65 -42h-38q45 73 109 73z" />
    <glyph glyph-name="umacron" unicode="&#x16b;" horiz-adv-x="612" 
d="M526 0h-34l20 116h-6q-32 -52 -87 -88.5t-126 -36.5q-80 0 -125 48.5t-45 130.5q0 32 5 57l53 298h34l-53 -298q-5 -30 -5 -50q0 -73 43 -110t109 -37q54 0 101 24.5t79.5 69t42.5 103.5l53 298h34zM263 661h280l-5 -26h-280z" />
    <glyph glyph-name="uogonek" unicode="&#x173;" horiz-adv-x="612" 
d="M448 -38q-20 -19 -20 -46q0 -15 11.5 -25.5t37.5 -10.5q15 0 41 4l-5 -28q-22 -5 -46 -5q-33 0 -52.5 16t-19.5 43q0 36 25 62.5t63 45.5l10 -11l19 109h-6q-32 -52 -87 -88.5t-126 -36.5q-80 0 -125 48.5t-45 130.5q0 32 5 57l53 298h34l-53 -298q-5 -30 -5 -50
q0 -73 43 -110t109 -37q54 0 101 24.5t79.5 69t42.5 103.5l53 298h34l-93 -525h-26q-32 -19 -52 -38z" />
    <glyph glyph-name="uring" unicode="&#x16f;" horiz-adv-x="612" 
d="M526 0h-34l20 116h-6q-32 -52 -87 -88.5t-126 -36.5q-80 0 -125 48.5t-45 130.5q0 32 5 57l53 298h34l-53 -298q-5 -30 -5 -50q0 -73 43 -110t109 -37q54 0 101 24.5t79.5 69t42.5 103.5l53 298h34zM351 642q-18 18 -18 45q0 34 27.5 61t61.5 27q28 0 46 -18t18 -44
q0 -35 -27.5 -62t-62.5 -27q-27 0 -45 18zM443.5 666q19.5 19 19.5 43q0 18 -13 30.5t-32 12.5q-24 0 -43 -18.5t-19 -42.5q0 -19 12.5 -31.5t31.5 -12.5q24 0 43.5 19z" />
    <glyph glyph-name="utilde" unicode="&#x169;" horiz-adv-x="612" 
d="M526 0h-34l20 116h-6q-32 -52 -87 -88.5t-126 -36.5q-80 0 -125 48.5t-45 130.5q0 32 5 57l53 298h34l-53 -298q-5 -30 -5 -50q0 -73 43 -110t109 -37q54 0 101 24.5t79.5 69t42.5 103.5l53 298h34zM354 716q18 0 31 -5.5t29 -16.5q16 -10 26 -15t24 -5q38 0 66 42h38
q-45 -73 -109 -73q-18 0 -31 5.5t-29 16.5q-15 10 -26 15t-25 5q-37 0 -65 -42h-38q45 73 109 73z" />
    <glyph glyph-name="v" unicode="v" horiz-adv-x="549" 
d="M138 525h37l105 -484h4l276 484h37l-300 -525h-46z" />
    <glyph glyph-name="w" unicode="w" horiz-adv-x="812" 
d="M139 525h36l58 -486h3l247 486h33l76 -486h3l229 486h36l-248 -525h-52l-71 453h-6l-230 -453h-52z" />
    <glyph glyph-name="wacute" unicode="&#x1e83;" horiz-adv-x="812" 
d="M139 525h36l58 -486h3l247 486h33l76 -486h3l229 486h36l-248 -525h-52l-71 453h-6l-230 -453h-52zM500 592l125 164h46l-142 -164h-29z" />
    <glyph glyph-name="wcircumflex" unicode="&#x175;" horiz-adv-x="812" 
d="M139 525h36l58 -486h3l247 486h33l76 -486h3l229 486h36l-248 -525h-52l-71 453h-6l-230 -453h-52zM511 728h46l97 -133h-45l-77 105h-4l-115 -105h-45z" />
    <glyph glyph-name="wdieresis" unicode="&#x1e85;" horiz-adv-x="812" 
d="M139 525h36l58 -486h3l247 486h33l76 -486h3l229 486h36l-248 -525h-52l-71 453h-6l-230 -453h-52zM563 639q-8 9 -8 22q0 16 12.5 28.5t28.5 12.5q13 0 22 -9t9 -21q0 -16 -13 -29t-30 -13q-13 0 -21 9zM424 639q-8 9 -8 22q0 16 12.5 28.5t28.5 12.5q13 0 22 -9t9 -21
q0 -16 -13 -29t-30 -13q-13 0 -21 9z" />
    <glyph glyph-name="wgrave" unicode="&#x1e81;" horiz-adv-x="812" 
d="M139 525h36l58 -486h3l247 486h33l76 -486h3l229 486h36l-248 -525h-52l-71 453h-6l-230 -453h-52zM409 756h46l67 -164h-29z" />
    <glyph glyph-name="x" unicode="x" horiz-adv-x="535" 
d="M275 264l-141 261h43l126 -245h2l211 245h43l-229 -261l135 -264h-43l-123 243h-2l-211 -243h-44z" />
    <glyph glyph-name="y" unicode="y" horiz-adv-x="461" 
d="M121 -153q-34 -31 -90 -31q-28 0 -46 6l5 31q22 -5 43 -5q32 0 54 13t38.5 35.5t42.5 67.5l44 75l-114 486h39l100 -447h6l269 447h39l-365 -595q-31 -52 -65 -83z" />
    <glyph glyph-name="yacute" unicode="&#xfd;" horiz-adv-x="461" 
d="M121 -153q-34 -31 -90 -31q-28 0 -46 6l5 31q22 -5 43 -5q32 0 54 13t38.5 35.5t42.5 67.5l44 75l-114 486h39l100 -447h6l269 447h39l-365 -595q-31 -52 -65 -83zM320 592l125 164h46l-142 -164h-29z" />
    <glyph glyph-name="ycircumflex" unicode="&#x177;" horiz-adv-x="461" 
d="M121 -153q-34 -31 -90 -31q-28 0 -46 6l5 31q22 -5 43 -5q32 0 54 13t38.5 35.5t42.5 67.5l44 75l-114 486h39l100 -447h6l269 447h39l-365 -595q-31 -52 -65 -83zM331 728h46l97 -133h-45l-77 105h-4l-115 -105h-45z" />
    <glyph glyph-name="ydieresis" unicode="&#xff;" horiz-adv-x="461" 
d="M121 -153q-34 -31 -90 -31q-28 0 -46 6l5 31q22 -5 43 -5q32 0 54 13t38.5 35.5t42.5 67.5l44 75l-114 486h39l100 -447h6l269 447h39l-365 -595q-31 -52 -65 -83zM383 639q-8 9 -8 22q0 16 12.5 28.5t28.5 12.5q13 0 22 -9t9 -21q0 -16 -13 -29t-30 -13q-13 0 -21 9z
M244 639q-8 9 -8 22q0 16 12.5 28.5t28.5 12.5q13 0 22 -9t9 -21q0 -16 -13 -29t-30 -13q-13 0 -21 9z" />
    <glyph glyph-name="uni1EF5" unicode="&#x1ef5;" horiz-adv-x="461" 
d="M121 -153q-34 -31 -90 -31q-28 0 -46 6l5 31q22 -5 43 -5q32 0 54 13t38.5 35.5t42.5 67.5l44 75l-114 486h39l100 -447h6l269 447h39l-365 -595q-31 -52 -65 -83zM290 -193q-9 9 -9 23q0 17 13 30t30 13q14 0 23.5 -9t9.5 -22q0 -17 -14 -30.5t-31 -13.5q-13 0 -22 9z
" />
    <glyph glyph-name="ygrave" unicode="&#x1ef3;" horiz-adv-x="461" 
d="M121 -153q-34 -31 -90 -31q-28 0 -46 6l5 31q22 -5 43 -5q32 0 54 13t38.5 35.5t42.5 67.5l44 75l-114 486h39l100 -447h6l269 447h39l-365 -595q-31 -52 -65 -83zM229 756h46l67 -164h-29z" />
    <glyph glyph-name="uni1EF7" unicode="&#x1ef7;" horiz-adv-x="461" 
d="M121 -153q-34 -31 -90 -31q-28 0 -46 6l5 31q22 -5 43 -5q32 0 54 13t38.5 35.5t42.5 67.5l44 75l-114 486h39l100 -447h6l269 447h39l-365 -595q-31 -52 -65 -83zM329 609.5q9 7.5 25 18.5q24 15 36 28t12 34q0 15 -11 25.5t-34 10.5q-22 0 -36 -9.5t-21 -23.5h-34
q13 28 37 45.5t59 17.5q33 0 53 -16.5t20 -42.5q0 -28 -12 -42.5t-36 -31.5q-14 -9 -21.5 -15.5t-12.5 -15.5h-38q5 10 14 17.5z" />
    <glyph glyph-name="uni1EF9" unicode="&#x1ef9;" horiz-adv-x="461" 
d="M121 -153q-34 -31 -90 -31q-28 0 -46 6l5 31q22 -5 43 -5q32 0 54 13t38.5 35.5t42.5 67.5l44 75l-114 486h39l100 -447h6l269 447h39l-365 -595q-31 -52 -65 -83zM294 716q18 0 31 -5.5t29 -16.5q16 -10 26 -15t24 -5q38 0 66 42h38q-45 -73 -109 -73q-18 0 -31 5.5
t-29 16.5q-15 10 -26 15t-25 5q-37 0 -65 -42h-38q45 73 109 73z" />
    <glyph glyph-name="z" unicode="z" horiz-adv-x="502" 
d="M57 30l439 459l1 2h-335l6 34h380l-6 -30l-439 -459v-2h358l-6 -34h-403z" />
    <glyph glyph-name="zacute" unicode="&#x17a;" horiz-adv-x="502" 
d="M57 30l439 459l1 2h-335l6 34h380l-6 -30l-439 -459v-2h358l-6 -34h-403zM350 592l125 164h46l-142 -164h-29z" />
    <glyph glyph-name="zcaron" unicode="&#x17e;" horiz-adv-x="502" 
d="M57 30l439 459l1 2h-335l6 34h380l-6 -30l-439 -459v-2h358l-6 -34h-403zM287 728l77 -105h4l115 105h45l-143 -133h-46l-97 133h45z" />
    <glyph glyph-name="zdotaccent" unicode="&#x17c;" horiz-adv-x="502" 
d="M57 30l439 459l1 2h-335l6 34h380l-6 -30l-439 -459v-2h358l-6 -34h-403zM345 639q-8 9 -8 22q0 16 12.5 28.5t28.5 12.5q13 0 22 -9t9 -21q0 -16 -13 -29t-30 -13q-13 0 -21 9z" />
    <glyph glyph-name="a.ss01" horiz-adv-x="560" 
d="M123 29q-44 34 -44 94q0 79 56.5 122.5t159.5 43.5h200l10 60q3 15 3 36q0 52 -31 88t-112 36q-56 0 -97.5 -18.5t-64 -51t-22.5 -73.5v-2h-30v2q0 62 33 101.5t83.5 57t103.5 17.5q82 0 127 -39.5t45 -110.5q0 -23 -4 -43l-61 -349h-35l18 103h-8q-20 -31 -71.5 -69.5
t-139.5 -38.5q-75 0 -119 34zM359 57.5q50 24.5 81 63t38 79.5l10 56h-199q-68 0 -120 -24.5t-52 -103.5q0 -46 34.5 -70.5t95.5 -24.5q62 0 112 24.5z" />
    <glyph glyph-name="aacute.ss01" horiz-adv-x="560" 
d="M123 29q-44 34 -44 94q0 79 56.5 122.5t159.5 43.5h200l10 60q3 15 3 36q0 52 -31 88t-112 36q-56 0 -97.5 -18.5t-64 -51t-22.5 -73.5v-2h-30v2q0 62 33 101.5t83.5 57t103.5 17.5q82 0 127 -39.5t45 -110.5q0 -23 -4 -43l-61 -349h-35l18 103h-8q-20 -31 -71.5 -69.5
t-139.5 -38.5q-75 0 -119 34zM359 57.5q50 24.5 81 63t38 79.5l10 56h-199q-68 0 -120 -24.5t-52 -103.5q0 -46 34.5 -70.5t95.5 -24.5q62 0 112 24.5zM377 609l125 164h46l-142 -164h-29z" />
    <glyph glyph-name="abreve.ss01" horiz-adv-x="560" 
d="M123 29q-44 34 -44 94q0 79 56.5 122.5t159.5 43.5h200l10 60q3 15 3 36q0 52 -31 88t-112 36q-56 0 -97.5 -18.5t-64 -51t-22.5 -73.5v-2h-30v2q0 62 33 101.5t83.5 57t103.5 17.5q82 0 127 -39.5t45 -110.5q0 -23 -4 -43l-61 -349h-35l18 103h-8q-20 -31 -71.5 -69.5
t-139.5 -38.5q-75 0 -119 34zM359 57.5q50 24.5 81 63t38 79.5l10 56h-199q-68 0 -120 -24.5t-52 -103.5q0 -46 34.5 -70.5t95.5 -24.5q62 0 112 24.5zM307 651q-33 21 -53 66h38q27 -57 105 -57q79 0 125 57h38q-37 -46 -76.5 -66.5t-91.5 -20.5t-85 21z" />
    <glyph glyph-name="uni1EAF.ss01" horiz-adv-x="560" 
d="M123 29q-44 34 -44 94q0 79 56.5 122.5t159.5 43.5h200l10 60q3 15 3 36q0 52 -31 88t-112 36q-56 0 -97.5 -18.5t-64 -51t-22.5 -73.5v-2h-30v2q0 62 33 101.5t83.5 57t103.5 17.5q82 0 127 -39.5t45 -110.5q0 -23 -4 -43l-61 -349h-35l18 103h-8q-20 -31 -71.5 -69.5
t-139.5 -38.5q-75 0 -119 34zM359 57.5q50 24.5 81 63t38 79.5l10 56h-199q-68 0 -120 -24.5t-52 -103.5q0 -46 34.5 -70.5t95.5 -24.5q62 0 112 24.5zM306 651q-33 21 -53 66h38q27 -57 105 -57q79 0 125 57h38q-37 -46 -76.5 -66.5t-91.5 -20.5t-85 21zM397 727l125 164
h46l-142 -164h-29z" />
    <glyph glyph-name="uni1EB7.ss01" horiz-adv-x="560" 
d="M123 29q-44 34 -44 94q0 79 56.5 122.5t159.5 43.5h200l10 60q3 15 3 36q0 52 -31 88t-112 36q-56 0 -97.5 -18.5t-64 -51t-22.5 -73.5v-2h-30v2q0 62 33 101.5t83.5 57t103.5 17.5q82 0 127 -39.5t45 -110.5q0 -23 -4 -43l-61 -349h-35l18 103h-8q-20 -31 -71.5 -69.5
t-139.5 -38.5q-75 0 -119 34zM359 57.5q50 24.5 81 63t38 79.5l10 56h-199q-68 0 -120 -24.5t-52 -103.5q0 -46 34.5 -70.5t95.5 -24.5q62 0 112 24.5zM307 651q-33 21 -53 66h38q27 -57 105 -57q79 0 125 57h38q-37 -46 -76.5 -66.5t-91.5 -20.5t-85 21zM221 -193
q-9 9 -9 23q0 17 13 30t30 13q14 0 23.5 -9t9.5 -22q0 -17 -14 -30.5t-31 -13.5q-13 0 -22 9z" />
    <glyph glyph-name="uni1EB1.ss01" horiz-adv-x="560" 
d="M123 29q-44 34 -44 94q0 79 56.5 122.5t159.5 43.5h200l10 60q3 15 3 36q0 52 -31 88t-112 36q-56 0 -97.5 -18.5t-64 -51t-22.5 -73.5v-2h-30v2q0 62 33 101.5t83.5 57t103.5 17.5q82 0 127 -39.5t45 -110.5q0 -23 -4 -43l-61 -349h-35l18 103h-8q-20 -31 -71.5 -69.5
t-139.5 -38.5q-75 0 -119 34zM359 57.5q50 24.5 81 63t38 79.5l10 56h-199q-68 0 -120 -24.5t-52 -103.5q0 -46 34.5 -70.5t95.5 -24.5q62 0 112 24.5zM306 651q-33 21 -53 66h38q27 -57 105 -57q79 0 125 57h38q-37 -46 -76.5 -66.5t-91.5 -20.5t-85 21zM306 891h46
l67 -164h-29z" />
    <glyph glyph-name="uni1EB3.ss01" horiz-adv-x="560" 
d="M123 29q-44 34 -44 94q0 79 56.5 122.5t159.5 43.5h200l10 60q3 15 3 36q0 52 -31 88t-112 36q-56 0 -97.5 -18.5t-64 -51t-22.5 -73.5v-2h-30v2q0 62 33 101.5t83.5 57t103.5 17.5q82 0 127 -39.5t45 -110.5q0 -23 -4 -43l-61 -349h-35l18 103h-8q-20 -31 -71.5 -69.5
t-139.5 -38.5q-75 0 -119 34zM359 57.5q50 24.5 81 63t38 79.5l10 56h-199q-68 0 -120 -24.5t-52 -103.5q0 -46 34.5 -70.5t95.5 -24.5q62 0 112 24.5zM306 651q-33 21 -53 66h38q27 -57 105 -57q79 0 125 57h38q-37 -46 -76.5 -66.5t-91.5 -20.5t-85 21zM406 744.5
q9 7.5 25 18.5q24 15 36 28t12 34q0 15 -11 25.5t-34 10.5q-22 0 -36 -9.5t-21 -23.5h-34q13 28 37 45.5t59 17.5q33 0 53 -16.5t20 -42.5q0 -28 -12 -42.5t-36 -31.5q-14 -9 -21.5 -15.5t-12.5 -15.5h-38q5 10 14 17.5z" />
    <glyph glyph-name="uni1EB5.ss01" horiz-adv-x="560" 
d="M123 29q-44 34 -44 94q0 79 56.5 122.5t159.5 43.5h200l10 60q3 15 3 36q0 52 -31 88t-112 36q-56 0 -97.5 -18.5t-64 -51t-22.5 -73.5v-2h-30v2q0 62 33 101.5t83.5 57t103.5 17.5q82 0 127 -39.5t45 -110.5q0 -23 -4 -43l-61 -349h-35l18 103h-8q-20 -31 -71.5 -69.5
t-139.5 -38.5q-75 0 -119 34zM359 57.5q50 24.5 81 63t38 79.5l10 56h-199q-68 0 -120 -24.5t-52 -103.5q0 -46 34.5 -70.5t95.5 -24.5q62 0 112 24.5zM306 651q-33 21 -53 66h38q27 -57 105 -57q79 0 125 57h38q-37 -46 -76.5 -66.5t-91.5 -20.5t-85 21zM371 851
q18 0 31 -5.5t29 -16.5q16 -10 26 -15t24 -5q38 0 66 42h38q-45 -73 -109 -73q-18 0 -31 5.5t-29 16.5q-15 10 -26 15t-25 5q-37 0 -65 -42h-38q45 73 109 73z" />
    <glyph glyph-name="acircumflex.ss01" horiz-adv-x="560" 
d="M123 29q-44 34 -44 94q0 79 56.5 122.5t159.5 43.5h200l10 60q3 15 3 36q0 52 -31 88t-112 36q-56 0 -97.5 -18.5t-64 -51t-22.5 -73.5v-2h-30v2q0 62 33 101.5t83.5 57t103.5 17.5q82 0 127 -39.5t45 -110.5q0 -23 -4 -43l-61 -349h-35l18 103h-8q-20 -31 -71.5 -69.5
t-139.5 -38.5q-75 0 -119 34zM359 57.5q50 24.5 81 63t38 79.5l10 56h-199q-68 0 -120 -24.5t-52 -103.5q0 -46 34.5 -70.5t95.5 -24.5q62 0 112 24.5zM388 745h46l97 -133h-45l-77 105h-4l-115 -105h-45z" />
    <glyph glyph-name="uni1EA5.ss01" horiz-adv-x="560" 
d="M123 29q-44 34 -44 94q0 79 56.5 122.5t159.5 43.5h200l10 60q3 15 3 36q0 52 -31 88t-112 36q-56 0 -97.5 -18.5t-64 -51t-22.5 -73.5v-2h-30v2q0 62 33 101.5t83.5 57t103.5 17.5q82 0 127 -39.5t45 -110.5q0 -23 -4 -43l-61 -349h-35l18 103h-8q-20 -31 -71.5 -69.5
t-139.5 -38.5q-75 0 -119 34zM359 57.5q50 24.5 81 63t38 79.5l10 56h-199q-68 0 -120 -24.5t-52 -103.5q0 -46 34.5 -70.5t95.5 -24.5q62 0 112 24.5zM388 745h46l97 -133h-45l-77 105h-4l-115 -105h-45zM518 732l125 164h46l-142 -164h-29z" />
    <glyph glyph-name="uni1EAD.ss01" horiz-adv-x="560" 
d="M123 29q-44 34 -44 94q0 79 56.5 122.5t159.5 43.5h200l10 60q3 15 3 36q0 52 -31 88t-112 36q-56 0 -97.5 -18.5t-64 -51t-22.5 -73.5v-2h-30v2q0 62 33 101.5t83.5 57t103.5 17.5q82 0 127 -39.5t45 -110.5q0 -23 -4 -43l-61 -349h-35l18 103h-8q-20 -31 -71.5 -69.5
t-139.5 -38.5q-75 0 -119 34zM359 57.5q50 24.5 81 63t38 79.5l10 56h-199q-68 0 -120 -24.5t-52 -103.5q0 -46 34.5 -70.5t95.5 -24.5q62 0 112 24.5zM388 745h46l97 -133h-45l-77 105h-4l-115 -105h-45zM221 -193q-9 9 -9 23q0 17 13 30t30 13q14 0 23.5 -9t9.5 -22
q0 -17 -14 -30.5t-31 -13.5q-13 0 -22 9z" />
    <glyph glyph-name="uni1EA7.ss01" horiz-adv-x="560" 
d="M123 29q-44 34 -44 94q0 79 56.5 122.5t159.5 43.5h200l10 60q3 15 3 36q0 52 -31 88t-112 36q-56 0 -97.5 -18.5t-64 -51t-22.5 -73.5v-2h-30v2q0 62 33 101.5t83.5 57t103.5 17.5q82 0 127 -39.5t45 -110.5q0 -23 -4 -43l-61 -349h-35l18 103h-8q-20 -31 -71.5 -69.5
t-139.5 -38.5q-75 0 -119 34zM359 57.5q50 24.5 81 63t38 79.5l10 56h-199q-68 0 -120 -24.5t-52 -103.5q0 -46 34.5 -70.5t95.5 -24.5q62 0 112 24.5zM388 745h46l97 -133h-45l-77 105h-4l-115 -105h-45zM427 896h46l67 -164h-29z" />
    <glyph glyph-name="uni1EA9.ss01" horiz-adv-x="560" 
d="M123 29q-44 34 -44 94q0 79 56.5 122.5t159.5 43.5h200l10 60q3 15 3 36q0 52 -31 88t-112 36q-56 0 -97.5 -18.5t-64 -51t-22.5 -73.5v-2h-30v2q0 62 33 101.5t83.5 57t103.5 17.5q82 0 127 -39.5t45 -110.5q0 -23 -4 -43l-61 -349h-35l18 103h-8q-20 -31 -71.5 -69.5
t-139.5 -38.5q-75 0 -119 34zM359 57.5q50 24.5 81 63t38 79.5l10 56h-199q-68 0 -120 -24.5t-52 -103.5q0 -46 34.5 -70.5t95.5 -24.5q62 0 112 24.5zM388 745h46l97 -133h-45l-77 105h-4l-115 -105h-45zM527 749.5q9 7.5 25 18.5q24 15 36 28t12 34q0 15 -11 25.5
t-34 10.5q-22 0 -36 -9.5t-21 -23.5h-34q13 28 37 45.5t59 17.5q33 0 53 -16.5t20 -42.5q0 -28 -12 -42.5t-36 -31.5q-14 -9 -21.5 -15.5t-12.5 -15.5h-38q5 10 14 17.5z" />
    <glyph glyph-name="uni1EAB.ss01" horiz-adv-x="560" 
d="M123 29q-44 34 -44 94q0 79 56.5 122.5t159.5 43.5h200l10 60q3 15 3 36q0 52 -31 88t-112 36q-56 0 -97.5 -18.5t-64 -51t-22.5 -73.5v-2h-30v2q0 62 33 101.5t83.5 57t103.5 17.5q82 0 127 -39.5t45 -110.5q0 -23 -4 -43l-61 -349h-35l18 103h-8q-20 -31 -71.5 -69.5
t-139.5 -38.5q-75 0 -119 34zM359 57.5q50 24.5 81 63t38 79.5l10 56h-199q-68 0 -120 -24.5t-52 -103.5q0 -46 34.5 -70.5t95.5 -24.5q62 0 112 24.5zM388 745h46l97 -133h-45l-77 105h-4l-115 -105h-45zM354 868q18 0 31 -5.5t29 -16.5q16 -10 26 -15t24 -5q38 0 66 42h38
q-45 -73 -109 -73q-18 0 -31 5.5t-29 16.5q-15 10 -26 15t-25 5q-37 0 -65 -42h-38q45 73 109 73z" />
    <glyph glyph-name="adieresis.ss01" horiz-adv-x="560" 
d="M123 29q-44 34 -44 94q0 79 56.5 122.5t159.5 43.5h200l10 60q3 15 3 36q0 52 -31 88t-112 36q-56 0 -97.5 -18.5t-64 -51t-22.5 -73.5v-2h-30v2q0 62 33 101.5t83.5 57t103.5 17.5q82 0 127 -39.5t45 -110.5q0 -23 -4 -43l-61 -349h-35l18 103h-8q-20 -31 -71.5 -69.5
t-139.5 -38.5q-75 0 -119 34zM359 57.5q50 24.5 81 63t38 79.5l10 56h-199q-68 0 -120 -24.5t-52 -103.5q0 -46 34.5 -70.5t95.5 -24.5q62 0 112 24.5zM440 656q-8 9 -8 22q0 16 12.5 28.5t28.5 12.5q13 0 22 -9t9 -21q0 -16 -13 -29t-30 -13q-13 0 -21 9zM301 656
q-8 9 -8 22q0 16 12.5 28.5t28.5 12.5q13 0 22 -9t9 -21q0 -16 -13 -29t-30 -13q-13 0 -21 9z" />
    <glyph glyph-name="uni1EA1.ss01" horiz-adv-x="560" 
d="M123 29q-44 34 -44 94q0 79 56.5 122.5t159.5 43.5h200l10 60q3 15 3 36q0 52 -31 88t-112 36q-56 0 -97.5 -18.5t-64 -51t-22.5 -73.5v-2h-30v2q0 62 33 101.5t83.5 57t103.5 17.5q82 0 127 -39.5t45 -110.5q0 -23 -4 -43l-61 -349h-35l18 103h-8q-20 -31 -71.5 -69.5
t-139.5 -38.5q-75 0 -119 34zM359 57.5q50 24.5 81 63t38 79.5l10 56h-199q-68 0 -120 -24.5t-52 -103.5q0 -46 34.5 -70.5t95.5 -24.5q62 0 112 24.5zM221 -193q-9 9 -9 23q0 17 13 30t30 13q14 0 23.5 -9t9.5 -22q0 -17 -14 -30.5t-31 -13.5q-13 0 -22 9z" />
    <glyph glyph-name="agrave.ss01" horiz-adv-x="560" 
d="M123 29q-44 34 -44 94q0 79 56.5 122.5t159.5 43.5h200l10 60q3 15 3 36q0 52 -31 88t-112 36q-56 0 -97.5 -18.5t-64 -51t-22.5 -73.5v-2h-30v2q0 62 33 101.5t83.5 57t103.5 17.5q82 0 127 -39.5t45 -110.5q0 -23 -4 -43l-61 -349h-35l18 103h-8q-20 -31 -71.5 -69.5
t-139.5 -38.5q-75 0 -119 34zM359 57.5q50 24.5 81 63t38 79.5l10 56h-199q-68 0 -120 -24.5t-52 -103.5q0 -46 34.5 -70.5t95.5 -24.5q62 0 112 24.5zM286 773h46l67 -164h-29z" />
    <glyph glyph-name="uni1EA3.ss01" horiz-adv-x="560" 
d="M123 29q-44 34 -44 94q0 79 56.5 122.5t159.5 43.5h200l10 60q3 15 3 36q0 52 -31 88t-112 36q-56 0 -97.5 -18.5t-64 -51t-22.5 -73.5v-2h-30v2q0 62 33 101.5t83.5 57t103.5 17.5q82 0 127 -39.5t45 -110.5q0 -23 -4 -43l-61 -349h-35l18 103h-8q-20 -31 -71.5 -69.5
t-139.5 -38.5q-75 0 -119 34zM359 57.5q50 24.5 81 63t38 79.5l10 56h-199q-68 0 -120 -24.5t-52 -103.5q0 -46 34.5 -70.5t95.5 -24.5q62 0 112 24.5zM386 626.5q9 7.5 25 18.5q24 15 36 28t12 34q0 15 -11 25.5t-34 10.5q-22 0 -36 -9.5t-21 -23.5h-34q13 28 37 45.5
t59 17.5q33 0 53 -16.5t20 -42.5q0 -28 -12 -42.5t-36 -31.5q-14 -9 -21.5 -15.5t-12.5 -15.5h-38q5 10 14 17.5z" />
    <glyph glyph-name="amacron.ss01" horiz-adv-x="560" 
d="M123 29q-44 34 -44 94q0 79 56.5 122.5t159.5 43.5h200l10 60q3 15 3 36q0 52 -31 88t-112 36q-56 0 -97.5 -18.5t-64 -51t-22.5 -73.5v-2h-30v2q0 62 33 101.5t83.5 57t103.5 17.5q82 0 127 -39.5t45 -110.5q0 -23 -4 -43l-61 -349h-35l18 103h-8q-20 -31 -71.5 -69.5
t-139.5 -38.5q-75 0 -119 34zM359 57.5q50 24.5 81 63t38 79.5l10 56h-199q-68 0 -120 -24.5t-52 -103.5q0 -46 34.5 -70.5t95.5 -24.5q62 0 112 24.5zM260 678h280l-5 -26h-280z" />
    <glyph glyph-name="aring.ss01" horiz-adv-x="560" 
d="M123 29q-44 34 -44 94q0 79 56.5 122.5t159.5 43.5h200l10 60q3 15 3 36q0 52 -31 88t-112 36q-56 0 -97.5 -18.5t-64 -51t-22.5 -73.5v-2h-30v2q0 62 33 101.5t83.5 57t103.5 17.5q82 0 127 -39.5t45 -110.5q0 -23 -4 -43l-61 -349h-35l18 103h-8q-20 -31 -71.5 -69.5
t-139.5 -38.5q-75 0 -119 34zM359 57.5q50 24.5 81 63t38 79.5l10 56h-199q-68 0 -120 -24.5t-52 -103.5q0 -46 34.5 -70.5t95.5 -24.5q62 0 112 24.5zM348 659q-18 18 -18 45q0 34 27.5 61t61.5 27q28 0 46 -18t18 -44q0 -35 -27.5 -62t-62.5 -27q-27 0 -45 18zM440.5 683
q19.5 19 19.5 43q0 18 -13 30.5t-32 12.5q-24 0 -43 -18.5t-19 -42.5q0 -19 12.5 -31.5t31.5 -12.5q24 0 43.5 19z" />
    <glyph glyph-name="atilde.ss01" horiz-adv-x="560" 
d="M123 29q-44 34 -44 94q0 79 56.5 122.5t159.5 43.5h200l10 60q3 15 3 36q0 52 -31 88t-112 36q-56 0 -97.5 -18.5t-64 -51t-22.5 -73.5v-2h-30v2q0 62 33 101.5t83.5 57t103.5 17.5q82 0 127 -39.5t45 -110.5q0 -23 -4 -43l-61 -349h-35l18 103h-8q-20 -31 -71.5 -69.5
t-139.5 -38.5q-75 0 -119 34zM359 57.5q50 24.5 81 63t38 79.5l10 56h-199q-68 0 -120 -24.5t-52 -103.5q0 -46 34.5 -70.5t95.5 -24.5q62 0 112 24.5zM351 733q18 0 31 -5.5t29 -16.5q16 -10 26 -15t24 -5q38 0 66 42h38q-45 -73 -109 -73q-18 0 -31 5.5t-29 16.5
q-15 10 -26 15t-25 5q-37 0 -65 -42h-38q45 73 109 73z" />
    <glyph glyph-name="ae.ss01" horiz-adv-x="971" 
d="M901.5 494q52.5 -48 52.5 -146q0 -31 -6 -67l-4 -24h-424l-4 -23q-4 -28 -4 -40q0 -72 43.5 -117.5t121.5 -45.5q82 0 138.5 43.5t79.5 114.5h33q-14 -50 -48.5 -94.5t-87.5 -72t-121 -27.5q-73 0 -123.5 36.5t-66.5 97.5q-42 -67 -107.5 -100.5t-134.5 -33.5
q-71 0 -113.5 33t-42.5 91q0 95 71.5 132.5t174.5 37.5h160l4 21q2 14 6 25l1 7q3 24 3 31q0 51 -31.5 91t-112.5 40q-76 0 -122 -35.5t-65 -82.5h-35q27 71 89.5 111t140.5 40q69 0 113 -32t53 -94q38 60 100.5 95.5t133.5 35.5q82 0 134.5 -48zM918 342q0 72 -40.5 118
t-116.5 46q-60 0 -110 -27t-82.5 -73.5t-41.5 -103.5l-2 -13h388l2 13q3 21 3 40zM357.5 57.5q49.5 24.5 79.5 62.5t37 80l1 8l3 18l6 31h-160q-78 0 -141 -24t-63 -109q0 -44 33.5 -67.5t92.5 -23.5q62 0 111.5 24.5z" />
    <glyph glyph-name="b.ss01" horiz-adv-x="623" 
d="M215.5 30q-43.5 35 -61.5 92h-7l-22 -122h-34l132 750h34l-59 -334h7q85 126 219 126q60 0 105.5 -24.5t70 -67.5t24.5 -97q0 -23 -4 -43l-15 -84q-11 -64 -50.5 -117t-98.5 -83.5t-125 -30.5q-72 0 -115.5 35zM442.5 56.5q50.5 25.5 83.5 70t43 99.5l15 84q4 26 4 38
q0 70 -46 114t-124 44q-58 0 -108 -25.5t-83 -70.5t-43 -100l-15 -84q-4 -26 -4 -38q0 -70 46 -113.5t123 -43.5q58 0 108.5 25.5z" />
    <glyph glyph-name="c.ss01" horiz-adv-x="570" 
d="M192 19.5q-45 24.5 -69.5 67t-24.5 96.5q0 23 4 43l15 84q11 64 51 117t99 84t126 31q63 0 105 -25t62 -65.5t20 -87.5l-1 -17h-33q2 71 -38.5 115t-121.5 44q-61 0 -110.5 -27.5t-82 -74t-42.5 -102.5l-12 -68q-4 -19 -4 -41q0 -71 44.5 -116.5t123.5 -45.5
q81 0 137 43.5t78 114.5h33q-14 -50 -48 -94.5t-87 -72t-120 -27.5q-59 0 -104 24.5z" />
    <glyph glyph-name="cacute.ss01" horiz-adv-x="570" 
d="M192 19.5q-45 24.5 -69.5 67t-24.5 96.5q0 23 4 43l15 84q11 64 51 117t99 84t126 31q63 0 105 -25t62 -65.5t20 -87.5l-1 -17h-33q2 71 -38.5 115t-121.5 44q-61 0 -110.5 -27.5t-82 -74t-42.5 -102.5l-12 -68q-4 -19 -4 -41q0 -71 44.5 -116.5t123.5 -45.5
q81 0 137 43.5t78 114.5h33q-14 -50 -48 -94.5t-87 -72t-120 -27.5q-59 0 -104 24.5zM391 592l125 164h46l-142 -164h-29z" />
    <glyph glyph-name="ccaron.ss01" horiz-adv-x="570" 
d="M192 19.5q-45 24.5 -69.5 67t-24.5 96.5q0 23 4 43l15 84q11 64 51 117t99 84t126 31q63 0 105 -25t62 -65.5t20 -87.5l-1 -17h-33q2 71 -38.5 115t-121.5 44q-61 0 -110.5 -27.5t-82 -74t-42.5 -102.5l-12 -68q-4 -19 -4 -41q0 -71 44.5 -116.5t123.5 -45.5
q81 0 137 43.5t78 114.5h33q-14 -50 -48 -94.5t-87 -72t-120 -27.5q-59 0 -104 24.5zM328 728l77 -105h4l115 105h45l-143 -133h-46l-97 133h45z" />
    <glyph glyph-name="ccedilla.ss01" horiz-adv-x="570" 
d="M546 347q2 71 -38.5 115t-121.5 44q-61 0 -110.5 -27.5t-82 -74t-42.5 -102.5l-12 -68q-4 -19 -4 -41q0 -71 44.5 -116.5t123.5 -45.5q81 0 137 43.5t78 114.5h33q-20 -72 -79.5 -128t-146.5 -65l-35 -66h36q40 0 60.5 -17.5t20.5 -46.5q0 -30 -17 -56t-48 -42t-69 -16
q-25 0 -45 5l7 30q26 -4 47 -4q40 0 66 21t26 54q0 41 -58 41h-76l1 4l49 92q-57 1 -101 26t-67.5 67t-23.5 95q0 23 4 43l15 84q11 64 51 117t99 84t126 31q63 0 105 -25t62 -65.5t20 -87.5l-1 -17h-33z" />
    <glyph glyph-name="cdotaccent.ss01" horiz-adv-x="570" 
d="M192 19.5q-45 24.5 -69.5 67t-24.5 96.5q0 23 4 43l15 84q11 64 51 117t99 84t126 31q63 0 105 -25t62 -65.5t20 -87.5l-1 -17h-33q2 71 -38.5 115t-121.5 44q-61 0 -110.5 -27.5t-82 -74t-42.5 -102.5l-12 -68q-4 -19 -4 -41q0 -71 44.5 -116.5t123.5 -45.5
q81 0 137 43.5t78 114.5h33q-14 -50 -48 -94.5t-87 -72t-120 -27.5q-59 0 -104 24.5zM386 639q-8 9 -8 22q0 16 12.5 28.5t28.5 12.5q13 0 22 -9t9 -21q0 -16 -13 -29t-30 -13q-13 0 -21 9z" />
    <glyph glyph-name="d.ss01" horiz-adv-x="623" 
d="M187.5 19.5q-44.5 24.5 -69 67t-24.5 96.5q0 23 4 43l15 84q11 64 51 117t99.5 84t127.5 31q73 0 114.5 -35t59.5 -91h7l58 334h34l-132 -750h-34l22 122h-7q-87 -127 -223 -127q-58 0 -102.5 24.5zM408 56.5q50 25.5 83 70t43 99.5l15 84q4 26 4 38q0 70 -46 114
t-124 44q-58 0 -108 -25.5t-83 -70.5t-43 -100l-15 -84q-4 -26 -4 -38q0 -70 46 -113.5t124 -43.5q58 0 108 25.5z" />
    <glyph glyph-name="eth.ss01" horiz-adv-x="611" 
d="M189.5 19.5q-45.5 24.5 -70 67.5t-24.5 97q0 22 4 42l15 84q11 64 51 117t99.5 84t127.5 31q73 0 114.5 -35t59.5 -91h19v3q0 99 -15.5 160t-48.5 95l-110 -58l-11 25l99 52q-32 25 -66 34t-52 9l5 29q26 0 67.5 -11.5t78.5 -43.5l103 54l10 -25l-92 -48q61 -68 61 -182
q0 -42 -9 -93l-34 -190q-11 -64 -51 -117t-99.5 -83.5t-126.5 -30.5q-59 0 -104.5 24.5zM408 56.5q50 25.5 83.5 70t43.5 99.5l15 84q4 26 4 38q0 70 -46 114t-124 44q-58 0 -108 -25.5t-83 -70.5t-43 -100l-15 -84q-3 -19 -3 -38q0 -69 46 -113t123 -44q57 0 107 25.5z" />
    <glyph glyph-name="dcaron.ss01" horiz-adv-x="693" 
d="M187.5 19.5q-44.5 24.5 -69 67t-24.5 96.5q0 23 4 43l15 84q11 64 51 117t99.5 84t127.5 31q73 0 114.5 -35t59.5 -91h7l58 334h34l-132 -750h-34l22 122h-7q-87 -127 -223 -127q-58 0 -102.5 24.5zM408 56.5q50 25.5 83 70t43 99.5l15 84q4 26 4 38q0 70 -46 114
t-124 44q-58 0 -108 -25.5t-83 -70.5t-43 -100l-15 -84q-4 -26 -4 -38q0 -70 46 -113.5t124 -43.5q58 0 108 25.5zM678 571q32 14 49.5 37.5t17.5 52.5q0 13 -5 16.5t-14 3.5q-34 0 -34 24q0 21 13 34t35 13q46 0 46 -38q0 -7 -2 -15l-5 -30q-15 -90 -105 -126z" />
    <glyph glyph-name="dcroat.ss01" horiz-adv-x="618" 
d="M727 626h-85l-110 -626h-34l22 122h-7q-87 -127 -223 -127q-58 0 -102.5 24.5t-69 67t-24.5 96.5q0 23 4 43l15 84q11 64 51 117t99.5 84t127.5 31q73 0 114.5 -35t59.5 -91h7l36 210h-193l5 30h194l16 94h34l-17 -94h85zM553 348q0 70 -46 114t-124 44q-58 0 -108 -25.5
t-83 -70.5t-43 -100l-15 -84q-4 -26 -4 -38q0 -70 46 -113.5t124 -43.5q58 0 108 25.5t83 70t43 99.5l15 84q4 26 4 38z" />
    <glyph glyph-name="e.ss01" horiz-adv-x="584" 
d="M191.5 19.5q-44.5 24.5 -69 67t-24.5 96.5q0 23 4 43l15 84q11 64 51 117t98.5 84t124.5 31q82 0 134 -48.5t52 -145.5q0 -31 -6 -67l-4 -24h-424l-4 -23q-3 -21 -3 -40q0 -72 43.5 -117.5t121.5 -45.5q82 0 138.5 43.5t78.5 114.5h33q-14 -50 -48 -94.5t-87.5 -72
t-121.5 -27.5q-58 0 -102.5 24.5zM537 289l2 13q3 21 3 40q0 72 -41 118t-117 46q-61 0 -111 -27.5t-81.5 -74t-40.5 -102.5l-2 -13h388z" />
    <glyph glyph-name="eacute.ss01" horiz-adv-x="584" 
d="M191.5 19.5q-44.5 24.5 -69 67t-24.5 96.5q0 23 4 43l15 84q11 64 51 117t98.5 84t124.5 31q82 0 134 -48.5t52 -145.5q0 -31 -6 -67l-4 -24h-424l-4 -23q-3 -21 -3 -40q0 -72 43.5 -117.5t121.5 -45.5q82 0 138.5 43.5t78.5 114.5h33q-14 -50 -48 -94.5t-87.5 -72
t-121.5 -27.5q-58 0 -102.5 24.5zM537 289l2 13q3 21 3 40q0 72 -41 118t-117 46q-61 0 -111 -27.5t-81.5 -74t-40.5 -102.5l-2 -13h388zM389 592l125 164h46l-142 -164h-29z" />
    <glyph glyph-name="ecaron.ss01" horiz-adv-x="584" 
d="M191.5 19.5q-44.5 24.5 -69 67t-24.5 96.5q0 23 4 43l15 84q11 64 51 117t98.5 84t124.5 31q82 0 134 -48.5t52 -145.5q0 -31 -6 -67l-4 -24h-424l-4 -23q-3 -21 -3 -40q0 -72 43.5 -117.5t121.5 -45.5q82 0 138.5 43.5t78.5 114.5h33q-14 -50 -48 -94.5t-87.5 -72
t-121.5 -27.5q-58 0 -102.5 24.5zM537 289l2 13q3 21 3 40q0 72 -41 118t-117 46q-61 0 -111 -27.5t-81.5 -74t-40.5 -102.5l-2 -13h388zM326 728l77 -105h4l115 105h45l-143 -133h-46l-97 133h45z" />
    <glyph glyph-name="ecircumflex.ss01" horiz-adv-x="584" 
d="M191.5 19.5q-44.5 24.5 -69 67t-24.5 96.5q0 23 4 43l15 84q11 64 51 117t98.5 84t124.5 31q82 0 134 -48.5t52 -145.5q0 -31 -6 -67l-4 -24h-424l-4 -23q-3 -21 -3 -40q0 -72 43.5 -117.5t121.5 -45.5q82 0 138.5 43.5t78.5 114.5h33q-14 -50 -48 -94.5t-87.5 -72
t-121.5 -27.5q-58 0 -102.5 24.5zM537 289l2 13q3 21 3 40q0 72 -41 118t-117 46q-61 0 -111 -27.5t-81.5 -74t-40.5 -102.5l-2 -13h388zM400 728h46l97 -133h-45l-77 105h-4l-115 -105h-45z" />
    <glyph glyph-name="uni1EBF.ss01" horiz-adv-x="584" 
d="M191.5 19.5q-44.5 24.5 -69 67t-24.5 96.5q0 23 4 43l15 84q11 64 51 117t98.5 84t124.5 31q82 0 134 -48.5t52 -145.5q0 -31 -6 -67l-4 -24h-424l-4 -23q-3 -21 -3 -40q0 -72 43.5 -117.5t121.5 -45.5q82 0 138.5 43.5t78.5 114.5h33q-14 -50 -48 -94.5t-87.5 -72
t-121.5 -27.5q-58 0 -102.5 24.5zM537 289l2 13q3 21 3 40q0 72 -41 118t-117 46q-61 0 -111 -27.5t-81.5 -74t-40.5 -102.5l-2 -13h388zM400 728h46l97 -133h-45l-77 105h-4l-115 -105h-45zM530 715l125 164h46l-142 -164h-29z" />
    <glyph glyph-name="uni1EC7.ss01" horiz-adv-x="584" 
d="M191.5 19.5q-44.5 24.5 -69 67t-24.5 96.5q0 23 4 43l15 84q11 64 51 117t98.5 84t124.5 31q82 0 134 -48.5t52 -145.5q0 -31 -6 -67l-4 -24h-424l-4 -23q-3 -21 -3 -40q0 -72 43.5 -117.5t121.5 -45.5q82 0 138.5 43.5t78.5 114.5h33q-14 -50 -48 -94.5t-87.5 -72
t-121.5 -27.5q-58 0 -102.5 24.5zM537 289l2 13q3 21 3 40q0 72 -41 118t-117 46q-61 0 -111 -27.5t-81.5 -74t-40.5 -102.5l-2 -13h388zM236 -193q-9 9 -9 23q0 17 13 30t30 13q14 0 23.5 -9t9.5 -22q0 -17 -14 -30.5t-31 -13.5q-13 0 -22 9zM400 728h46l97 -133h-45
l-77 105h-4l-115 -105h-45z" />
    <glyph glyph-name="uni1EC1.ss01" horiz-adv-x="584" 
d="M191.5 19.5q-44.5 24.5 -69 67t-24.5 96.5q0 23 4 43l15 84q11 64 51 117t98.5 84t124.5 31q82 0 134 -48.5t52 -145.5q0 -31 -6 -67l-4 -24h-424l-4 -23q-3 -21 -3 -40q0 -72 43.5 -117.5t121.5 -45.5q82 0 138.5 43.5t78.5 114.5h33q-14 -50 -48 -94.5t-87.5 -72
t-121.5 -27.5q-58 0 -102.5 24.5zM537 289l2 13q3 21 3 40q0 72 -41 118t-117 46q-61 0 -111 -27.5t-81.5 -74t-40.5 -102.5l-2 -13h388zM400 728h46l97 -133h-45l-77 105h-4l-115 -105h-45zM439 879h46l67 -164h-29z" />
    <glyph glyph-name="uni1EC3.ss01" horiz-adv-x="584" 
d="M191.5 19.5q-44.5 24.5 -69 67t-24.5 96.5q0 23 4 43l15 84q11 64 51 117t98.5 84t124.5 31q82 0 134 -48.5t52 -145.5q0 -31 -6 -67l-4 -24h-424l-4 -23q-3 -21 -3 -40q0 -72 43.5 -117.5t121.5 -45.5q82 0 138.5 43.5t78.5 114.5h33q-14 -50 -48 -94.5t-87.5 -72
t-121.5 -27.5q-58 0 -102.5 24.5zM537 289l2 13q3 21 3 40q0 72 -41 118t-117 46q-61 0 -111 -27.5t-81.5 -74t-40.5 -102.5l-2 -13h388zM400 728h46l97 -133h-45l-77 105h-4l-115 -105h-45zM539 732.5q9 7.5 25 18.5q24 15 36 28t12 34q0 15 -11 25.5t-34 10.5
q-22 0 -36 -9.5t-21 -23.5h-34q13 28 37 45.5t59 17.5q33 0 53 -16.5t20 -42.5q0 -28 -12 -42.5t-36 -31.5q-14 -9 -21.5 -15.5t-12.5 -15.5h-38q5 10 14 17.5z" />
    <glyph glyph-name="uni1EC5.ss01" horiz-adv-x="584" 
d="M191.5 19.5q-44.5 24.5 -69 67t-24.5 96.5q0 23 4 43l15 84q11 64 51 117t98.5 84t124.5 31q82 0 134 -48.5t52 -145.5q0 -31 -6 -67l-4 -24h-424l-4 -23q-3 -21 -3 -40q0 -72 43.5 -117.5t121.5 -45.5q82 0 138.5 43.5t78.5 114.5h33q-14 -50 -48 -94.5t-87.5 -72
t-121.5 -27.5q-58 0 -102.5 24.5zM537 289l2 13q3 21 3 40q0 72 -41 118t-117 46q-61 0 -111 -27.5t-81.5 -74t-40.5 -102.5l-2 -13h388zM400 728h46l97 -133h-45l-77 105h-4l-115 -105h-45zM366 851q18 0 31 -5.5t29 -16.5q16 -10 26 -15t24 -5q38 0 66 42h38
q-45 -73 -109 -73q-18 0 -31 5.5t-29 16.5q-15 10 -26 15t-25 5q-37 0 -65 -42h-38q45 73 109 73z" />
    <glyph glyph-name="edieresis.ss01" horiz-adv-x="584" 
d="M191.5 19.5q-44.5 24.5 -69 67t-24.5 96.5q0 23 4 43l15 84q11 64 51 117t98.5 84t124.5 31q82 0 134 -48.5t52 -145.5q0 -31 -6 -67l-4 -24h-424l-4 -23q-3 -21 -3 -40q0 -72 43.5 -117.5t121.5 -45.5q82 0 138.5 43.5t78.5 114.5h33q-14 -50 -48 -94.5t-87.5 -72
t-121.5 -27.5q-58 0 -102.5 24.5zM537 289l2 13q3 21 3 40q0 72 -41 118t-117 46q-61 0 -111 -27.5t-81.5 -74t-40.5 -102.5l-2 -13h388zM452 639q-8 9 -8 22q0 16 12.5 28.5t28.5 12.5q13 0 22 -9t9 -21q0 -16 -13 -29t-30 -13q-13 0 -21 9zM313 639q-8 9 -8 22
q0 16 12.5 28.5t28.5 12.5q13 0 22 -9t9 -21q0 -16 -13 -29t-30 -13q-13 0 -21 9z" />
    <glyph glyph-name="edotaccent.ss01" horiz-adv-x="584" 
d="M191.5 19.5q-44.5 24.5 -69 67t-24.5 96.5q0 23 4 43l15 84q11 64 51 117t98.5 84t124.5 31q82 0 134 -48.5t52 -145.5q0 -31 -6 -67l-4 -24h-424l-4 -23q-3 -21 -3 -40q0 -72 43.5 -117.5t121.5 -45.5q82 0 138.5 43.5t78.5 114.5h33q-14 -50 -48 -94.5t-87.5 -72
t-121.5 -27.5q-58 0 -102.5 24.5zM537 289l2 13q3 21 3 40q0 72 -41 118t-117 46q-61 0 -111 -27.5t-81.5 -74t-40.5 -102.5l-2 -13h388zM384 639q-8 9 -8 22q0 16 12.5 28.5t28.5 12.5q13 0 22 -9t9 -21q0 -16 -13 -29t-30 -13q-13 0 -21 9z" />
    <glyph glyph-name="uni1EB9.ss01" horiz-adv-x="584" 
d="M191.5 19.5q-44.5 24.5 -69 67t-24.5 96.5q0 23 4 43l15 84q11 64 51 117t98.5 84t124.5 31q82 0 134 -48.5t52 -145.5q0 -31 -6 -67l-4 -24h-424l-4 -23q-3 -21 -3 -40q0 -72 43.5 -117.5t121.5 -45.5q82 0 138.5 43.5t78.5 114.5h33q-14 -50 -48 -94.5t-87.5 -72
t-121.5 -27.5q-58 0 -102.5 24.5zM537 289l2 13q3 21 3 40q0 72 -41 118t-117 46q-61 0 -111 -27.5t-81.5 -74t-40.5 -102.5l-2 -13h388zM236 -193q-9 9 -9 23q0 17 13 30t30 13q14 0 23.5 -9t9.5 -22q0 -17 -14 -30.5t-31 -13.5q-13 0 -22 9z" />
    <glyph glyph-name="egrave.ss01" horiz-adv-x="584" 
d="M191.5 19.5q-44.5 24.5 -69 67t-24.5 96.5q0 23 4 43l15 84q11 64 51 117t98.5 84t124.5 31q82 0 134 -48.5t52 -145.5q0 -31 -6 -67l-4 -24h-424l-4 -23q-3 -21 -3 -40q0 -72 43.5 -117.5t121.5 -45.5q82 0 138.5 43.5t78.5 114.5h33q-14 -50 -48 -94.5t-87.5 -72
t-121.5 -27.5q-58 0 -102.5 24.5zM537 289l2 13q3 21 3 40q0 72 -41 118t-117 46q-61 0 -111 -27.5t-81.5 -74t-40.5 -102.5l-2 -13h388zM298 756h46l67 -164h-29z" />
    <glyph glyph-name="uni1EBB.ss01" horiz-adv-x="584" 
d="M191.5 19.5q-44.5 24.5 -69 67t-24.5 96.5q0 23 4 43l15 84q11 64 51 117t98.5 84t124.5 31q82 0 134 -48.5t52 -145.5q0 -31 -6 -67l-4 -24h-424l-4 -23q-3 -21 -3 -40q0 -72 43.5 -117.5t121.5 -45.5q82 0 138.5 43.5t78.5 114.5h33q-14 -50 -48 -94.5t-87.5 -72
t-121.5 -27.5q-58 0 -102.5 24.5zM537 289l2 13q3 21 3 40q0 72 -41 118t-117 46q-61 0 -111 -27.5t-81.5 -74t-40.5 -102.5l-2 -13h388zM398 609.5q9 7.5 25 18.5q24 15 36 28t12 34q0 15 -11 25.5t-34 10.5q-22 0 -36 -9.5t-21 -23.5h-34q13 28 37 45.5t59 17.5
q33 0 53 -16.5t20 -42.5q0 -28 -12 -42.5t-36 -31.5q-14 -9 -21.5 -15.5t-12.5 -15.5h-38q5 10 14 17.5z" />
    <glyph glyph-name="emacron.ss01" horiz-adv-x="584" 
d="M191.5 19.5q-44.5 24.5 -69 67t-24.5 96.5q0 23 4 43l15 84q11 64 51 117t98.5 84t124.5 31q82 0 134 -48.5t52 -145.5q0 -31 -6 -67l-4 -24h-424l-4 -23q-3 -21 -3 -40q0 -72 43.5 -117.5t121.5 -45.5q82 0 138.5 43.5t78.5 114.5h33q-14 -50 -48 -94.5t-87.5 -72
t-121.5 -27.5q-58 0 -102.5 24.5zM537 289l2 13q3 21 3 40q0 72 -41 118t-117 46q-61 0 -111 -27.5t-81.5 -74t-40.5 -102.5l-2 -13h388zM272 661h280l-5 -26h-280z" />
    <glyph glyph-name="uni1EBD.ss01" horiz-adv-x="584" 
d="M191.5 19.5q-44.5 24.5 -69 67t-24.5 96.5q0 23 4 43l15 84q11 64 51 117t98.5 84t124.5 31q82 0 134 -48.5t52 -145.5q0 -31 -6 -67l-4 -24h-424l-4 -23q-3 -21 -3 -40q0 -72 43.5 -117.5t121.5 -45.5q82 0 138.5 43.5t78.5 114.5h33q-14 -50 -48 -94.5t-87.5 -72
t-121.5 -27.5q-58 0 -102.5 24.5zM537 289l2 13q3 21 3 40q0 72 -41 118t-117 46q-61 0 -111 -27.5t-81.5 -74t-40.5 -102.5l-2 -13h388zM363 716q18 0 31 -5.5t29 -16.5q16 -10 26 -15t24 -5q38 0 66 42h38q-45 -73 -109 -73q-18 0 -31 5.5t-29 16.5q-15 10 -26 15t-25 5
q-37 0 -65 -42h-38q45 73 109 73z" />
    <glyph glyph-name="f.ss01" horiz-adv-x="356" 
d="M317.5 690q-20.5 -13 -28 -32t-12.5 -47l-15 -86h132l-6 -30h-132l-87 -495h-34l87 495h-80l6 30h79l15 86q10 57 40.5 91.5t96.5 34.5h52l-6 -34h-49q-38 0 -58.5 -13z" />
    <glyph glyph-name="g.ss01" horiz-adv-x="628" 
d="M170.5 -177q-45.5 22 -70.5 59t-28 82h38q8 -59 55 -93.5t121 -34.5q88 0 146.5 48t73.5 136l21 122h-6q-39 -58 -92.5 -92.5t-123.5 -34.5q-58 0 -102 24.5t-67.5 67t-23.5 96.5q0 23 4 43l11 64q11 64 50 117t97.5 84t123.5 31q131 0 172 -126h6l19 109h34l-89 -505
q-11 -62 -46.5 -112t-91 -78.5t-125.5 -28.5q-61 0 -106.5 22zM420 78q49 27 80.5 73.5t42.5 102.5l9 48q4 20 4 44q0 70 -43.5 115t-120.5 45q-59 0 -107.5 -27.5t-80 -74t-42.5 -102.5l-9 -48q-4 -20 -4 -43q0 -70 43 -115t119 -45q60 0 109 27z" />
    <glyph glyph-name="gbreve.ss01" horiz-adv-x="628" 
d="M170.5 -177q-45.5 22 -70.5 59t-28 82h38q8 -59 55 -93.5t121 -34.5q88 0 146.5 48t73.5 136l21 122h-6q-39 -58 -92.5 -92.5t-123.5 -34.5q-58 0 -102 24.5t-67.5 67t-23.5 96.5q0 23 4 43l11 64q11 64 50 117t97.5 84t123.5 31q131 0 172 -126h6l19 109h34l-89 -505
q-11 -62 -46.5 -112t-91 -78.5t-125.5 -28.5q-61 0 -106.5 22zM420 78q49 27 80.5 73.5t42.5 102.5l9 48q4 20 4 44q0 70 -43.5 115t-120.5 45q-59 0 -107.5 -27.5t-80 -74t-42.5 -102.5l-9 -48q-4 -20 -4 -43q0 -70 43 -115t119 -45q60 0 109 27zM328 634q-33 21 -53 66h38
q27 -57 105 -57q79 0 125 57h38q-37 -46 -76.5 -66.5t-91.5 -20.5t-85 21z" />
    <glyph glyph-name="gdotaccent.ss01" horiz-adv-x="628" 
d="M170.5 -177q-45.5 22 -70.5 59t-28 82h38q8 -59 55 -93.5t121 -34.5q88 0 146.5 48t73.5 136l21 122h-6q-39 -58 -92.5 -92.5t-123.5 -34.5q-58 0 -102 24.5t-67.5 67t-23.5 96.5q0 23 4 43l11 64q11 64 50 117t97.5 84t123.5 31q131 0 172 -126h6l19 109h34l-89 -505
q-11 -62 -46.5 -112t-91 -78.5t-125.5 -28.5q-61 0 -106.5 22zM420 78q49 27 80.5 73.5t42.5 102.5l9 48q4 20 4 44q0 70 -43.5 115t-120.5 45q-59 0 -107.5 -27.5t-80 -74t-42.5 -102.5l-9 -48q-4 -20 -4 -43q0 -70 43 -115t119 -45q60 0 109 27zM393 639q-8 9 -8 22
q0 16 12.5 28.5t28.5 12.5q13 0 22 -9t9 -21q0 -16 -13 -29t-30 -13q-13 0 -21 9z" />
    <glyph glyph-name="j.ss01" horiz-adv-x="213" 
d="M193 639q-8 9 -8 22q0 16 12.5 28.5t28.5 12.5q13 0 22 -9t9 -21q0 -16 -13 -29t-30 -13q-13 0 -21 9zM-70 -212l5 30h51q31 0 48 11.5t25 32t15 58.5l107 605h34l-106 -605q-8 -46 -19.5 -73.5t-36.5 -43t-70 -15.5h-53z" />
    <glyph glyph-name="l.ss01" horiz-adv-x="219" 
d="M225 750h34l-132 -750h-35z" />
    <glyph glyph-name="o.ss01" horiz-adv-x="586" 
d="M149.5 47.5q-53.5 52.5 -53.5 138.5q0 27 4 50l11 64q12 70 52 125.5t99 86t127 30.5q89 0 143 -52.5t54 -139.5q0 -22 -5 -50l-11 -64q-12 -71 -51.5 -125.5t-98.5 -85t-127 -30.5q-90 0 -143.5 52.5zM453.5 89.5q63.5 58.5 81.5 154.5l9 48q5 30 5 51q0 74 -43.5 118.5
t-122.5 44.5q-91 0 -155 -58.5t-82 -155.5l-9 -48q-5 -28 -5 -50q0 -74 43.5 -118.5t123.5 -44.5q91 0 154.5 58.5z" />
    <glyph glyph-name="oacute.ss01" horiz-adv-x="586" 
d="M149.5 47.5q-53.5 52.5 -53.5 138.5q0 27 4 50l11 64q12 70 52 125.5t99 86t127 30.5q89 0 143 -52.5t54 -139.5q0 -22 -5 -50l-11 -64q-12 -71 -51.5 -125.5t-98.5 -85t-127 -30.5q-90 0 -143.5 52.5zM453.5 89.5q63.5 58.5 81.5 154.5l9 48q5 30 5 51q0 74 -43.5 118.5
t-122.5 44.5q-91 0 -155 -58.5t-82 -155.5l-9 -48q-5 -28 -5 -50q0 -74 43.5 -118.5t123.5 -44.5q91 0 154.5 58.5zM387 592l125 164h46l-142 -164h-29z" />
    <glyph glyph-name="ocircumflex.ss01" horiz-adv-x="586" 
d="M149.5 47.5q-53.5 52.5 -53.5 138.5q0 27 4 50l11 64q12 70 52 125.5t99 86t127 30.5q89 0 143 -52.5t54 -139.5q0 -22 -5 -50l-11 -64q-12 -71 -51.5 -125.5t-98.5 -85t-127 -30.5q-90 0 -143.5 52.5zM453.5 89.5q63.5 58.5 81.5 154.5l9 48q5 30 5 51q0 74 -43.5 118.5
t-122.5 44.5q-91 0 -155 -58.5t-82 -155.5l-9 -48q-5 -28 -5 -50q0 -74 43.5 -118.5t123.5 -44.5q91 0 154.5 58.5zM398 728h46l97 -133h-45l-77 105h-4l-115 -105h-45z" />
    <glyph glyph-name="uni1ED1.ss01" horiz-adv-x="586" 
d="M149.5 47.5q-53.5 52.5 -53.5 138.5q0 27 4 50l11 64q12 70 52 125.5t99 86t127 30.5q89 0 143 -52.5t54 -139.5q0 -22 -5 -50l-11 -64q-12 -71 -51.5 -125.5t-98.5 -85t-127 -30.5q-90 0 -143.5 52.5zM453.5 89.5q63.5 58.5 81.5 154.5l9 48q5 30 5 51q0 74 -43.5 118.5
t-122.5 44.5q-91 0 -155 -58.5t-82 -155.5l-9 -48q-5 -28 -5 -50q0 -74 43.5 -118.5t123.5 -44.5q91 0 154.5 58.5zM398 728h46l97 -133h-45l-77 105h-4l-115 -105h-45zM528 715l125 164h46l-142 -164h-29z" />
    <glyph glyph-name="uni1ED9.ss01" horiz-adv-x="586" 
d="M149.5 47.5q-53.5 52.5 -53.5 138.5q0 27 4 50l11 64q12 70 52 125.5t99 86t127 30.5q89 0 143 -52.5t54 -139.5q0 -22 -5 -50l-11 -64q-12 -71 -51.5 -125.5t-98.5 -85t-127 -30.5q-90 0 -143.5 52.5zM453.5 89.5q63.5 58.5 81.5 154.5l9 48q5 30 5 51q0 74 -43.5 118.5
t-122.5 44.5q-91 0 -155 -58.5t-82 -155.5l-9 -48q-5 -28 -5 -50q0 -74 43.5 -118.5t123.5 -44.5q91 0 154.5 58.5zM234 -193q-9 9 -9 23q0 17 13 30t30 13q14 0 23.5 -9t9.5 -22q0 -17 -14 -30.5t-31 -13.5q-13 0 -22 9zM398 728h46l97 -133h-45l-77 105h-4l-115 -105h-45z
" />
    <glyph glyph-name="uni1ED3.ss01" horiz-adv-x="586" 
d="M149.5 47.5q-53.5 52.5 -53.5 138.5q0 27 4 50l11 64q12 70 52 125.5t99 86t127 30.5q89 0 143 -52.5t54 -139.5q0 -22 -5 -50l-11 -64q-12 -71 -51.5 -125.5t-98.5 -85t-127 -30.5q-90 0 -143.5 52.5zM453.5 89.5q63.5 58.5 81.5 154.5l9 48q5 30 5 51q0 74 -43.5 118.5
t-122.5 44.5q-91 0 -155 -58.5t-82 -155.5l-9 -48q-5 -28 -5 -50q0 -74 43.5 -118.5t123.5 -44.5q91 0 154.5 58.5zM398 728h46l97 -133h-45l-77 105h-4l-115 -105h-45zM437 879h46l67 -164h-29z" />
    <glyph glyph-name="uni1ED5.ss01" horiz-adv-x="586" 
d="M149.5 47.5q-53.5 52.5 -53.5 138.5q0 27 4 50l11 64q12 70 52 125.5t99 86t127 30.5q89 0 143 -52.5t54 -139.5q0 -22 -5 -50l-11 -64q-12 -71 -51.5 -125.5t-98.5 -85t-127 -30.5q-90 0 -143.5 52.5zM453.5 89.5q63.5 58.5 81.5 154.5l9 48q5 30 5 51q0 74 -43.5 118.5
t-122.5 44.5q-91 0 -155 -58.5t-82 -155.5l-9 -48q-5 -28 -5 -50q0 -74 43.5 -118.5t123.5 -44.5q91 0 154.5 58.5zM398 728h46l97 -133h-45l-77 105h-4l-115 -105h-45zM537 732.5q9 7.5 25 18.5q24 15 36 28t12 34q0 15 -11 25.5t-34 10.5q-22 0 -36 -9.5t-21 -23.5h-34
q13 28 37 45.5t59 17.5q33 0 53 -16.5t20 -42.5q0 -28 -12 -42.5t-36 -31.5q-14 -9 -21.5 -15.5t-12.5 -15.5h-38q5 10 14 17.5z" />
    <glyph glyph-name="uni1ED7.ss01" horiz-adv-x="586" 
d="M149.5 47.5q-53.5 52.5 -53.5 138.5q0 27 4 50l11 64q12 70 52 125.5t99 86t127 30.5q89 0 143 -52.5t54 -139.5q0 -22 -5 -50l-11 -64q-12 -71 -51.5 -125.5t-98.5 -85t-127 -30.5q-90 0 -143.5 52.5zM453.5 89.5q63.5 58.5 81.5 154.5l9 48q5 30 5 51q0 74 -43.5 118.5
t-122.5 44.5q-91 0 -155 -58.5t-82 -155.5l-9 -48q-5 -28 -5 -50q0 -74 43.5 -118.5t123.5 -44.5q91 0 154.5 58.5zM398 728h46l97 -133h-45l-77 105h-4l-115 -105h-45zM364 851q18 0 31 -5.5t29 -16.5q16 -10 26 -15t24 -5q38 0 66 42h38q-45 -73 -109 -73q-18 0 -31 5.5
t-29 16.5q-15 10 -26 15t-25 5q-37 0 -65 -42h-38q45 73 109 73z" />
    <glyph glyph-name="odieresis.ss01" horiz-adv-x="586" 
d="M149.5 47.5q-53.5 52.5 -53.5 138.5q0 27 4 50l11 64q12 70 52 125.5t99 86t127 30.5q89 0 143 -52.5t54 -139.5q0 -22 -5 -50l-11 -64q-12 -71 -51.5 -125.5t-98.5 -85t-127 -30.5q-90 0 -143.5 52.5zM453.5 89.5q63.5 58.5 81.5 154.5l9 48q5 30 5 51q0 74 -43.5 118.5
t-122.5 44.5q-91 0 -155 -58.5t-82 -155.5l-9 -48q-5 -28 -5 -50q0 -74 43.5 -118.5t123.5 -44.5q91 0 154.5 58.5zM450 639q-8 9 -8 22q0 16 12.5 28.5t28.5 12.5q13 0 22 -9t9 -21q0 -16 -13 -29t-30 -13q-13 0 -21 9zM311 639q-8 9 -8 22q0 16 12.5 28.5t28.5 12.5
q13 0 22 -9t9 -21q0 -16 -13 -29t-30 -13q-13 0 -21 9z" />
    <glyph glyph-name="uni1ECD.ss01" horiz-adv-x="586" 
d="M149.5 47.5q-53.5 52.5 -53.5 138.5q0 27 4 50l11 64q12 70 52 125.5t99 86t127 30.5q89 0 143 -52.5t54 -139.5q0 -22 -5 -50l-11 -64q-12 -71 -51.5 -125.5t-98.5 -85t-127 -30.5q-90 0 -143.5 52.5zM453.5 89.5q63.5 58.5 81.5 154.5l9 48q5 30 5 51q0 74 -43.5 118.5
t-122.5 44.5q-91 0 -155 -58.5t-82 -155.5l-9 -48q-5 -28 -5 -50q0 -74 43.5 -118.5t123.5 -44.5q91 0 154.5 58.5zM234 -193q-9 9 -9 23q0 17 13 30t30 13q14 0 23.5 -9t9.5 -22q0 -17 -14 -30.5t-31 -13.5q-13 0 -22 9z" />
    <glyph glyph-name="ograve.ss01" horiz-adv-x="586" 
d="M149.5 47.5q-53.5 52.5 -53.5 138.5q0 27 4 50l11 64q12 70 52 125.5t99 86t127 30.5q89 0 143 -52.5t54 -139.5q0 -22 -5 -50l-11 -64q-12 -71 -51.5 -125.5t-98.5 -85t-127 -30.5q-90 0 -143.5 52.5zM453.5 89.5q63.5 58.5 81.5 154.5l9 48q5 30 5 51q0 74 -43.5 118.5
t-122.5 44.5q-91 0 -155 -58.5t-82 -155.5l-9 -48q-5 -28 -5 -50q0 -74 43.5 -118.5t123.5 -44.5q91 0 154.5 58.5zM296 756h46l67 -164h-29z" />
    <glyph glyph-name="uni1ECF.ss01" horiz-adv-x="586" 
d="M149.5 47.5q-53.5 52.5 -53.5 138.5q0 27 4 50l11 64q12 70 52 125.5t99 86t127 30.5q89 0 143 -52.5t54 -139.5q0 -22 -5 -50l-11 -64q-12 -71 -51.5 -125.5t-98.5 -85t-127 -30.5q-90 0 -143.5 52.5zM453.5 89.5q63.5 58.5 81.5 154.5l9 48q5 30 5 51q0 74 -43.5 118.5
t-122.5 44.5q-91 0 -155 -58.5t-82 -155.5l-9 -48q-5 -28 -5 -50q0 -74 43.5 -118.5t123.5 -44.5q91 0 154.5 58.5zM396 609.5q9 7.5 25 18.5q24 15 36 28t12 34q0 15 -11 25.5t-34 10.5q-22 0 -36 -9.5t-21 -23.5h-34q13 28 37 45.5t59 17.5q33 0 53 -16.5t20 -42.5
q0 -28 -12 -42.5t-36 -31.5q-14 -9 -21.5 -15.5t-12.5 -15.5h-38q5 10 14 17.5z" />
    <glyph glyph-name="ohorn.ss01" horiz-adv-x="586" 
d="M526 495q29 -25 44.5 -62t15.5 -82q0 -21 -5 -51l-11 -64q-12 -71 -51.5 -125.5t-98.5 -85t-127 -30.5q-90 0 -143.5 52.5t-53.5 138.5q0 27 4 50l11 64q12 70 52 125.5t99 86t127 30.5q49 0 89 -17h39q24 0 36.5 12t19.5 51l3 16h39l-3 -16q-16 -88 -86 -93zM549 343
q0 74 -43.5 118.5t-122.5 44.5q-91 0 -155 -58.5t-82 -155.5l-9 -48q-5 -28 -5 -50q0 -74 43.5 -118.5t123.5 -44.5q91 0 154.5 58.5t81.5 154.5l9 48q5 30 5 51z" />
    <glyph glyph-name="uni1EDB.ss01" horiz-adv-x="586" 
d="M526 495q29 -25 44.5 -62t15.5 -82q0 -21 -5 -51l-11 -64q-12 -71 -51.5 -125.5t-98.5 -85t-127 -30.5q-90 0 -143.5 52.5t-53.5 138.5q0 27 4 50l11 64q12 70 52 125.5t99 86t127 30.5q49 0 89 -17h39q24 0 36.5 12t19.5 51l3 16h39l-3 -16q-16 -88 -86 -93zM549 343
q0 74 -43.5 118.5t-122.5 44.5q-91 0 -155 -58.5t-82 -155.5l-9 -48q-5 -28 -5 -50q0 -74 43.5 -118.5t123.5 -44.5q91 0 154.5 58.5t81.5 154.5l9 48q5 30 5 51zM387 592l125 164h46l-142 -164h-29z" />
    <glyph glyph-name="uni1EE3.ss01" horiz-adv-x="586" 
d="M526 495q29 -25 44.5 -62t15.5 -82q0 -21 -5 -51l-11 -64q-12 -71 -51.5 -125.5t-98.5 -85t-127 -30.5q-90 0 -143.5 52.5t-53.5 138.5q0 27 4 50l11 64q12 70 52 125.5t99 86t127 30.5q49 0 89 -17h39q24 0 36.5 12t19.5 51l3 16h39l-3 -16q-16 -88 -86 -93zM549 343
q0 74 -43.5 118.5t-122.5 44.5q-91 0 -155 -58.5t-82 -155.5l-9 -48q-5 -28 -5 -50q0 -74 43.5 -118.5t123.5 -44.5q91 0 154.5 58.5t81.5 154.5l9 48q5 30 5 51zM234 -193q-9 9 -9 23q0 17 13 30t30 13q14 0 23.5 -9t9.5 -22q0 -17 -14 -30.5t-31 -13.5q-13 0 -22 9z" />
    <glyph glyph-name="uni1EDD.ss01" horiz-adv-x="586" 
d="M526 495q29 -25 44.5 -62t15.5 -82q0 -21 -5 -51l-11 -64q-12 -71 -51.5 -125.5t-98.5 -85t-127 -30.5q-90 0 -143.5 52.5t-53.5 138.5q0 27 4 50l11 64q12 70 52 125.5t99 86t127 30.5q49 0 89 -17h39q24 0 36.5 12t19.5 51l3 16h39l-3 -16q-16 -88 -86 -93zM549 343
q0 74 -43.5 118.5t-122.5 44.5q-91 0 -155 -58.5t-82 -155.5l-9 -48q-5 -28 -5 -50q0 -74 43.5 -118.5t123.5 -44.5q91 0 154.5 58.5t81.5 154.5l9 48q5 30 5 51zM296 756h46l67 -164h-29z" />
    <glyph glyph-name="uni1EDF.ss01" horiz-adv-x="586" 
d="M526 495q29 -25 44.5 -62t15.5 -82q0 -21 -5 -51l-11 -64q-12 -71 -51.5 -125.5t-98.5 -85t-127 -30.5q-90 0 -143.5 52.5t-53.5 138.5q0 27 4 50l11 64q12 70 52 125.5t99 86t127 30.5q49 0 89 -17h39q24 0 36.5 12t19.5 51l3 16h39l-3 -16q-16 -88 -86 -93zM549 343
q0 74 -43.5 118.5t-122.5 44.5q-91 0 -155 -58.5t-82 -155.5l-9 -48q-5 -28 -5 -50q0 -74 43.5 -118.5t123.5 -44.5q91 0 154.5 58.5t81.5 154.5l9 48q5 30 5 51zM396 609.5q9 7.5 25 18.5q24 15 36 28t12 34q0 15 -11 25.5t-34 10.5q-22 0 -36 -9.5t-21 -23.5h-34
q13 28 37 45.5t59 17.5q33 0 53 -16.5t20 -42.5q0 -28 -12 -42.5t-36 -31.5q-14 -9 -21.5 -15.5t-12.5 -15.5h-38q5 10 14 17.5z" />
    <glyph glyph-name="uni1EE1.ss01" horiz-adv-x="586" 
d="M526 495q29 -25 44.5 -62t15.5 -82q0 -21 -5 -51l-11 -64q-12 -71 -51.5 -125.5t-98.5 -85t-127 -30.5q-90 0 -143.5 52.5t-53.5 138.5q0 27 4 50l11 64q12 70 52 125.5t99 86t127 30.5q49 0 89 -17h39q24 0 36.5 12t19.5 51l3 16h39l-3 -16q-16 -88 -86 -93zM549 343
q0 74 -43.5 118.5t-122.5 44.5q-91 0 -155 -58.5t-82 -155.5l-9 -48q-5 -28 -5 -50q0 -74 43.5 -118.5t123.5 -44.5q91 0 154.5 58.5t81.5 154.5l9 48q5 30 5 51zM361 716q18 0 31 -5.5t29 -16.5q16 -10 26 -15t24 -5q38 0 66 42h38q-45 -73 -109 -73q-18 0 -31 5.5
t-29 16.5q-15 10 -26 15t-25 5q-37 0 -65 -42h-38q45 73 109 73z" />
    <glyph glyph-name="omacron.ss01" horiz-adv-x="586" 
d="M149.5 47.5q-53.5 52.5 -53.5 138.5q0 27 4 50l11 64q12 70 52 125.5t99 86t127 30.5q89 0 143 -52.5t54 -139.5q0 -22 -5 -50l-11 -64q-12 -71 -51.5 -125.5t-98.5 -85t-127 -30.5q-90 0 -143.5 52.5zM453.5 89.5q63.5 58.5 81.5 154.5l9 48q5 30 5 51q0 74 -43.5 118.5
t-122.5 44.5q-91 0 -155 -58.5t-82 -155.5l-9 -48q-5 -28 -5 -50q0 -74 43.5 -118.5t123.5 -44.5q91 0 154.5 58.5zM270 661h280l-5 -26h-280z" />
    <glyph glyph-name="oslash.ss01" horiz-adv-x="604" 
d="M585 351q0 -27 -4 -50l-11 -64q-12 -71 -51.5 -125.5t-98.5 -85t-127 -30.5q-59 0 -105 24l-48 -66h-37l60 83q-32 25 -49.5 63.5t-17.5 87.5q0 26 4 49l11 64q12 70 52 125.5t99 86t127 30.5q67 0 115 -31l56 78h37l-69 -96q57 -52 57 -143zM132 196q0 -41 13.5 -73.5
t39.5 -54.5l297 413q-40 26 -99 26q-91 0 -155 -58.5t-82 -155.5l-9 -48q-5 -28 -5 -49zM549 344q0 75 -44 119l-295 -411q37 -20 89 -20q91 0 154.5 58.5t81.5 154.5l9 48q5 30 5 51z" />
    <glyph glyph-name="otilde.ss01" horiz-adv-x="586" 
d="M149.5 47.5q-53.5 52.5 -53.5 138.5q0 27 4 50l11 64q12 70 52 125.5t99 86t127 30.5q89 0 143 -52.5t54 -139.5q0 -22 -5 -50l-11 -64q-12 -71 -51.5 -125.5t-98.5 -85t-127 -30.5q-90 0 -143.5 52.5zM453.5 89.5q63.5 58.5 81.5 154.5l9 48q5 30 5 51q0 74 -43.5 118.5
t-122.5 44.5q-91 0 -155 -58.5t-82 -155.5l-9 -48q-5 -28 -5 -50q0 -74 43.5 -118.5t123.5 -44.5q91 0 154.5 58.5zM361 716q18 0 31 -5.5t29 -16.5q16 -10 26 -15t24 -5q38 0 66 42h38q-45 -73 -109 -73q-18 0 -31 5.5t-29 16.5q-15 10 -26 15t-25 5q-37 0 -65 -42h-38
q45 73 109 73z" />
    <glyph glyph-name="oe.ss01" horiz-adv-x="1014" 
d="M956.5 492.5q51.5 -49.5 51.5 -145.5q0 -30 -6 -66l-4 -24h-424l-4 -23q-4 -28 -4 -40q0 -72 43.5 -117.5t121.5 -45.5q82 0 138.5 43.5t79.5 114.5h33q-14 -50 -48.5 -94.5t-87.5 -72t-121 -27.5q-75 0 -126 38.5t-65 101.5q-38 -65 -101.5 -102.5t-139.5 -37.5
q-90 0 -143.5 52.5t-53.5 138.5q0 27 4 50l11 64q12 70 52 125.5t99 86t127 30.5q75 0 126 -38t65 -104q37 64 102 103t139 39q84 0 135.5 -49.5zM453.5 89.5q63.5 58.5 81.5 154.5l5 24l6 38q3 20 3 37q0 74 -43.5 118.5t-122.5 44.5q-91 0 -155 -58.5t-82 -155.5l-9 -48
q-5 -28 -5 -50q0 -74 43.5 -118.5t123.5 -44.5q91 0 154.5 58.5zM972 342q0 72 -40.5 118t-116.5 46q-60 0 -109 -26t-80.5 -70t-42.5 -97l-2 -13l-2 -11h388l2 13q3 21 3 40z" />
    <glyph glyph-name="p.ss01" horiz-adv-x="623" 
d="M215.5 30q-43.5 35 -61.5 92h-7l-57 -321h-34l128 724h34l-20 -109h7q85 126 219 126q60 0 105.5 -24.5t70 -67.5t24.5 -97q0 -23 -4 -43l-15 -84q-11 -64 -50.5 -117t-98.5 -83.5t-125 -30.5q-72 0 -115.5 35zM443 56.5q50 25.5 83 70t43 99.5l15 84q4 26 4 38
q0 70 -46 114t-124 44q-58 0 -108 -25.5t-83 -70.5t-43 -100l-15 -84q-4 -26 -4 -38q0 -70 46 -113.5t124 -43.5q58 0 108 25.5z" />
    <glyph glyph-name="thorn.ss01" horiz-adv-x="630" 
d="M216.5 29.5q-43.5 34.5 -62.5 92.5h-7l-61 -347h-34l172 975h34l-59 -334h7q85 126 218 126q60 0 105.5 -24.5t70.5 -67.5t25 -97q0 -23 -4 -43l-15 -84q-11 -64 -50.5 -117t-98.5 -83.5t-125 -30.5q-72 0 -115.5 34.5zM443 56.5q50 25.5 83 70t43 99.5l15 84q4 26 4 38
q0 70 -45.5 114t-123.5 44q-59 0 -108.5 -25.5t-82.5 -70.5t-43 -100l-15 -84q-4 -26 -4 -38q0 -70 46 -113.5t123 -43.5q58 0 108 25.5z" />
    <glyph glyph-name="q.ss01" horiz-adv-x="623" 
d="M187.5 19.5q-44.5 24.5 -69 67t-24.5 96.5q0 23 4 43l15 84q11 64 51 117t99.5 84t127.5 31q73 0 114.5 -35t59.5 -91h7l19 109h34l-128 -724h-34l57 321h-7q-87 -127 -223 -127q-58 0 -102.5 24.5zM408 56.5q50 25.5 83 70t43 99.5l15 84q4 26 4 38q0 70 -46 114
t-124 44q-58 0 -108 -25.5t-83 -70.5t-43 -100l-15 -84q-4 -26 -4 -38q0 -70 46 -113.5t124 -43.5q58 0 108 25.5z" />
    <glyph glyph-name="r.ss01" horiz-adv-x="298" 
d="M175 525h33l-15 -84h5q20 37 56.5 60.5t82.5 23.5h39l-7 -40h-40q-54 0 -98 -36t-58 -118l-58 -331h-33z" />
    <glyph glyph-name="t.ss01" horiz-adv-x="365" 
d="M201 132q-6 -40 -6 -52q0 -26 13 -38.5t45 -12.5h62l-5 -29h-64q-48 0 -67.5 18t-19.5 55q0 19 7 59l65 363h-109l5 30h109l31 175h34l-31 -175h132l-5 -30h-132z" />
    <glyph glyph-name="y.ss01" horiz-adv-x="534" 
d="M98 -206l147 245l-112 473l2 12h34l100 -446h6l270 446h32l-2 -12l-445 -726h-33z" />
    <glyph glyph-name="yacute.ss01" horiz-adv-x="534" 
d="M98 -206l147 245l-112 473l2 12h34l100 -446h6l270 446h32l-2 -12l-445 -726h-33zM352 592l125 164h46l-142 -164h-29z" />
    <glyph glyph-name="ycircumflex.ss01" horiz-adv-x="534" 
d="M98 -206l147 245l-112 473l2 12h34l100 -446h6l270 446h32l-2 -12l-445 -726h-33zM363 728h46l97 -133h-45l-77 105h-4l-115 -105h-45z" />
    <glyph glyph-name="ydieresis.ss01" horiz-adv-x="534" 
d="M98 -206l147 245l-112 473l2 12h34l100 -446h6l270 446h32l-2 -12l-445 -726h-33zM415 639q-8 9 -8 22q0 16 12.5 28.5t28.5 12.5q13 0 22 -9t9 -21q0 -16 -13 -29t-30 -13q-13 0 -21 9zM276 639q-8 9 -8 22q0 16 12.5 28.5t28.5 12.5q13 0 22 -9t9 -21q0 -16 -13 -29
t-30 -13q-13 0 -21 9z" />
    <glyph glyph-name="uni1EF5.ss01" horiz-adv-x="534" 
d="M98 -206l147 245l-112 473l2 12h34l100 -446h6l270 446h32l-2 -12l-445 -726h-33zM323 -193q-9 9 -9 23q0 17 13 30t30 13q14 0 23.5 -9t9.5 -22q0 -17 -14 -30.5t-31 -13.5q-13 0 -22 9z" />
    <glyph glyph-name="ygrave.ss01" horiz-adv-x="534" 
d="M98 -206l147 245l-112 473l2 12h34l100 -446h6l270 446h32l-2 -12l-445 -726h-33zM261 756h46l67 -164h-29z" />
    <glyph glyph-name="uni1EF7.ss01" horiz-adv-x="534" 
d="M98 -206l147 245l-112 473l2 12h34l100 -446h6l270 446h32l-2 -12l-445 -726h-33zM361 609.5q9 7.5 25 18.5q24 15 36 28t12 34q0 15 -11 25.5t-34 10.5q-22 0 -36 -9.5t-21 -23.5h-34q13 28 37 45.5t59 17.5q33 0 53 -16.5t20 -42.5q0 -28 -12 -42.5t-36 -31.5
q-14 -9 -21.5 -15.5t-12.5 -15.5h-38q5 10 14 17.5z" />
    <glyph glyph-name="uni1EF9.ss01" horiz-adv-x="534" 
d="M98 -206l147 245l-112 473l2 12h34l100 -446h6l270 446h32l-2 -12l-445 -726h-33zM326 716q18 0 31 -5.5t29 -16.5q16 -10 26 -15t24 -5q38 0 66 42h38q-45 -73 -109 -73q-18 0 -31 5.5t-29 16.5q-15 10 -26 15t-25 5q-37 0 -65 -42h-38q45 73 109 73z" />
    <glyph glyph-name="a.ss02" horiz-adv-x="613" 
d="M185.5 19q-43.5 24 -67.5 67t-24 96q0 24 4 44l15 84q11 64 50 117t97 84t124 31q131 0 172 -126h6l19 109h34l-93 -525h-34l22 122h-6q-87 -127 -217 -127q-58 0 -101.5 24zM403 58q49 27 80.5 73.5t41.5 102.5l12 68q4 20 4 43q0 71 -43 116t-121 45q-59 0 -108 -27.5
t-80.5 -74t-41.5 -102.5l-12 -68q-4 -19 -4 -42q0 -71 43 -116t120 -45q60 0 109 27z" />
    <glyph glyph-name="aacute.ss02" horiz-adv-x="613" 
d="M185.5 19q-43.5 24 -67.5 67t-24 96q0 24 4 44l15 84q11 64 50 117t97 84t124 31q131 0 172 -126h6l19 109h34l-93 -525h-34l22 122h-6q-87 -127 -217 -127q-58 0 -101.5 24zM403 58q49 27 80.5 73.5t41.5 102.5l12 68q4 20 4 43q0 71 -43 116t-121 45q-59 0 -108 -27.5
t-80.5 -74t-41.5 -102.5l-12 -68q-4 -19 -4 -42q0 -71 43 -116t120 -45q60 0 109 27zM382 592l125 164h46l-142 -164h-29z" />
    <glyph glyph-name="abreve.ss02" horiz-adv-x="613" 
d="M185.5 19q-43.5 24 -67.5 67t-24 96q0 24 4 44l15 84q11 64 50 117t97 84t124 31q131 0 172 -126h6l19 109h34l-93 -525h-34l22 122h-6q-87 -127 -217 -127q-58 0 -101.5 24zM403 58q49 27 80.5 73.5t41.5 102.5l12 68q4 20 4 43q0 71 -43 116t-121 45q-59 0 -108 -27.5
t-80.5 -74t-41.5 -102.5l-12 -68q-4 -19 -4 -42q0 -71 43 -116t120 -45q60 0 109 27zM312 634q-33 21 -53 66h38q27 -57 105 -57q79 0 125 57h38q-37 -46 -76.5 -66.5t-91.5 -20.5t-85 21z" />
    <glyph glyph-name="uni1EAF.ss02" horiz-adv-x="613" 
d="M185.5 19q-43.5 24 -67.5 67t-24 96q0 24 4 44l15 84q11 64 50 117t97 84t124 31q131 0 172 -126h6l19 109h34l-93 -525h-34l22 122h-6q-87 -127 -217 -127q-58 0 -101.5 24zM403 58q49 27 80.5 73.5t41.5 102.5l12 68q4 20 4 43q0 71 -43 116t-121 45q-59 0 -108 -27.5
t-80.5 -74t-41.5 -102.5l-12 -68q-4 -19 -4 -42q0 -71 43 -116t120 -45q60 0 109 27zM311 634q-33 21 -53 66h38q27 -57 105 -57q79 0 125 57h38q-37 -46 -76.5 -66.5t-91.5 -20.5t-85 21zM402 710l125 164h46l-142 -164h-29z" />
    <glyph glyph-name="uni1EB7.ss02" horiz-adv-x="613" 
d="M185.5 19q-43.5 24 -67.5 67t-24 96q0 24 4 44l15 84q11 64 50 117t97 84t124 31q131 0 172 -126h6l19 109h34l-93 -525h-34l22 122h-6q-87 -127 -217 -127q-58 0 -101.5 24zM403 58q49 27 80.5 73.5t41.5 102.5l12 68q4 20 4 43q0 71 -43 116t-121 45q-59 0 -108 -27.5
t-80.5 -74t-41.5 -102.5l-12 -68q-4 -19 -4 -42q0 -71 43 -116t120 -45q60 0 109 27zM312 634q-33 21 -53 66h38q27 -57 105 -57q79 0 125 57h38q-37 -46 -76.5 -66.5t-91.5 -20.5t-85 21zM241 -193q-9 9 -9 23q0 17 13 30t30 13q14 0 23.5 -9t9.5 -22q0 -17 -14 -30.5
t-31 -13.5q-13 0 -22 9z" />
    <glyph glyph-name="uni1EB1.ss02" horiz-adv-x="613" 
d="M185.5 19q-43.5 24 -67.5 67t-24 96q0 24 4 44l15 84q11 64 50 117t97 84t124 31q131 0 172 -126h6l19 109h34l-93 -525h-34l22 122h-6q-87 -127 -217 -127q-58 0 -101.5 24zM403 58q49 27 80.5 73.5t41.5 102.5l12 68q4 20 4 43q0 71 -43 116t-121 45q-59 0 -108 -27.5
t-80.5 -74t-41.5 -102.5l-12 -68q-4 -19 -4 -42q0 -71 43 -116t120 -45q60 0 109 27zM311 634q-33 21 -53 66h38q27 -57 105 -57q79 0 125 57h38q-37 -46 -76.5 -66.5t-91.5 -20.5t-85 21zM311 874h46l67 -164h-29z" />
    <glyph glyph-name="uni1EB3.ss02" horiz-adv-x="613" 
d="M185.5 19q-43.5 24 -67.5 67t-24 96q0 24 4 44l15 84q11 64 50 117t97 84t124 31q131 0 172 -126h6l19 109h34l-93 -525h-34l22 122h-6q-87 -127 -217 -127q-58 0 -101.5 24zM403 58q49 27 80.5 73.5t41.5 102.5l12 68q4 20 4 43q0 71 -43 116t-121 45q-59 0 -108 -27.5
t-80.5 -74t-41.5 -102.5l-12 -68q-4 -19 -4 -42q0 -71 43 -116t120 -45q60 0 109 27zM311 634q-33 21 -53 66h38q27 -57 105 -57q79 0 125 57h38q-37 -46 -76.5 -66.5t-91.5 -20.5t-85 21zM411 727.5q9 7.5 25 18.5q24 15 36 28t12 34q0 15 -11 25.5t-34 10.5
q-22 0 -36 -9.5t-21 -23.5h-34q13 28 37 45.5t59 17.5q33 0 53 -16.5t20 -42.5q0 -28 -12 -42.5t-36 -31.5q-14 -9 -21.5 -15.5t-12.5 -15.5h-38q5 10 14 17.5z" />
    <glyph glyph-name="uni1EB5.ss02" horiz-adv-x="613" 
d="M185.5 19q-43.5 24 -67.5 67t-24 96q0 24 4 44l15 84q11 64 50 117t97 84t124 31q131 0 172 -126h6l19 109h34l-93 -525h-34l22 122h-6q-87 -127 -217 -127q-58 0 -101.5 24zM403 58q49 27 80.5 73.5t41.5 102.5l12 68q4 20 4 43q0 71 -43 116t-121 45q-59 0 -108 -27.5
t-80.5 -74t-41.5 -102.5l-12 -68q-4 -19 -4 -42q0 -71 43 -116t120 -45q60 0 109 27zM311 634q-33 21 -53 66h38q27 -57 105 -57q79 0 125 57h38q-37 -46 -76.5 -66.5t-91.5 -20.5t-85 21zM376 834q18 0 31 -5.5t29 -16.5q16 -10 26 -15t24 -5q38 0 66 42h38
q-45 -73 -109 -73q-18 0 -31 5.5t-29 16.5q-15 10 -26 15t-25 5q-37 0 -65 -42h-38q45 73 109 73z" />
    <glyph glyph-name="acircumflex.ss02" horiz-adv-x="613" 
d="M185.5 19q-43.5 24 -67.5 67t-24 96q0 24 4 44l15 84q11 64 50 117t97 84t124 31q131 0 172 -126h6l19 109h34l-93 -525h-34l22 122h-6q-87 -127 -217 -127q-58 0 -101.5 24zM403 58q49 27 80.5 73.5t41.5 102.5l12 68q4 20 4 43q0 71 -43 116t-121 45q-59 0 -108 -27.5
t-80.5 -74t-41.5 -102.5l-12 -68q-4 -19 -4 -42q0 -71 43 -116t120 -45q60 0 109 27zM393 728h46l97 -133h-45l-77 105h-4l-115 -105h-45z" />
    <glyph glyph-name="uni1EA5.ss02" horiz-adv-x="613" 
d="M185.5 19q-43.5 24 -67.5 67t-24 96q0 24 4 44l15 84q11 64 50 117t97 84t124 31q131 0 172 -126h6l19 109h34l-93 -525h-34l22 122h-6q-87 -127 -217 -127q-58 0 -101.5 24zM403 58q49 27 80.5 73.5t41.5 102.5l12 68q4 20 4 43q0 71 -43 116t-121 45q-59 0 -108 -27.5
t-80.5 -74t-41.5 -102.5l-12 -68q-4 -19 -4 -42q0 -71 43 -116t120 -45q60 0 109 27zM393 728h46l97 -133h-45l-77 105h-4l-115 -105h-45zM523 715l125 164h46l-142 -164h-29z" />
    <glyph glyph-name="uni1EAD.ss02" horiz-adv-x="613" 
d="M185.5 19q-43.5 24 -67.5 67t-24 96q0 24 4 44l15 84q11 64 50 117t97 84t124 31q131 0 172 -126h6l19 109h34l-93 -525h-34l22 122h-6q-87 -127 -217 -127q-58 0 -101.5 24zM403 58q49 27 80.5 73.5t41.5 102.5l12 68q4 20 4 43q0 71 -43 116t-121 45q-59 0 -108 -27.5
t-80.5 -74t-41.5 -102.5l-12 -68q-4 -19 -4 -42q0 -71 43 -116t120 -45q60 0 109 27zM393 728h46l97 -133h-45l-77 105h-4l-115 -105h-45zM241 -193q-9 9 -9 23q0 17 13 30t30 13q14 0 23.5 -9t9.5 -22q0 -17 -14 -30.5t-31 -13.5q-13 0 -22 9z" />
    <glyph glyph-name="uni1EA7.ss02" horiz-adv-x="613" 
d="M185.5 19q-43.5 24 -67.5 67t-24 96q0 24 4 44l15 84q11 64 50 117t97 84t124 31q131 0 172 -126h6l19 109h34l-93 -525h-34l22 122h-6q-87 -127 -217 -127q-58 0 -101.5 24zM403 58q49 27 80.5 73.5t41.5 102.5l12 68q4 20 4 43q0 71 -43 116t-121 45q-59 0 -108 -27.5
t-80.5 -74t-41.5 -102.5l-12 -68q-4 -19 -4 -42q0 -71 43 -116t120 -45q60 0 109 27zM393 728h46l97 -133h-45l-77 105h-4l-115 -105h-45zM432 879h46l67 -164h-29z" />
    <glyph glyph-name="uni1EA9.ss02" horiz-adv-x="613" 
d="M185.5 19q-43.5 24 -67.5 67t-24 96q0 24 4 44l15 84q11 64 50 117t97 84t124 31q131 0 172 -126h6l19 109h34l-93 -525h-34l22 122h-6q-87 -127 -217 -127q-58 0 -101.5 24zM403 58q49 27 80.5 73.5t41.5 102.5l12 68q4 20 4 43q0 71 -43 116t-121 45q-59 0 -108 -27.5
t-80.5 -74t-41.5 -102.5l-12 -68q-4 -19 -4 -42q0 -71 43 -116t120 -45q60 0 109 27zM393 728h46l97 -133h-45l-77 105h-4l-115 -105h-45zM532 732.5q9 7.5 25 18.5q24 15 36 28t12 34q0 15 -11 25.5t-34 10.5q-22 0 -36 -9.5t-21 -23.5h-34q13 28 37 45.5t59 17.5
q33 0 53 -16.5t20 -42.5q0 -28 -12 -42.5t-36 -31.5q-14 -9 -21.5 -15.5t-12.5 -15.5h-38q5 10 14 17.5z" />
    <glyph glyph-name="uni1EAB.ss02" horiz-adv-x="613" 
d="M185.5 19q-43.5 24 -67.5 67t-24 96q0 24 4 44l15 84q11 64 50 117t97 84t124 31q131 0 172 -126h6l19 109h34l-93 -525h-34l22 122h-6q-87 -127 -217 -127q-58 0 -101.5 24zM403 58q49 27 80.5 73.5t41.5 102.5l12 68q4 20 4 43q0 71 -43 116t-121 45q-59 0 -108 -27.5
t-80.5 -74t-41.5 -102.5l-12 -68q-4 -19 -4 -42q0 -71 43 -116t120 -45q60 0 109 27zM393 728h46l97 -133h-45l-77 105h-4l-115 -105h-45zM359 851q18 0 31 -5.5t29 -16.5q16 -10 26 -15t24 -5q38 0 66 42h38q-45 -73 -109 -73q-18 0 -31 5.5t-29 16.5q-15 10 -26 15t-25 5
q-37 0 -65 -42h-38q45 73 109 73z" />
    <glyph glyph-name="adieresis.ss02" horiz-adv-x="613" 
d="M185.5 19q-43.5 24 -67.5 67t-24 96q0 24 4 44l15 84q11 64 50 117t97 84t124 31q131 0 172 -126h6l19 109h34l-93 -525h-34l22 122h-6q-87 -127 -217 -127q-58 0 -101.5 24zM403 58q49 27 80.5 73.5t41.5 102.5l12 68q4 20 4 43q0 71 -43 116t-121 45q-59 0 -108 -27.5
t-80.5 -74t-41.5 -102.5l-12 -68q-4 -19 -4 -42q0 -71 43 -116t120 -45q60 0 109 27zM445 639q-8 9 -8 22q0 16 12.5 28.5t28.5 12.5q13 0 22 -9t9 -21q0 -16 -13 -29t-30 -13q-13 0 -21 9zM306 639q-8 9 -8 22q0 16 12.5 28.5t28.5 12.5q13 0 22 -9t9 -21q0 -16 -13 -29
t-30 -13q-13 0 -21 9z" />
    <glyph glyph-name="uni1EA1.ss02" horiz-adv-x="613" 
d="M185.5 19q-43.5 24 -67.5 67t-24 96q0 24 4 44l15 84q11 64 50 117t97 84t124 31q131 0 172 -126h6l19 109h34l-93 -525h-34l22 122h-6q-87 -127 -217 -127q-58 0 -101.5 24zM403 58q49 27 80.5 73.5t41.5 102.5l12 68q4 20 4 43q0 71 -43 116t-121 45q-59 0 -108 -27.5
t-80.5 -74t-41.5 -102.5l-12 -68q-4 -19 -4 -42q0 -71 43 -116t120 -45q60 0 109 27zM241 -193q-9 9 -9 23q0 17 13 30t30 13q14 0 23.5 -9t9.5 -22q0 -17 -14 -30.5t-31 -13.5q-13 0 -22 9z" />
    <glyph glyph-name="agrave.ss02" horiz-adv-x="613" 
d="M185.5 19q-43.5 24 -67.5 67t-24 96q0 24 4 44l15 84q11 64 50 117t97 84t124 31q131 0 172 -126h6l19 109h34l-93 -525h-34l22 122h-6q-87 -127 -217 -127q-58 0 -101.5 24zM403 58q49 27 80.5 73.5t41.5 102.5l12 68q4 20 4 43q0 71 -43 116t-121 45q-59 0 -108 -27.5
t-80.5 -74t-41.5 -102.5l-12 -68q-4 -19 -4 -42q0 -71 43 -116t120 -45q60 0 109 27zM291 756h46l67 -164h-29z" />
    <glyph glyph-name="uni1EA3.ss02" horiz-adv-x="613" 
d="M185.5 19q-43.5 24 -67.5 67t-24 96q0 24 4 44l15 84q11 64 50 117t97 84t124 31q131 0 172 -126h6l19 109h34l-93 -525h-34l22 122h-6q-87 -127 -217 -127q-58 0 -101.5 24zM403 58q49 27 80.5 73.5t41.5 102.5l12 68q4 20 4 43q0 71 -43 116t-121 45q-59 0 -108 -27.5
t-80.5 -74t-41.5 -102.5l-12 -68q-4 -19 -4 -42q0 -71 43 -116t120 -45q60 0 109 27zM391 609.5q9 7.5 25 18.5q24 15 36 28t12 34q0 15 -11 25.5t-34 10.5q-22 0 -36 -9.5t-21 -23.5h-34q13 28 37 45.5t59 17.5q33 0 53 -16.5t20 -42.5q0 -28 -12 -42.5t-36 -31.5
q-14 -9 -21.5 -15.5t-12.5 -15.5h-38q5 10 14 17.5z" />
    <glyph glyph-name="amacron.ss02" horiz-adv-x="613" 
d="M185.5 19q-43.5 24 -67.5 67t-24 96q0 24 4 44l15 84q11 64 50 117t97 84t124 31q131 0 172 -126h6l19 109h34l-93 -525h-34l22 122h-6q-87 -127 -217 -127q-58 0 -101.5 24zM403 58q49 27 80.5 73.5t41.5 102.5l12 68q4 20 4 43q0 71 -43 116t-121 45q-59 0 -108 -27.5
t-80.5 -74t-41.5 -102.5l-12 -68q-4 -19 -4 -42q0 -71 43 -116t120 -45q60 0 109 27zM265 661h280l-5 -26h-280z" />
    <glyph glyph-name="aring.ss02" horiz-adv-x="613" 
d="M185.5 19q-43.5 24 -67.5 67t-24 96q0 24 4 44l15 84q11 64 50 117t97 84t124 31q131 0 172 -126h6l19 109h34l-93 -525h-34l22 122h-6q-87 -127 -217 -127q-58 0 -101.5 24zM403 58q49 27 80.5 73.5t41.5 102.5l12 68q4 20 4 43q0 71 -43 116t-121 45q-59 0 -108 -27.5
t-80.5 -74t-41.5 -102.5l-12 -68q-4 -19 -4 -42q0 -71 43 -116t120 -45q60 0 109 27zM353 642q-18 18 -18 45q0 34 27.5 61t61.5 27q28 0 46 -18t18 -44q0 -35 -27.5 -62t-62.5 -27q-27 0 -45 18zM445.5 666q19.5 19 19.5 43q0 18 -13 30.5t-32 12.5q-24 0 -43 -18.5
t-19 -42.5q0 -19 12.5 -31.5t31.5 -12.5q24 0 43.5 19z" />
    <glyph glyph-name="atilde.ss02" horiz-adv-x="613" 
d="M185.5 19q-43.5 24 -67.5 67t-24 96q0 24 4 44l15 84q11 64 50 117t97 84t124 31q131 0 172 -126h6l19 109h34l-93 -525h-34l22 122h-6q-87 -127 -217 -127q-58 0 -101.5 24zM403 58q49 27 80.5 73.5t41.5 102.5l12 68q4 20 4 43q0 71 -43 116t-121 45q-59 0 -108 -27.5
t-80.5 -74t-41.5 -102.5l-12 -68q-4 -19 -4 -42q0 -71 43 -116t120 -45q60 0 109 27zM356 716q18 0 31 -5.5t29 -16.5q16 -10 26 -15t24 -5q38 0 66 42h38q-45 -73 -109 -73q-18 0 -31 5.5t-29 16.5q-15 10 -26 15t-25 5q-37 0 -65 -42h-38q45 73 109 73z" />
    <glyph glyph-name="f_h.dlig" horiz-adv-x="1041" 
d="M982 493q46 -49 46 -132q0 -23 -5 -55l-54 -306h-34l54 306q5 28 5 49q0 75 -45 111.5t-116 36.5q-49 0 -96.5 -22.5t-82 -67t-45.5 -107.5l-54 -306h-34l98 559q6 35 6 61q0 50 -27.5 72.5t-93.5 22.5h-55q-51 0 -84.5 -13t-55.5 -47t-33 -96l-6 -34h123l-5 -30h-123
l-87 -495h-34l87 495h-89l5 30h89l6 34q18 101 72 145.5t141 44.5h55q72 0 110.5 -31t38.5 -101q0 -26 -6 -58l-25 -142h7q32 52 88.5 88.5t128.5 36.5q84 0 130 -49z" />
    <glyph glyph-name="f_k.dlig" horiz-adv-x="905" 
d="M619 294l236 -294h-42l-208 260h-4l-46 -260h-34l98 559q6 35 6 61q0 50 -27.5 72.5t-93.5 22.5h-55q-51 0 -84.5 -13t-55.5 -47t-33 -96l-6 -34h123l-5 -30h-123l-87 -495h-34l87 495h-89l5 30h89l6 34q18 101 72 145.5t141 44.5h55q71 0 110.5 -30t39.5 -101
q0 -26 -6 -59l-42 -234h4l275 200h42z" />
    <glyph glyph-name="f_l.dlig" horiz-adv-x="709" 
d="M674 28l-5 -28q-23 -5 -47 -5q-48 0 -67.5 18t-19.5 53q0 21 7 61l77 432q6 35 6 61q0 50 -27.5 72.5t-93.5 22.5h-55q-51 0 -84.5 -13t-55.5 -47t-33 -96l-6 -34h123l-5 -30h-123l-87 -495h-34l87 495h-89l5 30h89l6 34q18 101 72 145.5t141 44.5h55q72 0 110.5 -31
t38.5 -101q0 -25 -6 -58l-76 -432q-7 -38 -7 -56q0 -24 13 -35.5t46 -11.5q17 0 45 4z" />
    <glyph glyph-name="f_t.dlig" horiz-adv-x="722" 
d="M557 127q-7 -37 -7 -56q0 -24 13 -35.5t46 -11.5q30 0 64 9l-5 -28q-30 -10 -66 -10q-48 0 -67.5 18t-19.5 53q0 21 7 61l66 368h-332l-87 -495h-34l87 495h-80l6 30h79l15 86q10 57 40.5 91.5t96.5 34.5q33 0 51 -6l-5 -28q-20 5 -48 5q-38 0 -59 -14.5t-28.5 -34
t-12.5 -48.5l-15 -86h331l31 175h34l-31 -175h133l-6 -30h-132z" />
    <glyph glyph-name="r_f.dlig" horiz-adv-x="640" 
d="M602 693.5q-21 -14.5 -28.5 -34t-12.5 -48.5l-15 -86h132l-6 -30h-132l-87 -495h-34l87 495h-166q-33 0 -68 -17.5t-62 -55t-37 -93.5l-58 -329h-33l93 525h33l-16 -86h5q25 36 64.5 61t85.5 25h164l15 86q10 55 39 90.5t98 35.5q33 0 51 -6l-5 -28q-20 5 -48 5
q-38 0 -59 -14.5z" />
    <glyph glyph-name="r_t.dlig" horiz-adv-x="660" 
d="M495 127q-7 -38 -7 -56q0 -24 12.5 -35.5t46.5 -11.5q30 0 64 9l-5 -28q-30 -10 -66 -10q-48 0 -67.5 18t-19.5 53q0 21 7 61l66 368h-176q-33 0 -68 -17.5t-62 -55t-37 -93.5l-58 -329h-33l93 525h33l-16 -86h5q25 36 64.5 61t85.5 25h174l31 175h34l-31 -175h133
l-6 -30h-132z" />
    <glyph glyph-name="f_f.liga.ss01" horiz-adv-x="708" 
d="M669.5 690q-20.5 -13 -28 -32t-12.5 -47l-15 -86h132l-6 -30h-132l-87 -495h-34l87 495h-318l-87 -495h-34l87 495h-80l6 30h79l15 86q10 57 40.5 91.5t96.5 34.5h52l-6 -34h-49q-38 0 -58.5 -13t-28 -32t-12.5 -47l-15 -86h317l15 86q10 55 39 90.5t98 35.5h52l-6 -34
h-49q-38 0 -58.5 -13z" />
    <glyph glyph-name="f_i.liga.ss01" horiz-adv-x="581" 
d="M484 0h-34l88 495h-282l-87 -495h-34l87 495h-80l6 30h79l15 86q10 57 40.5 91.5t96.5 34.5h52l-6 -34h-49q-38 0 -58.5 -13t-28 -32t-12.5 -47l-15 -86h315zM610 693q9 -9 9 -21q0 -16 -13 -29t-30 -13q-13 0 -21 9t-8 22q0 16 12.5 28.5t28.5 12.5q13 0 22 -9z" />
    <glyph glyph-name="t_t.liga.ss01" horiz-adv-x="730" 
d="M566 132q-6 -40 -6 -53q0 -25 13 -37.5t45 -12.5h62l-5 -29h-64q-48 0 -67.5 18t-19.5 55q0 19 7 59l65 363h-331l-64 -363q-6 -40 -6 -52q0 -26 13 -38.5t45 -12.5h62l-5 -29h-64q-48 0 -67.5 18t-19.5 55q0 19 7 59l65 363h-109l5 30h109l31 175h34l-31 -175h331
l31 175h34l-31 -175h132l-5 -30h-132z" />
    <glyph glyph-name="ordfeminine" unicode="&#xaa;" horiz-adv-x="140" 
d="M91.5 407.5q-11.5 13.5 -11.5 36.5q0 36 20 61.5t49 25.5q17 0 26.5 -8.5t12.5 -18.5h2l4 23h24l-23 -131h-24l4 25h-2q-19 -27 -48 -27q-22 0 -33.5 13.5zM169 432q14 18 14 43q0 16 -7.5 25.5t-22.5 9.5q-20 0 -33.5 -17.5t-13.5 -43.5q0 -15 7.5 -25t22.5 -10
q19 0 33 18z" />
    <glyph glyph-name="ordmasculine" unicode="&#xba;" horiz-adv-x="154" 
d="M108 409q-13 15 -13 38q0 34 22.5 59t52.5 25q26 0 39.5 -16t13.5 -39q0 -33 -23 -57.5t-54 -24.5q-25 0 -38 15zM184 431.5q14 18.5 14 43.5q0 16 -8 26.5t-23 10.5q-19 0 -33.5 -18.5t-14.5 -43.5q0 -16 8 -26.5t23 -10.5q20 0 34 18.5z" />
    <glyph glyph-name="zero" unicode="0" horiz-adv-x="588" 
d="M151.5 51.5q-46.5 58.5 -46.5 155.5q0 38 8 84l22 126q14 84 51.5 151.5t97 107t136.5 39.5q95 0 141 -58t46 -156q0 -38 -8 -84l-22 -126q-22 -130 -96 -214t-189 -84q-94 0 -140.5 58.5zM456.5 95.5q65.5 69.5 90.5 208.5l18 100q9 51 9 93q0 93 -42 139t-118 46
q-93 0 -158.5 -69.5t-90.5 -208.5l-18 -100q-9 -51 -9 -93q0 -93 42 -139t118 -46q93 0 158.5 69.5z" />
    <glyph glyph-name="one" unicode="1" horiz-adv-x="463" 
d="M413 34l-6 -34h-291l6 34h133l110 624h-4l-154 -129l8 42l154 129h34l-117 -666h127z" />
    <glyph glyph-name="two" unicode="2" horiz-adv-x="575" 
d="M88 33l261 204q69 54 114 96t78.5 97.5t33.5 118.5q0 58 -36.5 95t-110.5 37q-70 0 -115.5 -29t-66.5 -70t-21 -80v-4h-41q8 46 33 94.5t79 85.5t140 37q92 0 133 -45.5t41 -113.5q0 -72 -36.5 -134.5t-91.5 -114t-141 -117.5l-197 -151l-1 -5h387l-6 -34h-441z" />
    <glyph glyph-name="three" unicode="3" horiz-adv-x="580" 
d="M197 15q-43 22 -63.5 56t-22.5 72h34q7 -51 48 -84t116 -33q62 0 110.5 24.5t75.5 68t27 98.5q0 62 -45.5 93.5t-111.5 31.5h-71l6 32h61q98 0 155.5 49t57.5 132q0 59 -41 92.5t-111 33.5q-73 0 -121 -33.5t-67 -83.5h-34q22 59 77.5 105t151.5 46q89 0 134 -42.5
t45 -109.5q0 -68 -32 -113t-70 -67t-52 -22v-5q14 -2 37.5 -14.5t44 -41.5t20.5 -76q0 -66 -32.5 -118.5t-89.5 -82.5t-128 -30q-66 0 -109 22z" />
    <glyph glyph-name="four" unicode="4" horiz-adv-x="589" 
d="M422 180l-335 1l9 52l408 467h44l-86 -487h114l-6 -33h-114l-32 -180h-34zM429 213l78 445l-387 -445h309z" />
    <glyph glyph-name="five" unicode="5" horiz-adv-x="610" 
d="M217.5 22q-42.5 22 -65.5 57.5t-25 76.5h33q10 -63 56.5 -93t108.5 -30q67 0 120.5 34t84 93t30.5 132q0 80 -47.5 115.5t-114.5 35.5q-68 0 -115 -31.5t-70 -76.5l-42 8l84 357h362l-6 -35h-332l-65 -277h2q27 37 75.5 63t112.5 26q85 0 137 -46.5t52 -133.5
q0 -82 -36 -150t-99 -107.5t-139 -39.5q-59 0 -101.5 22z" />
    <glyph glyph-name="six" unicode="6" horiz-adv-x="588" 
d="M206.5 11q-43.5 18 -72 58.5t-28.5 103.5q0 73 31.5 143.5t74.5 126.5t107 128l115 129h40l-300 -350l4 1l21 21q25 25 69.5 45t99.5 20q52 0 95.5 -20t69.5 -60t26 -96q0 -72 -35 -134t-95 -98t-131 -36q-48 0 -91.5 18zM412 57q52 30 83 80t31 109q0 67 -43 112
t-119 45q-60 0 -111.5 -30.5t-82 -82.5t-30.5 -113q0 -67 43 -108.5t116 -41.5q61 0 113 30z" />
    <glyph glyph-name="seven" unicode="7" horiz-adv-x="500" 
d="M139 12l379 644l1 10h-368l6 34h413l-5 -30l-397 -670h-31z" />
    <glyph glyph-name="eight" unicode="8" horiz-adv-x="614" 
d="M189.5 15q-47.5 22 -71 59.5t-23.5 82.5q0 44 22.5 88.5t60.5 78.5t82 48l1 4q-34 16 -53 48t-19 73q0 59 33 109t89.5 79.5t122.5 29.5q56 0 96 -20.5t60.5 -55.5t20.5 -78q0 -59 -35.5 -111t-90.5 -74l-1 -4q45 -16 73 -58t28 -94q0 -63 -37 -115t-101.5 -82
t-141.5 -30q-68 0 -115.5 22zM479 407.5q46 22.5 72.5 62.5t26.5 91q0 53 -38 87t-113 34q-58 0 -104.5 -23t-73 -63.5t-26.5 -90.5q0 -53 38 -86.5t114 -33.5q58 0 104 22.5zM435 53q55 25 86 69.5t31 99.5q0 61 -46 99t-136 38q-69 0 -124 -25t-86 -70t-31 -101
q0 -60 46 -97.5t136 -37.5q69 0 124 25z" />
    <glyph glyph-name="nine" unicode="9" horiz-adv-x="588" 
d="M538 352l-4 -1l-22 -21q-26 -25 -69.5 -45.5t-98.5 -20.5q-52 0 -95.5 20t-69.5 60t-26 97q0 74 35.5 137t95.5 100t131 37q48 0 91.5 -18.5t71.5 -59.5t28 -105q0 -74 -31.5 -146t-75 -130t-106.5 -129l-112 -127l-40 -1zM459.5 329q51.5 31 82 84.5t30.5 115.5
q0 68 -42.5 110t-115.5 42q-61 0 -113.5 -30.5t-83.5 -82t-31 -111.5q0 -68 43 -113.5t119 -45.5q60 0 111.5 31z" />
    <glyph glyph-name="one.ss01" horiz-adv-x="463" 
d="M413 34l-6 -34h-291l6 34h133l112 633h-133l5 33h164l-117 -666h127z" />
    <glyph glyph-name="seven.ss01" horiz-adv-x="500" 
d="M565 670l-397 -670h-31l2 12l379 644l1 10h-333l-14 -81h-34l13 81l6 34h413z" />
    <glyph glyph-name="uni2080" unicode="&#x2080;" horiz-adv-x="321" 
d="M39 -209q-25 39 -25 98q0 67 23.5 124.5t62.5 91.5t85 34q54 0 78.5 -37t24.5 -95q0 -69 -23 -127.5t-62 -93t-86 -34.5q-53 0 -78 39zM189 -190.5q31 31.5 49.5 84t18.5 114.5q0 49 -18.5 77.5t-57.5 28.5q-37 0 -68 -31t-49.5 -83.5t-18.5 -114.5q0 -49 18.5 -78
t58.5 -29q36 0 67 31.5z" />
    <glyph glyph-name="uni2081" unicode="&#x2081;" horiz-adv-x="233" 
d="M164 -220l-5 -30h-171l5 30h73l55 308h-1l-87 -69l7 36l87 70h28l-61 -345h70z" />
    <glyph glyph-name="uni2082" unicode="&#x2082;" horiz-adv-x="302" 
d="M-9 -220l123 103l21 17q52 43 78 74t26 71q0 26 -16 43t-52 17q-49 0 -72 -29t-30 -63h-33q9 45 43 82t97 37q49 0 71.5 -23t22.5 -59q0 -35 -16.5 -64.5t-40 -52.5t-62.5 -54l-24 -20l-90 -76l-1 -3h197l-5 -30h-242z" />
    <glyph glyph-name="uni2083" unicode="&#x2083;" horiz-adv-x="303" 
d="M29.5 -221.5q-25.5 28.5 -27.5 60.5h30q4 -27 26 -43.5t56 -16.5q46 0 76 26t30 66q0 31 -23.5 47.5t-55.5 16.5h-38l5 27h35q46 0 74.5 24t28.5 63q0 29 -20.5 45.5t-53.5 16.5q-37 0 -61 -17t-33 -42h-31q14 34 45.5 60t83.5 26q50 0 75.5 -24.5t25.5 -60.5
q0 -34 -18 -57.5t-38.5 -35.5t-25.5 -12v-1q1 0 14.5 -4.5t27 -22t13.5 -42.5q0 -35 -19 -64.5t-51 -46.5t-70 -17q-55 0 -80.5 28.5z" />
    <glyph glyph-name="uni2084" unicode="&#x2084;" horiz-adv-x="324" 
d="M179 -156h-177l6 34l214 247h39l-45 -255h55l-5 -26h-55l-17 -94h-32zM183 -131l39 218l-187 -218h148z" />
    <glyph glyph-name="uni2085" unicode="&#x2085;" horiz-adv-x="306" 
d="M32 -223.5q-28 26.5 -30 64.5h31q3 -31 27 -48t53 -17q49 0 82.5 37t33.5 91q0 38 -23.5 56.5t-57.5 18.5q-58 0 -75 -25.5t-18 -26.5l-30 2l44 196h210l-5 -29h-184l-34 -135h2q-2 1 10.5 13t35 21.5t53.5 9.5q44 0 72 -25.5t28 -71.5q0 -43 -20 -79t-54 -57.5
t-74 -21.5q-49 0 -77 26.5z" />
    <glyph glyph-name="uni2086" unicode="&#x2086;" horiz-adv-x="306" 
d="M37.5 -225.5q-31.5 24.5 -31.5 74.5q0 39 17 76t37.5 64.5t54.5 66.5l63 74h34l-155 -182l3 1l11 9q13 11 35 22.5t51 11.5q43 0 71 -25.5t28 -69.5q0 -39 -19.5 -73t-53 -54t-72.5 -20q-42 0 -73.5 24.5zM169.5 -207.5q26.5 15.5 42 41t15.5 54.5q0 33 -21.5 54.5
t-58.5 21.5q-46 0 -79 -32.5t-33 -77.5q0 -34 22 -55.5t57 -21.5q29 0 55.5 15.5z" />
    <glyph glyph-name="uni2087" unicode="&#x2087;" horiz-adv-x="286" 
d="M36 -244l206 336l1 4h-196l5 29h226l-5 -30l-208 -345h-30z" />
    <glyph glyph-name="uni2088" unicode="&#x2088;" horiz-adv-x="322" 
d="M32.5 -224q-29.5 26 -29.5 64q0 41 28.5 72.5t57.5 40.5l1 3q-16 8 -26.5 25t-10.5 39q0 32 18 58.5t48.5 42.5t66.5 16q46 0 72.5 -24.5t26.5 -59.5q0 -31 -20 -58.5t-49 -38.5l-1 -3q23 -9 38 -30t15 -49q0 -34 -20 -62.5t-54.5 -45t-75.5 -16.5q-56 0 -85.5 26z
M227 -11q29 25 29 61q0 27 -18.5 45.5t-55.5 18.5q-43 0 -73.5 -26.5t-30.5 -62.5q0 -26 20 -43.5t57 -17.5q43 0 72 25zM204 -195q34 28 34 70q0 29 -22 48t-65 19q-50 0 -83 -27.5t-33 -68.5q0 -30 21 -49.5t64 -19.5q50 0 84 28z" />
    <glyph glyph-name="uni2089" unicode="&#x2089;" horiz-adv-x="306" 
d="M248.5 107.5q31.5 -24.5 31.5 -74.5q0 -54 -31 -105t-77 -104l-64 -74h-34l150 179l-8 -7q-13 -12 -35 -22.5t-50 -10.5q-43 0 -72 25.5t-29 70.5q0 40 20 73.5t53.5 53.5t72.5 20q41 0 72.5 -24.5zM194.5 -68.5q25.5 15.5 40.5 41.5t15 55q0 32 -21 54t-57 22
q-45 0 -78.5 -32.5t-33.5 -76.5q0 -33 21.5 -56t59.5 -23q28 0 53.5 15.5z" />
    <glyph glyph-name="zero.dnom" horiz-adv-x="629" 
d="M151.5 51.5q-46.5 58.5 -46.5 155.5q0 38 8 84l22 126q14 84 51.5 151.5t97 107t136.5 39.5q95 0 141 -58t46 -156q0 -38 -8 -84l-22 -126q-22 -130 -96 -214t-189 -84q-94 0 -140.5 58.5zM456.5 95.5q65.5 69.5 90.5 208.5l18 100q9 51 9 93q0 93 -42 139t-118 46
q-93 0 -158.5 -69.5t-90.5 -208.5l-18 -100q-9 -51 -9 -93q0 -93 42 -139t118 -46q93 0 158.5 69.5z" />
    <glyph glyph-name="one.dnom" horiz-adv-x="473" 
d="M409 34l-6 -34h-291l6 34h133l110 624h-4l-154 -129l8 42l154 129h34l-117 -666h127z" />
    <glyph glyph-name="two.dnom" horiz-adv-x="575" 
d="M86 33l261 204q69 54 114 96t78.5 97.5t33.5 118.5q0 58 -36.5 95t-110.5 37q-70 0 -115.5 -29t-66.5 -70t-21 -80v-4h-41q8 46 33 94.5t79 85.5t140 37q92 0 133 -45.5t41 -113.5q0 -72 -36.5 -134.5t-91.5 -114t-141 -117.5l-197 -151l-1 -5h387l-6 -34h-441z" />
    <glyph glyph-name="three.dnom" horiz-adv-x="580" 
d="M196 15q-43 22 -63.5 56t-22.5 72h34q7 -51 48 -84t116 -33q62 0 110.5 24.5t75.5 68t27 98.5q0 62 -45.5 93.5t-111.5 31.5h-71l6 32h61q98 0 155.5 49t57.5 132q0 59 -41 92.5t-111 33.5q-73 0 -121 -33.5t-67 -83.5h-34q22 59 77.5 105t151.5 46q89 0 134 -42.5
t45 -109.5q0 -68 -32 -113t-70 -67t-52 -22v-5q14 -2 37.5 -14.5t44 -41.5t20.5 -76q0 -66 -32.5 -118.5t-89.5 -82.5t-128 -30q-66 0 -109 22z" />
    <glyph glyph-name="four.dnom" horiz-adv-x="610" 
d="M421 180l-335 1l9 52l408 467h44l-86 -487h114l-6 -33h-114l-32 -180h-34zM428 213l78 445l-387 -445h309z" />
    <glyph glyph-name="five.dnom" horiz-adv-x="610" 
d="M218.5 22q-42.5 22 -65.5 57.5t-25 76.5h33q10 -63 56.5 -93t108.5 -30q67 0 120.5 34t84 93t30.5 132q0 80 -47.5 115.5t-114.5 35.5q-68 0 -115 -31.5t-70 -76.5l-42 8l84 357h362l-6 -35h-332l-65 -277h2q27 37 75.5 63t112.5 26q85 0 137 -46.5t52 -133.5
q0 -82 -36 -150t-99 -107.5t-139 -39.5q-59 0 -101.5 22z" />
    <glyph glyph-name="six.dnom" horiz-adv-x="588" 
d="M206.5 11q-43.5 18 -72 58.5t-28.5 103.5q0 73 31.5 143.5t74.5 126.5t107 128l115 129h40l-300 -350l4 1l21 21q25 25 69.5 45t99.5 20q52 0 95.5 -20t69.5 -60t26 -96q0 -72 -35 -134t-95 -98t-131 -36q-48 0 -91.5 18zM412 57q52 30 83 80t31 109q0 67 -43 112
t-119 45q-60 0 -111.5 -30.5t-82 -82.5t-30.5 -113q0 -67 43 -108.5t116 -41.5q61 0 113 30z" />
    <glyph glyph-name="seven.dnom" horiz-adv-x="500" 
d="M137 12l379 644l1 10h-368l6 34h413l-5 -30l-397 -670h-31z" />
    <glyph glyph-name="eight.dnom" horiz-adv-x="588" 
d="M188.5 15q-47.5 22 -71 59.5t-23.5 82.5q0 44 22.5 88.5t60.5 78.5t82 48l1 4q-34 16 -53 48t-19 73q0 59 33 109t89.5 79.5t122.5 29.5q56 0 96 -20.5t60.5 -55.5t20.5 -78q0 -59 -35.5 -111t-90.5 -74l-1 -4q45 -16 73 -58t28 -94q0 -63 -37 -115t-101.5 -82
t-141.5 -30q-68 0 -115.5 22zM478 407.5q46 22.5 72.5 62.5t26.5 91q0 53 -38 87t-113 34q-58 0 -104.5 -23t-73 -63.5t-26.5 -90.5q0 -53 38 -86.5t114 -33.5q58 0 104 22.5zM434 53q55 25 86 69.5t31 99.5q0 61 -46 99t-136 38q-69 0 -124 -25t-86 -70t-31 -101
q0 -60 46 -97.5t136 -37.5q69 0 124 25z" />
    <glyph glyph-name="nine.dnom" horiz-adv-x="588" 
d="M538 352l-4 -1l-22 -21q-26 -25 -69.5 -45.5t-98.5 -20.5q-52 0 -95.5 20t-69.5 60t-26 97q0 74 35.5 137t95.5 100t131 37q48 0 91.5 -18.5t71.5 -59.5t28 -105q0 -74 -31.5 -146t-75 -130t-106.5 -129l-112 -127l-40 -1zM459.5 329q51.5 31 82 84.5t30.5 115.5
q0 68 -42.5 110t-115.5 42q-61 0 -113.5 -30.5t-83.5 -82t-31 -111.5q0 -68 43 -113.5t119 -45.5q60 0 111.5 31z" />
    <glyph glyph-name="zero.numr" horiz-adv-x="629" 
d="M151.5 51.5q-46.5 58.5 -46.5 155.5q0 38 8 84l22 126q14 84 51.5 151.5t97 107t136.5 39.5q95 0 141 -58t46 -156q0 -38 -8 -84l-22 -126q-22 -130 -96 -214t-189 -84q-94 0 -140.5 58.5zM456.5 95.5q65.5 69.5 90.5 208.5l18 100q9 51 9 93q0 93 -42 139t-118 46
q-93 0 -158.5 -69.5t-90.5 -208.5l-18 -100q-9 -51 -9 -93q0 -93 42 -139t118 -46q93 0 158.5 69.5z" />
    </font>
</defs>
</svg>
