<?xml version="1.0" standalone="no"?>
<!DOCTYPE svg PUBLIC "-//W3C//DTD SVG 1.1//EN" "http://www.w3.org/Graphics/SVG/1.1/DTD/svg11.dtd" >
<svg xmlns="http://www.w3.org/2000/svg" xmlns:xlink="http://www.w3.org/1999/xlink" version="1.1">
<metadata>
Created by FontForge 20170812 at Mon Aug  5 09:43:17 2019
 By www-data
Copyright 2019 The Bevietnam Project Authors (https://github.com/bettergui/beVietnam)
</metadata>
<defs>
<font id="BeVietnam-Regular" horiz-adv-x="569" >
  <font-face 
    font-family="Be Vietnam"
    font-weight="400"
    font-stretch="normal"
    units-per-em="1000"
    panose-1="0 0 5 0 0 0 0 0 0 0"
    ascent="800"
    descent="-200"
    x-height="527"
    cap-height="700"
    bbox="-535 -265 1157 1196"
    underline-thickness="50"
    underline-position="-100"
    unicode-range="U+000D-2265"
  />
<missing-glyph horiz-adv-x="731" 
d="M599 -265h-463v1461h463v-1461zM245 1098v-48h95v-54h-96v-48h243v48h-97v54h97v48h-242zM244 910v-152h243v49h-97v103h-146zM340 807h-48v53h48v-53zM244 718v-48h96v-54h-96v-48h146v102h97v48h-243zM438 631v-97h-194v-50h243v147h-49zM340 452v-81h50v33h48v-69
h-146v117h-48v-165h243v165h-147zM244 200v-165h243v165h-243zM438 83h-146v68h146v-68zM244 1v-48h102l-102 -69v-48h243v48h-150l103 69h47v48h-243z" />
    <glyph glyph-name="f_f.liga" unicode="ff" horiz-adv-x="740" 
d="M596.5 661.5q-16.5 -13.5 -20 -32t-3.5 -47.5v-55h125v-69h-125v-458h-86l-1 458h-280v-458h-86l-1 458h-72v69h72v75q0 54 29 95t112 41q20 0 40.5 -2.5t30.5 -5.5v-60q-22 5 -50 5q-35 0 -51.5 -13.5t-20 -32t-3.5 -47.5v-55h280v75q0 54 29 95t112 41q20 0 40.5 -2.5
t30.5 -5.5v-60q-22 5 -50 5q-35 0 -51.5 -13.5z" />
    <glyph glyph-name="f_i.liga" unicode="fi" horiz-adv-x="625" 
d="M542 0h-86v458h-250v-458h-86l-1 458h-72v69h72v75q0 54 29 95t112 41q20 0 40.5 -2.5t30.5 -5.5v-60q-22 5 -50 5q-35 0 -51.5 -13.5t-20 -32t-3.5 -47.5v-55h336v-527zM461 641.5q-16 16.5 -16 39.5t16 39.5t40 16.5t40 -16.5t16 -39.5t-16 -39.5t-40 -16.5t-40 16.5z
" />
    <glyph glyph-name="t_t.liga" unicode="tt" horiz-adv-x="785" 
d="M609 458v-301q0 -38 3.5 -56.5t19 -29.5t49.5 -11q23 0 53 7v-62q-8 -3 -31.5 -6t-48.5 -3q-59 0 -88 19t-36.5 49.5t-7.5 79.5l1 314h-307v-301q0 -38 3.5 -56.5t19 -29.5t50.5 -11q24 0 52 7v-62q-7 -3 -30.5 -6t-48.5 -3q-59 0 -88 19t-36.5 49.5t-7.5 79.5v314h-98
v69h98v173h86v-173h307v173h86v-173h125v-69h-125z" />
    <glyph glyph-name="hyphen_greater.liga" unicode="&#x2d;&#x3e;" horiz-adv-x="705" 
d="M468 527l199 -211l-199 -209h-90l163 172h-502v75h502l-163 173h90z" />
    <glyph glyph-name="colon_b_e_colon.liga" unicode="&#x3a;be&#x3a;" horiz-adv-x="878" 
d="M146 618h160q53 0 77.5 26.5t24.5 67.5q0 14 -1 21q51 -14 80.5 -54.5t29.5 -96.5q0 -63 -42 -102t-135 -39h-217zM100 250h229q80 0 120 36t40 92q0 23 -6 45q50 -10 89.5 -41.5t62.5 -77.5t23 -99q0 -62 -30 -112.5t-87.5 -80t-136.5 -29.5h-340z" />
    <glyph glyph-name="colon_d_d_colon.liga" unicode="&#x3a;dd&#x3a;" horiz-adv-x="599" 
d="M578 747v-57h-59v-523h-87v81h-7q-23 -36 -65 -61.5t-109 -25.5q-68 0 -116.5 31t-73.5 85t-25 122q0 66 24.5 120t73 86.5t117.5 32.5t113 -28.5t61 -64.5h7v145h-145v57h145v73h87v-73h59zM391 281.5q40 48.5 40 117.5t-40 117.5t-114 48.5q-75 0 -114.5 -48
t-39.5 -117q0 -70 39.5 -118.5t114.5 -48.5q74 0 114 48.5zM92 61h435l-1 -61h-434v61z" />
    <glyph glyph-name="colon_d_o_w_n_colon.liga" unicode="&#x3a;down&#x3a;" horiz-adv-x="540" 
d="M480 201l-210 -199l-210 199v89l171 -162v573h76v-573l173 162v-89z" />
    <glyph glyph-name="colon_l_e_f_t_colon.liga" unicode="&#x3a;left&#x3a;" horiz-adv-x="676" 
d="M110 87h298q43 0 79.5 21t58 57t21.5 79q0 44 -21.5 81t-58.5 58.5t-79 21.5l-268 1l185 -162h-98l-186 169v51l186 147h98l-184 -139h267q61 0 113 -30.5t83 -82t31 -112.5q0 -62 -31 -114.5t-83 -83t-113 -30.5h-298v68z" />
    <glyph glyph-name="colon_r_i_g_h_t_colon.liga" unicode="&#x3a;right&#x3a;" horiz-adv-x="676" 
d="M268 19q-61 0 -113 30.5t-83 83.5t-31 115q0 60 31 111.5t83 82t113 30.5h267l-184 139h98l186 -147v-51l-186 -169h-98l185 162l-268 -1q-42 0 -79 -21.5t-58.5 -58t-21.5 -80.5t21.5 -80t58 -57t79.5 -21h298v-68h-298z" />
    <glyph glyph-name="colon_s_t_a_r_colon.liga" unicode="&#x3a;star&#x3a;" horiz-adv-x="831" 
d="M285 295l-195 140l236 12l88 225l88 -224l237 -13l-194 -140l70 -244l-200 143l-200 -143z" />
    <glyph glyph-name="colon_u_p_colon.liga" unicode="&#x3a;up&#x3a;" horiz-adv-x="540" 
d="M307 573v-574h-76v574l-171 -163v90l210 199l210 -199v-90z" />
    <glyph glyph-name="less_hyphen.liga" unicode="&#x3c;&#x2d;" horiz-adv-x="684" 
d="M143 354h502v-75h-502l163 -172h-90l-199 209l199 211h90z" />
    <glyph glyph-name=".notdef" horiz-adv-x="731" 
d="M599 -265h-463v1461h463v-1461zM245 1098v-48h95v-54h-96v-48h243v48h-97v54h97v48h-242zM244 910v-152h243v49h-97v103h-146zM340 807h-48v53h48v-53zM244 718v-48h96v-54h-96v-48h146v102h97v48h-243zM438 631v-97h-194v-50h243v147h-49zM340 452v-81h50v33h48v-69
h-146v117h-48v-165h243v165h-147zM244 200v-165h243v165h-243zM438 83h-146v68h146v-68zM244 1v-48h102l-102 -69v-48h243v48h-150l103 69h47v48h-243z" />
    <glyph glyph-name="nonmarkingreturn" unicode="&#xd;" horiz-adv-x="600" 
 />
    <glyph glyph-name="space" unicode=" " horiz-adv-x="230" 
 />
    <glyph glyph-name="A" unicode="A" horiz-adv-x="680" 
d="M483 204h-285l-74 -204h-88l263 700h82l265 -700h-88zM458 273l-117 317h-4l-114 -317h235z" />
    <glyph glyph-name="Aacute" unicode="&#xc1;" horiz-adv-x="680" 
d="M483 204h-285l-74 -204h-88l263 700h82l265 -700h-88zM458 273l-117 317h-4l-114 -317h235zM308 771l98 179h92l-121 -179h-69z" />
    <glyph glyph-name="Abreve" unicode="&#x102;" horiz-adv-x="680" 
d="M483 204h-285l-74 -204h-88l263 700h82l265 -700h-88zM458 273l-117 317h-4l-114 -317h235zM240.5 806.5q-40.5 25.5 -70.5 79.5h75q29 -52 95 -52q65 0 94 52h75q-30 -53 -70.5 -79t-98.5 -26q-59 0 -99.5 25.5z" />
    <glyph glyph-name="uni1EAE" unicode="&#x1eae;" horiz-adv-x="680" 
d="M483 204h-285l-74 -204h-88l263 700h82l265 -700h-88zM458 273l-117 317h-4l-114 -317h235zM240.5 806.5q-40.5 25.5 -70.5 79.5h75q29 -52 95 -52q65 0 94 52h75q-30 -53 -70.5 -79t-98.5 -26q-59 0 -99.5 25.5zM308 913l98 179h92l-121 -179h-69z" />
    <glyph glyph-name="uni1EB6" unicode="&#x1eb6;" horiz-adv-x="680" 
d="M483 204h-285l-74 -204h-88l263 700h82l265 -700h-88zM458 273l-117 317h-4l-114 -317h235zM300 -206.5q-16 16.5 -16 39.5t16 39.5t40 16.5t40 -16.5t16 -39.5t-16 -39.5t-40 -16.5t-40 16.5zM240.5 806.5q-40.5 25.5 -70.5 79.5h75q29 -52 95 -52q65 0 94 52h75
q-30 -53 -70.5 -79t-98.5 -26q-59 0 -99.5 25.5z" />
    <glyph glyph-name="uni1EB0" unicode="&#x1eb0;" horiz-adv-x="680" 
d="M483 204h-285l-74 -204h-88l263 700h82l265 -700h-88zM458 273l-117 317h-4l-114 -317h235zM243.5 806.5q-40.5 25.5 -70.5 79.5h75q29 -52 95 -52q65 0 94 52h75q-30 -53 -70.5 -79t-98.5 -26q-59 0 -99.5 25.5zM185 1092h91l99 -179h-70z" />
    <glyph glyph-name="uni1EB2" unicode="&#x1eb2;" horiz-adv-x="680" 
d="M483 204h-285l-74 -204h-88l263 700h82l265 -700h-88zM458 273l-117 317h-4l-114 -317h235zM240.5 806.5q-40.5 25.5 -70.5 79.5h75q29 -52 95 -52q65 0 94 52h75q-30 -53 -70.5 -79t-98.5 -26q-59 0 -99.5 25.5zM314 929q7 7 25 20q23 17 33.5 29t10.5 30q0 16 -10 27
t-32 11q-19 0 -30 -9t-13 -23h-66q5 35 31.5 59.5t76.5 24.5t77.5 -24t27.5 -62q0 -25 -11.5 -41t-32.5 -31q-22 -16 -25 -27h-72q3 9 10 16z" />
    <glyph glyph-name="uni1EB4" unicode="&#x1eb4;" horiz-adv-x="680" 
d="M483 204h-285l-74 -204h-88l263 700h82l265 -700h-88zM458 273l-117 317h-4l-114 -317h235zM239.5 806.5q-40.5 25.5 -70.5 79.5h75q29 -52 95 -52q65 0 94 52h75q-30 -53 -70.5 -79t-98.5 -26q-59 0 -99.5 25.5zM214.5 1013q20.5 33 66.5 33q19 0 34.5 -7.5t36.5 -22.5
q15 -11 25 -16.5t20 -5.5q18 0 26 15t6 37h52q3 -43 -17 -76.5t-67 -33.5q-19 0 -34.5 7.5t-36.5 22.5q-16 11 -25.5 16t-19.5 5q-35 0 -33 -51h-52q-2 44 18.5 77z" />
    <glyph glyph-name="Acircumflex" unicode="&#xc2;" horiz-adv-x="680" 
d="M483 204h-285l-74 -204h-88l263 700h82l265 -700h-88zM458 273l-117 317h-4l-114 -317h235zM302 912h75l131 -146h-86l-81 90h-4l-81 -90h-85z" />
    <glyph glyph-name="uni1EA4" unicode="&#x1ea4;" horiz-adv-x="680" 
d="M483 204h-285l-74 -204h-88l263 700h82l265 -700h-88zM458 273l-117 317h-4l-114 -317h235zM302 912h75l131 -146h-86l-81 90h-4l-81 -90h-85zM460 891l98 179h92l-121 -179h-69z" />
    <glyph glyph-name="uni1EAC" unicode="&#x1eac;" horiz-adv-x="680" 
d="M483 204h-285l-74 -204h-88l263 700h82l265 -700h-88zM458 273l-117 317h-4l-114 -317h235zM300 -206.5q-16 16.5 -16 39.5t16 39.5t40 16.5t40 -16.5t16 -39.5t-16 -39.5t-40 -16.5t-40 16.5zM302 912h75l131 -146h-86l-81 90h-4l-81 -90h-85z" />
    <glyph glyph-name="uni1EA6" unicode="&#x1ea6;" horiz-adv-x="680" 
d="M483 204h-285l-74 -204h-88l263 700h82l265 -700h-88zM458 273l-117 317h-4l-114 -317h235zM302 912h75l131 -146h-86l-81 90h-4l-81 -90h-85zM342 1070h91l99 -179h-70z" />
    <glyph glyph-name="uni1EA8" unicode="&#x1ea8;" horiz-adv-x="680" 
d="M483 204h-285l-74 -204h-88l263 700h82l265 -700h-88zM458 273l-117 317h-4l-114 -317h235zM302 912h75l131 -146h-86l-81 90h-4l-81 -90h-85zM468 912q7 7 25 20q23 17 33.5 29t10.5 30q0 16 -10 27t-32 11q-19 0 -30 -9t-13 -23h-66q5 35 31.5 59.5t76.5 24.5t77.5 -24
t27.5 -62q0 -25 -11.5 -41t-32.5 -31q-22 -16 -25 -27h-72q3 9 10 16z" />
    <glyph glyph-name="uni1EAA" unicode="&#x1eaa;" horiz-adv-x="680" 
d="M483 204h-285l-74 -204h-88l263 700h82l265 -700h-88zM458 273l-117 317h-4l-114 -317h235zM302 912h75l131 -146h-86l-81 90h-4l-81 -90h-85zM216.5 1027q20.5 33 66.5 33q19 0 34.5 -7.5t36.5 -22.5q15 -11 25 -16.5t20 -5.5q18 0 26 15t6 37h52q3 -43 -17 -76.5
t-67 -33.5q-19 0 -34.5 7.5t-36.5 22.5q-16 11 -25.5 16t-19.5 5q-35 0 -33 -51h-52q-2 44 18.5 77z" />
    <glyph glyph-name="Adieresis" unicode="&#xc4;" horiz-adv-x="680" 
d="M483 204h-285l-74 -204h-88l263 700h82l265 -700h-88zM458 273l-117 317h-4l-114 -317h235zM399 814.5q-16 16.5 -16 39.5t16 39.5t40 16.5t40.5 -16.5t16.5 -39.5t-16.5 -39.5t-40.5 -16.5t-40 16.5zM203 814.5q-16 16.5 -16 39.5t16 39.5t40 16.5t40.5 -16.5
t16.5 -39.5t-16.5 -39.5t-40.5 -16.5t-40 16.5z" />
    <glyph glyph-name="uni1EA0" unicode="&#x1ea0;" horiz-adv-x="680" 
d="M483 204h-285l-74 -204h-88l263 700h82l265 -700h-88zM458 273l-117 317h-4l-114 -317h235zM300 -206.5q-16 16.5 -16 39.5t16 39.5t40 16.5t40 -16.5t16 -39.5t-16 -39.5t-40 -16.5t-40 16.5z" />
    <glyph glyph-name="Agrave" unicode="&#xc0;" horiz-adv-x="680" 
d="M483 204h-285l-74 -204h-88l263 700h82l265 -700h-88zM458 273l-117 317h-4l-114 -317h235zM182 950h91l99 -179h-70z" />
    <glyph glyph-name="uni1EA2" unicode="&#x1ea2;" horiz-adv-x="680" 
d="M483 204h-285l-74 -204h-88l263 700h82l265 -700h-88zM458 273l-117 317h-4l-114 -317h235zM314 787q7 7 25 20q23 17 33.5 29t10.5 30q0 16 -10 27t-32 11q-19 0 -30 -9t-13 -23h-66q5 35 31.5 59.5t76.5 24.5t77.5 -24t27.5 -62q0 -25 -11.5 -41t-32.5 -31
q-22 -16 -25 -27h-72q3 9 10 16z" />
    <glyph glyph-name="Amacron" unicode="&#x100;" horiz-adv-x="680" 
d="M483 204h-285l-74 -204h-88l263 700h82l265 -700h-88zM458 273l-117 317h-4l-114 -317h235zM189 844h300v-45h-300v45z" />
    <glyph glyph-name="Aogonek" unicode="&#x104;" horiz-adv-x="680" 
d="M667 -106v-50q-24 -6 -50 -6q-49 0 -77 24t-28 61q0 49 44 83l-73 198h-285l-74 -204h-88l263 700h82l265 -700h-17q-26 -16 -40.5 -31t-14.5 -38q0 -18 13 -30t41 -12q14 0 39 5zM458 273l-117 317h-4l-114 -317h235z" />
    <glyph glyph-name="Aring" unicode="&#xc5;" horiz-adv-x="680" 
d="M483 204h-285l-74 -204h-88l263 700h82l265 -700h-88zM458 273l-117 317h-4l-114 -317h235zM277.5 811q-25.5 26 -25.5 62t25.5 61.5t61.5 25.5t62 -25.5t26 -61.5t-26 -62t-62 -26t-61.5 26zM372 840q14 14 14 33q0 20 -14 33.5t-33 13.5q-20 0 -33.5 -13.5t-13.5 -33.5
q0 -19 13.5 -33t33.5 -14q19 0 33 14z" />
    <glyph glyph-name="Atilde" unicode="&#xc3;" horiz-adv-x="680" 
d="M483 204h-285l-74 -204h-88l263 700h82l265 -700h-88zM458 273l-117 317h-4l-114 -317h235zM214.5 871q20.5 33 66.5 33q19 0 34.5 -7.5t36.5 -22.5q15 -11 25 -16.5t20 -5.5q18 0 26 15t6 37h52q3 -43 -17 -76.5t-67 -33.5q-19 0 -34.5 7.5t-36.5 22.5q-16 11 -25.5 16
t-19.5 5q-35 0 -33 -51h-52q-2 44 18.5 77z" />
    <glyph glyph-name="AE" unicode="&#xc6;" horiz-adv-x="956" 
d="M549 622v-230h303v-70h-303v-244h344v-78h-431v204h-235l-111 -204h-96l375 700h498v-78h-344zM462 273v349h-9l-189 -349h198z" />
    <glyph glyph-name="B" unicode="B" horiz-adv-x="624" 
d="M75 700h280q70 0 114.5 -27t63.5 -67.5t19 -83.5q0 -45 -19 -78t-46 -51t-51 -23v-6q26 -2 60.5 -18.5t61 -53t26.5 -92.5q0 -50 -22.5 -95.5t-70.5 -75t-120 -29.5h-296v700zM330 393q57 0 98 29.5t41 91.5q0 59 -39.5 86t-99.5 27h-171v-234h171zM349 73q65 0 108 30
t43 98q0 67 -43 95.5t-108 28.5h-190v-252h190z" />
    <glyph glyph-name="C" unicode="C" horiz-adv-x="712" 
d="M201 39.5q-71 46.5 -108.5 128.5t-37.5 186t37.5 186t108.5 128.5t169 46.5q118 0 195 -66.5t103 -179.5h-85q-21 77 -77 122.5t-135 45.5q-109 0 -167 -76.5t-58 -205.5q0 -130 58 -206.5t167 -76.5q75 0 129 40.5t77 108.5h85q-28 -104 -103.5 -166t-188.5 -62
q-98 0 -169 46.5z" />
    <glyph glyph-name="Cacute" unicode="&#x106;" horiz-adv-x="712" 
d="M201 39.5q-71 46.5 -108.5 128.5t-37.5 186t37.5 186t108.5 128.5t169 46.5q118 0 195 -66.5t103 -179.5h-85q-21 77 -77 122.5t-135 45.5q-109 0 -167 -76.5t-58 -205.5q0 -130 58 -206.5t167 -76.5q75 0 129 40.5t77 108.5h85q-28 -104 -103.5 -166t-188.5 -62
q-98 0 -169 46.5zM327 771l98 179h92l-121 -179h-69z" />
    <glyph glyph-name="Ccaron" unicode="&#x10c;" horiz-adv-x="712" 
d="M201 39.5q-71 46.5 -108.5 128.5t-37.5 186t37.5 186t108.5 128.5t169 46.5q118 0 195 -66.5t103 -179.5h-85q-21 77 -77 122.5t-135 45.5q-109 0 -167 -76.5t-58 -205.5q0 -130 58 -206.5t167 -76.5q75 0 129 40.5t77 108.5h85q-28 -104 -103.5 -166t-188.5 -62
q-98 0 -169 46.5zM276 912l80 -89h4l82 89h86l-132 -146h-74l-132 146h86z" />
    <glyph glyph-name="Ccedilla" unicode="&#xc7;" horiz-adv-x="712" 
d="M500 112.5q54 40.5 77 108.5h85q-26 -97 -94 -158t-169 -69l-17 -48h26q48 0 72.5 -25t24.5 -63q0 -42 -30 -73t-88 -31q-32 0 -58 10l1 49q30 -7 58 -7q33 0 51 14.5t18 37.5q0 25 -18 34t-37 9h-83v3l28 90q-91 5 -157 53t-100.5 127.5t-34.5 179.5q0 104 37.5 186
t108.5 128.5t169 46.5q118 0 195 -66.5t103 -179.5h-85q-21 77 -77 122.5t-135 45.5q-109 0 -167 -76.5t-58 -205.5q0 -130 58 -206.5t167 -76.5q75 0 129 40.5z" />
    <glyph glyph-name="Cdotaccent" unicode="&#x10a;" horiz-adv-x="712" 
d="M201 39.5q-71 46.5 -108.5 128.5t-37.5 186t37.5 186t108.5 128.5t169 46.5q118 0 195 -66.5t103 -179.5h-85q-21 77 -77 122.5t-135 45.5q-109 0 -167 -76.5t-58 -205.5q0 -130 58 -206.5t167 -76.5q75 0 129 40.5t77 108.5h85q-28 -104 -103.5 -166t-188.5 -62
q-98 0 -169 46.5zM318 814.5q-16 16.5 -16 39.5t16 39.5t40 16.5t40.5 -16.5t16.5 -39.5t-16.5 -39.5t-40.5 -16.5t-40 16.5z" />
    <glyph glyph-name="D" unicode="D" horiz-adv-x="687" 
d="M75 700h256q94 0 164.5 -42.5t109 -121t38.5 -185.5t-38.5 -186.5t-109.5 -122t-165 -42.5h-255v700zM318 80q106 0 170 69.5t64 201.5t-63.5 201.5t-170.5 69.5h-159v-542h159z" />
    <glyph glyph-name="Eth" unicode="&#xd0;" horiz-adv-x="714" 
d="M579.5 608.5q91.5 -91.5 91.5 -258.5t-91.5 -259t-254.5 -92h-223v328h-56v60h56v313h224q162 0 253.5 -91.5zM429 93q57 15 104.5 75.5t47.5 181.5t-47.5 181.5t-104.5 75.5t-116 15h-126v-235h134v-60h-134v-249h126q59 0 116 15z" />
    <glyph glyph-name="Dcaron" unicode="&#x10e;" horiz-adv-x="687" 
d="M75 700h256q94 0 164.5 -42.5t109 -121t38.5 -185.5t-38.5 -186.5t-109.5 -122t-165 -42.5h-255v700zM318 80q106 0 170 69.5t64 201.5t-63.5 201.5t-170.5 69.5h-159v-542h159zM249 913l80 -89h4l82 89h86l-132 -146h-74l-132 146h86z" />
    <glyph glyph-name="Dcroat" unicode="&#x110;" horiz-adv-x="714" 
d="M579.5 608.5q91.5 -91.5 91.5 -258.5t-91.5 -259t-254.5 -92h-223v328h-56v60h56v313h224q162 0 253.5 -91.5zM429 93q57 15 104.5 75.5t47.5 181.5t-47.5 181.5t-104.5 75.5t-116 15h-126v-235h134v-60h-134v-249h126q59 0 116 15z" />
    <glyph glyph-name="E" unicode="E" 
d="M162 622v-230h303v-70h-303v-244h344v-78h-431v700h431v-78h-344z" />
    <glyph glyph-name="Eacute" unicode="&#xc9;" 
d="M162 622v-230h303v-70h-303v-244h344v-78h-431v700h431v-78h-344zM258 771l98 179h92l-121 -179h-69z" />
    <glyph glyph-name="Ecaron" unicode="&#x11a;" 
d="M162 622v-230h303v-70h-303v-244h344v-78h-431v700h431v-78h-344zM207 912l80 -89h4l82 89h86l-132 -146h-74l-132 146h86z" />
    <glyph glyph-name="Ecircumflex" unicode="&#xca;" 
d="M162 622v-230h303v-70h-303v-244h344v-78h-431v700h431v-78h-344zM253 912h75l131 -146h-86l-81 90h-4l-81 -90h-85z" />
    <glyph glyph-name="uni1EBE" unicode="&#x1ebe;" 
d="M162 622v-230h303v-70h-303v-244h344v-78h-431v700h431v-78h-344zM253 912h75l131 -146h-86l-81 90h-4l-81 -90h-85zM411 891l98 179h92l-121 -179h-69z" />
    <glyph glyph-name="uni1EC6" unicode="&#x1ec6;" 
d="M162 622v-230h303v-70h-303v-244h344v-78h-431v700h431v-78h-344zM251 -206.5q-16 16.5 -16 39.5t16 39.5t40 16.5t40 -16.5t16 -39.5t-16 -39.5t-40 -16.5t-40 16.5zM253 912h75l131 -146h-86l-81 90h-4l-81 -90h-85z" />
    <glyph glyph-name="uni1EC0" unicode="&#x1ec0;" 
d="M162 622v-230h303v-70h-303v-244h344v-78h-431v700h431v-78h-344zM252 912h75l131 -146h-86l-81 90h-4l-81 -90h-85zM292 1070h91l99 -179h-70z" />
    <glyph glyph-name="uni1EC2" unicode="&#x1ec2;" 
d="M162 622v-230h303v-70h-303v-244h344v-78h-431v700h431v-78h-344zM253 912h75l131 -146h-86l-81 90h-4l-81 -90h-85zM419 912q7 7 25 20q23 17 33.5 29t10.5 30q0 16 -10 27t-32 11q-19 0 -30 -9t-13 -23h-66q5 35 31.5 59.5t76.5 24.5t77.5 -24t27.5 -62
q0 -25 -11.5 -41t-32.5 -31q-22 -16 -25 -27h-72q3 9 10 16z" />
    <glyph glyph-name="uni1EC4" unicode="&#x1ec4;" 
d="M162 622v-230h303v-70h-303v-244h344v-78h-431v700h431v-78h-344zM253 912h75l131 -146h-86l-81 90h-4l-81 -90h-85zM167.5 1027q20.5 33 66.5 33q19 0 34.5 -7.5t36.5 -22.5q15 -11 25 -16.5t20 -5.5q18 0 26 15t6 37h52q3 -43 -17 -76.5t-67 -33.5q-19 0 -34.5 7.5
t-36.5 22.5q-16 11 -25.5 16t-19.5 5q-35 0 -33 -51h-52q-2 44 18.5 77z" />
    <glyph glyph-name="Edieresis" unicode="&#xcb;" 
d="M162 622v-230h303v-70h-303v-244h344v-78h-431v700h431v-78h-344zM349 814.5q-16 16.5 -16 39.5t16 39.5t40 16.5t40.5 -16.5t16.5 -39.5t-16.5 -39.5t-40.5 -16.5t-40 16.5zM153 814.5q-16 16.5 -16 39.5t16 39.5t40 16.5t40.5 -16.5t16.5 -39.5t-16.5 -39.5
t-40.5 -16.5t-40 16.5z" />
    <glyph glyph-name="Edotaccent" unicode="&#x116;" 
d="M162 622v-230h303v-70h-303v-244h344v-78h-431v700h431v-78h-344zM248 814.5q-16 16.5 -16 39.5t16 39.5t40 16.5t40.5 -16.5t16.5 -39.5t-16.5 -39.5t-40.5 -16.5t-40 16.5z" />
    <glyph glyph-name="uni1EB8" unicode="&#x1eb8;" 
d="M162 622v-230h303v-70h-303v-244h344v-78h-431v700h431v-78h-344zM251 -206.5q-16 16.5 -16 39.5t16 39.5t40 16.5t40 -16.5t16 -39.5t-16 -39.5t-40 -16.5t-40 16.5z" />
    <glyph glyph-name="Egrave" unicode="&#xc8;" 
d="M162 622v-230h303v-70h-303v-244h344v-78h-431v700h431v-78h-344zM132 950h91l99 -179h-70z" />
    <glyph glyph-name="uni1EBA" unicode="&#x1eba;" 
d="M162 622v-230h303v-70h-303v-244h344v-78h-431v700h431v-78h-344zM265 787q7 7 25 20q23 17 33.5 29t10.5 30q0 16 -10 27t-32 11q-19 0 -30 -9t-13 -23h-66q5 35 31.5 59.5t76.5 24.5t77.5 -24t27.5 -62q0 -25 -11.5 -41t-32.5 -31q-22 -16 -25 -27h-72q3 9 10 16z" />
    <glyph glyph-name="Emacron" unicode="&#x112;" 
d="M162 622v-230h303v-70h-303v-244h344v-78h-431v700h431v-78h-344zM140 844h300v-45h-300v45z" />
    <glyph glyph-name="Eogonek" unicode="&#x118;" 
d="M544 -106v-50q-24 -6 -50 -6q-49 0 -77 24t-28 61q0 44 37 77h-351v700h431v-78h-344v-230h303v-70h-303v-244h344v-78q-26 -16 -40.5 -31t-14.5 -38q0 -18 13 -30t41 -12q14 0 39 5z" />
    <glyph glyph-name="uni1EBC" unicode="&#x1ebc;" 
d="M162 622v-230h303v-70h-303v-244h344v-78h-431v700h431v-78h-344zM165.5 871q20.5 33 66.5 33q19 0 34.5 -7.5t36.5 -22.5q15 -11 25 -16.5t20 -5.5q18 0 26 15t6 37h52q3 -43 -17 -76.5t-67 -33.5q-19 0 -34.5 7.5t-36.5 22.5q-16 11 -25.5 16t-19.5 5q-35 0 -33 -51
h-52q-2 44 18.5 77z" />
    <glyph glyph-name="F" unicode="F" horiz-adv-x="516" 
d="M162 622v-231l293 2v-71h-293v-322h-87v700h418v-78h-331z" />
    <glyph glyph-name="G" unicode="G" horiz-adv-x="716" 
d="M186 45.5q-68 52.5 -100.5 134.5t-32.5 173q0 92 33 174.5t103 135t175 52.5q117 0 189.5 -63.5t100.5 -159.5h-91q-20 68 -70 106t-129 38q-105 0 -164 -76t-59 -208q0 -134 60.5 -210t166.5 -76q63 0 108.5 26.5t70 72.5t25.5 104l1 28h-196v65h277v-362h-69v116h-8
q-6 -15 -27 -42.5t-69.5 -54t-123.5 -26.5q-103 0 -171 52.5z" />
    <glyph glyph-name="Gbreve" unicode="&#x11e;" horiz-adv-x="716" 
d="M186 45.5q-68 52.5 -100.5 134.5t-32.5 173q0 92 33 174.5t103 135t175 52.5q117 0 189.5 -63.5t100.5 -159.5h-91q-20 68 -70 106t-129 38q-105 0 -164 -76t-59 -208q0 -134 60.5 -210t166.5 -76q63 0 108.5 26.5t70 72.5t25.5 104l1 28h-196v65h277v-362h-69v116h-8
q-6 -15 -27 -42.5t-69.5 -54t-123.5 -26.5q-103 0 -171 52.5zM265.5 806.5q-40.5 25.5 -70.5 79.5h75q29 -52 95 -52q65 0 94 52h75q-30 -53 -70.5 -79t-98.5 -26q-59 0 -99.5 25.5z" />
    <glyph glyph-name="Gdotaccent" unicode="&#x120;" horiz-adv-x="716" 
d="M186 45.5q-68 52.5 -100.5 134.5t-32.5 173q0 92 33 174.5t103 135t175 52.5q117 0 189.5 -63.5t100.5 -159.5h-91q-20 68 -70 106t-129 38q-105 0 -164 -76t-59 -208q0 -134 60.5 -210t166.5 -76q63 0 108.5 26.5t70 72.5t25.5 104l1 28h-196v65h277v-362h-69v116h-8
q-6 -15 -27 -42.5t-69.5 -54t-123.5 -26.5q-103 0 -171 52.5zM323 814.5q-16 16.5 -16 39.5t16 39.5t40 16.5t40.5 -16.5t16.5 -39.5t-16.5 -39.5t-40.5 -16.5t-40 16.5z" />
    <glyph glyph-name="H" unicode="H" horiz-adv-x="679" 
d="M604 700v-700h-87v317h-356v-317h-86v700h86v-313h356v313h87z" />
    <glyph glyph-name="Hbar" unicode="&#x126;" horiz-adv-x="694" 
d="M669 514h-57v-514h-87v317h-356v-317h-87v514h-57v70h57v116h87v-116h356v116h87v-116h57v-70zM525 514h-356v-127h356v127z" />
    <glyph glyph-name="I" unicode="I" horiz-adv-x="243" 
d="M78 700h87v-700h-87v700z" />
    <glyph glyph-name="Iacute" unicode="&#xcd;" horiz-adv-x="243" 
d="M78 700h87v-700h-87v700zM90 771l98 179h92l-121 -179h-69z" />
    <glyph glyph-name="Icircumflex" unicode="&#xce;" horiz-adv-x="243" 
d="M78 700h87v-700h-87v700zM85 912h75l131 -146h-86l-81 90h-4l-81 -90h-85z" />
    <glyph glyph-name="Idieresis" unicode="&#xcf;" horiz-adv-x="243" 
d="M78 700h87v-700h-87v700zM181 814.5q-16 16.5 -16 39.5t16 39.5t40 16.5t40.5 -16.5t16.5 -39.5t-16.5 -39.5t-40.5 -16.5t-40 16.5zM-15 814.5q-16 16.5 -16 39.5t16 39.5t40 16.5t40.5 -16.5t16.5 -39.5t-16.5 -39.5t-40.5 -16.5t-40 16.5z" />
    <glyph glyph-name="Idotaccent" unicode="&#x130;" horiz-adv-x="243" 
d="M78 700h87v-700h-87v700zM81 814.5q-16 16.5 -16 39.5t16 39.5t40 16.5t40.5 -16.5t16.5 -39.5t-16.5 -39.5t-40.5 -16.5t-40 16.5z" />
    <glyph glyph-name="uni1ECA" unicode="&#x1eca;" horiz-adv-x="243" 
d="M78 700h87v-700h-87v700zM83 -206.5q-16 16.5 -16 39.5t16 39.5t40 16.5t40 -16.5t16 -39.5t-16 -39.5t-40 -16.5t-40 16.5z" />
    <glyph glyph-name="Igrave" unicode="&#xcc;" horiz-adv-x="243" 
d="M78 700h87v-700h-87v700zM-36 950h91l99 -179h-70z" />
    <glyph glyph-name="uni1EC8" unicode="&#x1ec8;" horiz-adv-x="243" 
d="M78 700h87v-700h-87v700zM97 787q7 7 25 20q23 17 33.5 29t10.5 30q0 16 -10 27t-32 11q-19 0 -30 -9t-13 -23h-66q5 35 31.5 59.5t76.5 24.5t77.5 -24t27.5 -62q0 -25 -11.5 -41t-32.5 -31q-22 -16 -25 -27h-72q3 9 10 16z" />
    <glyph glyph-name="Imacron" unicode="&#x12a;" horiz-adv-x="243" 
d="M78 700h87v-700h-87v700zM-28 844h300v-45h-300v45z" />
    <glyph glyph-name="Iogonek" unicode="&#x12e;" horiz-adv-x="243" 
d="M203 -106v-50q-24 -6 -50 -6q-49 0 -77 24t-28 61q0 44 37 77h-7v700h87v-700q-26 -16 -40.5 -31t-14.5 -38q0 -18 13 -30t41 -12q14 0 39 5z" />
    <glyph glyph-name="Itilde" unicode="&#x128;" horiz-adv-x="243" 
d="M78 700h87v-700h-87v700zM-2.5 871q20.5 33 66.5 33q19 0 34.5 -7.5t36.5 -22.5q15 -11 25 -16.5t20 -5.5q18 0 26 15t6 37h52q3 -43 -17 -76.5t-67 -33.5q-19 0 -34.5 7.5t-36.5 22.5q-16 11 -25.5 16t-19.5 5q-35 0 -33 -51h-52q-2 44 18.5 77z" />
    <glyph glyph-name="J" unicode="J" horiz-adv-x="347" 
d="M50 4v63q24 -4 46 -4q37 0 54 13.5t21 32t4 48.5v543h85l1 -564q0 -56 -28.5 -97.5t-115.5 -41.5q-42 0 -67 7z" />
    <glyph glyph-name="K" unicode="K" horiz-adv-x="624" 
d="M73 700h86v-310h5l278 310h105l-276 -301l297 -399h-101l-249 336l-59 -63v-273h-86v700z" />
    <glyph glyph-name="L" unicode="L" horiz-adv-x="529" 
d="M488 78v-78h-413v700h87l-1 -622h327z" />
    <glyph glyph-name="Lacute" unicode="&#x139;" horiz-adv-x="529" 
d="M488 78v-78h-413v700h87l-1 -622h327zM86 771l98 179h92l-121 -179h-69z" />
    <glyph glyph-name="Lcaron" unicode="&#x13d;" horiz-adv-x="529" 
d="M488 78v-78h-413v700h87l-1 -622h327zM35 912l80 -89h4l82 89h86l-132 -146h-74l-132 146h86z" />
    <glyph glyph-name="M" unicode="M" horiz-adv-x="823" 
d="M75 700h127l208 -536h3l208 536h127v-700h-85v567h-4l-217 -567h-62l-216 567h-4v-567h-85v700z" />
    <glyph glyph-name="N" unicode="N" horiz-adv-x="711" 
d="M75 700h97l375 -562h4v562h85v-700h-98l-374 554h-4v-554h-85v700z" />
    <glyph glyph-name="Nacute" unicode="&#x143;" horiz-adv-x="711" 
d="M75 700h97l375 -562h4v562h85v-700h-98l-374 554h-4v-554h-85v700zM324 771l98 179h92l-121 -179h-69z" />
    <glyph glyph-name="Ncaron" unicode="&#x147;" horiz-adv-x="711" 
d="M75 700h97l375 -562h4v562h85v-700h-98l-374 554h-4v-554h-85v700zM273 912l80 -89h4l82 89h86l-132 -146h-74l-132 146h86z" />
    <glyph glyph-name="Ntilde" unicode="&#xd1;" horiz-adv-x="711" 
d="M75 700h97l375 -562h4v562h85v-700h-98l-374 554h-4v-554h-85v700zM231.5 871q20.5 33 66.5 33q19 0 34.5 -7.5t36.5 -22.5q15 -11 25 -16.5t20 -5.5q18 0 26 15t6 37h52q3 -43 -17 -76.5t-67 -33.5q-19 0 -34.5 7.5t-36.5 22.5q-16 11 -25.5 16t-19.5 5q-35 0 -33 -51
h-52q-2 44 18.5 77z" />
    <glyph glyph-name="O" unicode="O" horiz-adv-x="735" 
d="M196.5 39q-71.5 46 -108.5 128t-37 186t37.5 186.5t109 129t170.5 46.5q98 0 169 -46.5t108 -128.5t37 -188q0 -105 -37 -186t-108 -127t-169 -46q-100 0 -171.5 46zM487 108.5q51 35.5 78 99.5t27 146t-27 146t-78 100t-120 36t-120 -36.5t-78 -100.5t-27 -145
q0 -82 27 -145.5t78 -99.5t120 -36t120 35.5z" />
    <glyph glyph-name="Oacute" unicode="&#xd3;" horiz-adv-x="735" 
d="M196.5 39q-71.5 46 -108.5 128t-37 186t37.5 186.5t109 129t170.5 46.5q98 0 169 -46.5t108 -128.5t37 -188q0 -105 -37 -186t-108 -127t-169 -46q-100 0 -171.5 46zM487 108.5q51 35.5 78 99.5t27 146t-27 146t-78 100t-120 36t-120 -36.5t-78 -100.5t-27 -145
q0 -82 27 -145.5t78 -99.5t120 -36t120 35.5zM336 771l98 179h92l-121 -179h-69z" />
    <glyph glyph-name="Ocircumflex" unicode="&#xd4;" horiz-adv-x="735" 
d="M196.5 39q-71.5 46 -108.5 128t-37 186t37.5 186.5t109 129t170.5 46.5q98 0 169 -46.5t108 -128.5t37 -188q0 -105 -37 -186t-108 -127t-169 -46q-100 0 -171.5 46zM487 108.5q51 35.5 78 99.5t27 146t-27 146t-78 100t-120 36t-120 -36.5t-78 -100.5t-27 -145
q0 -82 27 -145.5t78 -99.5t120 -36t120 35.5zM331 912h75l131 -146h-86l-81 90h-4l-81 -90h-85z" />
    <glyph glyph-name="uni1ED0" unicode="&#x1ed0;" horiz-adv-x="735" 
d="M196.5 39q-71.5 46 -108.5 128t-37 186t37.5 186.5t109 129t170.5 46.5q98 0 169 -46.5t108 -128.5t37 -188q0 -105 -37 -186t-108 -127t-169 -46q-100 0 -171.5 46zM487 108.5q51 35.5 78 99.5t27 146t-27 146t-78 100t-120 36t-120 -36.5t-78 -100.5t-27 -145
q0 -82 27 -145.5t78 -99.5t120 -36t120 35.5zM331 912h75l131 -146h-86l-81 90h-4l-81 -90h-85zM489 891l98 179h92l-121 -179h-69z" />
    <glyph glyph-name="uni1ED8" unicode="&#x1ed8;" horiz-adv-x="735" 
d="M196.5 39q-71.5 46 -108.5 128t-37 186t37.5 186.5t109 129t170.5 46.5q98 0 169 -46.5t108 -128.5t37 -188q0 -105 -37 -186t-108 -127t-169 -46q-100 0 -171.5 46zM487 108.5q51 35.5 78 99.5t27 146t-27 146t-78 100t-120 36t-120 -36.5t-78 -100.5t-27 -145
q0 -82 27 -145.5t78 -99.5t120 -36t120 35.5zM329 -206.5q-16 16.5 -16 39.5t16 39.5t40 16.5t40 -16.5t16 -39.5t-16 -39.5t-40 -16.5t-40 16.5zM331 912h75l131 -146h-86l-81 90h-4l-81 -90h-85z" />
    <glyph glyph-name="uni1ED2" unicode="&#x1ed2;" horiz-adv-x="735" 
d="M196.5 39q-71.5 46 -108.5 128t-37 186t37.5 186.5t109 129t170.5 46.5q98 0 169 -46.5t108 -128.5t37 -188q0 -105 -37 -186t-108 -127t-169 -46q-100 0 -171.5 46zM487 108.5q51 35.5 78 99.5t27 146t-27 146t-78 100t-120 36t-120 -36.5t-78 -100.5t-27 -145
q0 -82 27 -145.5t78 -99.5t120 -36t120 35.5zM330 912h75l131 -146h-86l-81 90h-4l-81 -90h-85zM370 1070h91l99 -179h-70z" />
    <glyph glyph-name="uni1ED4" unicode="&#x1ed4;" horiz-adv-x="735" 
d="M196.5 39q-71.5 46 -108.5 128t-37 186t37.5 186.5t109 129t170.5 46.5q98 0 169 -46.5t108 -128.5t37 -188q0 -105 -37 -186t-108 -127t-169 -46q-100 0 -171.5 46zM487 108.5q51 35.5 78 99.5t27 146t-27 146t-78 100t-120 36t-120 -36.5t-78 -100.5t-27 -145
q0 -82 27 -145.5t78 -99.5t120 -36t120 35.5zM331 912h75l131 -146h-86l-81 90h-4l-81 -90h-85zM497 912q7 7 25 20q23 17 33.5 29t10.5 30q0 16 -10 27t-32 11q-19 0 -30 -9t-13 -23h-66q5 35 31.5 59.5t76.5 24.5t77.5 -24t27.5 -62q0 -25 -11.5 -41t-32.5 -31
q-22 -16 -25 -27h-72q3 9 10 16z" />
    <glyph glyph-name="uni1ED6" unicode="&#x1ed6;" horiz-adv-x="735" 
d="M196.5 39q-71.5 46 -108.5 128t-37 186t37.5 186.5t109 129t170.5 46.5q98 0 169 -46.5t108 -128.5t37 -188q0 -105 -37 -186t-108 -127t-169 -46q-100 0 -171.5 46zM487 108.5q51 35.5 78 99.5t27 146t-27 146t-78 100t-120 36t-120 -36.5t-78 -100.5t-27 -145
q0 -82 27 -145.5t78 -99.5t120 -36t120 35.5zM331 912h75l131 -146h-86l-81 90h-4l-81 -90h-85zM245.5 1027q20.5 33 66.5 33q19 0 34.5 -7.5t36.5 -22.5q15 -11 25 -16.5t20 -5.5q18 0 26 15t6 37h52q3 -43 -17 -76.5t-67 -33.5q-19 0 -34.5 7.5t-36.5 22.5
q-16 11 -25.5 16t-19.5 5q-35 0 -33 -51h-52q-2 44 18.5 77z" />
    <glyph glyph-name="Odieresis" unicode="&#xd6;" horiz-adv-x="735" 
d="M196.5 39q-71.5 46 -108.5 128t-37 186t37.5 186.5t109 129t170.5 46.5q98 0 169 -46.5t108 -128.5t37 -188q0 -105 -37 -186t-108 -127t-169 -46q-100 0 -171.5 46zM487 108.5q51 35.5 78 99.5t27 146t-27 146t-78 100t-120 36t-120 -36.5t-78 -100.5t-27 -145
q0 -82 27 -145.5t78 -99.5t120 -36t120 35.5zM427 814.5q-16 16.5 -16 39.5t16 39.5t40 16.5t40.5 -16.5t16.5 -39.5t-16.5 -39.5t-40.5 -16.5t-40 16.5zM231 814.5q-16 16.5 -16 39.5t16 39.5t40 16.5t40.5 -16.5t16.5 -39.5t-16.5 -39.5t-40.5 -16.5t-40 16.5z" />
    <glyph glyph-name="uni1ECC" unicode="&#x1ecc;" horiz-adv-x="735" 
d="M196.5 39q-71.5 46 -108.5 128t-37 186t37.5 186.5t109 129t170.5 46.5q98 0 169 -46.5t108 -128.5t37 -188q0 -105 -37 -186t-108 -127t-169 -46q-100 0 -171.5 46zM487 108.5q51 35.5 78 99.5t27 146t-27 146t-78 100t-120 36t-120 -36.5t-78 -100.5t-27 -145
q0 -82 27 -145.5t78 -99.5t120 -36t120 35.5zM329 -206.5q-16 16.5 -16 39.5t16 39.5t40 16.5t40 -16.5t16 -39.5t-16 -39.5t-40 -16.5t-40 16.5z" />
    <glyph glyph-name="Ograve" unicode="&#xd2;" horiz-adv-x="735" 
d="M196.5 39q-71.5 46 -108.5 128t-37 186t37.5 186.5t109 129t170.5 46.5q98 0 169 -46.5t108 -128.5t37 -188q0 -105 -37 -186t-108 -127t-169 -46q-100 0 -171.5 46zM487 108.5q51 35.5 78 99.5t27 146t-27 146t-78 100t-120 36t-120 -36.5t-78 -100.5t-27 -145
q0 -82 27 -145.5t78 -99.5t120 -36t120 35.5zM210 950h91l99 -179h-70z" />
    <glyph glyph-name="uni1ECE" unicode="&#x1ece;" horiz-adv-x="735" 
d="M196.5 39q-71.5 46 -108.5 128t-37 186t37.5 186.5t109 129t170.5 46.5q98 0 169 -46.5t108 -128.5t37 -188q0 -105 -37 -186t-108 -127t-169 -46q-100 0 -171.5 46zM487 108.5q51 35.5 78 99.5t27 146t-27 146t-78 100t-120 36t-120 -36.5t-78 -100.5t-27 -145
q0 -82 27 -145.5t78 -99.5t120 -36t120 35.5zM343 787q7 7 25 20q23 17 33.5 29t10.5 30q0 16 -10 27t-32 11q-19 0 -30 -9t-13 -23h-66q5 35 31.5 59.5t76.5 24.5t77.5 -24t27.5 -62q0 -25 -11.5 -41t-32.5 -31q-22 -16 -25 -27h-72q3 9 10 16z" />
    <glyph glyph-name="Ohorn" unicode="&#x1a0;" horiz-adv-x="735" 
d="M649 531q33 -79 33 -179q0 -105 -37 -186t-108 -127t-169 -46q-100 0 -171.5 46t-108.5 128t-37 186t37.5 186.5t109 129t170.5 46.5q52 0 99 -14h43q29 0 41 12t12 53v27h69v-36q0 -47 -22 -70.5t-56 -29.5q62 -47 95 -126zM487 108.5q51 35.5 78 99.5t27 146t-27 146
t-78 100t-120 36t-120 -36.5t-78 -100.5t-27 -145q0 -82 27 -145.5t78 -99.5t120 -36t120 35.5z" />
    <glyph glyph-name="uni1EDA" unicode="&#x1eda;" horiz-adv-x="735" 
d="M649 531q33 -79 33 -179q0 -105 -37 -186t-108 -127t-169 -46q-100 0 -171.5 46t-108.5 128t-37 186t37.5 186.5t109 129t170.5 46.5q52 0 99 -14h43q29 0 41 12t12 53v27h69v-36q0 -47 -22 -70.5t-56 -29.5q62 -47 95 -126zM487 108.5q51 35.5 78 99.5t27 146t-27 146
t-78 100t-120 36t-120 -36.5t-78 -100.5t-27 -145q0 -82 27 -145.5t78 -99.5t120 -36t120 35.5zM336 771l98 179h92l-121 -179h-69z" />
    <glyph glyph-name="uni1EE2" unicode="&#x1ee2;" horiz-adv-x="735" 
d="M649 531q33 -79 33 -179q0 -105 -37 -186t-108 -127t-169 -46q-100 0 -171.5 46t-108.5 128t-37 186t37.5 186.5t109 129t170.5 46.5q52 0 99 -14h43q29 0 41 12t12 53v27h69v-36q0 -47 -22 -70.5t-56 -29.5q62 -47 95 -126zM487 108.5q51 35.5 78 99.5t27 146t-27 146
t-78 100t-120 36t-120 -36.5t-78 -100.5t-27 -145q0 -82 27 -145.5t78 -99.5t120 -36t120 35.5zM329 -206.5q-16 16.5 -16 39.5t16 39.5t40 16.5t40 -16.5t16 -39.5t-16 -39.5t-40 -16.5t-40 16.5z" />
    <glyph glyph-name="uni1EDC" unicode="&#x1edc;" horiz-adv-x="735" 
d="M649 531q33 -79 33 -179q0 -105 -37 -186t-108 -127t-169 -46q-100 0 -171.5 46t-108.5 128t-37 186t37.5 186.5t109 129t170.5 46.5q52 0 99 -14h43q29 0 41 12t12 53v27h69v-36q0 -47 -22 -70.5t-56 -29.5q62 -47 95 -126zM487 108.5q51 35.5 78 99.5t27 146t-27 146
t-78 100t-120 36t-120 -36.5t-78 -100.5t-27 -145q0 -82 27 -145.5t78 -99.5t120 -36t120 35.5zM210 950h91l99 -179h-70z" />
    <glyph glyph-name="uni1EDE" unicode="&#x1ede;" horiz-adv-x="735" 
d="M649 531q33 -79 33 -179q0 -105 -37 -186t-108 -127t-169 -46q-100 0 -171.5 46t-108.5 128t-37 186t37.5 186.5t109 129t170.5 46.5q52 0 99 -14h43q29 0 41 12t12 53v27h69v-36q0 -47 -22 -70.5t-56 -29.5q62 -47 95 -126zM487 108.5q51 35.5 78 99.5t27 146t-27 146
t-78 100t-120 36t-120 -36.5t-78 -100.5t-27 -145q0 -82 27 -145.5t78 -99.5t120 -36t120 35.5zM343 787q7 7 25 20q23 17 33.5 29t10.5 30q0 16 -10 27t-32 11q-19 0 -30 -9t-13 -23h-66q5 35 31.5 59.5t76.5 24.5t77.5 -24t27.5 -62q0 -25 -11.5 -41t-32.5 -31
q-22 -16 -25 -27h-72q3 9 10 16z" />
    <glyph glyph-name="uni1EE0" unicode="&#x1ee0;" horiz-adv-x="735" 
d="M649 531q33 -79 33 -179q0 -105 -37 -186t-108 -127t-169 -46q-100 0 -171.5 46t-108.5 128t-37 186t37.5 186.5t109 129t170.5 46.5q52 0 99 -14h43q29 0 41 12t12 53v27h69v-36q0 -47 -22 -70.5t-56 -29.5q62 -47 95 -126zM487 108.5q51 35.5 78 99.5t27 146t-27 146
t-78 100t-120 36t-120 -36.5t-78 -100.5t-27 -145q0 -82 27 -145.5t78 -99.5t120 -36t120 35.5zM243.5 871q20.5 33 66.5 33q19 0 34.5 -7.5t36.5 -22.5q15 -11 25 -16.5t20 -5.5q18 0 26 15t6 37h52q3 -43 -17 -76.5t-67 -33.5q-19 0 -34.5 7.5t-36.5 22.5q-16 11 -25.5 16
t-19.5 5q-35 0 -33 -51h-52q-2 44 18.5 77z" />
    <glyph glyph-name="Omacron" unicode="&#x14c;" horiz-adv-x="735" 
d="M196.5 39q-71.5 46 -108.5 128t-37 186t37.5 186.5t109 129t170.5 46.5q98 0 169 -46.5t108 -128.5t37 -188q0 -105 -37 -186t-108 -127t-169 -46q-100 0 -171.5 46zM487 108.5q51 35.5 78 99.5t27 146t-27 146t-78 100t-120 36t-120 -36.5t-78 -100.5t-27 -145
q0 -82 27 -145.5t78 -99.5t120 -36t120 35.5zM218 844h300v-45h-300v45z" />
    <glyph glyph-name="Oslash" unicode="&#xd8;" horiz-adv-x="743" 
d="M661.5 508.5q24.5 -70.5 24.5 -156.5q0 -105 -37 -186t-108.5 -127t-169.5 -46q-91 0 -162 41l-49 -77h-82l76 119q-48 48 -73.5 119.5t-25.5 157.5q0 104 37.5 186.5t108.5 129t170 46.5q93 0 165 -43l46 71h82l-74 -115q47 -49 71.5 -119.5zM204 154l286 446
q-52 36 -119 36q-69 0 -120 -36.5t-78 -100.5t-27 -145q0 -124 58 -200zM490.5 108.5q50.5 35.5 77.5 99t27 146.5q0 120 -55 196l-285 -444q52 -33 116 -33q69 0 119.5 35.5z" />
    <glyph glyph-name="Otilde" unicode="&#xd5;" horiz-adv-x="735" 
d="M196.5 39q-71.5 46 -108.5 128t-37 186t37.5 186.5t109 129t170.5 46.5q98 0 169 -46.5t108 -128.5t37 -188q0 -105 -37 -186t-108 -127t-169 -46q-100 0 -171.5 46zM487 108.5q51 35.5 78 99.5t27 146t-27 146t-78 100t-120 36t-120 -36.5t-78 -100.5t-27 -145
q0 -82 27 -145.5t78 -99.5t120 -36t120 35.5zM243.5 871q20.5 33 66.5 33q19 0 34.5 -7.5t36.5 -22.5q15 -11 25 -16.5t20 -5.5q18 0 26 15t6 37h52q3 -43 -17 -76.5t-67 -33.5q-19 0 -34.5 7.5t-36.5 22.5q-16 11 -25.5 16t-19.5 5q-35 0 -33 -51h-52q-2 44 18.5 77z" />
    <glyph glyph-name="OE" unicode="&#x152;" horiz-adv-x="963" 
d="M188.5 44.5q-71.5 44.5 -108.5 123.5t-37 182q0 102 37.5 181.5t109 124t170.5 44.5h540v-78h-345v-230h303v-70h-303v-244h345v-78h-540q-100 0 -171.5 44.5zM469 79v543h-109q-70 0 -121 -34.5t-78 -96t-27 -141.5t27 -141t78 -95.5t121 -34.5h109z" />
    <glyph glyph-name="P" unicode="P" horiz-adv-x="585" 
d="M452.5 666q54.5 -34 78.5 -86t24 -110t-24 -109.5t-78 -85t-140 -33.5h-154v-242h-84v700h238q85 0 139.5 -34zM422.5 351.5q48.5 34.5 48.5 118.5q0 83 -48.5 117.5t-120.5 34.5h-143v-305h143q72 0 120.5 34.5z" />
    <glyph glyph-name="Thorn" unicode="&#xde;" horiz-adv-x="593" 
d="M452.5 545q54.5 -34 78.5 -86t24 -110t-24 -109.5t-78 -85t-140 -33.5h-154v-121h-84v700h84v-121h154q85 0 139.5 -34zM422.5 230.5q48.5 34.5 48.5 118.5q0 83 -48.5 117.5t-120.5 34.5h-143v-305h143q72 0 120.5 34.5z" />
    <glyph glyph-name="Q" unicode="Q" horiz-adv-x="732" 
d="M653 185.5q-29 -74.5 -83 -122.5l94 -119h-83l-65 83q-65 -34 -148 -34q-100 0 -171.5 46t-108.5 128t-37 186t37.5 186.5t109 129t170.5 46.5q98 0 169 -46.5t108 -128.5t37 -188q0 -92 -29 -166.5zM462 94l-138 175h83l108 -137q37 37 57 94t20 128q0 82 -27 146
t-78 100t-120 36t-120 -36.5t-78 -100.5t-27 -145q0 -82 27 -145.5t78 -99.5t120 -36q53 0 95 21z" />
    <glyph glyph-name="R" unicode="R" horiz-adv-x="605" 
d="M286 279h-125v-279h-86v700h238q85 0 139.5 -31t78.5 -79t24 -101q0 -73 -43.5 -131t-135.5 -74l185 -284h-95zM161 353h141q71 0 120 31t49 105q0 73 -49 103t-120 30h-141v-269z" />
    <glyph glyph-name="Racute" unicode="&#x154;" horiz-adv-x="605" 
d="M286 279h-125v-279h-86v700h238q85 0 139.5 -31t78.5 -79t24 -101q0 -73 -43.5 -131t-135.5 -74l185 -284h-95zM161 353h141q71 0 120 31t49 105q0 73 -49 103t-120 30h-141v-269zM253 771l98 179h92l-121 -179h-69z" />
    <glyph glyph-name="Rcaron" unicode="&#x158;" horiz-adv-x="605" 
d="M286 279h-125v-279h-86v700h238q85 0 139.5 -31t78.5 -79t24 -101q0 -73 -43.5 -131t-135.5 -74l185 -284h-95zM161 353h141q71 0 120 31t49 105q0 73 -49 103t-120 30h-141v-269zM201 912l80 -89h4l82 89h86l-132 -146h-74l-132 146h86z" />
    <glyph glyph-name="S" unicode="S" horiz-adv-x="599" 
d="M167.5 25.5q-57.5 33.5 -86.5 86.5t-29 111v5h95v-5q0 -35 16.5 -70t52.5 -58.5t92 -23.5q66 0 109 34t43 92q0 48 -31.5 76.5t-80.5 38.5l-102 19q-176 39 -176 185q0 60 29 105t80.5 69.5t119.5 24.5q77 0 132 -31t83 -80.5t28 -102.5v-4h-95v3q0 30 -14.5 61.5
t-48 54.5t-88.5 23q-63 0 -100.5 -35t-37.5 -87q0 -44 29 -72t79 -38l92 -18q193 -39 193 -189q0 -61 -30.5 -108t-86.5 -73.5t-128 -26.5q-81 0 -138.5 33.5z" />
    <glyph glyph-name="Sacute" unicode="&#x15a;" horiz-adv-x="599" 
d="M167.5 25.5q-57.5 33.5 -86.5 86.5t-29 111v5h95v-5q0 -35 16.5 -70t52.5 -58.5t92 -23.5q66 0 109 34t43 92q0 48 -31.5 76.5t-80.5 38.5l-102 19q-176 39 -176 185q0 60 29 105t80.5 69.5t119.5 24.5q77 0 132 -31t83 -80.5t28 -102.5v-4h-95v3q0 30 -14.5 61.5
t-48 54.5t-88.5 23q-63 0 -100.5 -35t-37.5 -87q0 -44 29 -72t79 -38l92 -18q193 -39 193 -189q0 -61 -30.5 -108t-86.5 -73.5t-128 -26.5q-81 0 -138.5 33.5zM285 771l98 179h92l-121 -179h-69z" />
    <glyph glyph-name="Scaron" unicode="&#x160;" horiz-adv-x="599" 
d="M167.5 25.5q-57.5 33.5 -86.5 86.5t-29 111v5h95v-5q0 -35 16.5 -70t52.5 -58.5t92 -23.5q66 0 109 34t43 92q0 48 -31.5 76.5t-80.5 38.5l-102 19q-176 39 -176 185q0 60 29 105t80.5 69.5t119.5 24.5q77 0 132 -31t83 -80.5t28 -102.5v-4h-95v3q0 30 -14.5 61.5
t-48 54.5t-88.5 23q-63 0 -100.5 -35t-37.5 -87q0 -44 29 -72t79 -38l92 -18q193 -39 193 -189q0 -61 -30.5 -108t-86.5 -73.5t-128 -26.5q-81 0 -138.5 33.5zM234 912l80 -89h4l82 89h86l-132 -146h-74l-132 146h86z" />
    <glyph glyph-name="Scedilla" unicode="&#x15e;" horiz-adv-x="599" 
d="M523 96.5q-28 -45.5 -78.5 -73t-117.5 -30.5l-18 -51h26q48 0 72.5 -25t24.5 -63q0 -42 -30 -73t-88 -31q-32 0 -58 10l1 49q30 -7 58 -7q33 0 51 14.5t18 37.5q0 25 -18 34t-37 9h-83v3l29 93q-72 7 -122 41.5t-75.5 84.5t-25.5 104v5h95v-5q0 -35 16.5 -70t52.5 -58.5
t92 -23.5q66 0 109 34t43 92q0 48 -31.5 76.5t-80.5 38.5l-102 19q-176 39 -176 185q0 60 29 105t80.5 69.5t119.5 24.5q77 0 132 -31t83 -80.5t28 -102.5v-4h-95v3q0 30 -14.5 61.5t-48 54.5t-88.5 23q-63 0 -100.5 -35t-37.5 -87q0 -44 29 -72t79 -38l92 -18
q193 -39 193 -189q0 -58 -28 -103.5z" />
    <glyph glyph-name="T" unicode="T" horiz-adv-x="589" 
d="M543 622h-206v-622h-86v622h-206v78h498v-78z" />
    <glyph glyph-name="Tbar" unicode="&#x166;" horiz-adv-x="588" 
d="M337 622v-205h166v-62h-166v-355h-86v355h-166v62h166v205h-206v78h498v-78h-206z" />
    <glyph glyph-name="Tcaron" unicode="&#x164;" horiz-adv-x="589" 
d="M543 622h-206v-622h-86v622h-206v78h498v-78zM212 912l80 -89h4l82 89h86l-132 -146h-74l-132 146h86z" />
    <glyph glyph-name="uni0162" unicode="&#x162;" horiz-adv-x="589" 
d="M543 622h-206v-622h-86v622h-206v78h498v-78zM349 -182.5q18 14.5 18 37.5q0 25 -18 34t-37 9h-83v3l31 99h52l-20 -57h26q48 0 72.5 -25t24.5 -63q0 -42 -30 -73t-88 -31q-32 0 -58 10l1 49q30 -7 58 -7q33 0 51 14.5z" />
    <glyph glyph-name="U" unicode="U" horiz-adv-x="684" 
d="M137 73.5q-72 82.5 -72 234.5v392h85v-389q0 -88 38.5 -162.5t154.5 -74.5q114 0 152 74t38 163v389h85v-392q0 -152 -71.5 -234.5t-203.5 -82.5q-134 0 -206 82.5z" />
    <glyph glyph-name="Uacute" unicode="&#xda;" horiz-adv-x="684" 
d="M137 73.5q-72 82.5 -72 234.5v392h85v-389q0 -88 38.5 -162.5t154.5 -74.5q114 0 152 74t38 163v389h85v-392q0 -152 -71.5 -234.5t-203.5 -82.5q-134 0 -206 82.5zM311 771l98 179h92l-121 -179h-69z" />
    <glyph glyph-name="Ucircumflex" unicode="&#xdb;" horiz-adv-x="684" 
d="M137 73.5q-72 82.5 -72 234.5v392h85v-389q0 -88 38.5 -162.5t154.5 -74.5q114 0 152 74t38 163v389h85v-392q0 -152 -71.5 -234.5t-203.5 -82.5q-134 0 -206 82.5zM306 912h75l131 -146h-86l-81 90h-4l-81 -90h-85z" />
    <glyph glyph-name="Udieresis" unicode="&#xdc;" horiz-adv-x="684" 
d="M137 73.5q-72 82.5 -72 234.5v392h85v-389q0 -88 38.5 -162.5t154.5 -74.5q114 0 152 74t38 163v389h85v-392q0 -152 -71.5 -234.5t-203.5 -82.5q-134 0 -206 82.5zM402 814.5q-16 16.5 -16 39.5t16 39.5t40 16.5t40.5 -16.5t16.5 -39.5t-16.5 -39.5t-40.5 -16.5
t-40 16.5zM206 814.5q-16 16.5 -16 39.5t16 39.5t40 16.5t40.5 -16.5t16.5 -39.5t-16.5 -39.5t-40.5 -16.5t-40 16.5z" />
    <glyph glyph-name="uni1EE4" unicode="&#x1ee4;" horiz-adv-x="684" 
d="M137 73.5q-72 82.5 -72 234.5v392h85v-389q0 -88 38.5 -162.5t154.5 -74.5q114 0 152 74t38 163v389h85v-392q0 -152 -71.5 -234.5t-203.5 -82.5q-134 0 -206 82.5zM304 -206.5q-16 16.5 -16 39.5t16 39.5t40 16.5t40 -16.5t16 -39.5t-16 -39.5t-40 -16.5t-40 16.5z" />
    <glyph glyph-name="Ugrave" unicode="&#xd9;" horiz-adv-x="684" 
d="M137 73.5q-72 82.5 -72 234.5v392h85v-389q0 -88 38.5 -162.5t154.5 -74.5q114 0 152 74t38 163v389h85v-392q0 -152 -71.5 -234.5t-203.5 -82.5q-134 0 -206 82.5zM185 950h91l99 -179h-70z" />
    <glyph glyph-name="uni1EE6" unicode="&#x1ee6;" horiz-adv-x="684" 
d="M137 73.5q-72 82.5 -72 234.5v392h85v-389q0 -88 38.5 -162.5t154.5 -74.5q114 0 152 74t38 163v389h85v-392q0 -152 -71.5 -234.5t-203.5 -82.5q-134 0 -206 82.5zM318 787q7 7 25 20q23 17 33.5 29t10.5 30q0 16 -10 27t-32 11q-19 0 -30 -9t-13 -23h-66
q5 35 31.5 59.5t76.5 24.5t77.5 -24t27.5 -62q0 -25 -11.5 -41t-32.5 -31q-22 -16 -25 -27h-72q3 9 10 16z" />
    <glyph glyph-name="Uhorn" unicode="&#x1af;" horiz-adv-x="684" 
d="M727 793v-36q0 -56 -30 -79t-74 -23h-5v-347q0 -152 -71.5 -234.5t-203.5 -82.5q-134 0 -206 82.5t-72 234.5v392h85v-389q0 -88 38.5 -162.5t154.5 -74.5q114 0 152 74t38 163v389h24v1h48q29 0 41 12t12 53v27h69z" />
    <glyph glyph-name="uni1EE8" unicode="&#x1ee8;" horiz-adv-x="684" 
d="M727 793v-36q0 -56 -30 -79t-74 -23h-5v-347q0 -152 -71.5 -234.5t-203.5 -82.5q-134 0 -206 82.5t-72 234.5v392h85v-389q0 -88 38.5 -162.5t154.5 -74.5q114 0 152 74t38 163v389h24v1h48q29 0 41 12t12 53v27h69zM311 771l98 179h92l-121 -179h-69z" />
    <glyph glyph-name="uni1EF0" unicode="&#x1ef0;" horiz-adv-x="684" 
d="M727 793v-36q0 -56 -30 -79t-74 -23h-5v-347q0 -152 -71.5 -234.5t-203.5 -82.5q-134 0 -206 82.5t-72 234.5v392h85v-389q0 -88 38.5 -162.5t154.5 -74.5q114 0 152 74t38 163v389h24v1h48q29 0 41 12t12 53v27h69zM304 -206.5q-16 16.5 -16 39.5t16 39.5t40 16.5
t40 -16.5t16 -39.5t-16 -39.5t-40 -16.5t-40 16.5z" />
    <glyph glyph-name="uni1EEA" unicode="&#x1eea;" horiz-adv-x="684" 
d="M727 793v-36q0 -56 -30 -79t-74 -23h-5v-347q0 -152 -71.5 -234.5t-203.5 -82.5q-134 0 -206 82.5t-72 234.5v392h85v-389q0 -88 38.5 -162.5t154.5 -74.5q114 0 152 74t38 163v389h24v1h48q29 0 41 12t12 53v27h69zM185 950h91l99 -179h-70z" />
    <glyph glyph-name="uni1EEC" unicode="&#x1eec;" horiz-adv-x="684" 
d="M727 793v-36q0 -56 -30 -79t-74 -23h-5v-347q0 -152 -71.5 -234.5t-203.5 -82.5q-134 0 -206 82.5t-72 234.5v392h85v-389q0 -88 38.5 -162.5t154.5 -74.5q114 0 152 74t38 163v389h24v1h48q29 0 41 12t12 53v27h69zM318 787q7 7 25 20q23 17 33.5 29t10.5 30
q0 16 -10 27t-32 11q-19 0 -30 -9t-13 -23h-66q5 35 31.5 59.5t76.5 24.5t77.5 -24t27.5 -62q0 -25 -11.5 -41t-32.5 -31q-22 -16 -25 -27h-72q3 9 10 16z" />
    <glyph glyph-name="uni1EEE" unicode="&#x1eee;" horiz-adv-x="684" 
d="M727 793v-36q0 -56 -30 -79t-74 -23h-5v-347q0 -152 -71.5 -234.5t-203.5 -82.5q-134 0 -206 82.5t-72 234.5v392h85v-389q0 -88 38.5 -162.5t154.5 -74.5q114 0 152 74t38 163v389h24v1h48q29 0 41 12t12 53v27h69zM218.5 871q20.5 33 66.5 33q19 0 34.5 -7.5
t36.5 -22.5q15 -11 25 -16.5t20 -5.5q18 0 26 15t6 37h52q3 -43 -17 -76.5t-67 -33.5q-19 0 -34.5 7.5t-36.5 22.5q-16 11 -25.5 16t-19.5 5q-35 0 -33 -51h-52q-2 44 18.5 77z" />
    <glyph glyph-name="Umacron" unicode="&#x16a;" horiz-adv-x="684" 
d="M137 73.5q-72 82.5 -72 234.5v392h85v-389q0 -88 38.5 -162.5t154.5 -74.5q114 0 152 74t38 163v389h85v-392q0 -152 -71.5 -234.5t-203.5 -82.5q-134 0 -206 82.5zM193 844h300v-45h-300v45z" />
    <glyph glyph-name="Uogonek" unicode="&#x172;" horiz-adv-x="684" 
d="M618 700v-392q0 -139 -60 -220.5t-173 -94.5q-26 -16 -40.5 -31t-14.5 -38q0 -18 13 -30t41 -12q14 0 39 5v-50q-24 -6 -50 -6q-49 0 -77 24t-28 61q0 45 36 77q-116 12 -177.5 93.5t-61.5 221.5v392h85v-389q0 -88 38.5 -162.5t154.5 -74.5q114 0 152 74t38 163v389h85z
" />
    <glyph glyph-name="Uring" unicode="&#x16e;" horiz-adv-x="684" 
d="M137 73.5q-72 82.5 -72 234.5v392h85v-389q0 -88 38.5 -162.5t154.5 -74.5q114 0 152 74t38 163v389h85v-392q0 -152 -71.5 -234.5t-203.5 -82.5q-134 0 -206 82.5zM280.5 811q-25.5 26 -25.5 62t25.5 61.5t61.5 25.5t62 -25.5t26 -61.5t-26 -62t-62 -26t-61.5 26z
M375 840q14 14 14 33q0 20 -14 33.5t-33 13.5q-20 0 -33.5 -13.5t-13.5 -33.5q0 -19 13.5 -33t33.5 -14q19 0 33 14z" />
    <glyph glyph-name="Utilde" unicode="&#x168;" horiz-adv-x="684" 
d="M137 73.5q-72 82.5 -72 234.5v392h85v-389q0 -88 38.5 -162.5t154.5 -74.5q114 0 152 74t38 163v389h85v-392q0 -152 -71.5 -234.5t-203.5 -82.5q-134 0 -206 82.5zM218.5 871q20.5 33 66.5 33q19 0 34.5 -7.5t36.5 -22.5q15 -11 25 -16.5t20 -5.5q18 0 26 15t6 37h52
q3 -43 -17 -76.5t-67 -33.5q-19 0 -34.5 7.5t-36.5 22.5q-16 11 -25.5 16t-19.5 5q-35 0 -33 -51h-52q-2 44 18.5 77z" />
    <glyph glyph-name="V" unicode="V" horiz-adv-x="633" 
d="M14 700h88l212 -613h6l212 613h87l-242 -700h-120z" />
    <glyph glyph-name="W" unicode="W" horiz-adv-x="993" 
d="M15 700h86l156 -597h6l194 597h79l193 -597h6l157 597h86l-188 -700h-114l-177 549h-6l-177 -549h-114z" />
    <glyph glyph-name="Wacute" unicode="&#x1e82;" horiz-adv-x="993" 
d="M15 700h86l156 -597h6l194 597h79l193 -597h6l157 597h86l-188 -700h-114l-177 549h-6l-177 -549h-114zM465 771l98 179h92l-121 -179h-69z" />
    <glyph glyph-name="Wcircumflex" unicode="&#x174;" horiz-adv-x="993" 
d="M15 700h86l156 -597h6l194 597h79l193 -597h6l157 597h86l-188 -700h-114l-177 549h-6l-177 -549h-114zM459 912h75l131 -146h-86l-81 90h-4l-81 -90h-85z" />
    <glyph glyph-name="Wdieresis" unicode="&#x1e84;" horiz-adv-x="993" 
d="M15 700h86l156 -597h6l194 597h79l193 -597h6l157 597h86l-188 -700h-114l-177 549h-6l-177 -549h-114zM556 814.5q-16 16.5 -16 39.5t16 39.5t40 16.5t40.5 -16.5t16.5 -39.5t-16.5 -39.5t-40.5 -16.5t-40 16.5zM360 814.5q-16 16.5 -16 39.5t16 39.5t40 16.5
t40.5 -16.5t16.5 -39.5t-16.5 -39.5t-40.5 -16.5t-40 16.5z" />
    <glyph glyph-name="Wgrave" unicode="&#x1e80;" horiz-adv-x="993" 
d="M15 700h86l156 -597h6l194 597h79l193 -597h6l157 597h86l-188 -700h-114l-177 549h-6l-177 -549h-114zM339 950h91l99 -179h-70z" />
    <glyph glyph-name="X" unicode="X" horiz-adv-x="658" 
d="M273 350l-232 350h96l191 -289h6l189 289h97l-232 -350l232 -350h-97l-189 289h-6l-191 -289h-97z" />
    <glyph glyph-name="Y" unicode="Y" horiz-adv-x="614" 
d="M262 -1v254l-228 447h94l174 -350h7l173 350h94l-227 -447v-253z" />
    <glyph glyph-name="Yacute" unicode="&#xdd;" horiz-adv-x="614" 
d="M262 -1v254l-228 447h94l174 -350h7l173 350h94l-227 -447v-253zM273 771l98 179h92l-121 -179h-69z" />
    <glyph glyph-name="Ycircumflex" unicode="&#x176;" horiz-adv-x="614" 
d="M262 -1v254l-228 447h94l174 -350h7l173 350h94l-227 -447v-253zM268 912h75l131 -146h-86l-81 90h-4l-81 -90h-85z" />
    <glyph glyph-name="Ydieresis" unicode="&#x178;" horiz-adv-x="614" 
d="M262 -1v254l-228 447h94l174 -350h7l173 350h94l-227 -447v-253zM364 814.5q-16 16.5 -16 39.5t16 39.5t40 16.5t40.5 -16.5t16.5 -39.5t-16.5 -39.5t-40.5 -16.5t-40 16.5zM168 814.5q-16 16.5 -16 39.5t16 39.5t40 16.5t40.5 -16.5t16.5 -39.5t-16.5 -39.5t-40.5 -16.5
t-40 16.5z" />
    <glyph glyph-name="uni1EF4" unicode="&#x1ef4;" horiz-adv-x="614" 
d="M262 -1v254l-228 447h94l174 -350h7l173 350h94l-227 -447v-253zM266 -206.5q-16 16.5 -16 39.5t16 39.5t40 16.5t40 -16.5t16 -39.5t-16 -39.5t-40 -16.5t-40 16.5z" />
    <glyph glyph-name="Ygrave" unicode="&#x1ef2;" horiz-adv-x="614" 
d="M262 -1v254l-228 447h94l174 -350h7l173 350h94l-227 -447v-253zM147 950h91l99 -179h-70z" />
    <glyph glyph-name="uni1EF6" unicode="&#x1ef6;" horiz-adv-x="614" 
d="M262 -1v254l-228 447h94l174 -350h7l173 350h94l-227 -447v-253zM280 787q7 7 25 20q23 17 33.5 29t10.5 30q0 16 -10 27t-32 11q-19 0 -30 -9t-13 -23h-66q5 35 31.5 59.5t76.5 24.5t77.5 -24t27.5 -62q0 -25 -11.5 -41t-32.5 -31q-22 -16 -25 -27h-72q3 9 10 16z" />
    <glyph glyph-name="uni1EF8" unicode="&#x1ef8;" horiz-adv-x="614" 
d="M262 -1v254l-228 447h94l174 -350h7l173 350h94l-227 -447v-253zM180.5 871q20.5 33 66.5 33q19 0 34.5 -7.5t36.5 -22.5q15 -11 25 -16.5t20 -5.5q18 0 26 15t6 37h52q3 -43 -17 -76.5t-67 -33.5q-19 0 -34.5 7.5t-36.5 22.5q-16 11 -25.5 16t-19.5 5q-35 0 -33 -51h-52
q-2 44 18.5 77z" />
    <glyph glyph-name="Z" unicode="Z" horiz-adv-x="612" 
d="M52 80l390 538v2h-390v80h495v-80l-390 -538v-2h390v-80h-495v80z" />
    <glyph glyph-name="Zacute" unicode="&#x179;" horiz-adv-x="612" 
d="M52 80l390 538v2h-390v80h495v-80l-390 -538v-2h390v-80h-495v80zM275 771l98 179h92l-121 -179h-69z" />
    <glyph glyph-name="Zcaron" unicode="&#x17d;" horiz-adv-x="612" 
d="M52 80l390 538v2h-390v80h495v-80l-390 -538v-2h390v-80h-495v80zM223 912l80 -89h4l82 89h86l-132 -146h-74l-132 146h86z" />
    <glyph glyph-name="Zdotaccent" unicode="&#x17b;" horiz-adv-x="612" 
d="M52 80l390 538v2h-390v80h495v-80l-390 -538v-2h390v-80h-495v80zM265 814.5q-16 16.5 -16 39.5t16 39.5t40 16.5t40.5 -16.5t16.5 -39.5t-16.5 -39.5t-40.5 -16.5t-40 16.5z" />
    <glyph glyph-name="B.ss01" horiz-adv-x="615" 
d="M75 700h287q92 0 137 -43.5t45 -106.5v-48q0 -40 -20 -69t-46.5 -44.5t-48.5 -19.5v-5q26 -3 59.5 -17.5t60 -46.5t26.5 -82v-48q0 -71 -50 -120.5t-153 -49.5h-297v700zM336 392q60 0 93 29t33 73v33q0 46 -29.5 74t-88.5 28h-185v-237h177zM362 73q71 0 101.5 29.5
t30.5 78.5v36q0 48 -31.5 78t-96.5 30h-207v-252h203z" />
    <glyph glyph-name="C.ss01" horiz-adv-x="690" 
d="M189.5 34.5q-67.5 41.5 -103 113.5t-35.5 162v88q0 90 35.5 162t103.5 113.5t161 41.5q118 -1 193.5 -67.5t94.5 -178.5h-87q-15 77 -67.5 123.5t-135.5 46.5q-103 0 -157 -68.5t-54 -180.5v-72q0 -111 54 -179.5t157 -68.5q82 0 130.5 41t65.5 110h88
q-22 -104 -95.5 -166t-187.5 -62q-93 0 -160.5 41.5z" />
    <glyph glyph-name="D.ss01" horiz-adv-x="667" 
d="M75 701l249 -1q95 0 163 -41t102.5 -110.5t34.5 -155.5v-85q0 -86 -35 -156t-102.5 -111t-162.5 -41h-249v701zM324 78q105 0 159.5 66t54.5 171v71q0 105 -54.5 171t-159.5 66h-165v-545h165z" />
    <glyph glyph-name="Eth.ss01" horiz-adv-x="695" 
d="M514.5 659q67.5 -41 102.5 -110.5t35 -155.5v-85q0 -86 -35 -156t-103 -111t-162 -41h-250v327h-56v60h56v313h250q95 0 162.5 -41zM565 386q0 105 -54 171t-159 66h-165v-236h134v-60h-134v-249h165q105 0 159 66t54 171v71z" />
    <glyph glyph-name="Dcaron.ss01" horiz-adv-x="667" 
d="M75 701l249 -1q95 0 163 -41t102.5 -110.5t34.5 -155.5v-85q0 -86 -35 -156t-102.5 -111t-162.5 -41h-249v701zM324 78q105 0 159.5 66t54.5 171v71q0 105 -54.5 171t-159.5 66h-165v-545h165zM249 913l80 -89h4l82 89h86l-132 -146h-74l-132 146h86z" />
    <glyph glyph-name="Dcroat.ss01" horiz-adv-x="695" 
d="M514.5 659q67.5 -41 102.5 -110.5t35 -155.5v-85q0 -86 -35 -156t-103 -111t-162 -41h-250v327h-56v60h56v313h250q95 0 162.5 -41zM565 386q0 105 -54 171t-159 66h-165v-236h134v-60h-134v-249h165q105 0 159 66t54 171v71z" />
    <glyph glyph-name="G.ss01" horiz-adv-x="702" 
d="M188 34.5q-66 41.5 -100.5 113.5t-34.5 162v88q0 90 35.5 162t103 113.5t160.5 41.5q118 -1 193 -66t95 -176h-87q-15 76 -67.5 121t-133.5 45q-104 0 -158 -68.5t-54 -180.5v-72q0 -116 54.5 -184t159.5 -68q92 0 147 55.5t57 144.5l1 31h-199v65h280v-362h-69v116h-8
q-21 -35 -34 -52.5t-61 -44t-123 -26.5q-91 0 -157 41.5z" />
    <glyph glyph-name="Gbreve.ss01" horiz-adv-x="702" 
d="M188 34.5q-66 41.5 -100.5 113.5t-34.5 162v88q0 90 35.5 162t103 113.5t160.5 41.5q118 -1 193 -66t95 -176h-87q-15 76 -67.5 121t-133.5 45q-104 0 -158 -68.5t-54 -180.5v-72q0 -116 54.5 -184t159.5 -68q92 0 147 55.5t57 144.5l1 31h-199v65h280v-362h-69v116h-8
q-21 -35 -34 -52.5t-61 -44t-123 -26.5q-91 0 -157 41.5zM252.5 806.5q-40.5 25.5 -70.5 79.5h75q29 -52 95 -52q65 0 94 52h75q-30 -53 -70.5 -79t-98.5 -26q-59 0 -99.5 25.5z" />
    <glyph glyph-name="Gdotaccent.ss01" horiz-adv-x="702" 
d="M188 34.5q-66 41.5 -100.5 113.5t-34.5 162v88q0 90 35.5 162t103 113.5t160.5 41.5q118 -1 193 -66t95 -176h-87q-15 76 -67.5 121t-133.5 45q-104 0 -158 -68.5t-54 -180.5v-72q0 -116 54.5 -184t159.5 -68q92 0 147 55.5t57 144.5l1 31h-199v65h280v-362h-69v116h-8
q-21 -35 -34 -52.5t-61 -44t-123 -26.5q-91 0 -157 41.5zM310 814.5q-16 16.5 -16 39.5t16 39.5t40 16.5t40.5 -16.5t16.5 -39.5t-16.5 -39.5t-40.5 -16.5t-40 16.5z" />
    <glyph glyph-name="J.ss01" horiz-adv-x="512" 
d="M162.5 96.5q32.5 -26.5 74.5 -26.5q108 0 108 119v511l87 1v-512q0 -70 -28.5 -113.5t-73 -63t-93.5 -19.5q-79 0 -136.5 49t-57.5 157h87q0 -76 32.5 -102.5z" />
    <glyph glyph-name="O.ss01" horiz-adv-x="703" 
d="M188.5 35q-67.5 42 -102.5 114t-35 161v88q0 89 35 161t102.5 114t162.5 42q94 0 162 -42t102.5 -114t34.5 -161v-88q0 -89 -34.5 -161t-102.5 -114t-162 -42q-95 0 -162.5 42zM510 138.5q54 68.5 54 179.5v72q0 111 -54.5 180t-158.5 69q-105 0 -159 -68.5t-54 -180.5
v-72q0 -111 54 -179.5t159 -68.5t159 68.5z" />
    <glyph glyph-name="Oacute.ss01" horiz-adv-x="703" 
d="M188.5 35q-67.5 42 -102.5 114t-35 161v88q0 89 35 161t102.5 114t162.5 42q94 0 162 -42t102.5 -114t34.5 -161v-88q0 -89 -34.5 -161t-102.5 -114t-162 -42q-95 0 -162.5 42zM510 138.5q54 68.5 54 179.5v72q0 111 -54.5 180t-158.5 69q-105 0 -159 -68.5t-54 -180.5
v-72q0 -111 54 -179.5t159 -68.5t159 68.5zM319 771l98 179h92l-121 -179h-69z" />
    <glyph glyph-name="Ocircumflex.ss01" horiz-adv-x="703" 
d="M188.5 35q-67.5 42 -102.5 114t-35 161v88q0 89 35 161t102.5 114t162.5 42q94 0 162 -42t102.5 -114t34.5 -161v-88q0 -89 -34.5 -161t-102.5 -114t-162 -42q-95 0 -162.5 42zM510 138.5q54 68.5 54 179.5v72q0 111 -54.5 180t-158.5 69q-105 0 -159 -68.5t-54 -180.5
v-72q0 -111 54 -179.5t159 -68.5t159 68.5zM314 912h75l131 -146h-86l-81 90h-4l-81 -90h-85z" />
    <glyph glyph-name="uni1ED0.ss01" horiz-adv-x="703" 
d="M188.5 35q-67.5 42 -102.5 114t-35 161v88q0 89 35 161t102.5 114t162.5 42q94 0 162 -42t102.5 -114t34.5 -161v-88q0 -89 -34.5 -161t-102.5 -114t-162 -42q-95 0 -162.5 42zM510 138.5q54 68.5 54 179.5v72q0 111 -54.5 180t-158.5 69q-105 0 -159 -68.5t-54 -180.5
v-72q0 -111 54 -179.5t159 -68.5t159 68.5zM314 912h75l131 -146h-86l-81 90h-4l-81 -90h-85zM472 891l98 179h92l-121 -179h-69z" />
    <glyph glyph-name="uni1ED8.ss01" horiz-adv-x="703" 
d="M188.5 35q-67.5 42 -102.5 114t-35 161v88q0 89 35 161t102.5 114t162.5 42q94 0 162 -42t102.5 -114t34.5 -161v-88q0 -89 -34.5 -161t-102.5 -114t-162 -42q-95 0 -162.5 42zM510 138.5q54 68.5 54 179.5v72q0 111 -54.5 180t-158.5 69q-105 0 -159 -68.5t-54 -180.5
v-72q0 -111 54 -179.5t159 -68.5t159 68.5zM312 -206.5q-16 16.5 -16 39.5t16 39.5t40 16.5t40 -16.5t16 -39.5t-16 -39.5t-40 -16.5t-40 16.5zM314 912h75l131 -146h-86l-81 90h-4l-81 -90h-85z" />
    <glyph glyph-name="uni1ED2.ss01" horiz-adv-x="703" 
d="M188.5 35q-67.5 42 -102.5 114t-35 161v88q0 89 35 161t102.5 114t162.5 42q94 0 162 -42t102.5 -114t34.5 -161v-88q0 -89 -34.5 -161t-102.5 -114t-162 -42q-95 0 -162.5 42zM510 138.5q54 68.5 54 179.5v72q0 111 -54.5 180t-158.5 69q-105 0 -159 -68.5t-54 -180.5
v-72q0 -111 54 -179.5t159 -68.5t159 68.5zM313 912h75l131 -146h-86l-81 90h-4l-81 -90h-85zM353 1070h91l99 -179h-70z" />
    <glyph glyph-name="uni1ED4.ss01" horiz-adv-x="703" 
d="M188.5 35q-67.5 42 -102.5 114t-35 161v88q0 89 35 161t102.5 114t162.5 42q94 0 162 -42t102.5 -114t34.5 -161v-88q0 -89 -34.5 -161t-102.5 -114t-162 -42q-95 0 -162.5 42zM510 138.5q54 68.5 54 179.5v72q0 111 -54.5 180t-158.5 69q-105 0 -159 -68.5t-54 -180.5
v-72q0 -111 54 -179.5t159 -68.5t159 68.5zM314 912h75l131 -146h-86l-81 90h-4l-81 -90h-85zM480 912q7 7 25 20q23 17 33.5 29t10.5 30q0 16 -10 27t-32 11q-19 0 -30 -9t-13 -23h-66q5 35 31.5 59.5t76.5 24.5t77.5 -24t27.5 -62q0 -25 -11.5 -41t-32.5 -31
q-22 -16 -25 -27h-72q3 9 10 16z" />
    <glyph glyph-name="uni1ED6.ss01" horiz-adv-x="703" 
d="M188.5 35q-67.5 42 -102.5 114t-35 161v88q0 89 35 161t102.5 114t162.5 42q94 0 162 -42t102.5 -114t34.5 -161v-88q0 -89 -34.5 -161t-102.5 -114t-162 -42q-95 0 -162.5 42zM510 138.5q54 68.5 54 179.5v72q0 111 -54.5 180t-158.5 69q-105 0 -159 -68.5t-54 -180.5
v-72q0 -111 54 -179.5t159 -68.5t159 68.5zM314 912h75l131 -146h-86l-81 90h-4l-81 -90h-85zM228.5 1027q20.5 33 66.5 33q19 0 34.5 -7.5t36.5 -22.5q15 -11 25 -16.5t20 -5.5q18 0 26 15t6 37h52q3 -43 -17 -76.5t-67 -33.5q-19 0 -34.5 7.5t-36.5 22.5q-16 11 -25.5 16
t-19.5 5q-35 0 -33 -51h-52q-2 44 18.5 77z" />
    <glyph glyph-name="Odieresis.ss01" horiz-adv-x="703" 
d="M188.5 35q-67.5 42 -102.5 114t-35 161v88q0 89 35 161t102.5 114t162.5 42q94 0 162 -42t102.5 -114t34.5 -161v-88q0 -89 -34.5 -161t-102.5 -114t-162 -42q-95 0 -162.5 42zM510 138.5q54 68.5 54 179.5v72q0 111 -54.5 180t-158.5 69q-105 0 -159 -68.5t-54 -180.5
v-72q0 -111 54 -179.5t159 -68.5t159 68.5zM410 814.5q-16 16.5 -16 39.5t16 39.5t40 16.5t40.5 -16.5t16.5 -39.5t-16.5 -39.5t-40.5 -16.5t-40 16.5zM214 814.5q-16 16.5 -16 39.5t16 39.5t40 16.5t40.5 -16.5t16.5 -39.5t-16.5 -39.5t-40.5 -16.5t-40 16.5z" />
    <glyph glyph-name="uni1ECC.ss01" horiz-adv-x="703" 
d="M188.5 35q-67.5 42 -102.5 114t-35 161v88q0 89 35 161t102.5 114t162.5 42q94 0 162 -42t102.5 -114t34.5 -161v-88q0 -89 -34.5 -161t-102.5 -114t-162 -42q-95 0 -162.5 42zM510 138.5q54 68.5 54 179.5v72q0 111 -54.5 180t-158.5 69q-105 0 -159 -68.5t-54 -180.5
v-72q0 -111 54 -179.5t159 -68.5t159 68.5zM312 -206.5q-16 16.5 -16 39.5t16 39.5t40 16.5t40 -16.5t16 -39.5t-16 -39.5t-40 -16.5t-40 16.5z" />
    <glyph glyph-name="Ograve.ss01" horiz-adv-x="703" 
d="M188.5 35q-67.5 42 -102.5 114t-35 161v88q0 89 35 161t102.5 114t162.5 42q94 0 162 -42t102.5 -114t34.5 -161v-88q0 -89 -34.5 -161t-102.5 -114t-162 -42q-95 0 -162.5 42zM510 138.5q54 68.5 54 179.5v72q0 111 -54.5 180t-158.5 69q-105 0 -159 -68.5t-54 -180.5
v-72q0 -111 54 -179.5t159 -68.5t159 68.5zM193 950h91l99 -179h-70z" />
    <glyph glyph-name="uni1ECE.ss01" horiz-adv-x="703" 
d="M188.5 35q-67.5 42 -102.5 114t-35 161v88q0 89 35 161t102.5 114t162.5 42q94 0 162 -42t102.5 -114t34.5 -161v-88q0 -89 -34.5 -161t-102.5 -114t-162 -42q-95 0 -162.5 42zM510 138.5q54 68.5 54 179.5v72q0 111 -54.5 180t-158.5 69q-105 0 -159 -68.5t-54 -180.5
v-72q0 -111 54 -179.5t159 -68.5t159 68.5zM326 787q7 7 25 20q23 17 33.5 29t10.5 30q0 16 -10 27t-32 11q-19 0 -30 -9t-13 -23h-66q5 35 31.5 59.5t76.5 24.5t77.5 -24t27.5 -62q0 -25 -11.5 -41t-32.5 -31q-22 -16 -25 -27h-72q3 9 10 16z" />
    <glyph glyph-name="Ohorn.ss01" horiz-adv-x="703" 
d="M621.5 545q28.5 -67 28.5 -147v-88q0 -89 -34.5 -161t-102.5 -114t-162 -42q-95 0 -162.5 42t-102.5 114t-35 161v88q0 89 35 161t102.5 114t162.5 42q56 0 102 -15h47q29 0 41 12t12 53v27h69v-36q0 -89 -84 -101q55 -43 83.5 -110zM564 390q0 111 -54.5 180t-158.5 69
q-105 0 -159 -68.5t-54 -180.5v-72q0 -111 54 -179.5t159 -68.5t159 68.5t54 179.5v72z" />
    <glyph glyph-name="uni1EDA.ss01" horiz-adv-x="703" 
d="M621.5 545q28.5 -67 28.5 -147v-88q0 -89 -34.5 -161t-102.5 -114t-162 -42q-95 0 -162.5 42t-102.5 114t-35 161v88q0 89 35 161t102.5 114t162.5 42q56 0 102 -15h47q29 0 41 12t12 53v27h69v-36q0 -89 -84 -101q55 -43 83.5 -110zM564 390q0 111 -54.5 180t-158.5 69
q-105 0 -159 -68.5t-54 -180.5v-72q0 -111 54 -179.5t159 -68.5t159 68.5t54 179.5v72zM319 771l98 179h92l-121 -179h-69z" />
    <glyph glyph-name="uni1EE2.ss01" horiz-adv-x="703" 
d="M621.5 545q28.5 -67 28.5 -147v-88q0 -89 -34.5 -161t-102.5 -114t-162 -42q-95 0 -162.5 42t-102.5 114t-35 161v88q0 89 35 161t102.5 114t162.5 42q56 0 102 -15h47q29 0 41 12t12 53v27h69v-36q0 -89 -84 -101q55 -43 83.5 -110zM564 390q0 111 -54.5 180t-158.5 69
q-105 0 -159 -68.5t-54 -180.5v-72q0 -111 54 -179.5t159 -68.5t159 68.5t54 179.5v72zM312 -206.5q-16 16.5 -16 39.5t16 39.5t40 16.5t40 -16.5t16 -39.5t-16 -39.5t-40 -16.5t-40 16.5z" />
    <glyph glyph-name="uni1EDC.ss01" horiz-adv-x="703" 
d="M621.5 545q28.5 -67 28.5 -147v-88q0 -89 -34.5 -161t-102.5 -114t-162 -42q-95 0 -162.5 42t-102.5 114t-35 161v88q0 89 35 161t102.5 114t162.5 42q56 0 102 -15h47q29 0 41 12t12 53v27h69v-36q0 -89 -84 -101q55 -43 83.5 -110zM564 390q0 111 -54.5 180t-158.5 69
q-105 0 -159 -68.5t-54 -180.5v-72q0 -111 54 -179.5t159 -68.5t159 68.5t54 179.5v72zM193 950h91l99 -179h-70z" />
    <glyph glyph-name="uni1EDE.ss01" horiz-adv-x="703" 
d="M621.5 545q28.5 -67 28.5 -147v-88q0 -89 -34.5 -161t-102.5 -114t-162 -42q-95 0 -162.5 42t-102.5 114t-35 161v88q0 89 35 161t102.5 114t162.5 42q56 0 102 -15h47q29 0 41 12t12 53v27h69v-36q0 -89 -84 -101q55 -43 83.5 -110zM564 390q0 111 -54.5 180t-158.5 69
q-105 0 -159 -68.5t-54 -180.5v-72q0 -111 54 -179.5t159 -68.5t159 68.5t54 179.5v72zM326 787q7 7 25 20q23 17 33.5 29t10.5 30q0 16 -10 27t-32 11q-19 0 -30 -9t-13 -23h-66q5 35 31.5 59.5t76.5 24.5t77.5 -24t27.5 -62q0 -25 -11.5 -41t-32.5 -31q-22 -16 -25 -27
h-72q3 9 10 16z" />
    <glyph glyph-name="uni1EE0.ss01" horiz-adv-x="703" 
d="M621.5 545q28.5 -67 28.5 -147v-88q0 -89 -34.5 -161t-102.5 -114t-162 -42q-95 0 -162.5 42t-102.5 114t-35 161v88q0 89 35 161t102.5 114t162.5 42q56 0 102 -15h47q29 0 41 12t12 53v27h69v-36q0 -89 -84 -101q55 -43 83.5 -110zM564 390q0 111 -54.5 180t-158.5 69
q-105 0 -159 -68.5t-54 -180.5v-72q0 -111 54 -179.5t159 -68.5t159 68.5t54 179.5v72zM226.5 871q20.5 33 66.5 33q19 0 34.5 -7.5t36.5 -22.5q15 -11 25 -16.5t20 -5.5q18 0 26 15t6 37h52q3 -43 -17 -76.5t-67 -33.5q-19 0 -34.5 7.5t-36.5 22.5q-16 11 -25.5 16t-19.5 5
q-35 0 -33 -51h-52q-2 44 18.5 77z" />
    <glyph glyph-name="Omacron.ss01" horiz-adv-x="703" 
d="M188.5 35q-67.5 42 -102.5 114t-35 161v88q0 89 35 161t102.5 114t162.5 42q94 0 162 -42t102.5 -114t34.5 -161v-88q0 -89 -34.5 -161t-102.5 -114t-162 -42q-95 0 -162.5 42zM510 138.5q54 68.5 54 179.5v72q0 111 -54.5 180t-158.5 69q-105 0 -159 -68.5t-54 -180.5
v-72q0 -111 54 -179.5t159 -68.5t159 68.5zM201 844h300v-45h-300v45z" />
    <glyph glyph-name="Oslash.ss01" horiz-adv-x="719" 
d="M582 616q36 -42 54 -98t18 -120v-88q0 -89 -35 -161t-102.5 -114t-162.5 -42q-85 0 -149 35l-45 -71h-82l71 111q-46 43 -70 105.5t-24 136.5v88q0 89 34.5 161t102.5 114t162 42q105 0 177 -52l51 80h82zM195 139l293 457q-54 43 -134 43q-105 0 -158.5 -68.5
t-53.5 -180.5v-72q0 -113 53 -179zM534 540l-286 -445q45 -25 106 -25q105 0 159.5 68.5t54.5 179.5v72q0 89 -34 150z" />
    <glyph glyph-name="Otilde.ss01" horiz-adv-x="703" 
d="M188.5 35q-67.5 42 -102.5 114t-35 161v88q0 89 35 161t102.5 114t162.5 42q94 0 162 -42t102.5 -114t34.5 -161v-88q0 -89 -34.5 -161t-102.5 -114t-162 -42q-95 0 -162.5 42zM510 138.5q54 68.5 54 179.5v72q0 111 -54.5 180t-158.5 69q-105 0 -159 -68.5t-54 -180.5
v-72q0 -111 54 -179.5t159 -68.5t159 68.5zM226.5 871q20.5 33 66.5 33q19 0 34.5 -7.5t36.5 -22.5q15 -11 25 -16.5t20 -5.5q18 0 26 15t6 37h52q3 -43 -17 -76.5t-67 -33.5q-19 0 -34.5 7.5t-36.5 22.5q-16 11 -25.5 16t-19.5 5q-35 0 -33 -51h-52q-2 44 18.5 77z" />
    <glyph glyph-name="OE.ss01" horiz-adv-x="946" 
d="M181 41q-68 41 -103 111t-35 156v85q0 86 34.5 155.5t102.5 110.5t163 41h540v-78h-344v-230h303v-70h-303v-244h344v-78h-540q-94 0 -162 41zM452 79v543h-109q-105 0 -159 -65.5t-54 -170.5v-71q0 -105 54 -170.5t159 -65.5h109z" />
    <glyph glyph-name="P.ss01" horiz-adv-x="584" 
d="M492 643q62 -57 62 -148v-75q0 -91 -62.5 -148.5t-182.5 -57.5h-150v-214h-84v700h234q121 0 183 -57zM468 494q0 55 -39 92t-120 37h-150v-331h150q81 0 120 37t39 91v74z" />
    <glyph glyph-name="Q.ss01" horiz-adv-x="702" 
d="M625 171.5q-25 -63.5 -72 -106.5l95 -121h-83l-66 83q-63 -34 -148 -34q-95 0 -162.5 42t-102.5 114t-35 161v88q0 89 35 161t102.5 114t162.5 42q94 0 162 -42t102.5 -114t34.5 -161v-88q0 -75 -25 -138.5zM502 130q31 32 46.5 80.5t15.5 107.5v72q0 111 -54.5 180
t-158.5 69q-105 0 -159 -68.5t-54 -180.5v-72q0 -111 54 -179.5t159 -68.5q58 0 98 21l-140 178h83z" />
    <glyph glyph-name="R.ss01" horiz-adv-x="605" 
d="M292 260h-133v-260h-84v700h244q120 0 177.5 -52t57.5 -135v-66q0 -71 -42 -119.5t-128 -62.5l177 -265h-95zM159 336h160q80 0 114.5 32t34.5 80v64q0 49 -34.5 80.5t-114.5 31.5h-160v-288z" />
    <glyph glyph-name="G.ss02" horiz-adv-x="699" 
d="M193.5 44q-71.5 51 -106 133.5t-34.5 176.5q0 91 33 173.5t103.5 135t178.5 52.5q115 0 187.5 -64t95.5 -159h-88q-19 67 -67.5 105.5t-126.5 38.5q-69 0 -120.5 -35t-79.5 -99.5t-28 -150.5q0 -88 28.5 -152.5t80.5 -98.5t122 -34q93 0 148 52.5t55 150.5v46h-201v65
h279v-113q0 -84 -36 -146t-100 -95t-146 -33q-106 0 -177.5 51z" />
    <glyph glyph-name="a" unicode="a" horiz-adv-x="620" 
d="M148.5 29q-49.5 36 -75.5 98t-26 140t26.5 140.5t77 98t120.5 35.5t113 -33t65 -79h7v98h87v-527h-87v108h-7q-24 -47 -68 -81t-113 -34q-70 0 -119.5 36zM413 124.5q41 57.5 41 142.5t-41 142.5t-118 57.5q-79 0 -119.5 -57t-40.5 -142q0 -86 40.5 -143.5t119.5 -57.5
q77 0 118 57.5z" />
    <glyph glyph-name="aacute" unicode="&#xe1;" horiz-adv-x="620" 
d="M148.5 29q-49.5 36 -75.5 98t-26 140t26.5 140.5t77 98t120.5 35.5t113 -33t65 -79h7v98h87v-527h-87v108h-7q-24 -47 -68 -81t-113 -34q-70 0 -119.5 36zM413 124.5q41 57.5 41 142.5t-41 142.5t-118 57.5q-79 0 -119.5 -57t-40.5 -142q0 -86 40.5 -143.5t119.5 -57.5
q77 0 118 57.5zM274 598l98 179h92l-121 -179h-69z" />
    <glyph glyph-name="abreve" unicode="&#x103;" horiz-adv-x="620" 
d="M148.5 29q-49.5 36 -75.5 98t-26 140t26.5 140.5t77 98t120.5 35.5t113 -33t65 -79h7v98h87v-527h-87v108h-7q-24 -47 -68 -81t-113 -34q-70 0 -119.5 36zM413 124.5q41 57.5 41 142.5t-41 142.5t-118 57.5q-79 0 -119.5 -57t-40.5 -142q0 -86 40.5 -143.5t119.5 -57.5
q77 0 118 57.5zM206.5 633.5q-40.5 25.5 -70.5 79.5h75q29 -52 95 -52q65 0 94 52h75q-30 -53 -70.5 -79t-98.5 -26q-59 0 -99.5 25.5z" />
    <glyph glyph-name="uni1EAF" unicode="&#x1eaf;" horiz-adv-x="620" 
d="M148.5 29q-49.5 36 -75.5 98t-26 140t26.5 140.5t77 98t120.5 35.5t113 -33t65 -79h7v98h87v-527h-87v108h-7q-24 -47 -68 -81t-113 -34q-70 0 -119.5 36zM413 124.5q41 57.5 41 142.5t-41 142.5t-118 57.5q-79 0 -119.5 -57t-40.5 -142q0 -86 40.5 -143.5t119.5 -57.5
q77 0 118 57.5zM207.5 633.5q-40.5 25.5 -70.5 79.5h75q29 -52 95 -52q65 0 94 52h75q-30 -53 -70.5 -79t-98.5 -26q-59 0 -99.5 25.5zM275 740l98 179h92l-121 -179h-69z" />
    <glyph glyph-name="uni1EB7" unicode="&#x1eb7;" horiz-adv-x="620" 
d="M148.5 29q-49.5 36 -75.5 98t-26 140t26.5 140.5t77 98t120.5 35.5t113 -33t65 -79h7v98h87v-527h-87v108h-7q-24 -47 -68 -81t-113 -34q-70 0 -119.5 36zM413 124.5q41 57.5 41 142.5t-41 142.5t-118 57.5q-79 0 -119.5 -57t-40.5 -142q0 -86 40.5 -143.5t119.5 -57.5
q77 0 118 57.5zM206.5 633.5q-40.5 25.5 -70.5 79.5h75q29 -52 95 -52q65 0 94 52h75q-30 -53 -70.5 -79t-98.5 -26q-59 0 -99.5 25.5zM269 -206.5q-16 16.5 -16 39.5t16 39.5t40 16.5t40 -16.5t16 -39.5t-16 -39.5t-40 -16.5t-40 16.5z" />
    <glyph glyph-name="uni1EB1" unicode="&#x1eb1;" horiz-adv-x="620" 
d="M148.5 29q-49.5 36 -75.5 98t-26 140t26.5 140.5t77 98t120.5 35.5t113 -33t65 -79h7v98h87v-527h-87v108h-7q-24 -47 -68 -81t-113 -34q-70 0 -119.5 36zM413 124.5q41 57.5 41 142.5t-41 142.5t-118 57.5q-79 0 -119.5 -57t-40.5 -142q0 -86 40.5 -143.5t119.5 -57.5
q77 0 118 57.5zM210.5 633.5q-40.5 25.5 -70.5 79.5h75q29 -52 95 -52q65 0 94 52h75q-30 -53 -70.5 -79t-98.5 -26q-59 0 -99.5 25.5zM152 919h91l99 -179h-70z" />
    <glyph glyph-name="uni1EB3" unicode="&#x1eb3;" horiz-adv-x="620" 
d="M148.5 29q-49.5 36 -75.5 98t-26 140t26.5 140.5t77 98t120.5 35.5t113 -33t65 -79h7v98h87v-527h-87v108h-7q-24 -47 -68 -81t-113 -34q-70 0 -119.5 36zM413 124.5q41 57.5 41 142.5t-41 142.5t-118 57.5q-79 0 -119.5 -57t-40.5 -142q0 -86 40.5 -143.5t119.5 -57.5
q77 0 118 57.5zM207.5 633.5q-40.5 25.5 -70.5 79.5h75q29 -52 95 -52q65 0 94 52h75q-30 -53 -70.5 -79t-98.5 -26q-59 0 -99.5 25.5zM281 756q7 7 25 20q23 17 33.5 29t10.5 30q0 16 -10 27t-32 11q-19 0 -30 -9t-13 -23h-66q5 35 31.5 59.5t76.5 24.5t77.5 -24t27.5 -62
q0 -25 -11.5 -41t-32.5 -31q-22 -16 -25 -27h-72q3 9 10 16z" />
    <glyph glyph-name="uni1EB5" unicode="&#x1eb5;" horiz-adv-x="620" 
d="M148.5 29q-49.5 36 -75.5 98t-26 140t26.5 140.5t77 98t120.5 35.5t113 -33t65 -79h7v98h87v-527h-87v108h-7q-24 -47 -68 -81t-113 -34q-70 0 -119.5 36zM413 124.5q41 57.5 41 142.5t-41 142.5t-118 57.5q-79 0 -119.5 -57t-40.5 -142q0 -86 40.5 -143.5t119.5 -57.5
q77 0 118 57.5zM206.5 633.5q-40.5 25.5 -70.5 79.5h75q29 -52 95 -52q65 0 94 52h75q-30 -53 -70.5 -79t-98.5 -26q-59 0 -99.5 25.5zM181.5 840q20.5 33 66.5 33q19 0 34.5 -7.5t36.5 -22.5q15 -11 25 -16.5t20 -5.5q18 0 26 15t6 37h52q3 -43 -17 -76.5t-67 -33.5
q-19 0 -34.5 7.5t-36.5 22.5q-16 11 -25.5 16t-19.5 5q-35 0 -33 -51h-52q-2 44 18.5 77z" />
    <glyph glyph-name="acircumflex" unicode="&#xe2;" horiz-adv-x="620" 
d="M148.5 29q-49.5 36 -75.5 98t-26 140t26.5 140.5t77 98t120.5 35.5t113 -33t65 -79h7v98h87v-527h-87v108h-7q-24 -47 -68 -81t-113 -34q-70 0 -119.5 36zM413 124.5q41 57.5 41 142.5t-41 142.5t-118 57.5q-79 0 -119.5 -57t-40.5 -142q0 -86 40.5 -143.5t119.5 -57.5
q77 0 118 57.5zM269 739h75l131 -146h-86l-81 90h-4l-81 -90h-85z" />
    <glyph glyph-name="uni1EA5" unicode="&#x1ea5;" horiz-adv-x="620" 
d="M148.5 29q-49.5 36 -75.5 98t-26 140t26.5 140.5t77 98t120.5 35.5t113 -33t65 -79h7v98h87v-527h-87v108h-7q-24 -47 -68 -81t-113 -34q-70 0 -119.5 36zM413 124.5q41 57.5 41 142.5t-41 142.5t-118 57.5q-79 0 -119.5 -57t-40.5 -142q0 -86 40.5 -143.5t119.5 -57.5
q77 0 118 57.5zM269 739h75l131 -146h-86l-81 90h-4l-81 -90h-85zM427 718l98 179h92l-121 -179h-69z" />
    <glyph glyph-name="uni1EAD" unicode="&#x1ead;" horiz-adv-x="620" 
d="M148.5 29q-49.5 36 -75.5 98t-26 140t26.5 140.5t77 98t120.5 35.5t113 -33t65 -79h7v98h87v-527h-87v108h-7q-24 -47 -68 -81t-113 -34q-70 0 -119.5 36zM413 124.5q41 57.5 41 142.5t-41 142.5t-118 57.5q-79 0 -119.5 -57t-40.5 -142q0 -86 40.5 -143.5t119.5 -57.5
q77 0 118 57.5zM269 739h75l131 -146h-86l-81 90h-4l-81 -90h-85zM269 -206.5q-16 16.5 -16 39.5t16 39.5t40 16.5t40 -16.5t16 -39.5t-16 -39.5t-40 -16.5t-40 16.5z" />
    <glyph glyph-name="uni1EA7" unicode="&#x1ea7;" horiz-adv-x="620" 
d="M148.5 29q-49.5 36 -75.5 98t-26 140t26.5 140.5t77 98t120.5 35.5t113 -33t65 -79h7v98h87v-527h-87v108h-7q-24 -47 -68 -81t-113 -34q-70 0 -119.5 36zM413 124.5q41 57.5 41 142.5t-41 142.5t-118 57.5q-79 0 -119.5 -57t-40.5 -142q0 -86 40.5 -143.5t119.5 -57.5
q77 0 118 57.5zM269 739h75l131 -146h-86l-81 90h-4l-81 -90h-85zM309 897h91l99 -179h-70z" />
    <glyph glyph-name="uni1EA9" unicode="&#x1ea9;" horiz-adv-x="620" 
d="M148.5 29q-49.5 36 -75.5 98t-26 140t26.5 140.5t77 98t120.5 35.5t113 -33t65 -79h7v98h87v-527h-87v108h-7q-24 -47 -68 -81t-113 -34q-70 0 -119.5 36zM413 124.5q41 57.5 41 142.5t-41 142.5t-118 57.5q-79 0 -119.5 -57t-40.5 -142q0 -86 40.5 -143.5t119.5 -57.5
q77 0 118 57.5zM269 739h75l131 -146h-86l-81 90h-4l-81 -90h-85zM435 739q7 7 25 20q23 17 33.5 29t10.5 30q0 16 -10 27t-32 11q-19 0 -30 -9t-13 -23h-66q5 35 31.5 59.5t76.5 24.5t77.5 -24t27.5 -62q0 -25 -11.5 -41t-32.5 -31q-22 -16 -25 -27h-72q3 9 10 16z" />
    <glyph glyph-name="uni1EAB" unicode="&#x1eab;" horiz-adv-x="620" 
d="M148.5 29q-49.5 36 -75.5 98t-26 140t26.5 140.5t77 98t120.5 35.5t113 -33t65 -79h7v98h87v-527h-87v108h-7q-24 -47 -68 -81t-113 -34q-70 0 -119.5 36zM413 124.5q41 57.5 41 142.5t-41 142.5t-118 57.5q-79 0 -119.5 -57t-40.5 -142q0 -86 40.5 -143.5t119.5 -57.5
q77 0 118 57.5zM269 739h75l131 -146h-86l-81 90h-4l-81 -90h-85zM183.5 854q20.5 33 66.5 33q19 0 34.5 -7.5t36.5 -22.5q15 -11 25 -16.5t20 -5.5q18 0 26 15t6 37h52q3 -43 -17 -76.5t-67 -33.5q-19 0 -34.5 7.5t-36.5 22.5q-16 11 -25.5 16t-19.5 5q-35 0 -33 -51h-52
q-2 44 18.5 77z" />
    <glyph glyph-name="adieresis" unicode="&#xe4;" horiz-adv-x="620" 
d="M148.5 29q-49.5 36 -75.5 98t-26 140t26.5 140.5t77 98t120.5 35.5t113 -33t65 -79h7v98h87v-527h-87v108h-7q-24 -47 -68 -81t-113 -34q-70 0 -119.5 36zM413 124.5q41 57.5 41 142.5t-41 142.5t-118 57.5q-79 0 -119.5 -57t-40.5 -142q0 -86 40.5 -143.5t119.5 -57.5
q77 0 118 57.5zM365 641.5q-16 16.5 -16 39.5t16 39.5t40 16.5t40.5 -16.5t16.5 -39.5t-16.5 -39.5t-40.5 -16.5t-40 16.5zM169 641.5q-16 16.5 -16 39.5t16 39.5t40 16.5t40.5 -16.5t16.5 -39.5t-16.5 -39.5t-40.5 -16.5t-40 16.5z" />
    <glyph glyph-name="uni1EA1" unicode="&#x1ea1;" horiz-adv-x="620" 
d="M148.5 29q-49.5 36 -75.5 98t-26 140t26.5 140.5t77 98t120.5 35.5t113 -33t65 -79h7v98h87v-527h-87v108h-7q-24 -47 -68 -81t-113 -34q-70 0 -119.5 36zM413 124.5q41 57.5 41 142.5t-41 142.5t-118 57.5q-79 0 -119.5 -57t-40.5 -142q0 -86 40.5 -143.5t119.5 -57.5
q77 0 118 57.5zM269 -206.5q-16 16.5 -16 39.5t16 39.5t40 16.5t40 -16.5t16 -39.5t-16 -39.5t-40 -16.5t-40 16.5z" />
    <glyph glyph-name="agrave" unicode="&#xe0;" horiz-adv-x="620" 
d="M148.5 29q-49.5 36 -75.5 98t-26 140t26.5 140.5t77 98t120.5 35.5t113 -33t65 -79h7v98h87v-527h-87v108h-7q-24 -47 -68 -81t-113 -34q-70 0 -119.5 36zM413 124.5q41 57.5 41 142.5t-41 142.5t-118 57.5q-79 0 -119.5 -57t-40.5 -142q0 -86 40.5 -143.5t119.5 -57.5
q77 0 118 57.5zM148 777h91l99 -179h-70z" />
    <glyph glyph-name="uni1EA3" unicode="&#x1ea3;" horiz-adv-x="620" 
d="M148.5 29q-49.5 36 -75.5 98t-26 140t26.5 140.5t77 98t120.5 35.5t113 -33t65 -79h7v98h87v-527h-87v108h-7q-24 -47 -68 -81t-113 -34q-70 0 -119.5 36zM413 124.5q41 57.5 41 142.5t-41 142.5t-118 57.5q-79 0 -119.5 -57t-40.5 -142q0 -86 40.5 -143.5t119.5 -57.5
q77 0 118 57.5zM281 614q7 7 25 20q23 17 33.5 29t10.5 30q0 16 -10 27t-32 11q-19 0 -30 -9t-13 -23h-66q5 35 31.5 59.5t76.5 24.5t77.5 -24t27.5 -62q0 -25 -11.5 -41t-32.5 -31q-22 -16 -25 -27h-72q3 9 10 16z" />
    <glyph glyph-name="amacron" unicode="&#x101;" horiz-adv-x="620" 
d="M148.5 29q-49.5 36 -75.5 98t-26 140t26.5 140.5t77 98t120.5 35.5t113 -33t65 -79h7v98h87v-527h-87v108h-7q-24 -47 -68 -81t-113 -34q-70 0 -119.5 36zM413 124.5q41 57.5 41 142.5t-41 142.5t-118 57.5q-79 0 -119.5 -57t-40.5 -142q0 -86 40.5 -143.5t119.5 -57.5
q77 0 118 57.5zM156 671h300v-45h-300v45z" />
    <glyph glyph-name="aogonek" unicode="&#x105;" horiz-adv-x="620" 
d="M581 -106v-50q-24 -6 -50 -6q-49 0 -77 24t-28 61q0 44 37 77h-7v108h-7q-24 -47 -68 -81t-113 -34q-70 0 -119.5 36t-75.5 98t-26 140t26.5 140.5t77 98t120.5 35.5t113 -33t65 -79h7v98h87v-527q-26 -16 -40.5 -31t-14.5 -38q0 -18 13 -30t41 -12q14 0 39 5zM413 124.5
q41 57.5 41 142.5t-41 142.5t-118 57.5q-79 0 -119.5 -57t-40.5 -142q0 -86 40.5 -143.5t119.5 -57.5q77 0 118 57.5z" />
    <glyph glyph-name="aring" unicode="&#xe5;" horiz-adv-x="620" 
d="M148.5 29q-49.5 36 -75.5 98t-26 140t26.5 140.5t77 98t120.5 35.5t113 -33t65 -79h7v98h87v-527h-87v108h-7q-24 -47 -68 -81t-113 -34q-70 0 -119.5 36zM413 124.5q41 57.5 41 142.5t-41 142.5t-118 57.5q-79 0 -119.5 -57t-40.5 -142q0 -86 40.5 -143.5t119.5 -57.5
q77 0 118 57.5zM243.5 638q-25.5 26 -25.5 62t25.5 61.5t61.5 25.5t62 -25.5t26 -61.5t-26 -62t-62 -26t-61.5 26zM338 667q14 14 14 33q0 20 -14 33.5t-33 13.5q-20 0 -33.5 -13.5t-13.5 -33.5q0 -19 13.5 -33t33.5 -14q19 0 33 14z" />
    <glyph glyph-name="atilde" unicode="&#xe3;" horiz-adv-x="620" 
d="M148.5 29q-49.5 36 -75.5 98t-26 140t26.5 140.5t77 98t120.5 35.5t113 -33t65 -79h7v98h87v-527h-87v108h-7q-24 -47 -68 -81t-113 -34q-70 0 -119.5 36zM413 124.5q41 57.5 41 142.5t-41 142.5t-118 57.5q-79 0 -119.5 -57t-40.5 -142q0 -86 40.5 -143.5t119.5 -57.5
q77 0 118 57.5zM181.5 698q20.5 33 66.5 33q19 0 34.5 -7.5t36.5 -22.5q15 -11 25 -16.5t20 -5.5q18 0 26 15t6 37h52q3 -43 -17 -76.5t-67 -33.5q-19 0 -34.5 7.5t-36.5 22.5q-16 11 -25.5 16t-19.5 5q-35 0 -33 -51h-52q-2 44 18.5 77z" />
    <glyph glyph-name="ae" unicode="&#xe6;" horiz-adv-x="941" 
d="M101.5 36q-49.5 43 -49.5 114q0 86 68 117.5t157 31.5l130 1v40q0 45 -28 86.5t-103 41.5q-58 0 -90.5 -28t-40.5 -68h-82q7 43 32 80.5t70 61.5t108 24q69 0 116 -30.5t66 -88.5h5q27 57 78 89.5t120 32.5q91 0 142.5 -47.5t70.5 -110t19 -117.5v-24h-395v-8
q0 -46 20.5 -85t56.5 -61.5t82 -22.5q52 0 88.5 26t54.5 70h86q-21 -73 -78.5 -120.5t-148.5 -47.5q-75 0 -128 35t-80 94h-5q-26 -63 -82 -96t-127 -33q-83 0 -132.5 43zM805 300q-4 90 -44.5 130t-105.5 40q-71 0 -113.5 -46.5t-45.5 -123.5h309zM334.5 80.5
q35.5 19.5 53.5 51t18 65.5v45h-126q-58 0 -100.5 -16t-42.5 -73q0 -44 30.5 -68t83.5 -24q48 0 83.5 19.5z" />
    <glyph glyph-name="b" unicode="b" horiz-adv-x="618" 
d="M236 27q-44 34 -68 81h-7v-108h-87v750h87v-321h7q22 46 65 79t113 33q71 0 121.5 -35.5t76.5 -98t26 -140.5t-26 -140t-76 -98t-119 -36t-113 34zM440.5 124q40.5 57 40.5 143q0 85 -40 142t-119 57q-78 0 -118.5 -57t-40.5 -142t41 -142.5t118 -57.5q78 0 118.5 57z
" />
    <glyph glyph-name="c" unicode="c" horiz-adv-x="576" 
d="M161.5 32q-56.5 39 -83.5 101.5t-27 133.5t27 133.5t83.5 101.5t138.5 39q102 0 160.5 -59t70.5 -145h-84q-9 58 -46 94.5t-100 36.5q-80 0 -121.5 -57.5t-41.5 -143.5t41.5 -143.5t121.5 -57.5q63 0 100 36t46 95h84q-12 -86 -70.5 -145t-160.5 -59q-82 0 -138.5 39z
" />
    <glyph glyph-name="cacute" unicode="&#x107;" horiz-adv-x="576" 
d="M161.5 32q-56.5 39 -83.5 101.5t-27 133.5t27 133.5t83.5 101.5t138.5 39q102 0 160.5 -59t70.5 -145h-84q-9 58 -46 94.5t-100 36.5q-80 0 -121.5 -57.5t-41.5 -143.5t41.5 -143.5t121.5 -57.5q63 0 100 36t46 95h84q-12 -86 -70.5 -145t-160.5 -59q-82 0 -138.5 39z
M268 598l98 179h92l-121 -179h-69z" />
    <glyph glyph-name="ccaron" unicode="&#x10d;" horiz-adv-x="576" 
d="M161.5 32q-56.5 39 -83.5 101.5t-27 133.5t27 133.5t83.5 101.5t138.5 39q102 0 160.5 -59t70.5 -145h-84q-9 58 -46 94.5t-100 36.5q-80 0 -121.5 -57.5t-41.5 -143.5t41.5 -143.5t121.5 -57.5q63 0 100 36t46 95h84q-12 -86 -70.5 -145t-160.5 -59q-82 0 -138.5 39z
M217 739l80 -89h4l82 89h86l-132 -146h-74l-132 146h86z" />
    <glyph glyph-name="ccedilla" unicode="&#xe7;" horiz-adv-x="576" 
d="M401 102q37 36 46 95h84q-11 -80 -62.5 -137.5t-141.5 -65.5l-17 -49h26q48 0 72.5 -25t24.5 -63q0 -42 -30 -73t-88 -31q-32 0 -58 10l1 49q30 -7 58 -7q33 0 51 14.5t18 37.5q0 25 -18 34t-37 9h-83v3l28 91q-74 6 -124.5 46t-75 100t-24.5 127q0 71 27 133.5
t83.5 101.5t138.5 39q102 0 160.5 -59t70.5 -145h-84q-9 58 -46 94.5t-100 36.5q-80 0 -121.5 -57.5t-41.5 -143.5t41.5 -143.5t121.5 -57.5q63 0 100 36z" />
    <glyph glyph-name="cdotaccent" unicode="&#x10b;" horiz-adv-x="576" 
d="M161.5 32q-56.5 39 -83.5 101.5t-27 133.5t27 133.5t83.5 101.5t138.5 39q102 0 160.5 -59t70.5 -145h-84q-9 58 -46 94.5t-100 36.5q-80 0 -121.5 -57.5t-41.5 -143.5t41.5 -143.5t121.5 -57.5q63 0 100 36t46 95h84q-12 -86 -70.5 -145t-160.5 -59q-82 0 -138.5 39z
M259 641.5q-16 16.5 -16 39.5t16 39.5t40 16.5t40.5 -16.5t16.5 -39.5t-16.5 -39.5t-40.5 -16.5t-40 16.5z" />
    <glyph glyph-name="d" unicode="d" horiz-adv-x="619" 
d="M150.5 29q-49.5 36 -75.5 98t-26 140q0 79 26 141t76 97.5t121 35.5q70 0 113.5 -33.5t64.5 -78.5h8v321h86v-750h-86v108h-8q-24 -48 -67.5 -81.5t-112.5 -33.5q-70 0 -119.5 36zM415 124.5q41 57.5 41 142.5t-41 142t-119 57q-79 0 -119 -57t-40 -142q0 -86 40.5 -143
t118.5 -57t119 57.5z" />
    <glyph glyph-name="eth" unicode="&#xf0;" horiz-adv-x="614" 
d="M535 441v-168q0 -74 -27.5 -138t-83.5 -103t-137 -39q-80 0 -135.5 39t-83 103t-27.5 138t26.5 135t77 97t120.5 36t112.5 -32.5t65.5 -76.5h7v15q0 134 -71 207l-93 -54l-27 46l75 44q-32 19 -63.5 26.5t-52.5 7.5v66q36 1 88 -12t100 -47l92 53l27 -46l-76 -44
q86 -91 86 -253zM407 125q41 58 41 143t-41 142.5t-119 57.5t-118.5 -58t-40.5 -143t40.5 -142.5t118.5 -57.5t119 58z" />
    <glyph glyph-name="dcaron" unicode="&#x10f;" horiz-adv-x="739" 
d="M150.5 29q-49.5 36 -75.5 98t-26 140q0 79 26 141t76 97.5t121 35.5q70 0 113.5 -33.5t64.5 -78.5h8v321h86v-750h-86v108h-8q-24 -48 -67.5 -81.5t-112.5 -33.5q-70 0 -119.5 36zM415 124.5q41 57.5 41 142.5t-41 142t-119 57q-79 0 -119 -57t-40 -142q0 -86 40.5 -143
t118.5 -57t119 57.5zM611 557q61 27 61 80q0 25 -8.5 31.5t-25.5 6.5q-50 0 -50 49q0 27 16.5 43t46.5 16q71 0 71 -77v-36q0 -62 -30.5 -98.5t-80.5 -51.5v37z" />
    <glyph glyph-name="dcroat" unicode="&#x111;" horiz-adv-x="622" 
d="M618 608h-74v-608h-86v108h-8q-24 -48 -67.5 -81.5t-112.5 -33.5q-70 0 -119.5 36t-75.5 98t-26 140q0 79 26 141t76 97.5t121 35.5q70 0 113.5 -33.5t64.5 -78.5h8v179h-153v60h153v82h86v-82h74v-60zM415 124.5q41 57.5 41 142.5t-41 142t-119 57q-79 0 -119 -57
t-40 -142q0 -86 40.5 -143t118.5 -57t119 57.5z" />
    <glyph glyph-name="e" unicode="e" horiz-adv-x="583" 
d="M160.5 32q-55.5 39 -82.5 102t-27 133q0 71 27 133.5t83 101.5t137 39q106 0 169.5 -71t63.5 -204v-24h-394v-7q0 -44 20 -83t56 -63t83 -24q51 0 88 26t55 70h85q-21 -72 -78.5 -120t-148.5 -48q-81 0 -136.5 39zM446 303q-4 90 -44 130t-105 40q-71 0 -113 -47
t-45 -123h307z" />
    <glyph glyph-name="eacute" unicode="&#xe9;" horiz-adv-x="583" 
d="M160.5 32q-55.5 39 -82.5 102t-27 133q0 71 27 133.5t83 101.5t137 39q106 0 169.5 -71t63.5 -204v-24h-394v-7q0 -44 20 -83t56 -63t83 -24q51 0 88 26t55 70h85q-21 -72 -78.5 -120t-148.5 -48q-81 0 -136.5 39zM446 303q-4 90 -44 130t-105 40q-71 0 -113 -47
t-45 -123h307zM266 598l98 179h92l-121 -179h-69z" />
    <glyph glyph-name="ecaron" unicode="&#x11b;" horiz-adv-x="583" 
d="M160.5 32q-55.5 39 -82.5 102t-27 133q0 71 27 133.5t83 101.5t137 39q106 0 169.5 -71t63.5 -204v-24h-394v-7q0 -44 20 -83t56 -63t83 -24q51 0 88 26t55 70h85q-21 -72 -78.5 -120t-148.5 -48q-81 0 -136.5 39zM446 303q-4 90 -44 130t-105 40q-71 0 -113 -47
t-45 -123h307zM215 739l80 -89h4l82 89h86l-132 -146h-74l-132 146h86z" />
    <glyph glyph-name="ecircumflex" unicode="&#xea;" horiz-adv-x="583" 
d="M160.5 32q-55.5 39 -82.5 102t-27 133q0 71 27 133.5t83 101.5t137 39q106 0 169.5 -71t63.5 -204v-24h-394v-7q0 -44 20 -83t56 -63t83 -24q51 0 88 26t55 70h85q-21 -72 -78.5 -120t-148.5 -48q-81 0 -136.5 39zM446 303q-4 90 -44 130t-105 40q-71 0 -113 -47
t-45 -123h307zM261 739h75l131 -146h-86l-81 90h-4l-81 -90h-85z" />
    <glyph glyph-name="uni1EBF" unicode="&#x1ebf;" horiz-adv-x="583" 
d="M160.5 32q-55.5 39 -82.5 102t-27 133q0 71 27 133.5t83 101.5t137 39q106 0 169.5 -71t63.5 -204v-24h-394v-7q0 -44 20 -83t56 -63t83 -24q51 0 88 26t55 70h85q-21 -72 -78.5 -120t-148.5 -48q-81 0 -136.5 39zM446 303q-4 90 -44 130t-105 40q-71 0 -113 -47
t-45 -123h307zM261 739h75l131 -146h-86l-81 90h-4l-81 -90h-85zM419 718l98 179h92l-121 -179h-69z" />
    <glyph glyph-name="uni1EC7" unicode="&#x1ec7;" horiz-adv-x="583" 
d="M160.5 32q-55.5 39 -82.5 102t-27 133q0 71 27 133.5t83 101.5t137 39q106 0 169.5 -71t63.5 -204v-24h-394v-7q0 -44 20 -83t56 -63t83 -24q51 0 88 26t55 70h85q-21 -72 -78.5 -120t-148.5 -48q-81 0 -136.5 39zM446 303q-4 90 -44 130t-105 40q-71 0 -113 -47
t-45 -123h307zM259 -206.5q-16 16.5 -16 39.5t16 39.5t40 16.5t40 -16.5t16 -39.5t-16 -39.5t-40 -16.5t-40 16.5zM261 739h75l131 -146h-86l-81 90h-4l-81 -90h-85z" />
    <glyph glyph-name="uni1EC1" unicode="&#x1ec1;" horiz-adv-x="583" 
d="M160.5 32q-55.5 39 -82.5 102t-27 133q0 71 27 133.5t83 101.5t137 39q106 0 169.5 -71t63.5 -204v-24h-394v-7q0 -44 20 -83t56 -63t83 -24q51 0 88 26t55 70h85q-21 -72 -78.5 -120t-148.5 -48q-81 0 -136.5 39zM446 303q-4 90 -44 130t-105 40q-71 0 -113 -47
t-45 -123h307zM261 739h75l131 -146h-86l-81 90h-4l-81 -90h-85zM301 897h91l99 -179h-70z" />
    <glyph glyph-name="uni1EC3" unicode="&#x1ec3;" horiz-adv-x="583" 
d="M160.5 32q-55.5 39 -82.5 102t-27 133q0 71 27 133.5t83 101.5t137 39q106 0 169.5 -71t63.5 -204v-24h-394v-7q0 -44 20 -83t56 -63t83 -24q51 0 88 26t55 70h85q-21 -72 -78.5 -120t-148.5 -48q-81 0 -136.5 39zM446 303q-4 90 -44 130t-105 40q-71 0 -113 -47
t-45 -123h307zM261 739h75l131 -146h-86l-81 90h-4l-81 -90h-85zM427 739q7 7 25 20q23 17 33.5 29t10.5 30q0 16 -10 27t-32 11q-19 0 -30 -9t-13 -23h-66q5 35 31.5 59.5t76.5 24.5t77.5 -24t27.5 -62q0 -25 -11.5 -41t-32.5 -31q-22 -16 -25 -27h-72q3 9 10 16z" />
    <glyph glyph-name="uni1EC5" unicode="&#x1ec5;" horiz-adv-x="583" 
d="M160.5 32q-55.5 39 -82.5 102t-27 133q0 71 27 133.5t83 101.5t137 39q106 0 169.5 -71t63.5 -204v-24h-394v-7q0 -44 20 -83t56 -63t83 -24q51 0 88 26t55 70h85q-21 -72 -78.5 -120t-148.5 -48q-81 0 -136.5 39zM446 303q-4 90 -44 130t-105 40q-71 0 -113 -47
t-45 -123h307zM261 739h75l131 -146h-86l-81 90h-4l-81 -90h-85zM175.5 854q20.5 33 66.5 33q19 0 34.5 -7.5t36.5 -22.5q15 -11 25 -16.5t20 -5.5q18 0 26 15t6 37h52q3 -43 -17 -76.5t-67 -33.5q-19 0 -34.5 7.5t-36.5 22.5q-16 11 -25.5 16t-19.5 5q-35 0 -33 -51h-52
q-2 44 18.5 77z" />
    <glyph glyph-name="edieresis" unicode="&#xeb;" horiz-adv-x="583" 
d="M160.5 32q-55.5 39 -82.5 102t-27 133q0 71 27 133.5t83 101.5t137 39q106 0 169.5 -71t63.5 -204v-24h-394v-7q0 -44 20 -83t56 -63t83 -24q51 0 88 26t55 70h85q-21 -72 -78.5 -120t-148.5 -48q-81 0 -136.5 39zM446 303q-4 90 -44 130t-105 40q-71 0 -113 -47
t-45 -123h307zM357 641.5q-16 16.5 -16 39.5t16 39.5t40 16.5t40.5 -16.5t16.5 -39.5t-16.5 -39.5t-40.5 -16.5t-40 16.5zM161 641.5q-16 16.5 -16 39.5t16 39.5t40 16.5t40.5 -16.5t16.5 -39.5t-16.5 -39.5t-40.5 -16.5t-40 16.5z" />
    <glyph glyph-name="edotaccent" unicode="&#x117;" horiz-adv-x="583" 
d="M160.5 32q-55.5 39 -82.5 102t-27 133q0 71 27 133.5t83 101.5t137 39q106 0 169.5 -71t63.5 -204v-24h-394v-7q0 -44 20 -83t56 -63t83 -24q51 0 88 26t55 70h85q-21 -72 -78.5 -120t-148.5 -48q-81 0 -136.5 39zM446 303q-4 90 -44 130t-105 40q-71 0 -113 -47
t-45 -123h307zM257 641.5q-16 16.5 -16 39.5t16 39.5t40 16.5t40.5 -16.5t16.5 -39.5t-16.5 -39.5t-40.5 -16.5t-40 16.5z" />
    <glyph glyph-name="uni1EB9" unicode="&#x1eb9;" horiz-adv-x="583" 
d="M160.5 32q-55.5 39 -82.5 102t-27 133q0 71 27 133.5t83 101.5t137 39q106 0 169.5 -71t63.5 -204v-24h-394v-7q0 -44 20 -83t56 -63t83 -24q51 0 88 26t55 70h85q-21 -72 -78.5 -120t-148.5 -48q-81 0 -136.5 39zM446 303q-4 90 -44 130t-105 40q-71 0 -113 -47
t-45 -123h307zM259 -206.5q-16 16.5 -16 39.5t16 39.5t40 16.5t40 -16.5t16 -39.5t-16 -39.5t-40 -16.5t-40 16.5z" />
    <glyph glyph-name="egrave" unicode="&#xe8;" horiz-adv-x="583" 
d="M160.5 32q-55.5 39 -82.5 102t-27 133q0 71 27 133.5t83 101.5t137 39q106 0 169.5 -71t63.5 -204v-24h-394v-7q0 -44 20 -83t56 -63t83 -24q51 0 88 26t55 70h85q-21 -72 -78.5 -120t-148.5 -48q-81 0 -136.5 39zM446 303q-4 90 -44 130t-105 40q-71 0 -113 -47
t-45 -123h307zM140 777h91l99 -179h-70z" />
    <glyph glyph-name="uni1EBB" unicode="&#x1ebb;" horiz-adv-x="583" 
d="M160.5 32q-55.5 39 -82.5 102t-27 133q0 71 27 133.5t83 101.5t137 39q106 0 169.5 -71t63.5 -204v-24h-394v-7q0 -44 20 -83t56 -63t83 -24q51 0 88 26t55 70h85q-21 -72 -78.5 -120t-148.5 -48q-81 0 -136.5 39zM446 303q-4 90 -44 130t-105 40q-71 0 -113 -47
t-45 -123h307zM273 614q7 7 25 20q23 17 33.5 29t10.5 30q0 16 -10 27t-32 11q-19 0 -30 -9t-13 -23h-66q5 35 31.5 59.5t76.5 24.5t77.5 -24t27.5 -62q0 -25 -11.5 -41t-32.5 -31q-22 -16 -25 -27h-72q3 9 10 16z" />
    <glyph glyph-name="emacron" unicode="&#x113;" horiz-adv-x="583" 
d="M160.5 32q-55.5 39 -82.5 102t-27 133q0 71 27 133.5t83 101.5t137 39q106 0 169.5 -71t63.5 -204v-24h-394v-7q0 -44 20 -83t56 -63t83 -24q51 0 88 26t55 70h85q-21 -72 -78.5 -120t-148.5 -48q-81 0 -136.5 39zM446 303q-4 90 -44 130t-105 40q-71 0 -113 -47
t-45 -123h307zM148 671h300v-45h-300v45z" />
    <glyph glyph-name="eogonek" unicode="&#x119;" horiz-adv-x="583" 
d="M137 242v-7q0 -44 20 -83t56 -63t83 -24q51 0 88 26t55 70h85q-18 -64 -66 -109.5t-123 -56.5q-25 -14 -39.5 -29.5t-14.5 -38.5q0 -18 13 -30t41 -12q14 0 39 5v-50q-24 -6 -50 -6q-49 0 -77 24t-28 61q0 46 37 77q-67 10 -113.5 50.5t-69 98.5t-22.5 122q0 71 27 133.5
t83 101.5t137 39q106 0 169.5 -71t63.5 -204v-24h-394zM184 426q-42 -47 -45 -123h307q-4 90 -44 130t-105 40q-71 0 -113 -47z" />
    <glyph glyph-name="uni1EBD" unicode="&#x1ebd;" horiz-adv-x="583" 
d="M160.5 32q-55.5 39 -82.5 102t-27 133q0 71 27 133.5t83 101.5t137 39q106 0 169.5 -71t63.5 -204v-24h-394v-7q0 -44 20 -83t56 -63t83 -24q51 0 88 26t55 70h85q-21 -72 -78.5 -120t-148.5 -48q-81 0 -136.5 39zM446 303q-4 90 -44 130t-105 40q-71 0 -113 -47
t-45 -123h307zM173.5 698q20.5 33 66.5 33q19 0 34.5 -7.5t36.5 -22.5q15 -11 25 -16.5t20 -5.5q18 0 26 15t6 37h52q3 -43 -17 -76.5t-67 -33.5q-19 0 -34.5 7.5t-36.5 22.5q-16 11 -25.5 16t-19.5 5q-35 0 -33 -51h-52q-2 44 18.5 77z" />
    <glyph glyph-name="f" unicode="f" horiz-adv-x="373" 
d="M229.5 661.5q-16.5 -13.5 -20 -32t-3.5 -47.5v-55h125v-69h-125v-458h-86l-1 458h-72v69h72v69q0 142 141 142q20 0 40.5 -2.5t30.5 -5.5v-60q-22 5 -50 5q-35 0 -51.5 -13.5z" />
    <glyph glyph-name="g" unicode="g" horiz-adv-x="622" 
d="M262.5 -207q-18.5 4 -37.5 11v72q13 -4 35 -7.5t43 -3.5q78 0 117.5 44t39.5 117v95h-8q-21 -47 -67.5 -79.5t-112.5 -32.5t-116 34t-77.5 94.5t-27.5 138.5t27.5 138.5t77.5 94.5t116 34q69 0 115.5 -35.5t65.5 -82.5h7v101h87v-500q0 -56 -22.5 -110t-75.5 -90.5
t-138 -36.5q-30 0 -48.5 4zM387 110.5q36 27.5 53.5 72t17.5 95.5q0 50 -17.5 93t-53 70t-87.5 27q-77 0 -117.5 -55.5t-40.5 -134.5q0 -52 17.5 -96.5t53 -71.5t87.5 -27q51 0 87 27.5z" />
    <glyph glyph-name="gbreve" unicode="&#x11f;" horiz-adv-x="622" 
d="M262.5 -207q-18.5 4 -37.5 11v72q13 -4 35 -7.5t43 -3.5q78 0 117.5 44t39.5 117v95h-8q-21 -47 -67.5 -79.5t-112.5 -32.5t-116 34t-77.5 94.5t-27.5 138.5t27.5 138.5t77.5 94.5t116 34q69 0 115.5 -35.5t65.5 -82.5h7v101h87v-500q0 -56 -22.5 -110t-75.5 -90.5
t-138 -36.5q-30 0 -48.5 4zM387 110.5q36 27.5 53.5 72t17.5 95.5q0 50 -17.5 93t-53 70t-87.5 27q-77 0 -117.5 -55.5t-40.5 -134.5q0 -52 17.5 -96.5t53 -71.5t87.5 -27q51 0 87 27.5zM205.5 633.5q-40.5 25.5 -70.5 79.5h75q29 -52 95 -52q65 0 94 52h75
q-30 -53 -70.5 -79t-98.5 -26q-59 0 -99.5 25.5z" />
    <glyph glyph-name="gdotaccent" unicode="&#x121;" horiz-adv-x="622" 
d="M262.5 -207q-18.5 4 -37.5 11v72q13 -4 35 -7.5t43 -3.5q78 0 117.5 44t39.5 117v95h-8q-21 -47 -67.5 -79.5t-112.5 -32.5t-116 34t-77.5 94.5t-27.5 138.5t27.5 138.5t77.5 94.5t116 34q69 0 115.5 -35.5t65.5 -82.5h7v101h87v-500q0 -56 -22.5 -110t-75.5 -90.5
t-138 -36.5q-30 0 -48.5 4zM387 110.5q36 27.5 53.5 72t17.5 95.5q0 50 -17.5 93t-53 70t-87.5 27q-77 0 -117.5 -55.5t-40.5 -134.5q0 -52 17.5 -96.5t53 -71.5t87.5 -27q51 0 87 27.5zM264 641.5q-16 16.5 -16 39.5t16 39.5t40 16.5t40.5 -16.5t16.5 -39.5t-16.5 -39.5
t-40.5 -16.5t-40 16.5z" />
    <glyph glyph-name="h" unicode="h" horiz-adv-x="612" 
d="M75 747h86v-315h8q20 46 65 77.5t110 31.5q67 0 112 -31.5t66.5 -83t21.5 -111.5v-315h-86v304q0 78 -40.5 119t-107.5 41q-64 0 -106.5 -43t-42.5 -117v-304h-86v747z" />
    <glyph glyph-name="hbar" unicode="&#x127;" horiz-adv-x="606" 
d="M518.5 469q33.5 -72 33.5 -146v-323h-86v311q0 57 -24.5 105.5t-106.5 48.5q-79 0 -122 -52t-43 -132v-281h-87v608h-74v60h74v82h86v-82h153v-60h-153v-185h8q59 118 191 118q117 0 150.5 -72z" />
    <glyph glyph-name="i" unicode="i" horiz-adv-x="250" 
d="M82 527h86v-527h-86v527zM84 641.5q-16 16.5 -16 39.5t16 39.5t40 16.5t40.5 -16.5t16.5 -39.5t-16.5 -39.5t-40.5 -16.5t-40 16.5z" />
    <glyph glyph-name="dotlessi" unicode="&#x131;" horiz-adv-x="250" 
d="M82 527h86v-527h-86v527z" />
    <glyph glyph-name="iacute" unicode="&#xed;" horiz-adv-x="250" 
d="M82 527h86v-527h-86v527zM93 598l98 179h92l-121 -179h-69z" />
    <glyph glyph-name="icircumflex" unicode="&#xee;" horiz-adv-x="250" 
d="M82 527h86v-527h-86v527zM88 739h75l131 -146h-86l-81 90h-4l-81 -90h-85z" />
    <glyph glyph-name="idieresis" unicode="&#xef;" horiz-adv-x="250" 
d="M82 527h86v-527h-86v527zM184 641.5q-16 16.5 -16 39.5t16 39.5t40 16.5t40.5 -16.5t16.5 -39.5t-16.5 -39.5t-40.5 -16.5t-40 16.5zM-12 641.5q-16 16.5 -16 39.5t16 39.5t40 16.5t40.5 -16.5t16.5 -39.5t-16.5 -39.5t-40.5 -16.5t-40 16.5z" />
    <glyph glyph-name="i.loclTRK" horiz-adv-x="250" 
d="M82 527h86v-527h-86v527zM84 641.5q-16 16.5 -16 39.5t16 39.5t40 16.5t40.5 -16.5t16.5 -39.5t-16.5 -39.5t-40.5 -16.5t-40 16.5z" />
    <glyph glyph-name="uni1ECB" unicode="&#x1ecb;" horiz-adv-x="250" 
d="M82 527h86v-527h-86v527zM84 641.5q-16 16.5 -16 39.5t16 39.5t40 16.5t40.5 -16.5t16.5 -39.5t-16.5 -39.5t-40.5 -16.5t-40 16.5zM86 -206.5q-16 16.5 -16 39.5t16 39.5t40 16.5t40 -16.5t16 -39.5t-16 -39.5t-40 -16.5t-40 16.5z" />
    <glyph glyph-name="igrave" unicode="&#xec;" horiz-adv-x="250" 
d="M82 527h86v-527h-86v527zM-33 777h91l99 -179h-70z" />
    <glyph glyph-name="uni1EC9" unicode="&#x1ec9;" horiz-adv-x="250" 
d="M82 527h86v-527h-86v527zM100 614q7 7 25 20q23 17 33.5 29t10.5 30q0 16 -10 27t-32 11q-19 0 -30 -9t-13 -23h-66q5 35 31.5 59.5t76.5 24.5t77.5 -24t27.5 -62q0 -25 -11.5 -41t-32.5 -31q-22 -16 -25 -27h-72q3 9 10 16z" />
    <glyph glyph-name="imacron" unicode="&#x12b;" horiz-adv-x="250" 
d="M82 527h86v-527h-86v527zM-25 671h300v-45h-300v45z" />
    <glyph glyph-name="iogonek" unicode="&#x12f;" horiz-adv-x="250" 
d="M84 641.5q-16 16.5 -16 39.5t16 39.5t40 16.5t40.5 -16.5t16.5 -39.5t-16.5 -39.5t-40.5 -16.5t-40 16.5zM206 -106v-50q-24 -6 -50 -6q-49 0 -77 24t-28 61q0 44 37 77h-6v527h86v-527q-26 -16 -40.5 -31t-14.5 -38q0 -18 13 -30t41 -12q14 0 39 5z" />
    <glyph glyph-name="itilde" unicode="&#x129;" horiz-adv-x="250" 
d="M82 527h86v-527h-86v527zM0.5 698q20.5 33 66.5 33q19 0 34.5 -7.5t36.5 -22.5q15 -11 25 -16.5t20 -5.5q18 0 26 15t6 37h52q3 -43 -17 -76.5t-67 -33.5q-19 0 -34.5 7.5t-36.5 22.5q-16 11 -25.5 16t-19.5 5q-35 0 -33 -51h-52q-2 44 18.5 77z" />
    <glyph glyph-name="j" unicode="j" horiz-adv-x="253" 
d="M91.5 641q-15.5 16 -15.5 40t15.5 40t39.5 16t40.5 -16.5t16.5 -39.5t-16.5 -39.5t-40.5 -16.5t-39.5 16zM-39 -211v62q17 -4 47 -4q36 0 53 13.5t21 32t4 47.5v594h86l1 -614q0 -56 -28 -97.5t-114 -41.5q-40 0 -70 8z" />
    <glyph glyph-name="k" unicode="k" horiz-adv-x="516" 
d="M78 747h87v-420h4l200 200h98l-233 -237l243 -290h-99l-209 257h-4v-257h-87v747z" />
    <glyph glyph-name="l" unicode="l" horiz-adv-x="314" 
d="M122 15q-29 19 -36.5 49.5t-7.5 79.5l1 606h86v-593q0 -38 3.5 -56.5t19 -29.5t49.5 -11q21 0 37 3v-62q-27 -5 -64 -5q-59 0 -88 19z" />
    <glyph glyph-name="lacute" unicode="&#x13a;" horiz-adv-x="314" 
d="M122 15q-29 19 -36.5 49.5t-7.5 79.5l1 606h86v-593q0 -38 3.5 -56.5t19 -29.5t49.5 -11q21 0 37 3v-62q-27 -5 -64 -5q-59 0 -88 19zM89 818l98 179h92l-121 -179h-69z" />
    <glyph glyph-name="lcaron" unicode="&#x13e;" horiz-adv-x="359" 
d="M122 15q-29 19 -36.5 49.5t-7.5 79.5l1 606h86v-593q0 -38 3.5 -56.5t19 -29.5t49.5 -11q21 0 37 3v-62q-27 -5 -64 -5q-59 0 -88 19zM231 557q61 27 61 80q0 25 -8.5 31.5t-25.5 6.5q-50 0 -50 49q0 27 16.5 43t46.5 16q71 0 71 -77v-36q0 -62 -30.5 -98.5t-80.5 -51.5
v37z" />
    <glyph glyph-name="m" unicode="m" horiz-adv-x="958" 
d="M75 527h85v-97h8q2 10 20 36.5t55 50.5t92 24q58 0 96.5 -27t57.5 -58t19 -39h8q14 35 55.5 79.5t127.5 44.5q64 0 107 -32.5t63.5 -83.5t20.5 -109v-316h-85v308q0 76 -39.5 115t-97.5 39q-60 0 -101.5 -40.5t-41.5 -113.5v-308h-85v308q0 76 -39.5 115t-97.5 39
q-60 0 -101.5 -40.5t-41.5 -113.5v-308h-85v527z" />
    <glyph glyph-name="n" unicode="n" horiz-adv-x="612" 
d="M75 527h86v-95h8q20 46 65 77.5t110 31.5q67 0 112 -31.5t66.5 -83t21.5 -111.5v-315h-86v304q0 78 -40.5 119t-105.5 41q-69 0 -110 -44.5t-41 -115.5v-304h-86v527z" />
    <glyph glyph-name="nacute" unicode="&#x144;" horiz-adv-x="612" 
d="M75 527h86v-95h8q20 46 65 77.5t110 31.5q67 0 112 -31.5t66.5 -83t21.5 -111.5v-315h-86v304q0 78 -40.5 119t-105.5 41q-69 0 -110 -44.5t-41 -115.5v-304h-86v527zM274 598l98 179h92l-121 -179h-69z" />
    <glyph glyph-name="ncaron" unicode="&#x148;" horiz-adv-x="612" 
d="M75 527h86v-95h8q20 46 65 77.5t110 31.5q67 0 112 -31.5t66.5 -83t21.5 -111.5v-315h-86v304q0 78 -40.5 119t-105.5 41q-69 0 -110 -44.5t-41 -115.5v-304h-86v527zM223 739l80 -89h4l82 89h86l-132 -146h-74l-132 146h86z" />
    <glyph glyph-name="ntilde" unicode="&#xf1;" horiz-adv-x="612" 
d="M75 527h86v-95h8q20 46 65 77.5t110 31.5q67 0 112 -31.5t66.5 -83t21.5 -111.5v-315h-86v304q0 78 -40.5 119t-105.5 41q-69 0 -110 -44.5t-41 -115.5v-304h-86v527zM181.5 698q20.5 33 66.5 33q19 0 34.5 -7.5t36.5 -22.5q15 -11 25 -16.5t20 -5.5q18 0 26 15t6 37h52
q3 -43 -17 -76.5t-67 -33.5q-19 0 -34.5 7.5t-36.5 22.5q-16 11 -25.5 16t-19.5 5q-35 0 -33 -51h-52q-2 44 18.5 77z" />
    <glyph glyph-name="o" unicode="o" horiz-adv-x="595" 
d="M162.5 31.5q-55.5 38.5 -83.5 101t-28 134.5t28 134.5t83.5 101t135.5 38.5t135.5 -38.5t83 -101.5t27.5 -134t-28 -134t-83.5 -101.5t-134.5 -38.5q-80 0 -135.5 38.5zM383.5 94q36.5 27 55.5 72.5t19 101.5q0 86 -43 143t-117 57q-50 0 -86.5 -27t-55.5 -72.5
t-19 -100.5q0 -86 43 -143.5t118 -57.5q49 0 85.5 27z" />
    <glyph glyph-name="oacute" unicode="&#xf3;" horiz-adv-x="595" 
d="M162.5 31.5q-55.5 38.5 -83.5 101t-28 134.5t28 134.5t83.5 101t135.5 38.5t135.5 -38.5t83 -101.5t27.5 -134t-28 -134t-83.5 -101.5t-134.5 -38.5q-80 0 -135.5 38.5zM383.5 94q36.5 27 55.5 72.5t19 101.5q0 86 -43 143t-117 57q-50 0 -86.5 -27t-55.5 -72.5
t-19 -100.5q0 -86 43 -143.5t118 -57.5q49 0 85.5 27zM266 598l98 179h92l-121 -179h-69z" />
    <glyph glyph-name="ocircumflex" unicode="&#xf4;" horiz-adv-x="595" 
d="M162.5 31.5q-55.5 38.5 -83.5 101t-28 134.5t28 134.5t83.5 101t135.5 38.5t135.5 -38.5t83 -101.5t27.5 -134t-28 -134t-83.5 -101.5t-134.5 -38.5q-80 0 -135.5 38.5zM383.5 94q36.5 27 55.5 72.5t19 101.5q0 86 -43 143t-117 57q-50 0 -86.5 -27t-55.5 -72.5
t-19 -100.5q0 -86 43 -143.5t118 -57.5q49 0 85.5 27zM261 739h75l131 -146h-86l-81 90h-4l-81 -90h-85z" />
    <glyph glyph-name="uni1ED1" unicode="&#x1ed1;" horiz-adv-x="595" 
d="M162.5 31.5q-55.5 38.5 -83.5 101t-28 134.5t28 134.5t83.5 101t135.5 38.5t135.5 -38.5t83 -101.5t27.5 -134t-28 -134t-83.5 -101.5t-134.5 -38.5q-80 0 -135.5 38.5zM383.5 94q36.5 27 55.5 72.5t19 101.5q0 86 -43 143t-117 57q-50 0 -86.5 -27t-55.5 -72.5
t-19 -100.5q0 -86 43 -143.5t118 -57.5q49 0 85.5 27zM261 739h75l131 -146h-86l-81 90h-4l-81 -90h-85zM419 718l98 179h92l-121 -179h-69z" />
    <glyph glyph-name="uni1ED9" unicode="&#x1ed9;" horiz-adv-x="595" 
d="M162.5 31.5q-55.5 38.5 -83.5 101t-28 134.5t28 134.5t83.5 101t135.5 38.5t135.5 -38.5t83 -101.5t27.5 -134t-28 -134t-83.5 -101.5t-134.5 -38.5q-80 0 -135.5 38.5zM383.5 94q36.5 27 55.5 72.5t19 101.5q0 86 -43 143t-117 57q-50 0 -86.5 -27t-55.5 -72.5
t-19 -100.5q0 -86 43 -143.5t118 -57.5q49 0 85.5 27zM259 -206.5q-16 16.5 -16 39.5t16 39.5t40 16.5t40 -16.5t16 -39.5t-16 -39.5t-40 -16.5t-40 16.5zM261 739h75l131 -146h-86l-81 90h-4l-81 -90h-85z" />
    <glyph glyph-name="uni1ED3" unicode="&#x1ed3;" horiz-adv-x="595" 
d="M162.5 31.5q-55.5 38.5 -83.5 101t-28 134.5t28 134.5t83.5 101t135.5 38.5t135.5 -38.5t83 -101.5t27.5 -134t-28 -134t-83.5 -101.5t-134.5 -38.5q-80 0 -135.5 38.5zM383.5 94q36.5 27 55.5 72.5t19 101.5q0 86 -43 143t-117 57q-50 0 -86.5 -27t-55.5 -72.5
t-19 -100.5q0 -86 43 -143.5t118 -57.5q49 0 85.5 27zM260 739h75l131 -146h-86l-81 90h-4l-81 -90h-85zM300 897h91l99 -179h-70z" />
    <glyph glyph-name="uni1ED5" unicode="&#x1ed5;" horiz-adv-x="595" 
d="M162.5 31.5q-55.5 38.5 -83.5 101t-28 134.5t28 134.5t83.5 101t135.5 38.5t135.5 -38.5t83 -101.5t27.5 -134t-28 -134t-83.5 -101.5t-134.5 -38.5q-80 0 -135.5 38.5zM383.5 94q36.5 27 55.5 72.5t19 101.5q0 86 -43 143t-117 57q-50 0 -86.5 -27t-55.5 -72.5
t-19 -100.5q0 -86 43 -143.5t118 -57.5q49 0 85.5 27zM261 739h75l131 -146h-86l-81 90h-4l-81 -90h-85zM427 739q7 7 25 20q23 17 33.5 29t10.5 30q0 16 -10 27t-32 11q-19 0 -30 -9t-13 -23h-66q5 35 31.5 59.5t76.5 24.5t77.5 -24t27.5 -62q0 -25 -11.5 -41t-32.5 -31
q-22 -16 -25 -27h-72q3 9 10 16z" />
    <glyph glyph-name="uni1ED7" unicode="&#x1ed7;" horiz-adv-x="595" 
d="M162.5 31.5q-55.5 38.5 -83.5 101t-28 134.5t28 134.5t83.5 101t135.5 38.5t135.5 -38.5t83 -101.5t27.5 -134t-28 -134t-83.5 -101.5t-134.5 -38.5q-80 0 -135.5 38.5zM383.5 94q36.5 27 55.5 72.5t19 101.5q0 86 -43 143t-117 57q-50 0 -86.5 -27t-55.5 -72.5
t-19 -100.5q0 -86 43 -143.5t118 -57.5q49 0 85.5 27zM261 739h75l131 -146h-86l-81 90h-4l-81 -90h-85zM175.5 854q20.5 33 66.5 33q19 0 34.5 -7.5t36.5 -22.5q15 -11 25 -16.5t20 -5.5q18 0 26 15t6 37h52q3 -43 -17 -76.5t-67 -33.5q-19 0 -34.5 7.5t-36.5 22.5
q-16 11 -25.5 16t-19.5 5q-35 0 -33 -51h-52q-2 44 18.5 77z" />
    <glyph glyph-name="odieresis" unicode="&#xf6;" horiz-adv-x="595" 
d="M162.5 31.5q-55.5 38.5 -83.5 101t-28 134.5t28 134.5t83.5 101t135.5 38.5t135.5 -38.5t83 -101.5t27.5 -134t-28 -134t-83.5 -101.5t-134.5 -38.5q-80 0 -135.5 38.5zM383.5 94q36.5 27 55.5 72.5t19 101.5q0 86 -43 143t-117 57q-50 0 -86.5 -27t-55.5 -72.5
t-19 -100.5q0 -86 43 -143.5t118 -57.5q49 0 85.5 27zM357 641.5q-16 16.5 -16 39.5t16 39.5t40 16.5t40.5 -16.5t16.5 -39.5t-16.5 -39.5t-40.5 -16.5t-40 16.5zM161 641.5q-16 16.5 -16 39.5t16 39.5t40 16.5t40.5 -16.5t16.5 -39.5t-16.5 -39.5t-40.5 -16.5t-40 16.5z
" />
    <glyph glyph-name="uni1ECD" unicode="&#x1ecd;" horiz-adv-x="595" 
d="M162.5 31.5q-55.5 38.5 -83.5 101t-28 134.5t28 134.5t83.5 101t135.5 38.5t135.5 -38.5t83 -101.5t27.5 -134t-28 -134t-83.5 -101.5t-134.5 -38.5q-80 0 -135.5 38.5zM383.5 94q36.5 27 55.5 72.5t19 101.5q0 86 -43 143t-117 57q-50 0 -86.5 -27t-55.5 -72.5
t-19 -100.5q0 -86 43 -143.5t118 -57.5q49 0 85.5 27zM259 -206.5q-16 16.5 -16 39.5t16 39.5t40 16.5t40 -16.5t16 -39.5t-16 -39.5t-40 -16.5t-40 16.5z" />
    <glyph glyph-name="ograve" unicode="&#xf2;" horiz-adv-x="595" 
d="M162.5 31.5q-55.5 38.5 -83.5 101t-28 134.5t28 134.5t83.5 101t135.5 38.5t135.5 -38.5t83 -101.5t27.5 -134t-28 -134t-83.5 -101.5t-134.5 -38.5q-80 0 -135.5 38.5zM383.5 94q36.5 27 55.5 72.5t19 101.5q0 86 -43 143t-117 57q-50 0 -86.5 -27t-55.5 -72.5
t-19 -100.5q0 -86 43 -143.5t118 -57.5q49 0 85.5 27zM140 777h91l99 -179h-70z" />
    <glyph glyph-name="uni1ECF" unicode="&#x1ecf;" horiz-adv-x="595" 
d="M162.5 31.5q-55.5 38.5 -83.5 101t-28 134.5t28 134.5t83.5 101t135.5 38.5t135.5 -38.5t83 -101.5t27.5 -134t-28 -134t-83.5 -101.5t-134.5 -38.5q-80 0 -135.5 38.5zM383.5 94q36.5 27 55.5 72.5t19 101.5q0 86 -43 143t-117 57q-50 0 -86.5 -27t-55.5 -72.5
t-19 -100.5q0 -86 43 -143.5t118 -57.5q49 0 85.5 27zM273 614q7 7 25 20q23 17 33.5 29t10.5 30q0 16 -10 27t-32 11q-19 0 -30 -9t-13 -23h-66q5 35 31.5 59.5t76.5 24.5t77.5 -24t27.5 -62q0 -25 -11.5 -41t-32.5 -31q-22 -16 -25 -27h-72q3 9 10 16z" />
    <glyph glyph-name="ohorn" unicode="&#x1a1;" horiz-adv-x="607" 
d="M522 509q-25 -24 -63 -27q42 -39 63.5 -95.5t21.5 -119.5q0 -71 -28 -134t-83.5 -101.5t-134.5 -38.5q-80 0 -135.5 38.5t-83.5 101t-28 134.5t28 134.5t83.5 101t135.5 38.5q47 0 86 -14h41q29 0 41.5 12t12.5 53v27h68v-36q0 -50 -25 -74zM383.5 94q36.5 27 55.5 72.5
t19 101.5q0 86 -43 143t-117 57q-50 0 -86.5 -27t-55.5 -72.5t-19 -100.5q0 -86 43 -143.5t118 -57.5q49 0 85.5 27z" />
    <glyph glyph-name="uni1EDB" unicode="&#x1edb;" horiz-adv-x="607" 
d="M522 509q-25 -24 -63 -27q42 -39 63.5 -95.5t21.5 -119.5q0 -71 -28 -134t-83.5 -101.5t-134.5 -38.5q-80 0 -135.5 38.5t-83.5 101t-28 134.5t28 134.5t83.5 101t135.5 38.5q47 0 86 -14h41q29 0 41.5 12t12.5 53v27h68v-36q0 -50 -25 -74zM383.5 94q36.5 27 55.5 72.5
t19 101.5q0 86 -43 143t-117 57q-50 0 -86.5 -27t-55.5 -72.5t-19 -100.5q0 -86 43 -143.5t118 -57.5q49 0 85.5 27zM266 598l98 179h92l-121 -179h-69z" />
    <glyph glyph-name="uni1EE3" unicode="&#x1ee3;" horiz-adv-x="607" 
d="M522 509q-25 -24 -63 -27q42 -39 63.5 -95.5t21.5 -119.5q0 -71 -28 -134t-83.5 -101.5t-134.5 -38.5q-80 0 -135.5 38.5t-83.5 101t-28 134.5t28 134.5t83.5 101t135.5 38.5q47 0 86 -14h41q29 0 41.5 12t12.5 53v27h68v-36q0 -50 -25 -74zM383.5 94q36.5 27 55.5 72.5
t19 101.5q0 86 -43 143t-117 57q-50 0 -86.5 -27t-55.5 -72.5t-19 -100.5q0 -86 43 -143.5t118 -57.5q49 0 85.5 27zM259 -206.5q-16 16.5 -16 39.5t16 39.5t40 16.5t40 -16.5t16 -39.5t-16 -39.5t-40 -16.5t-40 16.5z" />
    <glyph glyph-name="uni1EDD" unicode="&#x1edd;" horiz-adv-x="607" 
d="M522 509q-25 -24 -63 -27q42 -39 63.5 -95.5t21.5 -119.5q0 -71 -28 -134t-83.5 -101.5t-134.5 -38.5q-80 0 -135.5 38.5t-83.5 101t-28 134.5t28 134.5t83.5 101t135.5 38.5q47 0 86 -14h41q29 0 41.5 12t12.5 53v27h68v-36q0 -50 -25 -74zM383.5 94q36.5 27 55.5 72.5
t19 101.5q0 86 -43 143t-117 57q-50 0 -86.5 -27t-55.5 -72.5t-19 -100.5q0 -86 43 -143.5t118 -57.5q49 0 85.5 27zM140 777h91l99 -179h-70z" />
    <glyph glyph-name="uni1EDF" unicode="&#x1edf;" horiz-adv-x="607" 
d="M522 509q-25 -24 -63 -27q42 -39 63.5 -95.5t21.5 -119.5q0 -71 -28 -134t-83.5 -101.5t-134.5 -38.5q-80 0 -135.5 38.5t-83.5 101t-28 134.5t28 134.5t83.5 101t135.5 38.5q47 0 86 -14h41q29 0 41.5 12t12.5 53v27h68v-36q0 -50 -25 -74zM383.5 94q36.5 27 55.5 72.5
t19 101.5q0 86 -43 143t-117 57q-50 0 -86.5 -27t-55.5 -72.5t-19 -100.5q0 -86 43 -143.5t118 -57.5q49 0 85.5 27zM273 614q7 7 25 20q23 17 33.5 29t10.5 30q0 16 -10 27t-32 11q-19 0 -30 -9t-13 -23h-66q5 35 31.5 59.5t76.5 24.5t77.5 -24t27.5 -62q0 -25 -11.5 -41
t-32.5 -31q-22 -16 -25 -27h-72q3 9 10 16z" />
    <glyph glyph-name="uni1EE1" unicode="&#x1ee1;" horiz-adv-x="607" 
d="M522 509q-25 -24 -63 -27q42 -39 63.5 -95.5t21.5 -119.5q0 -71 -28 -134t-83.5 -101.5t-134.5 -38.5q-80 0 -135.5 38.5t-83.5 101t-28 134.5t28 134.5t83.5 101t135.5 38.5q47 0 86 -14h41q29 0 41.5 12t12.5 53v27h68v-36q0 -50 -25 -74zM383.5 94q36.5 27 55.5 72.5
t19 101.5q0 86 -43 143t-117 57q-50 0 -86.5 -27t-55.5 -72.5t-19 -100.5q0 -86 43 -143.5t118 -57.5q49 0 85.5 27zM173.5 698q20.5 33 66.5 33q19 0 34.5 -7.5t36.5 -22.5q15 -11 25 -16.5t20 -5.5q18 0 26 15t6 37h52q3 -43 -17 -76.5t-67 -33.5q-19 0 -34.5 7.5
t-36.5 22.5q-16 11 -25.5 16t-19.5 5q-35 0 -33 -51h-52q-2 44 18.5 77z" />
    <glyph glyph-name="omacron" unicode="&#x14d;" horiz-adv-x="595" 
d="M162.5 31.5q-55.5 38.5 -83.5 101t-28 134.5t28 134.5t83.5 101t135.5 38.5t135.5 -38.5t83 -101.5t27.5 -134t-28 -134t-83.5 -101.5t-134.5 -38.5q-80 0 -135.5 38.5zM383.5 94q36.5 27 55.5 72.5t19 101.5q0 86 -43 143t-117 57q-50 0 -86.5 -27t-55.5 -72.5
t-19 -100.5q0 -86 43 -143.5t118 -57.5q49 0 85.5 27zM148 671h300v-45h-300v45z" />
    <glyph glyph-name="oslash" unicode="&#xf8;" horiz-adv-x="595" 
d="M520.5 392.5q23.5 -58.5 23.5 -124.5q0 -71 -28 -134t-83.5 -101.5t-134.5 -38.5q-60 0 -108 23l-32 -58h-67l50 90q-44 38 -67 95.5t-23 122.5q0 72 28 134.5t83.5 101t135.5 38.5q56 0 104 -21l35 64h67l-53 -95q46 -38 69.5 -96.5zM148.5 187.5q11.5 -37.5 33.5 -64.5
l183 330q-30 15 -67 15q-75 0 -118 -57t-43 -143q0 -43 11.5 -80.5zM415 125q43 57 43 143q0 45 -12 83t-35 65l-184 -331q32 -17 71 -17q74 0 117 57z" />
    <glyph glyph-name="otilde" unicode="&#xf5;" horiz-adv-x="595" 
d="M162.5 31.5q-55.5 38.5 -83.5 101t-28 134.5t28 134.5t83.5 101t135.5 38.5t135.5 -38.5t83 -101.5t27.5 -134t-28 -134t-83.5 -101.5t-134.5 -38.5q-80 0 -135.5 38.5zM383.5 94q36.5 27 55.5 72.5t19 101.5q0 86 -43 143t-117 57q-50 0 -86.5 -27t-55.5 -72.5
t-19 -100.5q0 -86 43 -143.5t118 -57.5q49 0 85.5 27zM173.5 698q20.5 33 66.5 33q19 0 34.5 -7.5t36.5 -22.5q15 -11 25 -16.5t20 -5.5q18 0 26 15t6 37h52q3 -43 -17 -76.5t-67 -33.5q-19 0 -34.5 7.5t-36.5 22.5q-16 11 -25.5 16t-19.5 5q-35 0 -33 -51h-52
q-2 44 18.5 77z" />
    <glyph glyph-name="oe" unicode="&#x153;" horiz-adv-x="989" 
d="M161 30.5q-55 38.5 -82.5 101t-27.5 134.5q0 71 27.5 134t82.5 101.5t133 38.5q74 0 126.5 -37.5t77.5 -94.5h7q24 58 75 95.5t126 37.5q105 0 168.5 -71t63.5 -204v-24h-390v-7q0 -45 20.5 -84t56.5 -62.5t80 -23.5q49 0 86.5 26t55.5 70h84q-21 -71 -79 -119.5
t-146 -48.5q-75 0 -125.5 36.5t-75.5 93.5h-7q-25 -56 -77 -93.5t-127 -37.5q-78 0 -133 38.5zM855 303q-4 90 -45 130t-105 40q-68 0 -110.5 -47t-46.5 -123h307zM377 91q37 26 57.5 71.5t20.5 102.5t-20.5 103t-57.5 72.5t-85 26.5q-72 0 -114 -57.5t-42 -143.5
q0 -57 19.5 -102.5t54.5 -72t82 -26.5q48 0 85 26z" />
    <glyph glyph-name="p" unicode="p" horiz-adv-x="622" 
d="M236 27q-44 34 -68 81h-7v-311h-87v730h87v-98h7q22 46 65 79t113 33q71 0 121.5 -35.5t76.5 -98t26 -140.5t-26 -140t-76 -98t-119 -36t-113 34zM440.5 124q40.5 57 40.5 143q0 85 -40 142t-119 57q-78 0 -118.5 -57t-40.5 -142t41 -142.5t118 -57.5q78 0 118.5 57z" />
    <glyph glyph-name="thorn" unicode="&#xfe;" horiz-adv-x="622" 
d="M235 26q-44 33 -67 80h-7v-339h-87v983h87v-319h7q22 45 65 77.5t113 32.5q71 0 121.5 -35.5t76.5 -98t26 -140.5t-26 -140t-76 -98t-119 -36q-70 0 -114 33zM440.5 124q40.5 57 40.5 143q0 85 -40 142t-119 57q-78 0 -118.5 -57t-40.5 -142t41 -142.5t118 -57.5
q78 0 118.5 57z" />
    <glyph glyph-name="q" unicode="q" horiz-adv-x="622" 
d="M154 29q-50 36 -76 98t-26 140t26 140.5t76.5 98t121.5 35.5q70 0 113 -33t65 -79h7v98h87v-730h-87v311h-7q-24 -47 -68 -81t-113 -34t-119 36zM418 124.5q41 57.5 41 142.5t-40.5 142t-118.5 57q-79 0 -119 -57t-40 -142q0 -86 40.5 -143t118.5 -57q77 0 118 57.5z" />
    <glyph glyph-name="r" unicode="r" horiz-adv-x="353" 
d="M71 527h86v-84h6q13 35 46.5 59.5t84.5 24.5q16 0 25.5 -1.5t21.5 -5.5l-3 -84q-16 5 -27.5 7t-29.5 2q-124 0 -124 -147v-298h-86v527z" />
    <glyph glyph-name="racute" unicode="&#x155;" horiz-adv-x="353" 
d="M71 527h86v-84h6q13 35 46.5 59.5t84.5 24.5q16 0 25.5 -1.5t21.5 -5.5l-3 -84q-16 5 -27.5 7t-29.5 2q-124 0 -124 -147v-298h-86v527zM148 598l98 179h92l-121 -179h-69z" />
    <glyph glyph-name="rcaron" unicode="&#x159;" horiz-adv-x="353" 
d="M71 527h86v-84h6q13 35 46.5 59.5t84.5 24.5q16 0 25.5 -1.5t21.5 -5.5l-3 -84q-16 5 -27.5 7t-29.5 2q-124 0 -124 -147v-298h-86v527zM97 739l80 -89h4l82 89h86l-132 -146h-74l-132 146h86z" />
    <glyph glyph-name="s" unicode="s" horiz-adv-x="496" 
d="M144 18.5q-47 25.5 -71.5 65.5t-24.5 84v5h86v-4q0 -25 14 -49.5t42 -40t68 -15.5q48 0 79.5 23.5t31.5 64.5q0 34 -24.5 54t-61.5 26l-69 10q-65 10 -109 44.5t-44 100.5q0 73 52.5 113.5t134.5 40.5q61 0 104.5 -22.5t66.5 -59t23 -79.5v-4h-86v2q0 20 -10.5 42
t-35.5 38t-64 16q-48 0 -77 -23.5t-29 -61.5q0 -31 23 -51t58 -26l75 -12q66 -11 111 -45.5t45 -101.5q0 -48 -25.5 -84t-70.5 -56t-101 -20q-64 0 -111 25.5z" />
    <glyph glyph-name="sacute" unicode="&#x15b;" horiz-adv-x="496" 
d="M144 18.5q-47 25.5 -71.5 65.5t-24.5 84v5h86v-4q0 -25 14 -49.5t42 -40t68 -15.5q48 0 79.5 23.5t31.5 64.5q0 34 -24.5 54t-61.5 26l-69 10q-65 10 -109 44.5t-44 100.5q0 73 52.5 113.5t134.5 40.5q61 0 104.5 -22.5t66.5 -59t23 -79.5v-4h-86v2q0 20 -10.5 42
t-35.5 38t-64 16q-48 0 -77 -23.5t-29 -61.5q0 -31 23 -51t58 -26l75 -12q66 -11 111 -45.5t45 -101.5q0 -48 -25.5 -84t-70.5 -56t-101 -20q-64 0 -111 25.5zM221 605l98 179h92l-121 -179h-69z" />
    <glyph glyph-name="scaron" unicode="&#x161;" horiz-adv-x="496" 
d="M144 18.5q-47 25.5 -71.5 65.5t-24.5 84v5h86v-4q0 -25 14 -49.5t42 -40t68 -15.5q48 0 79.5 23.5t31.5 64.5q0 34 -24.5 54t-61.5 26l-69 10q-65 10 -109 44.5t-44 100.5q0 73 52.5 113.5t134.5 40.5q61 0 104.5 -22.5t66.5 -59t23 -79.5v-4h-86v2q0 20 -10.5 42
t-35.5 38t-64 16q-48 0 -77 -23.5t-29 -61.5q0 -31 23 -51t58 -26l75 -12q66 -11 111 -45.5t45 -101.5q0 -48 -25.5 -84t-70.5 -56t-101 -20q-64 0 -111 25.5zM169 746l80 -89h4l82 89h86l-132 -146h-74l-132 146h86z" />
    <glyph glyph-name="scedilla" unicode="&#x15f;" horiz-adv-x="496" 
d="M405.5 45.5q-46.5 -42.5 -119.5 -50.5l-18 -52h26q48 0 72.5 -25t24.5 -63q0 -42 -30 -73t-88 -31q-32 0 -58 10l1 49q30 -7 58 -7q33 0 51 14.5t18 37.5q0 25 -18 34t-37 9h-83v3l29 93q-57 4 -99.5 30t-64.5 64.5t-22 79.5v5h86v-4q0 -25 14 -49.5t42 -40t68 -15.5
q48 0 79.5 23.5t31.5 64.5q0 34 -24.5 54t-61.5 26l-69 10q-65 10 -109 44.5t-44 100.5q0 73 52.5 113.5t134.5 40.5q61 0 104.5 -22.5t66.5 -59t23 -79.5v-4h-86v2q0 20 -10.5 42t-35.5 38t-64 16q-48 0 -77 -23.5t-29 -61.5q0 -31 23 -51t58 -26l75 -12q66 -11 111 -45.5
t45 -101.5q0 -65 -46.5 -107.5z" />
    <glyph glyph-name="germandbls" unicode="&#xdf;" 
d="M201.5 617.5q-28.5 -26.5 -35 -58t-6.5 -67.5v-495h-85v489q0 92 45 161t164 69q74 0 122 -26.5t70 -68.5t22 -91q0 -55 -23.5 -90t-51.5 -50.5t-38 -15.5v-6q10 0 42 -16t60 -54.5t28 -101.5q0 -56 -26 -102.5t-76 -74t-120 -27.5q-35 0 -60 5v73q20 -4 48 -4
q72 0 113.5 37t41.5 102q0 72 -47 103t-113 31h-58v66h60q57 0 98 28t41 92q0 58 -35 88.5t-94 30.5q-58 0 -86.5 -26.5z" />
    <glyph glyph-name="t" unicode="t" horiz-adv-x="393" 
d="M216 458v-306q0 -37 3.5 -54.5t19 -27.5t50.5 -10q24 0 52 7v-62q-7 -3 -30.5 -6t-48.5 -3q-58 0 -86.5 16.5t-37 45t-8.5 75.5v325h-98v69h98v173h86v-173h125v-69h-125z" />
    <glyph glyph-name="tbar" unicode="&#x167;" horiz-adv-x="393" 
d="M217 458v-133h125v-50h-125v-118q0 -38 3.5 -56.5t19 -29.5t50.5 -11q24 0 52 7v-62q-7 -3 -30.5 -6t-48.5 -3q-60 0 -89 19t-36.5 49.5t-7.5 79.5v131h-98v50h98l1 133h-99v69h99v173h86v-173h125v-69h-125z" />
    <glyph glyph-name="tcaron" unicode="&#x165;" horiz-adv-x="500" 
d="M216 458v-306q0 -37 3.5 -54.5t19 -27.5t50.5 -10q24 0 52 7v-62q-7 -3 -30.5 -6t-48.5 -3q-58 0 -86.5 16.5t-37 45t-8.5 75.5v325h-98v69h98v173h86v-173h125v-69h-125zM373 557q61 27 61 80q0 25 -8.5 31.5t-25.5 6.5q-50 0 -50 49q0 27 16.5 43t46.5 16q71 0 71 -77
v-36q0 -62 -30.5 -98.5t-80.5 -51.5v37z" />
    <glyph glyph-name="uni0163" unicode="&#x163;" horiz-adv-x="393" 
d="M337.5 -80q24.5 -25 24.5 -63q0 -42 -30 -73t-88 -31q-32 0 -58 10l1 49q30 -7 58 -7q33 0 51 14.5t18 37.5q0 25 -18 34t-37 9h-83v3l31 98q-48 11 -62.5 42.5t-14.5 89.5v325h-98v69h98v173h86v-173h125v-69h-125v-306q0 -37 3.5 -54.5t19 -27.5t50.5 -10q24 0 52 7
v-62q-7 -3 -30.5 -6t-48.5 -3h-5l-18 -51h26q48 0 72.5 -25z" />
    <glyph glyph-name="u" unicode="u" horiz-adv-x="602" 
d="M534 0h-87v100h-6q-21 -46 -64.5 -77.5t-106.5 -31.5q-66 0 -110 32t-64.5 83t-20.5 111v310h86v-299q0 -77 39 -118.5t102 -41.5q66 0 105.5 44.5t39.5 115.5v299h87v-527z" />
    <glyph glyph-name="uacute" unicode="&#xfa;" horiz-adv-x="602" 
d="M534 0h-87v100h-6q-21 -46 -64.5 -77.5t-106.5 -31.5q-66 0 -110 32t-64.5 83t-20.5 111v310h86v-299q0 -77 39 -118.5t102 -41.5q66 0 105.5 44.5t39.5 115.5v299h87v-527zM257 598l98 179h92l-121 -179h-69z" />
    <glyph glyph-name="ucircumflex" unicode="&#xfb;" horiz-adv-x="602" 
d="M534 0h-87v100h-6q-21 -46 -64.5 -77.5t-106.5 -31.5q-66 0 -110 32t-64.5 83t-20.5 111v310h86v-299q0 -77 39 -118.5t102 -41.5q66 0 105.5 44.5t39.5 115.5v299h87v-527zM252 739h75l131 -146h-86l-81 90h-4l-81 -90h-85z" />
    <glyph glyph-name="udieresis" unicode="&#xfc;" horiz-adv-x="602" 
d="M534 0h-87v100h-6q-21 -46 -64.5 -77.5t-106.5 -31.5q-66 0 -110 32t-64.5 83t-20.5 111v310h86v-299q0 -77 39 -118.5t102 -41.5q66 0 105.5 44.5t39.5 115.5v299h87v-527zM348 641.5q-16 16.5 -16 39.5t16 39.5t40 16.5t40.5 -16.5t16.5 -39.5t-16.5 -39.5t-40.5 -16.5
t-40 16.5zM152 641.5q-16 16.5 -16 39.5t16 39.5t40 16.5t40.5 -16.5t16.5 -39.5t-16.5 -39.5t-40.5 -16.5t-40 16.5z" />
    <glyph glyph-name="uni1EE5" unicode="&#x1ee5;" horiz-adv-x="602" 
d="M534 0h-87v100h-6q-21 -46 -64.5 -77.5t-106.5 -31.5q-66 0 -110 32t-64.5 83t-20.5 111v310h86v-299q0 -77 39 -118.5t102 -41.5q66 0 105.5 44.5t39.5 115.5v299h87v-527zM251 -206.5q-16 16.5 -16 39.5t16 39.5t40 16.5t40 -16.5t16 -39.5t-16 -39.5t-40 -16.5
t-40 16.5z" />
    <glyph glyph-name="ugrave" unicode="&#xf9;" horiz-adv-x="602" 
d="M534 0h-87v100h-6q-21 -46 -64.5 -77.5t-106.5 -31.5q-66 0 -110 32t-64.5 83t-20.5 111v310h86v-299q0 -77 39 -118.5t102 -41.5q66 0 105.5 44.5t39.5 115.5v299h87v-527zM131 777h91l99 -179h-70z" />
    <glyph glyph-name="uni1EE7" unicode="&#x1ee7;" horiz-adv-x="602" 
d="M534 0h-87v100h-6q-21 -46 -64.5 -77.5t-106.5 -31.5q-66 0 -110 32t-64.5 83t-20.5 111v310h86v-299q0 -77 39 -118.5t102 -41.5q66 0 105.5 44.5t39.5 115.5v299h87v-527zM264 614q7 7 25 20q23 17 33.5 29t10.5 30q0 16 -10 27t-32 11q-19 0 -30 -9t-13 -23h-66
q5 35 31.5 59.5t76.5 24.5t77.5 -24t27.5 -62q0 -25 -11.5 -41t-32.5 -31q-22 -16 -25 -27h-72q3 9 10 16z" />
    <glyph glyph-name="uhorn" unicode="&#x1b0;" horiz-adv-x="608" 
d="M643 619v-36q0 -56 -30 -79t-74 -23h-5v-481h-87v100h-6q-21 -46 -64.5 -77.5t-106.5 -31.5q-66 0 -110 32t-64.5 83t-20.5 111v310h86v-299q0 -77 39 -118.5t102 -41.5q66 0 105.5 44.5t39.5 115.5v299h74q29 0 41.5 12t12.5 53v27h68z" />
    <glyph glyph-name="uni1EE9" unicode="&#x1ee9;" horiz-adv-x="608" 
d="M643 619v-36q0 -56 -30 -79t-74 -23h-5v-481h-87v100h-6q-21 -46 -64.5 -77.5t-106.5 -31.5q-66 0 -110 32t-64.5 83t-20.5 111v310h86v-299q0 -77 39 -118.5t102 -41.5q66 0 105.5 44.5t39.5 115.5v299h74q29 0 41.5 12t12.5 53v27h68zM257 598l98 179h92l-121 -179h-69
z" />
    <glyph glyph-name="uni1EF1" unicode="&#x1ef1;" horiz-adv-x="608" 
d="M643 619v-36q0 -56 -30 -79t-74 -23h-5v-481h-87v100h-6q-21 -46 -64.5 -77.5t-106.5 -31.5q-66 0 -110 32t-64.5 83t-20.5 111v310h86v-299q0 -77 39 -118.5t102 -41.5q66 0 105.5 44.5t39.5 115.5v299h74q29 0 41.5 12t12.5 53v27h68zM251 -206.5q-16 16.5 -16 39.5
t16 39.5t40 16.5t40 -16.5t16 -39.5t-16 -39.5t-40 -16.5t-40 16.5z" />
    <glyph glyph-name="uni1EEB" unicode="&#x1eeb;" horiz-adv-x="608" 
d="M643 619v-36q0 -56 -30 -79t-74 -23h-5v-481h-87v100h-6q-21 -46 -64.5 -77.5t-106.5 -31.5q-66 0 -110 32t-64.5 83t-20.5 111v310h86v-299q0 -77 39 -118.5t102 -41.5q66 0 105.5 44.5t39.5 115.5v299h74q29 0 41.5 12t12.5 53v27h68zM131 777h91l99 -179h-70z" />
    <glyph glyph-name="uni1EED" unicode="&#x1eed;" horiz-adv-x="608" 
d="M643 619v-36q0 -56 -30 -79t-74 -23h-5v-481h-87v100h-6q-21 -46 -64.5 -77.5t-106.5 -31.5q-66 0 -110 32t-64.5 83t-20.5 111v310h86v-299q0 -77 39 -118.5t102 -41.5q66 0 105.5 44.5t39.5 115.5v299h74q29 0 41.5 12t12.5 53v27h68zM264 614q7 7 25 20q23 17 33.5 29
t10.5 30q0 16 -10 27t-32 11q-19 0 -30 -9t-13 -23h-66q5 35 31.5 59.5t76.5 24.5t77.5 -24t27.5 -62q0 -25 -11.5 -41t-32.5 -31q-22 -16 -25 -27h-72q3 9 10 16z" />
    <glyph glyph-name="uni1EEF" unicode="&#x1eef;" horiz-adv-x="604" 
d="M180.5 698q20.5 33 66.5 33q19 0 34.5 -7.5t36.5 -22.5q15 -11 25 -16.5t20 -5.5q18 0 26 15t6 37h52q3 -43 -17 -76.5t-67 -33.5q-19 0 -34.5 7.5t-36.5 22.5q-16 11 -25.5 16t-19.5 5q-35 0 -33 -51h-52q-2 44 18.5 77zM643 619v-36q0 -56 -30 -79t-74 -23h-5v-481h-87
v100h-6q-21 -46 -64.5 -77.5t-106.5 -31.5q-66 0 -110 32t-64.5 83t-20.5 111v310h86v-299q0 -77 39 -118.5t102 -41.5q66 0 105.5 44.5t39.5 115.5v299h74q29 0 41.5 12t12.5 53v27h68z" />
    <glyph glyph-name="umacron" unicode="&#x16b;" horiz-adv-x="602" 
d="M534 0h-87v100h-6q-21 -46 -64.5 -77.5t-106.5 -31.5q-66 0 -110 32t-64.5 83t-20.5 111v310h86v-299q0 -77 39 -118.5t102 -41.5q66 0 105.5 44.5t39.5 115.5v299h87v-527zM139 671h300v-45h-300v45z" />
    <glyph glyph-name="uogonek" unicode="&#x173;" horiz-adv-x="602" 
d="M556 -106v-50q-24 -6 -50 -6q-49 0 -77 24t-28 61q0 49 46 85v92h-6q-21 -46 -64.5 -77.5t-106.5 -31.5q-66 0 -110 32t-64.5 83t-20.5 111v310h86v-299q0 -77 39 -118.5t102 -41.5q66 0 105.5 44.5t39.5 115.5v299h87v-527h-16q-26 -16 -40.5 -31t-14.5 -38
q0 -18 13 -30t41 -12q14 0 39 5z" />
    <glyph glyph-name="uring" unicode="&#x16f;" horiz-adv-x="602" 
d="M534 0h-87v100h-6q-21 -46 -64.5 -77.5t-106.5 -31.5q-66 0 -110 32t-64.5 83t-20.5 111v310h86v-299q0 -77 39 -118.5t102 -41.5q66 0 105.5 44.5t39.5 115.5v299h87v-527zM226.5 638q-25.5 26 -25.5 62t25.5 61.5t61.5 25.5t62 -25.5t26 -61.5t-26 -62t-62 -26
t-61.5 26zM321 667q14 14 14 33q0 20 -14 33.5t-33 13.5q-20 0 -33.5 -13.5t-13.5 -33.5q0 -19 13.5 -33t33.5 -14q19 0 33 14z" />
    <glyph glyph-name="utilde" unicode="&#x169;" horiz-adv-x="602" 
d="M534 0h-87v100h-6q-21 -46 -64.5 -77.5t-106.5 -31.5q-66 0 -110 32t-64.5 83t-20.5 111v310h86v-299q0 -77 39 -118.5t102 -41.5q66 0 105.5 44.5t39.5 115.5v299h87v-527zM164.5 698q20.5 33 66.5 33q19 0 34.5 -7.5t36.5 -22.5q15 -11 25 -16.5t20 -5.5q18 0 26 15
t6 37h52q3 -43 -17 -76.5t-67 -33.5q-19 0 -34.5 7.5t-36.5 22.5q-16 11 -25.5 16t-19.5 5q-35 0 -33 -51h-52q-2 44 18.5 77z" />
    <glyph glyph-name="v" unicode="v" horiz-adv-x="553" 
d="M32 527h84l158 -436h5l158 436h84l-192 -527h-106z" />
    <glyph glyph-name="w" unicode="w" horiz-adv-x="817" 
d="M33 527h82l117 -433h5l133 433h78l135 -433h5l115 433h82l-145 -527h-110l-117 385h-7l-117 -385h-110z" />
    <glyph glyph-name="wacute" unicode="&#x1e83;" horiz-adv-x="817" 
d="M33 527h82l117 -433h5l133 433h78l135 -433h5l115 433h82l-145 -527h-110l-117 385h-7l-117 -385h-110zM378 598l98 179h92l-121 -179h-69z" />
    <glyph glyph-name="wcircumflex" unicode="&#x175;" horiz-adv-x="817" 
d="M33 527h82l117 -433h5l133 433h78l135 -433h5l115 433h82l-145 -527h-110l-117 385h-7l-117 -385h-110zM372 739h75l131 -146h-86l-81 90h-4l-81 -90h-85z" />
    <glyph glyph-name="wdieresis" unicode="&#x1e85;" horiz-adv-x="817" 
d="M33 527h82l117 -433h5l133 433h78l135 -433h5l115 433h82l-145 -527h-110l-117 385h-7l-117 -385h-110zM469 641.5q-16 16.5 -16 39.5t16 39.5t40 16.5t40.5 -16.5t16.5 -39.5t-16.5 -39.5t-40.5 -16.5t-40 16.5zM273 641.5q-16 16.5 -16 39.5t16 39.5t40 16.5
t40.5 -16.5t16.5 -39.5t-16.5 -39.5t-40.5 -16.5t-40 16.5z" />
    <glyph glyph-name="wgrave" unicode="&#x1e81;" horiz-adv-x="817" 
d="M33 527h82l117 -433h5l133 433h78l135 -433h5l115 433h82l-145 -527h-110l-117 385h-7l-117 -385h-110zM252 777h91l99 -179h-70z" />
    <glyph glyph-name="x" unicode="x" horiz-adv-x="555" 
d="M208 264l-174 263h97l135 -214h3l134 214h97l-174 -263l173 -264h-97l-133 212h-3l-134 -212h-98z" />
    <glyph glyph-name="y" unicode="y" horiz-adv-x="537" 
d="M239.5 -135.5q-14.5 -24.5 -47.5 -46.5t-86 -22q-28 0 -60 8v64q24 -4 42 -4q33 0 53 12.5t31.5 32.5t27.5 58l24 59l-195 501h90l147 -406h6l154 406h90l-246 -600q-16 -38 -30.5 -62.5z" />
    <glyph glyph-name="yacute" unicode="&#xfd;" horiz-adv-x="537" 
d="M239.5 -135.5q-14.5 -24.5 -47.5 -46.5t-86 -22q-28 0 -60 8v64q24 -4 42 -4q33 0 53 12.5t31.5 32.5t27.5 58l24 59l-195 501h90l147 -406h6l154 406h90l-246 -600q-16 -38 -30.5 -62.5zM237 598l98 179h92l-121 -179h-69z" />
    <glyph glyph-name="ycircumflex" unicode="&#x177;" horiz-adv-x="537" 
d="M239.5 -135.5q-14.5 -24.5 -47.5 -46.5t-86 -22q-28 0 -60 8v64q24 -4 42 -4q33 0 53 12.5t31.5 32.5t27.5 58l24 59l-195 501h90l147 -406h6l154 406h90l-246 -600q-16 -38 -30.5 -62.5zM232 739h75l131 -146h-86l-81 90h-4l-81 -90h-85z" />
    <glyph glyph-name="ydieresis" unicode="&#xff;" horiz-adv-x="537" 
d="M239.5 -135.5q-14.5 -24.5 -47.5 -46.5t-86 -22q-28 0 -60 8v64q24 -4 42 -4q33 0 53 12.5t31.5 32.5t27.5 58l24 59l-195 501h90l147 -406h6l154 406h90l-246 -600q-16 -38 -30.5 -62.5zM328 641.5q-16 16.5 -16 39.5t16 39.5t40 16.5t40.5 -16.5t16.5 -39.5
t-16.5 -39.5t-40.5 -16.5t-40 16.5zM132 641.5q-16 16.5 -16 39.5t16 39.5t40 16.5t40.5 -16.5t16.5 -39.5t-16.5 -39.5t-40.5 -16.5t-40 16.5z" />
    <glyph glyph-name="uni1EF5" unicode="&#x1ef5;" horiz-adv-x="537" 
d="M239.5 -135.5q-14.5 -24.5 -47.5 -46.5t-86 -22q-28 0 -60 8v64q24 -4 42 -4q33 0 53 12.5t31.5 32.5t27.5 58l24 59l-195 501h90l147 -406h6l154 406h90l-246 -600q-16 -38 -30.5 -62.5zM376 -206.5q-16 16.5 -16 39.5t16 39.5t40 16.5t40 -16.5t16 -39.5t-16 -39.5
t-40 -16.5t-40 16.5z" />
    <glyph glyph-name="ygrave" unicode="&#x1ef3;" horiz-adv-x="537" 
d="M239.5 -135.5q-14.5 -24.5 -47.5 -46.5t-86 -22q-28 0 -60 8v64q24 -4 42 -4q33 0 53 12.5t31.5 32.5t27.5 58l24 59l-195 501h90l147 -406h6l154 406h90l-246 -600q-16 -38 -30.5 -62.5zM111 777h91l99 -179h-70z" />
    <glyph glyph-name="uni1EF7" unicode="&#x1ef7;" horiz-adv-x="537" 
d="M239.5 -135.5q-14.5 -24.5 -47.5 -46.5t-86 -22q-28 0 -60 8v64q24 -4 42 -4q33 0 53 12.5t31.5 32.5t27.5 58l24 59l-195 501h90l147 -406h6l154 406h90l-246 -600q-16 -38 -30.5 -62.5zM244 614q7 7 25 20q23 17 33.5 29t10.5 30q0 16 -10 27t-32 11q-19 0 -30 -9
t-13 -23h-66q5 35 31.5 59.5t76.5 24.5t77.5 -24t27.5 -62q0 -25 -11.5 -41t-32.5 -31q-22 -16 -25 -27h-72q3 9 10 16z" />
    <glyph glyph-name="uni1EF9" unicode="&#x1ef9;" horiz-adv-x="537" 
d="M239.5 -135.5q-14.5 -24.5 -47.5 -46.5t-86 -22q-28 0 -60 8v64q24 -4 42 -4q33 0 53 12.5t31.5 32.5t27.5 58l24 59l-195 501h90l147 -406h6l154 406h90l-246 -600q-16 -38 -30.5 -62.5zM144.5 698q20.5 33 66.5 33q19 0 34.5 -7.5t36.5 -22.5q15 -11 25 -16.5t20 -5.5
q18 0 26 15t6 37h52q3 -43 -17 -76.5t-67 -33.5q-19 0 -34.5 7.5t-36.5 22.5q-16 11 -25.5 16t-19.5 5q-35 0 -33 -51h-52q-2 44 18.5 77z" />
    <glyph glyph-name="z" unicode="z" horiz-adv-x="499" 
d="M52 70l306 384v2h-289v72h386v-70l-307 -384v-2h307v-72h-403v70z" />
    <glyph glyph-name="zacute" unicode="&#x17a;" horiz-adv-x="499" 
d="M52 70l306 384v2h-289v72h386v-70l-307 -384v-2h307v-72h-403v70zM224 598l98 179h92l-121 -179h-69z" />
    <glyph glyph-name="zcaron" unicode="&#x17e;" horiz-adv-x="499" 
d="M52 70l306 384v2h-289v72h386v-70l-307 -384v-2h307v-72h-403v70zM173 739l80 -89h4l82 89h86l-132 -146h-74l-132 146h86z" />
    <glyph glyph-name="zdotaccent" unicode="&#x17c;" horiz-adv-x="499" 
d="M52 70l306 384v2h-289v72h386v-70l-307 -384v-2h307v-72h-403v70zM214 641.5q-16 16.5 -16 39.5t16 39.5t40 16.5t40.5 -16.5t16.5 -39.5t-16.5 -39.5t-40.5 -16.5t-40 16.5z" />
    <glyph glyph-name="a.ss01" horiz-adv-x="562" 
d="M97 35.5q-49 42.5 -49 113.5q0 85 62 117.5t139 32.5h161v48q0 48 -28.5 87t-103.5 39q-64 0 -96.5 -31t-32.5 -82v-2h-82v2q0 82 56.5 131.5t155.5 49.5q108 0 161.5 -54t53.5 -139v-348h-85v89h-8q-15 -30 -57 -63t-118 -33q-80 0 -129 42.5zM335 80.5q36 19.5 55 51
t19 65.5v44h-152q-50 0 -86.5 -15.5t-36.5 -69.5q0 -45 31.5 -70t85.5 -25q48 0 84 19.5z" />
    <glyph glyph-name="aacute.ss01" horiz-adv-x="562" 
d="M97 35.5q-49 42.5 -49 113.5q0 85 62 117.5t139 32.5h161v48q0 48 -28.5 87t-103.5 39q-64 0 -96.5 -31t-32.5 -82v-2h-82v2q0 82 56.5 131.5t155.5 49.5q108 0 161.5 -54t53.5 -139v-348h-85v89h-8q-15 -30 -57 -63t-118 -33q-80 0 -129 42.5zM335 80.5q36 19.5 55 51
t19 65.5v44h-152q-50 0 -86.5 -15.5t-36.5 -69.5q0 -45 31.5 -70t85.5 -25q48 0 84 19.5zM253 609l98 179h92l-121 -179h-69z" />
    <glyph glyph-name="abreve.ss01" horiz-adv-x="562" 
d="M97 35.5q-49 42.5 -49 113.5q0 85 62 117.5t139 32.5h161v48q0 48 -28.5 87t-103.5 39q-64 0 -96.5 -31t-32.5 -82v-2h-82v2q0 82 56.5 131.5t155.5 49.5q108 0 161.5 -54t53.5 -139v-348h-85v89h-8q-15 -30 -57 -63t-118 -33q-80 0 -129 42.5zM335 80.5q36 19.5 55 51
t19 65.5v44h-152q-50 0 -86.5 -15.5t-36.5 -69.5q0 -45 31.5 -70t85.5 -25q48 0 84 19.5zM185.5 644.5q-40.5 25.5 -70.5 79.5h75q29 -52 95 -52q65 0 94 52h75q-30 -53 -70.5 -79t-98.5 -26q-59 0 -99.5 25.5z" />
    <glyph glyph-name="uni1EAF.ss01" horiz-adv-x="562" 
d="M97 35.5q-49 42.5 -49 113.5q0 85 62 117.5t139 32.5h161v48q0 48 -28.5 87t-103.5 39q-64 0 -96.5 -31t-32.5 -82v-2h-82v2q0 82 56.5 131.5t155.5 49.5q108 0 161.5 -54t53.5 -139v-348h-85v89h-8q-15 -30 -57 -63t-118 -33q-80 0 -129 42.5zM335 80.5q36 19.5 55 51
t19 65.5v44h-152q-50 0 -86.5 -15.5t-36.5 -69.5q0 -45 31.5 -70t85.5 -25q48 0 84 19.5zM185.5 644.5q-40.5 25.5 -70.5 79.5h75q29 -52 95 -52q65 0 94 52h75q-30 -53 -70.5 -79t-98.5 -26q-59 0 -99.5 25.5zM253 751l98 179h92l-121 -179h-69z" />
    <glyph glyph-name="uni1EB7.ss01" horiz-adv-x="562" 
d="M97 35.5q-49 42.5 -49 113.5q0 85 62 117.5t139 32.5h161v48q0 48 -28.5 87t-103.5 39q-64 0 -96.5 -31t-32.5 -82v-2h-82v2q0 82 56.5 131.5t155.5 49.5q108 0 161.5 -54t53.5 -139v-348h-85v89h-8q-15 -30 -57 -63t-118 -33q-80 0 -129 42.5zM335 80.5q36 19.5 55 51
t19 65.5v44h-152q-50 0 -86.5 -15.5t-36.5 -69.5q0 -45 31.5 -70t85.5 -25q48 0 84 19.5zM185.5 644.5q-40.5 25.5 -70.5 79.5h75q29 -52 95 -52q65 0 94 52h75q-30 -53 -70.5 -79t-98.5 -26q-59 0 -99.5 25.5zM245 -206.5q-16 16.5 -16 39.5t16 39.5t40 16.5t40 -16.5
t16 -39.5t-16 -39.5t-40 -16.5t-40 16.5z" />
    <glyph glyph-name="uni1EB1.ss01" horiz-adv-x="562" 
d="M97 35.5q-49 42.5 -49 113.5q0 85 62 117.5t139 32.5h161v48q0 48 -28.5 87t-103.5 39q-64 0 -96.5 -31t-32.5 -82v-2h-82v2q0 82 56.5 131.5t155.5 49.5q108 0 161.5 -54t53.5 -139v-348h-85v89h-8q-15 -30 -57 -63t-118 -33q-80 0 -129 42.5zM335 80.5q36 19.5 55 51
t19 65.5v44h-152q-50 0 -86.5 -15.5t-36.5 -69.5q0 -45 31.5 -70t85.5 -25q48 0 84 19.5zM188.5 644.5q-40.5 25.5 -70.5 79.5h75q29 -52 95 -52q65 0 94 52h75q-30 -53 -70.5 -79t-98.5 -26q-59 0 -99.5 25.5zM130 930h91l99 -179h-70z" />
    <glyph glyph-name="uni1EB3.ss01" horiz-adv-x="562" 
d="M97 35.5q-49 42.5 -49 113.5q0 85 62 117.5t139 32.5h161v48q0 48 -28.5 87t-103.5 39q-64 0 -96.5 -31t-32.5 -82v-2h-82v2q0 82 56.5 131.5t155.5 49.5q108 0 161.5 -54t53.5 -139v-348h-85v89h-8q-15 -30 -57 -63t-118 -33q-80 0 -129 42.5zM335 80.5q36 19.5 55 51
t19 65.5v44h-152q-50 0 -86.5 -15.5t-36.5 -69.5q0 -45 31.5 -70t85.5 -25q48 0 84 19.5zM185.5 644.5q-40.5 25.5 -70.5 79.5h75q29 -52 95 -52q65 0 94 52h75q-30 -53 -70.5 -79t-98.5 -26q-59 0 -99.5 25.5zM259 767q7 7 25 20q23 17 33.5 29t10.5 30q0 16 -10 27t-32 11
q-19 0 -30 -9t-13 -23h-66q5 35 31.5 59.5t76.5 24.5t77.5 -24t27.5 -62q0 -25 -11.5 -41t-32.5 -31q-22 -16 -25 -27h-72q3 9 10 16z" />
    <glyph glyph-name="uni1EB5.ss01" horiz-adv-x="562" 
d="M97 35.5q-49 42.5 -49 113.5q0 85 62 117.5t139 32.5h161v48q0 48 -28.5 87t-103.5 39q-64 0 -96.5 -31t-32.5 -82v-2h-82v2q0 82 56.5 131.5t155.5 49.5q108 0 161.5 -54t53.5 -139v-348h-85v89h-8q-15 -30 -57 -63t-118 -33q-80 0 -129 42.5zM335 80.5q36 19.5 55 51
t19 65.5v44h-152q-50 0 -86.5 -15.5t-36.5 -69.5q0 -45 31.5 -70t85.5 -25q48 0 84 19.5zM184.5 644.5q-40.5 25.5 -70.5 79.5h75q29 -52 95 -52q65 0 94 52h75q-30 -53 -70.5 -79t-98.5 -26q-59 0 -99.5 25.5zM159.5 851q20.5 33 66.5 33q19 0 34.5 -7.5t36.5 -22.5
q15 -11 25 -16.5t20 -5.5q18 0 26 15t6 37h52q3 -43 -17 -76.5t-67 -33.5q-19 0 -34.5 7.5t-36.5 22.5q-16 11 -25.5 16t-19.5 5q-35 0 -33 -51h-52q-2 44 18.5 77z" />
    <glyph glyph-name="acircumflex.ss01" horiz-adv-x="562" 
d="M97 35.5q-49 42.5 -49 113.5q0 85 62 117.5t139 32.5h161v48q0 48 -28.5 87t-103.5 39q-64 0 -96.5 -31t-32.5 -82v-2h-82v2q0 82 56.5 131.5t155.5 49.5q108 0 161.5 -54t53.5 -139v-348h-85v89h-8q-15 -30 -57 -63t-118 -33q-80 0 -129 42.5zM335 80.5q36 19.5 55 51
t19 65.5v44h-152q-50 0 -86.5 -15.5t-36.5 -69.5q0 -45 31.5 -70t85.5 -25q48 0 84 19.5zM247 750h75l131 -146h-86l-81 90h-4l-81 -90h-85z" />
    <glyph glyph-name="uni1EA5.ss01" horiz-adv-x="562" 
d="M97 35.5q-49 42.5 -49 113.5q0 85 62 117.5t139 32.5h161v48q0 48 -28.5 87t-103.5 39q-64 0 -96.5 -31t-32.5 -82v-2h-82v2q0 82 56.5 131.5t155.5 49.5q108 0 161.5 -54t53.5 -139v-348h-85v89h-8q-15 -30 -57 -63t-118 -33q-80 0 -129 42.5zM335 80.5q36 19.5 55 51
t19 65.5v44h-152q-50 0 -86.5 -15.5t-36.5 -69.5q0 -45 31.5 -70t85.5 -25q48 0 84 19.5zM247 750h75l131 -146h-86l-81 90h-4l-81 -90h-85zM405 729l98 179h92l-121 -179h-69z" />
    <glyph glyph-name="uni1EAD.ss01" horiz-adv-x="562" 
d="M97 35.5q-49 42.5 -49 113.5q0 85 62 117.5t139 32.5h161v48q0 48 -28.5 87t-103.5 39q-64 0 -96.5 -31t-32.5 -82v-2h-82v2q0 82 56.5 131.5t155.5 49.5q108 0 161.5 -54t53.5 -139v-348h-85v89h-8q-15 -30 -57 -63t-118 -33q-80 0 -129 42.5zM335 80.5q36 19.5 55 51
t19 65.5v44h-152q-50 0 -86.5 -15.5t-36.5 -69.5q0 -45 31.5 -70t85.5 -25q48 0 84 19.5zM247 750h75l131 -146h-86l-81 90h-4l-81 -90h-85zM245 -206.5q-16 16.5 -16 39.5t16 39.5t40 16.5t40 -16.5t16 -39.5t-16 -39.5t-40 -16.5t-40 16.5z" />
    <glyph glyph-name="uni1EA7.ss01" horiz-adv-x="562" 
d="M97 35.5q-49 42.5 -49 113.5q0 85 62 117.5t139 32.5h161v48q0 48 -28.5 87t-103.5 39q-64 0 -96.5 -31t-32.5 -82v-2h-82v2q0 82 56.5 131.5t155.5 49.5q108 0 161.5 -54t53.5 -139v-348h-85v89h-8q-15 -30 -57 -63t-118 -33q-80 0 -129 42.5zM335 80.5q36 19.5 55 51
t19 65.5v44h-152q-50 0 -86.5 -15.5t-36.5 -69.5q0 -45 31.5 -70t85.5 -25q48 0 84 19.5zM247 750h75l131 -146h-86l-81 90h-4l-81 -90h-85zM287 908h91l99 -179h-70z" />
    <glyph glyph-name="uni1EA9.ss01" horiz-adv-x="562" 
d="M97 35.5q-49 42.5 -49 113.5q0 85 62 117.5t139 32.5h161v48q0 48 -28.5 87t-103.5 39q-64 0 -96.5 -31t-32.5 -82v-2h-82v2q0 82 56.5 131.5t155.5 49.5q108 0 161.5 -54t53.5 -139v-348h-85v89h-8q-15 -30 -57 -63t-118 -33q-80 0 -129 42.5zM335 80.5q36 19.5 55 51
t19 65.5v44h-152q-50 0 -86.5 -15.5t-36.5 -69.5q0 -45 31.5 -70t85.5 -25q48 0 84 19.5zM247 750h75l131 -146h-86l-81 90h-4l-81 -90h-85zM413 750q7 7 25 20q23 17 33.5 29t10.5 30q0 16 -10 27t-32 11q-19 0 -30 -9t-13 -23h-66q5 35 31.5 59.5t76.5 24.5t77.5 -24
t27.5 -62q0 -25 -11.5 -41t-32.5 -31q-22 -16 -25 -27h-72q3 9 10 16z" />
    <glyph glyph-name="uni1EAB.ss01" horiz-adv-x="562" 
d="M97 35.5q-49 42.5 -49 113.5q0 85 62 117.5t139 32.5h161v48q0 48 -28.5 87t-103.5 39q-64 0 -96.5 -31t-32.5 -82v-2h-82v2q0 82 56.5 131.5t155.5 49.5q108 0 161.5 -54t53.5 -139v-348h-85v89h-8q-15 -30 -57 -63t-118 -33q-80 0 -129 42.5zM335 80.5q36 19.5 55 51
t19 65.5v44h-152q-50 0 -86.5 -15.5t-36.5 -69.5q0 -45 31.5 -70t85.5 -25q48 0 84 19.5zM247 750h75l131 -146h-86l-81 90h-4l-81 -90h-85zM161.5 865q20.5 33 66.5 33q19 0 34.5 -7.5t36.5 -22.5q15 -11 25 -16.5t20 -5.5q18 0 26 15t6 37h52q3 -43 -17 -76.5t-67 -33.5
q-19 0 -34.5 7.5t-36.5 22.5q-16 11 -25.5 16t-19.5 5q-35 0 -33 -51h-52q-2 44 18.5 77z" />
    <glyph glyph-name="adieresis.ss01" horiz-adv-x="562" 
d="M97 35.5q-49 42.5 -49 113.5q0 85 62 117.5t139 32.5h161v48q0 48 -28.5 87t-103.5 39q-64 0 -96.5 -31t-32.5 -82v-2h-82v2q0 82 56.5 131.5t155.5 49.5q108 0 161.5 -54t53.5 -139v-348h-85v89h-8q-15 -30 -57 -63t-118 -33q-80 0 -129 42.5zM335 80.5q36 19.5 55 51
t19 65.5v44h-152q-50 0 -86.5 -15.5t-36.5 -69.5q0 -45 31.5 -70t85.5 -25q48 0 84 19.5zM344 652.5q-16 16.5 -16 39.5t16 39.5t40 16.5t40.5 -16.5t16.5 -39.5t-16.5 -39.5t-40.5 -16.5t-40 16.5zM148 652.5q-16 16.5 -16 39.5t16 39.5t40 16.5t40.5 -16.5t16.5 -39.5
t-16.5 -39.5t-40.5 -16.5t-40 16.5z" />
    <glyph glyph-name="uni1EA1.ss01" horiz-adv-x="562" 
d="M97 35.5q-49 42.5 -49 113.5q0 85 62 117.5t139 32.5h161v48q0 48 -28.5 87t-103.5 39q-64 0 -96.5 -31t-32.5 -82v-2h-82v2q0 82 56.5 131.5t155.5 49.5q108 0 161.5 -54t53.5 -139v-348h-85v89h-8q-15 -30 -57 -63t-118 -33q-80 0 -129 42.5zM335 80.5q36 19.5 55 51
t19 65.5v44h-152q-50 0 -86.5 -15.5t-36.5 -69.5q0 -45 31.5 -70t85.5 -25q48 0 84 19.5zM245 -206.5q-16 16.5 -16 39.5t16 39.5t40 16.5t40 -16.5t16 -39.5t-16 -39.5t-40 -16.5t-40 16.5z" />
    <glyph glyph-name="agrave.ss01" horiz-adv-x="562" 
d="M97 35.5q-49 42.5 -49 113.5q0 85 62 117.5t139 32.5h161v48q0 48 -28.5 87t-103.5 39q-64 0 -96.5 -31t-32.5 -82v-2h-82v2q0 82 56.5 131.5t155.5 49.5q108 0 161.5 -54t53.5 -139v-348h-85v89h-8q-15 -30 -57 -63t-118 -33q-80 0 -129 42.5zM335 80.5q36 19.5 55 51
t19 65.5v44h-152q-50 0 -86.5 -15.5t-36.5 -69.5q0 -45 31.5 -70t85.5 -25q48 0 84 19.5zM127 788h91l99 -179h-70z" />
    <glyph glyph-name="uni1EA3.ss01" horiz-adv-x="562" 
d="M97 35.5q-49 42.5 -49 113.5q0 85 62 117.5t139 32.5h161v48q0 48 -28.5 87t-103.5 39q-64 0 -96.5 -31t-32.5 -82v-2h-82v2q0 82 56.5 131.5t155.5 49.5q108 0 161.5 -54t53.5 -139v-348h-85v89h-8q-15 -30 -57 -63t-118 -33q-80 0 -129 42.5zM335 80.5q36 19.5 55 51
t19 65.5v44h-152q-50 0 -86.5 -15.5t-36.5 -69.5q0 -45 31.5 -70t85.5 -25q48 0 84 19.5zM259 625q7 7 25 20q23 17 33.5 29t10.5 30q0 16 -10 27t-32 11q-19 0 -30 -9t-13 -23h-66q5 35 31.5 59.5t76.5 24.5t77.5 -24t27.5 -62q0 -25 -11.5 -41t-32.5 -31q-22 -16 -25 -27
h-72q3 9 10 16z" />
    <glyph glyph-name="amacron.ss01" horiz-adv-x="562" 
d="M97 35.5q-49 42.5 -49 113.5q0 85 62 117.5t139 32.5h161v48q0 48 -28.5 87t-103.5 39q-64 0 -96.5 -31t-32.5 -82v-2h-82v2q0 82 56.5 131.5t155.5 49.5q108 0 161.5 -54t53.5 -139v-348h-85v89h-8q-15 -30 -57 -63t-118 -33q-80 0 -129 42.5zM335 80.5q36 19.5 55 51
t19 65.5v44h-152q-50 0 -86.5 -15.5t-36.5 -69.5q0 -45 31.5 -70t85.5 -25q48 0 84 19.5zM134 682h300v-45h-300v45z" />
    <glyph glyph-name="aring.ss01" horiz-adv-x="562" 
d="M97 35.5q-49 42.5 -49 113.5q0 85 62 117.5t139 32.5h161v48q0 48 -28.5 87t-103.5 39q-64 0 -96.5 -31t-32.5 -82v-2h-82v2q0 82 56.5 131.5t155.5 49.5q108 0 161.5 -54t53.5 -139v-348h-85v89h-8q-15 -30 -57 -63t-118 -33q-80 0 -129 42.5zM335 80.5q36 19.5 55 51
t19 65.5v44h-152q-50 0 -86.5 -15.5t-36.5 -69.5q0 -45 31.5 -70t85.5 -25q48 0 84 19.5zM222.5 649q-25.5 26 -25.5 62t25.5 61.5t61.5 25.5t62 -25.5t26 -61.5t-26 -62t-62 -26t-61.5 26zM317 678q14 14 14 33q0 20 -14 33.5t-33 13.5q-20 0 -33.5 -13.5t-13.5 -33.5
q0 -19 13.5 -33t33.5 -14q19 0 33 14z" />
    <glyph glyph-name="atilde.ss01" horiz-adv-x="562" 
d="M97 35.5q-49 42.5 -49 113.5q0 85 62 117.5t139 32.5h161v48q0 48 -28.5 87t-103.5 39q-64 0 -96.5 -31t-32.5 -82v-2h-82v2q0 82 56.5 131.5t155.5 49.5q108 0 161.5 -54t53.5 -139v-348h-85v89h-8q-15 -30 -57 -63t-118 -33q-80 0 -129 42.5zM335 80.5q36 19.5 55 51
t19 65.5v44h-152q-50 0 -86.5 -15.5t-36.5 -69.5q0 -45 31.5 -70t85.5 -25q48 0 84 19.5zM159.5 709q20.5 33 66.5 33q19 0 34.5 -7.5t36.5 -22.5q15 -11 25 -16.5t20 -5.5q18 0 26 15t6 37h52q3 -43 -17 -76.5t-67 -33.5q-19 0 -34.5 7.5t-36.5 22.5q-16 11 -25.5 16
t-19.5 5q-35 0 -33 -51h-52q-2 44 18.5 77z" />
    <glyph glyph-name="ae.ss01" horiz-adv-x="939" 
d="M492 242v-18q0 -67 42 -112.5t112 -45.5q62 0 100 32t48 87h84q-13 -82 -72 -137t-159 -55q-69 0 -122.5 30t-83.5 82q-28 -54 -82.5 -83t-121.5 -29q-82 0 -133.5 42t-51.5 115q0 86 68 118t157 32h130v40q0 45 -28 86.5t-103 41.5q-58 0 -90.5 -28t-40.5 -68h-82
q12 70 65.5 118t149.5 48q64 0 108.5 -22.5t70.5 -62.5q31 41 80 64.5t109 23.5q67 0 120 -29t84 -88.5t31 -148.5v-33h-389zM492 300h305v11q0 68 -41.5 113t-109.5 45q-71 0 -112.5 -44.5t-41.5 -113.5v-11zM406 242h-126q-58 0 -100.5 -16t-42.5 -73q0 -44 30.5 -68
t83.5 -24q48 0 83.5 19.5t53.5 51t18 65.5v45z" />
    <glyph glyph-name="b.ss01" horiz-adv-x="619" 
d="M235 26q-44 33 -67 80h-7v-106h-87v750h87v-319h7q22 45 65 77.5t113 32.5q64 0 115 -29.5t80 -82t29 -117.5v-90q0 -65 -28.5 -117t-79 -82t-113.5 -30q-70 0 -114 33zM438 113q44 46 44 118v72q0 71 -44 117.5t-116 46.5t-116 -46.5t-44 -117.5v-72q0 -71 44 -117.5
t116 -46.5t116 46z" />
    <glyph glyph-name="c.ss01" 
d="M166 24.5q-55 31.5 -85 86t-30 120.5v72q0 66 30 120.5t85 86t127 31.5q70 0 120 -28.5t77.5 -74.5t33.5 -101h-82q-8 58 -46 94t-103 36q-73 0 -115.5 -48.5t-42.5 -121.5v-61q0 -73 42.5 -121t115.5 -48q65 0 103 36t46 94h82q-6 -55 -33.5 -101t-77.5 -74.5
t-120 -28.5q-72 0 -127 31.5z" />
    <glyph glyph-name="cacute.ss01" 
d="M166 24.5q-55 31.5 -85 86t-30 120.5v72q0 66 30 120.5t85 86t127 31.5q70 0 120 -28.5t77.5 -74.5t33.5 -101h-82q-8 58 -46 94t-103 36q-73 0 -115.5 -48.5t-42.5 -121.5v-61q0 -73 42.5 -121t115.5 -48q65 0 103 36t46 94h82q-6 -55 -33.5 -101t-77.5 -74.5
t-120 -28.5q-72 0 -127 31.5zM261 598l98 179h92l-121 -179h-69z" />
    <glyph glyph-name="ccaron.ss01" 
d="M166 24.5q-55 31.5 -85 86t-30 120.5v72q0 66 30 120.5t85 86t127 31.5q70 0 120 -28.5t77.5 -74.5t33.5 -101h-82q-8 58 -46 94t-103 36q-73 0 -115.5 -48.5t-42.5 -121.5v-61q0 -73 42.5 -121t115.5 -48q65 0 103 36t46 94h82q-6 -55 -33.5 -101t-77.5 -74.5
t-120 -28.5q-72 0 -127 31.5zM210 739l80 -89h4l82 89h86l-132 -146h-74l-132 146h86z" />
    <glyph glyph-name="ccedilla.ss01" 
d="M396 103q38 36 46 94h82q-8 -79 -59.5 -136.5t-141.5 -66.5l-17 -48h26q48 0 72.5 -25t24.5 -63q0 -42 -30 -73t-88 -31q-32 0 -58 10l1 49q30 -7 58 -7q33 0 51 14.5t18 37.5q0 25 -18 34t-37 9h-83v3l28 90q-66 5 -116 37.5t-77 84.5t-27 115v72q0 66 30 120.5t85 86
t127 31.5q70 0 120 -28.5t77.5 -74.5t33.5 -101h-82q-8 58 -46 94t-103 36q-73 0 -115.5 -48.5t-42.5 -121.5v-61q0 -73 42.5 -121t115.5 -48q65 0 103 36z" />
    <glyph glyph-name="cdotaccent.ss01" 
d="M166 24.5q-55 31.5 -85 86t-30 120.5v72q0 66 30 120.5t85 86t127 31.5q70 0 120 -28.5t77.5 -74.5t33.5 -101h-82q-8 58 -46 94t-103 36q-73 0 -115.5 -48.5t-42.5 -121.5v-61q0 -73 42.5 -121t115.5 -48q65 0 103 36t46 94h82q-6 -55 -33.5 -101t-77.5 -74.5
t-120 -28.5q-72 0 -127 31.5zM252 641.5q-16 16.5 -16 39.5t16 39.5t40 16.5t40.5 -16.5t16.5 -39.5t-16.5 -39.5t-40.5 -16.5t-40 16.5z" />
    <glyph glyph-name="d.ss01" horiz-adv-x="619" 
d="M156.5 23q-50.5 30 -79 82t-28.5 117v90q0 65 29 117.5t80 82t115 29.5q70 0 113 -32.5t65 -77.5h7v319h87v-750h-87v106h-7q-23 -47 -67 -80t-114 -33q-63 0 -113.5 30zM413 113.5q44 46.5 44 117.5v72q0 71 -44 117.5t-116 46.5t-116 -46.5t-44 -117.5v-72
q0 -72 44 -118t116 -46t116 46.5z" />
    <glyph glyph-name="eth.ss01" horiz-adv-x="616" 
d="M166.5 25q-56.5 32 -87 86.5t-30.5 120.5v80q0 65 29 117.5t80.5 82t115.5 29.5q70 0 113 -32.5t64 -77.5h8v16q0 134 -74 206l-91 -53l-26 46l74 43q-32 20 -63.5 27.5t-51.5 7.5v66q36 1 88 -12t100 -47l92 53l26 -46l-76 -44q87 -89 87 -253v-200q0 -68 -30 -124.5
t-86 -90t-131 -33.5q-74 0 -130.5 32zM413 113.5q44 46.5 44 117.5v72q0 71 -44 117.5t-116 46.5t-116 -46.5t-44 -117.5v-72q0 -71 44.5 -117.5t115.5 -46.5q72 0 116 46.5z" />
    <glyph glyph-name="dcaron.ss01" horiz-adv-x="739" 
d="M156.5 23q-50.5 30 -79 82t-28.5 117v90q0 65 29 117.5t80 82t115 29.5q70 0 113 -32.5t65 -77.5h7v319h87v-750h-87v106h-7q-23 -47 -67 -80t-114 -33q-63 0 -113.5 30zM413 113.5q44 46.5 44 117.5v72q0 71 -44 117.5t-116 46.5t-116 -46.5t-44 -117.5v-72
q0 -72 44 -118t116 -46t116 46.5zM611 557q61 27 61 80q0 25 -8.5 31.5t-25.5 6.5q-50 0 -50 49q0 27 16.5 43t46.5 16q71 0 71 -77v-36q0 -62 -30.5 -98.5t-80.5 -51.5v37z" />
    <glyph glyph-name="dcroat.ss01" horiz-adv-x="622" 
d="M618 608h-73v-608h-87v106h-7q-23 -47 -67 -80t-114 -33q-63 0 -113.5 30t-79 82t-28.5 117v90q0 65 29 117.5t80 82t115 29.5q70 0 113 -32.5t65 -77.5h7v177h-153v60h153v82h87v-82h73v-60zM457 303q0 71 -44 117.5t-116 46.5t-116 -46.5t-44 -117.5v-72q0 -72 44 -118
t116 -46t116 46.5t44 117.5v72z" />
    <glyph glyph-name="e.ss01" horiz-adv-x="576" 
d="M164.5 24.5q-54.5 31.5 -84 86t-29.5 120.5v72q0 66 30 120.5t84 86t125 31.5q66 0 119.5 -29t84.5 -88.5t31 -148.5v-33h-390v-18q0 -43 19 -79.5t54 -57.5t82 -21q62 0 100 32t47 87h84q-13 -82 -72 -137t-159 -55q-71 0 -125.5 31.5zM440 303v12q0 68 -41 113t-109 45
q-70 0 -112 -45t-42 -113v-12h304z" />
    <glyph glyph-name="eacute.ss01" horiz-adv-x="576" 
d="M164.5 24.5q-54.5 31.5 -84 86t-29.5 120.5v72q0 66 30 120.5t84 86t125 31.5q66 0 119.5 -29t84.5 -88.5t31 -148.5v-33h-390v-18q0 -43 19 -79.5t54 -57.5t82 -21q62 0 100 32t47 87h84q-13 -82 -72 -137t-159 -55q-71 0 -125.5 31.5zM440 303v12q0 68 -41 113t-109 45
q-70 0 -112 -45t-42 -113v-12h304zM258 598l98 179h92l-121 -179h-69z" />
    <glyph glyph-name="ecaron.ss01" horiz-adv-x="576" 
d="M164.5 24.5q-54.5 31.5 -84 86t-29.5 120.5v72q0 66 30 120.5t84 86t125 31.5q66 0 119.5 -29t84.5 -88.5t31 -148.5v-33h-390v-18q0 -43 19 -79.5t54 -57.5t82 -21q62 0 100 32t47 87h84q-13 -82 -72 -137t-159 -55q-71 0 -125.5 31.5zM440 303v12q0 68 -41 113t-109 45
q-70 0 -112 -45t-42 -113v-12h304zM207 739l80 -89h4l82 89h86l-132 -146h-74l-132 146h86z" />
    <glyph glyph-name="ecircumflex.ss01" horiz-adv-x="576" 
d="M164.5 24.5q-54.5 31.5 -84 86t-29.5 120.5v72q0 66 30 120.5t84 86t125 31.5q66 0 119.5 -29t84.5 -88.5t31 -148.5v-33h-390v-18q0 -43 19 -79.5t54 -57.5t82 -21q62 0 100 32t47 87h84q-13 -82 -72 -137t-159 -55q-71 0 -125.5 31.5zM440 303v12q0 68 -41 113t-109 45
q-70 0 -112 -45t-42 -113v-12h304zM253 739h75l131 -146h-86l-81 90h-4l-81 -90h-85z" />
    <glyph glyph-name="uni1EBF.ss01" horiz-adv-x="576" 
d="M164.5 24.5q-54.5 31.5 -84 86t-29.5 120.5v72q0 66 30 120.5t84 86t125 31.5q66 0 119.5 -29t84.5 -88.5t31 -148.5v-33h-390v-18q0 -43 19 -79.5t54 -57.5t82 -21q62 0 100 32t47 87h84q-13 -82 -72 -137t-159 -55q-71 0 -125.5 31.5zM440 303v12q0 68 -41 113t-109 45
q-70 0 -112 -45t-42 -113v-12h304zM253 739h75l131 -146h-86l-81 90h-4l-81 -90h-85zM411 718l98 179h92l-121 -179h-69z" />
    <glyph glyph-name="uni1EC7.ss01" horiz-adv-x="576" 
d="M164.5 24.5q-54.5 31.5 -84 86t-29.5 120.5v72q0 66 30 120.5t84 86t125 31.5q66 0 119.5 -29t84.5 -88.5t31 -148.5v-33h-390v-18q0 -43 19 -79.5t54 -57.5t82 -21q62 0 100 32t47 87h84q-13 -82 -72 -137t-159 -55q-71 0 -125.5 31.5zM440 303v12q0 68 -41 113t-109 45
q-70 0 -112 -45t-42 -113v-12h304zM251 -206.5q-16 16.5 -16 39.5t16 39.5t40 16.5t40 -16.5t16 -39.5t-16 -39.5t-40 -16.5t-40 16.5zM253 739h75l131 -146h-86l-81 90h-4l-81 -90h-85z" />
    <glyph glyph-name="uni1EC1.ss01" horiz-adv-x="576" 
d="M164.5 24.5q-54.5 31.5 -84 86t-29.5 120.5v72q0 66 30 120.5t84 86t125 31.5q66 0 119.5 -29t84.5 -88.5t31 -148.5v-33h-390v-18q0 -43 19 -79.5t54 -57.5t82 -21q62 0 100 32t47 87h84q-13 -82 -72 -137t-159 -55q-71 0 -125.5 31.5zM440 303v12q0 68 -41 113t-109 45
q-70 0 -112 -45t-42 -113v-12h304zM253 739h75l131 -146h-86l-81 90h-4l-81 -90h-85zM293 897h91l99 -179h-70z" />
    <glyph glyph-name="uni1EC3.ss01" horiz-adv-x="576" 
d="M164.5 24.5q-54.5 31.5 -84 86t-29.5 120.5v72q0 66 30 120.5t84 86t125 31.5q66 0 119.5 -29t84.5 -88.5t31 -148.5v-33h-390v-18q0 -43 19 -79.5t54 -57.5t82 -21q62 0 100 32t47 87h84q-13 -82 -72 -137t-159 -55q-71 0 -125.5 31.5zM440 303v12q0 68 -41 113t-109 45
q-70 0 -112 -45t-42 -113v-12h304zM253 739h75l131 -146h-86l-81 90h-4l-81 -90h-85zM419 739q7 7 25 20q23 17 33.5 29t10.5 30q0 16 -10 27t-32 11q-19 0 -30 -9t-13 -23h-66q5 35 31.5 59.5t76.5 24.5t77.5 -24t27.5 -62q0 -25 -11.5 -41t-32.5 -31q-22 -16 -25 -27h-72
q3 9 10 16z" />
    <glyph glyph-name="uni1EC5.ss01" horiz-adv-x="576" 
d="M164.5 24.5q-54.5 31.5 -84 86t-29.5 120.5v72q0 66 30 120.5t84 86t125 31.5q66 0 119.5 -29t84.5 -88.5t31 -148.5v-33h-390v-18q0 -43 19 -79.5t54 -57.5t82 -21q62 0 100 32t47 87h84q-13 -82 -72 -137t-159 -55q-71 0 -125.5 31.5zM440 303v12q0 68 -41 113t-109 45
q-70 0 -112 -45t-42 -113v-12h304zM253 739h75l131 -146h-86l-81 90h-4l-81 -90h-85zM167.5 854q20.5 33 66.5 33q19 0 34.5 -7.5t36.5 -22.5q15 -11 25 -16.5t20 -5.5q18 0 26 15t6 37h52q3 -43 -17 -76.5t-67 -33.5q-19 0 -34.5 7.5t-36.5 22.5q-16 11 -25.5 16t-19.5 5
q-35 0 -33 -51h-52q-2 44 18.5 77z" />
    <glyph glyph-name="edieresis.ss01" horiz-adv-x="576" 
d="M164.5 24.5q-54.5 31.5 -84 86t-29.5 120.5v72q0 66 30 120.5t84 86t125 31.5q66 0 119.5 -29t84.5 -88.5t31 -148.5v-33h-390v-18q0 -43 19 -79.5t54 -57.5t82 -21q62 0 100 32t47 87h84q-13 -82 -72 -137t-159 -55q-71 0 -125.5 31.5zM440 303v12q0 68 -41 113t-109 45
q-70 0 -112 -45t-42 -113v-12h304zM349 641.5q-16 16.5 -16 39.5t16 39.5t40 16.5t40.5 -16.5t16.5 -39.5t-16.5 -39.5t-40.5 -16.5t-40 16.5zM153 641.5q-16 16.5 -16 39.5t16 39.5t40 16.5t40.5 -16.5t16.5 -39.5t-16.5 -39.5t-40.5 -16.5t-40 16.5z" />
    <glyph glyph-name="edotaccent.ss01" horiz-adv-x="576" 
d="M164.5 24.5q-54.5 31.5 -84 86t-29.5 120.5v72q0 66 30 120.5t84 86t125 31.5q66 0 119.5 -29t84.5 -88.5t31 -148.5v-33h-390v-18q0 -43 19 -79.5t54 -57.5t82 -21q62 0 100 32t47 87h84q-13 -82 -72 -137t-159 -55q-71 0 -125.5 31.5zM440 303v12q0 68 -41 113t-109 45
q-70 0 -112 -45t-42 -113v-12h304zM249 641.5q-16 16.5 -16 39.5t16 39.5t40 16.5t40.5 -16.5t16.5 -39.5t-16.5 -39.5t-40.5 -16.5t-40 16.5z" />
    <glyph glyph-name="uni1EB9.ss01" horiz-adv-x="576" 
d="M164.5 24.5q-54.5 31.5 -84 86t-29.5 120.5v72q0 66 30 120.5t84 86t125 31.5q66 0 119.5 -29t84.5 -88.5t31 -148.5v-33h-390v-18q0 -43 19 -79.5t54 -57.5t82 -21q62 0 100 32t47 87h84q-13 -82 -72 -137t-159 -55q-71 0 -125.5 31.5zM440 303v12q0 68 -41 113t-109 45
q-70 0 -112 -45t-42 -113v-12h304zM251 -206.5q-16 16.5 -16 39.5t16 39.5t40 16.5t40 -16.5t16 -39.5t-16 -39.5t-40 -16.5t-40 16.5z" />
    <glyph glyph-name="egrave.ss01" horiz-adv-x="576" 
d="M164.5 24.5q-54.5 31.5 -84 86t-29.5 120.5v72q0 66 30 120.5t84 86t125 31.5q66 0 119.5 -29t84.5 -88.5t31 -148.5v-33h-390v-18q0 -43 19 -79.5t54 -57.5t82 -21q62 0 100 32t47 87h84q-13 -82 -72 -137t-159 -55q-71 0 -125.5 31.5zM440 303v12q0 68 -41 113t-109 45
q-70 0 -112 -45t-42 -113v-12h304zM132 777h91l99 -179h-70z" />
    <glyph glyph-name="uni1EBB.ss01" horiz-adv-x="576" 
d="M164.5 24.5q-54.5 31.5 -84 86t-29.5 120.5v72q0 66 30 120.5t84 86t125 31.5q66 0 119.5 -29t84.5 -88.5t31 -148.5v-33h-390v-18q0 -43 19 -79.5t54 -57.5t82 -21q62 0 100 32t47 87h84q-13 -82 -72 -137t-159 -55q-71 0 -125.5 31.5zM440 303v12q0 68 -41 113t-109 45
q-70 0 -112 -45t-42 -113v-12h304zM265 614q7 7 25 20q23 17 33.5 29t10.5 30q0 16 -10 27t-32 11q-19 0 -30 -9t-13 -23h-66q5 35 31.5 59.5t76.5 24.5t77.5 -24t27.5 -62q0 -25 -11.5 -41t-32.5 -31q-22 -16 -25 -27h-72q3 9 10 16z" />
    <glyph glyph-name="emacron.ss01" horiz-adv-x="576" 
d="M164.5 24.5q-54.5 31.5 -84 86t-29.5 120.5v72q0 66 30 120.5t84 86t125 31.5q66 0 119.5 -29t84.5 -88.5t31 -148.5v-33h-390v-18q0 -43 19 -79.5t54 -57.5t82 -21q62 0 100 32t47 87h84q-13 -82 -72 -137t-159 -55q-71 0 -125.5 31.5zM440 303v12q0 68 -41 113t-109 45
q-70 0 -112 -45t-42 -113v-12h304zM140 671h300v-45h-300v45z" />
    <glyph glyph-name="uni1EBD.ss01" horiz-adv-x="576" 
d="M164.5 24.5q-54.5 31.5 -84 86t-29.5 120.5v72q0 66 30 120.5t84 86t125 31.5q66 0 119.5 -29t84.5 -88.5t31 -148.5v-33h-390v-18q0 -43 19 -79.5t54 -57.5t82 -21q62 0 100 32t47 87h84q-13 -82 -72 -137t-159 -55q-71 0 -125.5 31.5zM440 303v12q0 68 -41 113t-109 45
q-70 0 -112 -45t-42 -113v-12h304zM165.5 698q20.5 33 66.5 33q19 0 34.5 -7.5t36.5 -22.5q15 -11 25 -16.5t20 -5.5q18 0 26 15t6 37h52q3 -43 -17 -76.5t-67 -33.5q-19 0 -34.5 7.5t-36.5 22.5q-16 11 -25.5 16t-19.5 5q-35 0 -33 -51h-52q-2 44 18.5 77z" />
    <glyph glyph-name="f.ss01" horiz-adv-x="373" 
d="M229.5 654.5q-16.5 -11.5 -20 -28t-3.5 -44.5v-55h125v-69h-125v-458h-86l-1 458h-72v69h72v69q0 142 145 142h67v-72h-50q-35 0 -51.5 -11.5z" />
    <glyph glyph-name="g.ss01" horiz-adv-x="622" 
d="M145.5 -168q-63.5 49 -78.5 130h86q13 -52 54.5 -81.5t102.5 -29.5q74 0 112 43.5t38 116.5l1 108h-7q-23 -47 -66 -79.5t-111 -32.5q-63 0 -113 29.5t-78 81.5t-28 117v77q0 65 28.5 117.5t78.5 82t113 29.5q70 0 112 -32.5t64 -77.5h7v96h86v-516q0 -54 -23.5 -106
t-77 -87t-138.5 -35q-99 0 -162.5 49zM417 129q42 48 42 120v48q0 73 -42 121.5t-115 48.5q-72 0 -114 -48.5t-42 -121.5v-48q0 -72 42 -120t114 -48q73 0 115 48z" />
    <glyph glyph-name="gbreve.ss01" horiz-adv-x="622" 
d="M145.5 -168q-63.5 49 -78.5 130h86q13 -52 54.5 -81.5t102.5 -29.5q74 0 112 43.5t38 116.5l1 108h-7q-23 -47 -66 -79.5t-111 -32.5q-63 0 -113 29.5t-78 81.5t-28 117v77q0 65 28.5 117.5t78.5 82t113 29.5q70 0 112 -32.5t64 -77.5h7v96h86v-516q0 -54 -23.5 -106
t-77 -87t-138.5 -35q-99 0 -162.5 49zM417 129q42 48 42 120v48q0 73 -42 121.5t-115 48.5q-72 0 -114 -48.5t-42 -121.5v-48q0 -72 42 -120t114 -48q73 0 115 48zM205.5 633.5q-40.5 25.5 -70.5 79.5h75q29 -52 95 -52q65 0 94 52h75q-30 -53 -70.5 -79t-98.5 -26
q-59 0 -99.5 25.5z" />
    <glyph glyph-name="gdotaccent.ss01" horiz-adv-x="622" 
d="M145.5 -168q-63.5 49 -78.5 130h86q13 -52 54.5 -81.5t102.5 -29.5q74 0 112 43.5t38 116.5l1 108h-7q-23 -47 -66 -79.5t-111 -32.5q-63 0 -113 29.5t-78 81.5t-28 117v77q0 65 28.5 117.5t78.5 82t113 29.5q70 0 112 -32.5t64 -77.5h7v96h86v-516q0 -54 -23.5 -106
t-77 -87t-138.5 -35q-99 0 -162.5 49zM417 129q42 48 42 120v48q0 73 -42 121.5t-115 48.5q-72 0 -114 -48.5t-42 -121.5v-48q0 -72 42 -120t114 -48q73 0 115 48zM263 641.5q-16 16.5 -16 39.5t16 39.5t40 16.5t40.5 -16.5t16.5 -39.5t-16.5 -39.5t-40.5 -16.5t-40 16.5z
" />
    <glyph glyph-name="j.ss01" horiz-adv-x="241" 
d="M74 641.5q-16 16.5 -16 39.5t16 39.5t40 16.5t40.5 -16.5t16.5 -39.5t-16.5 -39.5t-40.5 -16.5t-40 16.5zM-39 -225v70h40q33 0 48.5 11t19.5 31t4 59v581h86l1 -590q0 -52 -7.5 -85.5t-36.5 -55t-88 -21.5h-67z" />
    <glyph glyph-name="l.ss01" horiz-adv-x="243" 
d="M79 750h86v-750h-87z" />
    <glyph glyph-name="o.ss01" horiz-adv-x="581" 
d="M163 24q-55 31 -84.5 86.5t-29.5 126.5v59q0 71 29.5 126.5t84.5 87t127 31.5q73 0 127.5 -31.5t84.5 -87t30 -126.5v-59q0 -71 -30 -126.5t-85 -86.5t-127 -31t-127 31zM406 115.5q42 48.5 42 127.5v48q0 79 -42 127.5t-116 48.5t-115.5 -48.5t-41.5 -127.5v-48
q0 -79 42 -127.5t115 -48.5q74 0 116 48.5z" />
    <glyph glyph-name="oacute.ss01" horiz-adv-x="581" 
d="M163 24q-55 31 -84.5 86.5t-29.5 126.5v59q0 71 29.5 126.5t84.5 87t127 31.5q73 0 127.5 -31.5t84.5 -87t30 -126.5v-59q0 -71 -30 -126.5t-85 -86.5t-127 -31t-127 31zM406 115.5q42 48.5 42 127.5v48q0 79 -42 127.5t-116 48.5t-115.5 -48.5t-41.5 -127.5v-48
q0 -79 42 -127.5t115 -48.5q74 0 116 48.5zM259 598l98 179h92l-121 -179h-69z" />
    <glyph glyph-name="ocircumflex.ss01" horiz-adv-x="581" 
d="M163 24q-55 31 -84.5 86.5t-29.5 126.5v59q0 71 29.5 126.5t84.5 87t127 31.5q73 0 127.5 -31.5t84.5 -87t30 -126.5v-59q0 -71 -30 -126.5t-85 -86.5t-127 -31t-127 31zM406 115.5q42 48.5 42 127.5v48q0 79 -42 127.5t-116 48.5t-115.5 -48.5t-41.5 -127.5v-48
q0 -79 42 -127.5t115 -48.5q74 0 116 48.5zM253 739h75l131 -146h-86l-81 90h-4l-81 -90h-85z" />
    <glyph glyph-name="uni1ED1.ss01" horiz-adv-x="581" 
d="M163 24q-55 31 -84.5 86.5t-29.5 126.5v59q0 71 29.5 126.5t84.5 87t127 31.5q73 0 127.5 -31.5t84.5 -87t30 -126.5v-59q0 -71 -30 -126.5t-85 -86.5t-127 -31t-127 31zM406 115.5q42 48.5 42 127.5v48q0 79 -42 127.5t-116 48.5t-115.5 -48.5t-41.5 -127.5v-48
q0 -79 42 -127.5t115 -48.5q74 0 116 48.5zM253 739h75l131 -146h-86l-81 90h-4l-81 -90h-85zM411 718l98 179h92l-121 -179h-69z" />
    <glyph glyph-name="uni1ED9.ss01" horiz-adv-x="581" 
d="M163 24q-55 31 -84.5 86.5t-29.5 126.5v59q0 71 29.5 126.5t84.5 87t127 31.5q73 0 127.5 -31.5t84.5 -87t30 -126.5v-59q0 -71 -30 -126.5t-85 -86.5t-127 -31t-127 31zM406 115.5q42 48.5 42 127.5v48q0 79 -42 127.5t-116 48.5t-115.5 -48.5t-41.5 -127.5v-48
q0 -79 42 -127.5t115 -48.5q74 0 116 48.5zM251 -206.5q-16 16.5 -16 39.5t16 39.5t40 16.5t40 -16.5t16 -39.5t-16 -39.5t-40 -16.5t-40 16.5zM253 739h75l131 -146h-86l-81 90h-4l-81 -90h-85z" />
    <glyph glyph-name="uni1ED3.ss01" horiz-adv-x="581" 
d="M163 24q-55 31 -84.5 86.5t-29.5 126.5v59q0 71 29.5 126.5t84.5 87t127 31.5q73 0 127.5 -31.5t84.5 -87t30 -126.5v-59q0 -71 -30 -126.5t-85 -86.5t-127 -31t-127 31zM406 115.5q42 48.5 42 127.5v48q0 79 -42 127.5t-116 48.5t-115.5 -48.5t-41.5 -127.5v-48
q0 -79 42 -127.5t115 -48.5q74 0 116 48.5zM253 739h75l131 -146h-86l-81 90h-4l-81 -90h-85zM293 897h91l99 -179h-70z" />
    <glyph glyph-name="uni1ED5.ss01" horiz-adv-x="581" 
d="M163 24q-55 31 -84.5 86.5t-29.5 126.5v59q0 71 29.5 126.5t84.5 87t127 31.5q73 0 127.5 -31.5t84.5 -87t30 -126.5v-59q0 -71 -30 -126.5t-85 -86.5t-127 -31t-127 31zM406 115.5q42 48.5 42 127.5v48q0 79 -42 127.5t-116 48.5t-115.5 -48.5t-41.5 -127.5v-48
q0 -79 42 -127.5t115 -48.5q74 0 116 48.5zM253 739h75l131 -146h-86l-81 90h-4l-81 -90h-85zM419 739q7 7 25 20q23 17 33.5 29t10.5 30q0 16 -10 27t-32 11q-19 0 -30 -9t-13 -23h-66q5 35 31.5 59.5t76.5 24.5t77.5 -24t27.5 -62q0 -25 -11.5 -41t-32.5 -31
q-22 -16 -25 -27h-72q3 9 10 16z" />
    <glyph glyph-name="uni1ED7.ss01" horiz-adv-x="581" 
d="M163 24q-55 31 -84.5 86.5t-29.5 126.5v59q0 71 29.5 126.5t84.5 87t127 31.5q73 0 127.5 -31.5t84.5 -87t30 -126.5v-59q0 -71 -30 -126.5t-85 -86.5t-127 -31t-127 31zM406 115.5q42 48.5 42 127.5v48q0 79 -42 127.5t-116 48.5t-115.5 -48.5t-41.5 -127.5v-48
q0 -79 42 -127.5t115 -48.5q74 0 116 48.5zM253 739h75l131 -146h-86l-81 90h-4l-81 -90h-85zM167.5 854q20.5 33 66.5 33q19 0 34.5 -7.5t36.5 -22.5q15 -11 25 -16.5t20 -5.5q18 0 26 15t6 37h52q3 -43 -17 -76.5t-67 -33.5q-19 0 -34.5 7.5t-36.5 22.5q-16 11 -25.5 16
t-19.5 5q-35 0 -33 -51h-52q-2 44 18.5 77z" />
    <glyph glyph-name="odieresis.ss01" horiz-adv-x="581" 
d="M163 24q-55 31 -84.5 86.5t-29.5 126.5v59q0 71 29.5 126.5t84.5 87t127 31.5q73 0 127.5 -31.5t84.5 -87t30 -126.5v-59q0 -71 -30 -126.5t-85 -86.5t-127 -31t-127 31zM406 115.5q42 48.5 42 127.5v48q0 79 -42 127.5t-116 48.5t-115.5 -48.5t-41.5 -127.5v-48
q0 -79 42 -127.5t115 -48.5q74 0 116 48.5zM350 641.5q-16 16.5 -16 39.5t16 39.5t40 16.5t40.5 -16.5t16.5 -39.5t-16.5 -39.5t-40.5 -16.5t-40 16.5zM154 641.5q-16 16.5 -16 39.5t16 39.5t40 16.5t40.5 -16.5t16.5 -39.5t-16.5 -39.5t-40.5 -16.5t-40 16.5z" />
    <glyph glyph-name="uni1ECD.ss01" horiz-adv-x="581" 
d="M163 24q-55 31 -84.5 86.5t-29.5 126.5v59q0 71 29.5 126.5t84.5 87t127 31.5q73 0 127.5 -31.5t84.5 -87t30 -126.5v-59q0 -71 -30 -126.5t-85 -86.5t-127 -31t-127 31zM406 115.5q42 48.5 42 127.5v48q0 79 -42 127.5t-116 48.5t-115.5 -48.5t-41.5 -127.5v-48
q0 -79 42 -127.5t115 -48.5q74 0 116 48.5zM251 -206.5q-16 16.5 -16 39.5t16 39.5t40 16.5t40 -16.5t16 -39.5t-16 -39.5t-40 -16.5t-40 16.5z" />
    <glyph glyph-name="ograve.ss01" horiz-adv-x="581" 
d="M163 24q-55 31 -84.5 86.5t-29.5 126.5v59q0 71 29.5 126.5t84.5 87t127 31.5q73 0 127.5 -31.5t84.5 -87t30 -126.5v-59q0 -71 -30 -126.5t-85 -86.5t-127 -31t-127 31zM406 115.5q42 48.5 42 127.5v48q0 79 -42 127.5t-116 48.5t-115.5 -48.5t-41.5 -127.5v-48
q0 -79 42 -127.5t115 -48.5q74 0 116 48.5zM133 777h91l99 -179h-70z" />
    <glyph glyph-name="uni1ECF.ss01" horiz-adv-x="581" 
d="M163 24q-55 31 -84.5 86.5t-29.5 126.5v59q0 71 29.5 126.5t84.5 87t127 31.5q73 0 127.5 -31.5t84.5 -87t30 -126.5v-59q0 -71 -30 -126.5t-85 -86.5t-127 -31t-127 31zM406 115.5q42 48.5 42 127.5v48q0 79 -42 127.5t-116 48.5t-115.5 -48.5t-41.5 -127.5v-48
q0 -79 42 -127.5t115 -48.5q74 0 116 48.5zM265 614q7 7 25 20q23 17 33.5 29t10.5 30q0 16 -10 27t-32 11q-19 0 -30 -9t-13 -23h-66q5 35 31.5 59.5t76.5 24.5t77.5 -24t27.5 -62q0 -25 -11.5 -41t-32.5 -31q-22 -16 -25 -27h-72q3 9 10 16z" />
    <glyph glyph-name="ohorn.ss01" horiz-adv-x="595" 
d="M513.5 511.5q-22.5 -23.5 -58.5 -28.5q37 -33 57 -81.5t20 -105.5v-59q0 -71 -30 -126.5t-85 -86.5t-127 -31t-127 31t-84.5 86.5t-29.5 126.5v59q0 71 29.5 126.5t84.5 87t127 31.5q47 0 89 -14h35q29 0 41.5 12t12.5 53v27h68v-36q0 -48 -22.5 -71.5zM448 291
q0 79 -42 127.5t-116 48.5t-115.5 -48.5t-41.5 -127.5v-48q0 -79 42 -127.5t115 -48.5q74 0 116 48.5t42 127.5v48z" />
    <glyph glyph-name="uni1EDB.ss01" horiz-adv-x="595" 
d="M513.5 511.5q-22.5 -23.5 -58.5 -28.5q37 -33 57 -81.5t20 -105.5v-59q0 -71 -30 -126.5t-85 -86.5t-127 -31t-127 31t-84.5 86.5t-29.5 126.5v59q0 71 29.5 126.5t84.5 87t127 31.5q47 0 89 -14h35q29 0 41.5 12t12.5 53v27h68v-36q0 -48 -22.5 -71.5zM448 291
q0 79 -42 127.5t-116 48.5t-115.5 -48.5t-41.5 -127.5v-48q0 -79 42 -127.5t115 -48.5q74 0 116 48.5t42 127.5v48zM259 598l98 179h92l-121 -179h-69z" />
    <glyph glyph-name="uni1EE3.ss01" horiz-adv-x="595" 
d="M513.5 511.5q-22.5 -23.5 -58.5 -28.5q37 -33 57 -81.5t20 -105.5v-59q0 -71 -30 -126.5t-85 -86.5t-127 -31t-127 31t-84.5 86.5t-29.5 126.5v59q0 71 29.5 126.5t84.5 87t127 31.5q47 0 89 -14h35q29 0 41.5 12t12.5 53v27h68v-36q0 -48 -22.5 -71.5zM448 291
q0 79 -42 127.5t-116 48.5t-115.5 -48.5t-41.5 -127.5v-48q0 -79 42 -127.5t115 -48.5q74 0 116 48.5t42 127.5v48zM251 -206.5q-16 16.5 -16 39.5t16 39.5t40 16.5t40 -16.5t16 -39.5t-16 -39.5t-40 -16.5t-40 16.5z" />
    <glyph glyph-name="uni1EDD.ss01" horiz-adv-x="595" 
d="M513.5 511.5q-22.5 -23.5 -58.5 -28.5q37 -33 57 -81.5t20 -105.5v-59q0 -71 -30 -126.5t-85 -86.5t-127 -31t-127 31t-84.5 86.5t-29.5 126.5v59q0 71 29.5 126.5t84.5 87t127 31.5q47 0 89 -14h35q29 0 41.5 12t12.5 53v27h68v-36q0 -48 -22.5 -71.5zM448 291
q0 79 -42 127.5t-116 48.5t-115.5 -48.5t-41.5 -127.5v-48q0 -79 42 -127.5t115 -48.5q74 0 116 48.5t42 127.5v48zM133 777h91l99 -179h-70z" />
    <glyph glyph-name="uni1EDF.ss01" horiz-adv-x="595" 
d="M513.5 511.5q-22.5 -23.5 -58.5 -28.5q37 -33 57 -81.5t20 -105.5v-59q0 -71 -30 -126.5t-85 -86.5t-127 -31t-127 31t-84.5 86.5t-29.5 126.5v59q0 71 29.5 126.5t84.5 87t127 31.5q47 0 89 -14h35q29 0 41.5 12t12.5 53v27h68v-36q0 -48 -22.5 -71.5zM448 291
q0 79 -42 127.5t-116 48.5t-115.5 -48.5t-41.5 -127.5v-48q0 -79 42 -127.5t115 -48.5q74 0 116 48.5t42 127.5v48zM265 614q7 7 25 20q23 17 33.5 29t10.5 30q0 16 -10 27t-32 11q-19 0 -30 -9t-13 -23h-66q5 35 31.5 59.5t76.5 24.5t77.5 -24t27.5 -62q0 -25 -11.5 -41
t-32.5 -31q-22 -16 -25 -27h-72q3 9 10 16z" />
    <glyph glyph-name="uni1EE1.ss01" horiz-adv-x="595" 
d="M513.5 511.5q-22.5 -23.5 -58.5 -28.5q37 -33 57 -81.5t20 -105.5v-59q0 -71 -30 -126.5t-85 -86.5t-127 -31t-127 31t-84.5 86.5t-29.5 126.5v59q0 71 29.5 126.5t84.5 87t127 31.5q47 0 89 -14h35q29 0 41.5 12t12.5 53v27h68v-36q0 -48 -22.5 -71.5zM448 291
q0 79 -42 127.5t-116 48.5t-115.5 -48.5t-41.5 -127.5v-48q0 -79 42 -127.5t115 -48.5q74 0 116 48.5t42 127.5v48zM165.5 698q20.5 33 66.5 33q19 0 34.5 -7.5t36.5 -22.5q15 -11 25 -16.5t20 -5.5q18 0 26 15t6 37h52q3 -43 -17 -76.5t-67 -33.5q-19 0 -34.5 7.5
t-36.5 22.5q-16 11 -25.5 16t-19.5 5q-35 0 -33 -51h-52q-2 44 18.5 77z" />
    <glyph glyph-name="omacron.ss01" horiz-adv-x="581" 
d="M163 24q-55 31 -84.5 86.5t-29.5 126.5v59q0 71 29.5 126.5t84.5 87t127 31.5q73 0 127.5 -31.5t84.5 -87t30 -126.5v-59q0 -71 -30 -126.5t-85 -86.5t-127 -31t-127 31zM406 115.5q42 48.5 42 127.5v48q0 79 -42 127.5t-116 48.5t-115.5 -48.5t-41.5 -127.5v-48
q0 -79 42 -127.5t115 -48.5q74 0 116 48.5zM140 671h300v-45h-300v45z" />
    <glyph glyph-name="oslash.ss01" horiz-adv-x="595" 
d="M511 405.5q21 -49.5 21 -108.5v-59q0 -71 -30 -126.5t-85 -86.5t-127 -31q-54 0 -102 19l-30 -54h-67l46 83q-42 33 -65 83.5t-23 112.5v59q0 71 29.5 126.5t84.5 87t127 31.5q62 0 111 -23l36 65h67l-53 -96q39 -33 60 -82.5zM177 114l187 338q-34 16 -74 16
q-73 0 -115 -49t-42 -128v-48q0 -82 44 -129zM448 291q0 76 -38 123l-185 -334q29 -12 65 -12q74 0 116 48t42 127v48z" />
    <glyph glyph-name="otilde.ss01" horiz-adv-x="581" 
d="M163 24q-55 31 -84.5 86.5t-29.5 126.5v59q0 71 29.5 126.5t84.5 87t127 31.5q73 0 127.5 -31.5t84.5 -87t30 -126.5v-59q0 -71 -30 -126.5t-85 -86.5t-127 -31t-127 31zM406 115.5q42 48.5 42 127.5v48q0 79 -42 127.5t-116 48.5t-115.5 -48.5t-41.5 -127.5v-48
q0 -79 42 -127.5t115 -48.5q74 0 116 48.5zM165.5 698q20.5 33 66.5 33q19 0 34.5 -7.5t36.5 -22.5q15 -11 25 -16.5t20 -5.5q18 0 26 15t6 37h52q3 -43 -17 -76.5t-67 -33.5q-19 0 -34.5 7.5t-36.5 22.5q-16 11 -25.5 16t-19.5 5q-35 0 -33 -51h-52q-2 44 18.5 77z" />
    <glyph glyph-name="oe.ss01" horiz-adv-x="977" 
d="M532 224q0 -67 42 -112.5t113 -45.5q62 0 100 32.5t47 86.5h84q-13 -82 -72 -137t-159 -55q-64 0 -115 26t-82 72q-32 -47 -83 -72.5t-117 -25.5q-72 0 -127 31t-84.5 86.5t-29.5 126.5v59q0 71 29.5 126.5t84.5 87t127 31.5q66 0 117 -25.5t83 -72.5q31 46 81.5 72
t115.5 26q66 0 119 -29t84 -88.5t31 -148.5v-33h-389v-18zM532 303h305v12q0 68 -41.5 113t-109.5 45q-70 0 -112 -45t-42 -113v-12zM406 115.5q42 48.5 42 127.5v48q0 79 -42 127.5t-116 48.5t-115.5 -48.5t-41.5 -127.5v-48q0 -79 42 -127.5t115 -48.5q74 0 116 48.5z" />
    <glyph glyph-name="p.ss01" horiz-adv-x="622" 
d="M238 26q-44 33 -67 80h-7v-315h-87v736h87v-96h7q22 45 65 77.5t113 32.5q64 0 115 -29.5t80 -82t29 -117.5v-90q0 -65 -28.5 -117t-79 -82t-113.5 -30q-70 0 -114 33zM441 113q44 46 44 118v72q0 71 -44 117.5t-116 46.5t-116 -46.5t-44 -117.5v-72q0 -71 44 -117.5
t116 -46.5t116 46z" />
    <glyph glyph-name="thorn.ss01" horiz-adv-x="622" 
d="M235 26q-44 33 -67 80h-7v-339h-87v983h87v-319h7q22 45 65 77.5t113 32.5q64 0 115 -29.5t80 -82t29 -117.5v-90q0 -65 -28.5 -117t-79 -82t-113.5 -30q-70 0 -114 33zM438 113.5q44 46.5 44 117.5v72q0 71 -44 117.5t-116 46.5t-116 -46.5t-44 -117.5v-72
q0 -71 44 -117.5t116 -46.5t116 46.5z" />
    <glyph glyph-name="q.ss01" horiz-adv-x="622" 
d="M156.5 23q-50.5 30 -79 82t-28.5 117v90q0 65 29 117.5t80 82t115 29.5q70 0 113 -32.5t65 -77.5h7v96h87v-736h-87v315h-7q-23 -47 -67 -80t-114 -33q-63 0 -113.5 30zM413 113.5q44 46.5 44 117.5v72q0 71 -44 117.5t-116 46.5t-116 -46.5t-44 -117.5v-72
q0 -72 44 -118t116 -46t116 46.5z" />
    <glyph glyph-name="r.ss01" horiz-adv-x="334" 
d="M71 527h86v-84h6q29 84 124 84h35v-82h-36q-129 0 -129 -147v-298h-86v527z" />
    <glyph glyph-name="t.ss01" horiz-adv-x="393" 
d="M216 458v-288q0 -38 4.5 -58.5t20 -31.5t48.5 -11h47v-69h-74q-58 0 -86.5 20t-37 52t-8.5 83v303h-98v69h98v173h86v-173h125v-69h-125z" />
    <glyph glyph-name="y.ss01" horiz-adv-x="540" 
d="M124 -218l100 244l-190 488v12h85l147 -405h6l155 405h84v-12l-305 -743h-82v11z" />
    <glyph glyph-name="yacute.ss01" horiz-adv-x="540" 
d="M124 -218l100 244l-190 488v12h85l147 -405h6l155 405h84v-12l-305 -743h-82v11zM237 598l98 179h92l-121 -179h-69z" />
    <glyph glyph-name="ycircumflex.ss01" horiz-adv-x="540" 
d="M124 -218l100 244l-190 488v12h85l147 -405h6l155 405h84v-12l-305 -743h-82v11zM232 739h75l131 -146h-86l-81 90h-4l-81 -90h-85z" />
    <glyph glyph-name="ydieresis.ss01" horiz-adv-x="540" 
d="M124 -218l100 244l-190 488v12h85l147 -405h6l155 405h84v-12l-305 -743h-82v11zM328 641.5q-16 16.5 -16 39.5t16 39.5t40 16.5t40.5 -16.5t16.5 -39.5t-16.5 -39.5t-40.5 -16.5t-40 16.5zM132 641.5q-16 16.5 -16 39.5t16 39.5t40 16.5t40.5 -16.5t16.5 -39.5
t-16.5 -39.5t-40.5 -16.5t-40 16.5z" />
    <glyph glyph-name="uni1EF5.ss01" horiz-adv-x="540" 
d="M124 -218l100 244l-190 488v12h85l147 -405h6l155 405h84v-12l-305 -743h-82v11zM376 -206.5q-16 16.5 -16 39.5t16 39.5t40 16.5t40 -16.5t16 -39.5t-16 -39.5t-40 -16.5t-40 16.5z" />
    <glyph glyph-name="ygrave.ss01" horiz-adv-x="540" 
d="M124 -218l100 244l-190 488v12h85l147 -405h6l155 405h84v-12l-305 -743h-82v11zM111 777h91l99 -179h-70z" />
    <glyph glyph-name="uni1EF7.ss01" horiz-adv-x="540" 
d="M124 -218l100 244l-190 488v12h85l147 -405h6l155 405h84v-12l-305 -743h-82v11zM244 614q7 7 25 20q23 17 33.5 29t10.5 30q0 16 -10 27t-32 11q-19 0 -30 -9t-13 -23h-66q5 35 31.5 59.5t76.5 24.5t77.5 -24t27.5 -62q0 -25 -11.5 -41t-32.5 -31q-22 -16 -25 -27h-72
q3 9 10 16z" />
    <glyph glyph-name="uni1EF9.ss01" horiz-adv-x="540" 
d="M124 -218l100 244l-190 488v12h85l147 -405h6l155 405h84v-12l-305 -743h-82v11zM144.5 698q20.5 33 66.5 33q19 0 34.5 -7.5t36.5 -22.5q15 -11 25 -16.5t20 -5.5q18 0 26 15t6 37h52q3 -43 -17 -76.5t-67 -33.5q-19 0 -34.5 7.5t-36.5 22.5q-16 11 -25.5 16t-19.5 5
q-35 0 -33 -51h-52q-2 44 18.5 77z" />
    <glyph glyph-name="a.ss02" horiz-adv-x="615" 
d="M155.5 23q-49.5 30 -78 82t-28.5 117v90q0 65 28.5 117.5t78.5 82t112 29.5q70 0 112.5 -32.5t64.5 -77.5h6v96h87v-527h-87v106h-6q-23 -47 -66 -80t-111 -33q-63 0 -112.5 30zM408 115q42 48 42 121v61q0 73 -42 121.5t-115 48.5t-114.5 -48.5t-41.5 -121.5v-61
q0 -73 42 -121t114 -48q73 0 115 48z" />
    <glyph glyph-name="aacute.ss02" horiz-adv-x="615" 
d="M155.5 23q-49.5 30 -78 82t-28.5 117v90q0 65 28.5 117.5t78.5 82t112 29.5q70 0 112.5 -32.5t64.5 -77.5h6v96h87v-527h-87v106h-6q-23 -47 -66 -80t-111 -33q-63 0 -112.5 30zM408 115q42 48 42 121v61q0 73 -42 121.5t-115 48.5t-114.5 -48.5t-41.5 -121.5v-61
q0 -73 42 -121t114 -48q73 0 115 48zM265 598l98 179h92l-121 -179h-69z" />
    <glyph glyph-name="abreve.ss02" horiz-adv-x="615" 
d="M155.5 23q-49.5 30 -78 82t-28.5 117v90q0 65 28.5 117.5t78.5 82t112 29.5q70 0 112.5 -32.5t64.5 -77.5h6v96h87v-527h-87v106h-6q-23 -47 -66 -80t-111 -33q-63 0 -112.5 30zM408 115q42 48 42 121v61q0 73 -42 121.5t-115 48.5t-114.5 -48.5t-41.5 -121.5v-61
q0 -73 42 -121t114 -48q73 0 115 48zM197.5 633.5q-40.5 25.5 -70.5 79.5h75q29 -52 95 -52q65 0 94 52h75q-30 -53 -70.5 -79t-98.5 -26q-59 0 -99.5 25.5z" />
    <glyph glyph-name="uni1EAF.ss02" horiz-adv-x="615" 
d="M155.5 23q-49.5 30 -78 82t-28.5 117v90q0 65 28.5 117.5t78.5 82t112 29.5q70 0 112.5 -32.5t64.5 -77.5h6v96h87v-527h-87v106h-6q-23 -47 -66 -80t-111 -33q-63 0 -112.5 30zM408 115q42 48 42 121v61q0 73 -42 121.5t-115 48.5t-114.5 -48.5t-41.5 -121.5v-61
q0 -73 42 -121t114 -48q73 0 115 48zM198.5 633.5q-40.5 25.5 -70.5 79.5h75q29 -52 95 -52q65 0 94 52h75q-30 -53 -70.5 -79t-98.5 -26q-59 0 -99.5 25.5zM266 740l98 179h92l-121 -179h-69z" />
    <glyph glyph-name="uni1EB7.ss02" horiz-adv-x="615" 
d="M155.5 23q-49.5 30 -78 82t-28.5 117v90q0 65 28.5 117.5t78.5 82t112 29.5q70 0 112.5 -32.5t64.5 -77.5h6v96h87v-527h-87v106h-6q-23 -47 -66 -80t-111 -33q-63 0 -112.5 30zM408 115q42 48 42 121v61q0 73 -42 121.5t-115 48.5t-114.5 -48.5t-41.5 -121.5v-61
q0 -73 42 -121t114 -48q73 0 115 48zM197.5 633.5q-40.5 25.5 -70.5 79.5h75q29 -52 95 -52q65 0 94 52h75q-30 -53 -70.5 -79t-98.5 -26q-59 0 -99.5 25.5zM257 -206.5q-16 16.5 -16 39.5t16 39.5t40 16.5t40 -16.5t16 -39.5t-16 -39.5t-40 -16.5t-40 16.5z" />
    <glyph glyph-name="uni1EB1.ss02" horiz-adv-x="615" 
d="M155.5 23q-49.5 30 -78 82t-28.5 117v90q0 65 28.5 117.5t78.5 82t112 29.5q70 0 112.5 -32.5t64.5 -77.5h6v96h87v-527h-87v106h-6q-23 -47 -66 -80t-111 -33q-63 0 -112.5 30zM408 115q42 48 42 121v61q0 73 -42 121.5t-115 48.5t-114.5 -48.5t-41.5 -121.5v-61
q0 -73 42 -121t114 -48q73 0 115 48zM200.5 633.5q-40.5 25.5 -70.5 79.5h75q29 -52 95 -52q65 0 94 52h75q-30 -53 -70.5 -79t-98.5 -26q-59 0 -99.5 25.5zM142 919h91l99 -179h-70z" />
    <glyph glyph-name="uni1EB3.ss02" horiz-adv-x="615" 
d="M155.5 23q-49.5 30 -78 82t-28.5 117v90q0 65 28.5 117.5t78.5 82t112 29.5q70 0 112.5 -32.5t64.5 -77.5h6v96h87v-527h-87v106h-6q-23 -47 -66 -80t-111 -33q-63 0 -112.5 30zM408 115q42 48 42 121v61q0 73 -42 121.5t-115 48.5t-114.5 -48.5t-41.5 -121.5v-61
q0 -73 42 -121t114 -48q73 0 115 48zM198.5 633.5q-40.5 25.5 -70.5 79.5h75q29 -52 95 -52q65 0 94 52h75q-30 -53 -70.5 -79t-98.5 -26q-59 0 -99.5 25.5zM272 756q7 7 25 20q23 17 33.5 29t10.5 30q0 16 -10 27t-32 11q-19 0 -30 -9t-13 -23h-66q5 35 31.5 59.5
t76.5 24.5t77.5 -24t27.5 -62q0 -25 -11.5 -41t-32.5 -31q-22 -16 -25 -27h-72q3 9 10 16z" />
    <glyph glyph-name="uni1EB5.ss02" horiz-adv-x="615" 
d="M155.5 23q-49.5 30 -78 82t-28.5 117v90q0 65 28.5 117.5t78.5 82t112 29.5q70 0 112.5 -32.5t64.5 -77.5h6v96h87v-527h-87v106h-6q-23 -47 -66 -80t-111 -33q-63 0 -112.5 30zM408 115q42 48 42 121v61q0 73 -42 121.5t-115 48.5t-114.5 -48.5t-41.5 -121.5v-61
q0 -73 42 -121t114 -48q73 0 115 48zM196.5 633.5q-40.5 25.5 -70.5 79.5h75q29 -52 95 -52q65 0 94 52h75q-30 -53 -70.5 -79t-98.5 -26q-59 0 -99.5 25.5zM171.5 840q20.5 33 66.5 33q19 0 34.5 -7.5t36.5 -22.5q15 -11 25 -16.5t20 -5.5q18 0 26 15t6 37h52
q3 -43 -17 -76.5t-67 -33.5q-19 0 -34.5 7.5t-36.5 22.5q-16 11 -25.5 16t-19.5 5q-35 0 -33 -51h-52q-2 44 18.5 77z" />
    <glyph glyph-name="acircumflex.ss02" horiz-adv-x="615" 
d="M155.5 23q-49.5 30 -78 82t-28.5 117v90q0 65 28.5 117.5t78.5 82t112 29.5q70 0 112.5 -32.5t64.5 -77.5h6v96h87v-527h-87v106h-6q-23 -47 -66 -80t-111 -33q-63 0 -112.5 30zM408 115q42 48 42 121v61q0 73 -42 121.5t-115 48.5t-114.5 -48.5t-41.5 -121.5v-61
q0 -73 42 -121t114 -48q73 0 115 48zM260 739h75l131 -146h-86l-81 90h-4l-81 -90h-85z" />
    <glyph glyph-name="uni1EA5.ss02" horiz-adv-x="615" 
d="M155.5 23q-49.5 30 -78 82t-28.5 117v90q0 65 28.5 117.5t78.5 82t112 29.5q70 0 112.5 -32.5t64.5 -77.5h6v96h87v-527h-87v106h-6q-23 -47 -66 -80t-111 -33q-63 0 -112.5 30zM408 115q42 48 42 121v61q0 73 -42 121.5t-115 48.5t-114.5 -48.5t-41.5 -121.5v-61
q0 -73 42 -121t114 -48q73 0 115 48zM260 739h75l131 -146h-86l-81 90h-4l-81 -90h-85zM418 718l98 179h92l-121 -179h-69z" />
    <glyph glyph-name="uni1EAD.ss02" horiz-adv-x="615" 
d="M155.5 23q-49.5 30 -78 82t-28.5 117v90q0 65 28.5 117.5t78.5 82t112 29.5q70 0 112.5 -32.5t64.5 -77.5h6v96h87v-527h-87v106h-6q-23 -47 -66 -80t-111 -33q-63 0 -112.5 30zM408 115q42 48 42 121v61q0 73 -42 121.5t-115 48.5t-114.5 -48.5t-41.5 -121.5v-61
q0 -73 42 -121t114 -48q73 0 115 48zM260 739h75l131 -146h-86l-81 90h-4l-81 -90h-85zM257 -206.5q-16 16.5 -16 39.5t16 39.5t40 16.5t40 -16.5t16 -39.5t-16 -39.5t-40 -16.5t-40 16.5z" />
    <glyph glyph-name="uni1EA7.ss02" horiz-adv-x="615" 
d="M155.5 23q-49.5 30 -78 82t-28.5 117v90q0 65 28.5 117.5t78.5 82t112 29.5q70 0 112.5 -32.5t64.5 -77.5h6v96h87v-527h-87v106h-6q-23 -47 -66 -80t-111 -33q-63 0 -112.5 30zM408 115q42 48 42 121v61q0 73 -42 121.5t-115 48.5t-114.5 -48.5t-41.5 -121.5v-61
q0 -73 42 -121t114 -48q73 0 115 48zM259 739h75l131 -146h-86l-81 90h-4l-81 -90h-85zM299 897h91l99 -179h-70z" />
    <glyph glyph-name="uni1EA9.ss02" horiz-adv-x="615" 
d="M155.5 23q-49.5 30 -78 82t-28.5 117v90q0 65 28.5 117.5t78.5 82t112 29.5q70 0 112.5 -32.5t64.5 -77.5h6v96h87v-527h-87v106h-6q-23 -47 -66 -80t-111 -33q-63 0 -112.5 30zM408 115q42 48 42 121v61q0 73 -42 121.5t-115 48.5t-114.5 -48.5t-41.5 -121.5v-61
q0 -73 42 -121t114 -48q73 0 115 48zM260 739h75l131 -146h-86l-81 90h-4l-81 -90h-85zM426 739q7 7 25 20q23 17 33.5 29t10.5 30q0 16 -10 27t-32 11q-19 0 -30 -9t-13 -23h-66q5 35 31.5 59.5t76.5 24.5t77.5 -24t27.5 -62q0 -25 -11.5 -41t-32.5 -31q-22 -16 -25 -27
h-72q3 9 10 16z" />
    <glyph glyph-name="uni1EAB.ss02" horiz-adv-x="615" 
d="M155.5 23q-49.5 30 -78 82t-28.5 117v90q0 65 28.5 117.5t78.5 82t112 29.5q70 0 112.5 -32.5t64.5 -77.5h6v96h87v-527h-87v106h-6q-23 -47 -66 -80t-111 -33q-63 0 -112.5 30zM408 115q42 48 42 121v61q0 73 -42 121.5t-115 48.5t-114.5 -48.5t-41.5 -121.5v-61
q0 -73 42 -121t114 -48q73 0 115 48zM260 739h75l131 -146h-86l-81 90h-4l-81 -90h-85zM174.5 854q20.5 33 66.5 33q19 0 34.5 -7.5t36.5 -22.5q15 -11 25 -16.5t20 -5.5q18 0 26 15t6 37h52q3 -43 -17 -76.5t-67 -33.5q-19 0 -34.5 7.5t-36.5 22.5q-16 11 -25.5 16t-19.5 5
q-35 0 -33 -51h-52q-2 44 18.5 77z" />
    <glyph glyph-name="adieresis.ss02" horiz-adv-x="615" 
d="M155.5 23q-49.5 30 -78 82t-28.5 117v90q0 65 28.5 117.5t78.5 82t112 29.5q70 0 112.5 -32.5t64.5 -77.5h6v96h87v-527h-87v106h-6q-23 -47 -66 -80t-111 -33q-63 0 -112.5 30zM408 115q42 48 42 121v61q0 73 -42 121.5t-115 48.5t-114.5 -48.5t-41.5 -121.5v-61
q0 -73 42 -121t114 -48q73 0 115 48zM356 641.5q-16 16.5 -16 39.5t16 39.5t40 16.5t40.5 -16.5t16.5 -39.5t-16.5 -39.5t-40.5 -16.5t-40 16.5zM160 641.5q-16 16.5 -16 39.5t16 39.5t40 16.5t40.5 -16.5t16.5 -39.5t-16.5 -39.5t-40.5 -16.5t-40 16.5z" />
    <glyph glyph-name="uni1EA1.ss02" horiz-adv-x="615" 
d="M155.5 23q-49.5 30 -78 82t-28.5 117v90q0 65 28.5 117.5t78.5 82t112 29.5q70 0 112.5 -32.5t64.5 -77.5h6v96h87v-527h-87v106h-6q-23 -47 -66 -80t-111 -33q-63 0 -112.5 30zM408 115q42 48 42 121v61q0 73 -42 121.5t-115 48.5t-114.5 -48.5t-41.5 -121.5v-61
q0 -73 42 -121t114 -48q73 0 115 48zM257 -206.5q-16 16.5 -16 39.5t16 39.5t40 16.5t40 -16.5t16 -39.5t-16 -39.5t-40 -16.5t-40 16.5z" />
    <glyph glyph-name="agrave.ss02" horiz-adv-x="615" 
d="M155.5 23q-49.5 30 -78 82t-28.5 117v90q0 65 28.5 117.5t78.5 82t112 29.5q70 0 112.5 -32.5t64.5 -77.5h6v96h87v-527h-87v106h-6q-23 -47 -66 -80t-111 -33q-63 0 -112.5 30zM408 115q42 48 42 121v61q0 73 -42 121.5t-115 48.5t-114.5 -48.5t-41.5 -121.5v-61
q0 -73 42 -121t114 -48q73 0 115 48zM139 777h91l99 -179h-70z" />
    <glyph glyph-name="uni1EA3.ss02" horiz-adv-x="615" 
d="M155.5 23q-49.5 30 -78 82t-28.5 117v90q0 65 28.5 117.5t78.5 82t112 29.5q70 0 112.5 -32.5t64.5 -77.5h6v96h87v-527h-87v106h-6q-23 -47 -66 -80t-111 -33q-63 0 -112.5 30zM408 115q42 48 42 121v61q0 73 -42 121.5t-115 48.5t-114.5 -48.5t-41.5 -121.5v-61
q0 -73 42 -121t114 -48q73 0 115 48zM272 614q7 7 25 20q23 17 33.5 29t10.5 30q0 16 -10 27t-32 11q-19 0 -30 -9t-13 -23h-66q5 35 31.5 59.5t76.5 24.5t77.5 -24t27.5 -62q0 -25 -11.5 -41t-32.5 -31q-22 -16 -25 -27h-72q3 9 10 16z" />
    <glyph glyph-name="amacron.ss02" horiz-adv-x="615" 
d="M155.5 23q-49.5 30 -78 82t-28.5 117v90q0 65 28.5 117.5t78.5 82t112 29.5q70 0 112.5 -32.5t64.5 -77.5h6v96h87v-527h-87v106h-6q-23 -47 -66 -80t-111 -33q-63 0 -112.5 30zM408 115q42 48 42 121v61q0 73 -42 121.5t-115 48.5t-114.5 -48.5t-41.5 -121.5v-61
q0 -73 42 -121t114 -48q73 0 115 48zM147 671h300v-45h-300v45z" />
    <glyph glyph-name="aring.ss02" horiz-adv-x="615" 
d="M155.5 23q-49.5 30 -78 82t-28.5 117v90q0 65 28.5 117.5t78.5 82t112 29.5q70 0 112.5 -32.5t64.5 -77.5h6v96h87v-527h-87v106h-6q-23 -47 -66 -80t-111 -33q-63 0 -112.5 30zM408 115q42 48 42 121v61q0 73 -42 121.5t-115 48.5t-114.5 -48.5t-41.5 -121.5v-61
q0 -73 42 -121t114 -48q73 0 115 48zM234.5 638q-25.5 26 -25.5 62t25.5 61.5t61.5 25.5t62 -25.5t26 -61.5t-26 -62t-62 -26t-61.5 26zM329 667q14 14 14 33q0 20 -14 33.5t-33 13.5q-20 0 -33.5 -13.5t-13.5 -33.5q0 -19 13.5 -33t33.5 -14q19 0 33 14z" />
    <glyph glyph-name="atilde.ss02" horiz-adv-x="615" 
d="M155.5 23q-49.5 30 -78 82t-28.5 117v90q0 65 28.5 117.5t78.5 82t112 29.5q70 0 112.5 -32.5t64.5 -77.5h6v96h87v-527h-87v106h-6q-23 -47 -66 -80t-111 -33q-63 0 -112.5 30zM408 115q42 48 42 121v61q0 73 -42 121.5t-115 48.5t-114.5 -48.5t-41.5 -121.5v-61
q0 -73 42 -121t114 -48q73 0 115 48zM172.5 698q20.5 33 66.5 33q19 0 34.5 -7.5t36.5 -22.5q15 -11 25 -16.5t20 -5.5q18 0 26 15t6 37h52q3 -43 -17 -76.5t-67 -33.5q-19 0 -34.5 7.5t-36.5 22.5q-16 11 -25.5 16t-19.5 5q-35 0 -33 -51h-52q-2 44 18.5 77z" />
    <glyph glyph-name="f_h.dlig" horiz-adv-x="1033" 
d="M884 509.5q45 -31.5 66 -83t21 -111.5v-315h-86v304q0 78 -40.5 119t-107.5 41q-63 0 -105.5 -43t-42.5 -117v-304h-87v549q0 49 -10 77.5t-35 42t-72 13.5h-56q-64 0 -90.5 -30.5t-26.5 -98.5v-26h119v-69h-119v-458h-86v458h-79v69h79v26q0 103 51.5 153.5t144.5 50.5
h63q105 0 154.5 -51t49.5 -164v-110h7q21 46 65.5 77.5t109.5 31.5q68 0 113 -31.5z" />
    <glyph glyph-name="f_k.dlig" horiz-adv-x="942" 
d="M901 0h-98l-209 257h-5v-257h-87v549q0 49 -10 77.5t-35 42t-72 13.5h-56q-64 0 -90.5 -30.5t-26.5 -98.5v-26h119v-69h-119v-458h-86v458h-79v69h79v26q0 103 51.5 153.5t144.5 50.5h63q105 0 155 -51.5t49 -163.5v-215h4l200 200h98l-232 -237z" />
    <glyph glyph-name="f_l.dlig" horiz-adv-x="734" 
d="M697 63v-62q-25 -5 -63 -5q-59 0 -88 19t-36.5 49.5t-7.5 79.5v405q0 49 -10 77.5t-35 42t-72 13.5h-56q-64 0 -90.5 -30.5t-26.5 -98.5v-26h122v-69h-122v-458h-86v458h-79v69h79v26q0 103 51.5 153.5t144.5 50.5h63q105 0 154 -51t49 -164v-385q0 -38 3.5 -56.5
t19 -29.5t50.5 -11q21 0 36 3z" />
    <glyph glyph-name="f_t.dlig" horiz-adv-x="765" 
d="M589 458v-301q0 -38 3.5 -56.5t19 -29.5t50.5 -11q24 0 52 7v-62q-7 -3 -30.5 -6t-48.5 -3q-59 0 -88 19t-36.5 49.5t-7.5 79.5v314h-297v-458h-86l-1 458h-72v69h72v75q0 54 29 95t112 41q20 0 40.5 -2.5t30.5 -5.5v-60q-22 5 -50 5q-35 0 -51.5 -13.5t-20 -32
t-3.5 -47.5v-55h297v173h86v-173h125v-69h-125z" />
    <glyph glyph-name="r_f.dlig" horiz-adv-x="678" 
d="M531.5 661.5q-16.5 -13.5 -20 -32t-3.5 -47.5v-55h125v-69h-125v-458h-86v458h-141q-55 0 -91.5 -37t-36.5 -118v-303h-85v527h85v-86h6q17 36 51.5 61t83.5 25h128v75q0 54 29 95t112 41q20 0 40.5 -2.5t29.5 -5.5v-60q-20 5 -50 5q-35 0 -51.5 -13.5z" />
    <glyph glyph-name="r_t.dlig" horiz-adv-x="718" 
d="M541 458v-301q0 -38 3.5 -56.5t19 -29.5t50.5 -11q24 0 52 7v-62q-7 -3 -30.5 -6t-48.5 -3q-59 0 -88 19t-36.5 49.5t-7.5 79.5v314h-167q-54 0 -91 -39.5t-37 -122.5v-296h-85v527h85v-86h6q17 36 51.5 61t83.5 25h154v173h86v-173h125v-69h-125z" />
    <glyph glyph-name="f_f.liga.ss01" horiz-adv-x="739" 
d="M596.5 654.5q-16.5 -11.5 -20 -28t-3.5 -44.5v-55h125v-69h-125v-458h-86l-1 458h-280v-458h-86l-1 458h-72v69h72v69q0 142 145 142h67v-72h-50q-35 0 -51.5 -11.5t-20 -28t-3.5 -44.5v-55h280v69q0 142 145 142h67v-72h-50q-35 0 -51.5 -11.5z" />
    <glyph glyph-name="f_i.liga.ss01" horiz-adv-x="625" 
d="M542 0h-86v458h-250v-458h-86l-1 458h-72v69h72v69q0 142 145 142h67v-72h-50q-35 0 -51.5 -11.5t-20 -28t-3.5 -44.5v-55h336v-527zM461 641.5q-16 16.5 -16 39.5t16 39.5t40 16.5t40 -16.5t16 -39.5t-16 -39.5t-40 -16.5t-40 16.5z" />
    <glyph glyph-name="t_t.liga.ss01" horiz-adv-x="785" 
d="M609 458v-288q0 -39 4 -59t19.5 -31t48.5 -11h47v-69h-74q-58 0 -86.5 20t-37 52t-8.5 83l1 303h-307v-288q0 -38 4.5 -58.5t20 -31.5t48.5 -11h47v-69h-74q-58 0 -86.5 20t-37 52t-8.5 83v303h-98v69h98v173h86v-173h307v173h86v-173h125v-69h-125z" />
    <glyph glyph-name="ordfeminine" unicode="&#xaa;" horiz-adv-x="154" 
d="M17.5 406.5q-14.5 19.5 -14.5 52.5t15 52.5t41 19.5q17 0 26.5 -8t13.5 -16h2v21h40v-139h-40v23h-2q-12 -25 -40 -25q-27 0 -41.5 19.5zM95 430.5q7 12.5 7 28.5t-7 28t-22 12q-16 0 -23.5 -12t-7.5 -28t7.5 -28.5t23.5 -12.5q15 0 22 12.5z" />
    <glyph glyph-name="ordmasculine" unicode="&#xba;" horiz-adv-x="161" 
d="M30.5 408q-17.5 21 -17.5 52q0 30 17.5 51.5t50.5 21.5t50.5 -21.5t17.5 -51.5t-18 -51.5t-50 -21.5q-33 0 -50.5 21zM104.5 429q8.5 13 8.5 31t-8.5 31t-23.5 13q-16 0 -24 -12.5t-8 -31.5q0 -18 8.5 -31t23.5 -13t23.5 13z" />
    <glyph glyph-name="zero" unicode="0" horiz-adv-x="605" 
d="M113.5 76.5q-62.5 86.5 -62.5 224.5v104q0 138 62.5 223.5t188.5 85.5t188 -85.5t62 -223.5v-104q0 -138 -62.5 -224.5t-187.5 -86.5q-126 0 -188.5 86.5zM418.5 126q40.5 60 40.5 178v97q0 118 -40 177.5t-117 59.5t-117.5 -59.5t-40.5 -177.5v-97q0 -118 40.5 -178
t117.5 -60q76 0 116.5 60z" />
    <glyph glyph-name="one" unicode="1" horiz-adv-x="493" 
d="M451 77v-77h-355v77h142v520h-4l-140 -132v103l140 132h85v-623h132z" />
    <glyph glyph-name="two" unicode="2" horiz-adv-x="585" 
d="M71 75l168 151l18 15q64 56 100.5 92.5t61 79.5t24.5 90q0 57 -34.5 96.5t-104.5 39.5q-83 0 -113 -46.5t-30 -102.5v-7h-85q0 60 23 112.5t74.5 86t130.5 33.5q75 0 125 -29.5t73.5 -77t23.5 -102.5q0 -61 -27 -112.5t-66 -92t-107 -99.5l-137 -120v-5h344v-77h-462v75z
" />
    <glyph glyph-name="three" unicode="3" horiz-adv-x="588" 
d="M135.5 44q-59.5 52 -73.5 128h87q14 -46 52.5 -74t100.5 -28q74 0 111.5 37t37.5 93q0 62 -43 95t-106 33h-66v69h62q60 0 102 28t42 91q0 58 -39 92t-103 34q-60 0 -94.5 -28t-44.5 -73h-84q12 72 65 123.5t159 51.5q76 0 127 -28t75 -72.5t24 -95.5q0 -54 -24 -88.5
t-52.5 -51t-38.5 -16.5v-6q13 -1 42.5 -16t55 -52t25.5 -97q0 -55 -25 -100.5t-77.5 -73t-129.5 -27.5q-108 0 -167.5 52z" />
    <glyph glyph-name="four" unicode="4" horiz-adv-x="602" 
d="M368 173l-322 1v78l298 448h109v-457h100v-70h-100v-173h-85v173zM368 244v353l-239 -353h239z" />
    <glyph glyph-name="five" unicode="5" horiz-adv-x="604" 
d="M194 22q-51 26 -81 67.5t-38 90.5h86q16 -54 57 -80t93 -26q73 0 113 46.5t40 122.5q0 81 -44 122t-110 41q-67 0 -95.5 -30t-39.5 -58l-90 6l19 376h398v-80h-326l-12 -225h4q51 77 160 77q65 0 115.5 -27.5t78.5 -79t28 -123.5q0 -70 -28.5 -126t-82.5 -88t-127 -32
q-67 0 -118 26z" />
    <glyph glyph-name="six" unicode="6" horiz-adv-x="590" 
d="M182 17.5q-55 25.5 -90 80t-35 137.5q0 85 32.5 156t96.5 163l100 146h88l-220 -326l3 -1l17 18q55 57 141 57q62 0 111.5 -27.5t78 -78.5t28.5 -119q0 -72 -31.5 -124.5t-85 -79.5t-117.5 -27q-62 0 -117 25.5zM378.5 86q35.5 22 54 57.5t18.5 77.5q0 41 -18.5 78
t-54.5 59.5t-85 22.5q-70 0 -111.5 -46t-41.5 -113q0 -43 18.5 -79t53.5 -57.5t82 -21.5q49 0 84.5 22z" />
    <glyph glyph-name="seven" unicode="7" horiz-adv-x="512" 
d="M117 12l267 600v8h-357v80h444v-85l-266 -615h-88v12z" />
    <glyph glyph-name="eight" unicode="8" horiz-adv-x="611" 
d="M169.5 17q-56.5 28 -84 74t-27.5 99q0 46 19 82.5t47 60t55 31.5v5q-37 16 -65.5 56t-28.5 96q0 51 25.5 95t76 71t122.5 27q73 0 123.5 -27.5t75 -72t24.5 -93.5q0 -56 -30 -97t-65 -55v-5q27 -8 55 -31.5t47 -60t19 -82.5q0 -53 -27 -99t-83.5 -74t-139.5 -28
q-82 0 -138.5 28zM414 429.5q36 35.5 36 87.5q0 51 -36 87.5t-106 36.5t-105.5 -36t-35.5 -88t35.5 -87.5t105.5 -35.5t106 35.5zM399 82.5q37 19.5 55 51t18 67.5q0 57 -42 97.5t-122 40.5q-81 0 -122.5 -40.5t-41.5 -98.5q0 -57 41.5 -97t121.5 -40q55 0 92 19.5z" />
    <glyph glyph-name="nine" unicode="9" horiz-adv-x="590" 
d="M436 329l-3 1l-17 -18q-55 -57 -141 -57q-62 0 -111.5 28t-78 79.5t-28.5 119.5q0 73 31.5 125.5t85 79.5t118.5 27q61 0 116 -25.5t90 -80.5t35 -138q0 -60 -17 -114t-44 -100.5t-69 -108.5l-98 -147l-95 -1zM378.5 344q34.5 22 53 58.5t18.5 79.5t-18.5 79.5
t-53.5 58.5t-82 22q-49 0 -84.5 -22t-54 -58.5t-18.5 -78.5q0 -41 18.5 -78t54.5 -60t85 -23q47 0 81.5 22z" />
    <glyph glyph-name="one.ss01" horiz-adv-x="492" 
d="M449 77v-77h-355v77h142v546h-138v77h220v-623h131z" />
    <glyph glyph-name="seven.ss01" horiz-adv-x="512" 
d="M471 615l-266 -615h-88v12l267 600v8h-279v-82h-77l-1 82v80h444v-85z" />
    <glyph glyph-name="uni2080" unicode="&#x2080;" horiz-adv-x="333" 
d="M60.5 -193.5q-34.5 57.5 -34.5 135.5q0 79 34.5 136.5t106.5 57.5q73 0 106.5 -58t33.5 -136t-33.5 -135.5t-106.5 -57.5q-72 0 -106.5 57.5zM225 -163q19 41 19 104q0 64 -19 106t-58 42t-58.5 -42t-19.5 -106q0 -63 19 -104t59 -41q39 0 58 41z" />
    <glyph glyph-name="uni2081" unicode="&#x2081;" horiz-adv-x="257" 
d="M231 -201v-51h-203v51h78v256h-2l-77 -71v67l78 72h54v-324h72z" />
    <glyph glyph-name="uni2082" unicode="&#x2082;" horiz-adv-x="305" 
d="M27 -201l78 75q7 6 42 35.5t52.5 56.5t17.5 53q0 25 -15 43.5t-49 18.5q-40 0 -54 -24.5t-14 -54.5h-56q0 54 32 90.5t93 36.5q57 0 87.5 -31.5t30.5 -77.5q0 -44 -22.5 -74.5t-65.5 -68.5l-18 -16l-63 -59v-3h175v-51h-251v51z" />
    <glyph glyph-name="uni2083" unicode="&#x2083;" horiz-adv-x="315" 
d="M65.5 -222q-34.5 31 -38.5 73h57q7 -23 27.5 -37t48.5 -14q34 0 53 18t19 44q0 29 -21.5 45.5t-50.5 16.5h-36v45h33q29 0 49.5 14t20.5 44q0 28 -19 44.5t-50 16.5q-29 0 -46 -14t-21 -36h-57q7 40 37.5 69t87.5 29q62 0 93.5 -32t31.5 -75q0 -28 -13 -46.5t-28 -27.5
t-19 -9v-2q17 -7 27 -12.5t23.5 -24t13.5 -48.5q0 -43 -32.5 -77.5t-95.5 -34.5q-60 0 -94.5 31z" />
    <glyph glyph-name="uni2084" unicode="&#x2084;" horiz-adv-x="331" 
d="M196 -162h-169v49l154 235h71v-238h52v-46h-52v-90h-56v90zM196 -116v181l-120 -181h120z" />
    <glyph glyph-name="uni2085" unicode="&#x2085;" horiz-adv-x="314" 
d="M67.5 -222q-34.5 30 -40.5 74h57q7 -27 27.5 -40.5t44.5 -13.5q35 0 54.5 23t19.5 59q0 39 -21.5 58.5t-53.5 19.5q-30 0 -45 -14t-20 -27l-59 2l10 206h227v-53h-178l-7 -109h3q1 4 10.5 13t28 17t45.5 8q52 0 84.5 -32.5t32.5 -87.5q0 -57 -34.5 -95t-95.5 -38
q-55 0 -89.5 30z" />
    <glyph glyph-name="uni2086" unicode="&#x2086;" horiz-adv-x="314" 
d="M65 -219.5q-38 32.5 -38 97.5q0 45 16.5 80t49.5 85l55 85h61l-118 -171h2l8 8q28 28 71 28q49 0 81 -33.5t32 -87.5q0 -58 -37 -91t-91 -33t-92 32.5zM213 -182.5q21 23.5 21 53.5q0 32 -20.5 55.5t-56.5 23.5q-35 0 -55.5 -22.5t-20.5 -54.5t20.5 -55.5t55.5 -23.5
t56 23.5z" />
    <glyph glyph-name="uni2087" unicode="&#x2087;" horiz-adv-x="296" 
d="M73 -246l143 313v4h-189v52h242v-58l-140 -317h-56v6z" />
    <glyph glyph-name="uni2088" unicode="&#x2088;" horiz-adv-x="324" 
d="M61 -221q-34 32 -34 77q0 36 20.5 60t42.5 32v3q-19 8 -34.5 28t-15.5 52q0 42 31.5 73t91.5 31t91.5 -31.5t31.5 -72.5q0 -33 -17 -53.5t-35 -26.5v-3q24 -9 43.5 -32.5t19.5 -59.5q0 -44 -34 -76.5t-100 -32.5q-68 0 -102 32zM213.5 -15q17.5 18 17.5 43q0 23 -18 42
t-50 19q-33 0 -51.5 -18.5t-18.5 -42.5q0 -25 18 -43t52 -18q33 0 50.5 18zM220 -184q20 20 20 48q0 26 -20 46t-57 20q-39 0 -59 -20.5t-20 -46.5q0 -27 19.5 -47t57.5 -20q39 0 59 20z" />
    <glyph glyph-name="uni2089" unicode="&#x2089;" horiz-adv-x="314" 
d="M249.5 96q38.5 -33 38.5 -97q0 -44 -17 -81.5t-49 -85.5l-55 -84h-61l115 169l-7 -6q-28 -28 -70 -28q-50 0 -82.5 33.5t-32.5 88.5q0 57 37 90.5t92 33.5q53 0 91.5 -33zM213.5 -50.5q20.5 23.5 20.5 55.5q0 30 -20.5 54t-55.5 24t-55.5 -24t-20.5 -54q0 -31 20.5 -55
t56.5 -24q34 0 54.5 23.5z" />
    <glyph glyph-name="zero.dnom" horiz-adv-x="632" 
d="M112.5 76.5q-62.5 86.5 -62.5 224.5v104q0 138 62.5 223.5t188.5 85.5t188 -85.5t62 -223.5v-104q0 -138 -62.5 -224.5t-187.5 -86.5q-126 0 -188.5 86.5zM417.5 126q40.5 60 40.5 178v97q0 118 -40 177.5t-117 59.5t-117.5 -59.5t-40.5 -177.5v-97q0 -118 40.5 -178
t117.5 -60q76 0 116.5 60z" />
    <glyph glyph-name="one.dnom" horiz-adv-x="500" 
d="M445 77v-77h-355v77h142v520h-4l-140 -132v103l140 132h85v-623h132z" />
    <glyph glyph-name="two.dnom" horiz-adv-x="585" 
d="M68 75l168 151l18 15q64 56 100.5 92.5t61 79.5t24.5 90q0 57 -34.5 96.5t-104.5 39.5q-83 0 -113 -46.5t-30 -102.5v-7h-85q0 60 23 112.5t74.5 86t130.5 33.5q75 0 125 -29.5t73.5 -77t23.5 -102.5q0 -61 -27 -112.5t-66 -92t-107 -99.5l-137 -120v-5h344v-77h-462v75z
" />
    <glyph glyph-name="three.dnom" horiz-adv-x="588" 
d="M133.5 44q-59.5 52 -73.5 128h87q14 -46 52.5 -74t100.5 -28q74 0 111.5 37t37.5 93q0 62 -43 95t-106 33h-66v69h62q60 0 102 28t42 91q0 58 -39 92t-103 34q-60 0 -94.5 -28t-44.5 -73h-84q12 72 65 123.5t159 51.5q76 0 127 -28t75 -72.5t24 -95.5q0 -54 -24 -88.5
t-52.5 -51t-38.5 -16.5v-6q13 -1 42.5 -16t55 -52t25.5 -97q0 -55 -25 -100.5t-77.5 -73t-129.5 -27.5q-108 0 -167.5 52z" />
    <glyph glyph-name="four.dnom" horiz-adv-x="616" 
d="M367 173l-322 1v78l298 448h109v-457h100v-70h-100v-173h-85v173zM367 244v353l-239 -353h239z" />
    <glyph glyph-name="five.dnom" horiz-adv-x="604" 
d="M195 22q-51 26 -81 67.5t-38 90.5h86q16 -54 57 -80t93 -26q73 0 113 46.5t40 122.5q0 81 -44 122t-110 41q-67 0 -95.5 -30t-39.5 -58l-90 6l19 376h398v-80h-326l-12 -225h4q51 77 160 77q65 0 115.5 -27.5t78.5 -79t28 -123.5q0 -70 -28.5 -126t-82.5 -88t-127 -32
q-67 0 -118 26z" />
    <glyph glyph-name="six.dnom" horiz-adv-x="590" 
d="M182 17.5q-55 25.5 -90 80t-35 137.5q0 85 32.5 156t96.5 163l100 146h88l-220 -326l3 -1l17 18q55 57 141 57q62 0 111.5 -27.5t78 -78.5t28.5 -119q0 -72 -31.5 -124.5t-85 -79.5t-117.5 -27q-62 0 -117 25.5zM378.5 86q35.5 22 54 57.5t18.5 77.5q0 41 -18.5 78
t-54.5 59.5t-85 22.5q-70 0 -111.5 -46t-41.5 -113q0 -43 18.5 -79t53.5 -57.5t82 -21.5q49 0 84.5 22z" />
    <glyph glyph-name="seven.dnom" horiz-adv-x="512" 
d="M114 12l267 600v8h-357v80h444v-85l-266 -615h-88v12z" />
    <glyph glyph-name="eight.dnom" horiz-adv-x="594" 
d="M168.5 17q-56.5 28 -84 74t-27.5 99q0 46 19 82.5t47 60t55 31.5v5q-37 16 -65.5 56t-28.5 96q0 51 25.5 95t76 71t122.5 27q73 0 123.5 -27.5t75 -72t24.5 -93.5q0 -56 -30 -97t-65 -55v-5q27 -8 55 -31.5t47 -60t19 -82.5q0 -53 -27 -99t-83.5 -74t-139.5 -28
q-82 0 -138.5 28zM413 429.5q36 35.5 36 87.5q0 51 -36 87.5t-106 36.5t-105.5 -36t-35.5 -88t35.5 -87.5t105.5 -35.5t106 35.5zM398 82.5q37 19.5 55 51t18 67.5q0 57 -42 97.5t-122 40.5q-81 0 -122.5 -40.5t-41.5 -98.5q0 -57 41.5 -97t121.5 -40q55 0 92 19.5z" />
    <glyph glyph-name="nine.dnom" horiz-adv-x="590" 
d="M436 329l-3 1l-17 -18q-55 -57 -141 -57q-62 0 -111.5 28t-78 79.5t-28.5 119.5q0 73 31.5 125.5t85 79.5t118.5 27q61 0 116 -25.5t90 -80.5t35 -138q0 -60 -17 -114t-44 -100.5t-69 -108.5l-98 -147l-95 -1zM378.5 344q34.5 22 53 58.5t18.5 79.5t-18.5 79.5
t-53.5 58.5t-82 22q-49 0 -84.5 -22t-54 -58.5t-18.5 -78.5q0 -41 18.5 -78t54.5 -60t85 -23q47 0 81.5 22z" />
    <glyph glyph-name="zero.numr" horiz-adv-x="632" 
d="M112.5 76.5q-62.5 86.5 -62.5 224.5v104q0 138 62.5 223.5t188.5 85.5t188 -85.5t62 -223.5v-104q0 -138 -62.5 -224.5t-187.5 -86.5q-126 0 -188.5 86.5zM417.5 126q40.5 60 40.5 178v97q0 118 -40 177.5t-117 59.5t-117.5 -59.5t-40.5 -177.5v-97q0 -118 40.5 -178
t117.5 -60q76 0 116.5 60z" />
    <glyph glyph-name="one.numr" horiz-adv-x="500" 
d="M445 77v-77h-355v77h142v520h-4l-140 -132v103l140 132h85v-623h132z" />
    <glyph glyph-name="two.numr" horiz-adv-x="585" 
d="M68 75l168 151l18 15q64 56 100.5 92.5t61 79.5t24.5 90q0 57 -34.5 96.5t-104.5 39.5q-83 0 -113 -46.5t-30 -102.5v-7h-85q0 60 23 112.5t74.5 86t130.5 33.5q75 0 125 -29.5t73.5 -77t23.5 -102.5q0 -61 -27 -112.5t-66 -92t-107 -99.5l-137 -120v-5h344v-77h-462v75z
" />
    <glyph glyph-name="three.numr" horiz-adv-x="588" 
d="M133.5 44q-59.5 52 -73.5 128h87q14 -46 52.5 -74t100.5 -28q74 0 111.5 37t37.5 93q0 62 -43 95t-106 33h-66v69h62q60 0 102 28t42 91q0 58 -39 92t-103 34q-60 0 -94.5 -28t-44.5 -73h-84q12 72 65 123.5t159 51.5q76 0 127 -28t75 -72.5t24 -95.5q0 -54 -24 -88.5
t-52.5 -51t-38.5 -16.5v-6q13 -1 42.5 -16t55 -52t25.5 -97q0 -55 -25 -100.5t-77.5 -73t-129.5 -27.5q-108 0 -167.5 52z" />
    <glyph glyph-name="four.numr" horiz-adv-x="616" 
d="M367 173l-322 1v78l298 448h109v-457h100v-70h-100v-173h-85v173zM367 244v353l-239 -353h239z" />
    <glyph glyph-name="five.numr" horiz-adv-x="604" 
d="M195 22q-51 26 -81 67.5t-38 90.5h86q16 -54 57 -80t93 -26q73 0 113 46.5t40 122.5q0 81 -44 122t-110 41q-67 0 -95.5 -30t-39.5 -58l-90 6l19 376h398v-80h-326l-12 -225h4q51 77 160 77q65 0 115.5 -27.5t78.5 -79t28 -123.5q0 -70 -28.5 -126t-82.5 -88t-127 -32
q-67 0 -118 26z" />
    <glyph glyph-name="six.numr" horiz-adv-x="590" 
d="M182 17.5q-55 25.5 -90 80t-35 137.5q0 85 32.5 156t96.5 163l100 146h88l-220 -326l3 -1l17 18q55 57 141 57q62 0 111.5 -27.5t78 -78.5t28.5 -119q0 -72 -31.5 -124.5t-85 -79.5t-117.5 -27q-62 0 -117 25.5zM378.5 86q35.5 22 54 57.5t18.5 77.5q0 41 -18.5 78
t-54.5 59.5t-85 22.5q-70 0 -111.5 -46t-41.5 -113q0 -43 18.5 -79t53.5 -57.5t82 -21.5q49 0 84.5 22z" />
    <glyph glyph-name="seven.numr" horiz-adv-x="512" 
d="M114 12l267 600v8h-357v80h444v-85l-266 -615h-88v12z" />
    <glyph glyph-name="eight.numr" horiz-adv-x="594" 
d="M168.5 17q-56.5 28 -84 74t-27.5 99q0 46 19 82.5t47 60t55 31.5v5q-37 16 -65.5 56t-28.5 96q0 51 25.5 95t76 71t122.5 27q73 0 123.5 -27.5t75 -72t24.5 -93.5q0 -56 -30 -97t-65 -55v-5q27 -8 55 -31.5t47 -60t19 -82.5q0 -53 -27 -99t-83.5 -74t-139.5 -28
q-82 0 -138.5 28zM413 429.5q36 35.5 36 87.5q0 51 -36 87.5t-106 36.5t-105.5 -36t-35.5 -88t35.5 -87.5t105.5 -35.5t106 35.5zM398 82.5q37 19.5 55 51t18 67.5q0 57 -42 97.5t-122 40.5q-81 0 -122.5 -40.5t-41.5 -98.5q0 -57 41.5 -97t121.5 -40q55 0 92 19.5z" />
    <glyph glyph-name="nine.numr" horiz-adv-x="590" 
d="M436 329l-3 1l-17 -18q-55 -57 -141 -57q-62 0 -111.5 28t-78 79.5t-28.5 119.5q0 73 31.5 125.5t85 79.5t118.5 27q61 0 116 -25.5t90 -80.5t35 -138q0 -60 -17 -114t-44 -100.5t-69 -108.5l-98 -147l-95 -1zM378.5 344q34.5 22 53 58.5t18.5 79.5t-18.5 79.5
t-53.5 58.5t-82 22q-49 0 -84.5 -22t-54 -58.5t-18.5 -78.5q0 -41 18.5 -78t54.5 -60t85 -23q47 0 81.5 22z" />
    <glyph glyph-name="uni2070" unicode="&#x2070;" horiz-adv-x="334" 
d="M61 432q-34 58 -34 137q0 78 34 135t106 57q73 0 107 -57.5t34 -134.5q0 -78 -34 -136.5t-107 -58.5q-72 0 -106 58zM225 463q19 41 19 104q0 64 -19 105.5t-58 41.5t-58 -41.5t-19 -105.5q0 -63 19 -104t58 -41t58 41z" />
    <glyph glyph-name="uni00B9" unicode="&#xb9;" horiz-adv-x="258" 
d="M231 437v-51h-203v51h78v256h-2l-77 -70v66l78 72h54v-324h72z" />
    <glyph glyph-name="uni00B2" unicode="&#xb2;" horiz-adv-x="305" 
d="M27 430l78 75q7 6 42 35.5t52.5 56.5t17.5 53q0 25 -15 43.5t-49 18.5q-40 0 -54 -24.5t-14 -54.5h-56q0 54 32 90.5t93 36.5q57 0 87.5 -31.5t30.5 -77.5q0 -44 -22.5 -74.5t-65.5 -68.5l-18 -16l-63 -59v-3h175v-51h-251v51z" />
    <glyph glyph-name="uni00B3" unicode="&#xb3;" horiz-adv-x="315" 
d="M65.5 404q-34.5 31 -38.5 73h57q7 -23 27.5 -37t48.5 -14q35 0 53.5 18t18.5 44q0 29 -21.5 45.5t-50.5 16.5h-36v46h33q29 0 49.5 13.5t20.5 43.5q0 28 -19 44.5t-50 16.5q-30 0 -46.5 -14.5t-20.5 -36.5h-57q7 41 37 69.5t88 28.5q62 0 93.5 -32t31.5 -74
q0 -28 -13 -46.5t-28 -27.5t-19 -9v-2q17 -7 27 -12.5t23.5 -24t13.5 -48.5q0 -43 -32.5 -77.5t-95.5 -34.5q-60 0 -94.5 31z" />
    <glyph glyph-name="uni2074" unicode="&#x2074;" horiz-adv-x="331" 
d="M196 477h-169v48l154 236h71v-239h52v-45h-52v-91h-56v91zM196 523v180l-120 -180h120z" />
    <glyph glyph-name="uni2075" unicode="&#x2075;" horiz-adv-x="314" 
d="M67.5 414q-34.5 30 -40.5 74h57q7 -26 27.5 -39.5t44.5 -13.5q35 0 54.5 23t19.5 58q0 39 -22 59t-53 20q-44 0 -65 -41l-59 1l10 206h227v-53h-178l-7 -108h3q1 4 11 13t28.5 17t44.5 8q52 0 84.5 -33t32.5 -88q0 -56 -34.5 -94.5t-95.5 -38.5q-55 0 -89.5 30z" />
    <glyph glyph-name="uni2076" unicode="&#x2076;" horiz-adv-x="314" 
d="M65 414q-38 33 -38 97q0 32 9 60t21 48t36 58l55 84h61l-118 -171l2 1l8 7q29 29 71 29q49 0 81 -34t32 -87q0 -58 -37 -91.5t-91 -33.5t-92 33zM213 451q21 24 21 54q0 32 -20.5 55.5t-56.5 23.5q-35 0 -55.5 -23t-20.5 -55t21 -55.5t55 -23.5q35 0 56 24z" />
    <glyph glyph-name="uni2077" unicode="&#x2077;" horiz-adv-x="296" 
d="M73 392l143 313v4h-189v52h242v-58l-140 -317h-56v6z" />
    <glyph glyph-name="uni2078" unicode="&#x2078;" horiz-adv-x="324" 
d="M61 406q-34 32 -34 77q0 36 20.5 60t42.5 31v3q-18 8 -34 28.5t-16 52.5q0 42 31.5 72.5t91.5 30.5t91.5 -31t31.5 -72q0 -33 -16.5 -53.5t-35.5 -27.5v-3q24 -9 43.5 -32t19.5 -59q0 -44 -34 -76.5t-100 -32.5q-68 0 -102 32zM213.5 612q17.5 18 17.5 42q0 23 -18 42.5
t-50 19.5q-33 0 -51.5 -19.5t-18.5 -42.5q0 -25 18 -42.5t52 -17.5q33 0 50.5 18zM220 443q20 21 20 48t-20 46.5t-57 19.5q-39 0 -59 -20.5t-20 -46.5q0 -27 19.5 -47.5t57.5 -20.5q39 0 59 21z" />
    <glyph glyph-name="uni2079" unicode="&#x2079;" horiz-adv-x="314" 
d="M249.5 727q38.5 -33 38.5 -97q0 -44 -17 -81.5t-49 -85.5l-55 -84h-61l115 169l-7 -6q-32 -28 -70 -28q-50 0 -82.5 33.5t-32.5 88.5q0 58 37 91t92 33q53 0 91.5 -33zM213.5 581q20.5 24 20.5 55t-20.5 54.5t-55.5 23.5t-55.5 -23.5t-20.5 -53.5q0 -31 20.5 -55.5
t56.5 -24.5q34 0 54.5 24z" />
    <glyph glyph-name="fraction" unicode="&#x2044;" horiz-adv-x="479" 
d="M401 700h81l-419 -700h-80z" />
    <glyph glyph-name="onehalf" unicode="&#xbd;" horiz-adv-x="842" 
d="M242 350h-201v55h74v220h-2l-73 -67v75l74 67h61v-295h67v-55zM678 688l-412 -688h-74v12l411 688h75v-12zM802 55v-55h-239v54l67 62q8 6 40.5 31.5t49.5 51t17 50.5q0 24 -13 39t-41 15q-34 0 -46.5 -21t-12.5 -47h-58q0 54 31.5 88.5t87.5 34.5q54 0 82.5 -30
t28.5 -74q0 -40 -21 -69t-44.5 -50t-30.5 -27l-54 -51v-2h156z" />
    <glyph glyph-name="onequarter" unicode="&#xbc;" horiz-adv-x="812" 
d="M41 350v55h74v220h-2l-73 -67v75l74 67h61v-295h67v-55h-201zM658 688l-413 -688h-73v12l411 688h75v-12zM772 132v-48h-45v-84h-62v84l-156 1v48l139 217h79v-218h45zM666 295l-109 -162h109v162z" />
    <glyph glyph-name="threequarters" unicode="&#xbe;" horiz-adv-x="845" 
d="M77 366q-33 28 -37 74h62q5 -21 22.5 -33t42.5 -12q31 0 47 15.5t16 38.5q0 25 -17.5 39t-44.5 14h-31v47h28q24 0 42 11.5t18 37.5q0 24 -16 38.5t-43 14.5q-25 0 -40 -12t-18 -30h-61q6 40 35 67.5t85 27.5q60 0 90 -30t30 -71q0 -27 -11.5 -44t-25 -25t-17.5 -8v-4
q4 0 18.5 -8t27 -26t12.5 -46q0 -41 -30.5 -72.5t-93.5 -31.5q-57 0 -90 28zM201 12l411 688h75v-12l-412 -688h-74v12zM698 84l-155 1v48l138 217h79v-218h45v-48h-45v-84h-62v84zM699 133v162l-108 -162h108z" />
    <glyph glyph-name="oneeighth" unicode="&#x215b;" horiz-adv-x="897" 
d="M242 350h-201v55h74v220h-2l-73 -67v75l74 67h61v-295h67v-55zM690 688l-411 -688h-73v12l411 688h73v-12zM839 150.5q18 -21.5 18 -56.5q0 -42 -32 -71t-96 -29t-96 29t-32 71q0 35 19 57t39 28v3q-17 7 -32 26.5t-15 49.5q0 39 29.5 68.5t87.5 29.5q59 0 88.5 -30
t29.5 -68q0 -30 -15.5 -50t-31.5 -26v-3q21 -7 39 -28.5zM685.5 290q-14.5 -16 -14.5 -37q0 -22 14.5 -37t43.5 -15t43.5 15t14.5 37q0 21 -14.5 37t-43.5 16t-43.5 -16zM780 62.5q17 17.5 17 40.5q0 24 -17 41.5t-50 17.5q-34 0 -51.5 -18t-17.5 -42q0 -23 17.5 -40
t51.5 -17q33 0 50 17.5z" />
    <glyph glyph-name="threeeighths" unicode="&#x215c;" horiz-adv-x="857" 
d="M77 366q-33 28 -37 74h62q5 -21 22 -33t43 -12q31 0 47 15.5t16 38.5q0 25 -17.5 38.5t-44.5 13.5h-31v48h28q25 0 43.5 12t18.5 38q0 24 -16.5 39t-44.5 15q-26 0 -40.5 -12.5t-18.5 -31.5h-60q7 41 36 68t84 27q60 0 90 -30t30 -72q0 -26 -11.5 -43t-25 -25t-17.5 -8
v-4q4 0 18.5 -8t27 -26t12.5 -46q0 -40 -31 -72t-93 -32q-57 0 -90 28zM188 12l411 688h74v-12l-412 -688h-73v12zM593 23q-32 29 -32 71q0 35 18 56.5t39 28.5v3q-17 7 -32 26.5t-15 49.5q0 39 30 68.5t88 29.5q59 0 88 -29.5t29 -68.5q0 -31 -15 -50.5t-31 -25.5v-3
q20 -6 38.5 -28t18.5 -57q0 -42 -32 -71t-96 -29t-96 29zM732.5 216.5q14.5 15.5 14.5 36.5t-15 37t-43 16q-29 0 -44 -16t-15 -37q0 -22 14.5 -37t44.5 -15q29 0 43.5 15.5zM740 62.5q17 17.5 17 40.5q0 24 -17 41.5t-51 17.5t-51 -18t-17 -42q0 -23 17 -40t50 -17
q35 0 52 17.5z" />
    <glyph glyph-name="fiveeighths" unicode="&#x215d;" horiz-adv-x="896" 
d="M78 379.5q-32 28.5 -38 71.5h61q6 -22 22.5 -33t38.5 -11q29 0 45.5 19t16.5 50q0 34 -18.5 51t-43.5 17q-27 0 -40 -13t-15 -23l-64 2l9 194h218v-55h-166l-5 -95h3q1 3 10 11.5t26 15.5t41 7q49 0 78.5 -30.5t29.5 -81.5q0 -53 -32.5 -89t-91.5 -36q-53 0 -85 28.5z
M200 12l411 688h73v-12l-412 -688h-72v12zM632.5 23q-31.5 29 -31.5 71q0 34 18 56t39 29v3q-17 6 -32 25.5t-15 50.5q0 39 29.5 68.5t87.5 29.5q59 0 88.5 -29.5t29.5 -68.5q0 -30 -15.5 -50t-31.5 -26v-3q21 -7 39 -28.5t18 -56.5q0 -42 -31.5 -71t-96.5 -29
q-64 0 -95.5 29zM771.5 216q14.5 15 14.5 37q0 21 -15 37t-43 16q-29 0 -43.5 -16t-14.5 -37q0 -22 14.5 -37t43.5 -15t43.5 15zM779.5 62.5q17.5 17.5 17.5 40.5q0 24 -17.5 41.5t-50.5 17.5q-34 0 -51 -17.5t-17 -42.5q0 -23 17 -40t50 -17q34 0 51.5 17.5z" />
    <glyph glyph-name="seveneighths" unicode="&#x215e;" horiz-adv-x="903" 
d="M198 12l411 688h73v-12l-412 -688h-72v12zM83 355l131 283v3h-174v58h234v-63l-128 -287h-63v6zM639 23q-32 29 -32 71q0 34 18.5 56t39.5 29v3q-17 6 -32 25.5t-15 50.5q0 39 30 68.5t88 29.5q59 0 88 -29.5t29 -68.5q0 -30 -15.5 -50t-31.5 -26v-3q21 -7 39 -29t18 -56
q0 -42 -32 -71t-96 -29t-96 29zM778.5 216q14.5 15 14.5 37q0 21 -15 37t-43 16q-29 0 -43.5 -16t-14.5 -37q0 -22 14.5 -37t43.5 -15t43.5 15zM786.5 62.5q17.5 17.5 17.5 40.5q0 24 -17.5 41.5t-50.5 17.5q-34 0 -51 -17.5t-17 -42.5q0 -23 16.5 -40t50.5 -17t51.5 17.5z
" />
    <glyph glyph-name="period" unicode="." horiz-adv-x="273" 
d="M95.5 10.5q-16.5 17.5 -16.5 41.5t16.5 40.5t41.5 16.5t41.5 -16.5t16.5 -40.5t-17 -41.5t-41 -17.5q-25 0 -41.5 17.5z" />
    <glyph glyph-name="comma" unicode="," horiz-adv-x="286" 
d="M98 -124q61 27 61 80q0 25 -8.5 31.5t-25.5 6.5q-50 0 -50 49q0 27 16.5 43t46.5 16q71 0 71 -77v-36q0 -62 -30.5 -98.5t-80.5 -51.5v37z" />
    <glyph glyph-name="colon" unicode=":" horiz-adv-x="293" 
d="M88.5 10.5q-16.5 17.5 -16.5 41.5t16.5 40.5t41.5 16.5t41.5 -16.5t16.5 -40.5t-17 -41.5t-41 -17.5q-25 0 -41.5 17.5zM88.5 423.5q-16.5 17.5 -16.5 41.5t16.5 40.5t41.5 16.5t41.5 -16.5t16.5 -40.5t-17 -41.5t-41 -17.5q-25 0 -41.5 17.5z" />
    <glyph glyph-name="semicolon" unicode=";" horiz-adv-x="315" 
d="M106.5 423.5q-16.5 17.5 -16.5 41.5t16.5 40.5t41.5 16.5t41.5 -16.5t16.5 -40.5t-17 -41.5t-41 -17.5q-25 0 -41.5 17.5zM110 -123q61 27 61 80q0 25 -8.5 31.5t-25.5 6.5q-50 0 -50 49q0 27 16.5 43t46.5 16q71 0 71 -77v-36q0 -62 -30.5 -98.5t-80.5 -51.5v37z" />
    <glyph glyph-name="ellipsis" unicode="&#x2026;" horiz-adv-x="802" 
d="M347.5 10.5q-16.5 17.5 -16.5 41.5t16.5 40.5t41.5 16.5t41.5 -16.5t16.5 -40.5t-17 -41.5t-41 -17.5q-25 0 -41.5 17.5zM602.5 10.5q-16.5 17.5 -16.5 41.5t16.5 40.5t41.5 16.5t41.5 -16.5t16.5 -40.5t-17 -41.5t-41 -17.5q-25 0 -41.5 17.5zM94.5 10.5
q-16.5 17.5 -16.5 41.5t16.5 40.5t41.5 16.5t41.5 -16.5t16.5 -40.5t-17 -41.5t-41 -17.5q-25 0 -41.5 17.5z" />
    <glyph glyph-name="exclam" unicode="!" horiz-adv-x="244" 
d="M75 633v120h94v-120l-17 -449h-59zM83 7.5q-16 16.5 -16 39.5t16 39t39 16q24 0 40 -16t16 -39t-16 -39.5t-40 -16.5q-23 0 -39 16.5z" />
    <glyph glyph-name="exclamdown" unicode="&#xa1;" horiz-adv-x="230" 
d="M162 495.5q16 -16.5 16 -39.5t-16 -39t-40 -16q-23 0 -39 16t-16 39t16 39.5t39 16.5q24 0 40 -16.5zM152 319l17 -449v-120h-94v120l18 449h59z" />
    <glyph glyph-name="question" unicode="?" horiz-adv-x="577" 
d="M240 192q0 47 25 82.5t74 81.5q48 45 72 78.5t24 77.5q0 59 -39 91t-102 32q-52 0 -85 -22t-47.5 -55t-14.5 -67v-4h-87v4q0 65 28.5 116t81.5 80t124 29q69 0 120.5 -26t79.5 -71.5t28 -102.5q0 -41 -15.5 -75t-38 -59t-58.5 -59q-43 -40 -64 -68t-21 -63v-8h-85v8z
M243.5 7q-15.5 16 -15.5 40q0 23 15.5 39t39.5 16q23 0 39 -16t16 -39t-16 -39.5t-39 -16.5q-24 0 -39.5 16z" />
    <glyph glyph-name="questiondown" unicode="&#xbf;" horiz-adv-x="577" 
d="M338.5 461q15.5 -16 15.5 -40q0 -23 -15.5 -39t-39.5 -16t-40 16t-16 39t16 39.5t40 16.5t39.5 -16zM342 276q0 -47 -25 -82.5t-74 -81.5q-48 -45 -72 -78.5t-24 -77.5q0 -59 39 -91t102 -32q52 0 85 22t47.5 55t14.5 67v4h87v-4q0 -65 -28.5 -116t-81.5 -80t-124 -29
q-69 0 -120.5 26t-79.5 71.5t-28 102.5q0 41 15.5 75t37.5 59t58 59q43 40 64 68t21 63v8h86v-8z" />
    <glyph glyph-name="periodcentered" unicode="&#xb7;" horiz-adv-x="283" 
d="M99.5 325.5q-16.5 17.5 -16.5 41.5t16.5 40.5t41.5 16.5t41.5 -16.5t16.5 -40.5t-17 -41.5t-41 -17.5q-25 0 -41.5 17.5z" />
    <glyph glyph-name="bullet" unicode="&#x2022;" horiz-adv-x="393" 
d="M98 305q-28 29 -28 71q0 40 28.5 69t69.5 29q42 0 71 -29t29 -69q0 -41 -29 -70.5t-71 -29.5t-70 29z" />
    <glyph glyph-name="asterisk" unicode="*" horiz-adv-x="507" 
d="M233 551l-119 -82l-32 59l127 59l-127 60l32 59l119 -83l-12 146h65l-12 -147l119 84l32 -59l-127 -60l127 -59l-32 -59l-119 82l12 -145h-65z" />
    <glyph glyph-name="numbersign" unicode="#" horiz-adv-x="878" 
d="M628 438l-39 -184h166l-15 -65h-165l-41 -189h-73v12l38 177h-183l-41 -189h-73v12l38 177h-159l15 65h158l40 184h-171l14 66h171l42 196h73v-12l-40 -184h185l42 196h72v-12l-40 -184h154l-14 -66h-154zM553 438h-184l-39 -184h183z" />
    <glyph glyph-name="slash" unicode="/" horiz-adv-x="510" 
d="M400 803h84l-346 -959h-84z" />
    <glyph glyph-name="backslash" unicode="\" horiz-adv-x="510" 
d="M373 -156l-347 959h84l346 -959h-83z" />
    <glyph glyph-name="colon.case" horiz-adv-x="293" 
d="M88.5 10.5q-16.5 17.5 -16.5 41.5t16.5 40.5t41.5 16.5t41.5 -16.5t16.5 -40.5t-17 -41.5t-41 -17.5q-25 0 -41.5 17.5zM88.5 423.5q-16.5 17.5 -16.5 41.5t16.5 40.5t41.5 16.5t41.5 -16.5t16.5 -40.5t-17 -41.5t-41 -17.5q-25 0 -41.5 17.5z" />
    <glyph glyph-name="question.ss01" horiz-adv-x="600" 
d="M231 334h41q72 0 117.5 37t45.5 105v35q0 63 -39.5 95t-101.5 32q-65 0 -101.5 -33.5t-45.5 -81.5h-87q10 90 72 142t163 52q70 0 122.5 -25t80.5 -68t28 -97v-57q0 -49 -25.5 -91t-71.5 -67.5t-105 -25.5h-12l1 -97h-82v145zM236.5 6.5q-11.5 14.5 -11.5 34.5
q0 19 12 33t36 14t35.5 -13t11.5 -34q0 -20 -11.5 -34.5t-35.5 -14.5q-25 0 -36.5 14.5z" />
    <glyph glyph-name="questiondown.ss01" horiz-adv-x="577" 
d="M344.5 461.5q11.5 -14.5 11.5 -34.5q0 -19 -11.5 -33t-35.5 -14t-35.5 13t-11.5 34t11 35t36 14q24 0 35.5 -14.5zM350 134h-41q-71 0 -116.5 -37t-45.5 -105v-35q0 -63 39 -95t101 -32q65 0 101.5 33t46.5 82h87q-10 -90 -72 -142t-164 -52q-70 0 -122 25t-80 68t-28 97
v57q0 49 25.5 91t71 67.5t104.5 25.5h12v97h81v-145z" />
    <glyph glyph-name="parenleft" unicode="(" horiz-adv-x="460" 
d="M237.5 -104q-55.5 69 -91 169.5t-35.5 223.5q0 128 37 230.5t92.5 170t114.5 102.5l26 -26q-41 -38 -82.5 -105t-70 -163t-28.5 -209t29 -209t70 -163t82 -104l-25 -26q-63 40 -118.5 109z" />
    <glyph glyph-name="parenright" unicode=")" horiz-adv-x="489" 
d="M108 -187q41 37 82.5 104t70.5 163t29 209t-29 209t-70.5 163t-82.5 105l26 26q59 -35 115 -103t93 -170t37 -230q0 -123 -35.5 -223.5t-91 -169.5t-118.5 -109z" />
    </font>
</defs>
</svg>
