<svg xmlns="http://www.w3.org/2000/svg" viewBox="0 0 96 22.17"><title>Fichier 13</title><g id="Calque_2" data-name="Calque 2"><g id="Calque_1-2" data-name="Calque 1"><path d="M7.68,9.06A.32.32,0,0,1,7.55,9a.28.28,0,0,1,0-.32.26.26,0,0,1,.13-.1C9.28,8,12.09,6.11,12.17.28a.21.21,0,0,0,0-.11L12.1.08,12,0,11.9,0H8.25a.27.27,0,0,0-.19.08A.23.23,0,0,0,8,.26C7.92,1.46,7.24,6.55.2,8.54a.19.19,0,0,0-.14.09A.2.2,0,0,0,0,8.78H0v0A.2.2,0,0,0,.06,9a.19.19,0,0,0,.14.09c7,2,7.72,7.07,7.78,8.28a.23.23,0,0,0,.08.18.27.27,0,0,0,.19.08H11.9l.11,0,.09-.06a.41.41,0,0,0,.05-.09.22.22,0,0,0,0-.11C12.09,11.49,9.28,9.64,7.68,9.06Z"/><path d="M37.53,17.59h-3.9V11.52a1.6,1.6,0,0,0-.36-1.16,1.12,1.12,0,0,0-.38-.26,1.13,1.13,0,0,0-.45-.09,1.73,1.73,0,0,0-1,.43,2.56,2.56,0,0,0-.82,1.1v6.05h-3.9V6.81h3.51v1.6a3.69,3.69,0,0,1,1.61-1.35,6.14,6.14,0,0,1,2.46-.46A3.38,3.38,0,0,1,36,7a2.87,2.87,0,0,1,1,1,3.76,3.76,0,0,1,.44,1.27,8.5,8.5,0,0,1,.1,1.23Z"/><path d="M41.94,17.59,38.31,6.81h4l1.93,7.73,1.95-7.73h3.63L46.19,17.59Z"/><path d="M55.77,17.59a6.66,6.66,0,0,1-2.52-.44A5.18,5.18,0,0,1,51.39,16a5,5,0,0,1-1.13-1.74,5.25,5.25,0,0,1-.39-2.07,6.43,6.43,0,0,1,.37-2.22A5.21,5.21,0,0,1,51.37,8.1a5.48,5.48,0,0,1,1.85-1.24,7.3,7.3,0,0,1,5.1,0,5.54,5.54,0,0,1,1.86,1.23,5.29,5.29,0,0,1,1.13,1.78A6.17,6.17,0,0,1,61.69,12c0,.2,0,.41,0,.62s0,.4-.08.56H54a1.54,1.54,0,0,0,.64,1.25,2.21,2.21,0,0,0,1.25.37,2.49,2.49,0,0,0,1.2-.28,1.42,1.42,0,0,0,.75-.8l3.3.94a5.11,5.11,0,0,1-2,2.11A6.39,6.39,0,0,1,55.77,17.59Zm1.73-6.74a2,2,0,0,0-.58-1.23,1.66,1.66,0,0,0-1.21-.45,1.69,1.69,0,0,0-1.21.45,2,2,0,0,0-.57,1.23Z"/><path d="M70.28,10.13a7.87,7.87,0,0,0-2,.24,2.5,2.5,0,0,0-1.37.82v6.4H63V6.81h3.57V8.86A4.54,4.54,0,0,1,68,7.19a3.2,3.2,0,0,1,1.84-.59,4,4,0,0,1,.49,0Z"/><path d="M75.64,17.59a4.27,4.27,0,0,1-1.92-.42A4.39,4.39,0,0,1,72.23,16a5.22,5.22,0,0,1-1-1.71,6.46,6.46,0,0,1-.34-2.13,6.58,6.58,0,0,1,.37-2.24,5.07,5.07,0,0,1,1-1.76A4.73,4.73,0,0,1,76,6.6a4.33,4.33,0,0,1,2,.46A3.39,3.39,0,0,1,79.41,8.4V6.81H82.8v9.8a5.53,5.53,0,0,1-.47,2.3A4.94,4.94,0,0,1,81,20.65a6.36,6.36,0,0,1-2.08,1.12,8.71,8.71,0,0,1-2.68.4,7.65,7.65,0,0,1-3-.54A6.73,6.73,0,0,1,71,20.09L73,18a5.45,5.45,0,0,0,1.43.94,4.17,4.17,0,0,0,1.77.37,3.18,3.18,0,0,0,1-.14,2.27,2.27,0,0,0,.85-.46,2.22,2.22,0,0,0,.59-.83,3.42,3.42,0,0,0,.22-1.23v-.7a2.87,2.87,0,0,1-1.35,1.27A4.39,4.39,0,0,1,75.64,17.59ZM77,14.52a1.88,1.88,0,0,0,1-.28,2.87,2.87,0,0,0,.84-.83V11.48a2.69,2.69,0,0,0-.86-1.17,2,2,0,0,0-1.18-.43,1.61,1.61,0,0,0-.77.2,2,2,0,0,0-.62.51,2,2,0,0,0-.41.76,3,3,0,0,0-.15.93,2.22,2.22,0,0,0,.6,1.62A2,2,0,0,0,77,14.52Z"/><path d="M24.92,9.91a5.09,5.09,0,0,0-1.13-1.79,5.54,5.54,0,0,0-1.86-1.23,6.73,6.73,0,0,0-2.54-.46,6.72,6.72,0,0,0-2.56.46A5.76,5.76,0,0,0,15,8.12a5.06,5.06,0,0,0-1.12,1.79,6.07,6.07,0,0,0,0,4.24A5.06,5.06,0,0,0,15,15.94a5.6,5.6,0,0,0,1.85,1.23,6.54,6.54,0,0,0,2.56.46,6.54,6.54,0,0,0,2.54-.46,5.54,5.54,0,0,0,1.86-1.23,5.09,5.09,0,0,0,1.13-1.79,6.18,6.18,0,0,0,0-4.24Zm-5.53,4.65A2.59,2.59,0,0,1,18,14.14a2.52,2.52,0,0,1-1.08-2.61,2.47,2.47,0,0,1,.69-1.29,2.56,2.56,0,0,1,1.3-.7,2.48,2.48,0,0,1,1.47.15,2.45,2.45,0,0,1,1.13.93,2.53,2.53,0,0,1-2.1,3.94Z"/><path d="M95.62,9.88A5.14,5.14,0,0,0,94.49,8.1a5.54,5.54,0,0,0-1.86-1.23,6.5,6.5,0,0,0-2.54-.46,6.57,6.57,0,0,0-2.56.46A5.46,5.46,0,0,0,85.69,8.1a5,5,0,0,0-1.13,1.78,6.07,6.07,0,0,0,0,4.24,5.09,5.09,0,0,0,1.13,1.79,5.46,5.46,0,0,0,1.84,1.23,6.57,6.57,0,0,0,2.56.46,6.5,6.5,0,0,0,2.54-.46,5.54,5.54,0,0,0,1.86-1.23,5.14,5.14,0,0,0,1.13-1.78A6.09,6.09,0,0,0,95.62,9.88Zm-5.53,4.66A2.54,2.54,0,1,1,92.63,12,2.54,2.54,0,0,1,90.09,14.54Z"/></g></g></svg>